<svg id="Layer_1" data-name="Layer 1" xmlns="http://www.w3.org/2000/svg" viewBox="0 0 167.582 96.931"><defs><style>.cls-1,.cls-4{fill:#516674;}.cls-2,.cls-3{fill:#fff;}.cls-2,.cls-4{fill-rule:evenodd;}</style></defs><title>logo</title><rect class="cls-1" width="167.582" height="96.931"/><path class="cls-2" d="M40.471,49.182c-2.691,0-5.333-3.062-5.333-8.94,0-3.284,1.234-7.161,4.939-7.161,2.642,0,5.358,2.617,5.358,8.248,0,3.432-.963,7.853-4.964,7.853Zm11.557,3.581-.2-.544a6.916,6.916,0,0,1-2.272-.271A22.073,22.073,0,0,1,46.1,50.663L43.361,49.4a9.11,9.11,0,0,0,5.9-8.717,8.51,8.51,0,0,0-8.544-8.495,9.2,9.2,0,0,0-9.409,9.137A8.482,8.482,0,0,0,39.9,50.071h1.061l5.186,2.84c1.976,1.061,2.618,1.234,3.482.839l2.395-.987Z" transform="translate(-0.386 -0.75)"/><path class="cls-3" d="M66.273,49.108l-.149-.815c-1.234.4-1.629-.395-1.629-2.149V37.18l-.05-.049a12.5,12.5,0,0,1-5.161,1.037v.766c1.284,0,1.926.172,1.926,1.407v3.285c0,3.877-1.062,4.766-2.691,4.766-1.852,0-2.075-1.482-2.075-3.334V37.18l-.049-.049a12.472,12.472,0,0,1-5.137,1.037v.766c1.26,0,1.9.172,1.9,1.407V45.7c0,2.445.667,4.371,3.432,4.371a4.941,4.941,0,0,0,2.519-.667l2.1-1.161a3.116,3.116,0,0,0,.47,1.828l4.593-.963Z" transform="translate(-0.386 -0.75)"/><path class="cls-2" d="M75.72,44.737c0,2.3-1.087,3.457-2.519,3.457-1.111,0-1.679-.914-1.679-2.025,0-2.321,1.728-2.914,4.2-3.7v2.272Zm5.062,4.371-.074-.815c-1.309.4-1.7-.395-1.7-2.149V41.477c0-2.741-1.432-4.346-4.963-4.346a11.977,11.977,0,0,0-3.828.716,1.186,1.186,0,0,0-.815.938l-.321,1.161c-.074.3.074.4.247.494l1.21.4c.2.049.371.025.445-.2.592-1.284,1.309-2.643,2.642-2.643,1.432,0,2.074,1.432,2.074,3.457l-3.531,1.186c-2.395.864-3.926,1.629-3.926,4a3.17,3.17,0,0,0,3.111,3.433,4.167,4.167,0,0,0,2.321-.692l2.05-1.407a4.276,4.276,0,0,0,.469,2.1l4.593-.963Z" transform="translate(-0.386 -0.75)"/><path class="cls-3" d="M87.737,43.675c0-3.334.889-4.964,2.988-4.964,1.9,0,2.124,1.729,2.124,3.433v4.717a6.825,6.825,0,0,1-.1,1.506c-.1.444-.939.568-1.63.642v.765H98.06v-.765c-.865-.074-1.729-.2-1.828-.642a6.758,6.758,0,0,1-.1-1.506V41.5c0-2.568-.765-4.371-3.531-4.371A6.494,6.494,0,0,0,87.737,39.3V37.18l-.049-.049a12.505,12.505,0,0,1-5.161,1.037v.766c1.284,0,1.926.172,1.926,1.407v6.52a6.758,6.758,0,0,1-.1,1.506c-.1.444-.963.568-1.827.642v.765h6.964v-.765c-.716-.074-1.556-.2-1.655-.642a6.758,6.758,0,0,1-.1-1.506V43.675Z" transform="translate(-0.386 -0.75)"/><path class="cls-3" d="M108.216,49.4a10.248,10.248,0,0,0,3.729.667c2.346,0,4.89-.914,4.89-3.655,0-1.111-.321-2.124-2.346-3.655-1.926-1.457-3.013-2.1-3.013-3.111a1.485,1.485,0,0,1,1.605-1.581,2.651,2.651,0,0,1,2.371,2.223h.667V37.551a13.625,13.625,0,0,0-3.408-.42c-2.42,0-4.346,1.161-4.346,3.161,0,1.457.568,2.148,2.716,3.655,1.926,1.358,2.643,1.926,2.643,3.21a1.907,1.907,0,0,1-2,1.975,3.016,3.016,0,0,1-2.84-2.765h-.667V49.4Z" transform="translate(-0.386 -0.75)"/><path class="cls-2" d="M124.234,37.131a12.5,12.5,0,0,1-5.161,1.037v.766c1.284,0,1.926.172,1.926,1.407v6.52a6.825,6.825,0,0,1-.1,1.506c-.1.444-.964.568-1.828.642v.765h7.112v-.765c-.864-.074-1.7-.2-1.8-.642a6.825,6.825,0,0,1-.1-1.506V37.18l-.05-.049Zm-3.6-3.136a1.8,1.8,0,1,0,1.8-1.8,1.781,1.781,0,0,0-1.8,1.8Z" transform="translate(-0.386 -0.75)"/><path class="cls-3" d="M128.425,49.4a10.248,10.248,0,0,0,3.729.667c2.346,0,4.89-.914,4.89-3.655,0-1.111-.321-2.124-2.346-3.655-1.926-1.457-3.013-2.1-3.013-3.111a1.485,1.485,0,0,1,1.6-1.581,2.652,2.652,0,0,1,2.371,2.223h.667V37.551a13.631,13.631,0,0,0-3.408-.42c-2.42,0-4.346,1.161-4.346,3.161,0,1.457.568,2.148,2.716,3.655,1.926,1.358,2.642,1.926,2.642,3.21a1.906,1.906,0,0,1-2,1.975,3.016,3.016,0,0,1-2.84-2.765h-.667V49.4Z" transform="translate(-0.386 -0.75)"/><polygon class="cls-3" points="51.486 55.057 127.659 55.057 127.659 66.309 51.486 66.309 51.486 55.057 51.486 55.057"/><path class="cls-1" d="M70.4,57.972a2.54,2.54,0,0,0-.724-.155.87.87,0,0,0-.694.35,1.334,1.334,0,0,0-.281.861c0,.05,0,.1.006.149h1.274v1.182H68.731v4.964H67.3V60.359h-.9V59.177h.9a2.815,2.815,0,0,1,.665-1.825,2.072,2.072,0,0,1,1.613-.694,4.376,4.376,0,0,1,1.245.224l-.424,1.09Z" transform="translate(-0.386 -0.75)"/><path class="cls-4" d="M78.258,62.236a3.256,3.256,0,0,1,.81-2.29,3.125,3.125,0,0,1,4.321-.034,3.857,3.857,0,0,1-.018,4.659,3.139,3.139,0,0,1-4.338-.006,3.392,3.392,0,0,1-.775-2.329Zm1.492,0q0,2.031,1.464,2.031a1.25,1.25,0,0,0,1.061-.528,2.467,2.467,0,0,0,.4-1.5q0-2-1.457-2a1.266,1.266,0,0,0-1.068.528,2.413,2.413,0,0,0-.4,1.475Z" transform="translate(-0.386 -0.75)"/><path class="cls-4" d="M92.251,62.236a3.255,3.255,0,0,1,.809-2.29,3.125,3.125,0,0,1,4.321-.034,3.855,3.855,0,0,1-.017,4.659,3.14,3.14,0,0,1-4.339-.006,3.392,3.392,0,0,1-.774-2.329Zm1.492,0q0,2.031,1.463,2.031a1.251,1.251,0,0,0,1.062-.528,2.467,2.467,0,0,0,.4-1.5q0-2-1.458-2a1.264,1.264,0,0,0-1.067.528,2.413,2.413,0,0,0-.4,1.475Z" transform="translate(-0.386 -0.75)"/><path class="cls-4" d="M110.6,65.323V64.95a1.466,1.466,0,0,1-.6.344,2.743,2.743,0,0,1-.878.144,2.6,2.6,0,0,1-2.026-.815,3.272,3.272,0,0,1-.734-2.273,3.357,3.357,0,0,1,.843-2.37,2.772,2.772,0,0,1,2.123-.918,2.81,2.81,0,0,1,1.274.287V56.887l1.435-.344v8.78Zm0-4.677a1.513,1.513,0,0,0-.958-.367,1.673,1.673,0,0,0-1.326.528,2.193,2.193,0,0,0-.464,1.5q0,1.917,1.847,1.917a1.387,1.387,0,0,0,.5-.121.943.943,0,0,0,.4-.252V60.646Z" transform="translate(-0.386 -0.75)"/></svg>