<svg id="Layer_1" data-name="Layer 1" xmlns="http://www.w3.org/2000/svg" viewBox="0 0 654.494 215.83"><defs><style>.cls-1,.cls-2{fill:#fff;}.cls-1{fill-rule:evenodd;}</style></defs><title>logo_large_no_bg</title><path class="cls-1" d="M59.509,113.374c-16.66,0-33.016-18.954-33.016-55.335,0-20.329,7.641-44.328,30.572-44.328,16.355,0,33.169,16.2,33.169,51.055,0,21.246-5.962,48.608-30.725,48.608Zm71.538,22.165-1.222-3.363c-4.739.46-9.782-.611-14.062-1.682-5.045-1.222-12.535-3.974-21.4-7.949l-16.969-7.8c15.593-5.961,36.533-22.622,36.533-53.959,0-25.68-20.329-52.584-52.888-52.584C31.231,8.207,2.8,30.525,2.8,64.766c0,31.642,23.693,54.11,53.194,54.11h6.573l32.1,17.58c12.228,6.573,16.2,7.643,21.551,5.2l14.827-6.113Z" transform="translate(-2.8 -8.207)"/><path class="cls-2" d="M219.219,112.917l-.917-5.045c-7.644,2.444-10.088-2.447-10.088-13.3V39.086l-.305-.306c-8.255,4.432-21.554,6.267-31.948,6.419v4.739c7.949,0,11.921,1.069,11.921,8.712V78.982c0,24-6.572,29.5-16.66,29.5-11.464,0-12.841-9.171-12.841-20.635V39.086l-.305-.306c-8.255,4.432-21.554,6.267-31.8,6.419v4.739c7.8,0,11.772,1.069,11.772,8.712V91.822c0,15.133,4.126,27.054,21.246,27.054a30.575,30.575,0,0,0,15.592-4.126l12.992-7.184c0,3.821.614,8.255,2.907,11.31l28.43-5.959Z" transform="translate(-2.8 -8.207)"/><path class="cls-1" d="M277.7,85.86c0,14.217-6.727,21.4-15.592,21.4-6.879,0-10.394-5.656-10.394-12.535,0-14.37,10.7-18.039,25.986-22.93V85.86Zm31.336,27.057-.459-5.045c-8.1,2.444-10.548-2.447-10.548-13.3V65.683c0-16.969-8.865-26.9-30.722-26.9a74.16,74.16,0,0,0-23.7,4.432c-1.679.611-3.821,1.528-5.042,5.807l-1.988,7.187c-.459,1.833.457,2.444,1.528,3.055l7.489,2.447c1.225.306,2.3.154,2.753-1.222,3.669-7.949,8.1-16.357,16.355-16.357,8.868,0,12.84,8.865,12.84,21.4l-21.857,7.338c-14.828,5.351-24.305,10.089-24.305,24.764,0,12.84,8.561,21.246,19.259,21.246a25.8,25.8,0,0,0,14.371-4.28l12.686-8.711a26.421,26.421,0,0,0,2.9,12.991l28.432-5.959Z" transform="translate(-2.8 -8.207)"/><path class="cls-2" d="M352.086,79.288c0-20.638,5.5-30.725,18.5-30.725,11.769,0,13.146,10.7,13.146,21.246v29.2a41.947,41.947,0,0,1-.611,9.323c-.612,2.753-5.808,3.517-10.088,3.974v4.74h42.951V112.3c-5.35-.457-10.7-1.221-11.312-3.974a41.947,41.947,0,0,1-.611-9.323V65.834c0-15.9-4.737-27.054-21.857-27.054a40.2,40.2,0,0,0-30.115,13.451V39.086l-.305-.306c-8.255,4.432-21.554,6.267-31.948,6.419v4.739c7.949,0,11.924,1.069,11.924,8.712V99.006a41.947,41.947,0,0,1-.611,9.323c-.611,2.753-5.962,3.517-11.313,3.974v4.74h43.106V112.3c-4.431-.457-9.63-1.221-10.242-3.974a41.947,41.947,0,0,1-.611-9.323V79.288Z" transform="translate(-2.8 -8.207)"/><path class="cls-2" d="M478.852,114.75a63.44,63.44,0,0,0,23.083,4.126c14.521,0,30.265-5.654,30.265-22.622,0-6.879-1.987-13.146-14.519-22.622-11.924-9.02-18.65-13-18.65-19.262,0-5.962,3.823-9.782,9.936-9.782,8.406,0,12.84,7.338,14.673,13.757h4.129V41.378a84.357,84.357,0,0,0-21.1-2.6c-14.981,0-26.9,7.184-26.9,19.565,0,9.019,3.516,13.3,16.815,22.625,11.921,8.405,16.355,11.921,16.355,19.87,0,5.81-3.823,12.229-12.383,12.229-8.711,0-16.2-7.184-17.577-17.121h-4.129v18.8Z" transform="translate(-2.8 -8.207)"/><path class="cls-1" d="M578,38.78c-8.254,4.432-21.554,6.267-31.947,6.419v4.739c7.949,0,11.924,1.069,11.924,8.712V99.006a41.88,41.88,0,0,1-.612,9.323c-.611,2.753-5.961,3.517-11.312,3.974v4.74h44.022V112.3c-5.348-.457-10.547-1.221-11.158-3.974a42.015,42.015,0,0,1-.61-9.323V39.086L578,38.78ZM555.686,19.365a11.159,11.159,0,0,0,22.316,0,11.158,11.158,0,1,0-22.316,0Z" transform="translate(-2.8 -8.207)"/><path class="cls-2" d="M603.946,114.75a63.44,63.44,0,0,0,23.083,4.126c14.521,0,30.265-5.654,30.265-22.622,0-6.879-1.987-13.146-14.52-22.622-11.923-9.02-18.649-13-18.649-19.262,0-5.962,3.822-9.782,9.936-9.782,8.406,0,12.84,7.338,14.673,13.757h4.129V41.378a84.362,84.362,0,0,0-21.1-2.6c-14.982,0-26.9,7.184-26.9,19.565,0,9.019,3.515,13.3,16.815,22.625,11.921,8.405,16.355,11.921,16.355,19.87,0,5.81-3.823,12.229-12.383,12.229-8.711,0-16.2-7.184-17.577-17.121h-4.129v18.8Z" transform="translate(-2.8 -8.207)"/><path class="cls-1" d="M311.705,181.781a7.833,7.833,0,0,0-6.607,3.268q-2.451,3.268-2.451,9.128,0,12.576,9.058,12.576a7.736,7.736,0,0,0,6.571-3.269q2.451-3.267,2.451-9.307Q320.727,181.781,311.705,181.781Z" transform="translate(-2.8 -8.207)"/><path class="cls-1" d="M479.459,185.333q-2.877,3.232-2.877,9.307,0,11.864,11.438,11.864a8.68,8.68,0,0,0,3.126-.746,5.85,5.85,0,0,0,2.45-1.563V184.339a9.383,9.383,0,0,0-5.931-2.274Q482.336,182.065,479.459,185.333Z" transform="translate(-2.8 -8.207)"/><path class="cls-1" d="M398.317,181.781a7.833,7.833,0,0,0-6.607,3.268q-2.451,3.268-2.45,9.128,0,12.576,9.057,12.576a7.738,7.738,0,0,0,6.572-3.269q2.451-3.267,2.451-9.307Q407.34,181.781,398.317,181.781Z" transform="translate(-2.8 -8.207)"/><path class="cls-1" d="M130.082,154.386v69.651h471.51V154.386Zm114.689,13.4a15.655,15.655,0,0,0-4.476-.959,5.38,5.38,0,0,0-4.3,2.167,8.235,8.235,0,0,0-1.741,5.328c0,.309.011.616.036.924h7.885v7.317h-7.743v30.726h-8.881V182.562h-5.541v-7.317h5.577q.283-7,4.12-11.3a12.824,12.824,0,0,1,9.982-4.3,27.3,27.3,0,0,1,7.708,1.385Zm80.29,40.85Q320.194,214,311.705,214q-8.668,0-13.5-5.4-4.8-5.434-4.8-14.422,0-8.7,5.009-14.172,5.043-5.47,13.285-5.47,8.666,0,13.463,5.257t4.8,14.385Q329.963,203.273,325.061,208.635Zm86.613,0Q406.807,214,398.317,214q-8.668,0-13.5-5.4-4.8-5.434-4.8-14.422,0-8.7,5.009-14.172,5.043-5.47,13.285-5.47,8.667,0,13.463,5.257t4.8,14.385Q416.575,203.273,411.674,208.635Zm90.8,4.653H493.6v-2.309a9.121,9.121,0,0,1-3.729,2.132,16.924,16.924,0,0,1-5.435.887q-7.957,0-12.539-5.043-4.546-5.043-4.547-14.067t5.222-14.67a17.158,17.158,0,0,1,13.143-5.683,17.385,17.385,0,0,1,7.885,1.776V161.072l8.881-2.132Z" transform="translate(-2.8 -8.207)"/></svg>