<svg id="de" xmlns="http://www.w3.org/2000/svg" xmlns:xlink="http://www.w3.org/1999/xlink" viewBox="0 0 1297.25 352.705"><defs><style>.cls-1,.cls-12,.cls-14,.cls-23,.cls-24,.cls-30,.cls-40,.cls-41,.cls-42,.cls-49,.cls-50,.cls-51,.cls-56,.cls-57,.cls-59,.cls-61,.cls-66,.cls-67{fill:none;}.cls-2,.cls-72{fill:#f6f8f8;}.cls-3{fill:#90b1af;}.cls-4{fill:#a8c1bf;}.cls-5{fill:#a29da6;}.cls-6{fill:#807a85;}.cls-7{fill:#5d5263;}.cls-8{fill:#ac958d;}.cls-9{fill:#d8bcb2;}.cls-10{fill:#bdaca5;}.cls-11{fill:#a7a7a7;}.cls-12{stroke:#f6f8f8;}.cls-12,.cls-14,.cls-23,.cls-24,.cls-30,.cls-40,.cls-41,.cls-42,.cls-49,.cls-50,.cls-51,.cls-53,.cls-56,.cls-57,.cls-59,.cls-61,.cls-66,.cls-67{stroke-miterlimit:10;}.cls-12,.cls-50{stroke-width:2px;}.cls-13{fill:#76d2ce;}.cls-14,.cls-23,.cls-40{stroke:#dbc8b5;}.cls-14{stroke-width:6.671px;}.cls-15{fill:#d4d4d4;}.cls-16{fill:#78747c;}.cls-17{fill:#5f5b63;}.cls-18{fill:#dbc8b5;}.cls-19{fill:#fadb69;}.cls-20{fill:#ad9f8e;}.cls-21{fill:#536070;}.cls-22{fill:#fff;}.cls-23{stroke-linecap:round;}.cls-23,.cls-24{stroke-width:5.241px;}.cls-24,.cls-57{stroke:#797979;}.cls-25{fill:#f5a19c;}.cls-26,.cls-55{fill:#aca3ac;}.cls-26{opacity:0.51;}.cls-27{fill:#a7e1de;}.cls-28{fill:#3ac3bd;}.cls-29{fill:#00b4ab;}.cls-30{stroke:#969696;stroke-width:0.645px;}.cls-31{fill:#a280ac;}.cls-32{fill:#e0d7e3;}.cls-33{fill:#c2adc9;}.cls-34{fill:#804f8e;}.cls-35{fill:#969696;}.cls-36{fill:#3f3f3f;}.cls-37{fill:#e5e8e9;}.cls-38{fill:#616161;}.cls-39{fill:#606060;}.cls-40,.cls-51,.cls-57,.cls-66{stroke-width:14px;}.cls-41,.cls-56{stroke:#e5e9f0;}.cls-41{stroke-width:15px;}.cls-42{stroke:#a8b4c4;}.cls-42,.cls-49,.cls-53,.cls-59,.cls-67{stroke-width:18px;}.cls-43{fill:#4b5e69;}.cls-44{fill:#e5e9f0;}.cls-45{fill:#a8b4c4;}.cls-46{fill:#b6dfdc;}.cls-47{fill:#e2f2f0;}.cls-48{fill:#787878;}.cls-49,.cls-53{stroke:#5d5263;}.cls-50,.cls-66{stroke:#414b58;}.cls-51{stroke:#48404d;}.cls-52{fill:#c1c1c1;}.cls-53{fill:#8f8490;}.cls-54{fill:#48404d;}.cls-56{stroke-width:15.916px;}.cls-58{fill:#4b4b4b;}.cls-59,.cls-61{stroke:#bebebe;}.cls-60{fill:#bebebe;}.cls-61{stroke-width:19.1px;}.cls-62{fill:#e9e9e9;}.cls-63{fill:#b6bcc4;}.cls-64{isolation:isolate;}.cls-65{clip-path:url(#clip-path);}.cls-67{stroke:#40626e;}.cls-68{fill:#40626e;}.cls-69{fill:#85755f;}.cls-70{fill:#414b58;}.cls-71{fill:#f3f3f3;fill-opacity:0.1;}.cls-72{opacity:0.18;}.cls-73{fill:#d3b196;}</style><clipPath id="clip-path" transform="translate(-12.044 -8.576)"><polygon class="cls-1" points="831.563 209.333 836.881 180.472 873.405 180.472 868.087 209.333 831.563 209.333"/></clipPath></defs><title>2_illu</title><rect class="cls-2" x="974.645" y="0.141" width="322.605" height="181.465"/><path class="cls-3" d="M1283.968,56.227a8.546,8.546,0,1,0-12.851,11.27l6.426-5.635Z" transform="translate(-12.044 -8.576)"/><path class="cls-4" d="M1271.117,67.5a8.855,8.855,0,0,0,12.206.956,8.625,8.625,0,0,0,2.845-6.507c0-2,.047-3.157-2.2-5.719l-6.425,5.635Z" transform="translate(-12.044 -8.576)"/><path class="cls-5" d="M1271.117,67.5a8.855,8.855,0,0,0,12.206.956,8.625,8.625,0,0,0,2.845-6.507l-8.625-.084Z" transform="translate(-12.044 -8.576)"/><path class="cls-6" d="M1271.117,67.5c3,3.416,5.267,3.347,8.182,2.734l-1.756-8.369Z" transform="translate(-12.044 -8.576)"/><path class="cls-7" d="M1269.292,63.187a7.493,7.493,0,0,0,1.94,4.441l6.426-5.635Z" transform="translate(-12.044 -8.576)"/><path class="cls-8" d="M1286.4,136.263a8.547,8.547,0,0,0-16.888-2.641l8.444,1.32Z" transform="translate(-12.044 -8.576)"/><path class="cls-9" d="M1269.509,133.622a8.514,8.514,0,0,0,13.915,7.951,8.853,8.853,0,0,0,2.973-5.31l-8.444-1.321Z" transform="translate(-12.044 -8.576)"/><path class="cls-9" d="M1269.509,133.622a8.514,8.514,0,0,0,13.915,7.951,8.853,8.853,0,0,0,2.973-5.31l-8.444-1.321Z" transform="translate(-12.044 -8.576)"/><path class="cls-7" d="M1269.509,133.622a8.514,8.514,0,0,0,13.915,7.951l-5.471-6.631Z" transform="translate(-12.044 -8.576)"/><path class="cls-6" d="M1269.509,133.622a8.221,8.221,0,0,0,3.146,8.033l5.3-6.713Z" transform="translate(-12.044 -8.576)"/><path class="cls-5" d="M1271.736,129.026a8.317,8.317,0,0,0-2.227,4.6l8.444,1.32Z" transform="translate(-12.044 -8.576)"/><path class="cls-10" d="M1286.364,136.258a8.423,8.423,0,0,0-7.129-9.726,8.624,8.624,0,0,0-3.618.2l2.3,8.208Z" transform="translate(-12.044 -8.576)"/><rect class="cls-2" x="274.779" y="63.644" width="98.175" height="19.333"/><path class="cls-11" d="M303.768,85.842h-6.217V84.319l2.092-2.116q.9-.937,1.172-1.28a2.8,2.8,0,0,0,.383-.589,1.253,1.253,0,0,0,.109-.515.67.67,0,0,0-.217-.528.885.885,0,0,0-.609-.193,1.668,1.668,0,0,0-.818.231,5.885,5.885,0,0,0-.934.683l-1.272-1.488a6.9,6.9,0,0,1,1.113-.847,3.979,3.979,0,0,1,.982-.39,4.887,4.887,0,0,1,1.192-.134,3.586,3.586,0,0,1,1.486.293,2.318,2.318,0,0,1,1.013.835A2.139,2.139,0,0,1,303.6,79.5a3.126,3.126,0,0,1-.516,1.773,5.86,5.86,0,0,1-.7.87q-.436.458-1.86,1.734v.059h3.24Z" transform="translate(-12.044 -8.576)"/><path class="cls-11" d="M310.834,81.571a5.764,5.764,0,0,1-.762,3.331,2.681,2.681,0,0,1-2.332,1.057,2.648,2.648,0,0,1-2.314-1.1,5.692,5.692,0,0,1-.779-3.284,5.843,5.843,0,0,1,.761-3.352,2.674,2.674,0,0,1,2.332-1.066,2.646,2.646,0,0,1,2.312,1.11A5.751,5.751,0,0,1,310.834,81.571Zm-3.885,0a7.317,7.317,0,0,0,.182,2q.182.544.609.545c.289,0,.494-.188.613-.563a11.093,11.093,0,0,0,0-3.975q-.182-.572-.61-.572t-.609.551A7.444,7.444,0,0,0,306.949,81.571Z" transform="translate(-12.044 -8.576)"/><path class="cls-11" d="M313.607,83.416V81.8h5.132v1.617Z" transform="translate(-12.044 -8.576)"/><path class="cls-11" d="M328.18,84.184h-.943v1.658h-2.286V84.184h-3.416v-1.7l3.563-5.209h2.139v5.179h.943Zm-3.229-1.729v-1q0-.28.021-.758a4.986,4.986,0,0,1,.032-.5h-.064a6.2,6.2,0,0,1-.452.843l-.949,1.412Z" transform="translate(-12.044 -8.576)"/><path class="cls-11" d="M334.971,81.571a5.764,5.764,0,0,1-.762,3.331,2.682,2.682,0,0,1-2.332,1.057,2.648,2.648,0,0,1-2.314-1.1,5.692,5.692,0,0,1-.78-3.284,5.834,5.834,0,0,1,.762-3.352,3.022,3.022,0,0,1,4.644.044A5.751,5.751,0,0,1,334.971,81.571Zm-3.885,0a7.317,7.317,0,0,0,.182,2q.182.544.609.545t.612-.563a11.063,11.063,0,0,0,0-3.975Q332.3,79,331.877,79t-.609.551A7.444,7.444,0,0,0,331.086,81.571Z" transform="translate(-12.044 -8.576)"/><path class="cls-11" d="M338.762,88.532a5.666,5.666,0,0,1-1.2-.123v-1.8c.125.023.258.05.4.079a2.265,2.265,0,0,0,.457.044.938.938,0,0,0,.821-.346,2.119,2.119,0,0,0,.246-1.184V77.276h2.326V85a3.964,3.964,0,0,1-.762,2.634A2.835,2.835,0,0,1,338.762,88.532Z" transform="translate(-12.044 -8.576)"/><path class="cls-11" d="M348.676,85.842l-.422-1.605h-2.783l-.434,1.605h-2.543l2.795-8.6h3.088l2.83,8.6Zm-.9-3.5-.37-1.406q-.127-.469-.313-1.213t-.243-1.066c-.035.2-.105.527-.208.984s-.333,1.357-.689,2.7Z" transform="translate(-12.044 -8.576)"/><path class="cls-11" d="M359.475,85.842h-2.326V82.35h-2.69v3.492h-2.326V77.276h2.326v3.176h2.69V77.276h2.326Z" transform="translate(-12.044 -8.576)"/><path class="cls-11" d="M363.161,82.725v3.117h-2.314V77.276h2.806q3.494,0,3.493,2.531a2.531,2.531,0,0,1-1.453,2.3l2.5,3.732h-2.625l-1.817-3.117Zm0-1.74h.434q1.212,0,1.213-1.073,0-.884-1.19-.884h-.457Z" transform="translate(-12.044 -8.576)"/><path class="cls-11" d="M373.814,85.842h-5.086V77.276h5.086v1.857h-2.772v1.348h2.567v1.857h-2.567v1.617h2.772Z" transform="translate(-12.044 -8.576)"/><line class="cls-12" x1="277.875" y1="74.582" x2="225.037" y2="61.693"/><rect class="cls-2" x="98.583" y="0.679" width="139.333" height="191.333"/><rect class="cls-13" x="98.583" y="137.296" width="139.333" height="54.716"/><path class="cls-14" d="M178.93,114.061s-7.44,20.552-11.317,27.635-21.807,22.21-21.807,22.21" transform="translate(-12.044 -8.576)"/><path class="cls-15" d="M150.5,164.557a.806.806,0,0,1,.623.785l0,5.268c-.078.3.686,5.8.759,6.321a.809.809,0,0,1,.007.086c.07,1.847-.249,2.559-1.6,3.431h0a.8.8,0,0,1-1.079-.06l-1.815-1.832a.522.522,0,0,1-.039-.043,44.885,44.885,0,0,1-7.651-12.188l-1.291-3.055a.807.807,0,0,1,.528-1.091l.854-.235a.8.8,0,0,0,.393-.248l.3-.35a8.932,8.932,0,0,1,3.41-2.422l1.252-.5a.808.808,0,0,1,.973.3l.274.415a.832.832,0,0,1,.119.586,3.99,3.99,0,0,0,3.174,4.643Z" transform="translate(-12.044 -8.576)"/><polygon class="cls-16" points="152.829 129.07 160.453 133.358 173.207 107.593 158.714 104.444 152.829 129.07"/><polygon class="cls-17" points="168.163 117.946 173.207 107.593 158.714 104.444 156.439 113.964 168.163 117.946"/><rect class="cls-18" x="161.257" y="46.105" width="7.147" height="20.429" rx="3.574" ry="3.574"/><circle class="cls-19" cx="168.648" cy="36.659" r="11.083"/><path class="cls-18" d="M192,41.726l-.166,16.081a5.718,5.718,0,0,1-5.776,5.658h0l-7.147-.074a5.717,5.717,0,0,1-5.659-5.776l.159-15.366,9.3-.618Z" transform="translate(-12.044 -8.576)"/><path class="cls-18" d="M191.786,48.606a10.63,10.63,0,0,0,2.047,3.591c.847,1.031,1.03,2.288-.406,2.484h-1.642S191.77,49.03,191.786,48.606Z" transform="translate(-12.044 -8.576)"/><path class="cls-20" d="M191.962,44.976,192,41.7l-8.747-.114h-.628l-9.214.637L173.248,57.6c0,.118.263.238.269.354a5.01,5.01,0,0,0,3.777-4.839V52.4c0-1.974,1-3.574,4-3.574v4.289c1,0,2-1.6,2-3.574V45.971a4.011,4.011,0,0,1,2.152-3.057c1.256.463,4.222,1.757,4.588,4.321a5.6,5.6,0,0,0,.923-3.084A7.117,7.117,0,0,1,191.962,44.976Z" transform="translate(-12.044 -8.576)"/><path class="cls-14" d="M177.58,112.631s29.065,13.54,30.176,19.179c-5.6,6.789-11.473,27.3-11.473,27.3" transform="translate(-12.044 -8.576)"/><path class="cls-15" d="M200.888,157.983a.8.8,0,0,1,.868.5l1.95,4.894c.037.305,2.779,5.135,3.04,5.594a.68.68,0,0,1,.039.076c.748,1.691.714,2.47-.22,3.78h0a.807.807,0,0,1-1.025.344l-2.363-1.033-.053-.025a44.924,44.924,0,0,1-11.612-8.5l-2.329-2.363a.807.807,0,0,1,.088-1.209l.707-.534a.809.809,0,0,0,.274-.375l.154-.438a8.928,8.928,0,0,1,2.273-3.511l.978-.929a.808.808,0,0,1,1.016-.077l.407.284a.835.835,0,0,1,.329.5,3.989,3.989,0,0,0,4.665,3.14Z" transform="translate(-12.044 -8.576)"/><polygon class="cls-16" points="189.518 124.067 195.236 116.443 171.65 99.29 164.424 109.773 189.518 124.067"/><path class="cls-16" d="M168.627,111.571c0,4.265,3.866,9,8.635,9s8.635-4.737,8.635-9-3.866-7.723-8.635-7.723S168.627,107.305,168.627,111.571Z" transform="translate(-12.044 -8.576)"/><path class="cls-21" d="M188.28,48.948a.73.73,0,1,0,.73-.729A.73.73,0,0,0,188.28,48.948Z" transform="translate(-12.044 -8.576)"/><path class="cls-7" d="M188.28,48.948a.73.73,0,1,0,.73-.729A.73.73,0,0,0,188.28,48.948Z" transform="translate(-12.044 -8.576)"/><path class="cls-19" d="M187.715,41.444h0a3.574,3.574,0,0,0-3.574,3.574v3.573a3.574,3.574,0,0,1-3.574,3.574h0V47.876h0a3.574,3.574,0,0,0-3.573,3.574v.715h0a5,5,0,0,1-5,5h0V40.729h15.724Z" transform="translate(-12.044 -8.576)"/><path class="cls-22" d="M183.784,58v.378a1.946,1.946,0,0,0,1.946,1.946h2.7a1.946,1.946,0,0,0,1.946-1.946V58" transform="translate(-12.044 -8.576)"/><path class="cls-19" d="M172.616,49.915a6.857,6.857,0,0,1-5.837,6.611c-5.36.715-7.861-3.335-7.981-5.837,0,0,2.025.55,2.025-.774a5.9,5.9,0,0,1,11.793,0Z" transform="translate(-12.044 -8.576)"/><path class="cls-19" d="M185.243,41.755s4.526,1.191,5,4.527c0,0,2.382-3.812-.953-6.075S185.243,41.755,185.243,41.755Z" transform="translate(-12.044 -8.576)"/><path class="cls-19" d="M188.1,41.755s4.526,1.191,5,4.527c0,0,2.382-3.812-.953-6.075S188.1,41.755,188.1,41.755Z" transform="translate(-12.044 -8.576)"/><path class="cls-19" d="M188.851,41.229s4.677-.187,6.11,2.862c0,0,1.161-4.342-2.691-5.529S188.851,41.229,188.851,41.229Z" transform="translate(-12.044 -8.576)"/><path class="cls-17" d="M185.458,109.271c-.1-.276-.228-.683-.363-.683h-15.67c-.507,0-.8,1.952-.8,3.105,0,.126,0,.191.011.317l21.228.437Z" transform="translate(-12.044 -8.576)"/><ellipse class="cls-18" cx="147.63" cy="106.501" rx="3.751" ry="5.42" transform="translate(-27.031 16.115) rotate(-9.101)"/><ellipse class="cls-18" cx="149.815" cy="104.779" rx="2.43" ry="3.326" transform="matrix(0.987, -0.158, 0.158, 0.987, -26.731, 16.439)"/><path class="cls-23" d="M176.561,75.062S162,77.938,157.323,83.123s-9.207,18.944-9.207,18.944" transform="translate(-12.044 -8.576)"/><path class="cls-24" d="M150.728,95.108c-.707,1.712-1.3,3.282-1.747,4.5" transform="translate(-12.044 -8.576)"/><ellipse class="cls-18" cx="222.927" cy="60.88" rx="5.42" ry="3.751" transform="translate(60.808 228.032) rotate(-64.777)"/><ellipse class="cls-18" cx="220.152" cy="61.07" rx="3.326" ry="2.43" transform="translate(59.043 225.63) rotate(-64.777)"/><path class="cls-25" d="M191.044,78.118c-4.134-3.477-9.494-11.348-13.187-11.467a7.405,7.405,0,0,0-5.836,2.859c-2.025,2.144-4.05,10.363-1.311,20.965s-3.692,18.821-3.692,18.821l22.871,1.668,1.042-20.458.461-.478a8.335,8.335,0,0,0-.348-11.91Z" transform="translate(-12.044 -8.576)"/><path class="cls-23" d="M180.342,74.179s15.741,9.625,22.809,6.211,16.875-16.121,16.875-16.121" transform="translate(-12.044 -8.576)"/><path class="cls-24" d="M217.882,66.909c-.809.964-1.808,2.124-2.929,3.36" transform="translate(-12.044 -8.576)"/><rect class="cls-2" x="265.734" y="4.012" width="78.658" height="19.333"/><path class="cls-11" d="M295.31,26.375l-.422-1.606h-2.783l-.433,1.606h-2.543l2.795-8.6h3.087l2.83,8.6Zm-.9-3.5-.369-1.406q-.129-.469-.314-1.213t-.243-1.067q-.053.3-.208.985t-.688,2.7Z" transform="translate(-12.044 -8.576)"/><path class="cls-11" d="M298.767,26.375V17.808h2.315v6.7h3.3v1.869Z" transform="translate(-12.044 -8.576)"/><path class="cls-11" d="M305.752,26.375V17.808h2.314v6.7h3.3v1.869Z" transform="translate(-12.044 -8.576)"/><path class="cls-11" d="M317.822,26.375h-5.086V17.808h5.086v1.858H315.05v1.348h2.567v1.857H315.05v1.617h2.772Z" transform="translate(-12.044 -8.576)"/><path class="cls-11" d="M321.636,23.258v3.117h-2.314V17.808h2.807q3.492,0,3.492,2.532a2.53,2.53,0,0,1-1.453,2.3l2.5,3.733h-2.625l-1.817-3.117Zm0-1.741h.434q1.214,0,1.213-1.072,0-.885-1.19-.885h-.457Z" transform="translate(-12.044 -8.576)"/><path class="cls-11" d="M330.882,21.359h3.7v4.617a10.161,10.161,0,0,1-3.311.516,4,4,0,0,1-3.061-1.148,4.6,4.6,0,0,1-1.081-3.276,4.3,4.3,0,0,1,1.183-3.228,4.55,4.55,0,0,1,3.317-1.155,7.311,7.311,0,0,1,1.526.153,6.406,6.406,0,0,1,1.251.386l-.732,1.817a4.529,4.529,0,0,0-2.034-.457,1.935,1.935,0,0,0-1.567.659,2.851,2.851,0,0,0-.554,1.884,2.888,2.888,0,0,0,.5,1.831,1.738,1.738,0,0,0,1.445.63,4.207,4.207,0,0,0,.949-.1V23.146h-1.53Z" transform="translate(-12.044 -8.576)"/><path class="cls-11" d="M336.326,26.375V17.808h2.326v8.567Z" transform="translate(-12.044 -8.576)"/><path class="cls-11" d="M345.59,26.375H340.5V17.808h5.086v1.858h-2.772v1.348h2.566v1.857h-2.566v1.617h2.772Z" transform="translate(-12.044 -8.576)"/><rect class="cls-2" y="80.039" width="65.958" height="19.333"/><path class="cls-11" d="M26.267,97.386h3.7V102a10.156,10.156,0,0,1-3.311.516,4,4,0,0,1-3.061-1.149A4.594,4.594,0,0,1,22.511,98.1,4.3,4.3,0,0,1,23.7,94.867a4.547,4.547,0,0,1,3.316-1.155,7.3,7.3,0,0,1,1.526.153,6.406,6.406,0,0,1,1.251.386l-.732,1.817a4.525,4.525,0,0,0-2.033-.457,1.933,1.933,0,0,0-1.568.659,2.851,2.851,0,0,0-.553,1.884,2.89,2.89,0,0,0,.5,1.831,1.736,1.736,0,0,0,1.444.63,4.259,4.259,0,0,0,.949-.1V99.173H26.267Z" transform="translate(-12.044 -8.576)"/><path class="cls-11" d="M36.076,102.4H30.99V93.835h5.086v1.858H33.305V97.04h2.566V98.9H33.305v1.617h2.771Z" transform="translate(-12.044 -8.576)"/><path class="cls-11" d="M43.178,99.8a2.531,2.531,0,0,1-.4,1.415,2.652,2.652,0,0,1-1.166.961,4.318,4.318,0,0,1-1.788.343,7.235,7.235,0,0,1-1.435-.12,5.332,5.332,0,0,1-1.207-.419V99.917a6.853,6.853,0,0,0,1.377.531,5.123,5.123,0,0,0,1.312.19,1.275,1.275,0,0,0,.756-.179.549.549,0,0,0,.24-.46.507.507,0,0,0-.1-.307,1.132,1.132,0,0,0-.311-.267q-.213-.135-1.139-.551a5.468,5.468,0,0,1-1.257-.738,2.252,2.252,0,0,1-.621-.82,2.721,2.721,0,0,1-.2-1.1,2.2,2.2,0,0,1,.861-1.846,3.8,3.8,0,0,1,2.367-.662,6.645,6.645,0,0,1,2.713.615l-.709,1.788a5.125,5.125,0,0,0-2.074-.551,1.087,1.087,0,0,0-.657.158.48.48,0,0,0-.2.393.567.567,0,0,0,.261.451,9.919,9.919,0,0,0,1.415.726,3.914,3.914,0,0,1,1.538,1.07A2.322,2.322,0,0,1,43.178,99.8Z" transform="translate(-12.044 -8.576)"/><path class="cls-11" d="M51.305,93.835v5.157a3.461,3.461,0,0,1-.952,2.6,3.789,3.789,0,0,1-2.745.923,3.751,3.751,0,0,1-2.693-.9,3.393,3.393,0,0,1-.94-2.578V93.835H46.3v5.028a2.056,2.056,0,0,0,.34,1.318,1.465,1.465,0,0,0,2.03,0,2.182,2.182,0,0,0,.319-1.333V93.835Z" transform="translate(-12.044 -8.576)"/><path class="cls-11" d="M60.54,102.4H57.505l-3.129-6.035h-.053q.113,1.424.112,2.173V102.4H52.384V93.835h3.023l3.118,5.953h.035q-.082-1.294-.082-2.08V93.835H60.54Z" transform="translate(-12.044 -8.576)"/><path class="cls-11" d="M69.183,97.937A4.427,4.427,0,0,1,68,101.242a4.535,4.535,0,0,1-3.319,1.16H61.911V93.835h2.965a4.475,4.475,0,0,1,3.185,1.055A3.981,3.981,0,0,1,69.183,97.937Zm-2.4.082a2.726,2.726,0,0,0-.465-1.746A1.724,1.724,0,0,0,64.9,95.7h-.674v4.8h.515a1.866,1.866,0,0,0,1.547-.612A2.958,2.958,0,0,0,66.78,98.019Z" transform="translate(-12.044 -8.576)"/><rect class="cls-2" x="10.25" y="1.345" width="57.402" height="19.333"/><path class="cls-11" d="M37.77,23.708l-.422-1.6H34.565l-.434,1.6H31.588l2.8-8.6h3.088l2.83,8.6Zm-.9-3.5L36.5,18.8q-.129-.468-.313-1.213t-.243-1.066q-.054.3-.208.984t-.689,2.7Z" transform="translate(-12.044 -8.576)"/><path class="cls-11" d="M48.545,23.708H45.932l-1.694-3.275-.685.41v2.865H41.227V15.142h2.326v3.721a9.986,9.986,0,0,1,.709-1.1l1.8-2.625h2.531l-2.7,3.838Z" transform="translate(-12.044 -8.576)"/><path class="cls-11" d="M53.25,23.708H50.936V17.035H48.844V15.142h6.492v1.893H53.25Z" transform="translate(-12.044 -8.576)"/><path class="cls-11" d="M56.561,23.708V15.142h2.326v8.566Z" transform="translate(-12.044 -8.576)"/><path class="cls-11" d="M65.549,15.142h2.59l-2.807,8.566H62.608l-2.795-8.566h2.6l1.166,4.342a13.368,13.368,0,0,1,.4,2.015q.04-.409.164-1.025t.217-.967Z" transform="translate(-12.044 -8.576)"/><line class="cls-12" x1="63.25" y1="12.012" x2="136.375" y2="27.012"/><line class="cls-12" x1="270.199" y1="14.679" x2="230.25" y2="29.759"/><line class="cls-12" x1="63.48" y1="91.643" x2="115.25" y2="58.012"/><path class="cls-26" d="M1295.461,39.654h-1.5a7.5,7.5,0,0,0-7.5-7.5h-26.672a4.875,4.875,0,0,1-4.875-4.875V26.216h0c-2.484,1.5-5.056,4.265-3.078,9.813-5.541-.75-5.831-4.728-5.831-4.728a10.408,10.408,0,0,0-1.482,5.368V36.7a10.455,10.455,0,0,0,10.454,10.454h1.734V84.9a12,12,0,0,0,12,12h12v6.569a12.815,12.815,0,0,0-10.25,12.547,36.266,36.266,0,0,0-13.987,28.64v45.523h44.987V116.972a8.623,8.623,0,0,0-3.025-6.563v-7.193h-2.725V86.966a7.557,7.557,0,0,0-.059-.895c.037-.384.059-.773.059-1.167v-6.25h1.319a5.932,5.932,0,0,0,5.931-5.931V47.154A7.5,7.5,0,0,0,1295.461,39.654Z" transform="translate(-12.044 -8.576)"/><rect class="cls-2" x="551.507" width="139.333" height="191.333"/><rect class="cls-13" x="584.762" y="68.977" width="4.647" height="24.418"/><rect class="cls-27" x="579.243" y="82.671" width="4.647" height="10.724"/><rect class="cls-28" x="590.28" y="48.206" width="4.647" height="45.189"/><rect class="cls-13" x="595.799" y="63.257" width="4.647" height="30.137"/><rect class="cls-29" x="601.318" y="37.939" width="4.647" height="55.456"/><line class="cls-30" x1="577.443" y1="97.02" x2="609.051" y2="97.02"/><rect class="cls-31" x="639.707" y="54.644" width="4.647" height="38.751"/><rect class="cls-32" x="634.189" y="82.671" width="4.647" height="10.724"/><rect class="cls-33" x="645.226" y="70.651" width="4.647" height="22.744"/><rect class="cls-34" x="650.745" y="37.353" width="4.647" height="56.041"/><rect class="cls-31" x="656.264" y="48.068" width="4.647" height="45.327"/><line class="cls-30" x1="632.389" y1="97.02" x2="663.997" y2="97.02"/><rect class="cls-13" x="584.762" y="139.16" width="4.647" height="32.532"/><rect class="cls-27" x="579.243" y="153.718" width="4.647" height="17.974"/><rect class="cls-29" x="590.28" y="117.114" width="4.647" height="54.579"/><rect class="cls-13" x="595.799" y="145.805" width="4.647" height="25.887"/><rect class="cls-29" x="601.318" y="131.48" width="4.647" height="40.212"/><line class="cls-30" x1="577.443" y1="175.317" x2="609.051" y2="175.317"/><rect class="cls-31" x="640.707" y="132.941" width="4.647" height="38.751"/><rect class="cls-31" x="635.189" y="138.64" width="4.647" height="33.052"/><rect class="cls-33" x="646.226" y="148.948" width="4.647" height="22.744"/><rect class="cls-31" x="651.745" y="127.296" width="4.647" height="44.397"/><rect class="cls-34" x="669.308" y="129.442" width="4.647" height="50.827" transform="translate(-13.118 -3.844) rotate(-0.403)"/><line class="cls-30" x1="633.389" y1="175.317" x2="664.997" y2="175.317"/><path class="cls-35" d="M597.12,32.975l-1.606-5.656h-.048q.113,1.446.112,2.245v3.411H593.7V25.122h2.826l1.638,5.576h.043l1.606-5.576h2.83v7.853h-1.949V29.532c0-.179,0-.378.007-.6s.03-.754.073-1.606h-.048l-1.585,5.645Z" transform="translate(-12.044 -8.576)"/><path class="cls-35" d="M608.986,32.975,608.6,31.5h-2.551l-.4,1.472H603.32l2.562-7.885h2.83l2.594,7.885Zm-.827-3.212-.339-1.289q-.117-.43-.287-1.112c-.113-.454-.187-.781-.223-.977-.032.182-.095.483-.191.9s-.305,1.244-.631,2.476Z" transform="translate(-12.044 -8.576)"/><path class="cls-35" d="M613.672,30.118v2.857H611.55V25.122h2.573q3.2,0,3.2,2.321a2.32,2.32,0,0,1-1.332,2.111l2.288,3.421h-2.406l-1.665-2.857Zm0-1.6h.4q1.111,0,1.112-.983,0-.81-1.09-.811h-.419Z" transform="translate(-12.044 -8.576)"/><path class="cls-35" d="M625.538,32.975h-2.4l-1.552-3-.628.375v2.627h-2.133V25.122h2.133v3.411a9.221,9.221,0,0,1,.65-1l1.648-2.407h2.321l-2.476,3.518Z" transform="translate(-12.044 -8.576)"/><path class="cls-35" d="M629.686,32.975h-2.122V26.857h-1.917V25.122H631.6v1.735h-1.912Z" transform="translate(-12.044 -8.576)"/><path class="cls-35" d="M636.46,32.975h-2.122V26.857h-1.917V25.122h5.951v1.735H636.46Z" transform="translate(-12.044 -8.576)"/><path class="cls-35" d="M641.671,30.118v2.857h-2.122V25.122h2.573q3.2,0,3.2,2.321a2.318,2.318,0,0,1-1.332,2.111l2.288,3.421h-2.406l-1.665-2.857Zm0-1.6h.4q1.111,0,1.111-.983,0-.81-1.09-.811h-.419Z" transform="translate(-12.044 -8.576)"/><path class="cls-35" d="M651.491,32.975h-4.662V25.122h4.662v1.7H648.95V28.06H651.3v1.7H648.95v1.482h2.541Z" transform="translate(-12.044 -8.576)"/><path class="cls-35" d="M660.177,32.975H657.4l-2.868-5.532h-.048q.1,1.3.1,1.992v3.54H652.7V25.122h2.771l2.858,5.457h.032q-.075-1.187-.075-1.906V25.122h1.89Z" transform="translate(-12.044 -8.576)"/><path class="cls-35" d="M668.155,28.882a4.053,4.053,0,0,1-1.083,3.029,4.153,4.153,0,0,1-3.042,1.064h-2.541V25.122h2.718a4.1,4.1,0,0,1,2.919.967A3.646,3.646,0,0,1,668.155,28.882Zm-2.2.075a2.493,2.493,0,0,0-.427-1.6,1.58,1.58,0,0,0-1.3-.521h-.617v4.4h.472a1.709,1.709,0,0,0,1.418-.562A2.709,2.709,0,0,0,665.953,28.957Z" transform="translate(-12.044 -8.576)"/><path class="cls-35" d="M674.752,30.59a2.315,2.315,0,0,1-.371,1.3,2.422,2.422,0,0,1-1.068.881,3.958,3.958,0,0,1-1.639.314,6.576,6.576,0,0,1-1.315-.11,4.84,4.84,0,0,1-1.107-.384V30.7a6.378,6.378,0,0,0,1.262.486,4.719,4.719,0,0,0,1.2.174,1.172,1.172,0,0,0,.693-.163.5.5,0,0,0,.22-.422.464.464,0,0,0-.088-.282,1.049,1.049,0,0,0-.285-.245q-.2-.123-1.045-.5a5.025,5.025,0,0,1-1.151-.677,2.058,2.058,0,0,1-.57-.752,2.491,2.491,0,0,1-.185-1,2.011,2.011,0,0,1,.789-1.691,3.478,3.478,0,0,1,2.17-.607,6.092,6.092,0,0,1,2.487.564l-.65,1.638a4.7,4.7,0,0,0-1.9-.5.989.989,0,0,0-.6.145.441.441,0,0,0-.188.36.515.515,0,0,0,.24.413,8.96,8.96,0,0,0,1.3.666,3.6,3.6,0,0,1,1.411.981A2.132,2.132,0,0,1,674.752,30.59Z" transform="translate(-12.044 -8.576)"/><path class="cls-2" d="M516.245,283.221H437.968l-4.441.12v-9.558a4.453,4.453,0,0,1,4.441-4.441h78.277a4.454,4.454,0,0,1,4.442,4.441v9.558S518.688,283.221,516.245,283.221Z" transform="translate(-12.044 -8.576)"/><rect class="cls-36" x="460.899" y="274.644" width="6.662" height="14.989"/><rect class="cls-37" x="457.88" y="289.634" width="12.7" height="41.422"/><rect class="cls-2" x="421.482" y="194.701" width="87.16" height="55.192" rx="4.441" ry="4.441"/><rect class="cls-38" x="508.643" y="236.872" width="12.214" height="37.893"/><rect class="cls-2" x="508.643" y="232.022" width="12.214" height="9.7" rx="4.441" ry="4.441"/><rect class="cls-38" x="409.269" y="236.872" width="12.214" height="37.893"/><rect class="cls-2" x="409.269" y="232.022" width="12.214" height="9.7" rx="4.441" ry="4.441"/><polygon class="cls-38" points="463.119 334.046 426.479 337.933 426.479 332.721 463.119 328.835 463.119 334.046"/><rect class="cls-38" x="426.479" y="332.721" width="5.241" height="10.763"/><circle class="cls-36" cx="428.9" cy="346.06" r="5.196"/><polygon class="cls-38" points="463.119 334.046 499.76 337.933 499.76 332.721 463.119 328.835 463.119 334.046"/><rect class="cls-38" x="506.563" y="341.297" width="5.241" height="10.763" transform="translate(1006.323 684.781) rotate(-180)"/><circle class="cls-36" cx="497.339" cy="346.06" r="5.196"/><polygon class="cls-38" points="464.23 333.661 482.272 337.933 482.272 332.721 464.23 328.45 464.23 333.661"/><rect class="cls-38" x="489.075" y="341.297" width="5.241" height="10.763" transform="translate(971.348 684.781) rotate(-180)"/><circle class="cls-36" cx="479.852" cy="346.06" r="5.196"/><polygon class="cls-38" points="464.23 333.661 446.187 337.933 446.187 332.721 464.23 328.45 464.23 333.661"/><rect class="cls-38" x="446.187" y="332.721" width="5.241" height="10.763"/><circle class="cls-36" cx="448.608" cy="346.06" r="5.196"/><rect class="cls-38" x="457.88" y="326.644" width="12.7" height="4.411"/><circle class="cls-39" cx="465.187" cy="105.203" r="23.625"/><circle class="cls-39" cx="453.094" cy="117.109" r="14.531"/><circle class="cls-39" cx="478.594" cy="118.609" r="14.531"/><path class="cls-39" d="M509.274,149.907c0,3.128-.73,6.122,6.208,7.059,0,0-2.438,9.75-21.75,5.188-5.5-1.3-8.982-2.472-13.7-5.625-7.577-5.06-3.748,2.489-3.748-6.622a16.5,16.5,0,1,1,32.994,0Z" transform="translate(-12.044 -8.576)"/><path class="cls-39" d="M445.52,149.907c0,3.128.73,6.122-6.208,7.059,0,0,2.438,9.75,21.75,5.188,5.5-1.3,8.982-2.472,13.7-5.625,7.577-5.06,3.748,2.489,3.748-6.622a16.5,16.5,0,1,0-32.994,0Z" transform="translate(-12.044 -8.576)"/><path class="cls-18" d="M457.935,107.075v32.25a12,12,0,0,0,12,12h15a12,12,0,0,0,12-12v-32.25l-19.5-1.5Z" transform="translate(-12.044 -8.576)"/><path class="cls-40" d="M491.294,279.588c4.917,26,2.667,63,2.667,63" transform="translate(-12.044 -8.576)"/><path class="cls-40" d="M463.294,279.588s5.281,11.895,11.071,22.291c11.629,20.881,28.273,43.658,28.273,43.658" transform="translate(-12.044 -8.576)"/><ellipse class="cls-18" cx="396.998" cy="159.417" rx="7.872" ry="11.376" transform="translate(-37.976 215.269) rotate(-30.54)"/><ellipse class="cls-18" cx="402.835" cy="159.275" rx="5.1" ry="6.981" transform="translate(-37.095 218.215) rotate(-30.54)"/><line class="cls-41" x1="400.103" y1="167.982" x2="391.473" y2="157.469"/><line class="cls-18" x1="458.562" y1="142.577" x2="473.563" y2="142.577"/><rect class="cls-18" x="470.107" y="137.154" width="15" height="34.875" rx="7.5" ry="7.5" transform="translate(943.169 300.606) rotate(180)"/><path class="cls-42" d="M452.857,174.9s-13.771,38.815-21.5,38.25-22.744-40.876-22.744-40.876" transform="translate(-12.044 -8.576)"/><ellipse class="cls-18" cx="564.417" cy="158.628" rx="11.376" ry="7.872" transform="translate(65.808 477.135) rotate(-49.608)"/><ellipse class="cls-18" cx="558.69" cy="157.49" rx="6.981" ry="5.1" transform="translate(64.659 472.373) rotate(-49.608)"/><line class="cls-41" x1="532.049" y1="179.189" x2="544.825" y2="155.479"/><path class="cls-42" d="M500.77,175.529s17.185,41.062,23.188,41.062,29.875-46.85,29.875-46.85" transform="translate(-12.044 -8.576)"/><path class="cls-43" d="M509.7,338.764l4.959,13.264-22.911,8.566-.9-2.412h0a3.6,3.6,0,0,1,1.087-4.047l3.816-2.6.535-7.759Z" transform="translate(-12.044 -8.576)"/><path class="cls-43" d="M485.516,336.552l-6.975,12.683,21.906,12.046,1.268-2.306h0a3.683,3.683,0,0,0-.5-4.253l-3.476-3.19.6-7.926Z" transform="translate(-12.044 -8.576)"/><polygon class="cls-44" points="454.187 159.012 477.03 159.012 465.904 153.203 454.187 159.012"/><polygon class="cls-44" points="451.187 157.012 465.53 210.012 480.03 157.012 451.187 157.012"/><path class="cls-45" d="M448.315,169.083l15.792-6.642,2.124,5.213,10.376,30.393,12.467-30.393,2.033-4.932,13.758,6.378a8.057,8.057,0,0,1,5.742,7.717l-9,43.337,10.5,36h-71l12-36-10.5-43.363A8.056,8.056,0,0,1,448.315,169.083Z" transform="translate(-12.044 -8.576)"/><path class="cls-45" d="M494.9,287.029H459.567a10.371,10.371,0,0,1-10.214-8.576l-4.493-28.571h64.747l-4.493,28.571A10.372,10.372,0,0,1,494.9,287.029Z" transform="translate(-12.044 -8.576)"/><polygon class="cls-44" points="457.812 149.452 452.062 153.865 454.187 159.077 465.904 153.268 457.812 149.452"/><polygon class="cls-44" points="473.404 149.452 479.062 154.146 477.03 159.077 465.904 153.268 473.404 149.452"/><ellipse class="cls-22" cx="465.635" cy="133.6" rx="5.51" ry="3.696"/><path class="cls-20" d="M497.294,110.075l-19.5-11.5-19.5,11.5-.542,16.3c0-5.463.542-9.723,2.542-12.944v9.152h25.674l.031-12.74,2.969,12.74h6.326V116.6c.872,2.889,1,6.314,2,9.608Z" transform="translate(-12.044 -8.576)"/><path class="cls-39" d="M457.924,137.154h0a2.6,2.6,0,0,1-2.6-2.6V112.943A22.113,22.113,0,0,1,477.435,90.83h0a22.113,22.113,0,0,1,22.113,22.113v20.308a2.6,2.6,0,0,1-2.6,2.6h0V133.9c0-6.87,1.477-27.463-10.148-27.463H469.351c-9.7,0-11.427,7.862-11.427,17.56Z" transform="translate(-12.044 -8.576)"/><polygon class="cls-39" points="483.167 111.452 476.924 111.452 473.955 98.712 473.924 111.452 448.642 111.452 448.642 95.327 483.167 95.327 483.167 111.452"/><path class="cls-39" d="M488.419,122.435a1.531,1.531,0,1,1-1.531-1.531A1.53,1.53,0,0,1,488.419,122.435Z" transform="translate(-12.044 -8.576)"/><path class="cls-39" d="M468.044,122.435a1.532,1.532,0,1,0,1.531-1.531A1.531,1.531,0,0,0,468.044,122.435Z" transform="translate(-12.044 -8.576)"/><path class="cls-46" d="M1108.221,89.327H1083.1a6.867,6.867,0,0,1-6.865-6.682l-1.194-44.259h41.238l-1.195,44.259A6.867,6.867,0,0,1,1108.221,89.327Z" transform="translate(-12.044 -8.576)"/><path class="cls-3" d="M1075.533,57.588l.689,25.43a6.772,6.772,0,0,0,6.865,6.57h25.119a6.772,6.772,0,0,0,6.865-6.57l.689-25.43Z" transform="translate(-12.044 -8.576)"/><rect class="cls-7" x="1071.761" y="42.606" width="23.712" height="28.867"/><path class="cls-47" d="M1087.9,54.116a3.191,3.191,0,0,1,.535.047.844.844,0,0,1,.319.1.207.207,0,0,1,.1.181.171.171,0,0,1-.035.114.528.528,0,0,1-.153.1.261.261,0,0,0-.156.166c-.014.063-.025.309-.037.738s-.009.664-.013.747a1.614,1.614,0,0,1-.029.243.979.979,0,0,1-.274.537,1.191,1.191,0,0,1-.435.252,1.712,1.712,0,0,1-.56.091,2.09,2.09,0,0,1-.522-.068,1.625,1.625,0,0,1-.455-.188.747.747,0,0,1-.348-.624.536.536,0,0,1,.149-.389.49.49,0,0,1,.371-.154.557.557,0,0,1,.371.129.414.414,0,0,1,.152.324.839.839,0,0,1-.027.165.2.2,0,0,0,0,.051.157.157,0,0,0,.054.123.212.212,0,0,0,.143.046.292.292,0,0,0,.254-.141.644.644,0,0,0,.1-.371l0-.214,0-.575q-.021-.523-.031-.617a.326.326,0,0,0-.054-.151.193.193,0,0,0-.062-.061.938.938,0,0,0-.147-.045.162.162,0,0,1-.1-.066.187.187,0,0,1-.04-.115.243.243,0,0,1,.1-.2.821.821,0,0,1,.325-.123A2.541,2.541,0,0,1,1087.9,54.116Z" transform="translate(-12.044 -8.576)"/><path class="cls-47" d="M1090.426,55.03a1.3,1.3,0,0,1,.755.223,1.207,1.207,0,0,1,.373.416,1.145,1.145,0,0,1,.145.559,1.061,1.061,0,0,1-.466.867,1.643,1.643,0,0,1-1.023.34,1.291,1.291,0,0,1-.909-.319,1.044,1.044,0,0,1-.338-.808,1.139,1.139,0,0,1,.413-.907A1.56,1.56,0,0,1,1090.426,55.03Zm-.188.543a.2.2,0,0,0-.166.076.313.313,0,0,0-.061.2,1.868,1.868,0,0,0,.053.384,2.941,2.941,0,0,0,.125.431.249.249,0,0,0,.237.193c.14,0,.21-.089.21-.265a2.226,2.226,0,0,0-.054-.449,1.786,1.786,0,0,0-.128-.409A.246.246,0,0,0,1090.238,55.573Z" transform="translate(-12.044 -8.576)"/><path class="cls-47" d="M1094.366,54.905a.126.126,0,0,1,.1.067.275.275,0,0,1,.045.156.507.507,0,0,1-.06.219.6.6,0,0,1-.144.2c-.036.031-.055.056-.055.075s0,.023,0,.057a.578.578,0,0,1,.007.089.645.645,0,0,1-.188.47,1.126,1.126,0,0,1-.435.262,1.744,1.744,0,0,1-.586.1,1.127,1.127,0,0,1-.154-.01c-.04,0-.072-.007-.093-.007a.11.11,0,0,0-.124.125.139.139,0,0,0,.081.126.449.449,0,0,0,.219.045,2.161,2.161,0,0,0,.277-.025,4.413,4.413,0,0,1,.568-.055.844.844,0,0,1,.431.092.522.522,0,0,1,.193.2.546.546,0,0,1,.072.273.741.741,0,0,1-.174.46,1.2,1.2,0,0,1-.609.39,2.421,2.421,0,0,1-.727.1,1.927,1.927,0,0,1-.846-.16.644.644,0,0,1-.24-.2.422.422,0,0,1-.089-.254.3.3,0,0,1,.051-.169.271.271,0,0,1,.128-.11c.047-.02.07-.04.07-.062s-.02-.042-.059-.075a.435.435,0,0,1-.188-.326.385.385,0,0,1,.091-.233.609.609,0,0,1,.224-.185c.037-.019.056-.038.056-.057s-.023-.055-.07-.1a.689.689,0,0,1-.243-.521.59.59,0,0,1,.086-.3.771.771,0,0,1,.239-.244,1.5,1.5,0,0,1,.839-.247,2.053,2.053,0,0,1,.409.047,1.756,1.756,0,0,0,.293.043.816.816,0,0,0,.509-.2A.175.175,0,0,1,1094.366,54.905Zm-1.788,2.624c-.039,0-.058.023-.058.069a.254.254,0,0,0,.15.224.782.782,0,0,0,.39.086.878.878,0,0,0,.36-.061.191.191,0,0,0,.131-.172.126.126,0,0,0-.05-.1.184.184,0,0,0-.122-.041.924.924,0,0,0-.107.009,1.883,1.883,0,0,1-.294.022c-.08,0-.158,0-.231-.012a1.073,1.073,0,0,1-.134-.019A.206.206,0,0,0,1092.578,57.529Zm.512-2.138a.227.227,0,0,0-.188.09.365.365,0,0,0-.073.237.908.908,0,0,0,.078.406.232.232,0,0,0,.205.153.236.236,0,0,0,.2-.095.4.4,0,0,0,.073-.255.824.824,0,0,0-.077-.391A.248.248,0,0,0,1093.09,55.391Z" transform="translate(-12.044 -8.576)"/><path class="cls-47" d="M1095.956,54.281l-.03.984c0,.117.032.176.107.176a.146.146,0,0,0,.111-.077.7.7,0,0,1,.608-.332.792.792,0,0,1,.6.228.579.579,0,0,1,.14.24,1.586,1.586,0,0,1,.045.4l.022.847a.382.382,0,0,0,.029.163.493.493,0,0,0,.125.129.16.16,0,0,1,.069.129q0,.254-.766.254c-.454,0-.682-.079-.682-.238a.129.129,0,0,1,.012-.061,1.389,1.389,0,0,1,.083-.112,1.291,1.291,0,0,0,.1-.646,1.271,1.271,0,0,0-.06-.456.277.277,0,0,0-.276-.2.236.236,0,0,0-.212.1.562.562,0,0,0-.049.283v.453a3.074,3.074,0,0,0,.027.34.543.543,0,0,0,.109.148.168.168,0,0,1,.045.116c0,.176-.231.265-.691.265q-.808,0-.808-.275a.152.152,0,0,1,.026-.1.624.624,0,0,1,.126-.1c.06-.042.1-.156.124-.342a8.822,8.822,0,0,0,.034-.922,5.944,5.944,0,0,0-.028-.7.258.258,0,0,0-.034-.107.278.278,0,0,0-.093-.069c-.1-.05-.146-.108-.146-.174a.217.217,0,0,1,.111-.19,1.632,1.632,0,0,1,.423-.157,2.637,2.637,0,0,1,.673-.118C1095.915,54.163,1095.959,54.2,1095.956,54.281Z" transform="translate(-12.044 -8.576)"/><path class="cls-47" d="M1099.2,55.166v1.273q0,.41.27.409a.259.259,0,0,0,.134-.039.2.2,0,0,0,.091-.095,1.477,1.477,0,0,0,.052-.5,3.694,3.694,0,0,0-.025-.526.193.193,0,0,0-.033-.086.364.364,0,0,0-.089-.062.206.206,0,0,1-.135-.178c0-.1.077-.165.23-.2a3.6,3.6,0,0,1,.863-.108c.158,0,.237.083.237.251,0,.017,0,.052,0,.106,0,.075-.006.167-.008.275v1.036c0,.053.046.1.137.145a.179.179,0,0,1,.115.165q0,.21-.5.326a2.472,2.472,0,0,1-.568.068.314.314,0,0,1-.153-.026.123.123,0,0,1-.049-.1c-.008-.1-.037-.145-.089-.145a.114.114,0,0,0-.052.012c-.016.009-.063.041-.143.1a.891.891,0,0,1-.51.162.728.728,0,0,1-.637-.261,1.3,1.3,0,0,1-.157-.735c0-.129,0-.238,0-.329v-.108a.892.892,0,0,0-.037-.3.293.293,0,0,0-.133-.15.42.42,0,0,1-.116-.075.113.113,0,0,1-.025-.077c0-.119.09-.2.271-.237a4.232,4.232,0,0,1,.921-.1C1099.156,55.049,1099.2,55.088,1099.2,55.166Z" transform="translate(-12.044 -8.576)"/><path class="cls-47" d="M1102.274,55.046c.083,0,.133.012.151.035a.635.635,0,0,1,.048.226c.008.069.032.1.073.1s.061-.023.089-.069a.564.564,0,0,1,.491-.293.47.47,0,0,1,.35.138.531.531,0,0,1,.108.175.561.561,0,0,1,.042.206.53.53,0,0,1-.052.226.567.567,0,0,1-.133.192.516.516,0,0,1-.369.143.433.433,0,0,1-.2-.042,1.017,1.017,0,0,1-.213-.172.138.138,0,0,0-.091-.049.084.084,0,0,0-.085.074,1.428,1.428,0,0,0-.021.311,2.96,2.96,0,0,0,.026.484.2.2,0,0,0,.046.1.364.364,0,0,0,.125.055c.142.043.212.116.212.221a.234.234,0,0,1-.068.168.337.337,0,0,1-.181.095,3.514,3.514,0,0,1-.663.047,2.117,2.117,0,0,1-.632-.073.238.238,0,0,1-.192-.228.269.269,0,0,1,.141-.218.368.368,0,0,0,.094-.081.235.235,0,0,0,.035-.1,5.432,5.432,0,0,0,.038-.792.346.346,0,0,0-.024-.151.167.167,0,0,0-.094-.074c-.111-.044-.167-.107-.167-.19a.23.23,0,0,1,.116-.194,1.394,1.394,0,0,1,.385-.161A2.314,2.314,0,0,1,1102.274,55.046Z" transform="translate(-12.044 -8.576)"/><path class="cls-47" d="M1105.214,55.648v.794a.366.366,0,0,0,.069.23.218.218,0,0,0,.178.089.539.539,0,0,0,.242-.084.118.118,0,0,1,.174.046.26.26,0,0,1,.047.148.374.374,0,0,1-.16.28,1.2,1.2,0,0,1-.808.284.848.848,0,0,1-.6-.212.732.732,0,0,1-.228-.561V55.577a.116.116,0,0,0-.012-.067.117.117,0,0,0-.068-.013h-.241c-.046,0-.075-.007-.087-.022a.18.18,0,0,1-.02-.105v-.1a.119.119,0,0,1,.055-.1l1.075-.677a.216.216,0,0,1,.1-.021h.19a.1.1,0,0,1,.08.027.212.212,0,0,1,.019.107v.317a.133.133,0,0,0,.023.092.145.145,0,0,0,.1.021h.435a.145.145,0,0,1,.112.031.234.234,0,0,1,.026.136v.138a.273.273,0,0,1-.033.157.145.145,0,0,1-.12.043h-.425a.091.091,0,0,0-.113.113Z" transform="translate(-12.044 -8.576)"/><polygon class="cls-7" points="1063.05 32.012 1104.183 32.012 1104.236 28.012 1062.998 28.012 1063.05 32.012"/><path class="cls-3" d="M1174.294,44.107c-9,0-17.838,7.986-17.838,17.838s8.838,17.838,17.838,17.838V44.107Z" transform="translate(-12.044 -8.576)"/><path class="cls-4" d="M1174.294,79.783a17.792,17.792,0,0,0,11.872-31.257c-3.135-2.752-5.872-4.419-11.872-4.419V79.783Z" transform="translate(-12.044 -8.576)"/><path class="cls-5" d="M1174.294,79.783a17.792,17.792,0,0,0,11.872-31.257l-11.872,13.419Z" transform="translate(-12.044 -8.576)"/><path class="cls-6" d="M1174.294,79.783c8,0,12.5-3.658,15.551-9.076l-15.551-8.762Z" transform="translate(-12.044 -8.576)"/><path class="cls-7" d="M1164.655,76.718a15.649,15.649,0,0,0,9.639,3.065V61.945Z" transform="translate(-12.044 -8.576)"/><path class="cls-9" d="M1109.548,159.069h-25.12a6.867,6.867,0,0,1-6.864-6.682l-1.2-44.259h41.238l-1.194,44.259A6.867,6.867,0,0,1,1109.548,159.069Z" transform="translate(-12.044 -8.576)"/><path class="cls-8" d="M1076.86,126.588l.689,25.93a7.213,7.213,0,0,0,6.865,7.07h25.12a7.213,7.213,0,0,0,6.865-7.07l.689-25.93Z" transform="translate(-12.044 -8.576)"/><rect class="cls-7" x="1073.088" y="112.348" width="23.712" height="28.867"/><path class="cls-47" d="M1089.226,123.858a3.181,3.181,0,0,1,.535.047.824.824,0,0,1,.319.1.206.206,0,0,1,.1.18.175.175,0,0,1-.035.115.537.537,0,0,1-.153.1.264.264,0,0,0-.156.166q-.02.094-.037.738c0,.416-.009.665-.013.748a1.6,1.6,0,0,1-.029.242.979.979,0,0,1-.274.537,1.191,1.191,0,0,1-.435.252,1.711,1.711,0,0,1-.559.092,2.048,2.048,0,0,1-.523-.069,1.625,1.625,0,0,1-.455-.188.744.744,0,0,1-.348-.624.538.538,0,0,1,.149-.389.49.49,0,0,1,.371-.154.557.557,0,0,1,.371.129.411.411,0,0,1,.152.324.768.768,0,0,1-.027.165.214.214,0,0,0,0,.052.155.155,0,0,0,.054.122.212.212,0,0,0,.143.047.3.3,0,0,0,.254-.141.65.65,0,0,0,.1-.372l0-.213,0-.576c-.014-.349-.024-.555-.031-.616a.33.33,0,0,0-.054-.152.23.23,0,0,0-.061-.061,1.008,1.008,0,0,0-.148-.045.154.154,0,0,1-.1-.066.187.187,0,0,1-.04-.115.245.245,0,0,1,.1-.2.821.821,0,0,1,.325-.123A2.541,2.541,0,0,1,1089.226,123.858Z" transform="translate(-12.044 -8.576)"/><path class="cls-47" d="M1091.753,124.772a1.307,1.307,0,0,1,.755.223,1.207,1.207,0,0,1,.373.416,1.147,1.147,0,0,1,.146.559,1.062,1.062,0,0,1-.467.867,1.643,1.643,0,0,1-1.023.341,1.293,1.293,0,0,1-.909-.32,1.047,1.047,0,0,1-.338-.808,1.14,1.14,0,0,1,.413-.907A1.56,1.56,0,0,1,1091.753,124.772Zm-.187.543a.2.2,0,0,0-.166.076.315.315,0,0,0-.062.2,1.94,1.94,0,0,0,.053.384,2.993,2.993,0,0,0,.125.432.25.25,0,0,0,.237.192c.14,0,.21-.088.21-.265a2.164,2.164,0,0,0-.054-.449,1.786,1.786,0,0,0-.128-.409A.245.245,0,0,0,1091.566,125.315Z" transform="translate(-12.044 -8.576)"/><path class="cls-47" d="M1095.694,124.647a.124.124,0,0,1,.1.067.275.275,0,0,1,.045.156.5.5,0,0,1-.06.219.583.583,0,0,1-.144.2c-.036.031-.055.057-.055.075s0,.024,0,.057a.588.588,0,0,1,.007.089.645.645,0,0,1-.188.47,1.132,1.132,0,0,1-.435.263,1.744,1.744,0,0,1-.586.094,1.283,1.283,0,0,1-.153-.009.86.86,0,0,0-.094-.008.11.11,0,0,0-.124.125.139.139,0,0,0,.081.126.452.452,0,0,0,.219.045,2.161,2.161,0,0,0,.277-.025,4.556,4.556,0,0,1,.568-.054.845.845,0,0,1,.431.091.51.51,0,0,1,.193.2.54.54,0,0,1,.072.272.744.744,0,0,1-.174.461,1.205,1.205,0,0,1-.609.389,2.421,2.421,0,0,1-.727.1,1.913,1.913,0,0,1-.846-.16.66.66,0,0,1-.24-.2.422.422,0,0,1-.089-.254.3.3,0,0,1,.051-.169.277.277,0,0,1,.128-.11c.047-.019.07-.039.07-.061s-.019-.043-.058-.076a.434.434,0,0,1-.189-.326.387.387,0,0,1,.091-.233.617.617,0,0,1,.224-.185c.038-.019.056-.038.056-.057s-.023-.054-.07-.1a.691.691,0,0,1-.242-.522.581.581,0,0,1,.086-.3.767.767,0,0,1,.238-.244,1.509,1.509,0,0,1,.839-.246,2.039,2.039,0,0,1,.409.046,1.756,1.756,0,0,0,.293.043.815.815,0,0,0,.51-.2A.168.168,0,0,1,1095.694,124.647Zm-1.789,2.624c-.039,0-.058.023-.058.069a.254.254,0,0,0,.15.224.782.782,0,0,0,.39.086.878.878,0,0,0,.36-.061.19.19,0,0,0,.131-.172.124.124,0,0,0-.05-.1.184.184,0,0,0-.122-.041.777.777,0,0,0-.107.01,1.889,1.889,0,0,1-.294.021,2.15,2.15,0,0,1-.231-.012,1.027,1.027,0,0,1-.133-.019A.229.229,0,0,0,1093.905,127.271Zm.512-2.137a.228.228,0,0,0-.188.089.368.368,0,0,0-.073.237.9.9,0,0,0,.079.407.229.229,0,0,0,.2.152.234.234,0,0,0,.2-.095.4.4,0,0,0,.073-.255.824.824,0,0,0-.077-.391A.245.245,0,0,0,1094.417,125.134Z" transform="translate(-12.044 -8.576)"/><path class="cls-47" d="M1097.283,124.023l-.03.984c0,.117.032.176.108.176.038,0,.074-.026.11-.077a.705.705,0,0,1,.608-.332.79.79,0,0,1,.6.228.586.586,0,0,1,.14.24,1.584,1.584,0,0,1,.046.4l.021.848a.377.377,0,0,0,.029.162.493.493,0,0,0,.125.129.16.16,0,0,1,.069.13q0,.253-.766.253c-.454,0-.682-.079-.682-.237a.124.124,0,0,1,.012-.061,1.172,1.172,0,0,1,.083-.113,1.975,1.975,0,0,0,.039-1.1.277.277,0,0,0-.276-.195.238.238,0,0,0-.212.1.565.565,0,0,0-.049.283v.453c.011.2.02.314.027.341a.575.575,0,0,0,.109.148.163.163,0,0,1,.045.115c0,.177-.231.265-.691.265-.539,0-.808-.091-.808-.275a.158.158,0,0,1,.026-.1.624.624,0,0,1,.126-.105c.06-.042.1-.156.124-.341a8.568,8.568,0,0,0,.034-.923,5.726,5.726,0,0,0-.028-.7.248.248,0,0,0-.034-.106.279.279,0,0,0-.093-.07c-.1-.05-.145-.108-.145-.174a.218.218,0,0,1,.11-.19,1.632,1.632,0,0,1,.423-.157,2.644,2.644,0,0,1,.674-.118C1097.242,123.905,1097.286,123.944,1097.283,124.023Z" transform="translate(-12.044 -8.576)"/><path class="cls-47" d="M1100.53,124.908v1.273q0,.409.27.409a.267.267,0,0,0,.134-.038.217.217,0,0,0,.092-.1,1.514,1.514,0,0,0,.051-.5,3.529,3.529,0,0,0-.025-.525.188.188,0,0,0-.033-.086.338.338,0,0,0-.089-.062.208.208,0,0,1-.135-.179c0-.1.077-.165.231-.2a3.59,3.59,0,0,1,.862-.108c.158,0,.237.083.237.251,0,.017,0,.053,0,.106,0,.075-.006.167-.008.275v1.036c0,.053.046.1.137.145a.18.18,0,0,1,.115.165c0,.141-.167.249-.5.327a2.519,2.519,0,0,1-.568.067.317.317,0,0,1-.153-.025.127.127,0,0,1-.049-.1c-.008-.1-.037-.145-.089-.145a.1.1,0,0,0-.052.013c-.015.008-.063.04-.143.095a.889.889,0,0,1-.51.162.728.728,0,0,1-.637-.261,1.3,1.3,0,0,1-.157-.735c0-.129,0-.238,0-.329v-.108a.9.9,0,0,0-.037-.3.291.291,0,0,0-.133-.149.441.441,0,0,1-.116-.076.113.113,0,0,1-.025-.077c0-.119.09-.2.271-.237a4.3,4.3,0,0,1,.921-.1Q1100.53,124.791,1100.53,124.908Z" transform="translate(-12.044 -8.576)"/><path class="cls-47" d="M1103.6,124.788c.083,0,.134.012.151.036a.62.62,0,0,1,.048.225c.008.069.032.1.073.1s.061-.023.089-.069a.566.566,0,0,1,.491-.293.467.467,0,0,1,.35.139.516.516,0,0,1,.108.174.546.546,0,0,1,.042.206.54.54,0,0,1-.051.226.583.583,0,0,1-.134.192.511.511,0,0,1-.368.143.438.438,0,0,1-.2-.042,1.013,1.013,0,0,1-.212-.171.14.14,0,0,0-.092-.05.084.084,0,0,0-.085.074,1.433,1.433,0,0,0-.021.312,2.809,2.809,0,0,0,.027.483.183.183,0,0,0,.046.1.346.346,0,0,0,.125.055c.141.043.211.116.211.221a.234.234,0,0,1-.068.168.333.333,0,0,1-.181.095,3.514,3.514,0,0,1-.663.047,2.085,2.085,0,0,1-.632-.073.238.238,0,0,1-.192-.228.269.269,0,0,1,.141-.218.351.351,0,0,0,.094-.081.249.249,0,0,0,.036-.1,5.621,5.621,0,0,0,.037-.792.346.346,0,0,0-.024-.151.168.168,0,0,0-.093-.074c-.112-.044-.167-.107-.167-.19a.234.234,0,0,1,.115-.194,1.39,1.39,0,0,1,.386-.161A2.3,2.3,0,0,1,1103.6,124.788Z" transform="translate(-12.044 -8.576)"/><path class="cls-47" d="M1106.541,125.39v.794a.366.366,0,0,0,.07.23.215.215,0,0,0,.177.089.539.539,0,0,0,.242-.084.138.138,0,0,1,.071-.021.128.128,0,0,1,.1.068.248.248,0,0,1,.047.148.374.374,0,0,1-.16.279,1.2,1.2,0,0,1-.808.285.849.849,0,0,1-.6-.213.733.733,0,0,1-.228-.56v-1.086a.118.118,0,0,0-.012-.067.12.12,0,0,0-.068-.012h-.241c-.046,0-.075-.008-.087-.023a.18.18,0,0,1-.019-.1v-.1a.118.118,0,0,1,.054-.1l1.075-.677a.216.216,0,0,1,.1-.021h.191a.1.1,0,0,1,.079.027.212.212,0,0,1,.019.107v.317a.131.131,0,0,0,.023.092.146.146,0,0,0,.1.021h.435a.143.143,0,0,1,.112.032.226.226,0,0,1,.027.135v.138a.272.272,0,0,1-.034.157.142.142,0,0,1-.12.043h-.425a.125.125,0,0,0-.089.024A.123.123,0,0,0,1106.541,125.39Z" transform="translate(-12.044 -8.576)"/><path class="cls-8" d="M1187.339,147.56a17.838,17.838,0,0,0-25.227-25.227l12.613,12.613Z" transform="translate(-12.044 -8.576)"/><path class="cls-9" d="M1162.112,122.333a17.77,17.77,0,0,0,13.68,30.524,18.479,18.479,0,0,0,11.547-5.3l-12.614-12.614Z" transform="translate(-12.044 -8.576)"/><path class="cls-9" d="M1162.112,122.333a17.77,17.77,0,0,0,13.68,30.524,18.479,18.479,0,0,0,11.547-5.3l-12.614-12.614Z" transform="translate(-12.044 -8.576)"/><path class="cls-7" d="M1162.112,122.333a17.77,17.77,0,0,0,13.68,30.524l-1.067-17.911Z" transform="translate(-12.044 -8.576)"/><path class="cls-6" d="M1162.112,122.333a17.156,17.156,0,0,0-4.579,17.414l17.192-4.8Z" transform="translate(-12.044 -8.576)"/><path class="cls-5" d="M1171.52,117.322a17.351,17.351,0,0,0-9.408,5.011l12.613,12.613Z" transform="translate(-12.044 -8.576)"/><path class="cls-10" d="M1187.29,147.511a17.583,17.583,0,0,0-.057-25.17,17.98,17.98,0,0,0-6.343-4.117l-6.213,16.674Z" transform="translate(-12.044 -8.576)"/><path class="cls-3" d="M1219.917,61.366a11.148,11.148,0,1,0,22.252,1.394l-11.126-.7Z" transform="translate(-12.044 -8.576)"/><path class="cls-4" d="M1242.169,62.76a10.946,10.946,0,0,0-10.414-12.06,11.228,11.228,0,0,0-8.615,3.378,10.36,10.36,0,0,0-3.223,7.288l11.126.7Z" transform="translate(-12.044 -8.576)"/><path class="cls-5" d="M1242.169,62.76a10.946,10.946,0,0,0-10.414-12.06,11.228,11.228,0,0,0-8.615,3.378l7.9,7.985Z" transform="translate(-12.044 -8.576)"/><path class="cls-6" d="M1242.169,62.76a10.71,10.71,0,0,0-5.053-10.055l-6.073,9.358Z" transform="translate(-12.044 -8.576)"/><path class="cls-7" d="M1239.889,68.527a9.778,9.778,0,0,0,2.288-5.892l-11.126-.7Z" transform="translate(-12.044 -8.576)"/><path class="cls-8" d="M1220.752,131.6a11.148,11.148,0,0,0,21.242,6.776l-10.621-3.388Z" transform="translate(-12.044 -8.576)"/><path class="cls-9" d="M1241.994,138.374a11.105,11.105,0,0,0-16.349-13.028,11.551,11.551,0,0,0-4.893,6.252l10.621,3.388Z" transform="translate(-12.044 -8.576)"/><path class="cls-9" d="M1241.994,138.374a11.105,11.105,0,0,0-16.349-13.028,11.551,11.551,0,0,0-4.893,6.252l10.621,3.388Z" transform="translate(-12.044 -8.576)"/><path class="cls-7" d="M1241.994,138.374a11.105,11.105,0,0,0-16.349-13.028l5.728,9.64Z" transform="translate(-12.044 -8.576)"/><path class="cls-6" d="M1241.994,138.374a10.723,10.723,0,0,0-2.45-10.983l-8.171,7.595Z" transform="translate(-12.044 -8.576)"/><path class="cls-5" d="M1238.206,143.854a10.853,10.853,0,0,0,3.788-5.48l-10.621-3.388Z" transform="translate(-12.044 -8.576)"/><path class="cls-10" d="M1220.793,131.611a10.988,10.988,0,0,0,7.249,13.96,11.229,11.229,0,0,0,4.7.468l-1.33-11.04Z" transform="translate(-12.044 -8.576)"/><rect class="cls-2" x="335.248" y="212.149" width="645.751" height="5.356"/><polygon class="cls-48" points="975.447 222.861 340.8 222.861 335.248 217.505 980.999 217.505 975.447 222.861"/><rect class="cls-36" x="373.554" y="222.677" width="13.324" height="26.343"/><rect class="cls-38" x="373.554" y="249.02" width="13.324" height="102.486"/><rect class="cls-36" x="927.148" y="222.677" width="13.324" height="26.413"/><rect class="cls-38" x="927.148" y="249.02" width="13.324" height="102.486"/><rect class="cls-36" x="662.202" y="-19.63" width="13.324" height="541.129" transform="translate(405.885 911.222) rotate(-90)"/><path class="cls-18" d="M1171.321,138.486c-3.074,3.074-11.289,4.086-15.732-.356s-5.552-10.537-2.478-13.611,9.168-1.965,13.611,2.478S1174.4,135.412,1171.321,138.486Z" transform="translate(-12.044 -8.576)"/><ellipse class="cls-18" cx="1166.772" cy="130.968" rx="5.1" ry="6.981" transform="translate(237.087 854.816) rotate(-45)"/><line class="cls-41" x1="1166.277" y1="133.545" x2="1157.521" y2="127.35"/><path class="cls-49" d="M1249.1,129.126s-31.315,18.2-41.579,18.81-30.885-7.181-30.885-7.181" transform="translate(-12.044 -8.576)"/><line class="cls-50" x1="1143.123" y1="170.012" x2="1072.123" y2="114.012"/><path class="cls-18" d="M1173.463,176.453c0,4.348-5.093,10.872-11.376,10.872s-11.376-3.524-11.376-7.872,5.093-7.872,11.376-7.872S1173.463,172.105,1173.463,176.453Z" transform="translate(-12.044 -8.576)"/><ellipse class="cls-18" cx="1152.887" cy="165.777" rx="6.981" ry="5.1"/><line class="cls-41" x1="1167.525" y1="168.084" x2="1158.368" y2="167.309"/><circle class="cls-7" cx="1230.789" cy="198.7" r="18.123"/><line class="cls-51" x1="1233.25" y1="319.012" x2="1233.25" y2="344.012"/><rect class="cls-18" x="1228.667" y="70.89" width="15" height="34.875" rx="7.5" ry="7.5"/><path class="cls-52" d="M1258.436,113.367l-27.975,5.787v-3.127a12.811,12.811,0,0,1,12.811-12.811h15.164Z" transform="translate(-12.044 -8.576)"/><path class="cls-18" d="M1255.711,46.654V84.9a12,12,0,0,1-12,12h-15a12,12,0,0,1-12-12V46.654Z" transform="translate(-12.044 -8.576)"/><path class="cls-21" d="M1224.273,62.935a1.531,1.531,0,1,1-1.531-1.531A1.53,1.53,0,0,1,1224.273,62.935Z" transform="translate(-12.044 -8.576)"/><path class="cls-7" d="M1224.273,62.935a1.531,1.531,0,1,1-1.531-1.531A1.53,1.53,0,0,1,1224.273,62.935Z" transform="translate(-12.044 -8.576)"/><path class="cls-18" d="M1217.3,62.216l-5.576,8.239a3,3,0,0,0,2.6,4.511h2.978S1217.331,63.107,1217.3,62.216Z" transform="translate(-12.044 -8.576)"/><line class="cls-53" x1="1232.25" y1="200.012" x2="1232.25" y2="331.012"/><path class="cls-7" d="M1233.33,340.654l-10.837,9.464a8.616,8.616,0,0,1-1.766,1.193l-2.962,1.5a12.609,12.609,0,0,1-5.708,1.367h-4.392a5.773,5.773,0,0,0-5.773,5.772v.745h31.4l2.306-1.251a7.666,7.666,0,0,1,7.91.359l1.337.892h9.183v-4.74l0-13.419-3.645-.031a11.7,11.7,0,0,1-14.456.142Z" transform="translate(-12.044 -8.576)"/><path class="cls-7" d="M1252.812,108.322h0a8.65,8.65,0,0,1,8.649,8.65v92.389h-44.987v-64.7A36.338,36.338,0,0,1,1252.812,108.322Z" transform="translate(-12.044 -8.576)"/><path class="cls-54" d="M1216.426,163.2a6.445,6.445,0,0,0,.959-.663c4.568-5.218,16.945-26.078,23.712-38.068l13.322,7.687c-1.9,3.362-16.391,34.242-23.644,42.412-1.981,2.231-5.436,4.976-14.233,8.019Z" transform="translate(-12.044 -8.576)"/><path class="cls-49" d="M1248.935,123.887s-18.064,32.012-24.891,39.7-45.218,13.3-45.218,13.3" transform="translate(-12.044 -8.576)"/><path class="cls-20" d="M1255.711,80.588h-3.375a5.635,5.635,0,0,1-5.625-5.934V59.687a3.432,3.432,0,0,0-3.409-3.1h-1.591v7.066a6.212,6.212,0,0,1-6-6V55.687a6.07,6.07,0,0,0-6.408-6.1h-12.592v-5h39Z" transform="translate(-12.044 -8.576)"/><path class="cls-55" d="M1214.914,26.216h0v1.063a4.875,4.875,0,0,0,4.875,4.875h26.672a7.5,7.5,0,0,1,7.5,7.5h1.5a7.5,7.5,0,0,1,7.5,7.5h0V72.723a5.932,5.932,0,0,1-5.931,5.931h-4.569a6,6,0,0,1-6-6h0V60.687a3.034,3.034,0,0,0-3.034-3.033h-1.466v6h0a6,6,0,0,1-6-6h0V53.687a6.533,6.533,0,0,0-6.533-6.533h-14.451A10.454,10.454,0,0,1,1204.523,36.7v-.031a10.4,10.4,0,0,1,1.482-5.367s.29,3.977,5.831,4.727c-1.978-5.548.594-8.313,3.078-9.813Z" transform="translate(-12.044 -8.576)"/><ellipse class="cls-22" cx="1213.29" cy="74.679" rx="4.5" ry="2.667"/><rect class="cls-2" x="238.374" y="194.721" width="12.185" height="55.192" rx="4.441" ry="4.441"/><rect class="cls-2" x="252.166" y="268.815" width="78.865" height="13.879" rx="4.441" ry="4.441" transform="translate(571.153 542.933) rotate(-180)"/><rect class="cls-36" x="288.323" y="282.694" width="6.662" height="14.989" transform="translate(571.264 571.801) rotate(-180)"/><rect class="cls-37" x="285.304" y="297.683" width="12.7" height="41.422" transform="translate(571.264 628.212) rotate(-180)"/><rect class="cls-38" x="285.304" y="334.694" width="12.7" height="4.411" transform="translate(571.264 665.223) rotate(-180)"/><polygon class="cls-38" points="280.72 333.52 317.361 337.406 317.361 332.195 280.72 328.308 280.72 333.52"/><rect class="cls-38" x="324.163" y="340.771" width="5.241" height="10.763" transform="translate(641.524 683.728) rotate(-180)"/><circle class="cls-36" cx="314.94" cy="345.533" r="5.196"/><polygon class="cls-38" points="280.72 333.52 244.08 337.406 244.08 332.195 280.72 328.308 280.72 333.52"/><rect class="cls-38" x="244.08" y="332.195" width="5.241" height="10.763"/><circle class="cls-36" cx="246.5" cy="345.533" r="5.196"/><polygon class="cls-38" points="279.61 333.135 261.567 337.406 261.567 332.195 279.61 327.923 279.61 333.135"/><rect class="cls-38" x="261.567" y="332.195" width="5.241" height="10.763"/><circle class="cls-36" cx="263.988" cy="345.533" r="5.196"/><polygon class="cls-38" points="279.61 333.135 297.652 337.406 297.652 332.195 279.61 327.923 279.61 333.135"/><rect class="cls-38" x="304.455" y="340.771" width="5.241" height="10.763" transform="translate(602.108 683.728) rotate(-180)"/><circle class="cls-36" cx="295.232" cy="345.533" r="5.196"/><rect class="cls-18" x="272.902" y="115.891" width="45.998" height="27.689" rx="11.151" ry="11.151" transform="translate(571.978 267.361) rotate(-176.77)"/><rect class="cls-18" x="278.358" y="84.74" width="38.99" height="56.313" rx="12" ry="12" transform="translate(576.828 233.82) rotate(-176.77)"/><ellipse class="cls-18" cx="385.358" cy="192.758" rx="12.071" ry="8.353" transform="translate(-31.982 330.439) rotate(-46.417)"/><ellipse class="cls-18" cx="379.358" cy="191.213" rx="7.407" ry="5.411" transform="translate(-32.727 325.613) rotate(-46.417)"/><line class="cls-56" x1="346.962" y1="195.915" x2="364.658" y2="189.227"/><line class="cls-57" x1="340.942" y1="320.012" x2="330.516" y2="343.012"/><path class="cls-44" d="M276.46,146.921l30.494,10.667V154.18a13.964,13.964,0,0,0-13.964-13.964H276.46Z" transform="translate(-12.044 -8.576)"/><path class="cls-21" d="M309.093,108.186a1.531,1.531,0,1,0,1.615-1.442A1.53,1.53,0,0,0,309.093,108.186Z" transform="translate(-12.044 -8.576)"/><ellipse class="cls-22" cx="309.889" cy="129.523" rx="2.484" ry="3.703" transform="translate(151.066 423.045) rotate(-86.77)"/><path class="cls-18" d="M317.03,108.72l4.934,8.258a2.9,2.9,0,0,1-2.755,4.213l-2.875-.162S316.951,109.579,317.03,108.72Z" transform="translate(-12.044 -8.576)"/><path class="cls-21" d="M356.133,339.654l10.837,9.464a8.616,8.616,0,0,0,1.766,1.193l2.962,1.5a12.606,12.606,0,0,0,5.708,1.367H381.8a5.773,5.773,0,0,1,5.773,5.772v.745h-31.4l-2.306-1.251a7.666,7.666,0,0,0-7.91.359l-1.337.892h-9.184v-4.74l0-13.419,3.645-.031a11.7,11.7,0,0,0,14.456.142Z" transform="translate(-12.044 -8.576)"/><path class="cls-58" d="M356.133,339.654l10.837,9.464a8.616,8.616,0,0,0,1.766,1.193l2.962,1.5a12.606,12.606,0,0,0,5.708,1.367H381.8a5.773,5.773,0,0,1,5.773,5.772v.745h-31.4l-2.306-1.251a7.666,7.666,0,0,0-7.91.359l-1.337.892h-9.184v-4.74l0-13.419,3.645-.031a11.7,11.7,0,0,0,14.456.142Z" transform="translate(-12.044 -8.576)"/><path class="cls-59" d="M294.686,259.985s54.541,2.47,63.37,17.687c7.31,12.6-7.173,55-7.173,55" transform="translate(-12.044 -8.576)"/><path class="cls-60" d="M324.554,251.78c0,10.62-21.769,19.362-32.389,19.362a19.23,19.23,0,0,1,0-38.459C302.785,232.683,324.554,241.159,324.554,251.78Z" transform="translate(-12.044 -8.576)"/><path class="cls-35" d="M275.189,260.953a19.237,19.237,0,0,1,16.976-28.27c10.62,0,32.389,8.476,32.389,19.1a5.612,5.612,0,0,1-.336,2.286" transform="translate(-12.044 -8.576)"/><path class="cls-60" d="M281.113,145.322h0c-11.6.933-14.8,23.638-15.177,42.738s2,64.473,2,64.473h70.651V202.111C338.587,163.429,302.408,145.322,281.113,145.322Z" transform="translate(-12.044 -8.576)"/><path class="cls-35" d="M325.628,225.564a37.386,37.386,0,0,1-6.976-.593c-9.625-1.839-18.987-11.154-29.463-29.314a103.969,103.969,0,0,1-9.77-24.194l15.642-6.725a215.853,215.853,0,0,0,10.76,21.527c10.8,18.682,16.36,19.936,16.416,19.946a44.258,44.258,0,0,0,16.37-.373l.011,18.447A76.538,76.538,0,0,1,325.628,225.564Z" transform="translate(-12.044 -8.576)"/><path class="cls-61" d="M286.253,163.429s18.491,44.162,34.191,47.162,48.121-9.978,48.121-9.978" transform="translate(-12.044 -8.576)"/><path class="cls-2" d="M294.167,243.867l-1-1.822c-.911-1.913-2.114-2.653-4.556-2.653H254.648a4.453,4.453,0,0,0-4.441,4.441v.817h38.4l2.318,5.295,2.425-1.022C294.187,248.505,295.462,246.3,294.167,243.867Z" transform="translate(-12.044 -8.576)"/><rect class="cls-38" x="265.889" y="229.18" width="7.252" height="38.193" transform="translate(505.747 -29.815) rotate(90)"/><polygon class="cls-38" points="290.206 274.118 281.878 274.118 270.272 239.7 276.553 236.074 290.206 274.118"/><path class="cls-35" d="M1020.808,63.355a4.059,4.059,0,0,1-1.082,3.03,4.158,4.158,0,0,1-3.043,1.063h-2.54V59.6h2.718a4.1,4.1,0,0,1,2.918.966A3.649,3.649,0,0,1,1020.808,63.355Zm-2.2.076a2.494,2.494,0,0,0-.428-1.6,1.579,1.579,0,0,0-1.3-.521h-.617v4.4h.472a1.708,1.708,0,0,0,1.418-.562A2.706,2.706,0,0,0,1018.607,63.431Z" transform="translate(-12.044 -8.576)"/><path class="cls-35" d="M1026.932,67.448h-4.662V59.6h4.662v1.7h-2.54v1.236h2.351v1.7h-2.351v1.483h2.54Z" transform="translate(-12.044 -8.576)"/><path class="cls-35" d="M1028.362,67.448V59.6h2.123v6.139h3.023v1.713Z" transform="translate(-12.044 -8.576)"/><path class="cls-35" d="M1041.056,59.6v4.726a3.173,3.173,0,0,1-.873,2.388,3.477,3.477,0,0,1-2.517.846,3.439,3.439,0,0,1-2.468-.822,3.112,3.112,0,0,1-.862-2.364V59.6h2.132V64.2a1.883,1.883,0,0,0,.312,1.208,1.343,1.343,0,0,0,1.861,0,2,2,0,0,0,.293-1.222V59.6Z" transform="translate(-12.044 -8.576)"/><path class="cls-35" d="M1050.053,67.448H1047.6l-1.53-2.454-1.516,2.454h-2.4l2.605-4.017-2.449-3.835h2.351l1.418,2.427,1.366-2.427h2.421l-2.486,4Z" transform="translate(-12.044 -8.576)"/><path class="cls-35" d="M1055.651,67.448h-4.663V59.6h4.663v1.7h-2.54v1.236h2.351v1.7h-2.351v1.483h2.54Z" transform="translate(-12.044 -8.576)"/><path class="cls-35" d="M1019.643,133.948V126.1h2.122v6.139h3.023v1.713Z" transform="translate(-12.044 -8.576)"/><path class="cls-35" d="M1026.32,133.948V126.1h2.132v7.852Z" transform="translate(-12.044 -8.576)"/><path class="cls-35" d="M1033.359,129.35h3.388v4.233a9.315,9.315,0,0,1-3.035.473,3.671,3.671,0,0,1-2.806-1.053,4.215,4.215,0,0,1-.991-3,3.944,3.944,0,0,1,1.085-2.959,4.17,4.17,0,0,1,3.04-1.058,6.748,6.748,0,0,1,1.4.139,6,6,0,0,1,1.146.355l-.671,1.665a4.157,4.157,0,0,0-1.864-.419,1.775,1.775,0,0,0-1.437.6,2.618,2.618,0,0,0-.507,1.727,2.646,2.646,0,0,0,.459,1.678,1.59,1.59,0,0,0,1.324.578,3.879,3.879,0,0,0,.87-.091v-1.23h-1.4Z" transform="translate(-12.044 -8.576)"/><path class="cls-35" d="M1045.132,133.948H1043v-3.2h-2.466v3.2H1038.4V126.1h2.131v2.911H1043V126.1h2.132Z" transform="translate(-12.044 -8.576)"/><path class="cls-35" d="M1050.57,133.948h-2.122V127.83h-1.918V126.1h5.952v1.734h-1.912Z" transform="translate(-12.044 -8.576)"/><polygon class="cls-7" points="1063.05 32.012 1104.183 32.012 1104.236 28.012 1062.998 28.012 1063.05 32.012"/><polygon class="cls-7" points="1064.378 101.012 1105.51 101.012 1105.563 97.012 1064.325 97.012 1064.378 101.012"/><polyline class="cls-54" points="920.817 211.343 909.023 193.439 913.456 189.942 925.75 208.262"/><polyline class="cls-60" points="974.645 0.141 915.333 181.679 974.645 181.744"/><rect class="cls-54" x="895.443" y="216.668" width="5.75" height="3.48" rx="1.74" ry="1.74" transform="translate(14.055 516.283) rotate(-33.024)"/><rect class="cls-54" x="932.359" y="216.585" width="5.75" height="3.48" rx="1.74" ry="1.74" transform="matrix(0.838, -0.545, 0.545, 0.838, 20.065, 536.389)"/><rect class="cls-62" x="882.388" y="194.653" width="49.5" height="15.25" rx="4.491" ry="4.491" transform="translate(24.271 518.485) rotate(-33.024)"/><rect class="cls-35" x="927.566" y="184.199" width="4.002" height="7" transform="translate(35.84 528.353) rotate(-33.024)"/><path class="cls-63" d="M829.459,171.838h54.614a2.665,2.665,0,0,1,2.665,2.665l-10,43.335H816.794l10-43.335A2.665,2.665,0,0,1,829.459,171.838Z" transform="translate(-12.044 -8.576)"/><polygon class="cls-62" points="816.714 165.229 872.73 165.229 862.73 208.128 806.714 208.128 816.714 165.229"/><g class="cls-64"><g class="cls-65"><polyline class="cls-46" points="828.353 184.028 828.325 184.034 828.334 184.034 828.353 184.028"/><polyline class="cls-46" points="830.925 176.971 829.811 182.442 830.925 176.971"/><polyline class="cls-46" points="831.958 171.895 824.837 171.895 824.081 176.479 825.415 176.479 825.663 175.132 829.78 175.132 829.532 176.479 831.025 176.479 831.958 171.895"/><path class="cls-3" d="M843.069,185.055h-1.493l-.994,5.393h-4.117l.994-5.393h-1.343l-.985,6.015c-.146.887.255,1.54.9,1.54h4.338l.028-.006a1.768,1.768,0,0,0,1.449-1.534l.009-.052,1.114-5.471.1-.492" transform="translate(-12.044 -8.576)"/><polyline class="cls-7" points="826.697 176.039 826.667 176.058 826.649 176.11 826.641 176.201 826.64 176.304 826.675 176.349 826.723 176.285 826.734 176.175 826.725 176.077 826.697 176.039"/><polyline class="cls-7" points="827.199 176 827.16 176.019 827.141 176.077 827.132 176.175 827.161 176.207 827.2 176.188 827.23 176.123 827.228 176.032 827.199 176"/><path class="cls-7" d="M840.349,184.57l.045-.052.155-.026.033.058-.014.026-.012.065-.045.246.02.039.01.039-.1.077-.1.013-.025-.006-.006-.02v-.039L840.3,185l-.03.019-.095.039-.1-.058a.42.42,0,0,1,0-.175l.016-.084,0-.019.013-.072-.02-.039-.014-.019-.006-.013.064-.058.163-.026.013.026-.056.3c-.012.065,0,.1.035.1l.019-.006.023-.026.03-.117.023-.123,0-.026-.016-.013-.01-.038m.529.006.011-.013.1-.071.056.032.009.046v.045l-.018.052-.036.052-.068.032-.033-.013-.028-.039-.016-.013-.021.02-.013.071-.013.116,0,.026.016.013.025.052-.015.039-.039.019-.118.013-.1-.019-.026-.052.036-.052.021-.019,0-.026a.983.983,0,0,0,.044-.188l.006-.032-.015-.02-.018-.045.026-.045.069-.039.111-.026.025.006,0,.059.015.019m-2.39.214a.423.423,0,0,1,.11-.214l.2-.091.114.059.052.1,0,.129a.325.325,0,0,1-.127.207l-.192.085-.136-.078a.25.25,0,0,1-.026-.194m.881-.272.1-.052.019-.006.015.013,0,.038-.028.052-.026.045-.012.02,0,.013,0,.019-.057.117-.081.058-.111.026-.025-.006h-.018l-.024.032,0,.026.042.013.045-.007.1-.013.076.02.017.051.006.065-.055.1-.115.1-.136.019-.135-.032-.035-.052-.007-.058.016-.039.031-.026.012-.013-.006-.019-.021-.078.029-.058.052-.045.012-.013-.015-.02-.012-.123.022-.071.055-.058.152-.059.069.007.051.013m1.709.026.014-.026.214-.156.019-.006h.035l.016.006,0,.026-.013.072,0,.025h.1l.015.013,0,.033-.006.032-.015.033-.02.012h-.079l-.019.007,0,.019-.034.188,0,.058.032.02.047-.02.01-.006.014.019,0,.033-.038.064-.155.072-.1-.052-.01-.136.046-.253,0-.019h-.053l-.008-.006,0-.026,0-.026m-1.536-.149.026-.045.077-.039.12-.026.022.026-.052.233.009.045.022-.019.12-.078.1.052.015.058-.008.091-.037.2,0,.039.012.033,0,.032-.144.058-.1-.058,0-.013.022-.026a.514.514,0,0,0,.046-.155l.011-.1-.044-.052-.04.026-.022.071-.019.1-.007.084.012.033,0,.025-.135.065c-.089,0-.138-.019-.13-.065l.014-.025.021-.02.042-.084.041-.22.029-.162,0-.026-.014-.019-.01-.039m-1.32-.033.028-.051.057-.026.091-.013.1.013.049.019.01.046-.014.025-.031.026-.034.039c0,.013-.013.071-.041.175l-.033.181-.019.052-.068.129-.081.059-.1.026-.085-.02-.071-.045-.033-.058v-.091l.043-.091.069-.038.056.032.012.078-.007.038,0,.013,0,.033.017.006.05-.032.034-.091.009-.045.025-.136.027-.149-.011-.039-.006-.013-.024-.013-.006-.013,0-.026m3.6-.653h-4.117l-.248,1.346-.994,5.393h4.117l.994-5.393.248-1.346" transform="translate(-12.044 -8.576)"/><polyline class="cls-7" points="827.15 176.505 827.131 176.511 827.087 176.511 827.043 176.511 827.018 176.505 827.005 176.524 827.022 176.576 827.08 176.595 827.145 176.582 827.18 176.537 827.174 176.518 827.15 176.505"/><path class="cls-47" d="M838.4,184.272l-.091.013-.057.026-.028.051,0,.026.006.013.024.013.006.013.011.039-.027.149-.025.136-.009.045-.034.091-.05.032-.017-.006,0-.033,0-.013.007-.038-.012-.078-.056-.032-.069.038-.043.091v.091l.033.058.071.045.085.02.1-.026.081-.059.068-.129.019-.052.033-.181c.028-.1.039-.162.041-.175l.034-.039.031-.026.014-.025-.01-.046-.049-.019-.1-.013" transform="translate(-12.044 -8.576)"/><path class="cls-47" d="M838.693,184.686l.018-.052.03-.019.028.039.009.1-.011.11-.048.065-.035-.046v-.1l.008-.091m.107-.2-.2.091a.423.423,0,0,0-.11.214.25.25,0,0,0,.026.194l.136.078.192-.085a.325.325,0,0,0,.127-.207l0-.129-.052-.1-.114-.059" transform="translate(-12.044 -8.576)"/><path class="cls-47" d="M839.087,185.088h.088l.019-.007.024.013.006.019-.035.046-.064.013-.059-.02-.017-.051.013-.02.025.007m.1-.434.019-.058.039-.02.03.032v.091l-.03.065-.039.019-.029-.032.009-.1m.3-.194-.019.006-.1.052-.051-.013-.069-.007-.152.059-.055.058-.022.071.012.123.015.02-.012.013-.052.045-.029.058.021.078.006.019-.012.013-.031.026-.016.039.007.058.035.052.135.032.136-.019.115-.1.055-.1-.006-.065-.017-.051-.076-.02-.1.013-.045.007-.042-.013,0-.026.024-.032h.018l.025.006.111-.026.081-.058.057-.117,0-.019,0-.013.012-.02.026-.045.028-.052,0-.038-.015-.013" transform="translate(-12.044 -8.576)"/><path class="cls-47" d="M839.765,184.285l-.12.026-.077.039-.026.045.01.039.014.019,0,.026-.029.162-.041.22-.042.084-.021.02-.014.025c-.008.046.041.065.13.065l.135-.065,0-.025-.012-.033.007-.084.019-.1.022-.071.04-.026.044.052-.011.1a.514.514,0,0,1-.046.155l-.022.026,0,.013.1.058.144-.058,0-.032-.012-.033,0-.039.037-.2L840,184.6l-.015-.058-.1-.052-.12.078-.022.019-.009-.045.052-.233-.022-.026" transform="translate(-12.044 -8.576)"/><path class="cls-47" d="M840.549,184.492l-.155.026-.045.052.01.038.016.013,0,.026-.023.123-.03.117-.023.026-.019.006c-.035,0-.047-.032-.035-.1l.056-.3-.013-.026-.163.026-.064.058.006.013.014.019.02.039-.013.072,0,.019-.016.084a.42.42,0,0,0,0,.175l.1.058.095-.039.03-.019.011-.007v.039l.006.02.025.006.1-.013.1-.077-.01-.039-.02-.039.045-.246.012-.065.014-.026-.033-.058" transform="translate(-12.044 -8.576)"/><path class="cls-47" d="M840.99,184.492l-.1.071-.011.013-.015-.019,0-.059-.025-.006-.111.026-.069.039-.026.045.018.045.015.02-.006.032a.983.983,0,0,1-.044.188l0,.026-.021.019-.036.052.026.052.1.019.118-.013.039-.019.015-.039-.025-.052-.016-.013,0-.026.013-.116.013-.071.021-.02.016.013.028.039.033.013.068-.032.036-.052.018-.052v-.045l-.009-.046-.056-.032" transform="translate(-12.044 -8.576)"/><polyline class="cls-47" points="829.316 175.78 829.28 175.78 829.262 175.786 829.047 175.942 829.034 175.967 829.029 175.993 829.033 176.019 829.041 176.026 829.085 176.026 829.094 176.026 829.099 176.045 829.052 176.298 829.063 176.434 829.159 176.485 829.314 176.414 829.352 176.349 829.349 176.317 829.335 176.298 829.325 176.304 829.277 176.324 829.246 176.304 829.248 176.246 829.282 176.058 829.286 176.039 829.305 176.032 829.384 176.032 829.404 176.019 829.419 175.987 829.425 175.955 829.422 175.922 829.407 175.909 829.327 175.909 829.31 175.909 829.314 175.883 829.328 175.812 829.332 175.786 829.316 175.78"/><path class="cls-3" d="M850.751,189.75c.038.037.077.074.117.109l-.117-.109m2.989-7.854c-1.572,0-3.433,1.9-3.863,4.234a4.137,4.137,0,0,0,.767,3.508l2.316-3.508.78-4.234" transform="translate(-12.044 -8.576)"/><path class="cls-3" d="M851.841,190.332a1.842,1.842,0,0,0,.339.032,1.842,1.842,0,0,1-.339-.032" transform="translate(-12.044 -8.576)"/><path class="cls-4" d="M853.74,181.9l-.78,4.234,2.645-3.185a1.966,1.966,0,0,0-1.865-1.049" transform="translate(-12.044 -8.576)"/><path class="cls-5" d="M855.605,182.945l-2.645,3.185,2.3,2.085a6.4,6.4,0,0,1-.843,1.126,6.04,6.04,0,0,0,1.669-3.211,4.482,4.482,0,0,0-.482-3.185" transform="translate(-12.044 -8.576)"/><path class="cls-5" d="M852.547,190.338a3.39,3.39,0,0,1-.367.026,2.429,2.429,0,0,0,.367-.026" transform="translate(-12.044 -8.576)"/><path class="cls-6" d="M852.96,186.13l-.78,4.234a3.39,3.39,0,0,0,.367-.026,3.058,3.058,0,0,0,1.871-1,6.4,6.4,0,0,0,.843-1.126l-2.3-2.085" transform="translate(-12.044 -8.576)"/><path class="cls-7" d="M852.96,186.13l-2.316,3.508h0a3.088,3.088,0,0,0,.225.22,1.712,1.712,0,0,0,.973.473,1.842,1.842,0,0,0,.339.032l.78-4.234" transform="translate(-12.044 -8.576)"/><polyline class="cls-9" points="829.106 188.618 821.985 188.618 821.269 192.936 822.771 192.936 823.02 191.583 827.137 191.583 826.888 192.936 828.222 192.936 827.059 198.662 829.106 188.618"/><path class="cls-8" d="M840.266,201.512h-1.334l-.994,5.393h-4.117l.994-5.393h-1.5l-1.009,6.151c-.145.88.231,1.67.876,1.67h4.337c.645,0,1.321-.79,1.5-1.67l.011-.059,1.237-6.092" transform="translate(-12.044 -8.576)"/><polyline class="cls-7" points="824.377 192.56 824.338 192.58 824.319 192.638 824.31 192.735 824.339 192.768 824.378 192.748 824.398 192.69 824.407 192.593 824.377 192.56"/><polyline class="cls-7" points="823.874 192.606 823.845 192.619 823.818 192.671 823.819 192.761 823.818 192.865 823.853 192.91 823.901 192.845 823.911 192.742 823.902 192.645 823.874 192.606"/><path class="cls-7" d="M835.665,201.357a.425.425,0,0,1,.112-.22l.2-.084.114.051.052.1,0,.136a.312.312,0,0,1-.125.2l-.193.084-.136-.077a.235.235,0,0,1-.027-.188m1.853-.227.054-.052.155-.025.032.064-.012.02-.014.071-.045.246.021.032.01.039-.1.078-.1.013h-.026l0-.026v-.039l-.01.007-.03.019-.1.039-.1-.058a.424.424,0,0,1,.006-.175l.014-.078,0-.026.013-.071-.019-.039-.016-.013,0-.019.064-.059.164-.025.011.032-.055.3.036.1.018-.007.023-.026.03-.116.014-.123,0-.019-.014-.02-.02-.039m.537.013.012-.019.1-.071.055.032.01.045v.046l-.019.058-.035.045-.068.033-.033-.013-.028-.039-.015-.013-.022.019-.013.071-.021.117,0,.026.024.013.026.052-.016.038-.04.026-.116.007-.1-.013-.025-.058.036-.052.022-.02,0-.019a1.1,1.1,0,0,0,.044-.188l.007-.039-.014-.019-.018-.045.026-.046.069-.039.11-.025.025.013v.051l.013.026m-1.508-.065.1-.045.02-.013.014.02,0,.032-.027.052-.026.045-.022.02.007.012-.005.026-.056.11-.082.065-.11.02h-.026l-.017-.007-.024.032,0,.026.041.013.046-.006.1-.013.075.026.018.045.006.065-.056.11-.122.091-.129.025-.134-.038-.035-.052-.007-.058.016-.039.032-.026.011-.013,0-.02-.021-.077.028-.059.051-.038.012-.013-.013-.026-.022-.123.031-.071.055-.059.152-.058.068.013.052.006m1.709.026.013-.019.215-.162.019-.006h.035l.017.006,0,.026-.014.078,0,.019.016.007h.08l.016.006-.006.032-.006.033-.007.039-.019.006h-.079l-.019.007,0,.019-.035.188,0,.058.032.019.048-.019.01-.006.014.019,0,.032-.04.072-.153.064-.1-.051-.011-.13.047-.259,0-.019h-.053l-.007-.007,0-.026,0-.026m-1.536-.149.026-.045.078-.039.119-.026.022.026-.052.233.01.046.021-.02.12-.077.1.051.015.059-.007.09-.039.207,0,.033.012.032,0,.033-.143.058-.106-.052,0-.019.022-.026a.487.487,0,0,0,.045-.149l.012-.11-.045-.046-.039.02-.022.071-.019.1-.006.084.011.032,0,.033-.134.058c-.089,0-.138-.02-.13-.065l.013-.019.022-.026.042-.084.041-.221.03-.161,0-.026-.014-.02-.01-.039m-1.319-.032.026-.045.059-.033.09-.013.1.013.048.026.011.039-.015.033-.03.019-.034.039c0,.013-.014.077-.041.175l-.033.181-.02.058-.066.123-.083.065-.1.019-.093-.019-.063-.045-.033-.059,0-.084.044-.1.068-.032.056.032.013.071-.007.039,0,.013,0,.032.017.007.05-.033.033-.084.01-.051.025-.136a.494.494,0,0,0,.018-.149l0-.033-.006-.019-.025-.007-.014-.019,0-.026m3.78-.764h-4.117l-.249,1.353-.994,5.393h4.117l.994-5.393.249-1.353" transform="translate(-12.044 -8.576)"/><polyline class="cls-7" points="824.196 193.065 824.183 193.085 824.192 193.137 824.259 193.156 824.323 193.143 824.357 193.104 824.353 193.078 824.327 193.072 824.31 193.072 824.264 193.078 824.221 193.072 824.195 193.072 824.196 193.065"/><path class="cls-47" d="M835.576,200.832l-.09.013-.059.033-.026.045,0,.026.014.019.025.007.006.019,0,.033a.494.494,0,0,1-.018.149l-.025.136-.01.051-.033.084-.05.033-.017-.007,0-.032,0-.013.007-.039-.013-.071-.056-.032-.068.032-.044.1,0,.084.033.059.063.045.093.019.1-.019.083-.065.066-.123.02-.058.033-.181c.027-.1.039-.162.041-.175l.034-.039.03-.019.015-.033-.011-.039-.048-.026-.1-.013" transform="translate(-12.044 -8.576)"/><path class="cls-47" d="M835.862,201.247l.027-.052.029-.013.028.039.009.1-.01.1-.047.064-.036-.045v-.194m.116-.194-.2.084a.425.425,0,0,0-.112.22.235.235,0,0,0,.027.188l.136.077.193-.084a.312.312,0,0,0,.125-.2l0-.136-.052-.1-.114-.051" transform="translate(-12.044 -8.576)"/><path class="cls-47" d="M836.228,201.661l.012-.019v.006h.026l.043.007.046-.007h.017l.026.007,0,.026-.034.038-.064.013-.067-.019-.008-.052m.135-.447.019-.058.039-.019.03.032-.009.1-.02.059-.039.019-.029-.032.009-.1m.3-.194-.02.013-.1.045-.052-.006-.068-.013-.152.058-.055.059-.031.071.022.123.013.026-.012.013-.051.038-.028.059.021.077,0,.02-.011.013-.032.026-.016.039.007.058.035.052.134.038.129-.025.122-.091.056-.11-.006-.065-.018-.045-.075-.026-.1.013-.046.006-.041-.013,0-.026.024-.032.017.007h.026l.11-.02.082-.065.056-.11.005-.026-.007-.012.022-.02.026-.045.027-.052,0-.032-.014-.02" transform="translate(-12.044 -8.576)"/><path class="cls-47" d="M836.943,200.845l-.119.026-.078.039-.026.045.01.039.014.02,0,.026-.03.161-.041.221-.042.084-.022.026-.013.019c-.008.045.041.065.13.065l.134-.058,0-.033-.011-.032.006-.084.019-.1.022-.071.039-.02.045.046-.012.11a.487.487,0,0,1-.045.149l-.022.026,0,.019.106.052.143-.058,0-.033-.012-.032,0-.033.039-.207.007-.09-.015-.059-.1-.051-.12.077-.021.02-.01-.046.052-.233-.022-.026" transform="translate(-12.044 -8.576)"/><path class="cls-47" d="M837.727,201.053l-.155.025-.054.052.02.039.014.02,0,.019-.014.123-.03.116-.023.026-.018.007-.036-.1.055-.3-.011-.032-.164.025-.064.059,0,.019.016.013.019.039-.013.071,0,.026-.014.078a.424.424,0,0,0-.006.175l.1.058.1-.039.03-.019.01-.007v.039l0,.026h.026l.1-.013.1-.078-.01-.039-.021-.032.045-.246.014-.071.012-.02-.032-.064" transform="translate(-12.044 -8.576)"/><path class="cls-47" d="M838.169,201.053l-.1.071-.012.019-.013-.026v-.051l-.025-.013-.11.025-.069.039-.026.046.018.045.014.019-.007.039a1.1,1.1,0,0,1-.044.188l0,.019-.022.02-.036.052.025.058.1.013.116-.007.04-.026.016-.038-.026-.052-.024-.013,0-.026.021-.117.013-.071.022-.019.015.013.028.039.033.013.068-.033.035-.045.019-.058v-.046l-.01-.045-.055-.032" transform="translate(-12.044 -8.576)"/><polyline class="cls-47" points="826.494 192.34 826.459 192.34 826.44 192.347 826.225 192.509 826.212 192.528 826.207 192.554 826.211 192.58 826.219 192.586 826.263 192.586 826.272 192.586 826.277 192.606 826.229 192.865 826.241 192.994 826.337 193.046 826.491 192.981 826.53 192.91 826.528 192.878 826.513 192.858 826.503 192.865 826.456 192.884 826.424 192.865 826.426 192.806 826.46 192.619 826.464 192.599 826.483 192.593 826.562 192.593 826.581 192.586 826.588 192.548 826.594 192.515 826.6 192.483 826.584 192.476 826.504 192.476 826.488 192.47 826.491 192.45 826.506 192.373 826.511 192.347 826.494 192.34"/><path class="cls-8" d="M850.648,199.215a2.4,2.4,0,0,0-.563.07l-.217,4.15,1.8-3.943a2.537,2.537,0,0,1,.914.984,4.584,4.584,0,0,1,.372,2.966,6.121,6.121,0,0,1-1.464,3.01l-1.624-2.985,1.63,3a5.6,5.6,0,0,0,1.105-6,2.2,2.2,0,0,0-1.949-1.255" transform="translate(-12.044 -8.576)"/><path class="cls-8" d="M848.619,200.1c-.1.09-.208.188-.309.295.1-.1.205-.2.309-.295" transform="translate(-12.044 -8.576)"/><path class="cls-9" d="M849.862,203.467l-.6,4.254a3.689,3.689,0,0,0,2.228-1.256l-1.63-3" transform="translate(-12.044 -8.576)"/><path class="cls-7" d="M846.843,203.118a4.731,4.731,0,0,0,.25,3.392,2.186,2.186,0,0,0,1.958,1.22q.106,0,.213-.009l.6-4.254-3.178,1.14a6.186,6.186,0,0,1,.084-1.115c.021-.125.046-.25.075-.374" transform="translate(-12.044 -8.576)"/><path class="cls-6" d="M848.241,200.47a6.8,6.8,0,0,0-.508.647l-.049.078a5.736,5.736,0,0,0-.693,1.411c-.035.091-.059.175-.083.259s-.04.169-.065.253c-.029.124-.054.249-.075.374a6.186,6.186,0,0,0-.084,1.115l3.178-1.14-1.621-3" transform="translate(-12.044 -8.576)"/><path class="cls-5" d="M850.078,199.279l0,.006a2.81,2.81,0,0,0-.366.117l-.221.1-.167.09a3.687,3.687,0,0,0-.321.208,1.562,1.562,0,0,0-.236.181l-.146.123c-.1.095-.208.19-.309.295l-.069.074,1.621,3-.006-.013.012-.019.217-4.15-.007-.006" transform="translate(-12.044 -8.576)"/><path class="cls-10" d="M851.664,199.492l-1.8,3.943-.012.019.006.013,1.624,2.985a6.121,6.121,0,0,0,1.464-3.01,4.584,4.584,0,0,0-.372-2.966,2.537,2.537,0,0,0-.914-.984" transform="translate(-12.044 -8.576)"/><polyline class="cls-3" points="852.492 178.207 852.459 178.292 852.492 178.207"/><path class="cls-3" d="M860.892,185.994c-.31,1.347.242,2.713,1.284,2.81.037,0,.073,0,.11,0a2.364,2.364,0,0,0,1.746-1.112l-1.219-1.534-.025-.006-1.9-.162" transform="translate(-12.044 -8.576)"/><polyline class="cls-3" points="852.63 177.748 852.612 177.8 852.63 177.748"/><polyline class="cls-3" points="852.29 178.635 852.219 178.777 852.29 178.635"/><path class="cls-4" d="M861.767,184.265a3.514,3.514,0,0,0-.875,1.729l1.9.162-1.021-1.891" transform="translate(-12.044 -8.576)"/><path class="cls-5" d="M863.282,183.457a2.168,2.168,0,0,0-1.515.808l1.021,1.891.012-.02-.007-.006h.009l1.438-2.195a2.189,2.189,0,0,1,.539,1.58c.032-1.178-.518-1.981-1.38-2.052a1.146,1.146,0,0,0-.117-.006" transform="translate(-12.044 -8.576)"/><path class="cls-5" d="M864.716,186.114c-.011.059-.023.118-.036.178.013-.06.025-.119.036-.178" transform="translate(-12.044 -8.576)"/><polyline class="cls-6" points="850.756 177.56 850.744 177.579 850.769 177.586 850.756 177.56"/><path class="cls-6" d="M864.24,183.935,862.8,186.13l1.878.162c.013-.06.025-.119.036-.178a3.112,3.112,0,0,0,.054-.5l.009-.1a2.189,2.189,0,0,0-.539-1.58" transform="translate(-12.044 -8.576)"/><path class="cls-7" d="M862.8,186.13h-.009l.007.006.013.026,1.219,1.535c.06-.085.121-.175.172-.259l.06-.085.07-.142a2.542,2.542,0,0,0,.169-.343l.033-.084c.041-.123.083-.259.12-.408l.018-.052,0-.013,0-.019-1.878-.162" transform="translate(-12.044 -8.576)"/><polyline class="cls-8" points="848.424 196.976 848.402 197.002 848.424 196.976"/><polyline class="cls-8" points="849.058 196.173 849.007 196.257 849.058 196.173"/><polyline class="cls-8" points="848.765 196.613 848.73 196.659 848.765 196.613"/><path class="cls-8" d="M857.96,202.671c-.591,1.437-.292,2.881.642,3.328a1.33,1.33,0,0,0,.573.127,1.954,1.954,0,0,0,1.271-.548l-.791-2.085L859.4,206.1a1.437,1.437,0,0,1-.216.016,1.369,1.369,0,0,1-.293-.031,1.346,1.346,0,0,1-.283-.095,2.216,2.216,0,0,1-.887-2.519,4.106,4.106,0,0,1,.243-.8l-.008,0" transform="translate(-12.044 -8.576)"/><path class="cls-9" d="M859.082,201.189a3.506,3.506,0,0,0-1.122,1.482l.008,0v0l1.681.8-.568-2.285" transform="translate(-12.044 -8.576)"/><path class="cls-7" d="M860.169,200.793a1.9,1.9,0,0,0-1.087.4l.568,2.285,1.745-1.8a2.524,2.524,0,0,1,.245,1.114,1.949,1.949,0,0,0-.927-1.871,1.217,1.217,0,0,0-.544-.124" transform="translate(-12.044 -8.576)"/><path class="cls-7" d="M861.537,203.636a3.721,3.721,0,0,1-.2.647,3.721,3.721,0,0,0,.2-.647" transform="translate(-12.044 -8.576)"/><path class="cls-6" d="M861.4,201.674l-1.745,1.8,1.688.809a3.721,3.721,0,0,0,.2-.647,2.549,2.549,0,0,0,.056-.253c.016-.136.031-.265.037-.4a1.489,1.489,0,0,0,.01-.2,2.524,2.524,0,0,0-.245-1.114" transform="translate(-12.044 -8.576)"/><path class="cls-5" d="M859.65,203.474l.008.006,0,.013.791,2.085v0l.023-.026a3.847,3.847,0,0,0,.3-.317l.035-.045c.082-.111.167-.234.243-.357l.05-.084a4.327,4.327,0,0,0,.236-.466l-1.688-.809" transform="translate(-12.044 -8.576)"/><path class="cls-10" d="M857.969,202.671v0a4.106,4.106,0,0,0-.243.8,2.216,2.216,0,0,0,.887,2.519,1.346,1.346,0,0,0,.283.095,1.369,1.369,0,0,0,.293.031,1.437,1.437,0,0,0,.216-.016l.251-2.609,0-.013-.008-.006-1.681-.8" transform="translate(-12.044 -8.576)"/><path class="cls-3" d="M871.191,184.091a1.527,1.527,0,0,0-1.054.492,2.942,2.942,0,0,0-.794,2.389,2.026,2.026,0,0,1,0-.544l1.437-.272.044-.046,1.36-1.34a1.082,1.082,0,0,0-1-.679" transform="translate(-12.044 -8.576)"/><path class="cls-3" d="M869.38,187.181a1.736,1.736,0,0,0,.087.27l.01-.007a1.61,1.61,0,0,1-.1-.263" transform="translate(-12.044 -8.576)"/><path class="cls-4" d="M872.187,184.77l-1.36,1.34,1.49.02a1.832,1.832,0,0,0-.13-1.36" transform="translate(-12.044 -8.576)"/><path class="cls-5" d="M870.827,186.11l0,.033h.009l-.011.013-.067,1.942-.185.045a1.507,1.507,0,0,0,.961-.466,2.963,2.963,0,0,0,.78-1.547l-1.49-.02" transform="translate(-12.044 -8.576)"/><polyline class="cls-6" points="858.783 177.534 858.739 177.579 858.786 177.567 858.783 177.534"/><path class="cls-6" d="M870.828,186.156l-1.339,1.32c.247.539.51.7.82.7a1.27,1.27,0,0,0,.267-.032l.185-.045.067-1.942" transform="translate(-12.044 -8.576)"/><polyline class="cls-6" points="857.433 178.868 857.423 178.874 857.437 178.894 857.433 178.868"/><path class="cls-7" d="M870.839,186.143h-.009l-.047.013-1.437.272a2.026,2.026,0,0,0,0,.544l0,.019a1.64,1.64,0,0,0,.137.453l0,.026.007.013v-.007l1.339-1.32.011-.013" transform="translate(-12.044 -8.576)"/><path class="cls-8" d="M866.511,202.632a2.84,2.84,0,0,0-.211.518,2.979,2.979,0,0,1,.211-.518" transform="translate(-12.044 -8.576)"/><path class="cls-8" d="M868.062,201.434a1.631,1.631,0,0,0-1.181.629l.812,1.391-.04-1.942a1.36,1.36,0,0,1,.359-.068h.051a1.009,1.009,0,0,1,.226.024c.7.158,1.071.992.88,1.995a3.232,3.232,0,0,1-.078.316h.009c.342-1.139-.029-2.143-.8-2.318a1.11,1.11,0,0,0-.237-.026" transform="translate(-12.044 -8.576)"/><path class="cls-9" d="M867.7,203.467l.655,1.574a2.939,2.939,0,0,0,.745-1.263h-.009l-.611-.136-.78-.175" transform="translate(-12.044 -8.576)"/><path class="cls-7" d="M866.3,203.15c-.025.088-.045.173-.061.257.016-.084.036-.17.061-.257" transform="translate(-12.044 -8.576)"/><path class="cls-7" d="M867.7,203.467l-1.213,1.593a1.882,1.882,0,0,1-.3-.77,1.29,1.29,0,0,0,.907,1.21.949.949,0,0,0,.219.025,1.585,1.585,0,0,0,1.041-.484l-.655-1.574" transform="translate(-12.044 -8.576)"/><path class="cls-7" d="M866.18,203.849v0" transform="translate(-12.044 -8.576)"/><path class="cls-6" d="M866.3,203.15c-.025.087-.045.173-.061.257s-.03.167-.041.248a1.428,1.428,0,0,0-.018.194v.292l.008.149a1.882,1.882,0,0,0,.3.77l1.213-1.593h-.009v0l-1.391-.315" transform="translate(-12.044 -8.576)"/><path class="cls-5" d="M866.881,202.063a2.647,2.647,0,0,0-.29.42l-.08.149a2.979,2.979,0,0,0-.211.518l1.391.315,0-.011-.812-1.391" transform="translate(-12.044 -8.576)"/><path class="cls-10" d="M868.063,201.443h-.051a1.36,1.36,0,0,0-.359.068l.04,1.942,0,.013h.009l.78.175.611.136a3.232,3.232,0,0,0,.078-.316c.191-1-.181-1.837-.88-1.995a1.009,1.009,0,0,0-.226-.024" transform="translate(-12.044 -8.576)"/></g></g><path class="cls-63" d="M774.5,209.262h90.194a0,0,0,0,1,0,0v0a2.637,2.637,0,0,1-2.637,2.637h-84.92a2.637,2.637,0,0,1-2.637-2.637v0A0,0,0,0,1,774.5,209.262Z"/><rect class="cls-18" x="746.607" y="129.279" width="15" height="34.875" rx="7.5" ry="7.5" transform="translate(1496.169 284.856) rotate(180)"/><path class="cls-18" d="M746.607,90.9v50.25h27a12.035,12.035,0,0,0,12-12V90.9Z" transform="translate(-12.044 -8.576)"/><path class="cls-20" d="M746.607,125.9a2.9,2.9,0,0,0,2.024.688h3.924a6.743,6.743,0,0,0,6.406-6.434V104.187c0-1.675,1.6-2.6,3.273-2.6h1.123v5.566a6.212,6.212,0,0,0,6-6v.033a6.669,6.669,0,0,1,6.626-6.6h9.624v-4h-39Z" transform="translate(-12.044 -8.576)"/><path class="cls-21" d="M777.794,107.935a1.532,1.532,0,1,0,1.531-1.531A1.531,1.531,0,0,0,777.794,107.935Z" transform="translate(-12.044 -8.576)"/><path class="cls-18" d="M785.568,107.216l4.776,8.239a3,3,0,0,1-2.6,4.511h-2.362S785.106,107.678,785.568,107.216Z" transform="translate(-12.044 -8.576)"/><path class="cls-22" d="M781.576,129.244v.438a2.25,2.25,0,0,1-2.25,2.25H776.2a2.25,2.25,0,0,1-2.25-2.25v-.438" transform="translate(-12.044 -8.576)"/><line class="cls-66" x1="805.782" y1="324.012" x2="804.282" y2="343.012"/><path class="cls-44" d="M744.538,153.867l27.975,9.787v-3.127A12.811,12.811,0,0,0,759.7,147.716H744.538Z" transform="translate(-12.044 -8.576)"/><path class="cls-67" d="M758.326,260.588s60,5,63,8-4,70-4,70" transform="translate(-12.044 -8.576)"/><circle class="cls-68" cx="746.597" cy="243.2" r="18.123"/><path class="cls-58" d="M826.794,339.654l10.837,9.464a8.616,8.616,0,0,0,1.766,1.193l2.962,1.5a12.606,12.606,0,0,0,5.708,1.367h4.392a5.773,5.773,0,0,1,5.773,5.772v.745h-31.4l-2.306-1.251a7.666,7.666,0,0,0-7.91.359l-1.337.892h-9.184v-4.74l0-13.419,3.646-.031a11.7,11.7,0,0,0,14.456.142Z" transform="translate(-12.044 -8.576)"/><path class="cls-68" d="M748.663,152.822h0a8.65,8.65,0,0,0-8.65,8.65v92.389H785v-64.7A36.338,36.338,0,0,0,748.663,152.822Z" transform="translate(-12.044 -8.576)"/><path class="cls-69" d="M790.435,71.216h0v1.063a4.875,4.875,0,0,1-4.875,4.875H758.888a7.5,7.5,0,0,0-7.5,7.5h-1.5a7.5,7.5,0,0,0-7.5,7.5h0v25.569a5.931,5.931,0,0,0,5.931,5.931h4.569a6,6,0,0,0,6-6h0V105.687a3.033,3.033,0,0,1,3.034-3.033h1.466v6h0a6,6,0,0,0,6-6h0V98.687a6.533,6.533,0,0,1,6.533-6.533h14.451A10.454,10.454,0,0,0,800.825,81.7v-.031a10.454,10.454,0,0,0-10.39-10.453Z" transform="translate(-12.044 -8.576)"/><path class="cls-18" d="M820.511,209.181c-.186,4.343,5.057,7.248,11.335,7.515s10.025.39,9.811-3.953c-.156-3.16-2.316-6.879-8.593-7.147S820.7,204.837,820.511,209.181Z" transform="translate(-12.044 -8.576)"/><ellipse class="cls-18" cx="826.499" cy="210.959" rx="6.981" ry="5.1" transform="translate(-24.263 46.959) rotate(-3.82)"/><line class="cls-41" x1="802.456" y1="200.668" x2="810.851" y2="201.107"/><path class="cls-70" d="M784.932,216.809a36.056,36.056,0,0,1-12.142-7.888c-10.6-11.2-22.392-30.149-23-30.833l11-10.154c.146.165,11.548,19.284,24,27.821C784.978,195.881,784.932,216.809,784.932,216.809Z" transform="translate(-12.044 -8.576)"/><path class="cls-67" d="M754.04,169.887s14.669,16.634,25.285,27.847c9.469,10,36.977,11.788,36.977,11.788" transform="translate(-12.044 -8.576)"/><path class="cls-71" d="M829.459,171.838h33.835l-36.795,46h-9.705l10-43.335A2.665,2.665,0,0,1,829.459,171.838Z" transform="translate(-12.044 -8.576)"/><rect class="cls-72" x="974.448" y="0.141" width="322.605" height="181.603"/><path class="cls-39" d="M632.916,140.353h0a17.406,17.406,0,0,0-13.21,16.765l-.04,5.551A36.651,36.651,0,0,1,627.9,176.2c6.555,19.387,5.161,72.389,5.161,72.389H568.338l-.419-78.945c2.511-12.274,13.3-20.792,16.658-23.517a28.934,28.934,0,0,0,10.54-22.511h0" transform="translate(-12.044 -8.576)"/><circle class="cls-39" cx="602.94" cy="116.187" r="20.425"/><path class="cls-73" d="M598.6,126.335a8.3,8.3,0,0,0,8.3,8.3c4.584,0,4.3-3.715,4.3-8.3s.285-8.3-4.3-8.3A8.3,8.3,0,0,0,598.6,126.335Z" transform="translate(-12.044 -8.576)"/><path class="cls-73" d="M633.893,116.463c0,4.121-4.178,17.188-5.911,17.188s-.813-15-.813-19.125,1.852-7.648,3.585-7.648S633.893,112.342,633.893,116.463Z" transform="translate(-12.044 -8.576)"/><path class="cls-73" d="M633.614,116.362h5.579a3.347,3.347,0,0,1,3.347,3.348h0a7.811,7.811,0,0,1,7.811,7.811v1.115h0a2.116,2.116,0,0,1,2.116,2.116v2.478a7.681,7.681,0,0,1-7.681,7.681H632.123a5.2,5.2,0,0,1-5.2-5.205v-5.584a16.639,16.639,0,0,1,4.413-11.288Z" transform="translate(-12.044 -8.576)"/><path class="cls-39" d="M641.7,157.788l2.989,5.912a8.066,8.066,0,0,1-.784,7.3l-13.084,19.983.976,31.661.837,8.927,25.561-58.29a20.466,20.466,0,0,0-4.081-20.237l-.976-1.116Z" transform="translate(-12.044 -8.576)"/><ellipse class="cls-73" cx="624.22" cy="136.658" rx="11.158" ry="4.742"/><ellipse class="cls-73" cx="646.804" cy="153.03" rx="6.885" ry="11.171" transform="translate(-18.822 265.301) rotate(-23.787)"/><ellipse class="cls-73" cx="630.336" cy="150.953" rx="4.533" ry="7.392" transform="translate(-23.423 233.547) rotate(-21.554)"/><circle class="cls-58" cx="602.083" cy="229.679" r="31.5"/><circle class="cls-73" cx="583.833" cy="236.929" r="25.25"/><path class="cls-58" d="M629.849,115.013a1.188,1.188,0,1,0,1.188-1.188A1.188,1.188,0,0,0,629.849,115.013Z" transform="translate(-12.044 -8.576)"/><path class="cls-39" d="M601.794,217.713l32.833-25.125H650.5a12.533,12.533,0,0,1,12.205,15.381l-12.744,54.619-14.667.25-2.921-14.93c-2.02-10.323-3.394-21.239-.182-31.255l.77-2.4-15.292,15.958Z" transform="translate(-12.044 -8.576)"/><path class="cls-58" d="M653.544,250.237l10.837,9.464a8.616,8.616,0,0,0,1.766,1.193l2.962,1.5a12.593,12.593,0,0,0,5.708,1.367h4.392a5.773,5.773,0,0,1,5.773,5.773v.744h-31.4l-2.306-1.251a7.669,7.669,0,0,0-7.91.359l-1.337.892h-9.184v-4.74l0-13.419,3.646-.031a11.7,11.7,0,0,0,14.456.143Z" transform="translate(-12.044 -8.576)"/><path class="cls-60" d="M585.544,143.7l4.909-7.234,29.965,16.249a7.132,7.132,0,0,1,2.617,10.1l-1.32,2.073Z" transform="translate(-12.044 -8.576)"/><polygon class="cls-58" points="599.125 199.637 595.25 176.887 594.375 200.012 599.125 199.637"/><path class="cls-2" d="M594.974,244.845l-1-1.822c-.911-1.913-2.114-2.653-4.557-2.653H565.455a4.454,4.454,0,0,0-4.442,4.441v.817h28.4l2.318,5.3,2.425-1.021C594.994,249.483,596.269,247.283,594.974,244.845Z" transform="translate(-12.044 -8.576)"/><rect class="cls-38" x="571.695" y="235.158" width="7.252" height="28.193" transform="translate(812.532 -334.643) rotate(90)"/><polygon class="cls-38" points="591.012 275.096 582.685 275.096 571.079 240.678 577.36 237.052 591.012 275.096"/><rect class="cls-37" x="554.287" y="195.153" width="52.185" height="55.192" rx="4.441" ry="4.441"/><rect class="cls-2" x="554.287" y="195.153" width="46.633" height="55.192" rx="4.441" ry="4.441"/><rect class="cls-37" x="554.521" y="261.217" width="93.865" height="13.879" rx="4.441" ry="4.441"/><rect class="cls-2" x="554.521" y="261.217" width="49.708" height="13.879" rx="4.441" ry="4.441"/><rect class="cls-36" x="592.016" y="275.096" width="6.662" height="14.989"/><rect class="cls-37" x="588.997" y="290.085" width="12.7" height="41.422"/><rect class="cls-38" x="588.997" y="327.096" width="12.7" height="4.411"/><polygon class="cls-38" points="594.236 334.498 557.596 338.384 557.596 333.173 594.236 329.287 594.236 334.498"/><rect class="cls-38" x="557.596" y="333.173" width="5.241" height="10.763"/><circle class="cls-36" cx="560.017" cy="346.512" r="5.196"/><polygon class="cls-38" points="594.236 334.498 630.877 338.384 630.877 333.173 594.236 329.287 594.236 334.498"/><rect class="cls-38" x="637.68" y="341.749" width="5.241" height="10.763" transform="translate(1268.557 685.685) rotate(-180)"/><circle class="cls-36" cx="628.456" cy="346.512" r="5.196"/><polygon class="cls-38" points="595.347 334.113 613.39 338.384 613.39 333.173 595.347 328.902 595.347 334.113"/><rect class="cls-38" x="620.192" y="341.749" width="5.241" height="10.763" transform="translate(1233.582 685.685) rotate(-180)"/><circle class="cls-36" cx="610.969" cy="346.512" r="5.196"/><polygon class="cls-38" points="595.347 334.113 577.304 338.384 577.304 333.173 595.347 328.902 595.347 334.113"/><rect class="cls-38" x="577.304" y="333.173" width="5.241" height="10.763"/><circle class="cls-36" cx="579.725" cy="346.512" r="5.196"/><path class="cls-2" d="M634.76,244.845l-1-1.822c-.912-1.913-2.115-2.653-4.557-2.653H605.241a4.453,4.453,0,0,0-4.441,4.441v.817h28.405l2.317,5.3,2.425-1.021C634.78,249.483,636.056,247.283,634.76,244.845Z" transform="translate(-12.044 -8.576)"/><rect class="cls-38" x="592.678" y="216.353" width="7.252" height="65.802" transform="translate(833.514 -355.625) rotate(90)"/><polygon class="cls-38" points="630.799 275.096 622.471 275.096 610.865 240.678 617.146 237.052 630.799 275.096"/><rect class="cls-70" x="729" y="244.179" width="43.893" height="5.5"/><path class="cls-2" d="M751.885,244.845l-1-1.822c-.911-1.913-2.114-2.653-4.556-2.653H722.366a4.453,4.453,0,0,0-4.441,4.441v.817h28.4l2.318,5.3,2.425-1.021C751.905,249.483,753.18,247.283,751.885,244.845Z" transform="translate(-12.044 -8.576)"/><rect class="cls-38" x="728.607" y="235.158" width="7.252" height="28.193" transform="translate(969.443 -491.555) rotate(90)"/><polygon class="cls-38" points="747.924 275.096 739.596 275.096 727.99 240.678 734.271 237.052 747.924 275.096"/><rect class="cls-37" x="711.198" y="195.153" width="52.185" height="55.192" rx="4.441" ry="4.441"/><rect class="cls-2" x="711.198" y="195.153" width="46.633" height="55.192" rx="4.441" ry="4.441"/><rect class="cls-37" x="711.432" y="261.217" width="93.865" height="13.879" rx="4.441" ry="4.441"/><rect class="cls-2" x="711.432" y="261.217" width="49.708" height="13.879" rx="4.441" ry="4.441"/><rect class="cls-36" x="748.927" y="275.096" width="6.662" height="14.989"/><rect class="cls-37" x="745.908" y="290.085" width="12.7" height="41.422"/><rect class="cls-38" x="745.908" y="327.096" width="12.7" height="4.411"/><polygon class="cls-38" points="751.148 334.498 714.507 338.384 714.507 333.173 751.148 329.287 751.148 334.498"/><rect class="cls-38" x="714.507" y="333.173" width="5.241" height="10.763"/><circle class="cls-36" cx="716.928" cy="346.512" r="5.196"/><polygon class="cls-38" points="751.148 334.498 787.788 338.384 787.788 333.173 751.148 329.287 751.148 334.498"/><rect class="cls-38" x="794.591" y="341.749" width="5.241" height="10.763" transform="translate(1582.38 685.685) rotate(-180)"/><circle class="cls-36" cx="785.368" cy="346.512" r="5.196"/><polygon class="cls-38" points="752.258 334.113 770.301 338.384 770.301 333.173 752.258 328.902 752.258 334.113"/><rect class="cls-38" x="777.104" y="341.749" width="5.241" height="10.763" transform="translate(1547.404 685.685) rotate(-180)"/><circle class="cls-36" cx="767.88" cy="346.512" r="5.196"/><polygon class="cls-38" points="752.258 334.113 734.215 338.384 734.215 333.173 752.258 328.902 752.258 334.113"/><rect class="cls-38" x="734.215" y="333.173" width="5.241" height="10.763"/><circle class="cls-36" cx="736.636" cy="346.512" r="5.196"/><path class="cls-2" d="M791.671,244.845l-1-1.822c-.912-1.913-2.114-2.653-4.557-2.653H762.152a4.454,4.454,0,0,0-4.441,4.441v.817h28.4l2.318,5.3,2.425-1.021C791.691,249.483,792.967,247.283,791.671,244.845Z" transform="translate(-12.044 -8.576)"/><rect class="cls-38" x="749.589" y="216.353" width="7.252" height="65.802" transform="translate(990.425 -512.537) rotate(90)"/><polygon class="cls-38" points="787.71 275.096 779.383 275.096 767.777 240.678 774.057 237.052 787.71 275.096"/><path class="cls-54" d="M1226.2,214.463h33.269a17.979,17.979,0,0,0,1.359-5.1H1224.84A17.979,17.979,0,0,0,1226.2,214.463Z" transform="translate(-12.044 -8.576)"/></svg>