<svg xmlns="http://www.w3.org/2000/svg" xmlns:xlink="http://www.w3.org/1999/xlink" viewBox="0 0 775.329 402.251"><defs><style>.cls-1,.cls-10,.cls-15,.cls-17,.cls-3,.cls-31,.cls-4,.cls-6,.cls-8,.cls-9{fill:none;}.cls-2{isolation:isolate;}.cls-3,.cls-6,.cls-8,.cls-9{stroke:#797979;}.cls-10,.cls-15,.cls-17,.cls-3,.cls-31,.cls-4,.cls-6,.cls-8,.cls-9{stroke-miterlimit:10;}.cls-3{stroke-width:2.263px;}.cls-4{stroke:#fff;}.cls-10,.cls-17,.cls-4,.cls-6{stroke-width:1.132px;}.cls-5{fill:#e3e3e3;}.cls-7{fill:#797979;}.cls-8{stroke-width:1.053px;}.cls-10{stroke:#e3e3e3;}.cls-11{fill:#e5e3e4;}.cls-12{fill:#31353b;}.cls-13{fill:#616469;}.cls-14{fill:#8e8d89;}.cls-15,.cls-17{stroke:#8e8d89;}.cls-16{fill:#9496a8;}.cls-18{fill:#c3e5e8;}.cls-19{clip-path:url(#clip-path);}.cls-20{fill:#fff;}.cls-21,.cls-49{fill:#bebebe;}.cls-22{fill:#b5b4af;}.cls-23{fill:#636365;}.cls-24{fill:#e7645c;}.cls-25{fill:#302f2c;}.cls-26{fill:#7b7f81;}.cls-27{fill:#373737;}.cls-28{fill:#a394b6;}.cls-29{fill:#726c5b;}.cls-30{fill:#858583;}.cls-31{stroke:#7b7f81;stroke-width:0.667px;}.cls-32{fill:#34485f;}.cls-33{fill:#9f634f;}.cls-34{fill:#c5cad0;}.cls-35{fill:#345165;}.cls-36{fill:#667173;}.cls-37{fill:#9ea3a6;}.cls-38{fill:#4f5662;}.cls-39{fill:#445667;}.cls-40{fill:#666e7c;}.cls-41{fill:#a7a7a7;}.cls-42{fill:#44546d;}.cls-43{fill:#878e98;}.cls-44{fill:#caa13f;}.cls-45{fill:#354256;}.cls-46{fill:#988064;}.cls-47{fill:#f3f3f3;opacity:0.15;mix-blend-mode:screen;}.cls-48{fill:#5d5263;}.cls-49{mix-blend-mode:multiply;}.cls-50{fill:#c5eae7;}.cls-51{fill:#d8bcb2;}.cls-52{fill:#ac958d;}.cls-53{fill:#e2f2f0;}</style><clipPath id="clip-path" transform="translate(-3.304 -3.689)"><rect class="cls-1" x="356.705" y="202.607" width="104.4" height="20.549"/></clipPath></defs><title>6_illu_m</title><g class="cls-2"><g id="Layer_1" data-name="Layer 1"><path class="cls-3" d="M556.9,217.551H544.67a24.331,24.331,0,0,0-24.331,24.331h0a24.331,24.331,0,0,0,24.331,24.332h81.483a24.331,24.331,0,0,1,24.331,24.331v44.137a24.331,24.331,0,0,0,24.332,24.331h84.389a10.752,10.752,0,0,0,10.75-10.911h0a10.751,10.751,0,0,0-10.75-10.591H646.9a24.328,24.328,0,0,1-17.227-7.149l-50.694-50.825a24.332,24.332,0,0,0-34.414-.041l-32.5,32.429c-15.335,15.3-41.518,4.441-41.518-17.223V273.57a24.332,24.332,0,0,0-24.332-24.332H369.6c-21.7,0-32.545,26.254-17.173,41.569l24.953,24.86a24.329,24.329,0,0,1,7.159,17.237v30.07A24.332,24.332,0,0,1,360.2,387.306h-76.38a24.331,24.331,0,0,1-24.331-24.332V329.482a24.332,24.332,0,0,0-7.127-17.205L213.428,273.34a24.331,24.331,0,0,1-7.126-17.2V197.18" transform="translate(-3.304 -3.689)"/><path class="cls-3" d="M212.355,196.575v30.234a22.635,22.635,0,0,0,6.63,16l58.038,58.038a22.635,22.635,0,0,0,16,6.63h47.638a22.636,22.636,0,0,1,15.97,6.594l84.5,84.137a22.632,22.632,0,0,0,15.97,6.595H732.161c20.165,0,30.264-24.38,16.005-38.639L696.43,314.433c-14.259-14.259-4.16-38.639,16-38.639h38.692a22.634,22.634,0,0,0,22.635-22.634V233.921a22.635,22.635,0,0,0-22.634-22.634h0" transform="translate(-3.304 -3.689)"/><path class="cls-3" d="M316.106,209.629h0a24.9,24.9,0,0,0-24.9,24.9v21.411a24.9,24.9,0,0,0,7.249,17.561l81.319,81.814a24.9,24.9,0,0,0,17.649,7.335l159.393,1a24.9,24.9,0,0,0,17.62-7.307l40.576-40.676a24.9,24.9,0,0,1,35.212-.028l66.758,66.654a24.9,24.9,0,0,0,17.591,7.279H752.6a24.9,24.9,0,0,0,24.9-24.9v-53.19a24.9,24.9,0,0,0-24.9-24.9H215.96a24.9,24.9,0,0,1-24.9-24.9V197.18" transform="translate(-3.304 -3.689)"/><path class="cls-4" d="M640.9,102.828s23.577-35.416,89.121-33.153" transform="translate(-3.304 -3.689)"/><path class="cls-5" d="M302.994,145.582H503.682a0,0,0,0,1,0,0V215.7a17.774,17.774,0,0,1-17.774,17.774H320.768A17.774,17.774,0,0,1,302.994,215.7V145.582A0,0,0,0,1,302.994,145.582Z"/><path class="cls-6" d="M337.042,236.789V171.377a6.169,6.169,0,0,1,6.168-6.168H472.62a6.169,6.169,0,0,1,6.168,6.168v65.412" transform="translate(-3.304 -3.689)"/><path class="cls-7" d="M337.042,236.789V171.377a6.169,6.169,0,0,1,6.168-6.168H472.62a6.169,6.169,0,0,1,6.168,6.168v65.412Z" transform="translate(-3.304 -3.689)"/><path class="cls-8" d="M478.505,175.112a7.545,7.545,0,1,1,0,15.089" transform="translate(-3.304 -3.689)"/><circle class="cls-8" cx="322.421" cy="174.063" r="4.15"/><circle class="cls-8" cx="322.421" cy="161.52" r="2.924"/><circle class="cls-8" cx="322.421" cy="153.127" r="1.132"/><line class="cls-9" x1="340.314" y1="143.546" x2="340.314" y2="161.546"/><line class="cls-9" x1="470.314" y1="143.546" x2="470.314" y2="161.546"/><rect class="cls-7" x="302.994" y="140.678" width="200.688" height="4.904"/><rect class="cls-7" x="340.528" y="133.322" width="130.146" height="8.218"/><rect class="cls-5" x="333.738" y="212.273" width="141.746" height="20.827"/><path class="cls-10" d="M198.23,195.105" transform="translate(-3.304 -3.689)"/><path class="cls-11" d="M750.679,110.982v-2.868A11.278,11.278,0,0,0,739.4,96.836H647.776a4.61,4.61,0,0,1-4.609-4.609V84.1a8.761,8.761,0,0,0-8.761-8.762H567.252A12.833,12.833,0,0,0,554.42,88.115l-.091,23.433h55.453v-.063a4.465,4.465,0,0,1,4.464-4.464h78.5a4.464,4.464,0,0,1,4.464,4.464v.063h53.473Z" transform="translate(-3.304 -3.689)"/><rect class="cls-12" x="600.442" y="102.2" width="99.778" height="9.242"/><path class="cls-13" d="M750.679,112.821v-2.868A11.278,11.278,0,0,0,739.4,98.675H647.776a4.61,4.61,0,0,1-4.609-4.609V85.934a8.761,8.761,0,0,0-8.761-8.762H567.252A12.833,12.833,0,0,0,554.42,89.954l-.091,23.433h55.453v-.063a4.465,4.465,0,0,1,4.464-4.464h78.5a4.464,4.464,0,0,1,4.464,4.464v.063h53.473Z" transform="translate(-3.304 -3.689)"/><path class="cls-5" d="M551.308,113.517H747.941a0,0,0,0,1,0,0V227.366a6.111,6.111,0,0,1-6.111,6.111H557.419a6.111,6.111,0,0,1-6.111-6.111V113.517A0,0,0,0,1,551.308,113.517Z"/><rect class="cls-14" x="588.088" y="121.439" width="138.633" height="31.31"/><line class="cls-15" x1="550.814" y1="122.046" x2="587.814" y2="122.046"/><line class="cls-15" x1="725.814" y1="122.046" x2="747.814" y2="122.046"/><line class="cls-15" x1="588.314" y1="152.546" x2="588.314" y2="233.546"/><line class="cls-15" x1="726.314" y1="152.546" x2="726.314" y2="233.546"/><line class="cls-15" x1="587.814" y1="199.046" x2="725.814" y2="199.046"/><rect class="cls-16" x="605.912" y="206.128" width="14.523" height="21.88" rx="2.858" ry="2.858"/><circle class="cls-17" cx="574.225" cy="215.936" r="3.772"/><rect class="cls-14" x="551.308" y="109.368" width="196.633" height="4.15"/><path class="cls-17" d="M642.036,156.816v12.11a3.167,3.167,0,0,0,3.167,3.168h29.88a3.167,3.167,0,0,0,3.167-3.168v-12.11" transform="translate(-3.304 -3.689)"/><line class="cls-15" x1="637.814" y1="158.046" x2="673.814" y2="158.046"/><rect class="cls-14" x="558.381" y="107.859" width="3.867" height="1.509"/><rect class="cls-14" x="567.435" y="107.859" width="3.867" height="1.509"/><rect class="cls-14" x="576.488" y="107.859" width="3.867" height="1.509"/><rect class="cls-14" x="585.73" y="107.859" width="3.867" height="1.509"/><rect class="cls-14" x="595.067" y="107.859" width="3.867" height="1.509"/><rect class="cls-14" x="609.26" y="107.859" width="3.867" height="1.509"/><rect class="cls-14" x="660.352" y="107.859" width="3.867" height="1.509"/><rect class="cls-14" x="662.969" y="108.69" width="13.189" height="0.596"/><rect class="cls-14" x="675.771" y="107.859" width="3.867" height="1.509"/><rect class="cls-14" x="689.352" y="107.859" width="3.867" height="1.509"/><rect class="cls-14" x="696.92" y="107.859" width="4.857" height="1.509"/><rect class="cls-14" x="705.408" y="107.859" width="4.857" height="1.509"/><rect class="cls-14" x="713.966" y="107.859" width="4.857" height="1.509"/><rect class="cls-14" x="721.865" y="107.859" width="4.857" height="1.509"/><rect class="cls-18" x="731.272" y="107.859" width="10.94" height="1.509"/><rect class="cls-14" x="633.922" y="108.69" width="12.237" height="1.008"/><g class="cls-2"><g class="cls-19"><path class="cls-20" d="M367.487,220.228V217.2h40.554v3.024H367.487m43.677,0V217.2h40.554v3.024H411.164m0-6.6v0h40.554v3.024H426.6v0H367.487v-3.024h43.677m-43.677-.585v-3.024h40.554v3.024H367.487m43.677,0v-3.023h40.554v3.023H411.164m-43.677-3.906v-3.024h40.554v3.024H367.487m-.18-3.589v-.669h33.471v.669H367.307m66.717.747v-1.619h17.127v1.619H434.024m27.081-3.68h-104.4v20.549h104.4V202.607" transform="translate(-3.304 -3.689)"/><polyline class="cls-21" points="397.474 201.182 364.003 201.182 364.003 201.851 397.474 201.851 397.474 201.182"/><polyline class="cls-21" points="404.737 202.416 364.183 202.416 364.183 205.439 404.737 205.439 404.737 202.416"/><polyline class="cls-21" points="447.847 200.979 430.72 200.979 430.72 202.597 447.847 202.597 447.847 200.979"/><polyline class="cls-21" points="404.737 206.326 364.183 206.326 364.183 209.35 404.737 209.35 404.737 206.326"/><polyline class="cls-21" points="404.737 213.515 364.183 213.515 364.183 216.538 404.737 216.538 404.737 213.515"/><polyline class="cls-21" points="448.414 206.322 407.86 206.322 407.86 209.346 448.414 209.346 448.414 206.322"/><polyline class="cls-21" points="407.86 209.935 364.183 209.935 364.183 212.958 423.295 212.958 423.295 212.953 407.86 212.953 407.86 209.935"/><polyline class="cls-21" points="448.414 209.93 407.86 209.93 407.86 209.935 407.86 212.953 423.295 212.953 448.414 212.953 448.414 209.93"/><polyline class="cls-21" points="448.414 213.515 407.86 213.515 407.86 216.538 448.414 216.538 448.414 213.515"/></g></g><rect class="cls-22" x="634.436" y="366.789" width="5.334" height="2.667" transform="translate(1270.902 732.556) rotate(-180)"/><rect class="cls-22" x="632.297" y="367.199" width="0.5" height="9.501" transform="translate(835.11 1072.59) rotate(-136.749)"/><rect class="cls-22" x="631.297" y="366.547" width="0.5" height="9.501" transform="translate(833.829 1070.778) rotate(-136.749)"/><rect class="cls-23" x="613.131" y="395.769" width="2" height="1.333"/><rect class="cls-23" x="613.131" y="394.436" width="0.667" height="3.334"/><path class="cls-24" d="M685.141,385.838l.587.7,2.046,6.25v6h-2l-.042,2h-3.959l-2.667-1.334H622.435l-1,1.334h-1.666v-1.334h-1.334v-5.333l2.445-7.445,1.16-1.1a2.986,2.986,0,0,1,1.8-.789h59.224A2.976,2.976,0,0,1,685.141,385.838Z" transform="translate(-3.304 -3.689)"/><rect class="cls-25" x="679.773" y="386.791" width="2" height="3.334" transform="translate(1358.242 773.226) rotate(-180)"/><rect class="cls-25" x="623.769" y="386.791" width="2" height="3.334" transform="translate(1246.234 773.226) rotate(-180)"/><rect class="cls-26" x="627.769" y="384.791" width="46.004" height="2" transform="translate(1298.238 767.892) rotate(-180)"/><rect class="cls-23" x="614.435" y="399.458" width="2" height="1.333" transform="translate(1227.566 796.561) rotate(-180)"/><rect class="cls-23" x="615.768" y="398.125" width="0.667" height="3.334" transform="translate(1228.899 795.894) rotate(-180)"/><rect class="cls-23" x="561.794" y="395.769" width="2.667" height="1.333"/><rect class="cls-23" x="561.794" y="394.436" width="1.333" height="3.334"/><polygon class="cls-24" points="611.797 394.436 611.797 397.103 609.797 397.103 608.311 398.436 607.797 399.769 603.958 399.769 603.13 397.769 573.794 397.769 572.35 399.769 568.231 399.769 567.127 397.103 563.794 397.103 563.794 394.436 611.797 394.436"/><rect class="cls-23" x="567.764" y="385.457" width="46.67" height="13.334" transform="translate(1178.895 780.56) rotate(-180)"/><circle class="cls-27" cx="605.908" cy="397.992" r="2.445"/><circle class="cls-27" cx="570.319" cy="397.992" r="2.445"/><rect class="cls-23" x="563.764" y="399.458" width="2" height="1.333" transform="translate(1126.224 796.561) rotate(-180)"/><rect class="cls-23" x="565.098" y="398.125" width="0.667" height="3.334" transform="translate(1127.558 795.894) rotate(-180)"/><rect class="cls-23" x="511.123" y="395.769" width="2.667" height="1.333"/><rect class="cls-23" x="511.123" y="394.436" width="1.333" height="3.334"/><polygon class="cls-24" points="561.127 394.436 561.127 397.103 559.127 397.103 557.64 398.436 557.127 399.769 553.287 399.769 552.46 397.769 523.124 397.769 521.679 399.769 517.56 399.769 516.457 397.103 513.123 397.103 513.123 394.436 561.127 394.436"/><rect class="cls-28" x="517.094" y="385.457" width="46.67" height="13.334" transform="translate(1077.554 780.56) rotate(-180)"/><circle class="cls-27" cx="555.237" cy="397.992" r="2.445"/><circle class="cls-27" cx="519.648" cy="397.992" r="2.445"/><rect class="cls-23" x="513.094" y="399.458" width="2" height="1.333" transform="translate(1024.883 796.561) rotate(-180)"/><rect class="cls-23" x="514.427" y="398.125" width="0.667" height="3.334" transform="translate(1026.217 795.894) rotate(-180)"/><rect class="cls-23" x="460.452" y="395.769" width="2.667" height="1.333"/><rect class="cls-23" x="460.452" y="394.436" width="1.333" height="3.334"/><polygon class="cls-24" points="510.456 394.436 510.456 397.103 508.456 397.103 506.97 398.436 506.456 399.769 502.617 399.769 501.789 397.769 472.453 397.769 471.009 399.769 466.89 399.769 465.786 397.103 462.453 397.103 462.453 394.436 510.456 394.436"/><rect class="cls-29" x="466.423" y="385.457" width="46.67" height="13.334" transform="translate(976.213 780.56) rotate(-180)"/><circle class="cls-27" cx="504.567" cy="397.992" r="2.445"/><circle class="cls-27" cx="468.978" cy="397.992" r="2.445"/><rect class="cls-23" x="464.423" y="398.125" width="0.667" height="3.334" transform="translate(926.209 795.894) rotate(-180)"/><polygon class="cls-25" points="684.226 388.367 683.001 388.362 681.303 383.101 682.47 383.101 684.226 388.367"/><polygon class="cls-25" points="615.777 388.367 617.002 388.362 618.7 383.101 617.534 383.101 615.777 388.367"/><rect class="cls-23" x="671.773" y="382.124" width="2.667" height="2.667" transform="translate(1342.908 763.225) rotate(-180)"/><rect class="cls-23" x="670.439" y="380.79" width="6" height="2" transform="translate(1343.575 759.891) rotate(-180)"/><rect class="cls-23" x="670.439" y="380.124" width="10.001" height="1.333" transform="translate(1347.575 757.891) rotate(-180)"/><rect class="cls-30" x="679.106" y="381.457" width="1.333" height="1.333" transform="translate(1356.242 760.558) rotate(-180)"/><rect class="cls-23" x="660.468" y="378.434" width="2.667" height="2.667"/><rect class="cls-23" x="659.134" y="377.101" width="5.334" height="2"/><rect class="cls-23" x="654.467" y="376.434" width="10.001" height="1.333"/><rect class="cls-30" x="654.467" y="377.768" width="2" height="1.333"/><rect class="cls-23" x="636.436" y="382.124" width="2.667" height="2.667" transform="translate(1272.236 763.225) rotate(-180)"/><rect class="cls-23" x="635.103" y="380.79" width="5.334" height="2" transform="translate(1272.236 759.891) rotate(-180)"/><rect class="cls-23" x="635.103" y="380.124" width="10.001" height="1.333" transform="translate(1276.903 757.891) rotate(-180)"/><rect class="cls-30" x="643.104" y="381.457" width="2" height="1.333" transform="translate(1284.903 760.558) rotate(-180)"/><rect class="cls-30" x="652.438" y="382.124" width="1.333" height="2.667" transform="translate(1302.905 763.225) rotate(-180)"/><rect class="cls-30" x="658.438" y="382.124" width="2" height="2.667" transform="translate(1315.572 763.225) rotate(-180)"/><rect class="cls-30" x="666.439" y="382.124" width="1.333" height="2.667" transform="translate(1330.907 763.225) rotate(-180)"/><rect class="cls-30" x="647.771" y="382.124" width="1.333" height="2.667" transform="translate(1293.571 763.225) rotate(-180)"/><rect class="cls-30" x="645.771" y="382.124" width="1.333" height="2.667" transform="translate(1289.57 763.225) rotate(-180)"/><rect class="cls-30" x="643.104" y="382.124" width="1.333" height="2.667" transform="translate(1284.237 763.225) rotate(-180)"/><rect class="cls-23" x="629.103" y="383.457" width="3.334" height="1.333" transform="translate(1258.235 764.558) rotate(-180)"/><rect class="cls-23" x="627.769" y="380.79" width="6" height="2.667" transform="translate(1258.235 760.558) rotate(-180)"/><polygon class="cls-23" points="624.798 372.434 625.576 372.434 628.243 377.768 627.465 377.768 624.798 372.434"/><rect class="cls-23" x="627.102" y="374.123" width="2.667" height="2" transform="translate(1253.568 746.557) rotate(-180)"/><polyline class="cls-23" points="684.357 395.695 683.136 399.769 657.134 399.769 656.468 399.103 644.467 399.103 643.633 399.769 616.464 399.769 615.131 396.686 615.131 393.464 683.553 393.102 684.774 395.033"/><rect class="cls-26" x="617.131" y="393.102" width="64.672" height="2.667"/><path class="cls-25" d="M675.773,390.347" transform="translate(-3.304 -3.689)"/><line class="cls-31" x1="672.802" y1="386.435" x2="672.802" y2="394.436"/><line class="cls-31" x1="675.469" y1="386.435" x2="675.469" y2="394.436"/><line class="cls-31" x1="622.798" y1="386.435" x2="622.798" y2="394.436"/><line class="cls-31" x1="625.465" y1="386.435" x2="625.465" y2="394.436"/><rect class="cls-23" x="689.774" y="398.125" width="1.333" height="2.667" transform="translate(1377.577 795.228) rotate(-180)"/><rect class="cls-23" x="685.774" y="398.792" width="4" height="0.667" transform="translate(1372.243 794.561) rotate(-180)"/><circle class="cls-27" cx="671.913" cy="397.992" r="2.445"/><circle class="cls-27" cx="660.579" cy="397.992" r="2.445"/><circle class="cls-27" cx="640.577" cy="397.992" r="2.445"/><circle class="cls-27" cx="629.243" cy="397.992" r="2.445"/><rect class="cls-32" x="371.859" y="272.737" width="67.202" height="4.967"/><path class="cls-33" d="M375.3,282.829h-3.746a.556.556,0,0,1-.556-.518l-.2-3.19a.78.78,0,0,1,.385-.728l.351-.2-.365-.6h-.275a.644.644,0,0,1-.644-.644v-1.911a.3.3,0,0,1,.3-.3h.146v-1.065a10.442,10.442,0,0,1,.258-2.311l1.333-5.9a5.23,5.23,0,0,1,.268-.846l1-2.425a2.4,2.4,0,0,1,2.222-1.484h9.692v15.306l-5.786.662a4.82,4.82,0,0,0-4.242,4.345Z" transform="translate(-3.304 -3.689)"/><path class="cls-34" d="M373.279,266.251l-.649,4.762,6.242-.4v-5.066h-4.788A.813.813,0,0,0,373.279,266.251Z" transform="translate(-3.304 -3.689)"/><polygon class="cls-33" points="374.38 256.744 374.38 256.115 382.166 252.688 382.166 255.386 374.38 256.744"/><circle class="cls-35" cx="377.745" cy="278.052" r="4.098"/><circle class="cls-36" cx="377.745" cy="278.052" r="2.31"/><circle class="cls-37" cx="377.745" cy="278.052" r="1.743"/><circle class="cls-38" cx="377.745" cy="278.052" r="1.012"/><circle class="cls-38" cx="378.286" cy="276.768" r="0.244"/><circle class="cls-38" cx="377.499" cy="276.68" r="0.244"/><circle class="cls-38" cx="376.804" cy="277.026" r="0.244"/><circle class="cls-38" cx="376.403" cy="277.686" r="0.244"/><circle class="cls-38" cx="376.426" cy="278.488" r="0.244"/><circle class="cls-38" cx="376.863" cy="279.122" r="0.244"/><circle class="cls-38" cx="377.58" cy="279.428" r="0.244"/><circle class="cls-38" cx="378.366" cy="279.292" r="0.244"/><circle class="cls-38" cx="378.932" cy="278.772" r="0.244"/><circle class="cls-38" cx="379.134" cy="278.006" r="0.244"/><circle class="cls-38" cx="378.886" cy="277.255" r="0.244"/><circle class="cls-38" cx="378.286" cy="276.768" r="0.244"/><circle class="cls-35" cx="416.387" cy="278.052" r="4.098"/><circle class="cls-36" cx="416.288" cy="278.052" r="2.31"/><circle class="cls-37" cx="416.288" cy="278.052" r="1.743"/><circle class="cls-38" cx="416.288" cy="278.052" r="1.012"/><circle class="cls-38" cx="416.829" cy="276.768" r="0.244"/><circle class="cls-38" cx="416.042" cy="276.68" r="0.244"/><circle class="cls-38" cx="415.347" cy="277.026" r="0.244"/><circle class="cls-38" cx="414.946" cy="277.686" r="0.244"/><circle class="cls-38" cx="414.969" cy="278.488" r="0.244"/><circle class="cls-38" cx="415.406" cy="279.122" r="0.244"/><circle class="cls-38" cx="416.123" cy="279.428" r="0.244"/><circle class="cls-38" cx="416.909" cy="279.292" r="0.244"/><circle class="cls-38" cx="417.474" cy="278.772" r="0.244"/><circle class="cls-38" cx="417.677" cy="278.006" r="0.244"/><circle class="cls-38" cx="417.429" cy="277.255" r="0.244"/><circle class="cls-38" cx="416.829" cy="276.768" r="0.244"/><circle class="cls-35" cx="427.066" cy="278.052" r="4.098"/><circle class="cls-36" cx="427.066" cy="278.052" r="2.31"/><circle class="cls-37" cx="427.066" cy="278.052" r="1.743"/><circle class="cls-38" cx="427.066" cy="278.052" r="1.012"/><circle class="cls-38" cx="427.607" cy="276.768" r="0.244"/><circle class="cls-38" cx="426.82" cy="276.68" r="0.244"/><circle class="cls-38" cx="426.125" cy="277.026" r="0.244"/><circle class="cls-38" cx="425.724" cy="277.686" r="0.244"/><circle class="cls-38" cx="425.747" cy="278.488" r="0.244"/><circle class="cls-38" cx="426.184" cy="279.122" r="0.244"/><circle class="cls-38" cx="426.901" cy="279.428" r="0.244"/><circle class="cls-38" cx="427.687" cy="279.292" r="0.244"/><circle class="cls-38" cx="428.253" cy="278.772" r="0.244"/><circle class="cls-38" cx="428.455" cy="278.006" r="0.244"/><circle class="cls-38" cx="428.207" cy="277.255" r="0.244"/><circle class="cls-38" cx="427.607" cy="276.768" r="0.244"/><rect class="cls-33" x="383.432" y="252.175" width="59.382" height="20.96"/><path class="cls-39" d="M414.625,282.474a5.056,5.056,0,1,1,10.091,0h-.32a4.735,4.735,0,1,0-9.451,0Z" transform="translate(-3.304 -3.689)"/><path class="cls-39" d="M425.258,282.474a5.056,5.056,0,1,1,10.091,0h-.319a4.735,4.735,0,1,0-9.452,0Z" transform="translate(-3.304 -3.689)"/><path class="cls-39" d="M382.737,277.188l1.874,2.738a2.936,2.936,0,0,1,.56,1.589V283.6l.845.029v-2.661a2.792,2.792,0,0,0-.519-1.5l-1.468-2.288Z" transform="translate(-3.304 -3.689)"/><polygon class="cls-32" points="441.031 273.135 441.031 274.194 442.488 274.194 442.488 275.088 438.746 275.088 438.746 275.742 439.773 275.742 439.773 278.048 440.617 278.048 440.617 279.228 439.938 279.228 439.938 279.438 440.617 279.438 440.617 280.362 439.061 280.362 439.061 279.625 436.462 279.625 436.462 273.135 441.031 273.135"/><rect class="cls-40" x="398.978" y="275.221" width="7.252" height="3.564"/><rect class="cls-40" x="383.084" y="274.89" width="4.735" height="4.652"/><circle class="cls-41" cx="385.485" cy="276.726" r="0.629"/><circle class="cls-42" cx="390.717" cy="278.365" r="1.01"/><circle class="cls-42" cx="392.95" cy="278.365" r="1.01"/><rect class="cls-43" x="387.819" y="278.365" width="10.982" height="0.698"/><rect class="cls-42" x="389.309" y="275.221" width="4.768" height="2.135"/><rect class="cls-42" x="398.217" y="273.954" width="0.596" height="4.411"/><rect class="cls-42" x="409.276" y="273.954" width="0.596" height="4.411"/><rect class="cls-39" x="393.713" y="273.764" width="19.04" height="0.331"/><rect class="cls-44" x="407.223" y="275.585" width="1.523" height="3.129"/><rect class="cls-45" x="400.435" y="275.221" width="0.497" height="1.547"/><rect class="cls-45" x="404.078" y="275.221" width="0.497" height="1.547"/><rect class="cls-39" x="432.045" y="277.012" width="7.016" height="0.693"/><path class="cls-39" d="M385.469,277.172h-5.786a3.886,3.886,0,0,0-3.745,3.848l-.079,2.211h-4.622a.558.558,0,0,1-.556-.518l-.252-3.592a.78.78,0,0,1,.385-.728l.351-.2v-.6h5.116l.575-.618a4.35,4.35,0,0,1,2.18-.963h6.433Z" transform="translate(-3.304 -3.689)"/><rect class="cls-46" x="383.432" y="272.39" width="59.382" height="1.109"/><path class="cls-47" d="M163.066,3.689,55.977,206.59H18.936C10.3,206.59,3.3,198.882,3.3,189.373V20.906c0-9.509,7-17.217,15.632-17.217Z" transform="translate(-3.304 -3.689)"/><path class="cls-21" d="M246.173,206.59H18.948c-8.633,0-15.632-7.708-15.632-17.216V20.905c0-9.508,7-17.215,15.632-17.215H246.173c8.633,0,15.632,7.707,15.632,17.215V189.374C261.805,198.882,254.806,206.59,246.173,206.59Z" transform="translate(-3.304 -3.689)"/><path class="cls-48" d="M261.805,20.525c0-9.3-7-16.835-15.632-16.835H18.948c-8.633,0-15.632,7.537-15.632,16.835V174.439H261.805Z" transform="translate(-3.304 -3.689)"/><path class="cls-21" d="M174.837,234.879c-.642-1.318-7.546-7.752-11.164-11.887s-3.618-16.538-3.618-16.538h-54.99s0,12.4-3.617,16.538-10.523,10.569-11.164,11.887c-.232.478,1.861,1.964,3.1,2.067s39.175,0,39.175,0,37.935.1,39.176,0S175.069,235.357,174.837,234.879Z" transform="translate(-3.304 -3.689)"/><path class="cls-21" d="M174.837,234.879a8.367,8.367,0,0,1-3.1,2.067c-.469.091-39.176,0-39.176,0s-38.707.091-39.175,0a8.367,8.367,0,0,1-3.1-2.067A2.788,2.788,0,0,0,93.1,237.5H172.02A2.788,2.788,0,0,0,174.837,234.879Z" transform="translate(-3.304 -3.689)"/><path class="cls-49" d="M103.834,217.235h57.453a54.153,54.153,0,0,1-1.232-11h-54.99A54.115,54.115,0,0,1,103.834,217.235Z" transform="translate(-3.304 -3.689)"/><rect class="cls-50" x="11.005" y="11.55" width="236.503" height="148.517"/><path class="cls-51" d="M150.591,134.518H110.266c-5.972,0-10.859-5.249-11.02-11.219L97.352,53.082h66.2L161.61,123.3C161.449,129.269,156.563,134.518,150.591,134.518Z" transform="translate(-3.304 -3.689)"/><path class="cls-52" d="M98.14,83.545l1.106,38.949c.014,7.478,4.625,12.024,10.6,12.024h41.235c5.972,0,10.5-5.368,10.531-12.024l1.107-38.949Z" transform="translate(-3.304 -3.689)"/><rect class="cls-48" x="108.115" y="69.933" width="38.064" height="46.339"/><path class="cls-53" d="M117.991,78.333a5.093,5.093,0,0,1,.86.075,1.358,1.358,0,0,1,.513.166.332.332,0,0,1,.154.29.279.279,0,0,1-.056.184.89.89,0,0,1-.245.16.421.421,0,0,0-.251.266c-.022.1-.041.5-.059,1.185q-.01,1-.02,1.2a2.585,2.585,0,0,1-.048.389,1.554,1.554,0,0,1-.441.863,1.9,1.9,0,0,1-.7.405,2.767,2.767,0,0,1-.9.146,3.315,3.315,0,0,1-.839-.109,2.609,2.609,0,0,1-.73-.3,1.19,1.19,0,0,1-.558-1,.863.863,0,0,1,.238-.624.793.793,0,0,1,.6-.247.885.885,0,0,1,.595.208.658.658,0,0,1,.246.519,1.316,1.316,0,0,1-.046.265.428.428,0,0,0-.007.083.25.25,0,0,0,.086.2.342.342,0,0,0,.231.076.474.474,0,0,0,.407-.227,1.037,1.037,0,0,0,.154-.6l0-.342-.008-.925c-.022-.561-.04-.891-.051-.99a.5.5,0,0,0-.085-.243.332.332,0,0,0-.1-.1,1.552,1.552,0,0,0-.235-.072.251.251,0,0,1-.155-.105.3.3,0,0,1-.064-.185.389.389,0,0,1,.16-.326,1.325,1.325,0,0,1,.523-.2A4.079,4.079,0,0,1,117.991,78.333Z" transform="translate(-3.304 -3.689)"/><path class="cls-53" d="M122.048,79.8a2.083,2.083,0,0,1,1.211.358,1.925,1.925,0,0,1,.6.667,1.855,1.855,0,0,1,.234.9,1.7,1.7,0,0,1-.75,1.391,2.63,2.63,0,0,1-1.64.547,2.073,2.073,0,0,1-1.46-.513,1.676,1.676,0,0,1-.543-1.3,1.825,1.825,0,0,1,.664-1.457A2.5,2.5,0,0,1,122.048,79.8Zm-.3.871a.324.324,0,0,0-.266.123.5.5,0,0,0-.1.326,3.058,3.058,0,0,0,.085.616,4.649,4.649,0,0,0,.2.693.4.4,0,0,0,.381.308c.224,0,.336-.141.336-.426a3.519,3.519,0,0,0-.085-.72,2.951,2.951,0,0,0-.205-.656A.4.4,0,0,0,121.747,80.671Z" transform="translate(-3.304 -3.689)"/><path class="cls-53" d="M128.373,79.6a.2.2,0,0,1,.166.107.448.448,0,0,1,.071.251.816.816,0,0,1-.1.351.968.968,0,0,1-.232.313c-.058.05-.087.091-.087.12,0,.008,0,.038.008.091a1.116,1.116,0,0,1,.011.144,1.029,1.029,0,0,1-.3.753,1.831,1.831,0,0,1-.7.423,2.8,2.8,0,0,1-.941.151,1.978,1.978,0,0,1-.245-.015,1.336,1.336,0,0,0-.151-.012.177.177,0,0,0-.2.2.226.226,0,0,0,.131.2.714.714,0,0,0,.352.074,3.425,3.425,0,0,0,.445-.042,7.274,7.274,0,0,1,.913-.087,1.361,1.361,0,0,1,.69.147.838.838,0,0,1,.311.317.873.873,0,0,1,.115.437,1.194,1.194,0,0,1-.279.74,1.952,1.952,0,0,1-.977.626,3.936,3.936,0,0,1-1.169.158,3.077,3.077,0,0,1-1.357-.256,1.045,1.045,0,0,1-.385-.317.68.68,0,0,1-.143-.408.489.489,0,0,1,.081-.271.447.447,0,0,1,.2-.177c.076-.03.113-.063.113-.1s-.031-.067-.094-.12a.7.7,0,0,1-.3-.524.616.616,0,0,1,.146-.373.971.971,0,0,1,.36-.3c.06-.03.09-.061.09-.091s-.038-.088-.113-.158a1.107,1.107,0,0,1-.389-.837.923.923,0,0,1,.138-.483,1.2,1.2,0,0,1,.383-.392,2.4,2.4,0,0,1,1.346-.4,3.259,3.259,0,0,1,.656.075,2.857,2.857,0,0,0,.472.068,1.313,1.313,0,0,0,.818-.324A.275.275,0,0,1,128.373,79.6Zm-2.87,4.212c-.063,0-.094.037-.094.11a.407.407,0,0,0,.241.359,1.254,1.254,0,0,0,.626.138,1.385,1.385,0,0,0,.579-.1.3.3,0,0,0,.209-.275.2.2,0,0,0-.079-.16.3.3,0,0,0-.2-.067,1.491,1.491,0,0,0-.174.016,3.054,3.054,0,0,1-.471.034,3.678,3.678,0,0,1-.37-.019,1.445,1.445,0,0,1-.214-.031A.316.316,0,0,0,125.5,83.812Zm.822-3.431a.374.374,0,0,0-.3.142.6.6,0,0,0-.115.381,1.459,1.459,0,0,0,.125.654.372.372,0,0,0,.328.245.379.379,0,0,0,.317-.154.66.66,0,0,0,.116-.409,1.338,1.338,0,0,0-.122-.628A.4.4,0,0,0,126.325,80.381Z" transform="translate(-3.304 -3.689)"/><path class="cls-53" d="M130.926,78.6l-.05,1.58c0,.188.053.283.174.283.06,0,.119-.042.177-.125a1.13,1.13,0,0,1,.977-.531,1.27,1.27,0,0,1,.954.365.905.905,0,0,1,.224.385,2.52,2.52,0,0,1,.074.637l.034,1.362a.6.6,0,0,0,.047.259.749.749,0,0,0,.2.208.26.26,0,0,1,.109.207q0,.408-1.229.408-1.094,0-1.094-.381a.2.2,0,0,1,.019-.1c.013-.022.057-.083.132-.181a3.215,3.215,0,0,0,.064-1.769.448.448,0,0,0-.445-.313.377.377,0,0,0-.339.167.89.89,0,0,0-.08.452v.727a4.647,4.647,0,0,0,.046.547.894.894,0,0,0,.173.238.268.268,0,0,1,.072.185q0,.426-1.109.426-1.3,0-1.3-.442a.261.261,0,0,1,.041-.156,1.1,1.1,0,0,1,.2-.168c.1-.067.161-.25.2-.549a13.648,13.648,0,0,0,.055-1.479,9.018,9.018,0,0,0-.046-1.124.378.378,0,0,0-.054-.172.45.45,0,0,0-.149-.111c-.156-.081-.234-.173-.234-.279a.352.352,0,0,1,.177-.305,2.579,2.579,0,0,1,.679-.253,4.277,4.277,0,0,1,1.082-.189C130.86,78.408,130.931,78.471,130.926,78.6Z" transform="translate(-3.304 -3.689)"/><path class="cls-53" d="M136.137,80.018v2.044q0,.657.434.657a.417.417,0,0,0,.215-.063.351.351,0,0,0,.147-.152,2.419,2.419,0,0,0,.083-.808,5.515,5.515,0,0,0-.042-.844.269.269,0,0,0-.053-.138.52.52,0,0,0-.143-.1.331.331,0,0,1-.215-.286c0-.156.123-.265.37-.324a5.73,5.73,0,0,1,1.384-.174c.254,0,.381.135.381.4,0,.028,0,.084,0,.17,0,.12-.009.268-.011.442v1.663c0,.085.072.163.218.233a.287.287,0,0,1,.185.264q0,.339-.8.524a4.026,4.026,0,0,1-.913.11.516.516,0,0,1-.247-.041.2.2,0,0,1-.077-.163c-.013-.156-.061-.234-.143-.234a.168.168,0,0,0-.083.021c-.026.014-.1.065-.23.153a1.43,1.43,0,0,1-.819.26,1.172,1.172,0,0,1-1.022-.418,2.091,2.091,0,0,1-.252-1.181q0-.309,0-.528v-.173a1.438,1.438,0,0,0-.058-.478.461.461,0,0,0-.213-.239.721.721,0,0,1-.187-.121.181.181,0,0,1-.04-.124q0-.287.434-.381a6.893,6.893,0,0,1,1.479-.162C136.063,79.83,136.137,79.893,136.137,80.018Z" transform="translate(-3.304 -3.689)"/><path class="cls-53" d="M141.066,79.826q.2,0,.243.057a1.01,1.01,0,0,1,.078.362c.012.11.051.166.116.166s.1-.037.144-.109a.9.9,0,0,1,.788-.472.752.752,0,0,1,.562.223.839.839,0,0,1,.173.28.837.837,0,0,1-.015.694.919.919,0,0,1-.215.308.826.826,0,0,1-.592.229.692.692,0,0,1-.322-.067,1.662,1.662,0,0,1-.341-.275.222.222,0,0,0-.147-.079.136.136,0,0,0-.138.118,2.363,2.363,0,0,0-.032.5,4.708,4.708,0,0,0,.041.777.306.306,0,0,0,.074.156.554.554,0,0,0,.2.089q.339.1.339.355a.383.383,0,0,1-.109.269.556.556,0,0,1-.291.153,5.713,5.713,0,0,1-1.063.075,3.355,3.355,0,0,1-1.015-.117c-.206-.071-.309-.192-.309-.366a.429.429,0,0,1,.226-.35.578.578,0,0,0,.151-.13.367.367,0,0,0,.057-.161,8.788,8.788,0,0,0,.06-1.271.571.571,0,0,0-.038-.243.271.271,0,0,0-.151-.119c-.178-.07-.267-.172-.267-.305a.375.375,0,0,1,.184-.311,2.228,2.228,0,0,1,.619-.258A3.68,3.68,0,0,1,141.066,79.826Z" transform="translate(-3.304 -3.689)"/><path class="cls-53" d="M145.788,80.792v1.274a.583.583,0,0,0,.111.369.344.344,0,0,0,.285.144.856.856,0,0,0,.388-.136.224.224,0,0,1,.113-.034.209.209,0,0,1,.166.109.417.417,0,0,1,.075.238.6.6,0,0,1-.256.449,1.929,1.929,0,0,1-1.3.456,1.36,1.36,0,0,1-.969-.341,1.17,1.17,0,0,1-.366-.9V80.679a.173.173,0,0,0-.021-.108.179.179,0,0,0-.107-.021h-.389a.191.191,0,0,1-.139-.035.3.3,0,0,1-.03-.168v-.166a.189.189,0,0,1,.086-.166l1.727-1.086a.334.334,0,0,1,.159-.035h.3a.148.148,0,0,1,.126.044.305.305,0,0,1,.033.171v.51a.212.212,0,0,0,.035.147.241.241,0,0,0,.153.034h.7c.093,0,.153.016.181.051a.382.382,0,0,1,.041.216v.223a.438.438,0,0,1-.052.251.232.232,0,0,1-.193.069h-.682a.207.207,0,0,0-.144.038A.21.21,0,0,0,145.788,80.792Z" transform="translate(-3.304 -3.689)"/><polygon class="cls-48" points="94.132 51.737 160.162 51.737 160.247 45.315 94.048 45.315 94.132 51.737"/><path class="cls-47" d="M162.419,4.156,55.764,206.235H18.873c-8.6,0-15.569-7.676-15.569-17.147V21.3c0-9.471,6.969-17.147,15.569-17.147Z" transform="translate(-3.304 -3.689)"/></g></g></svg>