<svg id="Layer_1" data-name="Layer 1" xmlns="http://www.w3.org/2000/svg" viewBox="0 0 846.45 448.258"><defs><style>.cls-1,.cls-12,.cls-13,.cls-14,.cls-19,.cls-2,.cls-20,.cls-21,.cls-22,.cls-23,.cls-27,.cls-28,.cls-29,.cls-33,.cls-37,.cls-4,.cls-45,.cls-46,.cls-6{fill:none;}.cls-1,.cls-19,.cls-6{stroke:#797979;}.cls-1,.cls-12,.cls-13,.cls-14,.cls-15,.cls-19,.cls-2,.cls-20,.cls-21,.cls-22,.cls-23,.cls-27,.cls-28,.cls-29,.cls-33,.cls-37,.cls-4,.cls-45,.cls-46,.cls-6{stroke-miterlimit:10;}.cls-1{stroke-width:4.256px;}.cls-2,.cls-20,.cls-4{stroke:#bebebe;}.cls-2,.cls-33,.cls-37,.cls-4{stroke-linecap:round;}.cls-2{stroke-width:24.969px;}.cls-3{fill:#bebebe;}.cls-4{stroke-width:24.821px;}.cls-5{fill:#797979;}.cls-6{stroke-width:34.047px;}.cls-7{fill:#fff;}.cls-8{fill:#dbc8b5;}.cls-9{fill:#5d5263;}.cls-10{fill:#ad9f8e;}.cls-11{fill:#aca3ac;}.cls-12{stroke:#48404d;}.cls-12,.cls-19,.cls-27,.cls-28{stroke-width:10.969px;}.cls-13{stroke:#e5e9f0;stroke-width:11.753px;}.cls-14,.cls-15{stroke:#5d5263;}.cls-14,.cls-15,.cls-20,.cls-22,.cls-23,.cls-29,.cls-46{stroke-width:14.103px;}.cls-15{fill:#8f8490;}.cls-16{fill:#e5e9f0;}.cls-17{fill:#7b838f;}.cls-18{fill:#48404d;}.cls-21,.cls-23{stroke:#4b4b4b;}.cls-21,.cls-45{stroke-width:10.186px;}.cls-22{stroke:#606060;}.cls-24{fill:#606060;}.cls-25{fill:#4b4b4b;}.cls-26{fill:#969696;}.cls-27,.cls-33,.cls-37{stroke:#dbc8b5;}.cls-28{stroke:#ad9f8e;}.cls-29{stroke:#a8b4c4;}.cls-30{fill:#4b5e69;}.cls-31{fill:#a8b4c4;}.cls-32{fill:#858f9b;}.cls-33{stroke-width:8.721px;}.cls-34{fill:#edcf65;}.cls-35{fill:#fadb69;}.cls-36{fill:#b6bcc4;}.cls-37{stroke-width:8.619px;}.cls-38{fill:#9a979c;}.cls-39{fill:#78747c;}.cls-40{fill:#d8bcb2;}.cls-41{fill:#ac958d;}.cls-42{fill:#e2f2f0;}.cls-43{fill:#5f5b63;}.cls-44{fill:#c2807c;}.cls-45{stroke:#414b58;}.cls-46{stroke:#536070;}.cls-47{fill:#536070;}.cls-48{fill:#414b58;}</style></defs><title>9_illu</title><path class="cls-1" d="M598.655,381.43c-7.651-4.924-8.784-17.522-1.854-31.265" transform="translate(-15.739 -14.519)"/><path class="cls-1" d="M515.2,350.092c7.971,4.389,9.963,16.88,3.99,31.065" transform="translate(-15.739 -14.519)"/><polyline class="cls-2" points="569.831 260.223 594.206 352.048 575.609 433.328"/><polygon class="cls-3" points="632.034 447.643 559.639 447.638 559.641 425.086 596.114 425.089 632.034 438.881 632.034 447.643"/><polygon class="cls-3" points="456.167 447.643 528.561 447.638 528.559 425.086 492.086 425.089 456.166 438.881 456.167 447.643"/><polyline class="cls-4" points="518.866 261.636 487.505 354.855 511.76 423.341"/><path class="cls-5" d="M538.562,264.393a12.516,12.516,0,0,0-15.72,8L517.1,289.345l20.923,15.688,8.35-24.725A12.623,12.623,0,0,0,538.562,264.393Z" transform="translate(-15.739 -14.519)"/><path class="cls-5" d="M597.636,271.736a12.491,12.491,0,1,0-24.133,6.455l8.158,30.714,20.887-18.68Z" transform="translate(-15.739 -14.519)"/><circle class="cls-3" cx="544.441" cy="27.121" r="27.119"/><polyline class="cls-2" points="476.209 86.332 456.166 183.64 366.941 190.061"/><rect class="cls-5" x="534.79" y="47.016" width="20.224" height="47.006"/><path class="cls-6" d="M563.251,281.36s-1.931-19.09,0-58.18" transform="translate(-15.739 -14.519)"/><path class="cls-1" d="M538.152,273.176s-14.47-21.927,5.271-54.332" transform="translate(-15.739 -14.519)"/><path class="cls-1" d="M544.536,273.176s-14.47-21.927,5.271-54.332" transform="translate(-15.739 -14.519)"/><path class="cls-1" d="M587.216,220.27s14.469,21.927-5.271,54.332" transform="translate(-15.739 -14.519)"/><path class="cls-1" d="M580.832,220.27S595.3,242.2,575.561,274.6" transform="translate(-15.739 -14.519)"/><path class="cls-1" d="M483.984,138.644c5.054,12.184,19.537,12.065,24.965,9.286" transform="translate(-15.739 -14.519)"/><path class="cls-1" d="M574.992,66.221c-.135,11.551-1.2,10.155.276,22.363" transform="translate(-15.739 -14.519)"/><path class="cls-1" d="M547.534,70.2c-.136,11.55-1.205,10.154.276,22.362" transform="translate(-15.739 -14.519)"/><rect class="cls-3" x="528.824" y="42.401" width="64.179" height="34.945" transform="translate(-18.856 36.48) rotate(-5.191)"/><circle class="cls-7" cx="530.505" cy="44.147" r="8.542"/><path class="cls-3" d="M617.892,86.8l-118.931.635a20.337,20.337,0,0,0-20.326,20.348l.019,35.31,18.708-.009,21.379,104.736,84.889-.047,15.656-105.328,18.973-.008-.019-35.311A20.337,20.337,0,0,0,617.892,86.8Z" transform="translate(-15.739 -14.519)"/><polyline class="cls-2" points="610.498 96.54 652.806 175.947 603.389 238.925"/><polygon class="cls-3" points="558.528 286.868 529.595 286.968 494.488 250.014 494.456 240.86 593.3 240.52 593.332 249.674 558.528 286.868"/><path class="cls-3" d="M385.247,194.148s-1.427-17.122,3.21-18.192,6.778,16.625,14.268,18.192Z" transform="translate(-15.739 -14.519)"/><path class="cls-8" d="M175.3,217.9v29.97a9.4,9.4,0,0,1-9.4,9.4H154.146a9.4,9.4,0,0,1-9.4-9.4V217.9Z" transform="translate(-15.739 -14.519)"/><rect class="cls-8" x="140.366" y="233.449" width="11.753" height="27.325" rx="5.876" ry="5.876"/><path class="cls-9" d="M149.591,231.245a1.2,1.2,0,1,0,1.2-1.2A1.2,1.2,0,0,0,149.591,231.245Z" transform="translate(-15.739 -14.519)"/><path class="cls-9" d="M165.556,231.245a1.2,1.2,0,1,1-1.2-1.2A1.2,1.2,0,0,1,165.556,231.245Z" transform="translate(-15.739 -14.519)"/><path class="cls-10" d="M147.272,204.042h0v.832a3.82,3.82,0,0,0,3.82,3.82h15.021a5.877,5.877,0,0,1,5.877,5.876h0a5.877,5.877,0,0,1,5.876,5.877h0v16.9c0,2.567-.782,4.647-3.349,4.647v3.134l-.177-17.21a2.377,2.377,0,0,0-2.377-2.377h.027v4.7a4.7,4.7,0,0,1-4.7-4.7h0v.025a5.117,5.117,0,0,0-5.118-5.118H147.321a8.178,8.178,0,0,1-2.579-.415l.118-8.3c-1.61-4.015.538-6.77,2.412-7.688Z" transform="translate(-15.739 -14.519)"/><path class="cls-11" d="M147.272,202.475h0v.832a3.82,3.82,0,0,0,3.82,3.82h15.021A5.877,5.877,0,0,1,171.99,213h0a5.877,5.877,0,0,1,5.876,5.877h0v20.033c0,2.567-.782,4.647-3.349,4.647h0l-.177-14.076a2.377,2.377,0,0,0-2.377-2.377h.027v4.7h0a4.7,4.7,0,0,1-4.7-4.7h0V224a5.117,5.117,0,0,0-5.118-5.118H147.321a8.19,8.19,0,0,1-8.19-8.191v-.024a7.682,7.682,0,0,1,1.161-4.206s.2,3.049,4.568,3.7c-1.61-4.016.538-6.77,2.412-7.688Z" transform="translate(-15.739 -14.519)"/><path class="cls-7" d="M163.94,245.767v.717a3.684,3.684,0,0,1-3.684,3.684h-5.117a3.684,3.684,0,0,1-3.684-3.684v-.717" transform="translate(-15.739 -14.519)"/><line class="cls-12" x1="156.269" y1="424.086" x2="156.269" y2="446.024"/><line class="cls-12" x1="135.114" y1="424.086" x2="135.114" y2="446.024"/><ellipse class="cls-8" cx="122.276" cy="353.655" rx="8.913" ry="6.168" transform="translate(-253.423 441.371) rotate(-86.783)"/><ellipse class="cls-8" cx="126.391" cy="351.654" rx="5.47" ry="3.996" transform="translate(-247.542 443.59) rotate(-86.783)"/><line class="cls-13" x1="107.133" y1="323.161" x2="107.115" y2="332.958"/><path class="cls-14" d="M139.146,276.762s-10.966,23.672-12.7,31.437a155.351,155.351,0,0,0-3.341,33.109" transform="translate(-15.739 -14.519)"/><path class="cls-15" d="M172.008,343.016s2.351,42.31,2.351,50.537-2.351,50.537-2.351,50.537" transform="translate(-15.739 -14.519)"/><path class="cls-15" d="M150.853,343.016s-3.072,38-3.134,48.575,3.134,52.5,3.134,52.5" transform="translate(-15.739 -14.519)"/><path class="cls-9" d="M165.1,448.842V461.77h22.331v-2.351h0a3.29,3.29,0,0,0-2.224-3.112l-4.094-1-2.938-6.464Z" transform="translate(-15.739 -14.519)"/><polygon class="cls-16" points="139.375 254.846 152.571 254.846 146.205 250.295 139.375 254.846"/><polygon class="cls-16" points="139.375 254.846 145.937 294.805 152.571 254.846 139.375 254.846"/><polygon class="cls-17" points="145.937 319.146 149.735 313.927 147.7 255.02 150.675 252.73 146.205 249.954 141.242 252.626 144.247 255.093 142.167 313.922 145.937 319.146"/><polygon class="cls-16" points="139.864 246.964 135.359 250.422 139.375 254.506 146.205 249.954 139.864 246.964"/><polygon class="cls-16" points="152.081 246.964 156.514 250.642 152.571 254.506 146.205 249.954 152.081 246.964"/><line class="cls-8" x1="142.411" y1="241.969" x2="154.164" y2="241.969"/><ellipse class="cls-9" cx="145.445" cy="327.371" rx="24.389" ry="14.297"/><path class="cls-9" d="M136.374,270.144l14.724-5.2,4.016,4.084,6.562,39.959,6.634-39.959,3.943-3.864,13.131,5a6.312,6.312,0,0,1,4.5,6.046v68.038H131.9V276.183A6.313,6.313,0,0,1,136.374,270.144Z" transform="translate(-15.739 -14.519)"/><path class="cls-9" d="M144.166,446.431l-8.491,7.416a6.781,6.781,0,0,1-1.384.934l-2.32,1.179a9.879,9.879,0,0,1-4.473,1.071h-3.441a4.523,4.523,0,0,0-4.523,4.523v.583h24.6l1.807-.98a6.005,6.005,0,0,1,6.2.281l1.048.7h7.195V447.909l-2.857-.024A9.169,9.169,0,0,1,146.2,448Z" transform="translate(-15.739 -14.519)"/><path class="cls-18" d="M137.13,344.243a11.908,11.908,0,0,0,3.851,5.658h40.406a11.91,11.91,0,0,0,3.852-5.658Z" transform="translate(-15.739 -14.519)"/><ellipse class="cls-8" cx="186.884" cy="338.173" rx="8.913" ry="6.168" transform="translate(-171.62 145.331) rotate(-33.588)"/><ellipse class="cls-8" cx="186.529" cy="333.612" rx="5.47" ry="3.996" transform="matrix(0.833, -0.553, 0.553, 0.833, -169.155, 144.373)"/><line class="cls-13" x1="186.715" y1="315.312" x2="177.005" y2="319.705"/><path class="cls-14" d="M182.959,276.762s27.727,26.792,27.968,37.571c.261,11.67-12.442,17.278-12.442,17.278" transform="translate(-15.739 -14.519)"/><path class="cls-8" d="M848.588,312.582c.509,3.3,3.359,5.361,8.35,4.469s5.614-4.026,5.105-7.329-1.955-5.522-6.946-4.63S848.08,309.28,848.588,312.582Z" transform="translate(-15.739 -14.519)"/><path class="cls-8" d="M851.207,311.419c2.16.781,4.779-.983,5.849-3.94s-.394-10.355-3.09-8.691c-.706.436-1.416,7.223-5.507,7.733C845.338,306.91,849.046,310.637,851.207,311.419Z" transform="translate(-15.739 -14.519)"/><line class="cls-19" x1="768.99" y1="415.467" x2="768.99" y2="437.406"/><line class="cls-19" x1="742.351" y1="415.467" x2="742.351" y2="437.406"/><ellipse class="cls-8" cx="673.508" cy="272.753" rx="8.913" ry="6.168" transform="translate(-44.796 443.734) rotate(-36.837)"/><ellipse class="cls-8" cx="677.687" cy="274.615" rx="5.47" ry="3.996" transform="matrix(0.8, -0.6, 0.6, 0.8, -45.077, 446.611)"/><line class="cls-13" x1="670.877" y1="249.124" x2="661.691" y2="254.805"/><path class="cls-20" d="M749.128,257.22s-24.338,2.743-40.792,2.6c-10.413-.092-26.838,6.96-26.838,6.96" transform="translate(-15.739 -14.519)"/><line class="cls-13" x1="824.755" y1="296.725" x2="833.839" y2="297.061"/><path class="cls-20" d="M785.513,327.346s1.882,35.068,2,59.155-2,59.156-2,59.156" transform="translate(-15.739 -14.519)"/><path class="cls-20" d="M758.09,327.346s-2,41.193-2,60.155,2,58.156,2,58.156" transform="translate(-15.739 -14.519)"/><line class="cls-21" x1="705.133" y1="424.086" x2="705.133" y2="446.024"/><line class="cls-21" x1="683.979" y1="424.086" x2="683.979" y2="446.024"/><path class="cls-22" d="M721.264,343.016s2.392,34.568,2,57.32-2,43.754-2,43.754" transform="translate(-15.739 -14.519)"/><path class="cls-22" d="M700.109,343.016s-2.245,35.322-2,57.572,2,43.5,2,43.5" transform="translate(-15.739 -14.519)"/><path class="cls-23" d="M721.264,343.016" transform="translate(-15.739 -14.519)"/><path class="cls-24" d="M706.23,448.842V461.77H683.9v-2.351h0a3.29,3.29,0,0,1,2.224-3.112l4.093-1,2.939-6.464Z" transform="translate(-15.739 -14.519)"/><path class="cls-24" d="M714.359,448.842V461.77h22.33v-2.351h0a3.289,3.289,0,0,0-2.223-3.112l-4.094-1-2.938-6.464Z" transform="translate(-15.739 -14.519)"/><path class="cls-8" d="M639.543,313.972c-.5,3-3.274,4.873-8.13,4.068s-5.46-3.653-4.962-6.654,1.908-5.018,6.764-4.213S640.041,310.971,639.543,313.972Z" transform="translate(-15.739 -14.519)"/><path class="cls-8" d="M637.035,313.261c-2.075.751-4.59-.943-5.618-3.784s.378-9.946,2.967-8.348c.679.419,1.361,6.938,5.29,7.428C642.671,308.93,639.11,312.51,637.035,313.261Z" transform="translate(-15.739 -14.519)"/><rect class="cls-24" x="717.102" y="212.122" width="12.904" height="28.99" rx="4.701" ry="4.701" transform="translate(1431.369 438.715) rotate(-180)"/><path class="cls-8" d="M695.519,216.859v29.97a9.4,9.4,0,0,0,9.4,9.4h11.753a9.4,9.4,0,0,0,9.4-9.4v-29.97Z" transform="translate(-15.739 -14.519)"/><line class="cls-13" x1="633.924" y1="299.981" x2="623.27" y2="297.875"/><line class="cls-8" x1="689.708" y1="241.578" x2="701.461" y2="241.578"/><rect class="cls-8" x="705.055" y="241.602" width="11.753" height="27.325" rx="5.876" ry="5.876" transform="translate(1406.124 496.009) rotate(-180)"/><path class="cls-24" d="M696.045,223.043a5.117,5.117,0,0,1,5.118-5.118h21.925c4.524,0,6.918-1.371,6.918-5.583,0-4.6-5.053-6.17-7.162-6.17h-18.7a5.876,5.876,0,0,0-5.876,5.876h.147a5.877,5.877,0,0,0-5.877,5.877h0v18.466c0,2.567.906,4.647,3.472,4.647" transform="translate(-15.739 -14.519)"/><ellipse class="cls-24" cx="694.701" cy="327.371" rx="24.389" ry="14.297"/><path class="cls-22" d="M689.189,274.705s-6.758,25.32-11.361,34.671-32.513,5.238-32.513,5.238" transform="translate(-15.739 -14.519)"/><ellipse class="cls-8" cx="792.828" cy="308.369" rx="8.913" ry="6.168" transform="translate(-73.328 315.274) rotate(-22.697)"/><ellipse class="cls-8" cx="789.231" cy="305.543" rx="5.47" ry="3.996" transform="translate(-72.516 313.667) rotate(-22.697)"/><line class="cls-13" x1="759.539" y1="297.494" x2="769.892" y2="294.965"/><path class="cls-22" d="M731.431,275.2s6.464,26,10.773,34.181,37.3,1.619,37.3,1.619" transform="translate(-15.739 -14.519)"/><polygon class="cls-16" points="688.63 254.846 701.827 254.846 695.461 250.295 688.63 254.846"/><polygon class="cls-16" points="688.63 254.846 695.193 294.805 701.827 254.846 688.63 254.846"/><polygon class="cls-17" points="695.193 319.146 698.99 313.927 696.956 255.02 699.93 252.73 695.461 249.954 690.498 252.626 693.503 255.093 691.423 313.922 695.193 319.146"/><polygon class="cls-16" points="689.12 246.964 684.615 250.422 688.63 254.506 695.461 249.954 689.12 246.964"/><polygon class="cls-16" points="701.337 246.964 705.77 250.642 701.827 254.506 695.461 249.954 701.337 246.964"/><path class="cls-24" d="M685.63,270.144l14.724-5.2,4.015,4.084,6.563,39.959,6.634-39.959,3.943-3.864,13.13,5a6.312,6.312,0,0,1,4.5,6.046v68.038h-57.98V276.183A6.313,6.313,0,0,1,685.63,270.144Z" transform="translate(-15.739 -14.519)"/><path class="cls-24" d="M719.4,230.069a1.2,1.2,0,1,1-1.2-1.2A1.2,1.2,0,0,1,719.4,230.069Z" transform="translate(-15.739 -14.519)"/><path class="cls-24" d="M703.439,230.069a1.2,1.2,0,1,0,1.2-1.2A1.2,1.2,0,0,0,703.439,230.069Z" transform="translate(-15.739 -14.519)"/><path class="cls-7" d="M715.337,244.2v.461a2.369,2.369,0,0,1-2.369,2.369h-3.29a2.369,2.369,0,0,1-2.369-2.369V244.2" transform="translate(-15.739 -14.519)"/><path class="cls-24" d="M715.426,239.592h-8.075a5.716,5.716,0,0,0-5.675,5.707V255.59a7.792,7.792,0,0,0,3.245.455h11.753c1.77,0,3.807-.312,4.59-1.164V245.3A5.857,5.857,0,0,0,715.426,239.592Zm-.22,8.618h-7.635a2.351,2.351,0,0,1-2.351-2.35,2.389,2.389,0,0,1,2.388-2.351h7.561a2.388,2.388,0,0,1,2.387,2.351A2.35,2.35,0,0,1,715.206,248.21Z" transform="translate(-15.739 -14.519)"/><path class="cls-25" d="M689.207,348.921h42.466a11.182,11.182,0,0,0,2.822-4.678H686.386A11.169,11.169,0,0,0,689.207,348.921Z" transform="translate(-15.739 -14.519)"/><path class="cls-3" d="M764.981,448.6v12.928h-22.33v-2.351h0a3.292,3.292,0,0,1,2.224-3.113l4.093-1,2.939-6.464Z" transform="translate(-15.739 -14.519)"/><path class="cls-3" d="M777.811,448.6v12.928h22.331v-2.351h0a3.292,3.292,0,0,0-2.224-3.113l-4.094-1-2.938-6.464Z" transform="translate(-15.739 -14.519)"/><rect class="cls-8" x="740.202" y="206.245" width="36.04" height="21.695" rx="8.737" ry="8.737"/><rect class="cls-8" x="742.978" y="184.369" width="30.549" height="44.122" rx="9.402" ry="9.402"/><path class="cls-8" d="M777.139,260.8h0a5.894,5.894,0,0,0,5.876-5.877V239.349a5.893,5.893,0,0,0-5.876-5.876h0c-3.232,0-12.928,2.644-12.928,5.876v15.572C764.211,258.153,773.907,260.8,777.139,260.8Z" transform="translate(-15.739 -14.519)"/><path class="cls-8" d="M774.17,213.836l3.742,6.455a2.354,2.354,0,0,1-2.036,3.535h-1.85S773.808,214.2,774.17,213.836Z" transform="translate(-15.739 -14.519)"/><path class="cls-3" d="M805.345,327.4c0,7.9-19.374,14.3-34.574,14.3s-27.523-6.4-27.523-14.3,12.322-14.3,27.523-14.3S805.345,319.5,805.345,327.4Z" transform="translate(-15.739 -14.519)"/><path class="cls-20" d="M801.164,257.174s6.334,39.666,9.16,46.927,34.516,7.3,34.516,7.3" transform="translate(-15.739 -14.519)"/><polygon class="cls-16" points="747.786 236.825 768.034 236.825 761.668 232.274 747.786 236.825"/><polygon class="cls-16" points="747.786 236.825 757.874 276.785 768.034 236.825 747.786 236.825"/><polygon class="cls-9" points="757.874 303.475 764.022 298.257 759.637 236.999 766.138 234.71 758.142 231.933 749.653 234.606 756.185 237.072 751.753 298.252 757.874 303.475"/><polygon class="cls-16" points="748.276 228.943 743.771 232.401 747.786 236.485 758.142 231.933 748.276 228.943"/><polygon class="cls-16" points="767.544 228.943 771.977 232.621 768.034 236.485 758.142 231.933 767.544 228.943"/><path class="cls-3" d="M744,251.34l15.508-4.42L763.525,251l10.088,39.959L783.773,251l3.943-3.864,16.656,5a6.312,6.312,0,0,1,4.5,6.046v69.768l-69.064-.556s.5-20.441.5-32.687c0-9.186-.983-26.947-11.153-29.454C723.2,263.785,741.345,252.15,744,251.34Z" transform="translate(-15.739 -14.519)"/><path class="cls-7" d="M769.111,234.579v.461a2.369,2.369,0,0,0,2.369,2.369h3.29a2.369,2.369,0,0,0,2.369-2.369v-.461" transform="translate(-15.739 -14.519)"/><path class="cls-9" d="M782.085,216.749a1.2,1.2,0,1,1-1.2-1.2A1.2,1.2,0,0,1,782.085,216.749Z" transform="translate(-15.739 -14.519)"/><path class="cls-9" d="M766.121,216.749a1.2,1.2,0,1,0,1.2-1.2A1.2,1.2,0,0,0,766.121,216.749Z" transform="translate(-15.739 -14.519)"/><path class="cls-26" d="M743.249,327.408a8.687,8.687,0,0,0,2.006,5.347h57.056c1.9-1.652,3.029-2.912,3.034-4.8Z" transform="translate(-15.739 -14.519)"/><circle class="cls-24" cx="55.93" cy="218.17" r="18.511"/><circle class="cls-24" cx="46.454" cy="227.499" r="11.386"/><circle class="cls-24" cx="66.434" cy="228.674" r="11.386"/><path class="cls-24" d="M96.775,261c0,2.451-.572,4.8,4.864,5.531,0,0-1.91,7.64-17.042,4.065a28.8,28.8,0,0,1-10.737-4.408c-5.937-3.964-2.937,1.951-2.937-5.188a12.926,12.926,0,0,1,25.852,0Z" transform="translate(-15.739 -14.519)"/><path class="cls-24" d="M46.822,261c0,2.451.572,4.8-4.863,5.531,0,0,1.909,7.64,17.041,4.065a28.8,28.8,0,0,0,10.737-4.408c5.937-3.964,2.937,1.951,2.937-5.188a12.926,12.926,0,0,0-25.852,0Z" transform="translate(-15.739 -14.519)"/><path class="cls-8" d="M56.55,227.437v25.268a9.4,9.4,0,0,0,9.4,9.4H77.705a9.4,9.4,0,0,0,9.4-9.4V227.437l-15.278-1.175Z" transform="translate(-15.739 -14.519)"/><line class="cls-27" x1="66.165" y1="372.075" x2="66.165" y2="441.024"/><line class="cls-28" x1="66.165" y1="377.075" x2="66.165" y2="391.879"/><line class="cls-27" x1="45.01" y1="377.075" x2="45.01" y2="446.024"/><line class="cls-28" x1="45.01" y1="377.075" x2="45.01" y2="391.663"/><line class="cls-8" x1="50.739" y1="247.454" x2="62.492" y2="247.454"/><rect class="cls-8" x="66.087" y="251.004" width="11.753" height="27.325" rx="5.876" ry="5.876" transform="translate(128.187 514.814) rotate(180)"/><ellipse class="cls-8" cx="140.867" cy="310.486" rx="8.913" ry="6.168" transform="translate(-177.496 138.919) rotate(-38.169)"/><ellipse class="cls-8" cx="136.646" cy="308.722" rx="5.47" ry="3.996" transform="translate(-177.308 135.933) rotate(-38.169)"/><line class="cls-13" x1="109.186" y1="304.161" x2="118.489" y2="298.962"/><path class="cls-29" d="M90.112,281.071s8.035,28.032,13.124,34.181c10.009,12.094,25.492,1.319,25.492,1.319" transform="translate(-15.739 -14.519)"/><path class="cls-30" d="M66.087,450.675V461.77H46.922v-2.017h0a2.825,2.825,0,0,1,1.908-2.672l3.514-.859,2.521-5.547Z" transform="translate(-15.739 -14.519)"/><path class="cls-30" d="M76.566,450.43v11.34H96.154v-2.062h0a2.888,2.888,0,0,0-1.951-2.731l-3.59-.877-2.578-5.67Z" transform="translate(-15.739 -14.519)"/><polygon class="cls-16" points="47.311 260.331 65.209 260.331 56.492 255.779 47.311 260.331"/><polygon class="cls-16" points="44.961 260.331 56.198 300.29 67.559 260.331 44.961 260.331"/><path class="cls-7" d="M78.6,252.819v.716a3.684,3.684,0,0,1-3.684,3.685H69.8a3.685,3.685,0,0,1-3.684-3.685v-.716" transform="translate(-15.739 -14.519)"/><polygon class="cls-31" points="76.595 382.905 35.268 382.905 30.566 324.809 81.297 324.809 76.595 382.905"/><polygon class="cls-16" points="50.152 252.841 45.647 256.298 47.311 260.382 56.492 255.831 50.152 252.841"/><polygon class="cls-16" points="62.368 252.841 66.801 256.518 65.209 260.382 56.492 255.831 62.368 252.841"/><path class="cls-24" d="M56.541,251h0a2.038,2.038,0,0,1-2.038-2.038V232.034a17.326,17.326,0,0,1,17.326-17.325h0a17.325,17.325,0,0,1,17.325,17.325v15.912a2.038,2.038,0,0,1-2.038,2.039h0v-1.529c0-5.383,1.157-21.517-7.951-21.517H65.494c-7.6,0-8.953,6.16-8.953,13.758Z" transform="translate(-15.739 -14.519)"/><polygon class="cls-10" points="70.018 224.634 65.126 224.634 62.8 214.651 62.775 224.634 42.966 224.634 42.966 212 70.018 212 70.018 224.634"/><polygon class="cls-24" points="70.018 223.067 65.126 223.067 62.8 213.084 62.775 223.067 42.966 223.067 42.966 210.433 70.018 210.433 70.018 223.067"/><path class="cls-24" d="M80.435,239.471a1.2,1.2,0,1,1-1.2-1.2A1.2,1.2,0,0,1,80.435,239.471Z" transform="translate(-15.739 -14.519)"/><path class="cls-24" d="M64.471,239.471a1.2,1.2,0,1,0,1.2-1.2A1.2,1.2,0,0,0,64.471,239.471Z" transform="translate(-15.739 -14.519)"/><polygon class="cls-32" points="80.497 334.39 81.231 325.363 30.632 325.363 31.354 334.25 80.497 334.39"/><path class="cls-31" d="M49.012,276.021l12.374-5.2L63.05,274.9l8.129,23.814L80.948,274.9l1.592-3.864,10.78,5a6.313,6.313,0,0,1,4.5,6.047l-7.052,33.955,8.227,28.206H43.365l9.4-28.207L44.54,282.059A6.312,6.312,0,0,1,49.012,276.021Z" transform="translate(-15.739 -14.519)"/><ellipse class="cls-8" cx="41.038" cy="338.583" rx="6.168" ry="8.913" transform="translate(-304.632 237.645) rotate(-68.411)"/><ellipse class="cls-8" cx="40.436" cy="334.048" rx="3.996" ry="5.47" transform="translate(-300.795 234.219) rotate(-68.411)"/><line class="cls-13" x1="13.026" y1="313.394" x2="20.571" y2="320.487"/><path class="cls-29" d="M52.571,282.163s-25.861,14.408-29.33,26.559c-2.708,9.481,7.683,23,7.683,23" transform="translate(-15.739 -14.519)"/><path class="cls-33" d="M273.482,284.428s-31.8,26.885-34.577,16.424c-1.2-4.511,14.377-21.818,14.377-21.818" transform="translate(-15.739 -14.519)"/><rect class="cls-8" x="285.737" y="252.991" width="11.753" height="27.325" rx="5.876" ry="5.876" transform="translate(594.723 485.542) rotate(173.765)"/><path class="cls-34" d="M279.338,239.976a11.276,11.276,0,0,1-7.075,12.659c-8.365,3.018-13.8-2.619-14.86-6.6,0,0,3.445.177,2.984-1.95a9.7,9.7,0,1,1,18.951-4.112Z" transform="translate(-15.739 -14.519)"/><path class="cls-8" d="M268.941,234.621l5.358,24.694a9.4,9.4,0,0,0,11.182,7.194h0l11.485-2.492a9.4,9.4,0,0,0,7.195-11.182L298.8,228.142l-15.18,2.091Z" transform="translate(-15.739 -14.519)"/><path class="cls-24" d="M297.978,240.739a1.2,1.2,0,1,1-1.427-.918A1.2,1.2,0,0,1,297.978,240.739Z" transform="translate(-15.739 -14.519)"/><path class="cls-24" d="M282.377,244.124a1.2,1.2,0,1,0,.918-1.427A1.2,1.2,0,0,0,282.377,244.124Z" transform="translate(-15.739 -14.519)"/><path class="cls-7" d="M298.375,253.374l.152.7a3.684,3.684,0,0,1-2.819,4.381l-.2.044-4.8,1.041h0a3.683,3.683,0,0,1-4.381-2.819l-.152-.7" transform="translate(-15.739 -14.519)"/><path class="cls-34" d="M272.7,252.008h0a2.038,2.038,0,0,1-2.424-1.56L267.687,238.5a17.325,17.325,0,0,1,13.258-20.605h0a17.324,17.324,0,0,1,20.605,13.258l2.378,10.956a2.039,2.039,0,0,1-1.56,2.424h0l-.324-1.494c-1.142-5.261-2.435-16.679-11.337-14.748l-13.359,2.9c-7.426,1.611-7.444,7.918-5.832,15.344Z" transform="translate(-15.739 -14.519)"/><path class="cls-35" d="M297.545,236.621s-2.212-5.719-5.424-5.755c.675,1.967-.726,8.167-.726,8.167s-3.624-6.313-6.063-6.7a47.737,47.737,0,0,1-.879,7.937s-2.957-4.763-5.349-6.073c.607,2.556-2.415,8.128-2.415,8.128s-3.256-10.1-6.707-9.695,25.036-10,27-7.734S297.545,236.621,297.545,236.621Z" transform="translate(-15.739 -14.519)"/><path class="cls-10" d="M297.784,238.812s-2.211-5.72-5.424-5.756c.675,1.967-.726,8.167-.726,8.167s-3.623-6.313-6.063-6.7a47.737,47.737,0,0,1-.879,7.937s-2.957-4.763-5.349-6.073c.608,2.556-2.414,8.128-2.414,8.128s-3.479-7.489-4.658-10.082c-1.44-3.164,22.986-9.618,24.948-7.347S297.784,238.812,297.784,238.812Z" transform="translate(-15.739 -14.519)"/><path class="cls-34" d="M297.545,236.621s-2.212-5.719-5.424-5.755c.675,1.967-.726,8.167-.726,8.167s-3.624-6.313-6.063-6.7a47.737,47.737,0,0,1-.879,7.937s-2.957-4.763-5.349-6.073c.607,2.556-2.415,8.128-2.415,8.128s-3.256-10.1-6.707-9.695,25.036-10,27-7.734S297.545,236.621,297.545,236.621Z" transform="translate(-15.739 -14.519)"/><ellipse class="cls-36" cx="249.276" cy="254.934" rx="2.764" ry="3.86" transform="translate(-93.295 97.899) rotate(-22.083)"/><rect class="cls-36" x="253.356" y="256.674" width="0.939" height="19.498" transform="translate(-97.281 100.452) rotate(-22.083)"/><path class="cls-8" d="M315.926,288.992c-1.376-12.6-12.058-20.189-24.069-18.877S271,280.627,272.6,295.3c1.377,12.6,11.137,18.724,23.22,18.724S317.3,301.59,315.926,288.992Z" transform="translate(-15.739 -14.519)"/><path class="cls-27" d="M307.029,387.109v14.364c0,21.516,3,57.5,3,57.5" transform="translate(-15.739 -14.519)"/><path class="cls-27" d="M282.173,388.109v13.578c0,17.235,1,56.506,1,56.506" transform="translate(-15.739 -14.519)"/><line class="cls-8" x1="270.13" y1="250.053" x2="281.813" y2="248.777"/><ellipse class="cls-8" cx="355.499" cy="239.592" rx="8.913" ry="6.168" transform="translate(-63.46 370.666) rotate(-53.832)"/><path class="cls-37" d="M311.011,277.1a236.512,236.512,0,0,0,27.355-6.738c13.326-4.273,12.42-25.254,12.42-25.254" transform="translate(-15.739 -14.519)"/><path class="cls-38" d="M289.191,446.129l.777,4.43a22.5,22.5,0,0,1,.379,7.83l-.063,1.708,0,.006a1.022,1.022,0,0,1-.892,1.345l-5.089.649a37,37,0,0,1-9.849.029l-3.981-.553a1.018,1.018,0,0,1-.876-1.421h0l.318-1.861c0-1.207.62-2.4,1.642-4.482l5.5-7.68Z" transform="translate(-15.739 -14.519)"/><polygon class="cls-39" points="257.459 326.495 260.934 379.075 271.869 379.075 277.547 342.652 282.321 342.6 285.806 377.291 296.775 377.291 302.742 327.371 278.498 325.081 257.459 326.495"/><ellipse class="cls-8" cx="256.254" cy="276.117" rx="9.123" ry="6.17" transform="translate(-134.291 223.821) rotate(-41.381)"/><ellipse class="cls-8" cx="251.926" cy="274.588" rx="5.598" ry="3.997" transform="translate(-126.723 344.693) rotate(-60.59)"/><path class="cls-40" d="M366.542,240.641l-10.149,3.2a3.023,3.023,0,0,1-3.663-1.95l-6.044-17.522,16.661-5.249,5.079,17.826A3.025,3.025,0,0,1,366.542,240.641Z" transform="translate(-15.739 -14.519)"/><path class="cls-41" d="M349.3,231.97l3.367,9.715c.6,1.881,2.118,2.66,3.621,2.186l10.378-3.269a2.971,2.971,0,0,0,1.7-3.862l-2.81-9.89Z" transform="translate(-15.739 -14.519)"/><rect class="cls-9" x="353.46" y="226.628" width="10.044" height="12.228" transform="translate(-69.108 103.957) rotate(-17.487)"/><path class="cls-42" d="M353.922,229.156a1.316,1.316,0,0,1,.223-.049.343.343,0,0,1,.141,0,.093.093,0,0,1,.063.062.069.069,0,0,1,0,.049.2.2,0,0,1-.049.061.109.109,0,0,0-.042.087c0,.028.029.128.079.3s.081.27.09.3a.718.718,0,0,1,.019.1.413.413,0,0,1-.043.251.5.5,0,0,1-.143.158.756.756,0,0,1-.214.108.889.889,0,0,1-.22.038.662.662,0,0,1-.208-.018.3.3,0,0,1-.137-.076.315.315,0,0,1-.083-.131.237.237,0,0,1,.01-.178.209.209,0,0,1,.131-.108.231.231,0,0,1,.166,0,.173.173,0,0,1,.1.112.281.281,0,0,1,.009.07l0,.022a.066.066,0,0,0,.038.042.083.083,0,0,0,.064,0,.122.122,0,0,0,.084-.089.274.274,0,0,0-.008-.161l-.029-.087-.074-.231c-.05-.14-.081-.222-.092-.245a.144.144,0,0,0-.04-.056.089.089,0,0,0-.033-.015.428.428,0,0,0-.065,0,.064.064,0,0,1-.048-.015.078.078,0,0,1-.03-.04.106.106,0,0,1,.014-.1.39.39,0,0,1,.116-.091A1.118,1.118,0,0,1,353.922,229.156Z" transform="translate(-15.739 -14.519)"/><path class="cls-42" d="M355.06,229.2a.542.542,0,0,1,.333,0,.508.508,0,0,1,.2.121.492.492,0,0,1,.13.207.451.451,0,0,1-.079.41.69.69,0,0,1-.369.267.538.538,0,0,1-.408-.015.435.435,0,0,1-.24-.282.478.478,0,0,1,.052-.418A.657.657,0,0,1,355.06,229.2Zm-.007.244a.087.087,0,0,0-.058.051.132.132,0,0,0,0,.09.925.925,0,0,0,.07.15,1.374,1.374,0,0,0,.106.157.107.107,0,0,0,.121.048c.057-.018.073-.062.05-.134a.831.831,0,0,0-.078-.174.79.79,0,0,0-.1-.15A.1.1,0,0,0,355.053,229.447Z" transform="translate(-15.739 -14.519)"/><path class="cls-42" d="M356.636,228.651a.057.057,0,0,1,.051.015.123.123,0,0,1,.037.056.264.264,0,0,1-.03.194c-.011.017-.015.03-.012.036l.009.024c.006.013.01.023.014.034a.277.277,0,0,1-.016.215.524.524,0,0,1-.143.162.739.739,0,0,1-.225.111.323.323,0,0,1-.063.016.248.248,0,0,0-.038.01.046.046,0,0,0-.035.065.062.062,0,0,0,.049.041.184.184,0,0,0,.1-.01.825.825,0,0,0,.108-.045,1.9,1.9,0,0,1,.223-.093.34.34,0,0,1,.186-.018.226.226,0,0,1,.166.154.31.31,0,0,1-.011.209.52.52,0,0,1-.2.235,1.025,1.025,0,0,1-.282.132.844.844,0,0,1-.362.045.31.31,0,0,1-.122-.049.19.19,0,0,1-.068-.092.128.128,0,0,1,0-.075.136.136,0,0,1,.038-.062c.016-.012.024-.023.021-.033s-.013-.015-.033-.022a.191.191,0,0,1-.118-.108.168.168,0,0,1,.007-.107.286.286,0,0,1,.067-.1c.013-.012.018-.021.016-.029s-.017-.02-.042-.032a.293.293,0,0,1-.164-.18.245.245,0,0,1,0-.132.332.332,0,0,1,.065-.13.635.635,0,0,1,.308-.205.906.906,0,0,1,.171-.034.842.842,0,0,0,.124-.019.352.352,0,0,0,.18-.147C356.618,228.663,356.627,228.654,356.636,228.651Zm-.454.359a.1.1,0,0,0-.065.061.149.149,0,0,0,0,.1.4.4,0,0,0,.083.154.1.1,0,0,0,.1.038.1.1,0,0,0,.067-.065.164.164,0,0,0,0-.111.339.339,0,0,0-.08-.149A.108.108,0,0,0,356.182,229.01Zm.065.929c-.016,0-.02.016-.015.035a.106.106,0,0,0,.09.072.422.422,0,0,0,.306-.086.08.08,0,0,0,.031-.085.057.057,0,0,0-.033-.035.074.074,0,0,0-.055,0l-.042.018a.935.935,0,0,1-.116.046.656.656,0,0,1-.1.023.3.3,0,0,1-.056.011Z" transform="translate(-15.739 -14.519)"/><path class="cls-42" d="M357.2,228.2l.113.4c.013.047.035.067.065.058s.027-.02.035-.046a.3.3,0,0,1,.205-.21.333.333,0,0,1,.268.015.258.258,0,0,1,.088.08.649.649,0,0,1,.068.155l.116.34a.177.177,0,0,0,.033.06.169.169,0,0,0,.067.037.071.071,0,0,1,.045.043c.021.07-.072.135-.278.2-.183.058-.285.055-.305-.008a.057.057,0,0,1,0-.028c0-.007.008-.025.018-.055a.538.538,0,0,0-.042-.274.557.557,0,0,0-.081-.177.123.123,0,0,0-.137-.043.106.106,0,0,0-.073.069.243.243,0,0,0,.016.12l.059.184a1.112,1.112,0,0,0,.054.134.257.257,0,0,0,.063.046.071.071,0,0,1,.032.04c.022.073-.059.136-.245.2-.218.068-.338.065-.361-.007a.062.062,0,0,1,0-.044.26.26,0,0,1,.037-.058.217.217,0,0,0,.007-.154,3.817,3.817,0,0,0-.1-.377,2.159,2.159,0,0,0-.1-.279.074.074,0,0,0-.027-.038.12.12,0,0,0-.046-.017c-.046-.008-.073-.025-.081-.052a.093.093,0,0,1,.021-.091.651.651,0,0,1,.151-.117,1.151,1.151,0,0,1,.256-.135Q357.185,228.149,357.2,228.2Z" transform="translate(-15.739 -14.519)"/><path class="cls-42" d="M358.623,228.142l.162.515c.035.109.089.152.161.129a.094.094,0,0,0,.05-.033.1.1,0,0,0,.025-.051.634.634,0,0,0-.044-.208,1.335,1.335,0,0,0-.078-.209.066.066,0,0,0-.023-.031.129.129,0,0,0-.044-.013.088.088,0,0,1-.077-.057c-.013-.039.011-.074.067-.109a1.5,1.5,0,0,1,.334-.154c.065-.02.107,0,.129.073a.412.412,0,0,1,.012.042c.009.031.019.068.032.111l.132.419c.007.02.032.035.074.04a.079.079,0,0,1,.068.053c.017.057-.037.122-.162.2a1.048,1.048,0,0,1-.22.1.136.136,0,0,1-.066.009.054.054,0,0,1-.032-.035c-.016-.038-.034-.054-.055-.047a.045.045,0,0,0-.019.011.731.731,0,0,0-.046.057.378.378,0,0,1-.186.13.308.308,0,0,1-.289-.023.554.554,0,0,1-.158-.278l-.04-.132-.015-.045a.35.35,0,0,0-.052-.114.108.108,0,0,0-.073-.043.189.189,0,0,1-.056-.018.048.048,0,0,1-.02-.028c-.014-.047.012-.09.079-.129a1.728,1.728,0,0,1,.359-.158C358.589,228.1,358.613,228.111,358.623,228.142Z" transform="translate(-15.739 -14.519)"/><path class="cls-42" d="M359.849,227.7c.033-.01.055-.014.065-.006a.281.281,0,0,1,.048.085c.012.027.026.039.043.033s.021-.017.027-.038a.236.236,0,0,1,.161-.182.2.2,0,0,1,.159.011.246.246,0,0,1,.066.056.25.25,0,0,1,.044.079.261.261,0,0,1,.008.1.227.227,0,0,1-.031.094.212.212,0,0,1-.13.1.192.192,0,0,1-.086.009.422.422,0,0,1-.109-.042.067.067,0,0,0-.043-.01.039.039,0,0,0-.025.042.626.626,0,0,0,.032.128,1.193,1.193,0,0,0,.071.194.112.112,0,0,0,.032.033.153.153,0,0,0,.057.006c.063,0,.1.019.114.062a.1.1,0,0,1-.006.077.129.129,0,0,1-.061.061,1.529,1.529,0,0,1-.262.1.863.863,0,0,1-.264.05.1.1,0,0,1-.107-.067.112.112,0,0,1,.029-.106.19.19,0,0,0,.028-.044.1.1,0,0,0,0-.046,2.248,2.248,0,0,0-.085-.324.159.159,0,0,0-.029-.058.07.07,0,0,0-.047-.019c-.051,0-.082-.022-.093-.056a.1.1,0,0,1,.023-.093.6.6,0,0,1,.135-.112A.939.939,0,0,1,359.849,227.7Z" transform="translate(-15.739 -14.519)"/><path class="cls-42" d="M361.113,227.571l.1.32a.15.15,0,0,0,.058.084.089.089,0,0,0,.083.015.242.242,0,0,0,.086-.066.065.065,0,0,1,.027-.017.06.06,0,0,1,.049.013.106.106,0,0,1,.038.054.152.152,0,0,1-.029.134.511.511,0,0,1-.29.219.369.369,0,0,1-.271-.009.313.313,0,0,1-.163-.2l-.138-.438a.048.048,0,0,0-.015-.026.046.046,0,0,0-.028,0l-.1.03c-.018.006-.03.008-.037,0a.1.1,0,0,1-.021-.041l-.014-.043a.051.051,0,0,1,.009-.048l.349-.41a.078.078,0,0,1,.037-.021l.077-.024a.037.037,0,0,1,.035,0,.07.07,0,0,1,.022.04l.041.128c0,.018.012.029.019.032s.023,0,.042,0l.175-.056a.074.074,0,0,1,.051,0,.106.106,0,0,1,.027.051l.018.056a.122.122,0,0,1,.006.068.057.057,0,0,1-.043.033l-.171.055c-.018,0-.03.011-.034.02A.059.059,0,0,0,361.113,227.571Z" transform="translate(-15.739 -14.519)"/><polygon class="cls-9" points="331.458 209.982 341.232 195.558 339.842 194.589 330.042 209.05 331.458 209.982"/><ellipse class="cls-8" cx="350.958" cy="239.033" rx="5.47" ry="3.996" transform="translate(-64.87 366.771) rotate(-53.832)"/><path class="cls-38" d="M314.062,445.221a1.327,1.327,0,0,1,1.638-.174l7.318,4.638c.343.371,8.654,4.157,9.444,4.516.044.021.083.041.125.066,2.627,1.53,3.333,2.6,3.354,5.245h0a1.326,1.326,0,0,1-1.034,1.447l-4.144.9q-.046.011-.093.018a73.851,73.851,0,0,1-23.664-.117l-5.379-.9a1.326,1.326,0,0,1-1.049-1.695l.426-1.392a1.32,1.32,0,0,0,0-.765l-.217-.731a14.68,14.68,0,0,1-.359-6.869l.407-2.18a1.325,1.325,0,0,1,1.278-1.083l.816-.015a1.373,1.373,0,0,1,.923.354,6.56,6.56,0,0,0,9.241-.319Z" transform="translate(-15.739 -14.519)"/><polygon class="cls-43" points="257.909 333.298 302.013 333.436 302.742 327.236 278.498 325.014 257.459 326.326 257.909 333.298"/><path class="cls-44" d="M271.419,278.706l10.348-4.789h0a11.37,11.37,0,0,0,20.931-1.7l.123-.378,10.224,1.545a6.313,6.313,0,0,1,5.129,5.522l-3.045,29.932,3.939,33.837H271.274l6.065-29.966-9.71-27.515A6.313,6.313,0,0,1,271.419,278.706Z" transform="translate(-15.739 -14.519)"/><line class="cls-45" x1="433.148" y1="421.735" x2="433.148" y2="443.674"/><line class="cls-45" x1="411.993" y1="421.735" x2="411.993" y2="443.674"/><path class="cls-46" d="M449.279,343.016s1.567,40.743,1.567,52.887-1.567,49.754-1.567,49.754" transform="translate(-15.739 -14.519)"/><path class="cls-46" d="M428.124,343.016s-1.021,39.479-1.567,54.41,1.567,48.231,1.567,48.231" transform="translate(-15.739 -14.519)"/><path class="cls-47" d="M433.853,448.842V461.77h-22.33v-2.351h0a3.29,3.29,0,0,1,2.224-3.112l4.093-1,2.939-6.464Z" transform="translate(-15.739 -14.519)"/><path class="cls-47" d="M441.982,448.842V461.77h22.33v-2.351h0a3.289,3.289,0,0,0-2.223-3.112l-4.094-1-2.938-6.464Z" transform="translate(-15.739 -14.519)"/><rect class="cls-47" x="444.725" y="210.947" width="12.904" height="28.99" rx="4.701" ry="4.701" transform="translate(886.615 436.364) rotate(-180)"/><path class="cls-8" d="M423.668,215.55v29.969a9.4,9.4,0,0,0,9.4,9.4h11.753a9.4,9.4,0,0,0,9.4-9.4V215.55Z" transform="translate(-15.739 -14.519)"/><rect class="cls-8" x="432.678" y="245.617" width="11.753" height="27.325" rx="5.876" ry="5.876" transform="translate(861.37 504.04) rotate(180)"/><path class="cls-47" d="M423.668,221.648a5.118,5.118,0,0,1,5.118-5.119h21.925a8.19,8.19,0,0,0,8.191-8.19v-.024a8.191,8.191,0,0,0-8.142-8.191h0v.833a3.819,3.819,0,0,1-3.819,3.819H431.772a5.877,5.877,0,0,0-5.876,5.877h.147a5.877,5.877,0,0,0-5.877,5.876h0V235c0,2.566.906,4.647,3.472,4.647" transform="translate(-15.739 -14.519)"/><path class="cls-8" d="M439.112,228.331l3.742,6.455a2.354,2.354,0,0,1-2.037,3.535h-1.85S438.75,228.693,439.112,228.331Z" transform="translate(-15.739 -14.519)"/><ellipse class="cls-47" cx="422.324" cy="328.546" rx="27.523" ry="14.297"/><rect class="cls-47" x="423.597" y="226.323" width="30.61" height="1.233" transform="translate(862.066 439.36) rotate(-180)"/><path class="cls-47" d="M439.253,228.469l.719,1.618a3.748,3.748,0,0,0,3.474,2.227h0a14.82,14.82,0,0,0,4.774-.024l.238-.04a3.749,3.749,0,0,0,3.516-2.584l.489-1.494a2.611,2.611,0,0,0-1.986-3.375l-3.607-.732a7.061,7.061,0,0,0-2.752.047l-3.1.761A2.612,2.612,0,0,0,439.253,228.469Z" transform="translate(-15.739 -14.519)"/><path class="cls-7" d="M440.629,228.418l.568,1.279a2.964,2.964,0,0,0,2.745,1.759h0a11.729,11.729,0,0,0,3.772-.019l.188-.031a2.963,2.963,0,0,0,2.779-2.042l.386-1.181a2.063,2.063,0,0,0-1.569-2.667l-2.85-.578a5.567,5.567,0,0,0-2.175.036l-2.451.6A2.063,2.063,0,0,0,440.629,228.418Z" transform="translate(-15.739 -14.519)"/><path class="cls-47" d="M424.814,228.469l.719,1.618a3.75,3.75,0,0,0,3.475,2.227h0a14.814,14.814,0,0,0,4.773-.024l.238-.04a3.748,3.748,0,0,0,3.516-2.584l.489-1.494a2.611,2.611,0,0,0-1.986-3.375l-3.607-.732a7.061,7.061,0,0,0-2.752.047l-3.1.761A2.611,2.611,0,0,0,424.814,228.469Z" transform="translate(-15.739 -14.519)"/><path class="cls-7" d="M426.19,228.418l.568,1.279a2.964,2.964,0,0,0,2.746,1.759h0a11.729,11.729,0,0,0,3.772-.019l.188-.031a2.963,2.963,0,0,0,2.778-2.042l.386-1.181a2.063,2.063,0,0,0-1.569-2.667l-2.85-.578a5.567,5.567,0,0,0-2.175.036l-2.451.6A2.063,2.063,0,0,0,426.19,228.418Z" transform="translate(-15.739 -14.519)"/><polygon class="cls-16" points="416.253 254.846 429.45 254.846 423.084 250.295 416.253 254.846"/><polygon class="cls-16" points="416.253 254.846 422.816 294.805 429.45 254.846 416.253 254.846"/><polygon class="cls-17" points="422.816 319.146 426.613 313.927 424.579 255.02 427.553 252.73 423.084 249.954 418.121 252.626 421.126 255.093 419.045 313.922 422.816 319.146"/><polygon class="cls-16" points="416.743 246.964 412.238 250.422 416.253 254.506 423.084 249.954 416.743 246.964"/><polygon class="cls-16" points="428.96 246.964 433.393 250.642 429.45 254.506 423.084 249.954 428.96 246.964"/><path class="cls-47" d="M410.9,270.144l17.074-5.2,4.015,4.084,6.563,39.959,6.634-39.959,3.943-3.864,16.656,5a6.313,6.313,0,0,1,4.5,6.046v67.417H406.43V276.183A6.314,6.314,0,0,1,410.9,270.144Z" transform="translate(-15.739 -14.519)"/><path class="cls-7" d="M442.783,245.949v.553a2.843,2.843,0,0,1-2.842,2.842h-3.948a2.843,2.843,0,0,1-2.842-2.842v-.553" transform="translate(-15.739 -14.519)"/><ellipse class="cls-8" cx="454.261" cy="310.809" rx="3.996" ry="5.47" transform="translate(50.325 686.493) rotate(-79.528)"/><path class="cls-40" d="M453.22,311.8l-10.641-.066a3.023,3.023,0,0,1-2.889-2.979l-.385-18.531,17.468.108-.627,18.526A3.023,3.023,0,0,1,453.22,311.8Z" transform="translate(-15.739 -14.519)"/><path class="cls-41" d="M439.463,298.265l.228,10.279c-.009,1.973,1.2,3.181,2.777,3.19l10.88.068a2.971,2.971,0,0,0,2.8-3.156l.356-10.275Z" transform="translate(-15.739 -14.519)"/><rect class="cls-9" x="442.945" y="295.699" width="10.044" height="12.228" transform="translate(-13.854 -17.298) rotate(0.356)"/><path class="cls-42" d="M444.7,296.911a1.27,1.27,0,0,1,.228.02.368.368,0,0,1,.134.045.089.089,0,0,1,.041.077.069.069,0,0,1-.015.048.226.226,0,0,1-.066.042.109.109,0,0,0-.066.07c-.006.027-.012.131-.018.313s0,.281-.007.316a.677.677,0,0,1-.013.1.423.423,0,0,1-.118.228.532.532,0,0,1-.185.106.744.744,0,0,1-.237.037.884.884,0,0,1-.221-.03.656.656,0,0,1-.191-.083.308.308,0,0,1-.109-.112.327.327,0,0,1-.038-.153.226.226,0,0,1,.064-.163.207.207,0,0,1,.158-.065.233.233,0,0,1,.156.056.171.171,0,0,1,.064.138.338.338,0,0,1-.012.069l0,.022a.063.063,0,0,0,.023.051.082.082,0,0,0,.059.022.128.128,0,0,0,.109-.06.279.279,0,0,0,.041-.156v-.335c0-.147-.008-.234-.01-.261a.147.147,0,0,0-.023-.065.089.089,0,0,0-.026-.026.434.434,0,0,0-.063-.019.07.07,0,0,1-.04-.027.1.1,0,0,1,.026-.135.345.345,0,0,1,.138-.052A1.072,1.072,0,0,1,444.7,296.911Z" transform="translate(-15.739 -14.519)"/><path class="cls-42" d="M445.77,297.3a.546.546,0,0,1,.32.1.523.523,0,0,1,.157.176.5.5,0,0,1,.06.238.453.453,0,0,1-.2.366.7.7,0,0,1-.433.142.553.553,0,0,1-.385-.138.448.448,0,0,1-.141-.344.483.483,0,0,1,.177-.383A.667.667,0,0,1,445.77,297.3Zm-.081.229a.083.083,0,0,0-.07.033.134.134,0,0,0-.027.086.966.966,0,0,0,.021.162,1.137,1.137,0,0,0,.053.182c.021.055.053.083.1.083s.09-.038.09-.112a.86.86,0,0,0-.022-.19.728.728,0,0,0-.053-.173A.107.107,0,0,0,445.689,297.533Z" transform="translate(-15.739 -14.519)"/><path class="cls-42" d="M447.439,297.261a.058.058,0,0,1,.044.029.122.122,0,0,1,.018.067.236.236,0,0,1-.025.093.262.262,0,0,1-.063.081c-.015.013-.022.024-.022.032l0,.023a.269.269,0,0,1,0,.038.276.276,0,0,1-.081.2.487.487,0,0,1-.185.11.761.761,0,0,1-.249.038c-.022,0-.043,0-.065,0a.231.231,0,0,0-.04,0,.046.046,0,0,0-.052.053.059.059,0,0,0,.034.053.2.2,0,0,0,.093.02.987.987,0,0,0,.117-.011,2.112,2.112,0,0,1,.242-.021.368.368,0,0,1,.181.04.231.231,0,0,1,.082.085.229.229,0,0,1,.029.115.315.315,0,0,1-.074.195.528.528,0,0,1-.259.164,1.063,1.063,0,0,1-.309.04.828.828,0,0,1-.358-.071.279.279,0,0,1-.1-.084.18.18,0,0,1-.037-.107.133.133,0,0,1,.022-.072.128.128,0,0,1,.054-.047c.02-.008.031-.017.031-.026s-.009-.018-.026-.032a.189.189,0,0,1-.078-.138.166.166,0,0,1,.039-.1.247.247,0,0,1,.1-.078q.024-.012.024-.024c0-.009-.009-.023-.029-.043a.29.29,0,0,1-.1-.22.24.24,0,0,1,.037-.128.3.3,0,0,1,.1-.1.631.631,0,0,1,.355-.1.836.836,0,0,1,.174.021.8.8,0,0,0,.124.019.347.347,0,0,0,.216-.085A.079.079,0,0,1,447.439,297.261Zm-.764,1.108c-.017,0-.025.008-.026.028a.111.111,0,0,0,.064.1.336.336,0,0,0,.165.037.375.375,0,0,0,.153-.025.081.081,0,0,0,.055-.073.055.055,0,0,0-.02-.042.074.074,0,0,0-.051-.018l-.046,0a.776.776,0,0,1-.124.009.766.766,0,0,1-.1-.007.354.354,0,0,1-.057-.008Zm.222-.905a.1.1,0,0,0-.08.038.155.155,0,0,0-.031.1.406.406,0,0,0,.031.173.1.1,0,0,0,.17.025.17.17,0,0,0,.033-.108.34.34,0,0,0-.032-.165A.1.1,0,0,0,446.9,297.464Z" transform="translate(-15.739 -14.519)"/><path class="cls-42" d="M448.113,297l-.014.417c0,.05.012.075.045.075a.062.062,0,0,0,.046-.033.3.3,0,0,1,.259-.138.336.336,0,0,1,.252.1.247.247,0,0,1,.058.1.643.643,0,0,1,.018.168l.007.359a.167.167,0,0,0,.012.069.2.2,0,0,0,.053.054.074.074,0,0,1,.029.056c0,.072-.109.106-.325.105-.193,0-.289-.035-.288-.1a.06.06,0,0,1,0-.026l.035-.047a.548.548,0,0,0,.044-.274.536.536,0,0,0-.025-.193.117.117,0,0,0-.116-.083.1.1,0,0,0-.091.043.26.26,0,0,0-.021.12v.191c0,.085.008.134.01.145a.239.239,0,0,0,.046.062.072.072,0,0,1,.019.049c0,.075-.1.112-.293.11-.229,0-.343-.04-.342-.118a.065.065,0,0,1,.012-.041.229.229,0,0,1,.054-.043.22.22,0,0,0,.052-.145,3.565,3.565,0,0,0,.018-.391,2.28,2.28,0,0,0-.011-.3.115.115,0,0,0-.013-.046.129.129,0,0,0-.04-.029c-.041-.022-.062-.047-.062-.074a.1.1,0,0,1,.048-.081.7.7,0,0,1,.179-.065,1.143,1.143,0,0,1,.287-.048C448.1,296.952,448.116,296.968,448.113,297Z" transform="translate(-15.739 -14.519)"/><path class="cls-42" d="M449.486,297.385l0,.539c0,.116.037.174.113.174a.123.123,0,0,0,.057-.016.079.079,0,0,0,.039-.04.633.633,0,0,0,.024-.213,1.421,1.421,0,0,0-.01-.223.06.06,0,0,0-.014-.036.12.12,0,0,0-.038-.027.089.089,0,0,1-.056-.076c0-.041.034-.07.1-.085a1.538,1.538,0,0,1,.366-.044c.067,0,.1.037.1.108l0,.045c0,.032,0,.07,0,.116l0,.439c0,.023.02.043.057.062a.075.075,0,0,1,.049.069c0,.06-.071.107-.213.138a1.073,1.073,0,0,1-.241.027.132.132,0,0,1-.065-.012.052.052,0,0,1-.02-.043c0-.041-.016-.061-.037-.061a.04.04,0,0,0-.022.006c-.007,0-.027.015-.062.039a.372.372,0,0,1-.216.067.307.307,0,0,1-.269-.112.548.548,0,0,1-.064-.312c0-.053,0-.1,0-.138s0-.038,0-.046a.381.381,0,0,0-.015-.126.126.126,0,0,0-.056-.065.146.146,0,0,1-.049-.031.05.05,0,0,1-.011-.033c0-.051.039-.084.116-.1a1.783,1.783,0,0,1,.39-.041C449.467,297.334,449.486,297.352,449.486,297.385Z" transform="translate(-15.739 -14.519)"/><path class="cls-42" d="M450.787,297.342c.035,0,.057,0,.064.015a.3.3,0,0,1,.02.095c0,.03.013.044.03.045s.026-.009.039-.028a.239.239,0,0,1,.207-.124.2.2,0,0,1,.149.06.215.215,0,0,1,.045.074.234.234,0,0,1,.018.087.218.218,0,0,1-.023.1.246.246,0,0,1-.057.082.219.219,0,0,1-.157.059.174.174,0,0,1-.084-.018.458.458,0,0,1-.09-.074.061.061,0,0,0-.039-.02c-.018,0-.03.01-.036.03a.579.579,0,0,0-.01.132,1.206,1.206,0,0,0,.01.2.092.092,0,0,0,.02.041.1.1,0,0,0,.052.024c.06.018.089.049.089.094a.1.1,0,0,1-.029.071.143.143,0,0,1-.077.04,1.451,1.451,0,0,1-.281.018.889.889,0,0,1-.267-.032c-.055-.019-.082-.051-.081-.1a.116.116,0,0,1,.06-.093.13.13,0,0,0,.04-.034.09.09,0,0,0,.016-.042,2.441,2.441,0,0,0,.018-.335.163.163,0,0,0-.01-.064.075.075,0,0,0-.039-.032c-.047-.019-.07-.045-.07-.081a.1.1,0,0,1,.049-.082.6.6,0,0,1,.163-.067A.991.991,0,0,1,450.787,297.342Z" transform="translate(-15.739 -14.519)"/><path class="cls-42" d="M452.032,297.605l0,.336a.142.142,0,0,0,.029.1.09.09,0,0,0,.075.039.218.218,0,0,0,.1-.036.068.068,0,0,1,.031-.008.052.052,0,0,1,.043.03.1.1,0,0,1,.019.062.156.156,0,0,1-.068.118.509.509,0,0,1-.343.119.364.364,0,0,1-.256-.093.309.309,0,0,1-.095-.237l0-.46a.057.057,0,0,0,0-.029.05.05,0,0,0-.028,0h-.1c-.02,0-.033,0-.038-.009a.082.082,0,0,1-.007-.044v-.044a.048.048,0,0,1,.022-.044l.458-.283a.09.09,0,0,1,.042-.009h.08c.017,0,.029,0,.033.012a.075.075,0,0,1,.009.045v.134c0,.021,0,.033.009.039a.061.061,0,0,0,.04.009h.184c.025,0,.041,0,.047.015a.091.091,0,0,1,.012.056v.06a.118.118,0,0,1-.015.065.062.062,0,0,1-.051.018h-.18a.06.06,0,0,0-.038.01A.053.053,0,0,0,452.032,297.605Z" transform="translate(-15.739 -14.519)"/><circle class="cls-41" cx="421.9" cy="239.776" r="2.016"/><path class="cls-36" d="M437.274,257.077c-2.857.048-3.809-2.916-3.809-2.916l8.185.168A4.86,4.86,0,0,1,437.274,257.077Z" transform="translate(-15.739 -14.519)"/><rect class="cls-36" x="424.441" y="244.894" width="0.939" height="19.498" transform="translate(663.185 -185.163) rotate(89.915)"/><ellipse class="cls-8" cx="451.343" cy="314.333" rx="6.168" ry="8.913" transform="translate(44.472 686.508) rotate(-79.528)"/><line class="cls-13" x1="453.528" y1="298.092" x2="442.875" y2="299.38"/><path class="cls-46" d="M462.58,276.762s21.764,4.748,21.764,18.655c0,14.107-20.969,18.392-20.969,18.392" transform="translate(-15.739 -14.519)"/><ellipse class="cls-8" cx="414.049" cy="256.129" rx="8.913" ry="6.168" transform="translate(-35.426 20.451) rotate(-4.724)"/><ellipse class="cls-8" cx="411.499" cy="252.33" rx="5.47" ry="3.996" transform="translate(-35.122 20.228) rotate(-4.724)"/><line class="cls-13" x1="375.535" y1="243.375" x2="391.901" y2="241.6"/><path class="cls-46" d="M411.745,278.662s-28.4,8.724-28.272-6.946c.119-14.429,16.3-14.689,16.3-14.689" transform="translate(-15.739 -14.519)"/><path class="cls-48" d="M412.829,348.776H463.3a9.061,9.061,0,0,0,2.262-5.155H410.567A9.061,9.061,0,0,0,412.829,348.776Z" transform="translate(-15.739 -14.519)"/></svg>