<svg id="Layer_1" data-name="Layer 1" xmlns="http://www.w3.org/2000/svg" xmlns:xlink="http://www.w3.org/1999/xlink" viewBox="0 0 1083.507 472.454"><defs><style>.cls-1,.cls-27,.cls-30,.cls-31,.cls-47,.cls-48,.cls-52{fill:none;}.cls-2{fill:#e5f7f9;}.cls-3{fill:#b6dfdc;}.cls-4{fill:#707a96;}.cls-5{fill:#34485f;}.cls-20,.cls-6{fill:#dac8b5;}.cls-7{fill:#988064;}.cls-8{fill:#667382;}.cls-9{fill:#345165;}.cls-10{fill:#667173;}.cls-11{fill:#9ea3a6;}.cls-12{fill:#4f5662;}.cls-13{fill:#445667;}.cls-14{fill:#666e7c;}.cls-15{fill:#a7a7a7;}.cls-16{fill:#44546d;}.cls-17{fill:#878e98;}.cls-18{fill:#caa13f;}.cls-19{fill:#354256;}.cls-20{stroke:#988064;stroke-width:2px;}.cls-20,.cls-27,.cls-28,.cls-30,.cls-31,.cls-47,.cls-48,.cls-52{stroke-miterlimit:10;}.cls-21{fill:#d8bcb2;}.cls-22{fill:#ac958d;}.cls-23{fill:#5d5263;}.cls-24{fill:#e2f2f0;}.cls-25{fill:#cfc2c9;}.cls-26,.cls-38{fill:#fff;}.cls-26{opacity:0.11;}.cls-27{stroke:#48404d;}.cls-27,.cls-30{stroke-width:14px;}.cls-28{fill:#8f8490;}.cls-28,.cls-48{stroke:#5d5263;}.cls-28,.cls-31,.cls-48{stroke-width:18px;}.cls-29{fill:#48404d;}.cls-30{stroke:#4b4b4b;}.cls-31{stroke:#606060;}.cls-32{fill:#4b4b4b;}.cls-33{fill:#f6f8f8;}.cls-34{fill:#616161;}.cls-35{fill:#b6bcc4;}.cls-36{isolation:isolate;}.cls-37{clip-path:url(#clip-path);}.cls-39{fill:#797979;}.cls-40{fill:#787878;}.cls-41{fill:#3f3f3f;}.cls-42{fill:#dbc8b5;}.cls-43{fill:#536070;}.cls-44{fill:#ad9f8e;}.cls-45{fill:#aca3ac;}.cls-46{fill:#c1c1c1;}.cls-47{stroke:#e5e9f0;stroke-width:15px;}.cls-49{fill:#e5e9f0;}.cls-50{fill:#606060;}.cls-51{fill:#1fbd85;}.cls-52{stroke:#1fbd85;stroke-width:1.449px;}.cls-53{fill:#e4e4e4;}.cls-54{fill:#e5e8e9;}</style><clipPath id="clip-path" transform="translate(-1.822 -9.612)"><polygon class="cls-1" points="215.056 340.235 224.827 297.012 281.345 297.012 271.574 340.235 215.056 340.235"/></clipPath></defs><title>8_illu_m</title><polyline class="cls-2" points="0.315 0.035 1083.315 0.035 1083.315 445.035 0.315 445.035"/><polygon class="cls-3" points="1032.315 131.035 1032.315 128.035 1020.315 128.035 1020.315 131.035 1012.315 131.035 1012.315 119.035 996.315 119.035 996.315 189.035 920.315 189.035 920.315 158.035 907.315 158.035 907.315 169.035 907.315 303.642 691.952 303.642 691.952 251.223 598.227 251.223 598.227 303.642 143.315 303.642 143.315 103.035 57.315 103.035 57.315 53.035 45.315 53.035 45.315 44.035 37.315 44.035 37.315 78.035 0.315 78.035 0.315 445.035 143.315 445.035 143.315 402.909 907.315 402.909 907.315 445.035 1083.315 445.035 1083.315 131.035 1032.315 131.035"/><rect class="cls-4" x="0.315" y="386.294" width="1083" height="58.741"/><rect class="cls-5" x="613.921" y="353.073" width="386.823" height="28.59" transform="translate(1612.842 725.123) rotate(-180)"/><path class="cls-6" d="M999.987,389.925h21.562a3.207,3.207,0,0,0,3.2-2.983l1.145-18.362a4.479,4.479,0,0,0-2.219-4.187l-2.017-1.171,2.1-3.431h1.585a3.7,3.7,0,0,0,3.7-3.7v-11a1.735,1.735,0,0,0-1.735-1.735h-.838v-6.133a60.363,60.363,0,0,0-1.483-13.3l-7.673-33.961a30.085,30.085,0,0,0-1.544-4.867L1010,271.132a13.839,13.839,0,0,0-12.786-8.547H941.419V350.69l33.307,3.812c10.507,0,24.418,12.151,24.418,25.01Z" transform="translate(-1.822 -9.612)"/><path class="cls-7" d="M1016.882,288.26q.243.842.436,1.7l7.673,33.961q.525,2.325.865,4.682h0a2.723,2.723,0,0,1-2.359-1.363l-2.026-3.518-9.578-35.07-3.335-2.478H952.521v-.729a2.843,2.843,0,0,1,2.893-2.842h59.329Z" transform="translate(-1.822 -9.612)"/><path class="cls-6" d="M994.31,360.077h27.161V323.768l-7.7-33.18a5.7,5.7,0,0,0-5.557-4.416H974.44v64.47l2.381-.027c6.959,0,13.677,4.03,16.722,8.5Z" transform="translate(-1.822 -9.612)"/><path class="cls-6" d="M974.44,319.765H959.157a6.636,6.636,0,0,1-6.636-6.636V286.172H974.44Z" transform="translate(-1.822 -9.612)"/><rect class="cls-7" x="939.315" y="332.035" width="86" height="2"/><rect class="cls-7" x="939.315" y="325.035" width="86" height="5"/><polygon class="cls-7" points="939.595 252.974 939.595 242.062 984.395 250.448 984.395 252.974 939.595 252.974"/><path class="cls-8" d="M1011.587,294.5l3.737,27.408L979.4,319.622V290.461h27.561A4.673,4.673,0,0,1,1011.587,294.5Z" transform="translate(-1.822 -9.612)"/><polygon class="cls-6" points="984.41 251.401 984.41 247.78 939.595 228.053 939.595 243.586 984.41 251.401"/><circle class="cls-9" cx="965.042" cy="374.052" r="23.587"/><circle class="cls-10" cx="965.042" cy="374.052" r="13.294"/><circle class="cls-11" cx="965.042" cy="374.052" r="10.031"/><circle class="cls-12" cx="965.042" cy="374.052" r="5.823"/><circle class="cls-12" cx="961.929" cy="366.662" r="1.402"/><circle class="cls-12" cx="966.455" cy="366.157" r="1.402"/><circle class="cls-12" cx="970.457" cy="368.144" r="1.402"/><circle class="cls-12" cx="972.765" cy="371.943" r="1.402"/><circle class="cls-12" cx="972.633" cy="376.561" r="1.402"/><circle class="cls-12" cx="970.118" cy="380.213" r="1.402"/><circle class="cls-12" cx="965.99" cy="381.975" r="1.402"/><circle class="cls-12" cx="961.466" cy="381.188" r="1.402"/><circle class="cls-12" cx="958.212" cy="378.196" r="1.402"/><circle class="cls-12" cx="957.047" cy="373.789" r="1.402"/><circle class="cls-12" cx="958.473" cy="369.466" r="1.402"/><circle class="cls-12" cx="961.929" cy="366.662" r="1.402"/><circle class="cls-9" cx="742.612" cy="374.052" r="23.587"/><circle class="cls-10" cx="743.184" cy="374.052" r="13.294"/><circle class="cls-11" cx="743.184" cy="374.052" r="10.031"/><circle class="cls-12" cx="743.184" cy="374.052" r="5.823"/><circle class="cls-12" cx="740.07" cy="366.662" r="1.402"/><circle class="cls-12" cx="744.597" cy="366.157" r="1.402"/><circle class="cls-12" cx="748.599" cy="368.144" r="1.402"/><circle class="cls-12" cx="750.907" cy="371.943" r="1.402"/><circle class="cls-12" cx="750.774" cy="376.561" r="1.402"/><circle class="cls-12" cx="748.26" cy="380.213" r="1.402"/><circle class="cls-12" cx="744.132" cy="381.975" r="1.402"/><circle class="cls-12" cx="739.607" cy="381.188" r="1.402"/><circle class="cls-12" cx="736.353" cy="378.196" r="1.402"/><circle class="cls-12" cx="735.189" cy="373.789" r="1.402"/><circle class="cls-12" cx="736.615" cy="369.466" r="1.402"/><circle class="cls-12" cx="740.07" cy="366.662" r="1.402"/><circle class="cls-9" cx="681.143" cy="374.052" r="23.587"/><circle class="cls-10" cx="681.143" cy="374.052" r="13.294"/><circle class="cls-11" cx="681.143" cy="374.052" r="10.031"/><circle class="cls-12" cx="681.143" cy="374.052" r="5.823"/><circle class="cls-12" cx="678.03" cy="366.662" r="1.402"/><circle class="cls-12" cx="682.557" cy="366.157" r="1.402"/><circle class="cls-12" cx="686.558" cy="368.144" r="1.402"/><circle class="cls-12" cx="688.867" cy="371.943" r="1.402"/><circle class="cls-12" cx="688.734" cy="376.561" r="1.402"/><circle class="cls-12" cx="686.22" cy="380.213" r="1.402"/><circle class="cls-12" cx="682.092" cy="381.975" r="1.402"/><circle class="cls-12" cx="677.567" cy="381.188" r="1.402"/><circle class="cls-12" cx="674.313" cy="378.196" r="1.402"/><circle class="cls-12" cx="673.148" cy="373.789" r="1.402"/><circle class="cls-12" cx="674.575" cy="369.466" r="1.402"/><circle class="cls-12" cx="678.03" cy="366.662" r="1.402"/><rect class="cls-6" x="590.498" y="225.098" width="341.808" height="120.65"/><path class="cls-13" d="M773.6,387.885c0-17.091-13-30.946-29.043-30.946s-29.043,13.855-29.043,30.946h1.84c0-16.008,12.179-28.986,27.2-28.986s27.2,12.978,27.2,28.986Z" transform="translate(-1.822 -9.612)"/><path class="cls-13" d="M712.389,387.885c0-17.091-13-30.946-29.042-30.946S654.3,370.794,654.3,387.885h1.84c0-16.008,12.179-28.986,27.2-28.986s27.2,12.978,27.2,28.986Z" transform="translate(-1.822 -9.612)"/><path class="cls-13" d="M957.15,357.456l-10.788,15.758c-1.971,3.229-3.228,5.818-3.228,9.146v12.025l-4.86.166V379.238c0-3.125,1.114-5.45,2.986-8.614l8.45-13.168Z" transform="translate(-1.822 -9.612)"/><polygon class="cls-5" points="600.758 345.748 600.758 351.847 592.371 351.847 592.371 356.993 613.909 356.993 613.909 360.758 608.001 360.758 608.001 374.032 603.14 374.032 603.14 380.818 607.048 380.818 607.048 382.03 603.14 382.03 603.14 387.346 612.099 387.346 612.099 383.106 627.061 383.106 627.061 345.748 600.758 345.748"/><rect class="cls-14" x="802.9" y="367.368" width="41.741" height="20.517" transform="translate(1645.72 745.64) rotate(-180)"/><rect class="cls-14" x="908.874" y="365.462" width="27.256" height="26.779" transform="translate(1843.182 748.091) rotate(-180)"/><circle class="cls-15" cx="920.489" cy="366.422" r="3.621"/><circle class="cls-16" cx="890.374" cy="375.856" r="5.813"/><circle class="cls-16" cx="877.521" cy="375.856" r="5.813"/><rect class="cls-17" x="845.657" y="385.468" width="63.217" height="4.019" transform="translate(1752.709 765.343) rotate(-180)"/><rect class="cls-16" x="872.851" y="367.368" width="27.446" height="12.287" transform="translate(1771.326 737.411) rotate(-180)"/><rect class="cls-16" x="845.595" y="360.077" width="3.431" height="25.391" transform="translate(1692.798 735.933) rotate(-180)"/><rect class="cls-16" x="781.934" y="360.077" width="3.431" height="25.391" transform="translate(1565.478 735.933) rotate(-180)"/><rect class="cls-13" x="765.352" y="358.981" width="109.595" height="1.906" transform="translate(1638.477 710.257) rotate(-180)"/><rect class="cls-18" x="788.415" y="369.464" width="8.768" height="18.013" transform="translate(1583.775 747.33) rotate(-180)"/><rect class="cls-19" x="833.396" y="367.368" width="2.859" height="8.906" transform="translate(1667.83 734.029) rotate(-180)"/><rect class="cls-19" x="812.43" y="367.368" width="2.859" height="8.906" transform="translate(1625.898 734.029) rotate(-180)"/><rect class="cls-13" x="613.921" y="377.675" width="40.384" height="3.987" transform="translate(1266.403 749.726) rotate(-180)"/><rect class="cls-20" x="948.566" y="325.769" width="20.871" height="21.871" rx="3.55" ry="3.55" transform="translate(1916.182 663.798) rotate(-180)"/><path class="cls-13" d="M941.419,357.361h33.307c10.507,0,21.559,9.292,21.559,22.151l.456,12.729h26.6a3.207,3.207,0,0,0,3.2-2.982l1.453-20.679a4.479,4.479,0,0,0-2.219-4.187l-2.017-1.171v-3.431H994.31L991,356.233a25.079,25.079,0,0,0-12.548-5.543H941.419Z" transform="translate(-1.822 -9.612)"/><rect class="cls-7" x="590.498" y="341.46" width="341.808" height="6.385"/><path class="cls-21" d="M785.764,334.81H750.237c-5.262,0-9.567-4.625-9.709-9.885l-1.669-61.864h58.323l-1.709,61.864C795.331,330.185,791.026,334.81,785.764,334.81Z" transform="translate(-1.822 -9.612)"/><path class="cls-22" d="M739.553,289.9l.975,34.315c.012,6.589,4.075,10.594,9.337,10.594h36.329c5.262,0,9.254-4.729,9.279-10.594l.975-34.315Z" transform="translate(-1.822 -9.612)"/><rect class="cls-23" x="749.431" y="271.547" width="33.536" height="40.827"/><path class="cls-24" d="M757.044,285.309a4.38,4.38,0,0,1,.757.067,1.2,1.2,0,0,1,.451.145.3.3,0,0,1,.137.256.234.234,0,0,1-.05.161.753.753,0,0,1-.215.142.372.372,0,0,0-.222.234q-.029.135-.051,1.045c-.007.587-.013.938-.018,1.057a2.354,2.354,0,0,1-.042.341,1.376,1.376,0,0,1-.389.761,1.663,1.663,0,0,1-.614.356A2.391,2.391,0,0,1,756,290a2.944,2.944,0,0,1-.74-.1,2.321,2.321,0,0,1-.642-.266,1.041,1.041,0,0,1-.492-.884.758.758,0,0,1,.21-.549.693.693,0,0,1,.524-.218.789.789,0,0,1,.525.182.584.584,0,0,1,.216.459,1.119,1.119,0,0,1-.04.233.411.411,0,0,0-.007.073.221.221,0,0,0,.077.173.3.3,0,0,0,.2.066.417.417,0,0,0,.359-.2.915.915,0,0,0,.136-.525l0-.3-.007-.813c-.021-.5-.035-.786-.045-.873a.446.446,0,0,0-.075-.214.3.3,0,0,0-.088-.086,1.366,1.366,0,0,0-.207-.064.225.225,0,0,1-.137-.093.264.264,0,0,1-.056-.163.343.343,0,0,1,.141-.287,1.18,1.18,0,0,1,.46-.175A3.77,3.77,0,0,1,757.044,285.309Z" transform="translate(-1.822 -9.612)"/><path class="cls-24" d="M760.618,286.6a1.838,1.838,0,0,1,1.066.316,1.669,1.669,0,0,1,.528.587,1.631,1.631,0,0,1,.207.791,1.5,1.5,0,0,1-.662,1.227,2.325,2.325,0,0,1-1.445.482,1.82,1.82,0,0,1-1.285-.453,1.475,1.475,0,0,1-.479-1.142,1.608,1.608,0,0,1,.584-1.282A2.2,2.2,0,0,1,760.618,286.6Zm-.266.768a.287.287,0,0,0-.234.107.44.44,0,0,0-.088.288,2.706,2.706,0,0,0,.075.543,3.948,3.948,0,0,0,.178.61.352.352,0,0,0,.335.272q.3,0,.3-.375a3.061,3.061,0,0,0-.076-.635,2.575,2.575,0,0,0-.18-.578A.351.351,0,0,0,760.352,287.369Z" transform="translate(-1.822 -9.612)"/><path class="cls-24" d="M766.19,286.425a.179.179,0,0,1,.146.095.39.39,0,0,1,.063.221.7.7,0,0,1-.085.308.853.853,0,0,1-.2.277c-.051.044-.076.079-.076.106,0,.006,0,.033.007.079a1.006,1.006,0,0,1,.009.126.913.913,0,0,1-.265.665,1.614,1.614,0,0,1-.616.372,2.479,2.479,0,0,1-.83.133,1.689,1.689,0,0,1-.215-.013c-.058-.006-.1-.01-.133-.01a.156.156,0,0,0-.177.177.2.2,0,0,0,.115.177.634.634,0,0,0,.311.065,3.293,3.293,0,0,0,.391-.036,6.333,6.333,0,0,1,.805-.078,1.182,1.182,0,0,1,.608.13.73.73,0,0,1,.274.28.773.773,0,0,1,.1.384,1.049,1.049,0,0,1-.246.652,1.724,1.724,0,0,1-.86.552,3.488,3.488,0,0,1-1.03.139,2.73,2.73,0,0,1-1.2-.225.927.927,0,0,1-.338-.28.6.6,0,0,1-.126-.359.426.426,0,0,1,.071-.239.407.407,0,0,1,.181-.157c.066-.026.1-.054.1-.086s-.027-.059-.083-.106a.616.616,0,0,1-.265-.462.558.558,0,0,1,.127-.329.9.9,0,0,1,.318-.262c.054-.027.08-.053.08-.08s-.033-.077-.1-.139a.975.975,0,0,1-.342-.738.83.83,0,0,1,.121-.426,1.078,1.078,0,0,1,.338-.345,2.12,2.12,0,0,1,1.185-.349,2.876,2.876,0,0,1,.578.067,2.6,2.6,0,0,0,.416.06,1.159,1.159,0,0,0,.721-.286A.239.239,0,0,1,766.19,286.425Zm-2.528,3.711c-.056,0-.083.033-.083.1a.359.359,0,0,0,.212.317,1.116,1.116,0,0,0,.551.121,1.234,1.234,0,0,0,.51-.086.269.269,0,0,0,.185-.243.18.18,0,0,0-.07-.141.266.266,0,0,0-.173-.058,1.225,1.225,0,0,0-.153.013,2.616,2.616,0,0,1-.415.03c-.113,0-.222-.006-.325-.016a1.51,1.51,0,0,1-.19-.027A.243.243,0,0,0,763.662,290.136Zm.723-3.023a.324.324,0,0,0-.266.126.512.512,0,0,0-.1.336,1.262,1.262,0,0,0,.11.574.326.326,0,0,0,.289.217.332.332,0,0,0,.279-.135.583.583,0,0,0,.1-.36,1.182,1.182,0,0,0-.107-.554A.35.35,0,0,0,764.385,287.113Z" transform="translate(-1.822 -9.612)"/><path class="cls-24" d="M768.439,285.542l-.043,1.391c0,.166.046.249.152.249a.2.2,0,0,0,.157-.109,1,1,0,0,1,.86-.469,1.119,1.119,0,0,1,.841.322.8.8,0,0,1,.2.339,2.242,2.242,0,0,1,.066.562l.029,1.2a.538.538,0,0,0,.042.228.647.647,0,0,0,.178.183.23.23,0,0,1,.1.184q0,.358-1.084.358c-.641,0-.963-.111-.963-.336a.17.17,0,0,1,.017-.086c.011-.019.05-.073.116-.159a1.815,1.815,0,0,0,.14-.914,1.862,1.862,0,0,0-.083-.645.4.4,0,0,0-.393-.275.335.335,0,0,0-.3.146.8.8,0,0,0-.069.4v.641a4.08,4.08,0,0,0,.04.482.8.8,0,0,0,.152.209.238.238,0,0,1,.064.163q0,.375-.978.375-1.141,0-1.142-.389a.226.226,0,0,1,.036-.137.9.9,0,0,1,.18-.149q.126-.089.174-.483a11.94,11.94,0,0,0,.048-1.3,7.839,7.839,0,0,0-.04-.99.33.33,0,0,0-.048-.151.376.376,0,0,0-.13-.1q-.207-.106-.207-.246a.31.31,0,0,1,.157-.269,2.252,2.252,0,0,1,.6-.222,3.729,3.729,0,0,1,.953-.166C768.381,285.376,768.443,285.43,768.439,285.542Z" transform="translate(-1.822 -9.612)"/><path class="cls-24" d="M773.031,286.794v1.8c0,.386.127.578.382.578a.363.363,0,0,0,.189-.054.3.3,0,0,0,.13-.135,2.142,2.142,0,0,0,.072-.711,4.861,4.861,0,0,0-.036-.744.235.235,0,0,0-.047-.121.419.419,0,0,0-.126-.088.29.29,0,0,1-.189-.253c0-.137.108-.232.326-.285a5,5,0,0,1,1.219-.153c.223,0,.336.119.336.355,0,.024,0,.074,0,.149,0,.107-.008.237-.01.389v1.466c0,.075.064.143.193.206a.25.25,0,0,1,.162.232c0,.2-.235.354-.707.462a3.505,3.505,0,0,1-.8.1.454.454,0,0,1-.218-.036.175.175,0,0,1-.067-.143c-.012-.137-.054-.206-.127-.206a.146.146,0,0,0-.074.019c-.021.012-.088.056-.2.134a1.25,1.25,0,0,1-.72.229,1.03,1.03,0,0,1-.9-.369,1.834,1.834,0,0,1-.223-1.039c0-.182,0-.337,0-.466v-.152a1.251,1.251,0,0,0-.051-.421.405.405,0,0,0-.188-.211.6.6,0,0,1-.164-.107.159.159,0,0,1-.035-.109q0-.252.382-.335a6.013,6.013,0,0,1,1.3-.143C772.965,286.628,773.031,286.683,773.031,286.794Z" transform="translate(-1.822 -9.612)"/><path class="cls-24" d="M777.373,286.625c.117,0,.188.016.214.049a.888.888,0,0,1,.068.319c.012.1.046.146.1.146s.086-.032.126-.1a.8.8,0,0,1,.695-.415.664.664,0,0,1,.5.2.742.742,0,0,1,.153.247.81.81,0,0,1,.06.291.779.779,0,0,1-.074.32.8.8,0,0,1-.189.272.731.731,0,0,1-.522.2.606.606,0,0,1-.284-.06,1.467,1.467,0,0,1-.3-.242.194.194,0,0,0-.13-.07.12.12,0,0,0-.121.1,2.1,2.1,0,0,0-.029.441,4.181,4.181,0,0,0,.037.684.268.268,0,0,0,.065.138.487.487,0,0,0,.178.078q.3.09.3.313a.337.337,0,0,1-.1.237.491.491,0,0,1-.256.135,4.982,4.982,0,0,1-.938.066,2.984,2.984,0,0,1-.893-.1c-.182-.063-.273-.17-.273-.323a.383.383,0,0,1,.2-.309.472.472,0,0,0,.133-.115.32.32,0,0,0,.05-.141,7.557,7.557,0,0,0,.054-1.119.524.524,0,0,0-.033-.215.249.249,0,0,0-.133-.105c-.157-.061-.237-.151-.237-.269a.332.332,0,0,1,.164-.274,1.979,1.979,0,0,1,.544-.227A3.182,3.182,0,0,1,777.373,286.625Z" transform="translate(-1.822 -9.612)"/><path class="cls-24" d="M781.532,287.475V288.6a.515.515,0,0,0,.1.325.3.3,0,0,0,.25.126.751.751,0,0,0,.343-.119.2.2,0,0,1,.1-.03.183.183,0,0,1,.146.1.361.361,0,0,1,.067.209.527.527,0,0,1-.227.395,1.7,1.7,0,0,1-1.142.4,1.2,1.2,0,0,1-.854-.3,1.032,1.032,0,0,1-.322-.792v-1.535a.153.153,0,0,0-.019-.095c-.012-.013-.044-.019-.1-.019h-.342c-.064,0-.105-.01-.122-.031a.247.247,0,0,1-.028-.148v-.146a.172.172,0,0,1,.077-.146l1.522-.957a.293.293,0,0,1,.14-.031h.268a.131.131,0,0,1,.111.039.266.266,0,0,1,.029.151v.449a.184.184,0,0,0,.032.129.2.2,0,0,0,.134.03h.615a.2.2,0,0,1,.159.045.329.329,0,0,1,.036.191v.2a.376.376,0,0,1-.046.221.2.2,0,0,1-.169.061h-.6a.179.179,0,0,0-.126.034A.185.185,0,0,0,781.532,287.475Z" transform="translate(-1.822 -9.612)"/><polygon class="cls-23" points="737.111 255.515 795.286 255.515 795.36 249.857 737.037 249.857 737.111 255.515"/><rect class="cls-25" x="553.318" y="0.035" width="13" height="444.833"/><rect class="cls-25" x="836.32" y="0.035" width="13" height="444.833"/><rect class="cls-25" x="270.317" y="0.035" width="13" height="444.833"/><rect class="cls-26" width="1083.507" height="445.071"/><circle class="cls-23" cx="415.813" cy="317.723" r="18.123"/><line class="cls-27" x1="402.315" y1="438.035" x2="402.315" y2="463.035"/><path class="cls-28" d="M410.258,332.647c-4.454,19.667-19.5,51.616-18.787,58.5.785,7.629,12.666,36.167,11.666,67.584" transform="translate(-1.822 -9.612)"/><path class="cls-27" d="M424.137,447.647c-1.375,5-3,25-3,25" transform="translate(-1.822 -9.612)"/><path class="cls-28" d="M426.6,329.034s-8.3,38.28-1.18,73.28c4.652,22.865-3.279,58.333-3.279,58.333" transform="translate(-1.822 -9.612)"/><path class="cls-29" d="M399.512,327.335a18.027,18.027,0,0,0,1.2,6.429c-.271,1.02-.572,2.071-.884,3.133h34.333c.56-3.025,1.012-4.994,1.145-5.571a17.695,17.695,0,0,0,0-7.991H399.97A18.118,18.118,0,0,0,399.512,327.335Z" transform="translate(-1.822 -9.612)"/><line class="cls-30" x1="192.076" y1="437.035" x2="189.576" y2="453.035"/><path class="cls-31" d="M161.392,382.079s38.959,1.37,41.959,4.37-9.953,65.2-9.953,65.2" transform="translate(-1.822 -9.612)"/><path class="cls-32" d="M201.962,457.358,212.1,467.565a8.643,8.643,0,0,0,1.678,1.314l2.848,1.71a12.6,12.6,0,0,0,5.6,1.766l4.381.311a5.773,5.773,0,0,1,5.351,6.166l-.053.742-17.877-1.266-13.445-.952-2.212-1.411a7.668,7.668,0,0,0-7.915-.2l-1.4.8-9.161-.649.335-4.728.95-13.385,3.639.226a11.7,11.7,0,0,0,14.41,1.163Z" transform="translate(-1.822 -9.612)"/><path class="cls-33" d="M144.817,365.9l-1-1.822c-.911-1.913-2.114-2.653-4.557-2.653H115.3a4.453,4.453,0,0,0-4.441,4.441v.817h28.4l2.318,5.3L144,370.96C144.837,370.542,146.112,368.341,144.817,365.9Z" transform="translate(-1.822 -9.612)"/><rect class="cls-34" x="121.539" y="356.217" width="7.252" height="28.193" transform="translate(493.656 235.537) rotate(90)"/><polygon class="cls-34" points="151.078 395.119 142.75 395.119 131.144 360.702 137.425 357.075 151.078 395.119"/><path class="cls-23" d="M393.132,460.712l-10.838,9.465a8.632,8.632,0,0,1-1.765,1.192l-2.962,1.5a12.612,12.612,0,0,1-5.709,1.366h-4.392a5.773,5.773,0,0,0-5.772,5.773v.745h31.4l2.306-1.252a7.669,7.669,0,0,1,7.91.36l1.338.892h9.183v-4.74l0-13.419-3.646-.032a11.7,11.7,0,0,1-14.456.143Z" transform="translate(-1.822 -9.612)"/><path class="cls-35" d="M225.749,294.994h54.614a2.665,2.665,0,0,1,2.665,2.665l-10,43.335H213.084l10-43.335A2.665,2.665,0,0,1,225.749,294.994Z" transform="translate(-1.822 -9.612)"/><polygon class="cls-4" points="223.226 287.35 279.242 287.35 269.242 330.249 213.226 330.249 223.226 287.35"/><path class="cls-35" d="M181.012,331.383h90.194a0,0,0,0,1,0,0v0a2.637,2.637,0,0,1-2.637,2.637h-84.92a2.637,2.637,0,0,1-2.637-2.637v0a0,0,0,0,1,0,0Z"/><g class="cls-36"><g class="cls-37"><path class="cls-38" d="M259,310.491l-.581-.942,1.6-.546,1.6-.547-.772,1.917-.772,1.884-.672-1.1-12.191,11.688-1.519-2.578-9.391,8.883-.507-.579,10.21-9.65,1.515,2.561L259,310.491m-27.672,24.466,6.966-30.816h.874l-6.762,29.911h26.244l-.205.9H231.331m50.014-37.945H224.827l-9.771,43.223h56.518l9.771-43.223" transform="translate(-1.822 -9.612)"/><polyline class="cls-39" points="237.349 294.529 236.475 294.529 229.508 325.346 256.626 325.346 256.831 324.44 230.587 324.44 237.349 294.529"/><polyline class="cls-32" points="257.181 300.879 245.708 311.871 244.193 309.309 233.983 318.959 234.49 319.538 243.881 310.655 245.4 313.233 257.591 301.546 257.436 301.291 257.181 300.879"/><polyline class="cls-32" points="259.807 298.844 258.204 299.391 256.6 299.937 257.181 300.879 257.436 301.291 257.591 301.546 258.263 302.645 259.035 300.761 259.807 298.844"/></g></g><rect class="cls-33" x="29.935" y="333.096" width="325.751" height="5.356"/><polygon class="cls-40" points="350.134 343.809 35.486 343.809 29.935 338.453 355.685 338.453 350.134 343.809"/><rect class="cls-41" x="68.241" y="343.625" width="13.324" height="26.343"/><rect class="cls-34" x="68.241" y="369.968" width="13.324" height="102.486"/><rect class="cls-41" x="301.835" y="343.625" width="13.324" height="26.413"/><rect class="cls-34" x="301.835" y="369.968" width="13.324" height="102.486"/><rect class="cls-41" x="186.666" y="262.353" width="13.324" height="221.129" transform="translate(-181.412 556.634) rotate(-90)"/><path class="cls-23" d="M411.132,460.712l-10.838,9.465a8.632,8.632,0,0,1-1.765,1.192l-2.962,1.5a12.612,12.612,0,0,1-5.709,1.366h-4.392a5.773,5.773,0,0,0-5.772,5.773v.745h31.4l2.306-1.252a7.669,7.669,0,0,1,7.91.36l1.338.892h9.183v-4.74l0-13.419-3.646-.032a11.7,11.7,0,0,1-14.456.143Z" transform="translate(-1.822 -9.612)"/><path class="cls-42" d="M335.2,234.067c-4.271-.81-8.091.451-9.263,6.624s1.29,8.809,5.561,9.62,11.757,2.509,12.929-3.664S339.471,234.878,335.2,234.067Z" transform="translate(-1.822 -9.612)"/><rect class="cls-42" x="408.289" y="195.146" width="15" height="34.875" rx="7.5" ry="7.5" transform="translate(-27.311 50.177) rotate(-7.981)"/><path class="cls-42" d="M417.66,164.441l4.619,37.97a12,12,0,0,1-10.463,13.361h0l-14.891,1.811a12,12,0,0,1-13.361-10.463l-4.619-37.97Z" transform="translate(-1.822 -9.612)"/><path class="cls-43" d="M388.549,184.422a1.531,1.531,0,1,1-1.7-1.335A1.532,1.532,0,0,1,388.549,184.422Z" transform="translate(-1.822 -9.612)"/><path class="cls-23" d="M388.549,184.422a1.531,1.531,0,1,1-1.7-1.335A1.532,1.532,0,0,1,388.549,184.422Z" transform="translate(-1.822 -9.612)"/><path class="cls-42" d="M381.409,184.527l-4.541,8.852a3.005,3.005,0,0,0,3.126,4.165l2.956-.36S381.548,185.408,381.409,184.527Z" transform="translate(-1.822 -9.612)"/><path class="cls-38" d="M395.526,204.01l.071.584a3.023,3.023,0,0,1-2.636,3.366l-.167.02-4,.487h0a3.023,3.023,0,0,1-3.366-2.636l-.071-.584" transform="translate(-1.822 -9.612)"/><path class="cls-44" d="M421.758,198.127l-.373.045-2.978.362a5.634,5.634,0,0,1-6.3-5.212L410.3,178.466a3.432,3.432,0,0,0-3.758-2.665l-1.58.192.853,7.014a6.211,6.211,0,0,1-6.68-5.232l-.238-1.953a6.069,6.069,0,0,0-7.1-5.279l-8.405,1.022-4.095.5-.6-4.963,38.715-4.71Z" transform="translate(-1.822 -9.612)"/><path class="cls-45" d="M374.694,149.079h0l.128,1.055a4.875,4.875,0,0,0,5.428,4.25l-4.467.544,27.966-3.4,2.978-.362a7.5,7.5,0,0,1,8.351,6.539h0l1.489-.181a7.5,7.5,0,0,1,8.35,6.539h0l3.088,25.382a5.931,5.931,0,0,1-5.172,6.6l-1.557.19-2.978.362a6,6,0,0,1-6.681-5.232h0l-1.445-11.878a3.034,3.034,0,0,0-3.378-2.646l-1.455.177.724,5.956h0a6,6,0,0,1-6.68-5.231h0l-.479-3.938a6.533,6.533,0,0,0-7.274-5.7l-8.4,1.022-4.467.543-1.474.18a10.454,10.454,0,0,1-11.639-9.115l0-.031a10.409,10.409,0,0,1,.823-5.507s.769,3.913,6.359,3.988c-2.633-5.268-.414-8.323,1.871-10.112Z" transform="translate(-1.822 -9.612)"/><path class="cls-46" d="M428.416,229.6l-24.154,9.611-3.466-4.433a12.811,12.811,0,0,1,11.6-13.917l15.1-1.37Z" transform="translate(-1.822 -9.612)"/><path class="cls-23" d="M422.359,225.085h0a8.649,8.649,0,0,1,9.4,7.832s5.633,17.915,4.883,45.983c-.482,18.062-.375,50.52-.375,50.52H391.275l-1.821-64.861A36.338,36.338,0,0,1,422.359,225.085Z" transform="translate(-1.822 -9.612)"/><line class="cls-47" x1="349.73" y1="249.257" x2="339.477" y2="237.63"/><path class="cls-48" d="M414.512,239.212s-23.826,39.1-36.064,39.1c-16.75.007-30.511-23.712-30.511-23.712" transform="translate(-1.822 -9.612)"/><path class="cls-42" d="M144.02,212.051l1.581,50.225L157.6,261.9l14.993-.472A12.036,12.036,0,0,0,184.2,249.055L183,210.824Z" transform="translate(-1.822 -9.612)"/><path class="cls-44" d="M145.106,246.552l.375-.012,3-.094a5.637,5.637,0,0,0,5.436-6.109l-.471-14.959a3.433,3.433,0,0,1,3.31-3.2l1.59-.05.222,7.062A6.211,6.211,0,0,0,164.375,223l-.062-1.966a6.07,6.07,0,0,1,6.213-6.3l8.463-.266,4.123-.13-.158-5-38.98,1.227Z" transform="translate(-1.822 -9.612)"/><line class="cls-30" x1="214.076" y1="443.035" x2="212.576" y2="462.035"/><rect class="cls-42" x="145.585" y="249.837" width="15" height="34.875" rx="7.5" ry="7.5" transform="translate(304.348 524.938) rotate(-180)"/><path class="cls-49" d="M142.61,274.926l27.975,9.786v-3.126a12.811,12.811,0,0,0-12.811-12.811H142.61Z" transform="translate(-1.822 -9.612)"/><path class="cls-42" d="M241.657,276.34c.664,4.005,4.369,6.5,10.85,5.429s7.286-4.876,6.622-8.88-2.546-6.7-9.027-5.622S240.993,272.336,241.657,276.34Z" transform="translate(-1.822 -9.612)"/><path class="cls-42" d="M243,276.391c2.77,1,6.126-1.259,7.5-5.05s-.5-13.274-3.96-11.141c-.906.559-1.816,9.259-7.06,9.913C235.482,270.612,240.235,275.39,243,276.391Z" transform="translate(-1.822 -9.612)"/><line class="cls-47" x1="232.52" y1="270.151" x2="242.335" y2="265.984"/><path class="cls-50" d="M178.258,197.217c10.4-.328,10.747,14.669.268,15l-8.446.265a6.534,6.534,0,0,0-6.325,6.736l.125,3.965h0a6,6,0,0,1-5.808,6.186h0l-.189-6-1.465.047a3.033,3.033,0,0,0-2.937,3.127l.376,11.961h0a6,6,0,0,1-5.808,6.185l-3,.095-1.568.049a5.93,5.93,0,0,1-6.114-5.741l-.805-25.557h0a7.5,7.5,0,0,1,7.261-7.732l1.5-.047h0a7.5,7.5,0,0,1,7.26-7.732l3-.095" transform="translate(-1.822 -9.612)"/><path class="cls-50" d="M175.728,228.093a1.531,1.531,0,1,0,1.482-1.579A1.531,1.531,0,0,0,175.728,228.093Z" transform="translate(-1.822 -9.612)"/><path class="cls-38" d="M174.963,245.907l.013.437a2.251,2.251,0,0,0,2.32,2.178l.125,0,3-.094h0a2.25,2.25,0,0,0,2.178-2.32l-.014-.437" transform="translate(-1.822 -9.612)"/><path class="cls-31" d="M156.4,381.647s60,5,63,8-4,69-4,69" transform="translate(-1.822 -9.612)"/><circle class="cls-50" cx="154.89" cy="363.223" r="18.123"/><path class="cls-42" d="M182.825,225.65l5.833,8.059A3,3,0,0,1,186.2,238.3l-2.977.093S182.822,226.541,182.825,225.65Z" transform="translate(-1.822 -9.612)"/><path class="cls-32" d="M226.24,459.712l10.838,9.465a8.632,8.632,0,0,0,1.765,1.192l2.962,1.5a12.612,12.612,0,0,0,5.709,1.366h4.392a5.773,5.773,0,0,1,5.772,5.773v.745h-31.4l-2.306-1.252a7.669,7.669,0,0,0-7.91.36l-1.338.892h-9.183v-4.74l0-13.419,3.646-.032a11.7,11.7,0,0,0,14.456.143Z" transform="translate(-1.822 -9.612)"/><path class="cls-50" d="M173.053,247.905h0a3,3,0,0,0,3.093,2.905l7.956-.251h0c.341,6.086-4.674,10.647-8.93,10.781-1.989.062-6.144.2-6.144.2s-.288-7.619-.379-10.507l-.1-3.266h0a7.219,7.219,0,0,1,6.989-7.442l.281-.009,7.824-.246a2.25,2.25,0,0,1,2.32,2.178h0a2.25,2.25,0,0,1-2.179,2.319l-7.543.238-.234.007a3.048,3.048,0,0,0-2.951,3.094Z" transform="translate(-1.822 -9.612)"/><path class="cls-50" d="M146.734,273.881h0a8.65,8.65,0,0,0-8.649,8.649v92.39h44.987v-64.7A36.338,36.338,0,0,0,146.734,273.881Z" transform="translate(-1.822 -9.612)"/><path class="cls-31" d="M152.111,290.945s26.922,1.568,42.284,0c22-2.245,43.282-11.872,43.282-11.872" transform="translate(-1.822 -9.612)"/><ellipse class="cls-42" cx="234.575" cy="338.093" rx="11.376" ry="7.029" transform="translate(-36.029 16.891) rotate(-6.028)"/><ellipse class="cls-42" cx="231.3" cy="334.158" rx="6.981" ry="5.1" transform="translate(-35.634 16.525) rotate(-6.028)"/><line class="cls-47" x1="214.644" y1="330.67" x2="223.012" y2="329.786"/><path class="cls-31" d="M153.9,286.314s16.173,28.274,27.163,38.086c8.863,7.914,37.905,14.883,37.905,14.883" transform="translate(-1.822 -9.612)"/><path class="cls-51" d="M299.465,229.876H322.73a0,0,0,0,1,0,0v21.5a4.36,4.36,0,0,1-4.36,4.36H303.825a4.36,4.36,0,0,1-4.36-4.36v-21.5a0,0,0,0,1,0,0Z" transform="translate(-6.259 -3.817) rotate(-1.06)"/><circle class="cls-52" cx="320.657" cy="232.502" r="8.422"/><path class="cls-42" d="M333.2,233.067c-4.271-.81-8.091.451-9.263,6.624s1.29,8.809,5.561,9.62,8.219.665,9.39-5.508S337.471,233.878,333.2,233.067Z" transform="translate(-1.822 -9.612)"/><path class="cls-42" d="M425.445,324.189c1.8,3.958-.917,11.055-6.636,13.656s-8.864.834-10.663-3.124-3.142-7.7,2.578-10.3S423.645,320.231,425.445,324.189Z" transform="translate(-1.822 -9.612)"/><line class="cls-47" x1="429.884" y1="312.189" x2="420.044" y2="318.15"/><path class="cls-48" d="M420.137,234.314s34.763,24.869,36.43,42.921c1.29,13.973-28.841,46.977-28.841,46.977" transform="translate(-1.822 -9.612)"/><path class="cls-29" d="M404.8,329.48l.488.363c5.377,4,11.757,5.431,18.432,6.026l2.271.2-21.333,14Z" transform="translate(-1.822 -9.612)"/><path class="cls-53" d="M308.188,224.9s5.408-4.466,4.386-10.169c-.9-5.03-6.67-7.277-6.779-11.963-.09-3.855,3.737-6.684,4.287-7.079,3.6-2.583,8.274-1.794,8.274-1.794s-9.321,2-9.171,8.075c.118,4.8,9.447,5.461,8.773,12.237-.346,3.471-4.179,6.68-5.184,7.7A19.548,19.548,0,0,1,308.188,224.9Z" transform="translate(-1.822 -9.612)"/><path class="cls-32" d="M141.45,382.581c12.683-1.63,37.484-5.139,49.015-6.781l-9.4-.88H138.719A17.99,17.99,0,0,0,141.45,382.581Z" transform="translate(-1.822 -9.612)"/><rect class="cls-54" x="114.352" y="315.176" width="52.185" height="55.192" rx="4.441" ry="4.441"/><rect class="cls-33" x="114.352" y="315.176" width="46.633" height="55.192" rx="4.441" ry="4.441"/><rect class="cls-54" x="114.586" y="381.24" width="93.865" height="13.879" rx="4.441" ry="4.441"/><rect class="cls-33" x="114.586" y="381.24" width="49.708" height="13.879" rx="4.441" ry="4.441"/><rect class="cls-41" x="152.081" y="395.119" width="6.662" height="14.989"/><rect class="cls-54" x="149.062" y="410.109" width="12.7" height="41.422"/><rect class="cls-34" x="149.062" y="447.119" width="12.7" height="4.411"/><polygon class="cls-34" points="154.302 454.521 117.661 458.408 117.661 453.196 154.302 449.31 154.302 454.521"/><rect class="cls-34" x="117.661" y="453.196" width="5.241" height="10.763"/><circle class="cls-41" cx="120.082" cy="466.535" r="5.196"/><polygon class="cls-34" points="154.302 454.521 190.942 458.408 190.942 453.196 154.302 449.31 154.302 454.521"/><rect class="cls-34" x="187.523" y="462.808" width="5.241" height="10.763" transform="translate(378.465 926.767) rotate(-180)"/><circle class="cls-41" cx="188.522" cy="466.535" r="5.196"/><polygon class="cls-34" points="155.412 454.136 173.455 458.408 173.455 453.196 155.412 448.925 155.412 454.136"/><rect class="cls-34" x="170.036" y="462.808" width="5.241" height="10.763" transform="translate(343.49 926.767) rotate(-180)"/><circle class="cls-41" cx="171.034" cy="466.535" r="5.196"/><polygon class="cls-34" points="155.412 454.136 137.369 458.408 137.369 453.196 155.412 448.925 155.412 454.136"/><rect class="cls-34" x="137.369" y="453.196" width="5.241" height="10.763"/><circle class="cls-41" cx="139.79" cy="466.535" r="5.196"/><path class="cls-33" d="M184.6,365.9l-1-1.822c-.912-1.913-2.114-2.653-4.557-2.653H155.084a4.454,4.454,0,0,0-4.441,4.441v.817h28.405l2.318,5.3,2.425-1.022C184.623,370.542,185.9,368.341,184.6,365.9Z" transform="translate(-1.822 -9.612)"/><rect class="cls-34" x="142.521" y="337.412" width="7.252" height="65.802" transform="translate(514.638 214.555) rotate(90)"/><polygon class="cls-34" points="190.864 395.119 182.537 395.119 170.931 360.702 177.211 357.075 190.864 395.119"/><polygon class="cls-23" points="402.931 327.285 402.84 340.46 422.915 327.285 402.931 327.285"/></svg>