<?xml version="1.0" encoding="utf-8"?>
<!-- Generator: Adobe Illustrator 22.0.1, SVG Export Plug-In . SVG Version: 6.00 Build 0)  -->
<svg version="1.1" id="Layer_1" xmlns="http://www.w3.org/2000/svg" xmlns:xlink="http://www.w3.org/1999/xlink" x="0px" y="0px"
	 viewBox="0 0 1447.2 471.1" style="enable-background:new 0 0 1447.2 471.1;" xml:space="preserve">
<style type="text/css">
	.st0{fill:#E5F7F9;}
	.st1{fill:#B6DFDC;}
	.st2{fill:#C3C0C4;}
	.st3{fill:#606060;stroke:#8A94A1;stroke-width:11;stroke-miterlimit:10;}
	.st4{fill:none;stroke:#6D7580;stroke-width:11;stroke-miterlimit:10;}
	.st5{fill:#DBC8B5;}
	.st6{fill:#AD9F8E;}
	.st7{fill:#6E848E;}
	.st8{fill:none;stroke:#8A94A1;stroke-width:4.5701;stroke-miterlimit:10;}
	.st9{fill:none;stroke:#8A94A1;stroke-width:7.9977;stroke-miterlimit:10;}
	.st10{fill:none;stroke:#48404D;stroke-width:7.9977;stroke-miterlimit:10;}
	.st11{fill:none;stroke:#6D7580;stroke-width:7.9977;stroke-miterlimit:10;}
	.st12{fill:none;stroke:#E5E9F0;stroke-width:15;stroke-miterlimit:10;}
	.st13{fill:none;stroke:#414B58;stroke-width:14;stroke-miterlimit:10;}
	.st14{fill:#BFC4C9;}
	.st15{fill:#536070;}
	.st16{fill:#FFFFFF;}
	.st17{fill:none;stroke:#536070;stroke-width:18;stroke-miterlimit:10;}
	.st18{fill:#5D5263;}
	.st19{fill:none;stroke:#48404D;stroke-width:14;stroke-miterlimit:10;}
	.st20{fill:#C1C1C1;}
	.st21{fill:#8F8490;stroke:#5D5263;stroke-width:18;stroke-miterlimit:10;}
	.st22{fill:#8A94A1;}
	.st23{fill:#6D7580;}
	.st24{fill:#5C5868;}
	.st25{fill:#F3F3F3;}
	.st26{fill:#A2A0A8;}
	.st27{fill:none;stroke:#6D7580;stroke-width:3.6151;stroke-miterlimit:10;}
	.st28{fill:none;stroke:#8A94A1;stroke-width:4.5701;stroke-linecap:round;stroke-miterlimit:10;}
	.st29{fill:none;stroke:#E3E4E8;stroke-width:17;stroke-linecap:round;stroke-miterlimit:10;}
	.st30{fill:none;stroke:#E3E4E8;stroke-width:10.2827;stroke-linecap:round;stroke-miterlimit:10;}
	.st31{fill:none;stroke:#E3E4E8;stroke-width:10;stroke-linecap:round;stroke-miterlimit:10;}
	.st32{fill:none;stroke:#E3E4E8;stroke-width:15;stroke-linecap:round;stroke-miterlimit:10;}
	.st33{fill:#414B58;}
	.st34{fill:#48404D;}
	.st35{fill:none;stroke:#5D5263;stroke-width:18;stroke-miterlimit:10;}
	.st36{fill:#ACA3AC;}
	.st37{fill:none;stroke:#8A94A1;stroke-width:6.8551;stroke-miterlimit:10;}
</style>
<rect x="318.3" y="7.8" class="st0" width="823" height="444.9"/>
<g>
	<polygon class="st1" points="884.3,359.8 785.3,359.8 785.3,356.8 776.3,356.8 776.3,359.8 770.3,359.8 770.3,350.8 758.3,350.8 
		758.3,403.8 700.3,403.8 700.3,379.8 691.3,379.8 691.3,388.8 574.3,388.8 574.3,384.8 561.3,384.8 561.3,409.8 564.3,418.8 
		564.3,452.7 895.3,452.7 895.3,354.8 884.3,354.8 	"/>
	<polygon class="st1" points="318.3,452.7 555.3,452.7 555.3,431.8 539.3,415.8 539.3,305.8 410.3,305.8 410.3,262.8 390.3,262.8 
		390.3,297.8 345.3,297.8 345.3,282.8 334.3,282.8 334.3,288.8 318.3,288.8 	"/>
	<polygon class="st1" points="1104.3,338.8 1104.3,300.8 1095.3,300.8 1095.3,300.8 1089.3,300.8 1089.3,318.8 1002.3,318.8 
		1002.3,272.8 906,273.1 906,452.7 1141.3,452.7 1141.3,338.8 	"/>
</g>
<rect x="574.3" y="7.8" class="st2" width="13" height="452"/>
<rect x="853.3" y="7.8" class="st2" width="13" height="452"/>
<line class="st3" x1="1372.8" y1="409.8" x2="1372.8" y2="428.8"/>
<line class="st4" x1="1372.8" y1="408.8" x2="1372.8" y2="417.8"/>
<path class="st5" d="M646.9,218.5L646.9,218.5c4.1,0,7.5-3.4,7.5-7.5v-19.9c0-4.1-3.4-7.5-7.5-7.5l0,0c-4.1,0-7.5,3.4-7.5,7.5V211
	C639.4,215.1,642.8,218.5,646.9,218.5z"/>
<path class="st5" d="M639.4,150.8v38.3c0,6.6,5.4,12,12,12l0,0h15c6.6,0,12-5.4,12-12v-38.3H639.4z"/>
<path class="st6" d="M639.3,184.8h0.4h3c3.3,0,5.6-2.6,5.6-5.9v-15c0-1.7,1.7-3.1,3.4-3.1h1.6v7.1c3,0,6-2.7,6-6v-2
	c0-3.6,2.8-6.1,6.4-6.1h8.5h4.1v-5h-39V184.8z"/>
<path class="st6" d="M639.3,184.8h0.4h3c3.3,0,5.6-2.6,5.6-5.9v-15c0-1.7,1.7-3.1,3.4-3.1h1.6v7.1c3,0,6-2.7,6-6v-2
	c0-3.6,2.8-6.1,6.4-6.1h8.5h4.1v-5h-39V184.8z"/>
<rect x="1082.8" y="459.4" class="st7" width="182.1" height="5.4"/>
<path class="st8" d="M1421.9,271.1c11.1,0,20.2-9,20.2-20.2s-9-20.2-20.2-20.2"/>
<path class="st9" d="M1322.5,377.3c9.8,17.3,28.4,29,49.7,29c31.5,0,57-25.5,57-57c0-17.9-8.3-33.9-21.2-44.4"/>
<path class="st11" d="M1322.5,377.3c3.1,5.6,7.2,10.5,11.9,14.7"/>
<ellipse class="st5" cx="726.5" cy="297.6" rx="11.4" ry="7.9"/>
<ellipse class="st5" cx="723.7" cy="292.5" rx="7" ry="5.1"/>
<line class="st12" x1="706" y1="292.4" x2="716.7" y2="295.6"/>
<line class="st13" x1="650.3" y1="431.8" x2="650.3" y2="456.8"/>
<path class="st14" d="M636.7,213.5l28,9.8v-3.1c0-7.1-5.7-12.8-12.8-12.8h-15.2V213.5z"/>
<path class="st15" d="M680.2,130.4L680.2,130.4v1.1c0,2.7-2.2,4.9-4.9,4.9h4.5h-28.2h-3c-4.1,0-7.5,3.4-7.5,7.5v0h-1.5
	c-4.1,0-7.5,3.4-7.5,7.5v0v25.6c0,3.3,2.7,5.9,5.9,5.9h1.6h3c3.3,0,6-2.7,6-6l0,0v-12c0-1.7,1.4-3,3-3h1.5v6l0,0c3.3,0,6-2.7,6-6
	l0,0v-4c0-3.6,2.9-6.5,6.5-6.5h8.5h4.5h1.5c5.8,0,10.5-4.7,10.5-10.5v0C690.6,135.1,686,130.4,680.2,130.4L680.2,130.4z"/>
<path class="st15" d="M670.9,167.1c0,0.8,0.7,1.5,1.5,1.5s1.5-0.7,1.5-1.5c0-0.8-0.7-1.5-1.5-1.5S670.9,166.3,670.9,167.1z"/>
<path class="st15" d="M670.9,167.1c0,0.8,0.7,1.5,1.5,1.5s1.5-0.7,1.5-1.5c0-0.8-0.7-1.5-1.5-1.5S670.9,166.3,670.9,167.1z"/>
<rect x="675.7" y="161.1" transform="matrix(-1 -4.451207e-11 4.451207e-11 -1 1353.4633 332.6602)" class="st16" width="2.1" height="10.5"/>
<rect x="654.3" y="163.5" transform="matrix(-1 -5.736357e-11 5.736357e-11 -1 1330.8944 328.4102)" class="st15" width="22.3" height="1.4"/>
<rect x="671" y="165.8" transform="matrix(6.123234e-17 -1 1 6.123234e-17 509.9104 842.5358)" class="st15" width="10.5" height="1.1"/>
<ellipse class="st16" cx="671.9" cy="188.6" rx="3.7" ry="2.5"/>
<path class="st5" d="M677.8,166.4l5.6,8.2c1.2,2-0.3,4.5-2.6,4.5h-3C677.8,179.1,677.8,167.3,677.8,166.4z"/>
<path class="st15" d="M660.4,444.8l10.8,9.5c0.5,0.5,1.1,0.9,1.8,1.2l3,1.5c1.8,0.9,3.7,1.4,5.7,1.4h4.4c3.2,0,5.8,2.6,5.8,5.8v0.7
	h-17.9h-13.5l-2.3-1.3c-2.5-1.4-5.5-1.2-7.9,0.4l-1.3,0.9h-9.2v-4.7l0-13.4l3.6,0c4.2,3.4,10.2,3.4,14.5,0.1L660.4,444.8z"/>
<path class="st15" d="M660.4,444.8l10.8,9.5c0.5,0.5,1.1,0.9,1.8,1.2l3,1.5c1.8,0.9,3.7,1.4,5.7,1.4h4.4c3.2,0,5.8,2.6,5.8,5.8v0.7
	h-17.9h-13.5l-2.3-1.3c-2.5-1.4-5.5-1.2-7.9,0.4l-1.3,0.9h-9.2v-4.7l0-13.4l3.6,0c4.2,3.4,10.2,3.4,14.5,0.1L660.4,444.8z"/>
<line class="st17" x1="651.3" y1="312.8" x2="651.3" y2="443.8"/>
<path class="st5" d="M746.4,294.6c0,4.3-5.1,10.9-11.4,10.9s-11.4-3.5-11.4-7.9c0-4.3,5.1-7.9,11.4-7.9S746.4,290.3,746.4,294.6z"/>
<ellipse class="st5" cx="737.9" cy="292.5" rx="7" ry="5.1"/>
<line class="st12" x1="752.5" y1="290.8" x2="743.4" y2="294.1"/>
<circle class="st18" cx="808.3" cy="311.5" r="18.1"/>
<line class="st19" x1="808.8" y1="431.8" x2="808.8" y2="456.8"/>
<path class="st5" d="M813.2,218.5L813.2,218.5c-4.1,0-7.5-3.4-7.5-7.5v-19.9c0-4.1,3.4-7.5,7.5-7.5l0,0c4.1,0,7.5,3.4,7.5,7.5V211
	C820.7,215.1,817.3,218.5,813.2,218.5z"/>
<path class="st20" d="M823.4,217.5l-28,5.8v-3.1c0-7.1,5.7-12.8,12.8-12.8h15.2V217.5z"/>
<path class="st5" d="M820.7,150.8v38.3c0,6.6-5.4,12-12,12l0,0h-15c-6.6,0-12-5.4-12-12v-38.3H820.7z"/>
<path class="st15" d="M789.2,167.1c0,0.8-0.7,1.5-1.5,1.5c-0.8,0-1.5-0.7-1.5-1.5c0-0.8,0.7-1.5,1.5-1.5
	C788.5,165.6,789.2,166.3,789.2,167.1z"/>
<path class="st18" d="M789.2,167.1c0,0.8-0.7,1.5-1.5,1.5c-0.8,0-1.5-0.7-1.5-1.5c0-0.8,0.7-1.5,1.5-1.5
	C788.5,165.6,789.2,166.3,789.2,167.1z"/>
<path class="st5" d="M782.3,166.4l-5.6,8.2c-1.2,2,0.3,4.5,2.6,4.5h3C782.3,179.1,782.3,167.3,782.3,166.4z"/>
<line class="st21" x1="808.3" y1="312.8" x2="808.3" y2="443.8"/>
<path class="st18" d="M797.3,444.8l-10.8,9.5c-0.5,0.5-1.1,0.9-1.8,1.2l-3,1.5c-1.8,0.9-3.7,1.4-5.7,1.4h-4.4
	c-3.2,0-5.8,2.6-5.8,5.8v0.7h17.9h13.5l2.3-1.3c2.5-1.4,5.5-1.2,7.9,0.4l1.3,0.9h9.2v-4.7l0-13.4l-3.6,0c-4.2,3.4-10.2,3.4-14.5,0.1
	L797.3,444.8z"/>
<path class="st18" d="M817.8,212.5L817.8,212.5c4.8,0,8.6,3.9,8.6,8.6v92.4h-45v-64.7C781.4,228.8,797.7,212.5,817.8,212.5z"/>
<path class="st16" d="M793.9,187.4v0.6c0,1.7-1.4,3-3,3h-0.2h-4l0,0c-1.7,0-3-1.4-3-3v-0.6"/>
<rect x="468.1" y="460.4" class="st22" width="100.9" height="4.1"/>
<rect x="512.4" y="394.8" class="st22" width="12.3" height="66.1"/>
<rect x="512.4" y="394.8" class="st23" width="12.3" height="12.5"/>
<rect x="515.6" y="378.7" class="st23" width="5.9" height="16.3"/>
<rect x="1076.8" y="334.4" class="st24" width="188.1" height="125.3"/>
<rect x="1264.9" y="334.4" class="st7" width="5" height="41.2"/>
<polyline class="st25" points="1278.1,353.6 1269.9,353.6 1269.9,349.2 1278.1,349.2 1278.1,353.6 "/>
<polyline class="st25" points="1278.1,357.2 1275.3,357.2 1275.3,349.2 1278.1,349.2 1278.1,357.2 "/>
<rect x="1264.9" y="376.3" class="st7" width="5" height="41.2"/>
<polyline class="st25" points="1278.3,395.8 1270,395.8 1270,391.3 1278.3,391.3 1278.3,395.8 "/>
<polyline class="st25" points="1278.3,399.4 1275.4,399.4 1275.4,391.3 1278.3,391.3 1278.3,399.4 "/>
<rect x="1264.9" y="418.2" class="st7" width="5" height="41.5"/>
<polyline class="st25" points="1278.4,437.8 1270,437.8 1270,433.3 1278.4,433.3 1278.4,437.8 "/>
<polyline class="st25" points="1278.4,441.4 1275.5,441.4 1275.5,433.3 1278.4,433.3 1278.4,441.4 "/>
<rect x="1151.6" y="180.4" class="st24" width="78" height="49.4"/>
<rect x="1165.2" y="296.1" class="st22" width="50.9" height="4.5"/>
<rect x="1110.2" y="304" class="st23" width="9.7" height="30.4"/>
<rect x="1229.6" y="304" class="st23" width="9.7" height="30.3"/>
<rect x="1110.2" y="321.1" class="st22" width="9.7" height="13.3"/>
<rect x="1229.6" y="321.1" class="st22" width="9.7" height="13.2"/>
<rect x="891.3" y="460.4" transform="matrix(-1 -4.489665e-11 4.489665e-11 -1 1883.4358 924.8276)" class="st22" width="100.9" height="4.1"/>
<rect x="935.5" y="394.8" transform="matrix(-1 -4.478385e-11 4.478385e-11 -1 1883.4358 855.767)" class="st22" width="12.3" height="66.1"/>
<rect x="935.5" y="394.8" transform="matrix(-1 -4.478385e-11 4.478385e-11 -1 1883.4358 802.1547)" class="st23" width="12.3" height="12.5"/>
<rect x="938.7" y="378.7" transform="matrix(-1 -4.495749e-11 4.495749e-11 -1 1883.4358 773.5695)" class="st23" width="5.9" height="16.3"/>
<g>
	
		<rect x="456.8" y="339.1" transform="matrix(0.9992 -4.006114e-02 4.006114e-02 0.9992 -14.2087 21.0277)" class="st26" width="121.6" height="52"/>
	
		<rect x="455.2" y="301.2" transform="matrix(0.9992 -4.006114e-02 4.006114e-02 0.9992 -12.7385 18.7561)" class="st26" width="12.8" height="52"/>
	
		<rect x="881.9" y="339.1" transform="matrix(-0.9992 -4.006114e-02 4.006114e-02 -0.9992 1870.0548 767.565)" class="st26" width="121.6" height="52"/>
	
		<rect x="992.3" y="301.2" transform="matrix(-0.9992 -4.006114e-02 4.006114e-02 -0.9992 1983.4154 694.201)" class="st26" width="12.8" height="52"/>
</g>
<rect x="1076.8" y="299.1" class="st22" width="188.1" height="8.7"/>
<rect x="1187.7" y="229.8" class="st22" width="5.8" height="69"/>
<rect x="1187.7" y="229.8" class="st23" width="5.8" height="6.1"/>
<g>
	<rect x="234.5" y="175.4" class="st24" width="104.2" height="66.1"/>
	<rect x="282.8" y="241.4" class="st22" width="7.7" height="218.4"/>
	<rect x="282.8" y="241.4" class="st23" width="7.7" height="11.9"/>
	<rect x="252.6" y="459.9" class="st22" width="68.1" height="4.2"/>
</g>
<circle class="st23" cx="1316.9" cy="458.4" r="6.2"/>
<line class="st27" x1="1311.9" y1="458.4" x2="1311.9" y2="446.9"/>
<circle class="st23" cx="1346.6" cy="458.4" r="6.2"/>
<line class="st27" x1="1341.6" y1="458.4" x2="1341.6" y2="446.9"/>
<circle class="st23" cx="1423.9" cy="458.4" r="6.2"/>
<line class="st27" x1="1429" y1="458.4" x2="1429" y2="446.9"/>
<circle class="st23" cx="1394.2" cy="458.4" r="6.2"/>
<line class="st27" x1="1399.3" y1="458.4" x2="1399.3" y2="446.9"/>
<path class="st28" d="M1407.7,363.1c0-12.4-10-22.4-22.4-22.4"/>
<g>
	<polyline class="st29" points="1425.1,268.3 1418.1,293.7 1406.8,328.8 1406.8,361.8 	"/>
	<polyline class="st30" points="1421.9,244.3 1423.9,229.8 1431.3,216 	"/>
	<line class="st31" x1="1342.3" y1="340.8" x2="1382.3" y2="340.8"/>
	<line class="st32" x1="1323.3" y1="378.3" x2="1394.3" y2="378.3"/>
</g>
<path class="st15" d="M680.8,312.8c0,10-20.5,18.2-30.5,18.2s-18.1-8.1-18.1-18.1s8.1-18.1,18.1-18.1S680.8,302.8,680.8,312.8z"/>
<path class="st15" d="M640.8,212.5L640.8,212.5c-4.8,0-8.6,3.9-8.6,8.6v92.4h60V266C692.2,229.6,660.9,212.5,640.8,212.5z"/>
<path class="st33" d="M692.2,300.7l-23.1-7.3c-8.9-2.9-16-9.9-18.9-18.8l-10.5-37l15.1-4.9l12.5,38.3c1.1,3.4,3.8,6.1,7.3,7.2
	l17.6,5.5L692.2,300.7z"/>
<path class="st34" d="M781.4,279.2l5.4-1.7c1.8-0.6,3.3-2,3.9-3.8l14.6-41.5l14.3,5.4l-11.9,40.1c-2.5,7.1-8.3,12.7-15.5,15
	l-10.9,3.5L781.4,279.2z"/>
<path class="st17" d="M646.2,229.6l12.5,38.3c2,6.2,6.9,11,13.1,13l36.5,11.7"/>
<path class="st35" d="M813.9,228.1l-14.6,41.5c-1.6,4.5-5.2,8-9.7,9.4l-37.8,12"/>
<path class="st6" d="M820.7,184.8h-0.4h-3c-3.3,0-5.6-2.6-5.6-5.9v-15c0-1.7-1.7-3.1-3.4-3.1h-1.6v7.1c-3,0-6-2.7-6-6v-2
	c0-3.6-2.8-6.1-6.4-6.1h-8.5h-4.1v-5h39V184.8z"/>
<path class="st36" d="M779.9,130.4L779.9,130.4v1.1c0,2.7,2.2,4.9,4.9,4.9h-4.5h28.2h3c4.1,0,7.5,3.4,7.5,7.5v0h1.5
	c4.1,0,7.5,3.4,7.5,7.5v0v25.6c0,3.3-2.7,5.9-5.9,5.9h-1.6h-3c-3.3,0-6-2.7-6-6l0,0v-12c0-1.7-1.4-3-3-3h-1.5v6l0,0
	c-3.3,0-6-2.7-6-6l0,0v-4c0-3.6-2.9-6.5-6.5-6.5h-8.5h-4.5h-1.5c-5.8,0-10.5-4.7-10.5-10.5v0c0-2,0.5-3.8,1.5-5.4c0,0,0.3,4,5.8,4.7
	C774.8,134.7,777.4,131.9,779.9,130.4L779.9,130.4z"/>
<path class="st37" d="M1311.9,448.8v-4.6c0-7.3,5.9-13.1,13.1-13.1h49.1"/>
<path class="st37" d="M1341.6,448.8v-4.6c0-7.3,5.9-13.1,13.1-13.1h14.9"/>
<path class="st37" d="M1429,448.8v-4.6c0-7.3-5.9-13.1-13.1-13.1h-49.1"/>
<path class="st37" d="M1399.3,448.8v-4.6c0-7.3-5.9-13.1-13.1-13.1h-14.9"/>
<path class="st33" d="M633,318.4h45.7c1.2-1.6,1.9-3.2,2.1-4.9h-48.6C632.3,315.2,632.5,316.9,633,318.4z"/>
<path class="st34" d="M791.6,318.4H825c0.6-1.5,1.1-3.2,1.3-4.9h-36C790.5,315.3,790.9,316.9,791.6,318.4z"/>
</svg>
