<svg xmlns="http://www.w3.org/2000/svg" viewBox="0 0 716.426 434.485"><defs><style>.cls-1{isolation:isolate;}.cls-2{fill:#bea568;}.cls-3{fill:#d6e2e0;}.cls-4{fill:#6e614c;}.cls-5{fill:#ce9659;}.cls-6{fill:#ae7c50;}.cls-7{fill:#686868;}.cls-13,.cls-15,.cls-18,.cls-21,.cls-23,.cls-28,.cls-29,.cls-8{fill:none;}.cls-28,.cls-8{stroke:#ff4c40;}.cls-13,.cls-15,.cls-18,.cls-21,.cls-23,.cls-27,.cls-28,.cls-29,.cls-8{stroke-miterlimit:10;}.cls-8{stroke-width:1.18px;}.cls-9{fill:#595758;}.cls-10{fill:#f3f3f3;opacity:0.4;mix-blend-mode:screen;}.cls-11{fill:#424446;}.cls-12{fill:#dbc8b5;}.cls-13,.cls-15,.cls-23{stroke:#595758;}.cls-13{stroke-linecap:round;stroke-width:12.319px;}.cls-14{fill:#606060;}.cls-15,.cls-21{stroke-width:11.671px;}.cls-16{fill:#eb9541;}.cls-17{fill:#ad9f8e;}.cls-18{stroke:#424446;stroke-width:9.077px;}.cls-19{fill:#536070;}.cls-20,.cls-27{fill:#fff;}.cls-21{stroke:#414b58;}.cls-22{fill:#414b58;}.cls-23{stroke-width:11.997px;}.cls-24{fill:#715e46;}.cls-25{fill:#584936;}.cls-26{fill:#cea568;}.cls-27{stroke:#000;stroke-width:0.585px;}.cls-28{stroke-width:4.485px;}.cls-29{stroke:#fff;stroke-width:3.844px;}.cls-30{fill:#ded7c2;}.cls-31{fill:#9d9d9d;}</style></defs><title>7_illu_m</title><g class="cls-1"><g id="Layer_1" data-name="Layer 1"><rect class="cls-2" x="112.665" y="139.067" width="59.013" height="10.745" transform="translate(275.2 284.615) rotate(-180)"/><rect class="cls-3" x="154.12" y="141.02" width="15.05" height="6.838" transform="translate(314.147 284.615) rotate(-180)"/><rect class="cls-2" x="112.665" y="150.789" width="59.013" height="10.745" transform="translate(275.2 308.059) rotate(-180)"/><rect class="cls-3" x="154.12" y="152.742" width="15.05" height="6.838" transform="translate(314.147 308.059) rotate(-180)"/><rect class="cls-2" x="112.665" y="162.511" width="59.013" height="10.745" transform="translate(275.2 331.503) rotate(-180)"/><rect class="cls-3" x="154.12" y="164.464" width="15.05" height="6.838" transform="translate(314.147 331.503) rotate(-180)"/><rect class="cls-2" x="112.665" y="174.233" width="59.013" height="10.745" transform="translate(275.2 354.946) rotate(-180)"/><rect class="cls-3" x="154.12" y="176.186" width="15.05" height="6.838" transform="translate(314.147 354.946) rotate(-180)"/><rect class="cls-2" x="112.665" y="185.955" width="59.013" height="10.745" transform="translate(275.2 378.39) rotate(-180)"/><rect class="cls-3" x="154.12" y="187.908" width="15.05" height="6.838" transform="translate(314.147 378.39) rotate(-180)"/><rect class="cls-2" x="172.855" y="139.067" width="59.013" height="10.745" transform="translate(395.579 284.615) rotate(-180)"/><rect class="cls-3" x="214.309" y="141.02" width="15.05" height="6.838" transform="translate(434.526 284.615) rotate(-180)"/><rect class="cls-2" x="172.855" y="150.789" width="59.013" height="10.745" transform="translate(395.579 308.059) rotate(-180)"/><rect class="cls-3" x="214.309" y="152.742" width="15.05" height="6.838" transform="translate(434.526 308.059) rotate(-180)"/><rect class="cls-2" x="172.855" y="162.511" width="59.013" height="10.745" transform="translate(395.579 331.503) rotate(-180)"/><rect class="cls-3" x="214.309" y="164.464" width="15.05" height="6.838" transform="translate(434.526 331.503) rotate(-180)"/><rect class="cls-2" x="172.855" y="174.233" width="59.013" height="10.745" transform="translate(395.579 354.946) rotate(-180)"/><rect class="cls-3" x="214.309" y="176.186" width="15.05" height="6.838" transform="translate(434.526 354.946) rotate(-180)"/><rect class="cls-2" x="172.855" y="185.955" width="59.013" height="10.745" transform="translate(395.579 378.39) rotate(-180)"/><rect class="cls-4" x="103.522" y="145.548" width="59.013" height="0.977"/><rect class="cls-4" x="103.522" y="157.27" width="59.013" height="0.977"/><rect class="cls-4" x="103.522" y="168.992" width="59.013" height="0.977"/><rect class="cls-4" x="103.522" y="180.714" width="59.013" height="0.977"/><rect class="cls-4" x="103.522" y="192.436" width="59.013" height="0.977"/><rect class="cls-4" x="163.712" y="145.548" width="59.013" height="0.977"/><rect class="cls-4" x="163.712" y="157.27" width="59.013" height="0.977"/><rect class="cls-4" x="163.712" y="168.992" width="59.013" height="0.977"/><rect class="cls-4" x="163.712" y="180.714" width="59.013" height="0.977"/><rect class="cls-4" x="163.712" y="192.436" width="59.013" height="0.977"/><rect class="cls-3" x="214.309" y="187.908" width="15.05" height="6.838" transform="translate(434.526 378.39) rotate(-180)"/><rect class="cls-4" x="171.678" y="139.067" width="1.254" height="58.61" transform="translate(335.468 332.479) rotate(-180)"/><rect class="cls-5" x="112.665" y="95.46" width="59.091" height="42.693" transform="translate(275.278 229.348) rotate(-180)"/><rect class="cls-2" x="112.665" y="98.249" width="59.091" height="39.904" transform="translate(275.278 232.137) rotate(-180)"/><rect class="cls-3" x="159.788" y="101.318" width="8.846" height="7.981" transform="translate(319.279 206.353) rotate(-180)"/><rect class="cls-2" x="112.665" y="57.117" width="59.091" height="39.904" transform="translate(275.278 149.874) rotate(-180)"/><rect class="cls-4" x="112.665" y="97.021" width="59.091" height="1.228" transform="translate(275.278 191.006) rotate(-180)"/><rect class="cls-3" x="159.788" y="60.187" width="8.846" height="7.981" transform="translate(319.279 124.09) rotate(-180)"/><rect class="cls-2" x="112.665" y="15.986" width="59.091" height="39.904" transform="translate(275.278 67.611) rotate(-180)"/><rect class="cls-4" x="112.665" y="55.89" width="59.091" height="1.228" transform="translate(275.278 108.743) rotate(-180)"/><rect class="cls-3" x="159.788" y="19.055" width="8.846" height="7.981" transform="translate(319.279 41.828) rotate(-180)"/><rect class="cls-5" x="172.855" y="95.46" width="59.091" height="42.693" transform="translate(395.657 229.348) rotate(-180)"/><rect class="cls-2" x="172.855" y="98.249" width="59.091" height="39.904" transform="translate(395.657 232.137) rotate(-180)"/><rect class="cls-3" x="219.978" y="101.318" width="8.846" height="7.981" transform="translate(439.659 206.353) rotate(-180)"/><rect class="cls-2" x="172.855" y="57.117" width="59.091" height="39.904" transform="translate(395.657 149.874) rotate(-180)"/><rect class="cls-4" x="172.855" y="97.021" width="59.091" height="1.228" transform="translate(395.657 191.006) rotate(-180)"/><rect class="cls-3" x="219.978" y="60.187" width="8.846" height="7.981" transform="translate(439.659 124.09) rotate(-180)"/><rect class="cls-2" x="172.855" y="15.986" width="59.091" height="39.904" transform="translate(395.657 67.611) rotate(-180)"/><rect class="cls-4" x="172.855" y="55.89" width="59.091" height="1.228" transform="translate(395.657 108.743) rotate(-180)"/><rect class="cls-3" x="219.978" y="19.055" width="8.846" height="7.981" transform="translate(439.659 41.828) rotate(-180)"/><rect class="cls-4" x="171.781" y="78.971" width="1.049" height="119.281" transform="translate(301.774 -37.958) rotate(90)"/><rect class="cls-4" x="171.678" y="15.986" width="1.254" height="123.085" transform="translate(335.468 150.793) rotate(-180)"/><rect class="cls-6" x="99.243" y="193.413" width="126.97" height="3.907"/><rect class="cls-6" x="99.243" y="208.065" width="126.97" height="3.907"/><rect class="cls-6" x="150.645" y="195.366" width="16.477" height="12.699"/><rect class="cls-6" x="209.736" y="196.343" width="16.477" height="12.699"/><rect class="cls-6" x="99.243" y="196.343" width="16.477" height="12.699"/><rect class="cls-6" x="99.637" y="414.177" width="126.97" height="3.907"/><rect class="cls-6" x="99.637" y="428.829" width="126.97" height="3.907"/><rect class="cls-6" x="151.038" y="416.13" width="16.477" height="12.699"/><rect class="cls-6" x="210.13" y="417.107" width="16.477" height="12.699"/><rect class="cls-6" x="99.637" y="417.107" width="16.477" height="12.699"/><rect class="cls-5" x="112.665" y="355.629" width="118.182" height="62.811" transform="translate(334.369 769.806) rotate(-180)"/><rect class="cls-2" x="112.665" y="359.732" width="118.182" height="58.708" transform="translate(334.369 773.909) rotate(-180)"/><rect class="cls-3" x="206.912" y="364.248" width="17.691" height="11.742" transform="translate(422.372 735.975) rotate(-180)"/><rect class="cls-2" x="112.665" y="299.218" width="118.182" height="58.708" transform="translate(334.369 652.88) rotate(-180)"/><rect class="cls-4" x="112.665" y="357.926" width="118.182" height="1.806" transform="translate(334.369 713.395) rotate(-180)"/><rect class="cls-3" x="206.912" y="303.734" width="17.691" height="11.742" transform="translate(422.372 614.946) rotate(-180)"/><rect class="cls-2" x="112.665" y="238.704" width="118.182" height="58.708" transform="translate(334.369 531.851) rotate(-180)"/><rect class="cls-4" x="112.665" y="297.412" width="118.182" height="1.806" transform="translate(334.369 592.366) rotate(-180)"/><rect class="cls-3" x="206.912" y="243.22" width="17.691" height="11.742" transform="translate(422.372 493.917) rotate(-180)"/><rect class="cls-7" x="84.848" width="10.985" height="432.736"/><rect class="cls-7" x="230.492" width="10.985" height="432.736"/><rect class="cls-7" x="167.421" y="153.302" width="9.768" height="134.66" transform="translate(383.795 44.063) rotate(90)"/><rect class="cls-7" x="167.421" y="355.018" width="9.768" height="134.66" transform="translate(585.51 245.779) rotate(90)"/><polygon class="cls-7" points="230.492 222.229 230.492 235.905 95.833 408.804 95.833 395.128 230.492 222.229"/><rect class="cls-7" x="167.421" y="-48.902" width="9.768" height="134.66" transform="translate(181.59 -158.141) rotate(90)"/><polygon class="cls-7" points="230.492 20.025 230.492 33.701 95.833 206.6 95.833 192.924 230.492 20.025"/><line class="cls-8" x1="529.973" y1="211.544" x2="218.283" y2="103.441"/><rect class="cls-9" x="88.3" y="241.05" width="4.539" height="26.304"/><rect class="cls-9" x="71.847" y="234.363" width="37.444" height="27.232"/><rect class="cls-9" x="71.847" y="265.554" width="37.444" height="16.996"/><rect class="cls-3" x="74.522" y="236.308" width="32.095" height="23.342"/><polygon class="cls-10" points="84.41 259.65 74.522 259.65 74.522 236.308 93.487 236.308 84.41 259.65"/><rect class="cls-11" x="525.67" y="246.462" width="5.835" height="18.803" transform="translate(189.606 -234.278) rotate(30)"/><rect class="cls-12" x="596.845" y="192.518" width="9.726" height="22.612" rx="4.863" ry="4.863"/><path class="cls-9" d="M617.138,216.542l-13.847,1.433a2.478,2.478,0,0,1-2.733-2.466v-2.872a2.478,2.478,0,0,1,2.139-2.455l13.847-1.91a2.478,2.478,0,0,1,2.817,2.455v3.35A2.478,2.478,0,0,1,617.138,216.542Z" transform="translate(-9.143 -4.264)"/><ellipse class="cls-12" cx="542.317" cy="227.663" rx="5.104" ry="7.005" transform="translate(2.802 477.65) rotate(-48.385)"/><path class="cls-11" d="M541.9,220.107c3.089,1.135,6.156.525,6.85-1.363s-1.249-4.339-4.338-5.474l-7.527-2.472-1.2,7.026,6.216,2.283" transform="translate(-9.143 -4.264)"/><path class="cls-11" d="M539.02,234.6c-1.416.368-2.75-.052-2.979-.937s.731-1.9,2.147-2.268l.515-.133a2.192,2.192,0,0,0,1.619-1.809l1.489-10.355,3.932.566L544.3,231.479a3.006,3.006,0,0,1-2.434,2.593Z" transform="translate(-9.143 -4.264)"/><ellipse class="cls-12" cx="539.415" cy="225.724" rx="4.95" ry="3.616" transform="translate(200.882 704.598) rotate(-78.422)"/><ellipse class="cls-12" cx="545.065" cy="225.435" rx="3.306" ry="4.526" transform="translate(5.391 478.956) rotate(-48.385)"/><path class="cls-13" d="M644.324,247.759l-3.119,19.957q-.123.79-.173,1.59l-1.383,22.12a8.749,8.749,0,0,1-8.732,8.2H563.6" transform="translate(-9.143 -4.264)"/><rect class="cls-14" x="537.599" y="138.401" width="4.539" height="32.151"/><path class="cls-15" d="M611.535,228.858l-24.593,9.5c-4.539,1.945-8.429,2.594-13.616.649L547.39,229.28" transform="translate(-9.143 -4.264)"/><path class="cls-16" d="M616.4,212.422h0a6.05,6.05,0,0,1,6.2,5.883V281.15H579.575V248.827C579.575,224.029,602,212.422,616.4,212.422Z" transform="translate(-9.143 -4.264)"/><path class="cls-7" d="M563.924,351.176h97.582V143.693a11.671,11.671,0,0,0-11.671-11.67H527.291L454.348,350.851h40.524l-.325-25.287,34.365-61.6-7.133-5.187-11.67,14.913L494.547,263.32l39.552-120.6H640.433A11.671,11.671,0,0,1,652.1,154.392V305.465H563.276Z" transform="translate(-9.143 -4.264)"/><rect class="cls-7" x="532.719" y="223.747" width="3.274" height="47.133" transform="translate(1006.57 -96.059) rotate(120)"/><rect class="cls-7" x="400.142" y="147.21" width="19.451" height="274.265"/><rect class="cls-7" x="400.142" y="147.21" width="44.09" height="6.484"/><rect class="cls-7" x="386.526" y="302.173" width="13.616" height="102.444"/><rect class="cls-7" x="422.187" y="150.452" width="7.132" height="217.208"/><rect class="cls-7" x="417" y="197.784" width="27.232" height="3.242"/><rect class="cls-7" x="440.342" y="152.397" width="3.89" height="48.629"/><rect class="cls-7" x="433.858" y="201.026" width="3.89" height="129.028"/><rect class="cls-7" x="417" y="327.46" width="40.2" height="3.242"/><polygon class="cls-7" points="389.12 403.969 389.12 406.563 258.795 409.156 397.549 413.047 397.549 403.969 389.12 403.969"/><path class="cls-12" d="M615.714,175.506v24.8a7.781,7.781,0,0,1-7.781,7.781h-9.726a7.781,7.781,0,0,1-7.78-7.781v-24.8Z" transform="translate(-9.143 -4.264)"/><path class="cls-17" d="M615.795,197.509h-2.189a3.654,3.654,0,0,1-3.647-3.848v-9.7a2.225,2.225,0,0,0-2.21-2.009h-1.032v4.581a4.027,4.027,0,0,1-3.89-3.89v-1.276a3.935,3.935,0,0,0-4.155-3.954h-8.164v-3.242h25.287Z" transform="translate(-9.143 -4.264)"/><path class="cls-17" d="M615.795,197.509h-2.189a3.654,3.654,0,0,1-3.647-3.848v-9.7a2.225,2.225,0,0,0-2.21-2.009h-1.032v4.581a4.027,4.027,0,0,1-3.89-3.89v-1.276a3.935,3.935,0,0,0-4.155-3.954h-8.164v-3.242h25.287Z" transform="translate(-9.143 -4.264)"/><line class="cls-18" x1="544.407" y1="324.218" x2="544.407" y2="340.428"/><path class="cls-19" d="M590.477,166.105h19.239a4.863,4.863,0,0,1,4.863,4.863h.973a4.862,4.862,0,0,1,4.862,4.863h0v16.578a3.845,3.845,0,0,1-3.845,3.846h-2.963a3.891,3.891,0,0,1-3.89-3.891h0v-7.758a1.967,1.967,0,0,0-1.967-1.967H606.8v3.89h0a3.89,3.89,0,0,1-3.89-3.89h0v-2.572a4.235,4.235,0,0,0-4.236-4.236H589.3C583.7,175.831,583.7,166.105,590.477,166.105Z" transform="translate(-9.143 -4.264)"/><path class="cls-19" d="M595.33,186.063a.993.993,0,1,1-.993-.993A.993.993,0,0,1,595.33,186.063Z" transform="translate(-9.143 -4.264)"/><path class="cls-11" d="M595.33,186.063a.993.993,0,1,1-.993-.993A.993.993,0,0,1,595.33,186.063Z" transform="translate(-9.143 -4.264)"/><ellipse class="cls-20" cx="585.529" cy="195.709" rx="2.401" ry="1.611"/><path class="cls-12" d="M590.808,185.6l-3.615,5.342a1.948,1.948,0,0,0,1.685,2.925h1.932S590.829,186.174,590.808,185.6Z" transform="translate(-9.143 -4.264)"/><path class="cls-9" d="M547.019,336.954l-8.795,4.643a11.092,11.092,0,0,1-4.349.886s-3.5,0-5.288,1.56-1.951,4.006-1.951,6.073v.483H547l2.341-.072c1.62-.879.9-.79,3.89-.648l1.26.72h5.955v-3.722c0,2.291,0,4.236,0-6.755,0-4.508-3.323-2.562-3.323-2.562-2.593,1.945-5.187,1.3-8.429-.649Z" transform="translate(-9.143 -4.264)"/><path class="cls-15" d="M611.58,285.689c-.648,10.374-62.893-18.155-58.678,50.574" transform="translate(-9.143 -4.264)"/><path class="cls-21" d="M608.014,278.557" transform="translate(-9.143 -4.264)"/><path class="cls-9" d="M588.872,281.186c0,6.847,13.3,12.483,19.792,12.483s11.75-5.551,11.75-12.4-5.261-12.4-11.75-12.4S588.872,274.339,588.872,281.186Z" transform="translate(-9.143 -4.264)"/><path class="cls-9" d="M614.806,215.491h0a5.608,5.608,0,0,1,5.608,5.608V281H581.52V250.192C581.52,226.555,601.794,215.491,614.806,215.491Z" transform="translate(-9.143 -4.264)"/><path class="cls-11" d="M581.75,274l14.723-4.71a19.033,19.033,0,0,0,12.256-12.173l6.824-25.281-9.779-3.2-8.136,24.851a7.332,7.332,0,0,1-4.722,4.689l-11.173,3.575Z" transform="translate(-9.143 -4.264)"/><rect class="cls-11" x="521.146" y="168.607" width="37.444" height="27.232"/><rect class="cls-3" x="523.821" y="170.552" width="32.095" height="23.342"/><polygon class="cls-10" points="533.709 193.894 523.821 193.894 523.821 170.552 542.786 170.552 533.709 193.894"/><path class="cls-16" d="M620.658,243.544l1.3,37.606H580.566l.54-33.716s1.081,24.423,20.965,22.91S620.658,243.544,620.658,243.544Z" transform="translate(-9.143 -4.264)"/><ellipse class="cls-12" cx="558.006" cy="260.656" rx="5.104" ry="7.376" transform="matrix(0.29, -0.957, 0.957, 0.29, 137.696, 714.927)"/><ellipse class="cls-12" cx="560.729" cy="258.026" rx="3.306" ry="4.526" transform="translate(142.147 715.665) rotate(-73.156)"/><path class="cls-15" d="M611.32,226.555l-8.137,24.851a13.147,13.147,0,0,1-8.488,8.432l-30.722.684" transform="translate(-9.143 -4.264)"/><path class="cls-22" d="M620.414,176.19,585.744,169a5.645,5.645,0,0,0-.358,3.541l35.028,7.264Z" transform="translate(-9.143 -4.264)"/><path class="cls-16" d="M620,177.273a1,1,0,0,1-.2-.021l-39.189-8.126a.987.987,0,1,1,.4-1.933l39.19,8.126a.987.987,0,0,1-.2,1.954Z" transform="translate(-9.143 -4.264)"/><path class="cls-16" d="M584.77,167.708a8.822,8.822,0,0,0,5.05-4.852c3.363-7.777,11.547-12.371,19.717-10.539,9.308,2.086,15.073,11.719,12.877,21.516l-1.077,3.766-40.231-9.915Z" transform="translate(-9.143 -4.264)"/><path class="cls-12" d="M86.037,287.838c2.182,1.96,4.517.822,7.767-1.9s4.359-6.749,2.476-9-6.043-1.867-9.293.854S83.855,285.878,86.037,287.838Z" transform="translate(-9.143 -4.264)"/><ellipse class="cls-12" cx="86.716" cy="280.461" rx="4.709" ry="3.44" transform="translate(-168.943 116.798) rotate(-39.932)"/><path class="cls-23" d="M25.942,287.193,54.4,294.371c7.435,1.14,32.54-10.782,32.54-10.782" transform="translate(-9.143 -4.264)"/><rect class="cls-11" x="15.64" y="421.966" width="11.127" height="7.758" transform="translate(33.263 847.426) rotate(-180)"/><rect class="cls-12" x="16.652" y="262.001" width="10.119" height="23.527" rx="5.06" ry="5.06" transform="translate(34.28 543.265) rotate(-180)"/><path class="cls-9" d="M15.92,280.7l13.846,1.432a2.478,2.478,0,0,0,2.734-2.465v-2.873a2.479,2.479,0,0,0-2.14-2.455l-13.847-1.91a2.479,2.479,0,0,0-2.817,2.456v3.35A2.479,2.479,0,0,0,15.92,280.7Z" transform="translate(-9.143 -4.264)"/><path class="cls-12" d="M16.652,236.113v33.9H34.866a8.119,8.119,0,0,0,8.095-8.1v-25.8Z" transform="translate(-9.143 -4.264)"/><path class="cls-17" d="M16.652,259.007h2.024a4.048,4.048,0,0,0,4.047-4.048V244.487a2.047,2.047,0,0,1,2.047-2.047h.989v4.048a4.047,4.047,0,0,0,4.047-4.048v-.276a4.407,4.407,0,0,1,4.408-4.407h8.747v-2.444H16.652Z" transform="translate(-9.143 -4.264)"/><path class="cls-19" d="M37.691,247.6a1.033,1.033,0,1,0,1.033-1.033A1.033,1.033,0,0,0,37.691,247.6Z" transform="translate(-9.143 -4.264)"/><path class="cls-12" d="M42.935,247.118l3.222,5.557a2.027,2.027,0,0,1-1.753,3.044H42.811S42.624,247.429,42.935,247.118Z" transform="translate(-9.143 -4.264)"/><path class="cls-16" d="M16.447,276.417h0A6.24,6.24,0,0,0,10,282.428V350.8H43.534V301.669C43.534,287.723,31.406,276.417,16.447,276.417Z" transform="translate(-9.143 -4.264)"/><polygon class="cls-9" points="4.347 344.97 4.347 419.851 19.652 419.851 28.59 344.97 4.347 344.97"/><path class="cls-20" d="M36.46,260.947v.3a1.517,1.517,0,0,0,1.517,1.518h2.109a1.517,1.517,0,0,0,1.517-1.518v-.3" transform="translate(-9.143 -4.264)"/><path class="cls-9" d="M27.575,425.1l8.795,4.643a11.1,11.1,0,0,0,4.35.886s3.5,0,5.287,1.561,1.952,4,1.952,6.072v.483H27.6l-2.34-.072c-1.62-.879-.9-.79-3.89-.648l-1.261.72H14.154v-3.722c0,2.291,0,4.236,0-6.755,0-4.507,3.323-2.562,3.323-2.562,2.594,1.945,5.187,1.3,8.429-.649Z" transform="translate(-9.143 -4.264)"/><path class="cls-9" d="M17.427,278.221h0a5.835,5.835,0,0,0-5.835,5.835V350.43H41.941V302.735A24.514,24.514,0,0,0,17.427,278.221Z" transform="translate(-9.143 -4.264)"/><path class="cls-16" d="M10.742,350.8H42.961l-.8-39.989s-1.827,17.6-15.423,17.6-15.146-17.162-15.146-17.162l-.85,39.556" transform="translate(-9.143 -4.264)"/><path class="cls-11" d="M52.766,352.15c-2.108-2.527-2.565-5.621-1.021-6.909s4.506-.284,6.615,2.244l4.86,6.256-6.212,3.494-4.242-5.085" transform="translate(-9.143 -4.264)"/><path class="cls-11" d="M40.083,359.737c.13,1.457.973,2.573,1.884,2.491s1.543-1.328,1.413-2.785l-.047-.53a2.191,2.191,0,0,1,1.159-2.133l9.25-4.886-1.855-3.513-10.639,5.328a3.009,3.009,0,0,0-1.624,3.165Z" transform="translate(-9.143 -4.264)"/><path class="cls-12" d="M39.141,347.806c-2.017,2.13-.942,4.494,1.692,7.815s6.631,4.535,8.929,2.713,2.026-5.992-.608-9.313S41.158,345.677,39.141,347.806Z" transform="translate(-9.143 -4.264)"/><ellipse class="cls-12" cx="46.497" cy="348.68" rx="3.44" ry="4.709" transform="translate(-215.745 100.12) rotate(-38.418)"/><path class="cls-23" d="M21.054,289.733v21.322c0,7.225,22.31,37.771,22.31,37.771" transform="translate(-9.143 -4.264)"/><path class="cls-24" d="M40.716,226.838H22.723a5.059,5.059,0,0,0-5.059,5.059H16.652a5.059,5.059,0,0,0-5.06,5.06h0v17.248a4,4,0,0,0,4,4h3.083a4.048,4.048,0,0,0,4.047-4.048h0v-8.072a2.046,2.046,0,0,1,2.047-2.047h.989v4.048h0a4.049,4.049,0,0,0,4.048-4.048h0v-2.676a4.407,4.407,0,0,1,4.407-4.407h8.949c3.57-.529,3.57-2.928,3.57-5.327C46.733,227.631,42.532,226.838,40.716,226.838Z" transform="translate(-9.143 -4.264)"/><path class="cls-25" d="M46.733,231.63a4.6,4.6,0,0,0-.265-1.567l-34.8,7.216c-.026,0-.048.016-.074.023v3.4a1.738,1.738,0,0,0,.432.075,1.791,1.791,0,0,0,.361-.037l34.262-7.1A15.921,15.921,0,0,0,46.733,231.63Z" transform="translate(-9.143 -4.264)"/><path class="cls-16" d="M12.025,238.82a.987.987,0,0,1-.2-1.954l39.19-8.126a.987.987,0,0,1,.4,1.933L12.226,238.8A1,1,0,0,1,12.025,238.82Z" transform="translate(-9.143 -4.264)"/><path class="cls-16" d="M47.253,229.255A8.822,8.822,0,0,1,42.2,224.4c-3.363-7.777-11.547-12.371-19.717-10.54-9.307,2.086-15.072,11.719-12.877,21.517l1.078,3.765,40.23-9.915Z" transform="translate(-9.143 -4.264)"/><path class="cls-4" d="M171.984,62.932h91.081V56.844H175.718A60.921,60.921,0,0,0,171.984,62.932Z" transform="translate(-9.143 -4.264)"/><path class="cls-26" d="M164.812,91.635a60.982,60.982,0,0,0,98.253,48.281V62.932H171.984A60.717,60.717,0,0,0,164.812,91.635Z" transform="translate(-9.143 -4.264)"/><path class="cls-26" d="M175.718,56.844h87.347V43.354a60.962,60.962,0,0,0-87.347,13.49Z" transform="translate(-9.143 -4.264)"/><rect class="cls-3" x="203.731" y="78.15" width="43.855" height="39.567" transform="translate(442.175 191.603) rotate(-180)"/><line class="cls-27" x1="200.283" y1="93.669" x2="200.283" y2="109.897"/><line class="cls-27" x1="202.624" y1="93.669" x2="202.624" y2="109.897"/><line class="cls-27" x1="204.964" y1="93.669" x2="204.964" y2="109.897"/><line class="cls-27" x1="209.645" y1="93.669" x2="209.645" y2="109.897"/><line class="cls-27" x1="209.645" y1="93.669" x2="209.645" y2="109.897"/><line class="cls-27" x1="211.985" y1="93.669" x2="211.985" y2="109.897"/><line class="cls-27" x1="216.666" y1="93.669" x2="216.666" y2="109.897"/><line class="cls-27" x1="219.006" y1="93.669" x2="219.006" y2="109.897"/><line class="cls-27" x1="214.849" y1="93.669" x2="214.849" y2="109.897"/><line class="cls-27" x1="201.307" y1="93.669" x2="201.307" y2="109.897"/><line class="cls-27" x1="203.647" y1="93.669" x2="203.647" y2="109.897"/><line class="cls-27" x1="203.009" y1="93.669" x2="203.009" y2="109.897"/><line class="cls-27" x1="205.988" y1="93.669" x2="205.988" y2="109.897"/><line class="cls-27" x1="210.669" y1="93.669" x2="210.669" y2="109.897"/><line class="cls-27" x1="211.297" y1="93.669" x2="211.297" y2="109.897"/><line class="cls-27" x1="213.009" y1="93.669" x2="213.009" y2="109.897"/><line class="cls-27" x1="229.855" y1="93.669" x2="229.855" y2="109.897"/><line class="cls-27" x1="232.195" y1="93.669" x2="232.195" y2="109.897"/><line class="cls-27" x1="230.879" y1="93.669" x2="230.879" y2="109.897"/><line class="cls-27" x1="231.507" y1="93.669" x2="231.507" y2="109.897"/><line class="cls-27" x1="233.219" y1="93.669" x2="233.219" y2="109.897"/><line class="cls-27" x1="222.971" y1="93.669" x2="222.971" y2="109.897"/><line class="cls-27" x1="225.312" y1="93.669" x2="225.312" y2="109.897"/><line class="cls-27" x1="223.995" y1="93.669" x2="223.995" y2="109.897"/><line class="cls-27" x1="226.964" y1="93.669" x2="226.964" y2="109.897"/><line class="cls-27" x1="226.336" y1="93.669" x2="226.336" y2="109.897"/><line class="cls-27" x1="217.69" y1="93.669" x2="217.69" y2="109.897"/><line class="cls-27" x1="220.03" y1="93.669" x2="220.03" y2="109.897"/><line class="cls-27" x1="221.622" y1="93.669" x2="221.622" y2="109.897"/><line class="cls-28" x1="268.631" y1="120.182" x2="217.69" y2="102.514"/><circle class="cls-29" cx="216.666" cy="87.371" r="61.945"/><path class="cls-11" d="M620.414,281.271c0-.09-.011-.178-.013-.268H588.883c0,.061-.011.121-.011.183a5.488,5.488,0,0,0,.135,1.176c-1.654.062-3.342.165-5.048.341l35.755,2.781A12.968,12.968,0,0,0,620.414,281.271Z" transform="translate(-9.143 -4.264)"/><polygon class="cls-11" points="4.347 351.043 27.865 351.043 28.404 346.533 4.347 346.533 4.347 351.043"/><path class="cls-30" d="M661.83,293.145h40.848s9.726-.648,11.022,9.726,11.671,106.983,11.671,106.983,2.594,10.374-11.022,10.374h-260V350.851H636.057a25.773,25.773,0,0,0,25.773-25.773Z" transform="translate(-9.143 -4.264)"/><circle class="cls-7" cx="453.31" cy="401.376" r="32.419"/><circle class="cls-7" cx="651.714" cy="401.376" r="32.419"/><circle class="cls-31" cx="453.31" cy="401.376" r="18.155"/><circle class="cls-31" cx="651.714" cy="401.376" r="18.155"/></g></g></svg>