<svg xmlns="http://www.w3.org/2000/svg" viewBox="0 0 1292.06 516.561"><defs><style>.cls-1{isolation:isolate;}.cls-2{fill:#bababa;}.cls-3{fill:#5d5263;}.cls-4{fill:#c5eae7;}.cls-5,.cls-7{fill:#a7a7a7;}.cls-6{fill:#bebebe;}.cls-7{mix-blend-mode:multiply;}.cls-17,.cls-8{fill:#f3f3f3;}.cls-8{opacity:0.15;mix-blend-mode:screen;}.cls-14,.cls-24,.cls-25,.cls-28,.cls-29,.cls-32,.cls-33,.cls-41,.cls-42,.cls-43,.cls-45,.cls-46,.cls-55,.cls-9{fill:none;}.cls-9{stroke:#797979;stroke-width:2.644px;}.cls-24,.cls-25,.cls-28,.cls-29,.cls-32,.cls-33,.cls-41,.cls-42,.cls-43,.cls-45,.cls-46,.cls-55,.cls-9{stroke-miterlimit:10;}.cls-10{fill:#fff;}.cls-11{fill:#d8bcb2;}.cls-12{fill:#ac958d;}.cls-13{fill:#e2f2f0;}.cls-14{stroke:#009e57;stroke-linejoin:round;stroke-width:1.558px;}.cls-15{fill:#741f42;}.cls-16{fill:#922a56;}.cls-18{fill:#e3c72d;}.cls-19{fill:#be924b;}.cls-20{fill:#8ed4f0;}.cls-21{fill:#f0f1f7;}.cls-22{fill:#dbc8b5;}.cls-23{fill:#4b5e69;}.cls-24{stroke:#7b838f;stroke-width:7px;}.cls-25{stroke:#e5e9f0;stroke-width:7.431px;}.cls-26{fill:#536070;}.cls-27{fill:#ad9f8e;}.cls-28,.cls-29{stroke:#536070;}.cls-28,.cls-32,.cls-33{stroke-width:8.917px;}.cls-29{stroke-width:9px;}.cls-30{fill:#e5e9f0;}.cls-31{fill:#7b838f;}.cls-32{stroke:#bebebe;}.cls-33{stroke:#a8b4c4;}.cls-34{fill:#a8b4c4;}.cls-35{fill:#e9e9e9;}.cls-36{fill:#4b4b4b;}.cls-37{fill:#969696;}.cls-38{fill:#606060;}.cls-39{fill:#737373;}.cls-40{fill:#797979;}.cls-41,.cls-43{stroke:#d4d4d4;}.cls-41{stroke-width:10px;}.cls-42,.cls-46{stroke:#f3f3f3;}.cls-42{stroke-width:11.874px;}.cls-43{stroke-width:11px;}.cls-44{fill:#d4d4d4;}.cls-45{stroke:#4b4b4b;stroke-linecap:round;stroke-width:1.192px;}.cls-46{stroke-width:10.732px;}.cls-47{fill:#f6f8f8;}.cls-48{fill:#3f3f3f;}.cls-49{fill:#e5e8e9;}.cls-50{fill:#616161;}.cls-51{fill:#4d4d4d;}.cls-52{fill:#bfb8b7;}.cls-53{fill:#b6bcc4;}.cls-54{fill:#919191;}.cls-55{stroke:#5d5263;stroke-width:4px;}</style></defs><title>3_illu</title><g class="cls-1"><g id="de"><path class="cls-2" d="M229.162,436.079H28.381c-7.629,0-13.813-6.81-13.813-15.212V272c0-8.4,6.184-15.212,13.813-15.212H229.162c7.629,0,13.813,6.811,13.813,15.212V420.867C242.975,429.269,236.791,436.079,229.162,436.079Z" transform="translate(-14.568 -12.905)"/><path class="cls-3" d="M242.975,271.668c0-8.216-6.184-14.876-13.813-14.876H28.381c-7.629,0-13.813,6.66-13.813,14.876v136H242.975Z" transform="translate(-14.568 -12.905)"/><rect class="cls-4" x="11.22" y="254.093" width="208.98" height="131.234"/><path class="cls-2" d="M589.011,435.959H388.2c-7.63,0-13.815-6.812-13.815-15.215V271.856c0-8.4,6.185-15.215,13.815-15.215H589.011c7.63,0,13.816,6.812,13.816,15.215V420.744C602.827,429.147,596.641,435.959,589.011,435.959Z" transform="translate(-14.568 -12.905)"/><path class="cls-3" d="M602.827,271.52c0-8.217-6.186-14.879-13.816-14.879H388.2c-7.63,0-13.815,6.662-13.815,14.879V407.545H602.827Z" transform="translate(-14.568 -12.905)"/><rect class="cls-4" x="369.528" y="253.927" width="209.016" height="131.256"/><path class="cls-5" d="M525.96,461.076c-.566-1.164-6.667-6.85-9.864-10.5s-3.2-14.614-3.2-14.614h-48.59s0,10.96-3.2,14.614-9.3,9.339-9.864,10.5c-.206.423,1.644,1.736,2.74,1.827s34.616,0,34.616,0,33.52.092,34.616,0S526.166,461.5,525.96,461.076Z" transform="translate(-14.568 -12.905)"/><path class="cls-6" d="M525.96,461.076a7.388,7.388,0,0,1-2.74,1.827c-.414.081-34.616,0-34.616,0s-34.2.081-34.616,0a7.388,7.388,0,0,1-2.74-1.827,2.462,2.462,0,0,0,2.488,2.318h69.735A2.462,2.462,0,0,0,525.96,461.076Z" transform="translate(-14.568 -12.905)"/><path class="cls-7" d="M463.22,445.765h50.768a50.117,50.117,0,0,1-1.089-10h-48.59A50.117,50.117,0,0,1,463.22,445.765Z" transform="translate(-14.568 -12.905)"/><path class="cls-5" d="M165.96,461.076c-.566-1.164-6.667-6.85-9.864-10.5s-3.2-14.614-3.2-14.614h-48.59s0,10.96-3.2,14.614-9.3,9.339-9.864,10.5c-.206.423,1.644,1.736,2.74,1.827s34.616,0,34.616,0,33.52.092,34.616,0S166.166,461.5,165.96,461.076Z" transform="translate(-14.568 -12.905)"/><path class="cls-6" d="M165.96,461.076a7.388,7.388,0,0,1-2.74,1.827c-.414.081-34.616,0-34.616,0s-34.2.081-34.616,0a7.388,7.388,0,0,1-2.74-1.827,2.462,2.462,0,0,0,2.488,2.318h69.735A2.462,2.462,0,0,0,165.96,461.076Z" transform="translate(-14.568 -12.905)"/><path class="cls-7" d="M103.22,445.765h50.768a50.117,50.117,0,0,1-1.089-10h-48.59A50.117,50.117,0,0,1,103.22,445.765Z" transform="translate(-14.568 -12.905)"/><path class="cls-8" d="M515.574,256.64,420.932,435.959H388.2c-7.631,0-13.816-6.812-13.816-15.216V271.856c0-8.4,6.185-15.216,13.816-15.216Z" transform="translate(-14.568 -12.905)"/><path class="cls-8" d="M156.062,256.791,61.436,436.08H28.705c-7.629,0-13.813-6.811-13.813-15.213V272c0-8.4,6.184-15.213,13.813-15.213Z" transform="translate(-14.568 -12.905)"/><circle class="cls-9" cx="1033.504" cy="314.158" r="21.669"/><polygon class="cls-3" points="1029.138 293.231 1029.138 287.894 1035.099 290.562 1040.39 293.231 1034.764 295.899 1029.138 298.567 1029.138 293.231"/><polygon class="cls-3" points="1039.138 335.637 1039.138 340.973 1033.671 338.305 1028.627 335.637 1033.882 332.968 1039.138 330.3 1039.138 335.637"/><polygon class="cls-3" points="1054.423 309.86 1059.759 309.86 1057.091 315.207 1054.423 320.192 1051.754 315.026 1049.086 309.86 1054.423 309.86"/><polygon class="cls-3" points="1012.59 318.86 1007.253 318.86 1009.921 313.279 1012.59 308.178 1015.258 313.519 1017.926 318.86 1012.59 318.86"/><rect class="cls-10" x="59.764" y="313.896" width="16.623" height="16.623" transform="translate(-178.91 75.992) rotate(-32.96)"/><rect class="cls-10" x="24.976" y="303.954" width="16.623" height="16.623"/><rect class="cls-10" x="47.63" y="298.679" width="16.623" height="16.623" transform="translate(-68.76 2.121) rotate(-10.34)"/><rect class="cls-10" x="435.114" y="327.42" width="22.424" height="22.424" transform="translate(-126.967 284.425) rotate(-32.96)"/><rect class="cls-10" x="393.269" y="318.512" width="22.424" height="22.424"/><rect class="cls-10" x="418.745" y="306.894" width="22.424" height="22.424" transform="translate(-64.681 69.432) rotate(-10.34)"/><rect class="cls-3" x="69.961" y="299.103" width="12.76" height="4.41"/><polygon class="cls-3" points="79.138 301.054 79.138 296.416 83.761 298.735 88.082 301.054 83.61 303.373 79.138 305.693 79.138 301.054"/><rect class="cls-3" x="158.591" y="310.453" width="12.76" height="4.41" transform="translate(315.374 612.412) rotate(-180)"/><polygon class="cls-3" points="146.138 299.5 146.138 294.861 142.248 297.181 138.295 299.5 142.217 301.819 146.138 304.138 146.138 299.5"/><rect class="cls-3" x="123.988" y="347.495" width="12.437" height="4.664" transform="translate(-234.189 467.128) rotate(-90)"/><polygon class="cls-3" points="115.351 333.813 119.989 333.813 117.67 329.38 115.351 325.156 113.032 329.484 110.713 333.813 115.351 333.813"/><path class="cls-11" d="M138.417,330.745H121.923a4.688,4.688,0,0,1-4.508-4.59l-.775-28.722h27.078l-.793,28.722A4.688,4.688,0,0,1,138.417,330.745Z" transform="translate(-14.568 -12.905)"/><path class="cls-12" d="M116.962,309.894l.453,15.932c.006,3.059,1.892,4.919,4.335,4.919h16.867c2.443,0,4.3-2.2,4.308-4.919l.452-15.932Z" transform="translate(-14.568 -12.905)"/><rect class="cls-3" x="107.826" y="292.931" width="15.57" height="18.955"/><path class="cls-13" d="M125.082,307.762a2.127,2.127,0,0,1,.352.03.563.563,0,0,1,.21.068.138.138,0,0,1,.063.119.114.114,0,0,1-.023.075.34.34,0,0,1-.1.065.176.176,0,0,0-.1.11c-.009.041-.017.2-.024.484s-.006.436-.008.491a1.136,1.136,0,0,1-.02.158.644.644,0,0,1-.18.354.781.781,0,0,1-.286.165,1.115,1.115,0,0,1-.366.06,1.4,1.4,0,0,1-.344-.044,1.134,1.134,0,0,1-.3-.124.488.488,0,0,1-.228-.411.355.355,0,0,1,.1-.255.324.324,0,0,1,.243-.1.363.363,0,0,1,.244.085.269.269,0,0,1,.1.213.553.553,0,0,1-.018.108.122.122,0,0,0,0,.034.1.1,0,0,0,.036.08.137.137,0,0,0,.094.031.2.2,0,0,0,.167-.092.431.431,0,0,0,.063-.244l0-.141,0-.378c-.009-.229-.016-.364-.021-.4a.208.208,0,0,0-.034-.1.149.149,0,0,0-.041-.04.525.525,0,0,0-.1-.029.11.11,0,0,1-.064-.044.126.126,0,0,1-.026-.075.16.16,0,0,1,.066-.134.548.548,0,0,1,.213-.081A1.737,1.737,0,0,1,125.082,307.762Z" transform="translate(-14.568 -12.905)"/><path class="cls-13" d="M126.742,308.361a.85.85,0,0,1,.495.147.777.777,0,0,1,.245.273.756.756,0,0,1,.1.367.7.7,0,0,1-.307.57,1.082,1.082,0,0,1-.671.223.85.85,0,0,1-.6-.209.688.688,0,0,1-.222-.532.744.744,0,0,1,.271-.594A1.019,1.019,0,0,1,126.742,308.361Zm-.124.357a.13.13,0,0,0-.108.05.2.2,0,0,0-.041.133,1.254,1.254,0,0,0,.034.252,1.983,1.983,0,0,0,.083.284.165.165,0,0,0,.156.127c.091,0,.137-.059.137-.175a1.46,1.46,0,0,0-.034-.3,1.248,1.248,0,0,0-.085-.268A.163.163,0,0,0,126.618,308.718Z" transform="translate(-14.568 -12.905)"/><path class="cls-13" d="M129.328,308.279a.082.082,0,0,1,.068.044.186.186,0,0,1,.03.1.339.339,0,0,1-.039.142.41.41,0,0,1-.1.129c-.023.021-.035.036-.035.049l0,.037a.427.427,0,0,1,0,.059.422.422,0,0,1-.123.308.734.734,0,0,1-.286.173,1.15,1.15,0,0,1-.384.062.831.831,0,0,1-.1-.006c-.027,0-.047,0-.062,0a.073.073,0,0,0-.082.082.091.091,0,0,0,.054.082.281.281,0,0,0,.144.03,1.437,1.437,0,0,0,.182-.016,2.774,2.774,0,0,1,.373-.036.554.554,0,0,1,.283.06.331.331,0,0,1,.127.13.36.36,0,0,1,.047.179.489.489,0,0,1-.114.3.8.8,0,0,1-.4.256,1.6,1.6,0,0,1-.478.065,1.259,1.259,0,0,1-.555-.105.424.424,0,0,1-.158-.13.278.278,0,0,1-.058-.167.2.2,0,0,1,.033-.11.19.19,0,0,1,.084-.073c.031-.012.046-.026.046-.04s-.012-.027-.038-.049a.29.29,0,0,1-.124-.215.252.252,0,0,1,.06-.152.394.394,0,0,1,.147-.122c.025-.013.037-.025.037-.037s-.015-.036-.046-.065a.452.452,0,0,1-.159-.343.382.382,0,0,1,.056-.2.509.509,0,0,1,.157-.16.984.984,0,0,1,.55-.162,1.373,1.373,0,0,1,.269.03,1.148,1.148,0,0,0,.193.028.536.536,0,0,0,.334-.132A.115.115,0,0,1,129.328,308.279ZM128.155,310q-.039,0-.039.045a.165.165,0,0,0,.1.146.508.508,0,0,0,.256.057.582.582,0,0,0,.237-.04.123.123,0,0,0,.085-.112.08.08,0,0,0-.032-.066.122.122,0,0,0-.081-.027.577.577,0,0,0-.07.006,1.143,1.143,0,0,1-.193.014c-.052,0-.1,0-.151-.007s-.065-.008-.088-.013Zm.336-1.4a.15.15,0,0,0-.124.058.241.241,0,0,0-.047.157.6.6,0,0,0,.05.266.153.153,0,0,0,.135.1.157.157,0,0,0,.13-.063.273.273,0,0,0,.047-.167.548.548,0,0,0-.05-.257A.164.164,0,0,0,128.491,308.6Z" transform="translate(-14.568 -12.905)"/><path class="cls-13" d="M130.373,307.869l-.021.647c0,.077.022.116.072.116.024,0,.048-.018.072-.052a.465.465,0,0,1,.4-.217.519.519,0,0,1,.391.15.372.372,0,0,1,.092.157,1.079,1.079,0,0,1,.03.261l.014.556a.252.252,0,0,0,.019.107.307.307,0,0,0,.082.085.1.1,0,0,1,.045.085c0,.111-.167.167-.5.167-.3,0-.447-.053-.447-.157a.075.075,0,0,1,.008-.04c0-.008.023-.034.054-.074a.845.845,0,0,0,.064-.424.871.871,0,0,0-.038-.3.184.184,0,0,0-.182-.128.153.153,0,0,0-.139.068.37.37,0,0,0-.033.185v.3a2.171,2.171,0,0,0,.019.224.366.366,0,0,0,.071.1.107.107,0,0,1,.03.075c0,.116-.152.175-.454.175-.354,0-.531-.061-.531-.181a.106.106,0,0,1,.017-.064.4.4,0,0,1,.084-.069c.039-.027.066-.1.08-.224a5.6,5.6,0,0,0,.023-.606,3.628,3.628,0,0,0-.019-.46.151.151,0,0,0-.022-.069.169.169,0,0,0-.061-.046q-.1-.05-.1-.114a.143.143,0,0,1,.073-.125,1.062,1.062,0,0,1,.278-.1,1.768,1.768,0,0,1,.442-.077C130.346,307.792,130.375,307.818,130.373,307.869Z" transform="translate(-14.568 -12.905)"/><path class="cls-13" d="M132.5,308.451v.836c0,.179.059.269.178.269a.172.172,0,0,0,.088-.026.142.142,0,0,0,.06-.062,1,1,0,0,0,.034-.33,2.336,2.336,0,0,0-.017-.346.121.121,0,0,0-.022-.057.247.247,0,0,0-.059-.041.133.133,0,0,1-.087-.117c0-.063.05-.107.151-.133a2.415,2.415,0,0,1,.566-.07q.156,0,.156.165l0,.069c0,.049,0,.11,0,.181v.68c0,.035.03.067.089.1a.117.117,0,0,1,.076.108c0,.093-.11.164-.329.214a1.643,1.643,0,0,1-.373.045.209.209,0,0,1-.1-.017.08.08,0,0,1-.032-.066c0-.064-.025-.1-.058-.1a.064.064,0,0,0-.034.009c-.011,0-.042.026-.095.062a.579.579,0,0,1-.334.107.478.478,0,0,1-.418-.172.85.85,0,0,1-.1-.483c0-.084,0-.156,0-.215v-.072a.586.586,0,0,0-.024-.195.192.192,0,0,0-.087-.1.3.3,0,0,1-.077-.049.08.08,0,0,1-.016-.051q0-.117.177-.156a2.838,2.838,0,0,1,.605-.066C132.474,308.374,132.5,308.4,132.5,308.451Z" transform="translate(-14.568 -12.905)"/><path class="cls-13" d="M134.52,308.372c.055,0,.088.008.1.024a.415.415,0,0,1,.032.148c.005.045.021.067.048.067s.04-.014.058-.045a.373.373,0,0,1,.322-.192.306.306,0,0,1,.23.091.336.336,0,0,1,.071.115.359.359,0,0,1,.028.135.354.354,0,0,1-.034.148.379.379,0,0,1-.088.126.336.336,0,0,1-.242.094.293.293,0,0,1-.132-.027.7.7,0,0,1-.14-.113.09.09,0,0,0-.06-.032.055.055,0,0,0-.056.048.971.971,0,0,0-.013.2,1.979,1.979,0,0,0,.017.318.119.119,0,0,0,.03.063.218.218,0,0,0,.082.037c.093.027.139.076.139.145a.157.157,0,0,1-.044.11.224.224,0,0,1-.119.062,2.24,2.24,0,0,1-.435.032,1.4,1.4,0,0,1-.415-.048.158.158,0,0,1-.127-.151.176.176,0,0,1,.093-.142.252.252,0,0,0,.062-.054.15.15,0,0,0,.023-.065,3.678,3.678,0,0,0,.024-.52.231.231,0,0,0-.015-.1.106.106,0,0,0-.062-.049c-.072-.03-.109-.071-.109-.125a.151.151,0,0,1,.076-.127.913.913,0,0,1,.253-.107A1.542,1.542,0,0,1,134.52,308.372Z" transform="translate(-14.568 -12.905)"/><path class="cls-13" d="M136.452,308.768v.52a.243.243,0,0,0,.045.152.142.142,0,0,0,.117.058.344.344,0,0,0,.159-.056.1.1,0,0,1,.046-.013.085.085,0,0,1,.068.045.165.165,0,0,1,.031.1.247.247,0,0,1-.105.184.793.793,0,0,1-.531.186.556.556,0,0,1-.4-.139.481.481,0,0,1-.15-.368v-.713a.068.068,0,0,0-.009-.044c0-.006-.02-.008-.044-.008h-.158q-.045,0-.057-.015a.113.113,0,0,1-.013-.069v-.067a.079.079,0,0,1,.036-.069l.706-.444a.142.142,0,0,1,.065-.014h.125a.063.063,0,0,1,.052.018.126.126,0,0,1,.013.07v.208a.088.088,0,0,0,.015.061.1.1,0,0,0,.062.013h.285c.038,0,.063.007.074.022a.147.147,0,0,1,.017.088v.092a.182.182,0,0,1-.021.1.1.1,0,0,1-.079.028h-.279a.08.08,0,0,0-.059.016A.084.084,0,0,0,136.452,308.768Z" transform="translate(-14.568 -12.905)"/><polygon class="cls-3" points="102.107 285.488 129.115 285.488 129.15 282.861 102.072 282.861 102.107 285.488"/><polyline class="cls-14" points="173.653 303.419 181.034 279.474 187.087 303.248"/><path class="cls-15" d="M195.558,320.2a7.379,7.379,0,0,1-14.678-1.53c.264-2.533,2.277-6.281,4.923-6,2.727.284,2.872,2.4,2.872,2.4a3.393,3.393,0,0,1,3.257-1.691C194.756,313.6,195.844,317.453,195.558,320.2Z" transform="translate(-14.568 -12.905)"/><path class="cls-16" d="M208.945,318.319a7.378,7.378,0,1,1-14.586,2.237c-.386-2.517.611-6.652,3.242-7.055,2.71-.416,3.385,1.593,3.385,1.593a3.394,3.394,0,0,1,2.723-2.461C206.5,312.141,208.527,315.589,208.945,318.319Z" transform="translate(-14.568 -12.905)"/><ellipse class="cls-17" cx="205.873" cy="321.261" rx="2.271" ry="1.21" transform="translate(-187.944 350.337) rotate(-63.664)"/><circle class="cls-17" cx="176.593" cy="309.613" r="1.221"/><path class="cls-18" d="M521.164,337.932a23.8,23.8,0,0,0,9.326,18.833H546a23.8,23.8,0,0,0,9.325-18.833c0-5.279-1.873-10.167-4.9-15.167H526.066C523.037,327.765,521.164,332.653,521.164,337.932Z" transform="translate(-14.568 -12.905)"/><path class="cls-19" d="M545.706,322.765v32.59c6-3.717,9.245-10.978,9.245-17.9,0-5.356-1.4-9.691-4.475-14.691Z" transform="translate(-14.568 -12.905)"/><rect class="cls-17" x="509.731" y="306.007" width="27.823" height="4.974" rx="2.487" ry="2.487"/><rect class="cls-17" x="528.681" y="320.41" width="4.451" height="10.629" rx="2.225" ry="2.225"/><ellipse class="cls-19" cx="551.589" cy="303.415" rx="7.458" ry="9.234" transform="translate(-67.558 465.996) rotate(-45)"/><rect class="cls-18" x="539.281" y="295.305" width="11.557" height="3.16" rx="1.58" ry="1.58" transform="translate(-64.854 459.466) rotate(-45)"/><rect class="cls-18" x="551.847" y="307.872" width="11.557" height="3.16" rx="1.58" ry="1.58" transform="translate(-70.059 472.033) rotate(-45)"/><rect class="cls-18" x="540.256" y="298.447" width="15.891" height="3.16" rx="1.58" ry="1.58" transform="translate(-66.155 462.608) rotate(-45)"/><rect class="cls-18" x="546.539" y="304.73" width="15.891" height="3.16" rx="1.58" ry="1.58" transform="translate(-68.758 468.891) rotate(-45)"/><rect class="cls-18" x="541.952" y="301.589" width="18.781" height="3.16" rx="1.58" ry="1.58" transform="translate(-67.456 465.75) rotate(-45)"/><rect class="cls-18" x="568.065" y="305.928" width="2.119" height="30.385" transform="translate(-74.942 483.581) rotate(-45)"/><circle class="cls-18" cx="566.401" cy="319.861" r="2.646"/><rect class="cls-3" x="462.774" y="317.876" width="18.375" height="6.351"/><polygon class="cls-3" points="478.138 320.686 478.138 314.006 483.722 317.346 489.406 320.686 483.772 324.026 478.138 327.365 478.138 320.686"/><rect class="cls-3" x="650.774" y="317.241" width="22.53" height="7.787"/><polygon class="cls-3" points="669.138 320.686 669.138 312.496 676.221 316.591 683.309 320.686 676.223 324.781 669.138 328.876 669.138 320.686"/><rect class="cls-3" x="278.774" y="317.241" width="22.53" height="7.787"/><polygon class="cls-3" points="297.138 320.686 297.138 312.496 304.221 316.591 311.309 320.686 304.223 324.781 297.138 328.876 297.138 320.686"/><polygon class="cls-20" points="124.466 380.312 106.236 380.312 103.29 348.487 127.412 348.487 124.466 380.312"/><path class="cls-21" d="M118.5,368.142s3.035-2.354,6.227-1.924,6.875,4.188,10.623,4.058c4.771-.165,6.062-2.973,6.062-2.973l-2.177,24.041H120.6Z" transform="translate(-14.568 -12.905)"/><path class="cls-3" d="M31.33,222.51H25.456V211.172q0-2.066.088-3.779A12.725,12.725,0,0,1,24.2,208.77l-2.432,2.006-3-3.691,7.353-5.991H31.33Z" transform="translate(-14.568 -12.905)"/><path class="cls-3" d="M35.169,220.078a2.682,2.682,0,0,1,.8-2.08,3.32,3.32,0,0,1,2.322-.732,3.121,3.121,0,0,1,2.226.732,2.721,2.721,0,0,1,.777,2.08,2.666,2.666,0,0,1-.8,2.059,3.123,3.123,0,0,1-2.2.739A3.345,3.345,0,0,1,36,222.144,2.6,2.6,0,0,1,35.169,220.078Z" transform="translate(-14.568 -12.905)"/><path class="cls-3" d="M391.35,222.51H375.808V218.7l5.23-5.288q2.241-2.343,2.93-3.2a7.054,7.054,0,0,0,.96-1.473,3.174,3.174,0,0,0,.27-1.289,1.678,1.678,0,0,0-.542-1.318,2.211,2.211,0,0,0-1.523-.484,4.153,4.153,0,0,0-2.043.58,14.573,14.573,0,0,0-2.337,1.706l-3.179-3.721a17.125,17.125,0,0,1,2.783-2.116,9.926,9.926,0,0,1,2.454-.975,12.1,12.1,0,0,1,2.981-.337,8.976,8.976,0,0,1,3.714.733,5.811,5.811,0,0,1,2.534,2.087,5.375,5.375,0,0,1,.9,3.04,7.794,7.794,0,0,1-1.289,4.43,14.409,14.409,0,0,1-1.75,2.176q-1.091,1.143-4.651,4.336v.146h8.1Z" transform="translate(-14.568 -12.905)"/><path class="cls-3" d="M393.153,220.078a2.682,2.682,0,0,1,.8-2.08,3.322,3.322,0,0,1,2.322-.732A3.125,3.125,0,0,1,398.5,218a2.724,2.724,0,0,1,.776,2.08,2.666,2.666,0,0,1-.8,2.059,3.121,3.121,0,0,1-2.2.739,3.347,3.347,0,0,1-2.285-.732A2.6,2.6,0,0,1,393.153,220.078Z" transform="translate(-14.568 -12.905)"/><path class="cls-3" d="M751.252,204.786a5.1,5.1,0,0,1-1.216,3.421,6.922,6.922,0,0,1-3.516,2.072v.088q5.363.674,5.362,5.069a5.492,5.492,0,0,1-2.366,4.7,11.028,11.028,0,0,1-6.57,1.714,19.217,19.217,0,0,1-3.2-.249,16.688,16.688,0,0,1-3.187-.909v-4.8a12.679,12.679,0,0,0,2.865,1.061,11.666,11.666,0,0,0,2.687.345,5.509,5.509,0,0,0,2.777-.534,1.826,1.826,0,0,0,.871-1.678,1.89,1.89,0,0,0-.454-1.355,2.936,2.936,0,0,0-1.465-.717,11.65,11.65,0,0,0-2.637-.242h-1.318v-4.351h1.347q4.41,0,4.409-2.256a1.385,1.385,0,0,0-.651-1.26,3.265,3.265,0,0,0-1.751-.41,8.013,8.013,0,0,0-4.248,1.377l-2.4-3.867a11.677,11.677,0,0,1,3.479-1.67,15.176,15.176,0,0,1,4.079-.5,9,9,0,0,1,5.215,1.318A4.192,4.192,0,0,1,751.252,204.786Z" transform="translate(-14.568 -12.905)"/><path class="cls-3" d="M754.372,219.127a2.679,2.679,0,0,1,.8-2.08,3.318,3.318,0,0,1,2.321-.732,3.125,3.125,0,0,1,2.227.732,2.724,2.724,0,0,1,.776,2.08,2.671,2.671,0,0,1-.8,2.059,3.124,3.124,0,0,1-2.205.739,3.34,3.34,0,0,1-2.285-.733A2.6,2.6,0,0,1,754.372,219.127Z" transform="translate(-14.568 -12.905)"/><circle class="cls-4" cx="1036.697" cy="137.805" r="104.077"/><path class="cls-22" d="M955.726,106.8v16.719a5.944,5.944,0,0,0,5.944,5.945H969.1a5.945,5.945,0,0,0,5.945-5.945V106.8Z" transform="translate(-14.568 -12.905)"/><rect class="cls-22" x="961.755" y="122.439" width="7.431" height="17.277" rx="3.715" ry="3.715" transform="translate(1916.373 249.249) rotate(-180)"/><path class="cls-10" d="M969.665,123.586v.453a2.33,2.33,0,0,1-2.329,2.33H964.1a2.33,2.33,0,0,1-2.33-2.33v-.453" transform="translate(-14.568 -12.905)"/><circle class="cls-23" cx="950.964" cy="86.622" r="4.21"/><line class="cls-24" x1="1039.066" y1="207.181" x2="1039.066" y2="220.181"/><line class="cls-24" x1="1026.066" y1="207.181" x2="1026.066" y2="220.181"/><ellipse class="cls-22" cx="1018.358" cy="185.463" rx="3.9" ry="5.636" transform="translate(-28.387 94.712) rotate(-6.008)"/><ellipse class="cls-22" cx="1020.723" cy="183.797" rx="2.526" ry="3.458" transform="translate(-28.2 94.95) rotate(-6.008)"/><line class="cls-25" x1="1005.248" y1="160.749" x2="1004.291" y2="168.016"/><rect class="cls-26" x="1051.359" y="101.57" width="8.158" height="18.329" rx="2.972" ry="2.972" transform="translate(2096.308 208.566) rotate(-180)"/><path class="cls-22" d="M1038.045,104.481v18.948a5.945,5.945,0,0,0,5.945,5.945h7.431a5.944,5.944,0,0,0,5.944-5.945V104.481Z" transform="translate(-14.568 -12.905)"/><rect class="cls-22" x="1043.742" y="123.491" width="7.431" height="17.277" rx="3.715" ry="3.715" transform="translate(2080.347 251.355) rotate(-180)"/><path class="cls-27" d="M1038.045,109.97a3.2,3.2,0,0,1,3.391-3.021H1055.3a4.021,4.021,0,0,0,2.067-.722v-1.755h-19.32Z" transform="translate(-14.568 -12.905)"/><path class="cls-26" d="M1038.045,108.336a3.236,3.236,0,0,1,3.236-3.236h13.863a5.178,5.178,0,0,0,5.178-5.178v-.016a5.178,5.178,0,0,0-5.147-5.178h0v.526a2.415,2.415,0,0,1-2.415,2.415h-9.591a3.716,3.716,0,0,0-3.715,3.716h.093a3.716,3.716,0,0,0-3.716,3.715h0v11.676c0,1.623.573,2.938,2.2,2.938" transform="translate(-14.568 -12.905)"/><ellipse class="cls-10" cx="1030.637" cy="110.641" rx="1.835" ry="1.231"/><path class="cls-22" d="M1047.81,112.562l2.366,4.081a1.489,1.489,0,0,1-1.288,2.235h-1.17S1047.581,112.791,1047.81,112.562Z" transform="translate(-14.568 -12.905)"/><ellipse class="cls-26" cx="1032.579" cy="172.2" rx="17.402" ry="9.04"/><path class="cls-27" d="M1057.365,111.705h-1.022a1.585,1.585,0,0,0-1.192-.949l-2.281-.454a4.45,4.45,0,0,0-1.74.033l-1.961.468a1.488,1.488,0,0,0-1.1.9h-.852a1.585,1.585,0,0,0-1.193-.949l-2.28-.454a4.45,4.45,0,0,0-1.74.033l-1.961.468a1.488,1.488,0,0,0-1.1.9h-.892v.991h.749a3.609,3.609,0,0,0,.131.488l.454.978a2.351,2.351,0,0,0,2.2,1.386,9.4,9.4,0,0,0,3.018-.027l.151-.03a2.374,2.374,0,0,0,2.223-1.637l.309-.857c.042-.129.064-.3.074-.3h.572a3.609,3.609,0,0,0,.131.488l.455.978a2.348,2.348,0,0,0,2.2,1.386,9.4,9.4,0,0,0,3.018-.027l.151-.03a2.374,2.374,0,0,0,2.223-1.637l.309-.857c.042-.129.064-.3.074-.3h.885Z" transform="translate(-14.568 -12.905)"/><rect class="cls-26" x="1038.001" y="111.292" width="19.416" height="0.78" transform="translate(2080.849 210.46) rotate(-180)"/><path class="cls-26" d="M1047.9,112.65l.455,1.023a2.369,2.369,0,0,0,2.2,1.407h0a9.381,9.381,0,0,0,3.019-.015l.15-.025a2.371,2.371,0,0,0,2.223-1.634l.309-.945a1.651,1.651,0,0,0-1.255-2.134l-2.281-.462a4.469,4.469,0,0,0-1.74.029l-1.961.482A1.651,1.651,0,0,0,1047.9,112.65Z" transform="translate(-14.568 -12.905)"/><path class="cls-10" d="M1048.769,112.617l.359.808a1.874,1.874,0,0,0,1.736,1.113h0a7.455,7.455,0,0,0,2.385-.012l.119-.02a1.875,1.875,0,0,0,1.757-1.291l.244-.747a1.3,1.3,0,0,0-.992-1.686l-1.8-.366a3.521,3.521,0,0,0-1.376.024l-1.549.38A1.3,1.3,0,0,0,1048.769,112.617Z" transform="translate(-14.568 -12.905)"/><path class="cls-26" d="M1038.77,112.65l.455,1.023a2.369,2.369,0,0,0,2.2,1.407h0a9.374,9.374,0,0,0,3.018-.015l.151-.025a2.371,2.371,0,0,0,2.223-1.634l.309-.945a1.651,1.651,0,0,0-1.255-2.134l-2.281-.462a4.469,4.469,0,0,0-1.74.029l-1.961.482A1.651,1.651,0,0,0,1038.77,112.65Z" transform="translate(-14.568 -12.905)"/><path class="cls-10" d="M1039.64,112.617l.359.808a1.874,1.874,0,0,0,1.736,1.113h0a7.455,7.455,0,0,0,2.385-.012l.119-.02a1.872,1.872,0,0,0,1.756-1.291l.245-.747a1.3,1.3,0,0,0-.992-1.686l-1.8-.366a3.516,3.516,0,0,0-1.375.024l-1.549.38A1.3,1.3,0,0,0,1039.64,112.617Z" transform="translate(-14.568 -12.905)"/><path class="cls-28" d="M1032.441,142.47s-8.7,15.632-9.165,17.586c-.99,4.128-4.05,17.621-4.05,17.621" transform="translate(-14.568 -12.905)"/><ellipse class="cls-22" cx="1085.741" cy="134.652" rx="5.636" ry="3.9" transform="translate(828.073 1188.455) rotate(-84.231)"/><ellipse class="cls-22" cx="1083.086" cy="135.799" rx="3.458" ry="2.526" transform="translate(824.543 1186.846) rotate(-84.231)"/><line class="cls-25" x1="1067.909" y1="132.6" x2="1069.624" y2="126.084"/><path class="cls-28" d="M1062.648,142.192s8.681,22.57,10.415,22.57,10.123-21.915,10.123-21.915" transform="translate(-14.568 -12.905)"/><line class="cls-29" x1="1039.066" y1="172.181" x2="1039.066" y2="213.181"/><line class="cls-29" x1="1026.066" y1="172.181" x2="1026.066" y2="213.181"/><path class="cls-26" d="M1044.485,227.213v8.174h-14.118V233.9h0a2.079,2.079,0,0,1,1.4-1.968l2.589-.633,1.857-4.087Z" transform="translate(-14.568 -12.905)"/><path class="cls-26" d="M1049.625,227.213v8.174h14.118V233.9h0a2.08,2.08,0,0,0-1.406-1.968l-2.588-.633-1.858-4.087Z" transform="translate(-14.568 -12.905)"/><polygon class="cls-30" points="1028.74 125.181 1037.084 125.181 1033.059 122.303 1028.74 125.181"/><polygon class="cls-30" points="1028.74 125.181 1032.889 150.445 1037.084 125.181 1028.74 125.181"/><polygon class="cls-31" points="1032.889 166.256 1035.291 162.956 1034.004 125.712 1035.885 124.264 1033.059 122.509 1029.921 124.198 1031.821 125.758 1030.506 162.954 1032.889 166.256"/><polygon class="cls-30" points="1029.05 120.618 1026.202 122.804 1028.74 125.387 1033.059 122.509 1029.05 120.618"/><polygon class="cls-30" points="1036.774 120.618 1039.577 122.944 1037.084 125.387 1033.059 122.509 1036.774 120.618"/><path class="cls-26" d="M1029.974,139l10.8-3.29,2.538,2.582,4.149,25.265,4.195-25.265,2.493-2.443,10.531,3.16a3.99,3.99,0,0,1,2.845,3.823v42.625h-40.374V142.817A3.991,3.991,0,0,1,1029.974,139Z" transform="translate(-14.568 -12.905)"/><rect class="cls-22" x="1099.74" y="98.836" width="22.787" height="13.717" rx="5.524" ry="5.524"/><rect class="cls-22" x="1101.495" y="85.005" width="19.315" height="27.897" rx="5.945" ry="5.945"/><path class="cls-22" d="M1127.71,137.053h0a3.726,3.726,0,0,0,3.715-3.716v-9.846a3.726,3.726,0,0,0-3.715-3.715h0c-2.043,0-8.173,1.672-8.173,3.715v9.846C1119.537,135.381,1125.667,137.053,1127.71,137.053Z" transform="translate(-14.568 -12.905)"/><path class="cls-22" d="M1125.834,108.846l2.366,4.082a1.489,1.489,0,0,1-1.288,2.235h-1.17S1125.605,109.075,1125.834,108.846Z" transform="translate(-14.568 -12.905)"/><path class="cls-6" d="M1145.544,179.16c0,4.992-12.249,9.039-21.86,9.039s-17.4-4.047-17.4-9.039,7.791-9.04,17.4-9.04S1145.544,174.167,1145.544,179.16Z" transform="translate(-14.568 -12.905)"/><ellipse class="cls-22" cx="1161.448" cy="129.969" rx="5.636" ry="3.9" transform="translate(794.914 1231.503) rotate(-78.858)"/><ellipse class="cls-22" cx="1158.697" cy="130.863" rx="3.458" ry="2.526" transform="translate(791.818 1229.525) rotate(-78.858)"/><line class="cls-25" x1="1142.614" y1="127.564" x2="1144.932" y2="121.236"/><path class="cls-32" d="M1142.9,134.761s8.433,25.3,11.158,25.047,4.812-23.716,4.812-23.716" transform="translate(-14.568 -12.905)"/><polygon class="cls-30" points="1104.535 118.181 1117.337 118.181 1113.312 115.303 1104.535 118.181"/><polygon class="cls-30" points="1104.535 118.181 1110.913 143.445 1117.337 118.181 1104.535 118.181"/><polygon class="cls-3" points="1110.913 160.311 1114.8 157.012 1112.028 118.281 1116.138 116.833 1111.082 115.078 1105.715 116.768 1109.845 118.327 1107.043 157.009 1110.913 160.311"/><polygon class="cls-30" points="1104.845 113.188 1101.996 115.373 1104.535 117.956 1111.082 115.078 1104.845 113.188"/><polygon class="cls-30" points="1117.027 113.188 1119.83 115.513 1117.337 117.956 1111.082 115.078 1117.027 113.188"/><path class="cls-6" d="M1105.769,131.568l10.8-3.29,2.539,2.582,6.378,25.265,6.424-25.265,2.493-2.443,10.531,3.16a3.99,3.99,0,0,1,2.845,3.823v44.111h-44.833V135.386A3.992,3.992,0,0,1,1105.769,131.568Z" transform="translate(-14.568 -12.905)"/><path class="cls-10" d="M1127.276,120.67v-.291a1.5,1.5,0,0,0-1.5-1.5h-2.08a1.5,1.5,0,0,0-1.5,1.5v.291" transform="translate(-14.568 -12.905)"/><path class="cls-3" d="M1130.838,109.2a.759.759,0,1,1-.759-.759A.759.759,0,0,1,1130.838,109.2Z" transform="translate(-14.568 -12.905)"/><path class="cls-3" d="M1120.744,109.2a.759.759,0,1,0,.759-.759A.759.759,0,0,0,1120.744,109.2Z" transform="translate(-14.568 -12.905)"/><ellipse class="cls-22" cx="928.104" cy="130.081" rx="3.9" ry="5.636" transform="translate(-10.119 275.797) rotate(-17.723)"/><ellipse class="cls-22" cx="930.939" cy="130.654" rx="2.526" ry="3.458" transform="translate(-10.158 276.687) rotate(-17.723)"/><line class="cls-25" x1="918.977" y1="127.118" x2="915.95" y2="121.098"/><path class="cls-33" d="M952.962,141.14s-9.908,16.471-12.168,16.191S932.3,137.57,932.3,137.57" transform="translate(-14.568 -12.905)"/><ellipse class="cls-22" cx="1002.714" cy="133.759" rx="5.636" ry="3.9" transform="translate(647.337 1073.312) rotate(-77.91)"/><ellipse class="cls-22" cx="999.948" cy="134.607" rx="3.458" ry="2.526" transform="translate(644.321 1071.279) rotate(-77.91)"/><line class="cls-25" x1="982.7" y1="131.546" x2="986.128" y2="124.994"/><path class="cls-33" d="M976.7,141.449s9.784,20.125,12.644,20.341,9.93-20.167,9.93-20.167" transform="translate(-14.568 -12.905)"/><polygon class="cls-30" points="945.02 125.181 956.336 125.181 950.824 122.303 945.02 125.181"/><polygon class="cls-30" points="943.533 125.181 950.639 150.445 957.822 125.181 943.533 125.181"/><path class="cls-34" d="M950.712,138.256l7.823-3.29,1.053,2.582,5.14,15.057,6.176-15.057,1.007-2.443,6.815,3.16a3.99,3.99,0,0,1,2.845,3.822l-4.459,21.469,5.2,17.834H955.445l-2.359-17.834-5.2-21.482A3.992,3.992,0,0,1,950.712,138.256Z" transform="translate(-14.568 -12.905)"/><polygon class="cls-30" points="946.815 119.875 943.967 122.061 945.02 124.643 950.824 121.766 946.815 119.875"/><polygon class="cls-30" points="954.54 119.875 957.343 122.201 956.336 124.643 950.824 121.766 954.54 119.875"/><circle class="cls-35" cx="1141.516" cy="87.509" r="11.765"/><rect class="cls-35" x="1158.374" y="109.915" width="2.229" height="20.806" transform="translate(-16.019 212.819) rotate(-11.112)"/><path class="cls-36" d="M1155.513,105.5l-2.57.505-.974-4.96q-.179-.9-.287-1.663a5.577,5.577,0,0,1-.471.719l-.891,1.087-1.631-1.356,2.7-3.253,2.282-.448Z" transform="translate(-14.568 -12.905)"/><path class="cls-36" d="M1162.494,99.272a6.443,6.443,0,0,1-.117,3.808,2.992,2.992,0,0,1-2.324,1.657,2.952,2.952,0,0,1-2.769-.711,6.34,6.34,0,0,1-1.558-3.425,6.5,6.5,0,0,1,.113-3.829,3.369,3.369,0,0,1,5.089-.95A6.407,6.407,0,0,1,1162.494,99.272Zm-4.249.835a8.139,8.139,0,0,0,.628,2.145c.21.373.472.528.783.466s.5-.31.549-.747a12.3,12.3,0,0,0-.858-4.347c-.213-.39-.477-.556-.789-.495s-.494.306-.547.734A8.264,8.264,0,0,0,1158.245,100.107Z" transform="translate(-14.568 -12.905)"/><circle class="cls-35" cx="999.395" cy="90.369" r="11.765"/><rect class="cls-35" x="1005.529" y="111.69" width="2.229" height="20.806" transform="translate(86.685 -347.435) rotate(19.848)"/><path class="cls-36" d="M1017.312,103.886a5.694,5.694,0,0,1-2.512,3.4,5.172,5.172,0,0,1-4.063-.133,10.207,10.207,0,0,1-1.23-.513l.694-1.924a5.971,5.971,0,0,0,1.021.48,3.466,3.466,0,0,0,2.2.188,2.289,2.289,0,0,0,1.38-1.421l-.074-.027a2.36,2.36,0,0,1-.7.468,1.75,1.75,0,0,1-.68.095,3.057,3.057,0,0,1-.879-.2,2.4,2.4,0,0,1-1.543-1.439,3.433,3.433,0,0,1,.118-2.387,3.125,3.125,0,0,1,4.334-2.039,3.311,3.311,0,0,1,2.154,2.013A5.048,5.048,0,0,1,1017.312,103.886Zm-2.568-3.483a.864.864,0,0,0-.752.055,1.5,1.5,0,0,0-.584.838,1.433,1.433,0,0,0-.074.879.808.808,0,0,0,.551.536,1.02,1.02,0,0,0,.8-.039.991.991,0,0,0,.545-.588,1.7,1.7,0,0,0,.067-1.038A.869.869,0,0,0,1014.744,100.4Z" transform="translate(-14.568 -12.905)"/><path class="cls-37" d="M1107.326,172.036c-1.288,0,.049.436-1.043,0-3.79-1.516-3.485-1.681-3.342-4.8.12-2.6-2.138-11.305-1.565-15.616.96-7.222,2.2-14.194,2.254-14.487l7.675,1.37a238.008,238.008,0,0,0-2.9,25.607c2.046-.653,6.551-3.79,12.658-8.518,6.125-4.743,22.731-14.312,22.783-14.364a8.656,8.656,0,0,1-2.168,8.484c-2.553,2.82-8.691,7.947-15.347,13.078C1118.249,169.02,1112.086,172.035,1107.326,172.036Z" transform="translate(-14.568 -12.905)"/><circle class="cls-35" cx="1074.418" cy="89.361" r="11.765"/><rect class="cls-35" x="1085.368" y="111.9" width="2.229" height="20.806" transform="translate(3.019 -120.527) rotate(5.717)"/><path class="cls-36" d="M1089.388,97.223a3.948,3.948,0,0,1,2.276.839,2,2,0,0,1,.663,1.8,2.3,2.3,0,0,1-.525,1.284,3.218,3.218,0,0,1-1.344.866,4.721,4.721,0,0,1,1.366,1.341,2.161,2.161,0,0,1,.3,1.327,2.33,2.33,0,0,1-1.113,1.871,5.152,5.152,0,0,1-5.129-.5,2.321,2.321,0,0,1-.694-2.042,2.446,2.446,0,0,1,.537-1.367,3.473,3.473,0,0,1,1.438-.923,3.562,3.562,0,0,1-.992-1.2,2.44,2.44,0,0,1-.221-1.312,1.977,1.977,0,0,1,1.021-1.614A4.016,4.016,0,0,1,1089.388,97.223Zm-1.834,6.918a.811.811,0,0,0,.22.675,1.19,1.19,0,0,0,.769.324q1.143.114,1.227-.725a.991.991,0,0,0-.187-.651,3.449,3.449,0,0,0-.824-.782,2.684,2.684,0,0,0-.891.531A1.025,1.025,0,0,0,1087.554,104.141Zm1.635-5.068a.844.844,0,0,0-.577.137.616.616,0,0,0-.277.474q-.057.56.66,1.064a2.189,2.189,0,0,0,.68-.425.8.8,0,0,0,.219-.483.626.626,0,0,0-.177-.524A.843.843,0,0,0,1089.189,99.073Z" transform="translate(-14.568 -12.905)"/><ellipse class="cls-22" cx="1141.361" cy="138.976" rx="5.636" ry="3.9" transform="translate(124.607 689.67) rotate(-36.294)"/><ellipse class="cls-22" cx="1141.721" cy="141.846" rx="3.458" ry="2.526" transform="translate(122.978 690.44) rotate(-36.294)"/><line class="cls-25" x1="1119.102" y1="134.395" x2="1123.844" y2="129.609"/><path class="cls-32" d="M1108.019,134.452s-5.061,28.335-2.6,29.319c8.256,3.3,30.181-18.431,30.181-18.431" transform="translate(-14.568 -12.905)"/><path class="cls-27" d="M974.134,108.529l-9.239-5.7-9.45,5.7.081,8.077a11.877,11.877,0,0,1,1.608-6.412v4.891h12.231l.015-6.311,1.471,6.311h2.283v-3.324c1,1.431,1,3.127,1,4.759Z" transform="translate(-14.568 -12.905)"/><path class="cls-23" d="M955.625,122.439h0a1.289,1.289,0,0,1-1.289-1.289V110.445a10.955,10.955,0,0,1,10.955-10.954h0a10.954,10.954,0,0,1,10.954,10.954v10.061a1.288,1.288,0,0,1-1.288,1.288h0v-.966c0-3.4.731-13.605-5.028-13.605h-8.643c-4.8,0-5.661,3.895-5.661,8.7Z" transform="translate(-14.568 -12.905)"/><polygon class="cls-23" points="959.274 101.051 956.181 101.051 954.711 94.739 954.695 101.051 942.171 101.051 942.171 93.062 959.274 93.062 959.274 101.051"/><path class="cls-38" d="M970.827,115.147a.759.759,0,1,1-.759-.758A.759.759,0,0,1,970.827,115.147Z" transform="translate(-14.568 -12.905)"/><path class="cls-38" d="M960.733,115.147a.759.759,0,1,0,.759-.758A.759.759,0,0,0,960.733,115.147Z" transform="translate(-14.568 -12.905)"/><path class="cls-39" d="M999,23.721l2.956-1.31,1.129,11.2-3.111,1.378-7.522-8.365,2.97-1.315,3.526,4.366a16.482,16.482,0,0,1,1.475,2.1q-.162-.49-.331-1.254c-.115-.51-.2-.914-.243-1.213Z" transform="translate(-14.568 -12.905)"/><path class="cls-39" d="M1014.6,29.347l-6.01,2.051-3.454-10.122,6.008-2.05.749,2.194-3.274,1.118.543,1.592,3.033-1.035.749,2.2-3.032,1.034.651,1.911,3.276-1.117Z" transform="translate(-14.568 -12.905)"/><path class="cls-39" d="M1019.463,23.965l.942,3.776-2.8.7-2.589-10.375,3.4-.849q4.228-1.056,5,2.01a3.158,3.158,0,0,1-1.063,3.228l4.151,3.767-3.18.794-3.142-3.227Zm-.527-2.108.526-.131q1.469-.366,1.145-1.665-.267-1.072-1.709-.712l-.552.137Z" transform="translate(-14.568 -12.905)"/><path class="cls-39" d="M1037.732,24.431l-3.224.5-2.718-3.715-.767.637.55,3.535-2.869.446-1.645-10.568,2.871-.447.713,4.591a12.855,12.855,0,0,1,.664-1.488l1.716-3.584,3.122-.485-2.6,5.253Z" transform="translate(-14.568 -12.905)"/><path class="cls-39" d="M1049.826,18.248a5.772,5.772,0,0,1-1.081,4.175,6.016,6.016,0,0,1-7.723.447,5.75,5.75,0,0,1-1.582-4.025,5.711,5.711,0,0,1,1.094-4.15,6.056,6.056,0,0,1,7.736-.466A5.763,5.763,0,0,1,1049.826,18.248Zm-7.347.433q.183,3.1,2.337,2.969a1.853,1.853,0,0,0,1.58-.847,4.13,4.13,0,0,0,.392-2.376,4.15,4.15,0,0,0-.676-2.33,1.829,1.829,0,0,0-1.647-.669Q1042.295,15.555,1042.479,18.681Z" transform="translate(-14.568 -12.905)"/><path class="cls-39" d="M1060.413,20.606a3.154,3.154,0,0,1-.557,1.751,3.3,3.3,0,0,1-1.491,1.156,5.41,5.41,0,0,1-2.243.361,8.972,8.972,0,0,1-1.787-.2,6.657,6.657,0,0,1-1.49-.567l.076-2.575a8.539,8.539,0,0,0,1.7.713,6.334,6.334,0,0,0,1.631.286,1.585,1.585,0,0,0,.949-.194.682.682,0,0,0,.317-.565.635.635,0,0,0-.109-.388,1.409,1.409,0,0,0-.378-.344q-.263-.175-1.4-.729a6.83,6.83,0,0,1-1.541-.968,2.843,2.843,0,0,1-.745-1.047,3.394,3.394,0,0,1-.211-1.375,2.742,2.742,0,0,1,1.142-2.271,4.744,4.744,0,0,1,2.98-.739,8.3,8.3,0,0,1,3.362.868l-.951,2.205a6.388,6.388,0,0,0-2.568-.765,1.355,1.355,0,0,0-.825.173.6.6,0,0,0-.27.482.7.7,0,0,0,.308.573,12.365,12.365,0,0,0,1.739.959,4.889,4.889,0,0,1,1.88,1.392A2.9,2.9,0,0,1,1060.413,20.606Z" transform="translate(-14.568 -12.905)"/><path class="cls-39" d="M1067.959,24.58l-2.873-.308.89-8.286-2.6-.278.253-2.35,8.058.867-.252,2.349-2.59-.278Z" transform="translate(-14.568 -12.905)"/><path class="cls-39" d="M1084.332,16.542l-1.254,6.314a4.319,4.319,0,0,1-1.8,2.958,5.644,5.644,0,0,1-6.666-1.29,4.235,4.235,0,0,1-.524-3.385l1.266-6.379,2.849.565-1.223,6.157a2.572,2.572,0,0,0,.1,1.7,1.828,1.828,0,0,0,2.485.5,2.719,2.719,0,0,0,.716-1.555l1.219-6.142Z" transform="translate(-14.568 -12.905)"/><path class="cls-39" d="M1095.336,30.877l-3.619-1.125-1.494-8.354-.063-.02q-.395,1.738-.673,2.633l-1.431,4.6-2.445-.76,3.175-10.213,3.605,1.121,1.51,8.253.042.012q.381-1.573.673-2.51l1.436-4.618,2.459.765Z" transform="translate(-14.568 -12.905)"/><path class="cls-39" d="M1105.1,28.119l4.233,1.841-2.3,5.286a12.714,12.714,0,0,1-4.047-1.057,5,5,0,0,1-2.932-2.84,5.734,5.734,0,0,1,.392-4.288,5.38,5.38,0,0,1,2.963-3.108,5.687,5.687,0,0,1,4.372.33,9.174,9.174,0,0,1,1.672.935,8.063,8.063,0,0,1,1.239,1.065L1108.945,28a5.655,5.655,0,0,0-2.1-1.535,2.413,2.413,0,0,0-2.124-.026,3.562,3.562,0,0,0-1.572,1.881,3.606,3.606,0,0,0-.338,2.346,2.171,2.171,0,0,0,1.34,1.441,5.374,5.374,0,0,0,1.137.358l.668-1.536-1.751-.762Z" transform="translate(-14.568 -12.905)"/><path class="cls-2" d="M1153.24,171.532H949.291a104.386,104.386,0,0,0,49.011,68.7h105.926A104.387,104.387,0,0,0,1153.24,171.532Z" transform="translate(-14.568 -12.905)"/><path class="cls-40" d="M1153.747,168.89H948.784q.4,2.255.9,4.474h203.17Q1153.347,171.144,1153.747,168.89Z" transform="translate(-14.568 -12.905)"/><circle class="cls-4" cx="1187.983" cy="411.906" r="104.077"/><rect class="cls-22" x="1148.618" y="373.168" width="8.943" height="20.793" rx="4.472" ry="4.472" transform="translate(2291.611 754.224) rotate(180)"/><path class="cls-22" d="M1148.618,353.605V376.41a7.154,7.154,0,0,0,7.154,7.154h8.944a7.154,7.154,0,0,0,7.154-7.154V353.605Z" transform="translate(-14.568 -12.905)"/><path class="cls-27" d="M1148.194,374.268h2.362c1.975,0,2.638-1.993,2.638-3.969v-8.923c0-1,1.749-1.108,2.748-1.108h1.252v3.473c2,0,2-1.6,2-3.578v-1.172c0-2.151,2.943-4.723,5.094-4.723h6.906v-2h-23Z" transform="translate(-14.568 -12.905)"/><path class="cls-27" d="M1148.194,374.268h2.362c1.975,0,2.638-1.993,2.638-3.969v-8.923c0-1,1.749-1.108,2.748-1.108h1.252v3.473c2,0,2-1.6,2-3.578v-1.172c0-2.151,2.943-4.723,5.094-4.723h6.906v-2h-23Z" transform="translate(-14.568 -12.905)"/><ellipse class="cls-22" cx="1197.321" cy="414.51" rx="6.782" ry="4.693"/><line class="cls-41" x1="1184.625" y1="474.364" x2="1184.625" y2="490.364"/><path class="cls-35" d="M1146.993,391l16.679,5.835v-1.864a7.638,7.638,0,0,0-7.638-7.638h-9.041Z" transform="translate(-14.568 -12.905)"/><path class="cls-36" d="M1172.941,341.42h0v.634a2.906,2.906,0,0,1-2.906,2.906h-15.9a4.472,4.472,0,0,0-4.472,4.472h-.894a4.472,4.472,0,0,0-4.472,4.471h0v15.245a3.537,3.537,0,0,0,3.537,3.536h2.724a3.578,3.578,0,0,0,3.577-3.578h0v-7.134a1.809,1.809,0,0,1,1.809-1.809h.874v3.578h0a3.578,3.578,0,0,0,3.577-3.578h0V357.8a3.9,3.9,0,0,1,3.895-3.895h8.616a6.232,6.232,0,0,0,6.232-6.232v-.018a6.233,6.233,0,0,0-6.195-6.233Z" transform="translate(-14.568 -12.905)"/><path class="cls-26" d="M1167.361,363.312a.913.913,0,1,0,.913-.913A.913.913,0,0,0,1167.361,363.312Z" transform="translate(-14.568 -12.905)"/><path class="cls-36" d="M1167.361,363.312a.913.913,0,1,0,.913-.913A.913.913,0,0,0,1167.361,363.312Z" transform="translate(-14.568 -12.905)"/><ellipse class="cls-10" cx="1153.995" cy="360.813" rx="2.208" ry="1.481"/><path class="cls-22" d="M1171.519,362.884c1.668,2.706,1.64,2.556,2.959,3.7a8.556,8.556,0,0,0,3.478,1.69c.9,1.391-2.793,1.192-4.173,1.192,0,0-1.648,1.146-2.265,1.02S1169.852,360.178,1171.519,362.884Z" transform="translate(-14.568 -12.905)"/><path class="cls-17" d="M1204.63,495.383l6.461,5.643a5.1,5.1,0,0,0,1.053.711l1.766.9a7.507,7.507,0,0,0,3.4.815h2.618c1.9,0,3.442.467,3.442,2.368v.444l-10.685,1.074h-8.036l-1.375-.746a4.569,4.569,0,0,0-4.716.214l-.8.532h-5.475V496.508l2.173-.019a6.977,6.977,0,0,0,8.619.085Z" transform="translate(-14.568 -12.905)"/><path class="cls-42" d="M1156.875,455.984s39.833.869,41.659,2.1,0,37,0,37" transform="translate(-14.568 -12.905)"/><line class="cls-43" x1="1141.125" y1="435.364" x2="1141.125" y2="450.364"/><path class="cls-44" d="M1173.3,450.4c-.085,5.967-12.385,10.705-18.352,10.62a10.805,10.805,0,0,1,.307-21.608C1161.221,439.492,1173.384,444.429,1173.3,450.4Z" transform="translate(-14.568 -12.905)"/><path class="cls-17" d="M1149.452,390.372h0a5.157,5.157,0,0,0-5.157,5.157v55.083h35.765V422.281C1180.06,400.546,1161.417,390.372,1149.452,390.372Z" transform="translate(-14.568 -12.905)"/><path class="cls-10" d="M1148.2,349.366,1144,333.409l13.26-3.5,4.213,15.985a1.948,1.948,0,0,1-.944,2.2,22.505,22.505,0,0,1-5.312,2.132,19.628,19.628,0,0,1-5.187.583A1.939,1.939,0,0,1,1148.2,349.366Z" transform="translate(-14.568 -12.905)"/><path class="cls-35" d="M1145.571,339.385a8.7,8.7,0,0,1,7.04-.19,5.458,5.458,0,0,1,4.823-3.224,5.479,5.479,0,0,0,1.28-.523l-1.458-5.534-13.26,3.5Z" transform="translate(-14.568 -12.905)"/><circle class="cls-10" cx="1130.369" cy="318.695" r="5.485"/><circle class="cls-10" cx="1134.974" cy="314.645" r="5.485"/><circle class="cls-10" cx="1136.037" cy="318.68" r="5.485"/><circle class="cls-10" cx="1140.86" cy="315.457" r="5.485"/><path class="cls-45" d="M1170.566,370.856h-2.759a4.766,4.766,0,0,0-3.369,1.395l-.263.263a1.975,1.975,0,0,1-2.794,0h0" transform="translate(-14.568 -12.905)"/><path class="cls-44" d="M1180.016,443.459c-5.016-.294-10.2-1.532-12.716-4.191-7.028-7.433-10.656-28-11.274-30.325l8.369-2.764c2.07,7.755,6.807,21.6,10.7,25.716.659.513,3,.152,4.961.246Z" transform="translate(-14.568 -12.905)"/><path class="cls-46" d="M1159.21,401.562s5.693,21.36,11.989,28.02,36.965-1.788,36.965-1.788" transform="translate(-14.568 -12.905)"/><rect class="cls-47" x="1119.578" y="409.654" width="6.543" height="29.635" rx="2.385" ry="2.385"/><rect class="cls-47" x="1135.085" y="457.738" width="42.346" height="7.452" rx="2.385" ry="2.385" transform="translate(2297.948 910.023) rotate(-180)"/><rect class="cls-48" x="1154.499" y="465.19" width="3.577" height="8.048" transform="translate(2298.007 925.524) rotate(-180)"/><rect class="cls-49" x="1152.878" y="473.239" width="6.819" height="22.241" transform="translate(2298.007 955.814) rotate(-180)"/><rect class="cls-50" x="1152.878" y="493.111" width="6.819" height="2.369" transform="translate(2298.007 975.686) rotate(-180)"/><polygon class="cls-50" points="1142.316 484.181 1161.99 486.268 1161.99 483.469 1142.316 481.383 1142.316 484.181"/><rect class="cls-50" x="1173.744" y="496.374" width="2.814" height="5.779" transform="translate(2335.733 985.623) rotate(-180)"/><circle class="cls-48" cx="1160.69" cy="490.632" r="2.79"/><polygon class="cls-50" points="1142.316 484.181 1122.642 486.268 1122.642 483.469 1142.316 481.383 1142.316 484.181"/><rect class="cls-50" x="1122.642" y="483.469" width="2.814" height="5.779"/><circle class="cls-48" cx="1123.941" cy="490.632" r="2.79"/><polygon class="cls-50" points="1141.719 483.974 1132.032 486.268 1132.032 483.469 1141.719 481.176 1141.719 483.974"/><rect class="cls-50" x="1132.032" y="483.469" width="2.814" height="5.779"/><circle class="cls-48" cx="1133.331" cy="490.632" r="2.79"/><polygon class="cls-50" points="1141.719 483.974 1151.407 486.268 1151.407 483.469 1141.719 481.176 1141.719 483.974"/><rect class="cls-50" x="1163.161" y="496.374" width="2.814" height="5.779" transform="translate(2314.569 985.623) rotate(-180)"/><circle class="cls-48" cx="1150.108" cy="490.632" r="2.79"/><path class="cls-47" d="M1157.637,444.342l-.536-.978a2.294,2.294,0,0,0-2.447-1.425h-18.236a2.392,2.392,0,0,0-2.385,2.385v.439h20.621l1.245,2.842,1.3-.548A2.1,2.1,0,0,0,1157.637,444.342Z" transform="translate(-14.568 -12.905)"/><rect class="cls-50" x="1142.453" y="436.456" width="3.894" height="20.508" transform="translate(1576.542 -710.595) rotate(90)"/><polygon class="cls-50" points="1147.409 452.285 1142.938 452.285 1136.706 433.805 1140.078 431.858 1147.409 452.285"/><rect class="cls-17" x="1232.109" y="425.78" width="4.982" height="67.784"/><rect class="cls-2" x="1232.109" y="424.735" width="4.982" height="19.47"/><rect class="cls-17" x="1209.65" y="430.718" width="31.382" height="1.715" transform="translate(-54.005 121.929) rotate(-6.199)"/><rect class="cls-17" x="1256.349" y="336.903" width="5.414" height="80.416" transform="translate(73.69 -233.011) rotate(10.352)"/><rect class="cls-51" x="1257.514" y="336.617" width="1.091" height="67.844" transform="translate(2414.489 948.208) rotate(-169.648)"/><path class="cls-52" d="M1268.945,338.044l.726,8.181a121.37,121.37,0,0,1-11.605,63.53l-3.572,7.4Z" transform="translate(-14.568 -12.905)"/><path class="cls-52" d="M1245.88,434.178l.12-.729,32.771-1.058a5.038,5.038,0,0,0,4.693-6.57L1269.941,381.4a2.5,2.5,0,0,0-1.937-1.7l-.309-2.188a4.646,4.646,0,0,1,3.6,3.161l14.219,44.5a7.185,7.185,0,0,1-6.694,9.37Z" transform="translate(-14.568 -12.905)"/><circle class="cls-52" cx="1224.031" cy="419.619" r="1.599"/><path class="cls-39" d="M1141.314,300.72l2.864-1.5,1.862,11.1-3.013,1.58-8.056-7.853,2.876-1.508,3.807,4.125a16.775,16.775,0,0,1,1.609,2q-.192-.477-.414-1.228t-.32-1.2Z" transform="translate(-14.568 -12.905)"/><path class="cls-39" d="M1157.268,305.324l-5.867,2.428-4.089-9.883,5.868-2.428.886,2.143-3.2,1.323.643,1.555,2.96-1.226.887,2.144-2.961,1.225.773,1.865,3.2-1.322Z" transform="translate(-14.568 -12.905)"/><path class="cls-39" d="M1161.784,299.652l1.173,3.711-2.755.87-3.224-10.2,3.341-1.056q4.158-1.314,5.111,1.7a3.159,3.159,0,0,1-.865,3.288l4.376,3.5-3.125.987-3.335-3.027Zm-.655-2.072.516-.163q1.445-.456,1.04-1.732-.332-1.054-1.749-.606l-.544.172Z" transform="translate(-14.568 -12.905)"/><path class="cls-39" d="M1173.94,300.345l-2.775.629-2.362-10.432,6.164-1.395.512,2.26-3.388.769.45,1.99,3.125-.708.513,2.262-3.125.708Z" transform="translate(-14.568 -12.905)"/><path class="cls-39" d="M1186.616,298.091l-6.279.941-1.585-10.577,6.279-.941.344,2.294-3.422.512.249,1.664,3.169-.475.344,2.294-3.169.474.3,2,3.421-.512Z" transform="translate(-14.568 -12.905)"/><path class="cls-39" d="M1189.813,297.774l-.923-10.655,2.893-.251.924,10.655Z" transform="translate(-14.568 -12.905)"/><path class="cls-39" d="M1206.48,297.124l-3.79.032-3.97-7.5h-.067q.156,1.777.163,2.713l.041,4.821-2.559.022-.093-10.695,3.774-.033,3.956,7.4h.044q-.117-1.615-.125-2.6l-.042-4.835,2.576-.022Z" transform="translate(-14.568 -12.905)"/><path class="cls-39" d="M1216.384,297.858l-6.329-.511.861-10.66,6.329.511-.188,2.311-3.448-.278-.136,1.677,3.194.258-.187,2.312-3.193-.259-.163,2.013,3.449.279Z" transform="translate(-14.568 -12.905)"/><path class="cls-39" d="M1223.006,294.842l-.628,3.842-2.852-.466,1.724-10.556,3.458.565q4.3.7,3.794,3.822a3.158,3.158,0,0,1-2.254,2.545l2.325,5.1-3.234-.527-1.612-4.207Zm.349-2.144.534.087q1.5.244,1.711-1.077.179-1.089-1.288-1.329l-.563-.093Z" transform="translate(-14.568 -12.905)"/><path class="cls-39" d="M1242.264,292.159l-1.636,6.226a4.32,4.32,0,0,1-1.976,2.843,5.64,5.64,0,0,1-6.574-1.694,4.239,4.239,0,0,1-.317-3.412l1.653-6.289,2.808.738-1.6,6.071a2.562,2.562,0,0,0-.008,1.7,1.829,1.829,0,0,0,2.45.648,2.714,2.714,0,0,0,.809-1.508l1.592-6.056Z" transform="translate(-14.568 -12.905)"/><path class="cls-39" d="M1252.387,307.175l-3.54-1.354-.959-8.432-.062-.024q-.505,1.711-.839,2.585l-1.721,4.5-2.391-.914,3.817-9.99,3.527,1.348.982,8.332.041.015q.48-1.547.831-2.463l1.726-4.516,2.4.919Z" transform="translate(-14.568 -12.905)"/><path class="cls-39" d="M1262.261,305.041l4.1,2.116-2.642,5.123a12.651,12.651,0,0,1-3.969-1.323,4.992,4.992,0,0,1-2.739-3.026,5.74,5.74,0,0,1,.675-4.253,5.37,5.37,0,0,1,3.161-2.9,5.68,5.68,0,0,1,4.34.618,9.092,9.092,0,0,1,1.607,1.043,8.1,8.1,0,0,1,1.167,1.144l-1.853,1.6a5.658,5.658,0,0,0-1.994-1.671,2.414,2.414,0,0,0-2.116-.166,3.563,3.563,0,0,0-1.694,1.773,3.612,3.612,0,0,0-.492,2.319,2.171,2.171,0,0,0,1.242,1.525,5.306,5.306,0,0,0,1.111.433l.768-1.489-1.7-.876Z" transform="translate(-14.568 -12.905)"/><path class="cls-3" d="M1306.205,434.123H1208.27v4.563h97.43Q1306,436.42,1306.205,434.123Z" transform="translate(-14.568 -12.905)"/><circle class="cls-4" cx="882.415" cy="412.484" r="104.077"/><path class="cls-11" d="M905.371,483.793H882.389a6.53,6.53,0,0,1-6.281-6.394l-1.079-40.018h37.728L911.651,477.4A6.529,6.529,0,0,1,905.371,483.793Z" transform="translate(-14.568 -12.905)"/><path class="cls-12" d="M875.478,454.743l.63,22.2c.008,4.262,2.636,6.853,6.04,6.853h23.5c3.4,0,5.986-3.059,6-6.853l.631-22.2Z" transform="translate(-14.568 -12.905)"/><path class="cls-11" d="M905.371,483.793H882.389a6.53,6.53,0,0,1-6.281-6.394l-1.079-40.018h37.728L911.651,477.4A6.529,6.529,0,0,1,905.371,483.793Z" transform="translate(-14.568 -12.905)"/><path class="cls-12" d="M875.478,454.743l.63,22.2c.008,4.262,2.636,6.853,6.04,6.853h23.5c3.4,0,5.986-3.059,6-6.853l.631-22.2Z" transform="translate(-14.568 -12.905)"/><path class="cls-11" d="M954.824,483.793H931.842a6.53,6.53,0,0,1-6.281-6.394l-1.079-40.018H962.21L961.1,477.4A6.529,6.529,0,0,1,954.824,483.793Z" transform="translate(-14.568 -12.905)"/><path class="cls-12" d="M924.931,454.743l.63,22.2c.008,4.262,2.636,6.853,6.04,6.853h23.5c3.4,0,5.986-3.059,6-6.853l.631-22.2Z" transform="translate(-14.568 -12.905)"/><path class="cls-12" d="M875.478,454.76c4.486-.01,15.41-.456,15.311-32.617-.118-38.613,6.895,0,6.895,0s-1.932,32.326,14.6,32.626" transform="translate(-14.568 -12.905)"/><rect class="cls-5" x="853.406" y="374.51" width="51.333" height="12.963"/><polygon class="cls-53" points="904.739 374.51 853.406 374.51 837.645 365.938 920.499 365.938 904.739 374.51"/><polygon class="cls-3" points="904.739 374.51 853.406 374.51 837.645 365.938 920.499 365.938 904.739 374.51"/><rect class="cls-5" x="837.645" y="332.007" width="82.854" height="33.932"/><rect class="cls-5" x="833.339" y="350.557" width="91.467" height="8.762"/><rect class="cls-3" x="837.645" y="359.318" width="82.854" height="2.768"/><rect class="cls-3" x="837.645" y="332.154" width="82.854" height="2.842"/><rect class="cls-5" x="821.237" y="318.861" width="115.67" height="13.146"/><path class="cls-3" d="M900.534,423.684H886.746c-.135-8.433-5.823-19.884-13.958-22.11l-4.814-1.318h51.333l-5.343,1.594c-7.859,2.345-13.293,13.633-13.43,21.834Z" transform="translate(-14.568 -12.905)"/><path class="cls-11" d="M854.569,483.793H831.587a6.529,6.529,0,0,1-6.28-6.394l-1.08-40.018h37.728L860.849,477.4A6.529,6.529,0,0,1,854.569,483.793Z" transform="translate(-14.568 -12.905)"/><rect class="cls-5" x="821.237" y="332.007" width="11.996" height="5.83"/><rect class="cls-3" x="821.237" y="332.007" width="11.996" height="2.742"/><rect class="cls-5" x="821.237" y="352.022" width="12.119" height="5.83"/><rect class="cls-5" x="825.293" y="337.837" width="3.884" height="14.186"/><rect class="cls-3" x="825.293" y="337.837" width="3.884" height="3.181"/><polygon class="cls-5" points="799.586 363.182 798.571 360.315 818.063 353.416 827.449 353.416 827.449 356.458 818.586 356.458 799.586 363.182"/><path class="cls-5" d="M881.973,409.3a29.922,29.922,0,0,1,4.741,14.7h13.694c.077,0,1.822-10.5,4.725-14.7Z" transform="translate(-14.568 -12.905)"/><path class="cls-39" d="M829.09,317.94l-2.393,1.619-4.669-6.9-2.163,1.464-1.324-1.957,6.714-4.542,1.324,1.957-2.157,1.459Z" transform="translate(-14.568 -12.905)"/><path class="cls-39" d="M839.222,311.968l-5.55,3.083-5.194-9.35,5.551-3.083,1.126,2.028-3.024,1.679.816,1.472,2.8-1.557,1.126,2.028-2.8,1.556.981,1.765,3.025-1.68Z" transform="translate(-14.568 -12.905)"/><path class="cls-39" d="M847.1,304.727a3.153,3.153,0,0,1,.265,1.818,3.306,3.306,0,0,1-.835,1.691,5.4,5.4,0,0,1-1.859,1.306,9.066,9.066,0,0,1-1.7.6,6.675,6.675,0,0,1-1.588.14l-1.057-2.347a8.578,8.578,0,0,0,1.84-.1,6.454,6.454,0,0,0,1.592-.456,1.591,1.591,0,0,0,.768-.591.686.686,0,0,0,.038-.646.626.626,0,0,0-.267-.3,1.441,1.441,0,0,0-.491-.145q-.313-.043-1.58-.043a6.833,6.833,0,0,1-1.808-.2,2.836,2.836,0,0,1-1.128-.616,3.4,3.4,0,0,1-.792-1.144,2.739,2.739,0,0,1,.035-2.543,4.745,4.745,0,0,1,2.355-1.966,8.3,8.3,0,0,1,3.4-.69l.108,2.4a6.407,6.407,0,0,0-2.643.436,1.338,1.338,0,0,0-.666.516.6.6,0,0,0-.033.552.705.705,0,0,0,.529.38,12.287,12.287,0,0,0,1.982.1,4.889,4.889,0,0,1,2.3.43A2.9,2.9,0,0,1,847.1,304.727Z" transform="translate(-14.568 -12.905)"/><path class="cls-39" d="M855.6,305.058l-2.724.962-2.774-7.858-2.462.869-.787-2.228,7.644-2.7.786,2.228-2.456.866Z" transform="translate(-14.568 -12.905)"/><path class="cls-39" d="M866.427,294.374a3.583,3.583,0,0,1-.326,2.945,4.264,4.264,0,0,1-2.66,1.7l-.786.2.895,3.433-2.8.729-2.7-10.351,3.582-.932a4.528,4.528,0,0,1,3.168.089A3.16,3.16,0,0,1,866.427,294.374Zm-4.365,2.572.51-.132a1.441,1.441,0,0,0,.909-.615,1.323,1.323,0,0,0,.117-1.074q-.271-1.047-1.433-.745l-.722.187Z" transform="translate(-14.568 -12.905)"/><path class="cls-39" d="M873.4,296.5l.649,3.838-2.85.48-1.78-10.545,3.456-.583q4.3-.728,4.824,2.39a3.156,3.156,0,0,1-1.31,3.137l3.848,4.076-3.231.545-2.884-3.46Zm-.361-2.142.534-.09q1.493-.252,1.271-1.573c-.124-.725-.672-1.006-1.649-.841l-.562.094Z" transform="translate(-14.568 -12.905)"/><path class="cls-39" d="M892.04,292.978a5.764,5.764,0,0,1-1.025,4.188,6.013,6.013,0,0,1-7.716.552,6.932,6.932,0,0,1-.6-8.168,6.053,6.053,0,0,1,7.73-.57A5.768,5.768,0,0,1,892.04,292.978Zm-7.34.531q.224,3.093,2.376,2.938a1.855,1.855,0,0,0,1.569-.869,5.468,5.468,0,0,0-.347-4.7,1.837,1.837,0,0,0-1.658-.646Q884.474,290.386,884.7,293.509Z" transform="translate(-14.568 -12.905)"/><path class="cls-39" d="M904.821,292.949a5.523,5.523,0,0,1-1.577,4.088,5.659,5.659,0,0,1-4.18,1.344l-3.459-.087.27-10.692,3.7.093a5.581,5.581,0,0,1,3.941,1.416A4.969,4.969,0,0,1,904.821,292.949Zm-3,.028a3.4,3.4,0,0,0-.526-2.195,2.156,2.156,0,0,0-1.748-.754l-.841-.02L898.554,296l.643.017a2.335,2.335,0,0,0,1.95-.716A3.7,3.7,0,0,0,901.82,292.977Z" transform="translate(-14.568 -12.905)"/><path class="cls-39" d="M918.17,289.243l-.777,6.391a4.319,4.319,0,0,1-1.572,3.085,5.642,5.642,0,0,1-6.743-.786,4.24,4.24,0,0,1-.777-3.337l.785-6.456,2.883.349-.758,6.232a2.574,2.574,0,0,0,.222,1.684,1.829,1.829,0,0,0,2.517.31,2.723,2.723,0,0,0,.6-1.6l.756-6.216Z" transform="translate(-14.568 -12.905)"/><path class="cls-39" d="M929.255,302.426l-3.188-.7-1.19-4.448-.946.318-.765,3.494-2.837-.621,2.288-10.448,2.837.622-.993,4.538a12.7,12.7,0,0,1,1.157-1.148l2.895-2.72,3.086.675-4.319,3.96Z" transform="translate(-14.568 -12.905)"/><path class="cls-39" d="M936.083,304.534l-2.758-.862,2.486-7.953-2.493-.779.705-2.255,7.737,2.418-.705,2.255-2.486-.777Z" transform="translate(-14.568 -12.905)"/><path class="cls-39" d="M941.229,306.337l3.89-9.962,2.7,1.056-3.89,9.963Z" transform="translate(-14.568 -12.905)"/><path class="cls-39" d="M958.613,308.3a5.767,5.767,0,0,1-3,3.1,6.016,6.016,0,0,1-6.941-3.416,6.931,6.931,0,0,1,3.6-7.354,6.054,6.054,0,0,1,6.962,3.406A5.776,5.776,0,0,1,958.613,308.3Zm-6.605-3.243q-1.368,2.784.569,3.735a1.858,1.858,0,0,0,1.794.041,5.468,5.468,0,0,0,2.071-4.235,1.838,1.838,0,0,0-1.1-1.395Q953.387,302.247,952.008,305.058Z" transform="translate(-14.568 -12.905)"/><path class="cls-39" d="M967.512,320.2l-3.179-2.063.826-8.448-.055-.035q-.852,1.566-1.361,2.352l-2.625,4.044-2.147-1.4,5.823-8.97,3.166,2.055-.782,8.354.036.023q.795-1.412,1.328-2.234l2.633-4.056,2.16,1.4Z" transform="translate(-14.568 -12.905)"/><path class="cls-11" d="M980,483.793h3.179a103.458,103.458,0,0,0,17.2-46.412H972.644l1.079,40.018A6.53,6.53,0,0,0,980,483.793Z" transform="translate(-14.568 -12.905)"/><path class="cls-54" d="M810.553,483.455a104.545,104.545,0,0,0,7.634,10H975.779a104.719,104.719,0,0,0,7.635-10Z" transform="translate(-14.568 -12.905)"/><path class="cls-11" d="M809.567,481.954a6.747,6.747,0,0,0,1.985-4.555l1.106-40.018h-19.07A103.42,103.42,0,0,0,809.567,481.954Z" transform="translate(-14.568 -12.905)"/><circle class="cls-55" cx="417.564" cy="318.362" r="15.968"/><line class="cls-55" x1="406.094" y1="306.891" x2="429.035" y2="329.832"/><path class="cls-12" d="M979.763,483.793h3.419a103.663,103.663,0,0,0,13.7-29.051H973.092l.631,22.2C973.731,481.2,976.359,483.793,979.763,483.793Z" transform="translate(-14.568 -12.905)"/></g></g></svg>