<svg id="de" xmlns="http://www.w3.org/2000/svg" xmlns:xlink="http://www.w3.org/1999/xlink" viewBox="0 0 730.25 351.981"><defs><style>.cls-1,.cls-12,.cls-14,.cls-23,.cls-24,.cls-32,.cls-33,.cls-34,.cls-35{fill:none;}.cls-2,.cls-47{fill:#f6f8f8;}.cls-3{fill:#90b1af;}.cls-4{fill:#a8c1bf;}.cls-5{fill:#a29da6;}.cls-6{fill:#807a85;}.cls-7{fill:#5d5263;}.cls-8{fill:#ac958d;}.cls-9{fill:#d8bcb2;}.cls-10{fill:#bdaca5;}.cls-11{fill:#a7a7a7;}.cls-12{stroke:#f6f8f8;}.cls-12,.cls-14,.cls-23,.cls-24,.cls-32,.cls-33,.cls-34,.cls-35,.cls-37{stroke-miterlimit:10;}.cls-12,.cls-34{stroke-width:2px;}.cls-13{fill:#76d2ce;}.cls-14,.cls-23{stroke:#dbc8b5;}.cls-14{stroke-width:6.671px;}.cls-15{fill:#d4d4d4;}.cls-16{fill:#78747c;}.cls-17{fill:#5f5b63;}.cls-18{fill:#dbc8b5;}.cls-19{fill:#fadb69;}.cls-20{fill:#ad9f8e;}.cls-21{fill:#536070;}.cls-22{fill:#fff;}.cls-23{stroke-linecap:round;}.cls-23,.cls-24{stroke-width:5.241px;}.cls-24{stroke:#797979;}.cls-25{fill:#f5a19c;}.cls-26,.cls-39{fill:#aca3ac;}.cls-26{opacity:0.51;}.cls-27{fill:#b6dfdc;}.cls-28{fill:#e2f2f0;}.cls-29{fill:#787878;}.cls-30{fill:#3f3f3f;}.cls-31{fill:#616161;}.cls-32{stroke:#e5e9f0;stroke-width:15px;}.cls-33,.cls-37{stroke:#5d5263;stroke-width:18px;}.cls-34{stroke:#414b58;}.cls-35{stroke:#48404d;stroke-width:14px;}.cls-36{fill:#c1c1c1;}.cls-37{fill:#8f8490;}.cls-38{fill:#48404d;}.cls-40{fill:#969696;}.cls-41{fill:#bebebe;}.cls-42{fill:#e9e9e9;}.cls-43{fill:#b6bcc4;}.cls-44{isolation:isolate;}.cls-45{clip-path:url(#clip-path);}.cls-46{fill:#f3f3f3;fill-opacity:0.1;}.cls-47{opacity:0.18;}.cls-48{fill:#606060;}.cls-49{fill:#d3b196;}.cls-50{fill:#4b4b4b;}.cls-51{fill:#e5e8e9;}</style><clipPath id="clip-path" transform="translate(-6.377 -8.717)"><polygon id="SVGID" class="cls-1" points="278.896 209.333 284.214 180.472 320.738 180.472 315.42 209.333 278.896 209.333"/></clipPath></defs><title>2_illu_m</title><rect class="cls-2" x="407.645" width="322.605" height="181.465"/><path class="cls-3" d="M711.3,56.227A8.546,8.546,0,1,0,698.451,67.5l6.425-5.635Z" transform="translate(-6.377 -8.717)"/><path class="cls-4" d="M698.451,67.5a8.855,8.855,0,0,0,12.206.956,8.624,8.624,0,0,0,2.844-6.507c0-2,.048-3.157-2.2-5.719l-6.426,5.635Z" transform="translate(-6.377 -8.717)"/><path class="cls-5" d="M698.451,67.5a8.855,8.855,0,0,0,12.206.956,8.624,8.624,0,0,0,2.844-6.507l-8.625-.084Z" transform="translate(-6.377 -8.717)"/><path class="cls-6" d="M698.451,67.5c3,3.416,5.266,3.347,8.182,2.734l-1.757-8.369Z" transform="translate(-6.377 -8.717)"/><path class="cls-7" d="M696.625,63.187a7.494,7.494,0,0,0,1.941,4.441l6.425-5.635Z" transform="translate(-6.377 -8.717)"/><path class="cls-8" d="M713.73,136.263a8.546,8.546,0,0,0-16.887-2.641l8.443,1.32Z" transform="translate(-6.377 -8.717)"/><path class="cls-9" d="M696.843,133.622a8.513,8.513,0,0,0,13.914,7.951,8.853,8.853,0,0,0,2.973-5.31l-8.444-1.321Z" transform="translate(-6.377 -8.717)"/><path class="cls-9" d="M696.843,133.622a8.513,8.513,0,0,0,13.914,7.951,8.853,8.853,0,0,0,2.973-5.31l-8.444-1.321Z" transform="translate(-6.377 -8.717)"/><path class="cls-7" d="M696.843,133.622a8.513,8.513,0,0,0,13.914,7.951l-5.471-6.631Z" transform="translate(-6.377 -8.717)"/><path class="cls-6" d="M696.843,133.622a8.219,8.219,0,0,0,3.145,8.033l5.3-6.713Z" transform="translate(-6.377 -8.717)"/><path class="cls-5" d="M699.069,129.026a8.309,8.309,0,0,0-2.226,4.6l8.443,1.32Z" transform="translate(-6.377 -8.717)"/><path class="cls-10" d="M713.7,136.258a8.424,8.424,0,0,0-7.13-9.726,8.618,8.618,0,0,0-3.617.2l2.3,8.208Z" transform="translate(-6.377 -8.717)"/><rect class="cls-2" x="239.779" y="53.503" width="97.175" height="19.333"/><path class="cls-11" d="M263.1,75.842h-6.217V74.319l2.092-2.116q.9-.937,1.172-1.28a2.809,2.809,0,0,0,.384-.589,1.269,1.269,0,0,0,.108-.515.67.67,0,0,0-.217-.528.881.881,0,0,0-.609-.193,1.661,1.661,0,0,0-.817.231,5.888,5.888,0,0,0-.935.683l-1.271-1.488a6.813,6.813,0,0,1,1.113-.847,3.988,3.988,0,0,1,.981-.39,4.9,4.9,0,0,1,1.193-.134,3.585,3.585,0,0,1,1.485.293,2.32,2.32,0,0,1,1.014.835,2.146,2.146,0,0,1,.36,1.215,3.126,3.126,0,0,1-.516,1.773,5.8,5.8,0,0,1-.7.87q-.437.458-1.86,1.734v.059h3.24Z" transform="translate(-6.377 -8.717)"/><path class="cls-11" d="M270.167,71.571a5.765,5.765,0,0,1-.761,3.331,2.682,2.682,0,0,1-2.332,1.057,2.65,2.65,0,0,1-2.315-1.1,5.7,5.7,0,0,1-.779-3.284,5.834,5.834,0,0,1,.762-3.352,2.673,2.673,0,0,1,2.332-1.066,2.645,2.645,0,0,1,2.311,1.11A5.743,5.743,0,0,1,270.167,71.571Zm-3.884,0a7.329,7.329,0,0,0,.181,2c.121.363.325.545.61.545s.493-.188.612-.563a11.033,11.033,0,0,0,0-3.975Q267.5,69,267.074,69c-.285,0-.489.184-.61.551A7.456,7.456,0,0,0,266.283,71.571Z" transform="translate(-6.377 -8.717)"/><path class="cls-11" d="M272.94,73.416V71.8h5.133v1.617Z" transform="translate(-6.377 -8.717)"/><path class="cls-11" d="M287.513,74.184h-.943v1.658h-2.285V74.184h-3.416v-1.7l3.562-5.209h2.139v5.179h.943Zm-3.228-1.729v-1q0-.28.02-.758c.014-.319.025-.486.032-.5h-.064a6.193,6.193,0,0,1-.451.843l-.949,1.412Z" transform="translate(-6.377 -8.717)"/><path class="cls-11" d="M294.3,71.571a5.764,5.764,0,0,1-.762,3.331,2.681,2.681,0,0,1-2.332,1.057,2.649,2.649,0,0,1-2.314-1.1,5.692,5.692,0,0,1-.779-3.284,5.843,5.843,0,0,1,.761-3.352,2.674,2.674,0,0,1,2.332-1.066,2.646,2.646,0,0,1,2.312,1.11A5.751,5.751,0,0,1,294.3,71.571Zm-3.885,0a7.317,7.317,0,0,0,.182,2q.181.544.609.545t.613-.563a11.093,11.093,0,0,0,0-3.975q-.181-.572-.61-.572t-.609.551A7.444,7.444,0,0,0,290.419,71.571Z" transform="translate(-6.377 -8.717)"/><path class="cls-11" d="M298.1,78.532a5.666,5.666,0,0,1-1.2-.123v-1.8c.125.023.258.05.4.079a2.268,2.268,0,0,0,.458.044.936.936,0,0,0,.82-.346,2.119,2.119,0,0,0,.246-1.184V67.276h2.326V75a3.964,3.964,0,0,1-.762,2.634A2.834,2.834,0,0,1,298.1,78.532Z" transform="translate(-6.377 -8.717)"/><path class="cls-11" d="M308.25,75.842l-.422-1.605h-2.784l-.433,1.605h-2.543l2.8-8.6h3.088l2.83,8.6Zm-.9-3.5-.369-1.406q-.129-.469-.313-1.213t-.244-1.066q-.052.3-.208.984t-.688,2.7Z" transform="translate(-6.377 -8.717)"/><path class="cls-11" d="M319.048,75.842h-2.326V72.35h-2.689v3.492h-2.326V67.276h2.326v3.176h2.689V67.276h2.326Z" transform="translate(-6.377 -8.717)"/><path class="cls-11" d="M323.214,72.725v3.117H320.9V67.276h2.807q3.492,0,3.492,2.531a2.531,2.531,0,0,1-1.453,2.3l2.5,3.732h-2.625L323.8,72.725Zm0-1.74h.434q1.213,0,1.213-1.073,0-.884-1.19-.884h-.457Z" transform="translate(-6.377 -8.717)"/><path class="cls-11" d="M334.107,75.842h-5.086V67.276h5.086v1.857h-2.772v1.348H333.9v1.857h-2.567v1.617h2.772Z" transform="translate(-6.377 -8.717)"/><line class="cls-12" x1="242.875" y1="64.441" x2="210.037" y2="61.552"/><rect class="cls-2" x="240.734" y="3.871" width="77.658" height="19.333"/><path class="cls-11" d="M264.643,26.375l-.422-1.606h-2.783L261,26.375h-2.543l2.795-8.6h3.088l2.83,8.6Zm-.9-3.5-.369-1.406c-.086-.313-.192-.717-.315-1.213s-.2-.852-.242-1.067c-.035.2-.106.528-.209.985s-.332,1.357-.688,2.7Z" transform="translate(-6.377 -8.717)"/><path class="cls-11" d="M268.1,26.375V17.808h2.315v6.7h3.3v1.869Z" transform="translate(-6.377 -8.717)"/><path class="cls-11" d="M275.084,26.375V17.808H277.4v6.7h3.3v1.869Z" transform="translate(-6.377 -8.717)"/><path class="cls-11" d="M287.155,26.375h-5.086V17.808h5.086v1.858h-2.772v1.348h2.567v1.857h-2.567v1.617h2.772Z" transform="translate(-6.377 -8.717)"/><path class="cls-11" d="M290.969,23.258v3.117h-2.314V17.808h2.806q3.494,0,3.493,2.532a2.529,2.529,0,0,1-1.454,2.3l2.5,3.733h-2.625l-1.817-3.117Zm0-1.741h.434q1.212,0,1.213-1.072,0-.885-1.19-.885h-.457Z" transform="translate(-6.377 -8.717)"/><path class="cls-11" d="M300.215,21.359h3.7v4.617a10.161,10.161,0,0,1-3.311.516,4,4,0,0,1-3.062-1.148,4.6,4.6,0,0,1-1.081-3.276,4.3,4.3,0,0,1,1.184-3.228,4.549,4.549,0,0,1,3.316-1.155,7.3,7.3,0,0,1,1.526.153,6.46,6.46,0,0,1,1.252.386L303,20.041a4.525,4.525,0,0,0-2.033-.457,1.936,1.936,0,0,0-1.568.659,2.851,2.851,0,0,0-.553,1.884,2.888,2.888,0,0,0,.5,1.831,1.739,1.739,0,0,0,1.445.63,4.21,4.21,0,0,0,.95-.1V23.146h-1.53Z" transform="translate(-6.377 -8.717)"/><path class="cls-11" d="M305.659,26.375V17.808h2.326v8.567Z" transform="translate(-6.377 -8.717)"/><path class="cls-11" d="M314.922,26.375h-5.086V17.808h5.086v1.858h-2.771v1.348h2.566v1.857h-2.566v1.617h2.771Z" transform="translate(-6.377 -8.717)"/><rect class="cls-2" y="59.898" width="67.958" height="19.333"/><path class="cls-11" d="M20.6,77.386h3.7V82a10.154,10.154,0,0,1-3.31.516,4,4,0,0,1-3.062-1.149A4.6,4.6,0,0,1,16.844,78.1a4.3,4.3,0,0,1,1.184-3.228,4.547,4.547,0,0,1,3.316-1.155,7.32,7.32,0,0,1,1.527.153,6.449,6.449,0,0,1,1.251.386l-.733,1.817a4.525,4.525,0,0,0-2.033-.457,1.93,1.93,0,0,0-1.567.659,2.846,2.846,0,0,0-.554,1.884,2.89,2.89,0,0,0,.5,1.831,1.736,1.736,0,0,0,1.444.63,4.259,4.259,0,0,0,.949-.1V79.173H20.6Z" transform="translate(-6.377 -8.717)"/><path class="cls-11" d="M31.129,82.4H26.043V73.835h5.086v1.858H28.358V77.04h2.566V78.9H28.358v1.617h2.771Z" transform="translate(-6.377 -8.717)"/><path class="cls-11" d="M38.231,79.8a2.531,2.531,0,0,1-.4,1.415,2.652,2.652,0,0,1-1.166.961,4.316,4.316,0,0,1-1.787.343,7.239,7.239,0,0,1-1.436-.12,5.332,5.332,0,0,1-1.207-.419V79.917a6.853,6.853,0,0,0,1.377.531,5.123,5.123,0,0,0,1.312.19,1.275,1.275,0,0,0,.756-.179.55.55,0,0,0,.241-.46.508.508,0,0,0-.1-.307,1.132,1.132,0,0,0-.311-.267q-.213-.135-1.139-.551a5.468,5.468,0,0,1-1.257-.738,2.263,2.263,0,0,1-.621-.82,2.721,2.721,0,0,1-.2-1.1,2.2,2.2,0,0,1,.861-1.846,3.8,3.8,0,0,1,2.367-.662,6.645,6.645,0,0,1,2.713.615l-.709,1.788a5.125,5.125,0,0,0-2.074-.551,1.082,1.082,0,0,0-.656.158.478.478,0,0,0-.206.393.567.567,0,0,0,.261.451,9.919,9.919,0,0,0,1.415.726,3.914,3.914,0,0,1,1.538,1.07A2.322,2.322,0,0,1,38.231,79.8Z" transform="translate(-6.377 -8.717)"/><path class="cls-11" d="M46.838,73.835v5.157a3.457,3.457,0,0,1-.952,2.6,3.789,3.789,0,0,1-2.745.923,3.749,3.749,0,0,1-2.692-.9,3.393,3.393,0,0,1-.941-2.578V73.835h2.326v5.028a2.062,2.062,0,0,0,.34,1.318,1.466,1.466,0,0,0,2.031,0,2.189,2.189,0,0,0,.319-1.333V73.835Z" transform="translate(-6.377 -8.717)"/><path class="cls-11" d="M56.793,82.4H53.758l-3.129-6.035h-.052q.111,1.424.111,2.173V82.4H48.637V73.835h3.024l3.117,5.953h.035q-.082-1.294-.082-2.08V73.835h2.062Z" transform="translate(-6.377 -8.717)"/><path class="cls-11" d="M65.917,77.937a4.427,4.427,0,0,1-1.181,3.305,4.537,4.537,0,0,1-3.319,1.16H58.645V73.835H61.61a4.472,4.472,0,0,1,3.184,1.055A3.981,3.981,0,0,1,65.917,77.937Zm-2.4.082a2.72,2.72,0,0,0-.466-1.746,1.722,1.722,0,0,0-1.415-.569h-.674v4.8h.516a1.868,1.868,0,0,0,1.547-.612A2.958,2.958,0,0,0,63.514,78.019Z" transform="translate(-6.377 -8.717)"/><rect class="cls-2" x="8.25" y="1.204" width="54.402" height="19.333"/><path class="cls-11" d="M29.1,23.708l-.422-1.6H25.9l-.434,1.6H22.921l2.8-8.6H28.8l2.83,8.6Zm-.9-3.5L27.832,18.8q-.129-.468-.314-1.213t-.243-1.066c-.035.2-.1.527-.208.984s-.333,1.358-.689,2.7Z" transform="translate(-6.377 -8.717)"/><path class="cls-11" d="M39.878,23.708H37.265l-1.693-3.275-.686.41v2.865H32.56V15.142h2.326v3.721a10.143,10.143,0,0,1,.709-1.1l1.8-2.625h2.531l-2.7,3.838Z" transform="translate(-6.377 -8.717)"/><path class="cls-11" d="M44.584,23.708H42.269V17.035H40.177V15.142h6.492v1.893H44.584Z" transform="translate(-6.377 -8.717)"/><path class="cls-11" d="M47.894,23.708V15.142H50.22v8.566Z" transform="translate(-6.377 -8.717)"/><path class="cls-11" d="M56.882,15.142h2.59l-2.806,8.566H53.941l-2.8-8.566h2.6l1.166,4.342a13.2,13.2,0,0,1,.4,2.015q.041-.409.164-1.025t.217-.967Z" transform="translate(-6.377 -8.717)"/><line class="cls-12" x1="58.25" y1="11.871" x2="121.375" y2="26.871"/><line class="cls-12" x1="245.199" y1="14.538" x2="215.25" y2="29.618"/><line class="cls-12" x1="65.48" y1="71.501" x2="100.25" y2="57.871"/><rect class="cls-2" x="83.583" y="0.538" width="139.333" height="191.333"/><rect class="cls-13" x="83.583" y="137.155" width="139.333" height="54.716"/><path class="cls-14" d="M158.263,114.061s-7.44,20.552-11.316,27.635-21.808,22.21-21.808,22.21" transform="translate(-6.377 -8.717)"/><path class="cls-15" d="M129.835,164.557a.806.806,0,0,1,.623.785l0,5.268c-.079.3.685,5.8.758,6.321a.809.809,0,0,1,.007.086c.07,1.847-.249,2.559-1.6,3.431h0a.806.806,0,0,1-1.08-.06l-1.815-1.832-.039-.043a44.909,44.909,0,0,1-7.651-12.188l-1.291-3.055a.807.807,0,0,1,.529-1.091l.853-.235a.8.8,0,0,0,.394-.248l.3-.35a8.917,8.917,0,0,1,3.41-2.422l1.251-.5a.807.807,0,0,1,.973.3l.274.415a.832.832,0,0,1,.119.586,3.99,3.99,0,0,0,3.174,4.643Z" transform="translate(-6.377 -8.717)"/><polygon class="cls-16" points="137.829 128.929 145.453 133.217 158.207 107.452 143.714 104.302 137.829 128.929"/><polygon class="cls-17" points="153.163 117.805 158.207 107.452 143.714 104.302 141.439 113.823 153.163 117.805"/><rect class="cls-18" x="146.257" y="45.964" width="7.147" height="20.429" rx="3.574" ry="3.574"/><circle class="cls-19" cx="153.648" cy="36.518" r="11.083"/><path class="cls-18" d="M171.329,41.726l-.166,16.081a5.717,5.717,0,0,1-5.776,5.658h0l-7.147-.074a5.716,5.716,0,0,1-5.658-5.776l.158-15.366,9.3-.618Z" transform="translate(-6.377 -8.717)"/><path class="cls-18" d="M171.12,48.606a10.636,10.636,0,0,0,2.046,3.591c.847,1.031,1.031,2.288-.405,2.484h-1.642S171.1,49.03,171.12,48.606Z" transform="translate(-6.377 -8.717)"/><path class="cls-20" d="M171.3,44.976l.034-3.274-8.746-.114h-.629l-9.214.637L152.582,57.6c0,.118.262.238.268.354a5.01,5.01,0,0,0,3.777-4.839V52.4c0-1.974,1-3.574,4-3.574v4.289c1,0,2-1.6,2-3.574V45.971a4.013,4.013,0,0,1,2.152-3.057c1.257.463,4.222,1.757,4.589,4.321a5.6,5.6,0,0,0,.923-3.084A7.109,7.109,0,0,1,171.3,44.976Z" transform="translate(-6.377 -8.717)"/><path class="cls-14" d="M156.913,112.631s29.065,13.54,30.177,19.179c-5.6,6.789-11.473,27.3-11.473,27.3" transform="translate(-6.377 -8.717)"/><path class="cls-15" d="M180.221,157.983a.807.807,0,0,1,.869.5l1.95,4.894c.037.305,2.779,5.135,3.04,5.594.014.025.026.049.038.076.748,1.691.714,2.47-.219,3.78h0a.807.807,0,0,1-1.026.344l-2.363-1.033-.052-.025a44.912,44.912,0,0,1-11.613-8.5l-2.328-2.363a.806.806,0,0,1,.088-1.209l.706-.534a.8.8,0,0,0,.274-.375l.154-.438a8.919,8.919,0,0,1,2.274-3.511l.978-.929a.806.806,0,0,1,1.015-.077l.407.284a.835.835,0,0,1,.329.5,3.99,3.99,0,0,0,4.665,3.14Z" transform="translate(-6.377 -8.717)"/><polygon class="cls-16" points="174.518 123.926 180.236 116.302 156.65 99.149 149.424 109.632 174.518 123.926"/><path class="cls-16" d="M147.96,111.571c0,4.265,3.866,9,8.635,9s8.635-4.737,8.635-9-3.866-7.723-8.635-7.723S147.96,107.305,147.96,111.571Z" transform="translate(-6.377 -8.717)"/><path class="cls-21" d="M167.614,48.948a.73.73,0,1,0,.729-.729A.729.729,0,0,0,167.614,48.948Z" transform="translate(-6.377 -8.717)"/><path class="cls-7" d="M167.614,48.948a.73.73,0,1,0,.729-.729A.729.729,0,0,0,167.614,48.948Z" transform="translate(-6.377 -8.717)"/><path class="cls-19" d="M167.048,41.444h0a3.574,3.574,0,0,0-3.574,3.574v3.573a3.574,3.574,0,0,1-3.573,3.574h0V47.876h0a3.574,3.574,0,0,0-3.574,3.574v.715h0a5,5,0,0,1-5,5h0V40.729h15.724Z" transform="translate(-6.377 -8.717)"/><path class="cls-22" d="M163.117,58v.378a1.946,1.946,0,0,0,1.946,1.946h2.7a1.946,1.946,0,0,0,1.946-1.946V58" transform="translate(-6.377 -8.717)"/><path class="cls-19" d="M151.95,49.915a6.857,6.857,0,0,1-5.837,6.611c-5.361.715-7.862-3.335-7.981-5.837,0,0,2.025.55,2.025-.774a5.9,5.9,0,0,1,11.793,0Z" transform="translate(-6.377 -8.717)"/><path class="cls-19" d="M164.576,41.755s4.527,1.191,5,4.527c0,0,2.383-3.812-.953-6.075S164.576,41.755,164.576,41.755Z" transform="translate(-6.377 -8.717)"/><path class="cls-19" d="M167.435,41.755s4.527,1.191,5,4.527c0,0,2.382-3.812-.953-6.075S167.435,41.755,167.435,41.755Z" transform="translate(-6.377 -8.717)"/><path class="cls-19" d="M168.185,41.229s4.677-.187,6.109,2.862c0,0,1.162-4.342-2.691-5.529S168.185,41.229,168.185,41.229Z" transform="translate(-6.377 -8.717)"/><path class="cls-17" d="M164.791,109.271c-.1-.276-.227-.683-.362-.683H148.758c-.507,0-.8,1.952-.8,3.105,0,.126,0,.191.011.317l21.228.437Z" transform="translate(-6.377 -8.717)"/><ellipse class="cls-18" cx="126.964" cy="106.501" rx="3.751" ry="5.42" transform="translate(-21.625 12.705) rotate(-9.101)"/><ellipse class="cls-18" cx="129.149" cy="104.779" rx="2.43" ry="3.326" transform="translate(-21.325 13.029) rotate(-9.101)"/><path class="cls-23" d="M155.894,75.062s-14.559,2.876-19.238,8.061-9.207,18.944-9.207,18.944" transform="translate(-6.377 -8.717)"/><path class="cls-24" d="M130.061,95.108c-.707,1.712-1.3,3.282-1.747,4.5" transform="translate(-6.377 -8.717)"/><ellipse class="cls-18" cx="202.261" cy="60.88" rx="5.42" ry="3.751" transform="translate(54.615 209.194) rotate(-64.777)"/><ellipse class="cls-18" cx="199.485" cy="61.07" rx="3.326" ry="2.43" transform="translate(52.85 206.793) rotate(-64.777)"/><path class="cls-25" d="M170.377,78.118c-4.134-3.477-9.493-11.348-13.186-11.467a7.406,7.406,0,0,0-5.837,2.859c-2.025,2.144-4.05,10.363-1.31,20.965s-3.693,18.821-3.693,18.821l22.871,1.668,1.042-20.458.461-.478a8.335,8.335,0,0,0-.348-11.91Z" transform="translate(-6.377 -8.717)"/><path class="cls-23" d="M159.675,74.179s15.741,9.625,22.809,6.211,16.875-16.121,16.875-16.121" transform="translate(-6.377 -8.717)"/><path class="cls-24" d="M197.215,66.909c-.808.964-1.807,2.124-2.929,3.36" transform="translate(-6.377 -8.717)"/><path class="cls-26" d="M722.794,39.654h-1.5a7.5,7.5,0,0,0-7.5-7.5H687.122a4.875,4.875,0,0,1-4.875-4.875V26.216h0c-2.484,1.5-5.056,4.265-3.078,9.813-5.54-.75-5.831-4.728-5.831-4.728a10.407,10.407,0,0,0-1.481,5.368V36.7A10.454,10.454,0,0,0,682.31,47.154h1.734V84.9a12,12,0,0,0,12,12h12v6.569a12.815,12.815,0,0,0-10.25,12.547,36.266,36.266,0,0,0-13.987,28.64v45.523h44.987V116.972a8.623,8.623,0,0,0-3.024-6.563v-7.193h-2.726V86.966a7.351,7.351,0,0,0-.059-.895c.037-.384.059-.773.059-1.167v-6.25h1.319a5.931,5.931,0,0,0,5.931-5.931V47.154A7.5,7.5,0,0,0,722.794,39.654Z" transform="translate(-6.377 -8.717)"/><path class="cls-27" d="M535.554,89.327h-25.12a6.868,6.868,0,0,1-6.865-6.682l-1.194-44.259h41.238l-1.194,44.259A6.868,6.868,0,0,1,535.554,89.327Z" transform="translate(-6.377 -8.717)"/><path class="cls-3" d="M502.866,57.588l.689,25.43a6.772,6.772,0,0,0,6.865,6.57h25.12a6.772,6.772,0,0,0,6.864-6.57l.69-25.43Z" transform="translate(-6.377 -8.717)"/><rect class="cls-7" x="504.761" y="42.465" width="23.712" height="28.867"/><path class="cls-28" d="M515.232,54.116a3.181,3.181,0,0,1,.535.047.837.837,0,0,1,.319.1.207.207,0,0,1,.1.181.171.171,0,0,1-.035.114.5.5,0,0,1-.152.1.263.263,0,0,0-.157.166q-.019.095-.037.738c0,.415-.009.664-.012.747a1.614,1.614,0,0,1-.03.243.972.972,0,0,1-.274.537,1.183,1.183,0,0,1-.435.252,1.706,1.706,0,0,1-.559.091,2.092,2.092,0,0,1-.523-.068,1.625,1.625,0,0,1-.455-.188.743.743,0,0,1-.347-.624.536.536,0,0,1,.148-.389.493.493,0,0,1,.371-.154.553.553,0,0,1,.371.129.411.411,0,0,1,.152.324.768.768,0,0,1-.027.165.2.2,0,0,0,0,.051.157.157,0,0,0,.054.123.213.213,0,0,0,.144.046.292.292,0,0,0,.253-.141.644.644,0,0,0,.1-.371l0-.214,0-.575c-.013-.349-.024-.555-.031-.617a.315.315,0,0,0-.054-.151.2.2,0,0,0-.061-.061,1.008,1.008,0,0,0-.148-.045.158.158,0,0,1-.1-.066.181.181,0,0,1-.04-.115.244.244,0,0,1,.1-.2.827.827,0,0,1,.325-.123A2.541,2.541,0,0,1,515.232,54.116Z" transform="translate(-6.377 -8.717)"/><path class="cls-28" d="M517.759,55.03a1.3,1.3,0,0,1,.755.223,1.207,1.207,0,0,1,.373.416,1.147,1.147,0,0,1,.146.559,1.062,1.062,0,0,1-.467.867,1.643,1.643,0,0,1-1.023.34,1.293,1.293,0,0,1-.909-.319,1.047,1.047,0,0,1-.338-.808,1.139,1.139,0,0,1,.413-.907A1.562,1.562,0,0,1,517.759,55.03Zm-.187.543a.2.2,0,0,0-.166.076.313.313,0,0,0-.062.2,1.94,1.94,0,0,0,.053.384,2.941,2.941,0,0,0,.125.431.25.25,0,0,0,.237.193c.14,0,.21-.089.21-.265a2.219,2.219,0,0,0-.053-.449,1.891,1.891,0,0,0-.128-.409A.247.247,0,0,0,517.572,55.573Z" transform="translate(-6.377 -8.717)"/><path class="cls-28" d="M521.7,54.905a.124.124,0,0,1,.1.067.267.267,0,0,1,.045.156.5.5,0,0,1-.059.219.585.585,0,0,1-.145.2c-.036.031-.055.056-.055.075s0,.023,0,.057a.578.578,0,0,1,.007.089.644.644,0,0,1-.187.47,1.13,1.13,0,0,1-.436.262,1.744,1.744,0,0,1-.586.1,1.113,1.113,0,0,1-.153-.01c-.04,0-.072-.007-.094-.007a.11.11,0,0,0-.124.125.139.139,0,0,0,.081.126.452.452,0,0,0,.219.045,2.161,2.161,0,0,0,.277-.025,4.409,4.409,0,0,1,.569-.055.84.84,0,0,1,.43.092.524.524,0,0,1,.194.2.556.556,0,0,1,.071.273.741.741,0,0,1-.174.46,1.2,1.2,0,0,1-.608.39,2.428,2.428,0,0,1-.728.1,1.927,1.927,0,0,1-.846-.16.66.66,0,0,1-.24-.2.429.429,0,0,1-.089-.254.3.3,0,0,1,.051-.169.271.271,0,0,1,.128-.11c.047-.02.07-.04.07-.062s-.019-.042-.058-.075a.437.437,0,0,1-.189-.326.391.391,0,0,1,.091-.233.621.621,0,0,1,.225-.185c.037-.019.055-.038.055-.057s-.023-.055-.07-.1a.688.688,0,0,1-.242-.521.581.581,0,0,1,.086-.3.757.757,0,0,1,.238-.244,1.5,1.5,0,0,1,.839-.247,2.045,2.045,0,0,1,.409.047,1.77,1.77,0,0,0,.293.043.821.821,0,0,0,.51-.2A.168.168,0,0,1,521.7,54.905Zm-1.788,2.624c-.039,0-.059.023-.059.069a.254.254,0,0,0,.15.224.782.782,0,0,0,.39.086.874.874,0,0,0,.36-.061.191.191,0,0,0,.131-.172.123.123,0,0,0-.05-.1.184.184,0,0,0-.122-.041.924.924,0,0,0-.107.009,1.883,1.883,0,0,1-.294.022c-.08,0-.157,0-.23-.012a1.02,1.02,0,0,1-.134-.019Zm.511-2.138a.228.228,0,0,0-.188.09.364.364,0,0,0-.072.237.894.894,0,0,0,.078.406.23.23,0,0,0,.2.153.236.236,0,0,0,.2-.095.4.4,0,0,0,.073-.255.824.824,0,0,0-.077-.391A.248.248,0,0,0,520.423,55.391Z" transform="translate(-6.377 -8.717)"/><path class="cls-28" d="M523.29,54.281l-.031.984c0,.117.033.176.108.176.038,0,.074-.026.11-.077a.7.7,0,0,1,.608-.332.79.79,0,0,1,.595.228.569.569,0,0,1,.14.24,1.578,1.578,0,0,1,.046.4l.021.847a.365.365,0,0,0,.03.163.461.461,0,0,0,.125.129.161.161,0,0,1,.068.129q0,.254-.766.254-.681,0-.681-.238a.145.145,0,0,1,.011-.061,1.389,1.389,0,0,1,.083-.112,1.975,1.975,0,0,0,.039-1.1.276.276,0,0,0-.276-.2.236.236,0,0,0-.212.1.562.562,0,0,0-.049.283v.453a2.938,2.938,0,0,0,.028.34.531.531,0,0,0,.108.148.168.168,0,0,1,.045.116c0,.176-.231.265-.69.265-.54,0-.809-.092-.809-.275a.158.158,0,0,1,.026-.1.624.624,0,0,1,.126-.1c.06-.042.1-.156.124-.342a8.547,8.547,0,0,0,.034-.922,5.726,5.726,0,0,0-.028-.7.244.244,0,0,0-.034-.107.278.278,0,0,0-.093-.069c-.1-.05-.145-.108-.145-.174a.218.218,0,0,1,.11-.19,1.632,1.632,0,0,1,.423-.157,2.644,2.644,0,0,1,.674-.118C523.249,54.163,523.292,54.2,523.29,54.281Z" transform="translate(-6.377 -8.717)"/><path class="cls-28" d="M526.537,55.166v1.273c0,.273.089.409.269.409a.259.259,0,0,0,.134-.039.21.21,0,0,0,.092-.095,1.5,1.5,0,0,0,.052-.5,3.5,3.5,0,0,0-.026-.526.182.182,0,0,0-.033-.086.364.364,0,0,0-.089-.062.206.206,0,0,1-.135-.178c0-.1.077-.165.231-.2a3.59,3.59,0,0,1,.862-.108c.158,0,.237.083.237.251,0,.017,0,.052,0,.106,0,.075,0,.167-.007.275v1.036c0,.053.045.1.136.145a.18.18,0,0,1,.116.165q0,.21-.5.326a2.481,2.481,0,0,1-.569.068.314.314,0,0,1-.153-.026.126.126,0,0,1-.049-.1c-.008-.1-.037-.145-.089-.145a.117.117,0,0,0-.052.012c-.015.009-.063.041-.143.1a.887.887,0,0,1-.51.162.728.728,0,0,1-.637-.261,1.3,1.3,0,0,1-.157-.735c0-.129,0-.238,0-.329v-.108a.892.892,0,0,0-.037-.3.285.285,0,0,0-.133-.15.456.456,0,0,1-.116-.075.113.113,0,0,1-.024-.077c0-.119.089-.2.27-.237a4.239,4.239,0,0,1,.921-.1C526.49,55.049,526.537,55.088,526.537,55.166Z" transform="translate(-6.377 -8.717)"/><path class="cls-28" d="M529.607,55.046c.083,0,.134.012.151.035a.635.635,0,0,1,.048.226c.008.069.032.1.073.1s.061-.023.089-.069a.564.564,0,0,1,.491-.293.47.47,0,0,1,.35.138.531.531,0,0,1,.108.175.526.526,0,0,1-.009.432.555.555,0,0,1-.134.192.515.515,0,0,1-.368.143.431.431,0,0,1-.2-.042.992.992,0,0,1-.213-.172.142.142,0,0,0-.092-.049.085.085,0,0,0-.085.074,1.428,1.428,0,0,0-.021.311,2.815,2.815,0,0,0,.027.484.19.19,0,0,0,.046.1.346.346,0,0,0,.125.055c.141.043.212.116.212.221a.235.235,0,0,1-.069.168.334.334,0,0,1-.18.095,3.521,3.521,0,0,1-.663.047,2.108,2.108,0,0,1-.632-.073.239.239,0,0,1-.193-.228.269.269,0,0,1,.141-.218.376.376,0,0,0,.1-.081.266.266,0,0,0,.035-.1,5.631,5.631,0,0,0,.037-.792.346.346,0,0,0-.024-.151.164.164,0,0,0-.093-.074c-.112-.044-.167-.107-.167-.19a.231.231,0,0,1,.115-.194,1.39,1.39,0,0,1,.386-.161A2.3,2.3,0,0,1,529.607,55.046Z" transform="translate(-6.377 -8.717)"/><path class="cls-28" d="M532.547,55.648v.794a.366.366,0,0,0,.07.23.217.217,0,0,0,.177.089.546.546,0,0,0,.243-.084.126.126,0,0,1,.07-.021.129.129,0,0,1,.1.067.252.252,0,0,1,.047.148.371.371,0,0,1-.16.28,1.2,1.2,0,0,1-.807.284.851.851,0,0,1-.605-.212.735.735,0,0,1-.227-.561V55.577a.106.106,0,0,0-.013-.067.115.115,0,0,0-.068-.013h-.241c-.046,0-.075-.007-.087-.022a.191.191,0,0,1-.019-.105v-.1a.118.118,0,0,1,.054-.1l1.076-.677a.209.209,0,0,1,.1-.021h.191a.1.1,0,0,1,.079.027.2.2,0,0,1,.019.107v.317a.133.133,0,0,0,.023.092.148.148,0,0,0,.1.021h.434c.058,0,.1.01.112.031a.232.232,0,0,1,.027.136v.138a.282.282,0,0,1-.033.157.149.149,0,0,1-.121.043h-.424a.132.132,0,0,0-.09.023A.128.128,0,0,0,532.547,55.648Z" transform="translate(-6.377 -8.717)"/><polygon class="cls-7" points="496.05 31.871 537.183 31.871 537.236 27.871 495.998 27.871 496.05 31.871"/><path class="cls-3" d="M601.627,44.107c-9,0-17.838,7.986-17.838,17.838s8.838,17.838,17.838,17.838V44.107Z" transform="translate(-6.377 -8.717)"/><path class="cls-4" d="M601.627,79.783A17.791,17.791,0,0,0,613.5,48.526c-3.135-2.752-5.872-4.419-11.872-4.419V79.783Z" transform="translate(-6.377 -8.717)"/><path class="cls-5" d="M601.627,79.783A17.791,17.791,0,0,0,613.5,48.526L601.627,61.945Z" transform="translate(-6.377 -8.717)"/><path class="cls-6" d="M601.627,79.783c8,0,12.5-3.658,15.552-9.076l-15.552-8.762Z" transform="translate(-6.377 -8.717)"/><path class="cls-7" d="M591.989,76.718a15.644,15.644,0,0,0,9.638,3.065V61.945Z" transform="translate(-6.377 -8.717)"/><path class="cls-9" d="M536.882,159.069h-25.12a6.867,6.867,0,0,1-6.865-6.682L503.7,108.128h41.238l-1.2,44.259A6.867,6.867,0,0,1,536.882,159.069Z" transform="translate(-6.377 -8.717)"/><path class="cls-8" d="M504.193,126.588l.69,25.93a7.211,7.211,0,0,0,6.864,7.07h25.12a7.211,7.211,0,0,0,6.865-7.07l.689-25.93Z" transform="translate(-6.377 -8.717)"/><rect class="cls-7" x="506.088" y="112.206" width="23.712" height="28.867"/><path class="cls-28" d="M516.559,123.858a3.172,3.172,0,0,1,.535.047.83.83,0,0,1,.32.1.207.207,0,0,1,.1.18.17.17,0,0,1-.035.115.528.528,0,0,1-.152.1.259.259,0,0,0-.156.166c-.014.063-.026.309-.038.738s-.008.665-.012.748a1.6,1.6,0,0,1-.03.242.972.972,0,0,1-.274.537,1.183,1.183,0,0,1-.435.252,1.707,1.707,0,0,1-.559.092,2.048,2.048,0,0,1-.523-.069,1.637,1.637,0,0,1-.455-.188.74.74,0,0,1-.347-.624.537.537,0,0,1,.148-.389.493.493,0,0,1,.371-.154.553.553,0,0,1,.371.129.412.412,0,0,1,.153.324.788.788,0,0,1-.028.165.214.214,0,0,0,0,.052.155.155,0,0,0,.054.122.213.213,0,0,0,.144.047.3.3,0,0,0,.254-.141.657.657,0,0,0,.1-.372l0-.213,0-.576c-.013-.349-.024-.555-.031-.616a.319.319,0,0,0-.054-.152.216.216,0,0,0-.061-.061.966.966,0,0,0-.148-.045.15.15,0,0,1-.1-.066.181.181,0,0,1-.04-.115.244.244,0,0,1,.1-.2.826.826,0,0,1,.326-.123A2.531,2.531,0,0,1,516.559,123.858Z" transform="translate(-6.377 -8.717)"/><path class="cls-28" d="M519.086,124.772a1.3,1.3,0,0,1,.755.223,1.187,1.187,0,0,1,.373.416,1.147,1.147,0,0,1,.146.559,1.059,1.059,0,0,1-.467.867,1.643,1.643,0,0,1-1.022.341,1.3,1.3,0,0,1-.91-.32,1.046,1.046,0,0,1-.337-.808,1.137,1.137,0,0,1,.413-.907A1.557,1.557,0,0,1,519.086,124.772Zm-.187.543a.2.2,0,0,0-.166.076.315.315,0,0,0-.062.2,1.94,1.94,0,0,0,.053.384,2.993,2.993,0,0,0,.125.432.25.25,0,0,0,.237.192c.14,0,.21-.088.21-.265a2.227,2.227,0,0,0-.053-.449,1.786,1.786,0,0,0-.128-.409A.247.247,0,0,0,518.9,125.315Z" transform="translate(-6.377 -8.717)"/><path class="cls-28" d="M523.027,124.647a.124.124,0,0,1,.1.067.267.267,0,0,1,.045.156.5.5,0,0,1-.059.219.585.585,0,0,1-.145.2c-.036.031-.054.057-.054.075s0,.024,0,.057a.588.588,0,0,1,.007.089.644.644,0,0,1-.187.47,1.144,1.144,0,0,1-.436.263,1.744,1.744,0,0,1-.586.094,1.308,1.308,0,0,1-.153-.009.841.841,0,0,0-.094-.008.11.11,0,0,0-.124.125.141.141,0,0,0,.081.126.452.452,0,0,0,.219.045,2.161,2.161,0,0,0,.277-.025,4.568,4.568,0,0,1,.569-.054.841.841,0,0,1,.43.091.52.52,0,0,1,.194.2.539.539,0,0,1,.071.272.744.744,0,0,1-.174.461,1.207,1.207,0,0,1-.608.389,2.423,2.423,0,0,1-.728.1,1.908,1.908,0,0,1-.845-.16.655.655,0,0,1-.241-.2.429.429,0,0,1-.089-.254.3.3,0,0,1,.051-.169.277.277,0,0,1,.128-.11c.047-.019.07-.039.07-.061s-.019-.043-.058-.076a.434.434,0,0,1-.189-.326.394.394,0,0,1,.091-.233.621.621,0,0,1,.225-.185c.037-.019.055-.038.055-.057s-.023-.054-.07-.1a.691.691,0,0,1-.242-.522.581.581,0,0,1,.086-.3.789.789,0,0,1,.238-.244,1.509,1.509,0,0,1,.839-.246,2.039,2.039,0,0,1,.409.046,1.77,1.77,0,0,0,.293.043.815.815,0,0,0,.51-.2A.168.168,0,0,1,523.027,124.647Zm-1.788,2.624c-.039,0-.059.023-.059.069a.254.254,0,0,0,.151.224.776.776,0,0,0,.389.086.88.88,0,0,0,.361-.061.191.191,0,0,0,.13-.172.126.126,0,0,0-.049-.1.187.187,0,0,0-.122-.041.775.775,0,0,0-.108.01,1.88,1.88,0,0,1-.294.021,2.117,2.117,0,0,1-.23-.012,1.02,1.02,0,0,1-.134-.019A.22.22,0,0,0,521.239,127.271Zm.511-2.137a.228.228,0,0,0-.188.089.368.368,0,0,0-.072.237.9.9,0,0,0,.078.407.23.23,0,0,0,.2.152.234.234,0,0,0,.2-.095.4.4,0,0,0,.073-.255.824.824,0,0,0-.077-.391A.244.244,0,0,0,521.75,125.134Z" transform="translate(-6.377 -8.717)"/><path class="cls-28" d="M524.617,124.023l-.031.984c0,.117.033.176.108.176.038,0,.074-.026.11-.077a.708.708,0,0,1,.609-.332.788.788,0,0,1,.594.228.565.565,0,0,1,.14.24,1.584,1.584,0,0,1,.046.4l.021.848a.36.36,0,0,0,.03.162.461.461,0,0,0,.125.129.159.159,0,0,1,.068.13q0,.253-.766.253-.681,0-.681-.237a.138.138,0,0,1,.011-.061,1.4,1.4,0,0,1,.083-.113,1.99,1.99,0,0,0,.04-1.1.278.278,0,0,0-.277-.195.238.238,0,0,0-.212.1.565.565,0,0,0-.049.283v.453a2.969,2.969,0,0,0,.028.341.588.588,0,0,0,.108.148.163.163,0,0,1,.045.115q0,.265-.69.265c-.539,0-.809-.091-.809-.275a.158.158,0,0,1,.026-.1.624.624,0,0,1,.126-.105c.06-.042.1-.156.124-.341a8.5,8.5,0,0,0,.035-.923,5.666,5.666,0,0,0-.029-.7.235.235,0,0,0-.034-.106.268.268,0,0,0-.093-.07c-.1-.05-.145-.108-.145-.174a.218.218,0,0,1,.11-.19,1.632,1.632,0,0,1,.423-.157,2.644,2.644,0,0,1,.674-.118C524.576,123.905,524.62,123.944,524.617,124.023Z" transform="translate(-6.377 -8.717)"/><path class="cls-28" d="M527.864,124.908v1.273q0,.409.269.409a.267.267,0,0,0,.134-.038.217.217,0,0,0,.092-.1,1.5,1.5,0,0,0,.052-.5,3.487,3.487,0,0,0-.026-.525.178.178,0,0,0-.033-.086.338.338,0,0,0-.089-.062.208.208,0,0,1-.135-.179c0-.1.078-.165.231-.2a3.59,3.59,0,0,1,.862-.108c.158,0,.238.083.238.251,0,.017,0,.053,0,.106,0,.075-.006.167-.008.275v1.036c0,.053.046.1.136.145a.179.179,0,0,1,.116.165c0,.141-.167.249-.5.327a2.534,2.534,0,0,1-.569.067.317.317,0,0,1-.153-.025.129.129,0,0,1-.049-.1c-.008-.1-.037-.145-.089-.145a.1.1,0,0,0-.051.013c-.016.008-.064.04-.144.095a.887.887,0,0,1-.51.162A.726.726,0,0,1,527,126.9a1.292,1.292,0,0,1-.158-.735c0-.129,0-.238,0-.329v-.108a.87.87,0,0,0-.037-.3.283.283,0,0,0-.133-.149.48.48,0,0,1-.116-.076.113.113,0,0,1-.024-.077q0-.178.27-.237a4.3,4.3,0,0,1,.921-.1C527.817,124.791,527.864,124.83,527.864,124.908Z" transform="translate(-6.377 -8.717)"/><path class="cls-28" d="M530.934,124.788c.083,0,.134.012.151.036a.6.6,0,0,1,.048.225c.008.069.033.1.074.1s.06-.023.088-.069a.566.566,0,0,1,.492-.293.466.466,0,0,1,.349.139.534.534,0,0,1,.109.174.566.566,0,0,1,.042.206.542.542,0,0,1-.052.226.555.555,0,0,1-.134.192.511.511,0,0,1-.368.143.431.431,0,0,1-.2-.042,1.013,1.013,0,0,1-.213-.171.138.138,0,0,0-.092-.05.085.085,0,0,0-.085.074,1.456,1.456,0,0,0-.02.312,2.841,2.841,0,0,0,.026.483.19.19,0,0,0,.046.1.346.346,0,0,0,.125.055c.141.043.212.116.212.221a.235.235,0,0,1-.069.168.334.334,0,0,1-.18.095,3.521,3.521,0,0,1-.663.047,2.076,2.076,0,0,1-.632-.073c-.128-.044-.193-.119-.193-.228a.269.269,0,0,1,.141-.218.376.376,0,0,0,.1-.081.266.266,0,0,0,.035-.1,5.621,5.621,0,0,0,.037-.792.365.365,0,0,0-.023-.151.17.17,0,0,0-.094-.074c-.111-.044-.167-.107-.167-.19a.234.234,0,0,1,.115-.194,1.39,1.39,0,0,1,.386-.161A2.3,2.3,0,0,1,530.934,124.788Z" transform="translate(-6.377 -8.717)"/><path class="cls-28" d="M533.875,125.39v.794a.366.366,0,0,0,.069.23.217.217,0,0,0,.178.089.547.547,0,0,0,.242-.084.135.135,0,0,1,.07-.021.131.131,0,0,1,.1.068.254.254,0,0,1,.046.148.371.371,0,0,1-.16.279,1.2,1.2,0,0,1-.807.285.853.853,0,0,1-.605-.213.732.732,0,0,1-.227-.56v-1.086a.108.108,0,0,0-.013-.067.116.116,0,0,0-.067-.012h-.242c-.046,0-.075-.008-.087-.023a.189.189,0,0,1-.019-.1v-.1a.116.116,0,0,1,.055-.1l1.075-.677a.209.209,0,0,1,.1-.021h.191a.1.1,0,0,1,.079.027.2.2,0,0,1,.02.107v.317a.132.132,0,0,0,.022.092.15.15,0,0,0,.1.021h.434a.148.148,0,0,1,.113.032.236.236,0,0,1,.026.135v.138a.282.282,0,0,1-.033.157.145.145,0,0,1-.12.043h-.425a.128.128,0,0,0-.09.024A.124.124,0,0,0,533.875,125.39Z" transform="translate(-6.377 -8.717)"/><path class="cls-8" d="M614.672,147.56a17.838,17.838,0,1,0-25.227-25.227l12.614,12.613Z" transform="translate(-6.377 -8.717)"/><path class="cls-9" d="M589.445,122.333a17.77,17.77,0,0,0,13.681,30.524,18.479,18.479,0,0,0,11.546-5.3l-12.613-12.614Z" transform="translate(-6.377 -8.717)"/><path class="cls-9" d="M589.445,122.333a17.77,17.77,0,0,0,13.681,30.524,18.479,18.479,0,0,0,11.546-5.3l-12.613-12.614Z" transform="translate(-6.377 -8.717)"/><path class="cls-7" d="M589.445,122.333a17.77,17.77,0,0,0,13.681,30.524l-1.067-17.911Z" transform="translate(-6.377 -8.717)"/><path class="cls-6" d="M589.445,122.333a17.158,17.158,0,0,0-4.579,17.414l17.193-4.8Z" transform="translate(-6.377 -8.717)"/><path class="cls-5" d="M598.853,117.322a17.351,17.351,0,0,0-9.408,5.011l12.614,12.613Z" transform="translate(-6.377 -8.717)"/><path class="cls-10" d="M614.623,147.511a17.583,17.583,0,0,0-.057-25.17,17.976,17.976,0,0,0-6.342-4.117L602.01,134.9Z" transform="translate(-6.377 -8.717)"/><path class="cls-3" d="M647.25,61.366A11.148,11.148,0,0,0,669.5,62.76l-11.127-.7Z" transform="translate(-6.377 -8.717)"/><path class="cls-4" d="M669.5,62.76A10.947,10.947,0,0,0,659.088,50.7a11.225,11.225,0,0,0-8.614,3.378,10.357,10.357,0,0,0-3.224,7.288l11.126.7Z" transform="translate(-6.377 -8.717)"/><path class="cls-5" d="M669.5,62.76A10.947,10.947,0,0,0,659.088,50.7a11.225,11.225,0,0,0-8.614,3.378l7.9,7.985Z" transform="translate(-6.377 -8.717)"/><path class="cls-6" d="M669.5,62.76a10.711,10.711,0,0,0-5.054-10.055l-6.073,9.358Z" transform="translate(-6.377 -8.717)"/><path class="cls-7" d="M667.222,68.527a9.778,9.778,0,0,0,2.288-5.892l-11.126-.7Z" transform="translate(-6.377 -8.717)"/><path class="cls-8" d="M648.086,131.6a11.148,11.148,0,0,0,21.241,6.776l-10.62-3.388Z" transform="translate(-6.377 -8.717)"/><path class="cls-9" d="M669.327,138.374a11.1,11.1,0,0,0-16.348-13.028,11.542,11.542,0,0,0-4.893,6.252l10.621,3.388Z" transform="translate(-6.377 -8.717)"/><path class="cls-9" d="M669.327,138.374a11.1,11.1,0,0,0-16.348-13.028,11.542,11.542,0,0,0-4.893,6.252l10.621,3.388Z" transform="translate(-6.377 -8.717)"/><path class="cls-7" d="M669.327,138.374a11.1,11.1,0,0,0-16.348-13.028l5.728,9.64Z" transform="translate(-6.377 -8.717)"/><path class="cls-6" d="M669.327,138.374a10.721,10.721,0,0,0-2.45-10.983l-8.17,7.595Z" transform="translate(-6.377 -8.717)"/><path class="cls-5" d="M665.539,143.854a10.847,10.847,0,0,0,3.788-5.48l-10.62-3.388Z" transform="translate(-6.377 -8.717)"/><path class="cls-10" d="M648.127,131.611a10.987,10.987,0,0,0,7.248,13.96,11.231,11.231,0,0,0,4.7.468L658.747,135Z" transform="translate(-6.377 -8.717)"/><rect class="cls-2" x="83.248" y="212.008" width="365.751" height="5.356"/><polygon class="cls-29" points="443.447 222.72 88.8 222.72 83.248 217.364 448.999 217.364 443.447 222.72"/><rect class="cls-30" x="121.554" y="222.536" width="13.324" height="26.343"/><rect class="cls-31" x="121.554" y="248.879" width="13.324" height="102.486"/><rect class="cls-30" x="395.148" y="222.536" width="13.324" height="26.413"/><rect class="cls-31" x="395.148" y="248.879" width="13.324" height="102.486"/><rect class="cls-30" x="264.535" y="120.37" width="13.324" height="261.129" transform="translate(13.885 513.414) rotate(-90)"/><path class="cls-18" d="M598.654,138.486c-3.074,3.074-11.289,4.086-15.732-.356s-5.551-10.537-2.477-13.611,9.168-1.965,13.61,2.478S601.729,135.412,598.654,138.486Z" transform="translate(-6.377 -8.717)"/><ellipse class="cls-18" cx="594.106" cy="130.968" rx="5.1" ry="6.981" transform="translate(75.023 449.739) rotate(-45)"/><line class="cls-32" x1="599.277" y1="133.404" x2="590.521" y2="127.209"/><path class="cls-33" d="M676.434,129.126s-31.316,18.2-41.58,18.81-30.885-7.181-30.885-7.181" transform="translate(-6.377 -8.717)"/><line class="cls-34" x1="576.123" y1="169.871" x2="505.123" y2="113.871"/><path class="cls-18" d="M600.8,176.453c0,4.348-5.093,10.872-11.376,10.872s-11.376-3.524-11.376-7.872,5.093-7.872,11.376-7.872S600.8,172.105,600.8,176.453Z" transform="translate(-6.377 -8.717)"/><ellipse class="cls-18" cx="585.887" cy="165.636" rx="6.981" ry="5.1"/><line class="cls-32" x1="600.525" y1="167.942" x2="591.368" y2="167.168"/><circle class="cls-7" cx="663.789" cy="198.559" r="18.123"/><line class="cls-35" x1="666.25" y1="318.871" x2="666.25" y2="343.871"/><rect class="cls-18" x="661.667" y="70.749" width="15" height="34.875" rx="7.5" ry="7.5"/><path class="cls-36" d="M685.77,113.367l-27.976,5.787v-3.127a12.811,12.811,0,0,1,12.811-12.811H685.77Z" transform="translate(-6.377 -8.717)"/><path class="cls-18" d="M683.044,46.654V84.9a12,12,0,0,1-12,12h-15a12,12,0,0,1-12-12V46.654Z" transform="translate(-6.377 -8.717)"/><path class="cls-21" d="M651.607,62.935a1.532,1.532,0,1,1-1.532-1.531A1.531,1.531,0,0,1,651.607,62.935Z" transform="translate(-6.377 -8.717)"/><path class="cls-7" d="M651.607,62.935a1.532,1.532,0,1,1-1.532-1.531A1.531,1.531,0,0,1,651.607,62.935Z" transform="translate(-6.377 -8.717)"/><path class="cls-18" d="M644.633,62.216l-5.576,8.239a3,3,0,0,0,2.6,4.511h2.978S644.664,63.107,644.633,62.216Z" transform="translate(-6.377 -8.717)"/><line class="cls-37" x1="665.25" y1="199.871" x2="665.25" y2="330.871"/><path class="cls-7" d="M660.663,340.654l-10.837,9.464a8.616,8.616,0,0,1-1.766,1.193l-2.961,1.5a12.613,12.613,0,0,1-5.709,1.367H635a5.773,5.773,0,0,0-5.773,5.772v.745h31.4l2.306-1.251a7.666,7.666,0,0,1,7.91.359l1.337.892h9.184v-4.74l0-13.419-3.646-.031a11.7,11.7,0,0,1-14.456.142Z" transform="translate(-6.377 -8.717)"/><path class="cls-7" d="M680.145,108.322h0a8.649,8.649,0,0,1,8.649,8.65v92.389H643.807v-64.7A36.338,36.338,0,0,1,680.145,108.322Z" transform="translate(-6.377 -8.717)"/><path class="cls-38" d="M643.759,163.2a6.445,6.445,0,0,0,.959-.663c4.569-5.218,16.946-26.078,23.712-38.068l13.322,7.687c-1.9,3.362-16.391,34.242-23.644,42.412-1.98,2.231-5.436,4.976-14.232,8.019Z" transform="translate(-6.377 -8.717)"/><path class="cls-33" d="M676.268,123.887s-18.064,32.012-24.891,39.7-45.218,13.3-45.218,13.3" transform="translate(-6.377 -8.717)"/><path class="cls-20" d="M683.044,80.588h-3.375a5.635,5.635,0,0,1-5.625-5.934V59.687a3.432,3.432,0,0,0-3.409-3.1h-1.591v7.066a6.212,6.212,0,0,1-6-6V55.687a6.07,6.07,0,0,0-6.408-6.1H644.044v-5h39Z" transform="translate(-6.377 -8.717)"/><path class="cls-39" d="M642.247,26.216h0v1.063a4.875,4.875,0,0,0,4.875,4.875h26.672a7.5,7.5,0,0,1,7.5,7.5h1.5a7.5,7.5,0,0,1,7.5,7.5h0V72.723a5.931,5.931,0,0,1-5.931,5.931h-4.569a6,6,0,0,1-6-6h0V60.687a3.033,3.033,0,0,0-3.034-3.033h-1.466v6h0a6,6,0,0,1-6-6h0V53.687a6.533,6.533,0,0,0-6.533-6.533H642.31A10.454,10.454,0,0,1,631.857,36.7v-.031a10.4,10.4,0,0,1,1.481-5.367s.291,3.977,5.831,4.727c-1.978-5.548.594-8.313,3.078-9.813Z" transform="translate(-6.377 -8.717)"/><ellipse class="cls-22" cx="646.29" cy="74.538" rx="4.5" ry="2.667"/><path class="cls-40" d="M448.141,63.355a4.055,4.055,0,0,1-1.082,3.03,4.156,4.156,0,0,1-3.043,1.063h-2.54V59.6h2.718a4.1,4.1,0,0,1,2.919.966A3.652,3.652,0,0,1,448.141,63.355Zm-2.2.076a2.494,2.494,0,0,0-.428-1.6,1.579,1.579,0,0,0-1.3-.521H443.6v4.4h.473a1.71,1.71,0,0,0,1.418-.562A2.706,2.706,0,0,0,445.94,63.431Z" transform="translate(-6.377 -8.717)"/><path class="cls-40" d="M454.265,67.448H449.6V59.6h4.662v1.7h-2.54v1.236h2.352v1.7h-2.352v1.483h2.54Z" transform="translate(-6.377 -8.717)"/><path class="cls-40" d="M455.7,67.448V59.6h2.122v6.139h3.023v1.713Z" transform="translate(-6.377 -8.717)"/><path class="cls-40" d="M468.389,59.6v4.726a3.173,3.173,0,0,1-.873,2.388,3.476,3.476,0,0,1-2.516.846,3.436,3.436,0,0,1-2.468-.822,3.112,3.112,0,0,1-.863-2.364V59.6H463.8V64.2a1.883,1.883,0,0,0,.313,1.208,1.342,1.342,0,0,0,1.86,0,2,2,0,0,0,.293-1.222V59.6Z" transform="translate(-6.377 -8.717)"/><path class="cls-40" d="M477.386,67.448h-2.454l-1.53-2.454-1.516,2.454h-2.4l2.605-4.017L469.642,59.6h2.352l1.418,2.427,1.365-2.427H477.2l-2.487,4Z" transform="translate(-6.377 -8.717)"/><path class="cls-40" d="M482.984,67.448h-4.662V59.6h4.662v1.7h-2.54v1.236H482.8v1.7h-2.351v1.483h2.54Z" transform="translate(-6.377 -8.717)"/><path class="cls-40" d="M446.976,133.948V126.1H449.1v6.139h3.024v1.713Z" transform="translate(-6.377 -8.717)"/><path class="cls-40" d="M453.654,133.948V126.1h2.132v7.852Z" transform="translate(-6.377 -8.717)"/><path class="cls-40" d="M460.692,129.35h3.389v4.233a9.322,9.322,0,0,1-3.036.473A3.667,3.667,0,0,1,458.24,133a4.215,4.215,0,0,1-.991-3,3.94,3.94,0,0,1,1.085-2.959,4.167,4.167,0,0,1,3.04-1.058,6.739,6.739,0,0,1,1.4.139,6,6,0,0,1,1.146.355l-.67,1.665a4.164,4.164,0,0,0-1.865-.419,1.773,1.773,0,0,0-1.436.6,2.612,2.612,0,0,0-.508,1.727,2.646,2.646,0,0,0,.459,1.678,1.591,1.591,0,0,0,1.324.578,3.867,3.867,0,0,0,.87-.091v-1.23h-1.4Z" transform="translate(-6.377 -8.717)"/><path class="cls-40" d="M472.465,133.948h-2.131v-3.2h-2.466v3.2h-2.132V126.1h2.132v2.911h2.466V126.1h2.131Z" transform="translate(-6.377 -8.717)"/><path class="cls-40" d="M477.9,133.948h-2.121V127.83h-1.918V126.1h5.951v1.734H477.9Z" transform="translate(-6.377 -8.717)"/><polygon class="cls-7" points="496.05 31.871 537.183 31.871 537.236 27.871 495.998 27.871 496.05 31.871"/><polygon class="cls-7" points="497.378 100.871 538.51 100.871 538.563 96.871 497.325 96.871 497.378 100.871"/><polyline class="cls-38" points="373.817 211.202 362.023 193.298 366.456 189.801 378.75 208.121"/><polyline class="cls-41" points="407.645 0 368.333 181.538 407.645 181.603"/><rect class="cls-38" x="342.776" y="216.668" width="5.75" height="3.48" rx="1.74" ry="1.74" transform="translate(-69.565 214.944) rotate(-33.024)"/><rect class="cls-38" x="379.693" y="216.585" width="5.75" height="3.48" rx="1.74" ry="1.74" transform="matrix(0.838, -0.545, 0.545, 0.838, -63.556, 235.05)"/><rect class="cls-42" x="329.722" y="194.653" width="49.5" height="15.25" rx="4.491" ry="4.491" transform="translate(-59.349 217.146) rotate(-33.024)"/><rect class="cls-40" x="374.9" y="184.199" width="4.002" height="7" transform="translate(-47.781 227.014) rotate(-33.024)"/><path class="cls-43" d="M276.792,171.838h54.614a2.665,2.665,0,0,1,2.665,2.665l-10,43.335H264.127l10-43.335A2.665,2.665,0,0,1,276.792,171.838Z" transform="translate(-6.377 -8.717)"/><polygon class="cls-42" points="269.714 165.088 325.73 165.088 315.73 207.987 259.714 207.987 269.714 165.088"/><g class="cls-44"><g class="cls-45"><polyline class="cls-27" points="284.958 171.754 277.837 171.754 277.081 176.338 278.415 176.338 278.663 174.991 282.78 174.991 282.532 176.338 284.025 176.338 284.958 171.754"/><polyline class="cls-27" points="281.353 183.887 281.325 183.893 281.334 183.893 281.353 183.887"/><polyline class="cls-27" points="283.925 176.83 282.811 182.3 283.925 176.83"/><path class="cls-3" d="M290.4,185.055h-1.493l-.994,5.393H283.8l.994-5.393h-1.343l-.984,6.015c-.146.887.255,1.54.9,1.54H287.7l.028-.006a1.767,1.767,0,0,0,1.449-1.534l.009-.052,1.115-5.471.1-.492" transform="translate(-6.377 -8.717)"/><path class="cls-7" d="M287.682,184.57l.045-.052.155-.026.033.058-.013.026-.012.065-.046.246.02.039.01.039-.1.077-.1.013-.025-.006,0-.02,0-.039-.01.007-.03.019-.1.039-.1-.058a.443.443,0,0,1,.006-.175l.015-.084,0-.019.013-.072-.019-.039-.014-.019-.007-.013.064-.058.164-.026.013.026-.056.3c-.012.065,0,.1.035.1l.019-.006.022-.026.03-.117.023-.123,0-.026-.015-.013-.011-.038m.529.006.011-.013.1-.071.056.032.009.046v.045l-.018.052-.036.052-.068.032-.033-.013-.028-.039-.015-.013-.022.02-.013.071-.012.116,0,.026.015.013.026.052-.016.039-.039.019-.117.013-.1-.019-.025-.052.036-.052.021-.019,0-.026a.983.983,0,0,0,.044-.188l.006-.032-.014-.02-.018-.045.026-.045.069-.039.111-.026.025.006,0,.059.014.019m-2.389.214a.415.415,0,0,1,.11-.214l.2-.091.113.059.053.1,0,.129a.324.324,0,0,1-.126.207l-.192.085-.136-.078a.241.241,0,0,1-.026-.194m.88-.272.1-.052.019-.006.015.013,0,.038-.027.052-.026.045-.013.02,0,.013,0,.019-.057.117-.081.058-.111.026-.025-.006h-.018l-.023.032,0,.026.042.013.045-.007.1-.013.076.02.017.051.006.065-.054.1-.115.1-.137.019-.135-.032-.035-.052-.007-.058.017-.039.031-.026.011-.013,0-.019-.021-.078.028-.058.053-.045.011-.013-.014-.02-.013-.123.022-.071.055-.058.152-.059.069.007.051.013m1.7.026.014-.026.214-.156.019-.006h.035l.008.006,0,.026-.013.072,0,.025h.089l.024.013-.006.033-.006.032-.015.033-.02.012h-.071l-.019.007,0,.019-.035.188,0,.058.023.02.048-.02.01-.006.023.019-.006.033-.038.064-.146.072-.1-.052-.019-.136.047-.253,0-.019h-.053l-.016-.006.005-.026,0-.026m-1.527-.149.026-.045.078-.039.12-.026.021.026-.052.233.01.045.021-.019.12-.078.1.052.016.058-.008.091-.037.2v.039l.012.033,0,.032-.143.058-.1-.058,0-.013.022-.026a.5.5,0,0,0,.047-.155l.01-.1-.043-.052-.041.026-.022.071-.019.1-.006.084.011.033,0,.025-.135.065c-.088,0-.138-.019-.13-.065l.014-.025.021-.02.042-.084.041-.22.03-.162,0-.026-.014-.019-.011-.039m-1.319-.033.027-.051.058-.026.091-.013.094.013.05.019.009.046-.014.025-.031.026-.033.039c0,.013-.014.071-.042.175l-.033.181-.018.052-.068.129-.082.059-.1.026-.085-.02-.071-.045-.033-.058v-.091l.043-.091.069-.038.056.032.012.078-.007.038,0,.013,0,.033.016.006.05-.032.035-.091.008-.045.025-.136.027-.149-.01-.039-.007-.013-.024-.013-.006-.013,0-.026m3.6-.653H285.04l-.248,1.346-.994,5.393h4.117l.994-5.393.248-1.346" transform="translate(-6.377 -8.717)"/><polyline class="cls-7" points="279.697 175.898 279.667 175.917 279.649 175.969 279.641 176.059 279.64 176.163 279.675 176.208 279.723 176.144 279.734 176.033 279.725 175.936 279.697 175.898"/><polyline class="cls-7" points="280.199 175.859 280.16 175.878 280.141 175.936 280.132 176.033 280.161 176.066 280.2 176.046 280.23 175.982 280.228 175.891 280.199 175.859"/><polyline class="cls-7" points="280.15 176.364 280.131 176.37 280.087 176.37 280.043 176.37 280.018 176.364 280.005 176.383 280.022 176.435 280.08 176.454 280.145 176.441 280.18 176.396 280.174 176.377 280.15 176.364"/><path class="cls-28" d="M285.732,184.272l-.091.013-.058.026-.027.051,0,.026.006.013.024.013.007.013.01.039-.027.149-.025.136-.008.045-.035.091-.05.032-.016-.006,0-.033,0-.013.007-.038-.012-.078-.056-.032-.069.038-.043.091v.091l.033.058.071.045.085.02.1-.026.082-.059.068-.129.018-.052.033-.181c.028-.1.039-.162.042-.175l.033-.039.031-.026.014-.025-.009-.046-.05-.019-.094-.013" transform="translate(-6.377 -8.717)"/><path class="cls-28" d="M286.026,184.686l.019-.052.03-.019.028.039.009.1-.012.11-.047.065-.036-.046v-.1l.008-.091m.108-.2-.2.091a.415.415,0,0,0-.11.214.241.241,0,0,0,.026.194l.136.078.192-.085a.324.324,0,0,0,.126-.207l0-.129-.053-.1-.113-.059" transform="translate(-6.377 -8.717)"/><path class="cls-28" d="M286.42,185.088h.089l.019-.007.024.013,0,.019-.035.046-.064.013-.058-.02-.017-.051.012-.02.025.007m.1-.434.02-.058.039-.02.029.032v.091l-.03.065-.039.019-.029-.032.009-.1m.3-.194-.019.006-.1.052-.051-.013-.069-.007-.152.059-.055.058-.022.071.013.123.014.02-.011.013-.053.045-.028.058.021.078,0,.019-.011.013-.031.026-.017.039.007.058.035.052.135.032.137-.019.115-.1.054-.1-.006-.065-.017-.051-.076-.02-.1.013-.045.007-.042-.013,0-.026.023-.032h.018l.025.006.111-.026.081-.058.057-.117,0-.019,0-.013.013-.02.026-.045.027-.052,0-.038-.015-.013" transform="translate(-6.377 -8.717)"/><path class="cls-28" d="M287.1,184.285l-.12.026-.078.039-.026.045.011.039.014.019,0,.026-.03.162-.041.22-.042.084-.021.02-.014.025c-.008.046.042.065.13.065l.135-.065,0-.025-.011-.033.006-.084.019-.1.022-.071.041-.026.043.052-.01.1a.5.5,0,0,1-.047.155l-.022.026,0,.013.1.058L287.3,185l0-.032-.012-.033v-.039l.037-.2.008-.091-.016-.058-.1-.052-.12.078-.021.019-.01-.045.052-.233-.021-.026" transform="translate(-6.377 -8.717)"/><path class="cls-28" d="M287.882,184.492l-.155.026-.045.052.011.038.015.013,0,.026-.023.123-.03.117-.022.026-.019.006c-.036,0-.047-.032-.035-.1l.056-.3-.013-.026-.164.026-.064.058.007.013.014.019.019.039-.013.072,0,.019-.015.084a.443.443,0,0,0-.006.175l.1.058.1-.039.03-.019.01-.007,0,.039,0,.02.025.006.1-.013.1-.077-.01-.039-.02-.039.046-.246.012-.065.013-.026-.033-.058" transform="translate(-6.377 -8.717)"/><path class="cls-28" d="M288.324,184.492l-.1.071-.011.013-.014-.019,0-.059-.025-.006-.111.026-.069.039-.026.045.018.045.014.02-.006.032a.983.983,0,0,1-.044.188l0,.026-.021.019-.036.052.025.052.1.019.117-.013.039-.019.016-.039-.026-.052-.015-.013,0-.026.012-.116.013-.071.022-.02.015.013.028.039.033.013.068-.032.036-.052.018-.052v-.045l-.009-.046-.056-.032" transform="translate(-6.377 -8.717)"/><polyline class="cls-28" points="282.307 175.639 282.272 175.639 282.253 175.645 282.039 175.8 282.025 175.826 282.02 175.852 282.015 175.878 282.032 175.885 282.076 175.885 282.085 175.885 282.081 175.904 282.035 176.157 282.054 176.292 282.15 176.344 282.296 176.273 282.334 176.208 282.34 176.176 282.318 176.157 282.308 176.163 282.26 176.182 282.237 176.163 282.239 176.105 282.273 175.917 282.277 175.898 282.296 175.891 282.366 175.891 282.387 175.878 282.401 175.846 282.407 175.813 282.413 175.781 282.389 175.768 282.318 175.768 282.301 175.768 282.306 175.742 282.319 175.671 282.315 175.645 282.307 175.639"/><path class="cls-3" d="M298.084,189.75c.038.037.077.074.117.109l-.117-.109m2.989-7.854c-1.572,0-3.432,1.9-3.863,4.234a4.14,4.14,0,0,0,.767,3.508l2.316-3.508.78-4.234" transform="translate(-6.377 -8.717)"/><path class="cls-3" d="M299.174,190.332a1.851,1.851,0,0,0,.339.032,1.851,1.851,0,0,1-.339-.032" transform="translate(-6.377 -8.717)"/><path class="cls-4" d="M301.073,181.9l-.78,4.234,2.646-3.185a1.969,1.969,0,0,0-1.866-1.049" transform="translate(-6.377 -8.717)"/><path class="cls-5" d="M302.939,182.945l-2.646,3.185,2.3,2.085a6.449,6.449,0,0,1-.844,1.126,6.048,6.048,0,0,0,1.67-3.211,4.492,4.492,0,0,0-.482-3.185" transform="translate(-6.377 -8.717)"/><path class="cls-5" d="M299.88,190.338a3.354,3.354,0,0,1-.367.026,2.411,2.411,0,0,0,.367-.026" transform="translate(-6.377 -8.717)"/><path class="cls-6" d="M300.293,186.13l-.78,4.234a3.354,3.354,0,0,0,.367-.026,3.055,3.055,0,0,0,1.871-1,6.449,6.449,0,0,0,.844-1.126l-2.3-2.085" transform="translate(-6.377 -8.717)"/><path class="cls-7" d="M300.293,186.13l-2.316,3.508h0a3.079,3.079,0,0,0,.224.22,1.712,1.712,0,0,0,.973.473,1.851,1.851,0,0,0,.339.032l.78-4.234" transform="translate(-6.377 -8.717)"/><polyline class="cls-9" points="282.106 188.477 274.985 188.477 274.269 192.795 275.771 192.795 276.02 191.442 280.137 191.442 279.888 192.795 281.222 192.795 280.059 198.521 282.106 188.477"/><path class="cls-8" d="M287.6,201.512h-1.334l-.993,5.393h-4.117l.993-5.393h-1.5l-1.009,6.151c-.145.88.231,1.67.876,1.67h4.338c.645,0,1.32-.79,1.5-1.67l.011-.059,1.237-6.092" transform="translate(-6.377 -8.717)"/><polyline class="cls-7" points="276.874 192.465 276.845 192.478 276.818 192.529 276.819 192.62 276.818 192.724 276.853 192.769 276.901 192.704 276.911 192.601 276.902 192.503 276.874 192.465"/><polyline class="cls-7" points="277.377 192.419 277.338 192.439 277.319 192.497 277.31 192.594 277.339 192.627 277.378 192.607 277.398 192.549 277.407 192.452 277.377 192.419"/><polyline class="cls-7" points="277.196 192.924 277.183 192.944 277.192 192.996 277.259 193.015 277.323 193.002 277.357 192.963 277.353 192.937 277.327 192.931 277.31 192.931 277.264 192.937 277.221 192.931 277.195 192.931 277.196 192.924"/><path class="cls-7" d="M283,201.357a.416.416,0,0,1,.111-.22l.2-.084.114.051.053.1v.136a.312.312,0,0,1-.125.2l-.192.084-.136-.077a.227.227,0,0,1-.027-.188m1.852-.227.054-.052.155-.025.032.064-.012.02-.013.071-.046.246.021.032.011.039-.1.078-.1.013h-.026l0-.026,0-.039-.01.007-.03.019-.1.039-.1-.058a.443.443,0,0,1,.006-.175l.014-.078,0-.026.013-.071-.019-.039-.015-.013-.006-.019.064-.059.164-.025.012.032-.055.3.035.1.019-.007.022-.026.031-.116.013-.123,0-.019-.014-.02-.02-.039m.537.013.012-.019.1-.071.056.032.009.045v.046l-.02.058-.035.045-.068.033-.033-.013-.028-.039-.015-.013-.021.019-.014.071-.021.117,0,.026.024.013.026.052-.016.038-.04.026-.116.007-.1-.013-.024-.058.036-.052.021-.02,0-.019a1.124,1.124,0,0,0,.043-.188l.007-.039-.014-.019-.018-.045.026-.046.069-.039.111-.025.024.013v.051l.013.026m-1.508-.065.1-.045.02-.013.014.02,0,.032-.027.052-.026.045-.021.02.006.012-.005.026-.055.11-.083.065-.11.02h-.026l-.017-.007-.023.032,0,.026.042.013.045-.006.1-.013.074.026.018.045.006.065-.055.11-.123.091-.129.025-.134-.038-.034-.052-.007-.058.016-.039.031-.026.011-.013,0-.02-.021-.077.028-.059.052-.038.011-.013-.013-.026-.022-.123.031-.071.055-.059.152-.058.069.013.051.006m1.7.026.012-.019.215-.162.019-.006h.036l.007.006,0,.026-.014.078,0,.019.017.007h.071l.016.006,0,.032-.006.033-.016.039-.019.006h-.071l-.018.007,0,.019-.035.188v.058l.022.019.048-.019.01-.006.014.019,0,.032-.039.072-.154.064-.087-.051-.021-.13.048-.259,0-.019h-.053l-.017-.007,0-.026,0-.026m-1.528-.149.026-.045.078-.039.12-.026.021.026-.051.233.009.046.021-.02.121-.077.1.051.016.059-.008.09-.038.207,0,.033.011.032,0,.033-.143.058-.105-.052,0-.019.023-.026a.554.554,0,0,0,.045-.149l.011-.11-.044-.046-.039.02-.022.071-.019.1-.007.084.012.032,0,.033-.134.058c-.088,0-.138-.02-.129-.065l.012-.019.022-.026.043-.084.04-.221.03-.161,0-.026-.014-.02-.011-.039m-1.319-.032.026-.045.059-.033.091-.013.095.013.048.026.01.039-.015.033-.03.019-.033.039c0,.013-.015.077-.041.175l-.034.181-.019.058-.067.123-.083.065-.1.019-.094-.019-.062-.045-.034-.059,0-.084.044-.1.068-.032.056.032.013.071-.007.039,0,.013,0,.032.016.007.05-.033.034-.084.009-.051.025-.136a.513.513,0,0,0,.019-.149l0-.033,0-.019-.026-.007-.014-.019,0-.026m3.781-.764H282.4l-.25,1.353-.993,5.393h4.117l.993-5.393.25-1.353" transform="translate(-6.377 -8.717)"/><path class="cls-28" d="M282.91,200.832l-.091.013-.059.033-.026.045,0,.026.014.019.026.007,0,.019,0,.033a.513.513,0,0,1-.019.149l-.025.136-.009.051-.034.084-.05.033-.016-.007,0-.032,0-.013.007-.039-.013-.071-.056-.032-.068.032-.044.1,0,.084.034.059.062.045.094.019.1-.019.083-.065.067-.123.019-.058.034-.181c.026-.1.038-.162.041-.175l.033-.039.03-.019.015-.033-.01-.039-.048-.026-.095-.013" transform="translate(-6.377 -8.717)"/><path class="cls-28" d="M283.2,201.247l.027-.052.029-.013.028.039.008.1-.01.1-.047.064-.036-.045,0-.1v-.09m.115-.194-.2.084a.416.416,0,0,0-.111.22.227.227,0,0,0,.027.188l.136.077.192-.084a.312.312,0,0,0,.125-.2V201.2l-.053-.1-.114-.051" transform="translate(-6.377 -8.717)"/><path class="cls-28" d="M283.561,201.661l.012-.019v.006h.027l.043.007.045-.007h.018l.025.007,0,.026-.034.038-.064.013-.067-.019-.008-.052m.135-.447.02-.058.039-.019.029.032-.009.1-.019.059-.039.019-.03-.032.009-.1m.3-.194-.02.013-.1.045-.051-.006-.069-.013-.152.058-.055.059-.031.071.022.123.013.026-.011.013-.052.038-.028.059.021.077,0,.02-.011.013-.031.026-.016.039.007.058.034.052.134.038.129-.025.123-.091.055-.11-.006-.065-.018-.045-.074-.026-.1.013-.045.006-.042-.013,0-.026.023-.032.017.007h.026l.11-.02.083-.065.055-.11.005-.026-.006-.012.021-.02.026-.045.027-.052,0-.032-.014-.02" transform="translate(-6.377 -8.717)"/><path class="cls-28" d="M284.277,200.845l-.12.026-.078.039-.026.045.011.039.014.02,0,.026-.03.161-.04.221-.043.084-.022.026-.012.019c-.009.045.041.065.129.065l.134-.058,0-.033-.012-.032.007-.084.019-.1.022-.071.039-.02.044.046-.011.11a.554.554,0,0,1-.045.149l-.023.026,0,.019.105.052.143-.058,0-.033-.011-.032,0-.033.038-.207.008-.09-.016-.059-.1-.051-.121.077-.021.02-.009-.046.051-.233-.021-.026" transform="translate(-6.377 -8.717)"/><path class="cls-28" d="M285.06,201.053l-.155.025-.054.052.02.039.014.02,0,.019-.013.123-.031.116-.022.026-.019.007-.035-.1.055-.3-.012-.032-.164.025-.064.059.006.019.015.013.019.039-.013.071,0,.026-.014.078a.443.443,0,0,0-.006.175l.1.058.1-.039.03-.019.01-.007,0,.039,0,.026h.026l.1-.013.1-.078-.011-.039-.021-.032.046-.246.013-.071.012-.02-.032-.064" transform="translate(-6.377 -8.717)"/><path class="cls-28" d="M285.5,201.053l-.1.071-.012.019-.013-.026v-.051l-.024-.013-.111.025-.069.039-.026.046.018.045.014.019-.007.039a1.124,1.124,0,0,1-.043.188l0,.019-.021.02-.036.052.024.058.1.013.116-.007.04-.026.016-.038-.026-.052-.024-.013,0-.026.021-.117.014-.071.021-.019.015.013.028.039.033.013.068-.033.035-.045.02-.058v-.046l-.009-.045-.056-.032" transform="translate(-6.377 -8.717)"/><polyline class="cls-28" points="279.485 192.199 279.45 192.199 279.431 192.206 279.216 192.368 279.203 192.387 279.198 192.413 279.194 192.439 279.21 192.445 279.254 192.445 279.263 192.445 279.26 192.465 279.212 192.724 279.232 192.853 279.32 192.905 279.473 192.84 279.513 192.769 279.51 192.737 279.496 192.717 279.486 192.724 279.438 192.743 279.415 192.724 279.417 192.665 279.452 192.478 279.455 192.458 279.474 192.452 279.545 192.452 279.564 192.445 279.579 192.406 279.585 192.374 279.583 192.342 279.566 192.335 279.495 192.335 279.479 192.329 279.483 192.309 279.497 192.232 279.493 192.206 279.485 192.199"/><path class="cls-8" d="M295.952,200.1c-.1.09-.207.188-.309.295.1-.1.205-.2.309-.295" transform="translate(-6.377 -8.717)"/><path class="cls-8" d="M297.982,199.215a2.4,2.4,0,0,0-.563.07l-.217,4.15,1.8-3.943a2.529,2.529,0,0,1,.914.984,4.591,4.591,0,0,1,.373,2.966,6.131,6.131,0,0,1-1.465,3.01l-1.623-2.985,1.63,3a5.6,5.6,0,0,0,1.1-6,2.2,2.2,0,0,0-1.948-1.255" transform="translate(-6.377 -8.717)"/><path class="cls-9" d="M297.2,203.467l-.6,4.254a3.691,3.691,0,0,0,2.229-1.256l-1.63-3" transform="translate(-6.377 -8.717)"/><path class="cls-7" d="M294.177,203.118a4.731,4.731,0,0,0,.249,3.392,2.186,2.186,0,0,0,1.959,1.22c.07,0,.141,0,.212-.009l.6-4.254-3.179,1.14a6.186,6.186,0,0,1,.084-1.115c.021-.125.046-.25.076-.374" transform="translate(-6.377 -8.717)"/><path class="cls-6" d="M295.575,200.47a6.493,6.493,0,0,0-.508.647l-.05.078a5.771,5.771,0,0,0-.693,1.411c-.034.091-.059.175-.083.259s-.04.169-.064.253c-.03.124-.055.249-.076.374a6.186,6.186,0,0,0-.084,1.115l3.179-1.14-1.621-3" transform="translate(-6.377 -8.717)"/><path class="cls-5" d="M297.411,199.279v.006a2.716,2.716,0,0,0-.366.117l-.221.1-.167.09a3.408,3.408,0,0,0-.321.208,1.569,1.569,0,0,0-.237.181l-.146.123c-.1.095-.208.19-.309.295-.023.024-.046.049-.068.074l1.621,3-.007-.013.013-.019.217-4.15-.008-.006" transform="translate(-6.377 -8.717)"/><path class="cls-10" d="M299,199.492l-1.8,3.943-.013.019.007.013,1.623,2.985a6.131,6.131,0,0,0,1.465-3.01,4.591,4.591,0,0,0-.373-2.966,2.529,2.529,0,0,0-.914-.984" transform="translate(-6.377 -8.717)"/><polyline class="cls-3" points="305.492 178.066 305.459 178.15 305.492 178.066"/><path class="cls-3" d="M308.225,185.994c-.31,1.347.243,2.713,1.285,2.81.036,0,.073,0,.109,0a2.362,2.362,0,0,0,1.746-1.112l-1.218-1.534-.026-.006-1.9-.162" transform="translate(-6.377 -8.717)"/><polyline class="cls-3" points="305.29 178.494 305.219 178.636 305.29 178.494"/><polyline class="cls-3" points="305.63 177.607 305.612 177.658 305.63 177.607"/><path class="cls-4" d="M309.1,184.265a3.522,3.522,0,0,0-.875,1.729l1.9.162-1.021-1.891" transform="translate(-6.377 -8.717)"/><path class="cls-5" d="M310.615,183.457a2.17,2.17,0,0,0-1.515.808l1.021,1.891.013-.02-.008-.006h.009l1.438-2.195a2.185,2.185,0,0,1,.539,1.58c.032-1.178-.518-1.981-1.38-2.052a1.131,1.131,0,0,0-.117-.006" transform="translate(-6.377 -8.717)"/><path class="cls-5" d="M312.049,186.114c-.01.059-.022.118-.036.178.014-.06.026-.119.036-.178" transform="translate(-6.377 -8.717)"/><polyline class="cls-6" points="303.756 177.419 303.744 177.438 303.769 177.445 303.756 177.419"/><path class="cls-6" d="M311.573,183.935l-1.438,2.195,1.878.162c.014-.06.026-.119.036-.178a3.112,3.112,0,0,0,.054-.5l.009-.1a2.185,2.185,0,0,0-.539-1.58" transform="translate(-6.377 -8.717)"/><path class="cls-7" d="M310.135,186.13h-.009l.008.006.013.026,1.219,1.535c.06-.085.12-.175.171-.259l.06-.085.07-.142a2.546,2.546,0,0,0,.17-.343l.033-.084c.04-.123.083-.259.119-.408l.018-.052,0-.013,0-.019-1.878-.162" transform="translate(-6.377 -8.717)"/><polyline class="cls-8" points="301.424 196.835 301.402 196.861 301.424 196.835"/><polyline class="cls-8" points="302.058 196.032 302.007 196.116 302.058 196.032"/><path class="cls-8" d="M305.294,202.671c-.592,1.437-.293,2.881.641,3.328a1.33,1.33,0,0,0,.573.127,1.952,1.952,0,0,0,1.271-.548l-.79-2.085-.252,2.609a1.428,1.428,0,0,1-.216.016,1.36,1.36,0,0,1-.576-.126,2.214,2.214,0,0,1-.886-2.519,4.034,4.034,0,0,1,.242-.8l-.007,0" transform="translate(-6.377 -8.717)"/><polyline class="cls-8" points="301.765 196.472 301.73 196.517 301.765 196.472"/><path class="cls-9" d="M306.415,201.189a3.5,3.5,0,0,0-1.121,1.482l.007,0v0l1.681.8-.568-2.285" transform="translate(-6.377 -8.717)"/><path class="cls-7" d="M308.871,203.636a3.809,3.809,0,0,1-.2.647,3.809,3.809,0,0,0,.2-.647" transform="translate(-6.377 -8.717)"/><path class="cls-7" d="M307.5,200.793a1.9,1.9,0,0,0-1.087.4l.568,2.285,1.745-1.8a2.51,2.51,0,0,1,.246,1.114,1.95,1.95,0,0,0-.928-1.871,1.217,1.217,0,0,0-.544-.124" transform="translate(-6.377 -8.717)"/><path class="cls-6" d="M308.728,201.674l-1.745,1.8,1.689.809a3.809,3.809,0,0,0,.2-.647c.024-.084.039-.169.055-.253.016-.136.031-.265.037-.4a1.341,1.341,0,0,0,.011-.2,2.51,2.51,0,0,0-.246-1.114" transform="translate(-6.377 -8.717)"/><path class="cls-5" d="M306.983,203.474l.008.006,0,.013.79,2.085v0l.023-.026a3.855,3.855,0,0,0,.306-.317l.035-.045c.082-.111.166-.234.242-.357l.051-.084a4.727,4.727,0,0,0,.236-.466l-1.689-.809" transform="translate(-6.377 -8.717)"/><path class="cls-10" d="M305.3,202.671v0a4.034,4.034,0,0,0-.242.8,2.214,2.214,0,0,0,.886,2.519,1.36,1.36,0,0,0,.576.126,1.428,1.428,0,0,0,.216-.016l.252-2.609,0-.013-.008-.006-1.681-.8" transform="translate(-6.377 -8.717)"/><path class="cls-3" d="M316.714,187.181a1.633,1.633,0,0,0,.086.27l.01-.007a1.6,1.6,0,0,1-.1-.263" transform="translate(-6.377 -8.717)"/><path class="cls-3" d="M318.525,184.091a1.527,1.527,0,0,0-1.055.492,2.938,2.938,0,0,0-.793,2.389,2.026,2.026,0,0,1,0-.544l1.437-.272.043-.046,1.361-1.34a1.084,1.084,0,0,0-1-.679" transform="translate(-6.377 -8.717)"/><path class="cls-4" d="M319.521,184.77l-1.361,1.34,1.49.02a1.836,1.836,0,0,0-.129-1.36" transform="translate(-6.377 -8.717)"/><path class="cls-5" d="M318.16,186.11l0,.033h.009l-.011.013L318.1,188.1l-.186.045a1.505,1.505,0,0,0,.961-.466,2.955,2.955,0,0,0,.78-1.547l-1.49-.02" transform="translate(-6.377 -8.717)"/><polyline class="cls-6" points="311.783 177.393 311.739 177.438 311.786 177.425 311.783 177.393"/><path class="cls-6" d="M318.161,186.156l-1.339,1.32c.248.539.51.7.821.7a1.261,1.261,0,0,0,.266-.032l.186-.045.066-1.942" transform="translate(-6.377 -8.717)"/><polyline class="cls-6" points="310.433 178.727 310.423 178.733 310.437 178.753 310.433 178.727"/><path class="cls-7" d="M318.172,186.143h-.009l-.046.013-1.437.272a2.026,2.026,0,0,0,0,.544l0,.019a1.674,1.674,0,0,0,.137.453l0,.026.007.013v-.007l1.339-1.32.011-.013" transform="translate(-6.377 -8.717)"/><path class="cls-8" d="M315.4,201.434a1.631,1.631,0,0,0-1.181.629l.812,1.391-.039-1.942a1.353,1.353,0,0,1,.359-.068h.05a1,1,0,0,1,.226.024c.7.158,1.072.992.88,1.995a2.969,2.969,0,0,1-.078.316h.009c.343-1.139-.029-2.143-.8-2.318a1.11,1.11,0,0,0-.237-.026" transform="translate(-6.377 -8.717)"/><path class="cls-8" d="M313.844,202.632a2.837,2.837,0,0,0-.21.518,2.974,2.974,0,0,1,.21-.518" transform="translate(-6.377 -8.717)"/><path class="cls-9" d="M315.033,203.467l.655,1.574a2.929,2.929,0,0,0,.745-1.263h-.009l-.611-.136-.78-.175" transform="translate(-6.377 -8.717)"/><path class="cls-7" d="M313.634,203.15c-.026.088-.046.173-.062.257.016-.084.037-.17.062-.257" transform="translate(-6.377 -8.717)"/><path class="cls-7" d="M315.033,203.467l-1.212,1.593a1.869,1.869,0,0,1-.3-.77,1.291,1.291,0,0,0,.908,1.21.941.941,0,0,0,.218.025,1.585,1.585,0,0,0,1.041-.484l-.655-1.574" transform="translate(-6.377 -8.717)"/><path class="cls-7" d="M313.514,203.849c0,.1,0,.2,0,.292,0-.1,0-.195,0-.292" transform="translate(-6.377 -8.717)"/><path class="cls-6" d="M313.634,203.15c-.025.087-.046.173-.062.257s-.03.167-.04.248a1.428,1.428,0,0,0-.018.194c0,.1,0,.2,0,.292l.008.149a1.869,1.869,0,0,0,.3.77l1.212-1.593h-.009v0l-1.39-.315" transform="translate(-6.377 -8.717)"/><path class="cls-5" d="M314.214,202.063a2.714,2.714,0,0,0-.29.42l-.08.149a2.974,2.974,0,0,0-.21.518l1.39.315,0-.011-.812-1.391" transform="translate(-6.377 -8.717)"/><path class="cls-10" d="M315.4,201.443h-.05a1.353,1.353,0,0,0-.359.068l.039,1.942,0,.013h.009l.78.175.611.136a2.969,2.969,0,0,0,.078-.316c.192-1-.18-1.837-.88-1.995a1,1,0,0,0-.226-.024" transform="translate(-6.377 -8.717)"/></g></g><path class="cls-43" d="M227.5,209.121h90.194a0,0,0,0,1,0,0v0a2.637,2.637,0,0,1-2.637,2.637h-84.92a2.637,2.637,0,0,1-2.637-2.637v0A0,0,0,0,1,227.5,209.121Z"/><path class="cls-46" d="M276.792,171.838h33.836l-36.8,46h-9.7l10-43.335A2.665,2.665,0,0,1,276.792,171.838Z" transform="translate(-6.377 -8.717)"/><rect class="cls-47" x="407.448" width="322.605" height="181.603"/><path class="cls-48" d="M264.25,140.353h0a17.4,17.4,0,0,0-13.21,16.765L251,162.669a36.636,36.636,0,0,1,8.229,13.53c6.556,19.387,5.161,72.389,5.161,72.389H199.671l-.419-78.945c2.511-12.274,13.3-20.792,16.658-23.517a28.935,28.935,0,0,0,10.541-22.511h0" transform="translate(-6.377 -8.717)"/><circle class="cls-48" cx="239.94" cy="116.046" r="20.425"/><path class="cls-49" d="M229.938,126.335a8.3,8.3,0,0,0,8.3,8.3c4.583,0,4.3-3.715,4.3-8.3s.284-8.3-4.3-8.3A8.3,8.3,0,0,0,229.938,126.335Z" transform="translate(-6.377 -8.717)"/><path class="cls-49" d="M265.226,116.463c0,4.121-4.178,17.188-5.911,17.188s-.813-15-.813-19.125,1.852-7.648,3.586-7.648S265.226,112.342,265.226,116.463Z" transform="translate(-6.377 -8.717)"/><path class="cls-49" d="M264.947,116.362h5.579a3.348,3.348,0,0,1,3.348,3.348h0a7.811,7.811,0,0,1,7.81,7.811v1.115h0a2.116,2.116,0,0,1,2.116,2.116v2.478a7.681,7.681,0,0,1-7.681,7.681H263.457a5.205,5.205,0,0,1-5.2-5.205v-5.584a16.644,16.644,0,0,1,4.413-11.288Z" transform="translate(-6.377 -8.717)"/><path class="cls-48" d="M273.037,157.788l2.988,5.912a8.063,8.063,0,0,1-.784,7.3l-13.084,19.983.977,31.661.837,8.927,25.56-58.29a20.466,20.466,0,0,0-4.081-20.237l-.976-1.116Z" transform="translate(-6.377 -8.717)"/><ellipse class="cls-49" cx="261.22" cy="136.517" rx="11.158" ry="4.742"/><ellipse class="cls-49" cx="278.138" cy="153.03" rx="6.885" ry="11.171" transform="translate(-44.473 116.465) rotate(-23.787)"/><ellipse class="cls-49" cx="261.669" cy="150.953" rx="4.533" ry="7.392" transform="translate(-43.536 97.968) rotate(-21.554)"/><circle class="cls-50" cx="239.083" cy="229.538" r="31.5"/><circle class="cls-49" cx="220.833" cy="236.788" r="25.25"/><path class="cls-50" d="M261.183,115.013a1.188,1.188,0,1,0,1.188-1.188A1.188,1.188,0,0,0,261.183,115.013Z" transform="translate(-6.377 -8.717)"/><path class="cls-48" d="M233.127,217.713l32.834-25.125h15.872a12.532,12.532,0,0,1,12.2,15.381l-12.744,54.619-14.667.25-2.921-14.93c-2.019-10.323-3.394-21.239-.181-31.255l.769-2.4L249,230.213Z" transform="translate(-6.377 -8.717)"/><path class="cls-50" d="M284.877,250.237l10.837,9.464a8.616,8.616,0,0,0,1.766,1.193l2.962,1.5a12.6,12.6,0,0,0,5.708,1.367h4.392a5.773,5.773,0,0,1,5.773,5.773v.744h-31.4l-2.306-1.251a7.667,7.667,0,0,0-7.909.359l-1.338.892h-9.183v-4.74l0-13.419,3.645-.031a11.7,11.7,0,0,0,14.456.143Z" transform="translate(-6.377 -8.717)"/><path class="cls-41" d="M216.877,143.7l4.909-7.234,29.965,16.249a7.131,7.131,0,0,1,2.617,10.1l-1.319,2.073Z" transform="translate(-6.377 -8.717)"/><polygon class="cls-50" points="236.125 199.496 232.25 176.746 231.375 199.871 236.125 199.496"/><path class="cls-2" d="M226.307,244.845l-1-1.822c-.911-1.913-2.114-2.653-4.556-2.653H196.788a4.453,4.453,0,0,0-4.441,4.441v.817h28.4l2.318,5.3,2.425-1.021C226.327,249.483,227.6,247.283,226.307,244.845Z" transform="translate(-6.377 -8.717)"/><rect class="cls-31" x="203.029" y="235.158" width="7.252" height="28.193" transform="translate(449.532 33.882) rotate(90)"/><polygon class="cls-31" points="228.012 274.955 219.685 274.955 208.079 240.537 214.36 236.911 228.012 274.955"/><rect class="cls-51" x="191.287" y="195.012" width="52.185" height="55.192" rx="4.441" ry="4.441"/><rect class="cls-2" x="191.287" y="195.012" width="46.633" height="55.192" rx="4.441" ry="4.441"/><rect class="cls-51" x="191.521" y="261.076" width="93.865" height="13.879" rx="4.441" ry="4.441"/><rect class="cls-2" x="191.521" y="261.076" width="49.708" height="13.879" rx="4.441" ry="4.441"/><rect class="cls-30" x="229.016" y="274.955" width="6.662" height="14.989"/><rect class="cls-51" x="225.997" y="289.944" width="12.7" height="41.422"/><rect class="cls-31" x="225.997" y="326.955" width="12.7" height="4.411"/><polygon class="cls-31" points="231.236 334.357 194.596 338.243 194.596 333.032 231.236 329.146 231.236 334.357"/><rect class="cls-31" x="194.596" y="333.032" width="5.241" height="10.763"/><circle class="cls-30" cx="197.017" cy="346.371" r="5.196"/><polygon class="cls-31" points="231.236 334.357 267.877 338.243 267.877 333.032 231.236 329.146 231.236 334.357"/><rect class="cls-31" x="269.013" y="341.749" width="5.241" height="10.763" transform="translate(536.89 685.544) rotate(-180)"/><circle class="cls-30" cx="265.456" cy="346.371" r="5.196"/><polygon class="cls-31" points="232.347 333.972 250.39 338.243 250.39 333.032 232.347 328.76 232.347 333.972"/><rect class="cls-31" x="251.526" y="341.749" width="5.241" height="10.763" transform="translate(501.915 685.544) rotate(-180)"/><circle class="cls-30" cx="247.969" cy="346.371" r="5.196"/><polygon class="cls-31" points="232.347 333.972 214.304 338.243 214.304 333.032 232.347 328.76 232.347 333.972"/><rect class="cls-31" x="214.304" y="333.032" width="5.241" height="10.763"/><circle class="cls-30" cx="216.725" cy="346.371" r="5.196"/><path class="cls-2" d="M266.093,244.845l-1-1.822c-.912-1.913-2.114-2.653-4.557-2.653H236.574a4.454,4.454,0,0,0-4.441,4.441v.817h28.405l2.318,5.3,2.425-1.021C266.114,249.483,267.389,247.283,266.093,244.845Z" transform="translate(-6.377 -8.717)"/><rect class="cls-31" x="224.011" y="216.353" width="7.252" height="65.802" transform="translate(470.514 12.9) rotate(90)"/><polygon class="cls-31" points="267.799 274.955 259.471 274.955 247.865 240.537 254.146 236.911 267.799 274.955"/><path class="cls-38" d="M653.532,214.463H686.8a17.979,17.979,0,0,0,1.359-5.1H652.173A18.012,18.012,0,0,0,653.532,214.463Z" transform="translate(-6.377 -8.717)"/></svg>