<svg id="Layer_1" data-name="Layer 1" xmlns="http://www.w3.org/2000/svg" viewBox="0 0 699.548 469.987"><defs><style>.cls-1,.cls-17,.cls-19,.cls-2,.cls-22,.cls-33,.cls-34,.cls-40,.cls-41,.cls-42,.cls-45,.cls-46,.cls-47,.cls-50,.cls-6,.cls-8{fill:none;stroke-miterlimit:10;}.cls-1{stroke:#48404d;stroke-width:11.184px;}.cls-2{stroke:#536070;stroke-width:14.379px;}.cls-3{fill:#536070;}.cls-4{fill:#414b58;}.cls-5{fill:#dbc8b5;}.cls-19,.cls-33,.cls-40,.cls-6{stroke:#fff;}.cls-6{stroke-width:14.158px;}.cls-7{fill:#b6bcc4;}.cls-8{stroke:#e5e9f0;stroke-width:11.982px;}.cls-9{fill:#fff;}.cls-10{fill:#e5e9f0;}.cls-11{fill:#7b838f;}.cls-12{fill:#ad9f8e;}.cls-13{fill:#d8bcb2;}.cls-14{fill:#ac958d;}.cls-15{fill:#5d5263;}.cls-16{fill:#e2f2f0;}.cls-17{stroke:#d4d4d4;stroke-width:13.58px;}.cls-18{fill:#e9e9e9;}.cls-19{stroke-width:15.666px;}.cls-20{fill:#d4d4d4;}.cls-21{fill:#4b4b4b;}.cls-22{stroke:#4b4b4b;stroke-linecap:round;stroke-width:1.573px;}.cls-23{fill:#f6f8f8;}.cls-24{fill:#3f3f3f;}.cls-25{fill:#e5e8e9;}.cls-26{fill:#616161;}.cls-27{fill:#f3f3f3;}.cls-28{fill:#bababa;}.cls-29{fill:#4d4d4d;}.cls-30{fill:#bfb8b7;}.cls-31{fill:#606060;}.cls-32{fill:#7f5870;}.cls-33,.cls-34,.cls-46,.cls-47{stroke-width:9.383px;}.cls-34{stroke:#a7a7a7;}.cls-35{fill:#f99361;}.cls-36{fill:#48404d;}.cls-37{fill:#cacaca;}.cls-38{fill:#fffdff;}.cls-39{fill:#c2c2c2;}.cls-40,.cls-50{stroke-width:4.033px;}.cls-41,.cls-45{stroke:#c49d80;}.cls-41,.cls-42{stroke-width:9px;}.cls-42{stroke:#9a7d65;}.cls-43{fill:#c49d80;}.cls-44{fill:#9a7d65;}.cls-45{stroke-width:4px;}.cls-46,.cls-50{stroke:#797979;}.cls-47{stroke:#606060;}.cls-48{fill:#faa984;}.cls-49{fill:#797979;}</style></defs><title>5_illu</title><path class="cls-1" d="M174.625,438.75c7,12.625,3.522,20.25,3.522,20.25" transform="translate(-12.364 -21.813)"/><line class="cls-1" x1="211.79" y1="430.55" x2="200.037" y2="438.153"/><path class="cls-2" d="M214,374.4s-36.834,7.63-42.811,28.358c-6.679,23.166,6.065,42.737,6.065,42.737" transform="translate(-12.364 -21.813)"/><path class="cls-2" d="M239.241,370.407s19.784,25.949,13.853,47.929-32.725,35.993-32.725,35.993" transform="translate(-12.364 -21.813)"/><path class="cls-3" d="M251.829,365.664c0,8.051-9.689,13.53-26.463,15.376-15.4,1.695-29.658-1.734-29.658-9.784" transform="translate(-12.364 -21.813)"/><path class="cls-4" d="M251.829,364.664l-6.661,1.664c-.11-.148-.185-.247-.21-.28l-.454.346-31.45,3.134-.424-2.184a95.829,95.829,0,0,0-12.239,3.446l-4.683.466a6.407,6.407,0,0,0,.129,1.25c-1.133.459-10.587,4.723-13.134,6.557l67.384-7.91C252.062,369.031,251.829,365.938,251.829,364.664Z" transform="translate(-12.364 -21.813)"/><path class="cls-5" d="M522.255,259.131c3.312.853,7-2.335,8.228-7.121.691-2.683-2.669-.462-3.585-2.392-.717-1.514,1.283-7.47-.179-7.818-3.327-.791-7,2.335-8.228,7.121S518.943,258.278,522.255,259.131Z" transform="translate(-12.364 -21.813)"/><path class="cls-6" d="M477.63,294.174s23.022,14.143,34.523-8.239a149.6,149.6,0,0,0,11.736-31.1" transform="translate(-12.364 -21.813)"/><path class="cls-3" d="M170.238,448.308l-7.741,8.5a6.876,6.876,0,0,1-1.294,1.107l-2.214,1.463a10.063,10.063,0,0,1-4.406,1.6l-3.486.4a4.611,4.611,0,0,0-4.057,5.106l.068.59,14.224-1.627,10.7-1.224,1.716-1.2a6.123,6.123,0,0,1,6.31-.433l1.143.586,7.288-.834-.43-3.761-1.22-10.65-2.9.306a9.349,9.349,0,0,1-11.46,1.426Z" transform="translate(-12.364 -21.813)"/><path class="cls-3" d="M222.4,462.635l1.089,11.442a6.851,6.851,0,0,0,.37,1.661l.892,2.5a10.058,10.058,0,0,0,2.561,3.927l2.547,2.412a4.612,4.612,0,0,1,.179,6.52l-.409.431-10.4-9.842-7.819-7.4-.65-1.992a6.125,6.125,0,0,0-4.786-4.136l-1.266-.217-5.327-5.043,2.6-2.75,7.371-7.783,2.131,1.984a9.349,9.349,0,0,0,8.308,8.021Z" transform="translate(-12.364 -21.813)"/><ellipse class="cls-7" cx="149.289" cy="244.121" rx="4.926" ry="3.528" transform="translate(-141.544 288.166) rotate(-71.859)"/><rect class="cls-7" x="143.653" y="246.625" width="1.198" height="24.885" transform="translate(75.47 -53.85) rotate(18.141)"/><ellipse class="cls-5" cx="140.65" cy="268.775" rx="6.288" ry="9.087" transform="translate(-125.96 81.489) rotate(-29.319)"/><ellipse class="cls-5" cx="145.315" cy="268.761" rx="4.074" ry="5.576" transform="translate(-125.356 83.772) rotate(-29.319)"/><line class="cls-8" x1="140.103" y1="260.902" x2="133.37" y2="252.375"/><rect class="cls-3" x="213.452" y="233.705" width="13.156" height="29.556" rx="4.793" ry="4.793" transform="translate(472.975 426.088) rotate(168.455)"/><path class="cls-5" d="M194.054,243.5l6.116,29.937a9.586,9.586,0,0,0,11.31,7.474h0l11.74-2.4a9.585,9.585,0,0,0,7.473-11.31l-6.115-29.937Z" transform="translate(-12.364 -21.813)"/><path class="cls-5" d="M216.485,298.132h0a6.009,6.009,0,0,0,5.3-6.612l-2-15.877a6.008,6.008,0,0,0-7.069-4.671h0a6.009,6.009,0,0,0-4.671,7.069l1.832,14.792A6.009,6.009,0,0,0,216.485,298.132Z" transform="translate(-12.364 -21.813)"/><path class="cls-5" d="M208.568,253.831l5.055,5.684a2.4,2.4,0,0,1-1.313,3.947l-1.849.377S208.28,254.266,208.568,253.831Z" transform="translate(-12.364 -21.813)"/><rect class="cls-3" x="199.551" y="250.776" width="27.614" height="1.257" transform="translate(460.351 433.208) rotate(168.455)"/><path class="cls-3" d="M220.135,251.612l.837,1.513a2.821,2.821,0,0,0,2.9,1.724h0a7.572,7.572,0,0,0,3.356-.71l.159-.074c1.125-.251,1.909-1.492,1.949-3.087l.039-1.563c.039-1.562-.94-3.01-2.087-3.086l-2.689-.212a3.618,3.618,0,0,0-1.929.442l-2.028,1.207C219.61,248.381,219.367,250.222,220.135,251.612Z" transform="translate(-12.364 -21.813)"/><path class="cls-9" d="M221.093,251.363l.661,1.195a2.232,2.232,0,0,0,2.293,1.363h0a5.986,5.986,0,0,0,2.652-.562l.126-.058a2.366,2.366,0,0,0,1.539-2.439l.031-1.236c.031-1.234-.742-2.378-1.649-2.438l-2.125-.168a2.858,2.858,0,0,0-1.524.35l-1.6.954C220.678,248.809,220.486,250.264,221.093,251.363Z" transform="translate(-12.364 -21.813)"/><path class="cls-3" d="M206.5,254.4l1,1.48a3.551,3.551,0,0,0,3.684,1.564h0a13.119,13.119,0,0,0,4.433-.93l.213-.085a3.6,3.6,0,0,0,2.742-3.249l.149-1.586a2.68,2.68,0,0,0-2.535-2.994l-3.5-.046a6.248,6.248,0,0,0-2.55.569l-2.727,1.35A2.706,2.706,0,0,0,206.5,254.4Z" transform="translate(-12.364 -21.813)"/><path class="cls-9" d="M207.769,254.084l.789,1.17a2.809,2.809,0,0,0,2.912,1.236h0a10.4,10.4,0,0,0,3.5-.735l.168-.067a2.843,2.843,0,0,0,2.167-2.568l.118-1.253a2.118,2.118,0,0,0-2-2.366l-2.768-.036a4.919,4.919,0,0,0-2.015.45l-2.155,1.066A2.138,2.138,0,0,0,207.769,254.084Z" transform="translate(-12.364 -21.813)"/><path class="cls-2" d="M189.312,305.049s-11.224,18.227-27.23,7.3c-8.84-6.034-12.374-33.107-12.374-33.107" transform="translate(-12.364 -21.813)"/><path class="cls-5" d="M279.673,268.239c3.443.456,2.774-2.409,3.434-7.384s-1.6-9.379-5.041-9.835-6.768,3.208-7.427,8.183S276.23,267.783,279.673,268.239Z" transform="translate(-12.364 -21.813)"/><polygon class="cls-10" points="197.071 273.427 210.444 271.952 203.484 268.051 197.071 273.427"/><polygon class="cls-10" points="197.071 273.427 209.688 312.219 210.444 271.952 197.071 273.427"/><polygon class="cls-11" points="212.408 336.885 215.674 331.172 205.527 272.673 208.286 270.02 203.446 267.706 198.715 270.969 202.037 273.133 208.004 332.013 212.408 336.885"/><polygon class="cls-10" points="196.687 265.385 191.626 268.685 197.033 273.082 203.446 267.706 196.687 265.385"/><polygon class="cls-10" points="209.067 264.019 213.971 267.251 210.406 271.607 203.446 267.706 209.067 264.019"/><path class="cls-3" d="M186.475,297.768,203.99,290.5l5.407,4.4,12.617,38.792.756-40.267,3.564-4.356,18.407,4.7a6.435,6.435,0,0,1,5.235,5.624s4.3,21.439,5.183,32.506a224.33,224.33,0,0,1-.312,33.344l-62.315,7.137s1.614-17.357-.109-29.131c-1.636-11.184-9.806-38.86-9.806-38.86A6.438,6.438,0,0,1,186.475,297.768Z" transform="translate(-12.364 -21.813)"/><path class="cls-12" d="M215.576,229.519l3.522-.719-18.527,3.784a5.991,5.991,0,0,0-4.671,7.069h0a5.992,5.992,0,0,0-4.671,7.069h0l3.288,16.1c.524,2.564,1.73,4.482,4.294,3.959h0l-2.376-12.533a2.423,2.423,0,0,1,1.889-2.859l-.026,0,.959,4.7h0a4.793,4.793,0,0,0,3.737-5.655h0l-.155-.757a5.218,5.218,0,0,1,4.069-6.157l10.149-2.074,3.522-.719,1.161-.237a8.33,8.33,0,0,0,3.212-1.405s-1.03-4.037-1.733-8.48C223.219,230.605,217.683,229.089,215.576,229.519Z" transform="translate(-12.364 -21.813)"/><path class="cls-3" d="M218.122,222.527h0l.17.832a3.9,3.9,0,0,1-3.036,4.595l3.522-.72-18.527,3.785a5.991,5.991,0,0,0-4.671,7.069h0a5.991,5.991,0,0,0-4.671,7.069h0L195,265.169c.524,2.564,1.73,4.482,4.293,3.958h0l-2.695-14.1a2.424,2.424,0,0,1,1.889-2.86l-.026.006.959,4.7h0a4.794,4.794,0,0,0,3.737-5.655h0l-.635-3.105a5.22,5.22,0,0,1,4.069-6.158l10.149-2.073,3.522-.719,1.161-.238a8.349,8.349,0,0,0,6.51-9.852l0-.024a8.351,8.351,0,0,0-9.8-6.521Z" transform="translate(-12.364 -21.813)"/><path class="cls-13" d="M277.786,262.339l-13.069-1.674a3.743,3.743,0,0,1-3.106-4.093l2.3-22.837,21.456,2.748-3.544,22.677A3.743,3.743,0,0,1,277.786,262.339Z" transform="translate(-12.364 -21.813)"/><path class="cls-14" d="M262.9,243.641l-1.258,12.67c-.306,2.424,1,4.089,2.936,4.337l13.364,1.712a3.679,3.679,0,0,0,3.913-3.46l1.975-12.578Z" transform="translate(-12.364 -21.813)"/><rect class="cls-15" x="266.606" y="241.705" width="12.438" height="15.141" transform="translate(21.515 -54.453) rotate(7.299)"/><path class="cls-16" d="M269.572,242.8a1.688,1.688,0,0,1,.275.059.468.468,0,0,1,.16.075.117.117,0,0,1,.013.158.325.325,0,0,1-.087.043.132.132,0,0,0-.092.075,3.752,3.752,0,0,0-.069.383c-.03.214-.049.343-.057.386a.7.7,0,0,1-.031.124.5.5,0,0,1-.179.262.633.633,0,0,1-.243.1.888.888,0,0,1-.3.009,1.04,1.04,0,0,1-.268-.07.841.841,0,0,1-.224-.127.392.392,0,0,1-.114-.156.373.373,0,0,1-.025-.192.286.286,0,0,1,.1-.193.257.257,0,0,1,.2-.056.309.309,0,0,1,.186.092.22.22,0,0,1,.057.18.358.358,0,0,1-.027.083l-.005.027a.08.08,0,0,0,.02.067.116.116,0,0,0,.071.034.152.152,0,0,0,.141-.057.324.324,0,0,0,.076-.186l.013-.112.036-.3c.016-.183.024-.29.024-.324a.174.174,0,0,0-.017-.082.121.121,0,0,0-.029-.037.611.611,0,0,0-.073-.033.075.075,0,0,1-.046-.039.1.1,0,0,1-.012-.064.127.127,0,0,1,.065-.1.432.432,0,0,1,.178-.042A1.321,1.321,0,0,1,269.572,242.8Z" transform="translate(-12.364 -21.813)"/><path class="cls-16" d="M270.826,243.446a.683.683,0,0,1,.377.167.656.656,0,0,1,.168.24.618.618,0,0,1,.038.3.556.556,0,0,1-.3.419.851.851,0,0,1-.554.109.669.669,0,0,1-.451-.227.543.543,0,0,1-.123-.443.6.6,0,0,1,.276-.445A.821.821,0,0,1,270.826,243.446Zm-.135.27a.1.1,0,0,0-.09.028.17.17,0,0,0-.046.1.991.991,0,0,0,0,.2,1.342,1.342,0,0,0,.037.232.13.13,0,0,0,.111.116c.072.01.114-.033.126-.125a1.22,1.22,0,0,0,0-.236.944.944,0,0,0-.04-.221A.131.131,0,0,0,270.691,243.716Z" transform="translate(-12.364 -21.813)"/><path class="cls-16" d="M272.884,243.643a.07.07,0,0,1,.05.042.152.152,0,0,1,.013.085.273.273,0,0,1-.046.11.356.356,0,0,1-.089.092c-.02.014-.031.024-.033.034l0,.031a.24.24,0,0,1,0,.047.327.327,0,0,1-.129.231.582.582,0,0,1-.244.109,1,1,0,0,1-.311.01.691.691,0,0,1-.079-.016.242.242,0,0,0-.048-.01.057.057,0,0,0-.073.057.075.075,0,0,0,.034.07.227.227,0,0,0,.111.039,1.351,1.351,0,0,0,.145,0,2.394,2.394,0,0,1,.3.009.449.449,0,0,1,.218.077.28.28,0,0,1,.088.115.31.31,0,0,1,.019.148.394.394,0,0,1-.122.227.616.616,0,0,1-.342.161,1.206,1.206,0,0,1-.386,0,1,1,0,0,1-.429-.139.351.351,0,0,1-.112-.119.223.223,0,0,1-.029-.138.163.163,0,0,1,.037-.085.139.139,0,0,1,.075-.048c.024-.007.039-.016.04-.027s-.008-.024-.025-.043a.23.23,0,0,1-.077-.182.2.2,0,0,1,.063-.115.322.322,0,0,1,.129-.083c.021-.006.033-.015.034-.025s-.009-.03-.031-.056a.362.362,0,0,1-.091-.287.292.292,0,0,1,.065-.151.378.378,0,0,1,.14-.111.78.78,0,0,1,.452-.073,1.052,1.052,0,0,1,.21.052.855.855,0,0,0,.151.04.426.426,0,0,0,.279-.07A.1.1,0,0,1,272.884,243.643Zm-1.105,1.248c-.021,0-.033.007-.036.031a.134.134,0,0,0,.064.127.421.421,0,0,0,.2.07.446.446,0,0,0,.191-.008.1.1,0,0,0,.079-.081.061.061,0,0,0-.019-.054.1.1,0,0,0-.06-.031l-.057,0a.947.947,0,0,1-.155-.008c-.041,0-.081-.013-.119-.021a.408.408,0,0,1-.068-.02Zm.409-1.08a.124.124,0,0,0-.1.035.2.2,0,0,0-.053.119.474.474,0,0,0,.014.216q.03.085.1.093a.122.122,0,0,0,.109-.036.217.217,0,0,0,.056-.128.421.421,0,0,0-.015-.208A.13.13,0,0,0,272.188,243.811Z" transform="translate(-12.364 -21.813)"/><path class="cls-16" d="M273.752,243.424l-.08.511c-.01.06,0,.094.044.1a.079.079,0,0,0,.063-.034.37.37,0,0,1,.338-.131.413.413,0,0,1,.294.158.31.31,0,0,1,.058.134.83.83,0,0,1,0,.21l-.045.441a.194.194,0,0,0,0,.087.263.263,0,0,0,.057.077.079.079,0,0,1,.027.072c-.011.088-.15.114-.415.08-.237-.03-.349-.086-.339-.168a.066.066,0,0,1,.01-.031c.006-.008.022-.026.05-.055a.652.652,0,0,0,.1-.329.689.689,0,0,0,0-.24.144.144,0,0,0-.132-.12.121.121,0,0,0-.116.04.289.289,0,0,0-.044.142l-.031.235q-.01.159-.009.18a.316.316,0,0,0,.047.085.085.085,0,0,1,.016.064c-.012.091-.137.122-.377.09-.281-.035-.415-.1-.4-.2a.092.092,0,0,1,.02-.05.344.344,0,0,1,.074-.045c.033-.018.062-.075.086-.17a4.267,4.267,0,0,0,.08-.477,2.921,2.921,0,0,0,.032-.366.135.135,0,0,0-.011-.058.15.15,0,0,0-.042-.042c-.049-.033-.071-.066-.066-.1a.11.11,0,0,1,.071-.091.836.836,0,0,1,.23-.055,1.458,1.458,0,0,1,.359-.016C273.741,243.361,273.76,243.385,273.752,243.424Z" transform="translate(-12.364 -21.813)"/><path class="cls-16" d="M275.383,244.1l-.085.663q-.027.212.114.231a.152.152,0,0,0,.072-.012.125.125,0,0,0,.054-.043.8.8,0,0,0,.06-.258,2.015,2.015,0,0,0,.023-.276.128.128,0,0,0-.012-.048.3.3,0,0,0-.042-.037.108.108,0,0,1-.058-.1c.006-.051.051-.082.133-.091a1.829,1.829,0,0,1,.456,0c.083.011.117.058.106.146l-.008.055c-.007.038-.014.086-.022.143l-.07.539c0,.027.017.055.062.084a.092.092,0,0,1,.049.093c-.009.074-.1.119-.282.137a1.249,1.249,0,0,1-.3,0,.178.178,0,0,1-.078-.022.072.072,0,0,1-.019-.058c0-.05-.01-.077-.037-.08a.037.037,0,0,0-.026,0c-.01,0-.037.016-.082.039a.464.464,0,0,1-.277.051.382.382,0,0,1-.313-.178.693.693,0,0,1-.032-.394c.008-.067.016-.124.022-.17l.008-.056a.446.446,0,0,0,0-.157.152.152,0,0,0-.058-.086.2.2,0,0,1-.057-.048.064.064,0,0,1-.007-.042c.008-.062.061-.1.156-.106a2.46,2.46,0,0,1,.486.009C275.368,244.038,275.388,244.061,275.383,244.1Z" transform="translate(-12.364 -21.813)"/><path class="cls-16" d="M276.988,244.244c.044.006.069.016.077.029a.333.333,0,0,1,.009.12c0,.037.011.055.032.058a.062.062,0,0,0,.051-.028.293.293,0,0,1,.275-.12.241.241,0,0,1,.173.095.268.268,0,0,1,.044.1.3.3,0,0,1,.009.11.285.285,0,0,1-.043.115.285.285,0,0,1-.283.14.233.233,0,0,1-.1-.036.571.571,0,0,1-.1-.1c-.016-.021-.029-.032-.044-.034s-.04.008-.05.035a.735.735,0,0,0-.031.16,1.554,1.554,0,0,0-.019.254.1.1,0,0,0,.018.052.183.183,0,0,0,.061.038c.071.032.1.074.1.129a.116.116,0,0,1-.046.082.165.165,0,0,1-.1.038,1.8,1.8,0,0,1-.348-.019,1.1,1.1,0,0,1-.323-.08.125.125,0,0,1-.086-.131.144.144,0,0,1,.088-.105.191.191,0,0,0,.054-.036.1.1,0,0,0,.026-.049,2.817,2.817,0,0,0,.073-.41.178.178,0,0,0,0-.08.086.086,0,0,0-.044-.045c-.054-.031-.079-.068-.074-.11a.12.12,0,0,1,.073-.093.723.723,0,0,1,.212-.059A1.22,1.22,0,0,1,276.988,244.244Z" transform="translate(-12.364 -21.813)"/><path class="cls-16" d="M278.478,244.753l-.052.413a.189.189,0,0,0,.021.125.112.112,0,0,0,.086.058.289.289,0,0,0,.132-.027.058.058,0,0,1,.086.035.135.135,0,0,1,.016.08.2.2,0,0,1-.1.135.634.634,0,0,1-.439.094.448.448,0,0,1-.3-.151.381.381,0,0,1-.08-.306l.072-.565a.062.062,0,0,0,0-.036c0-.006-.017-.008-.035-.011l-.126-.016a.06.06,0,0,1-.043-.018.1.1,0,0,1,0-.055l.007-.054a.067.067,0,0,1,.035-.051l.6-.279a.116.116,0,0,1,.053-.006l.1.013a.054.054,0,0,1,.039.02.11.11,0,0,1,0,.057l-.021.164a.073.073,0,0,0,.006.051.081.081,0,0,0,.049.016l.226.03c.03,0,.048.011.056.024a.115.115,0,0,1,0,.071l-.009.073a.15.15,0,0,1-.027.079.072.072,0,0,1-.065.014l-.221-.028a.068.068,0,0,0-.049.007A.062.062,0,0,0,278.478,244.753Z" transform="translate(-12.364 -21.813)"/><polygon class="cls-15" points="258.178 199.026 272.26 215.371 273.868 214.022 259.749 197.635 258.178 199.026"/><ellipse class="cls-5" cx="272.536" cy="261.746" rx="5.576" ry="4.074" transform="translate(-35.102 475.73) rotate(-82.453)"/><line class="cls-8" x1="262.7" y1="255.545" x2="263.393" y2="245.128"/><path class="cls-2" d="M242.14,300.024s17.926,25.185,35.044,7.836c8.889-9.009-2.443-34.749-2.443-34.749" transform="translate(-12.364 -21.813)"/><path class="cls-5" d="M473.722,292.135h0a5.915,5.915,0,0,1-7.344-3.957L461.89,268.95a5.917,5.917,0,0,1,3.957-7.345v4.253c3.108-.931,6.413-3.4,7.345-.3l4.488,19.228A5.917,5.917,0,0,1,473.722,292.135Z" transform="translate(-12.364 -21.813)"/><ellipse class="cls-5" cx="431.064" cy="376.826" rx="8.948" ry="6.192" transform="translate(-143.396 246.098) rotate(-30.193)"/><path class="cls-5" d="M445.537,364.266c.229,2.613-2.647,13.787-6.423,14.117s-7.023-1.519-7.252-4.132,2.646-5,6.423-5.331S445.308,361.653,445.537,364.266Z" transform="translate(-12.364 -21.813)"/><ellipse class="cls-5" cx="437.238" cy="378.645" rx="6.56" ry="4.539" transform="translate(-119.946 551.048) rotate(-60.512)"/><line class="cls-17" x1="470.838" y1="448.776" x2="471.181" y2="463.201"/><path class="cls-18" d="M480.3,286.079l-18.868,13.69-.706-2.355a10.077,10.077,0,0,1,6.76-12.546l11.425-3.424Z" transform="translate(-12.364 -21.813)"/><path class="cls-9" d="M475.766,475.166l-8.25,7.747a6.774,6.774,0,0,1-1.355.987l-2.285,1.267a9.917,9.917,0,0,1-4.449,1.236l-3.452.124c-2.506.091-4.515.78-4.425,3.286l.021.585,14.139.908,10.6-.382,1.777-1.049a6.031,6.031,0,0,1,6.228.058l1.076.663,7.219-.26-.134-3.726-.382-10.548-2.867.079a9.206,9.206,0,0,1-11.359.522Z" transform="translate(-12.364 -21.813)"/><path class="cls-19" d="M484.9,377s-10.46,31.677-9.692,50.918a179.557,179.557,0,0,0,8.579,46.562" transform="translate(-12.364 -21.813)"/><line class="cls-17" x1="485.217" y1="448.776" x2="485.56" y2="463.201"/><path class="cls-9" d="M490.145,475.166l-8.251,7.747a6.739,6.739,0,0,1-1.354.987l-2.285,1.267a9.917,9.917,0,0,1-4.449,1.236l-3.452.124c-2.506.091-4.516.78-4.425,3.286l.021.585,14.139.908,10.6-.382,1.777-1.049a6.031,6.031,0,0,1,6.228.058l1.076.663,7.219-.26-.135-3.726-.382-10.548-2.866.079a9.206,9.206,0,0,1-11.359.522Z" transform="translate(-12.364 -21.813)"/><path class="cls-19" d="M497.03,374.853s-12.009,25.754-11.242,45c1,24.945,12.135,55.318,12.135,55.318" transform="translate(-12.364 -21.813)"/><path class="cls-9" d="M469.624,369.63c.047,3.346,3.006,6.4,7,8.794,5.4,3.242,12.688,5.281,17.214,5.216a14.254,14.254,0,1,0-.406-28.506C485.558,355.246,469.512,361.759,469.624,369.63Z" transform="translate(-12.364 -21.813)"/><path class="cls-20" d="M506.287,375.955a14.259,14.259,0,0,0-12.858-20.821c-7.871.112-23.917,6.625-23.8,14.5.047,3.346,3.006,6.4,7,8.794" transform="translate(-12.364 -21.813)"/><path class="cls-9" d="M476.96,286.223h0a6.8,6.8,0,0,1,8.47,4.564s12.273,2.3,18.217,21.07c6.565,20.736,5.039,58.059,5.039,58.059l-42.76,8.107-8.558-43.852C449.136,306.7,461.839,290.755,476.96,286.223Z" transform="translate(-12.364 -21.813)"/><path class="cls-5" d="M470.611,241.889l.759,30.077a9.439,9.439,0,0,1-9.2,9.674h0l-11.794.3a9.438,9.438,0,0,1-9.674-9.2l-.759-30.076Z" transform="translate(-12.364 -21.813)"/><path class="cls-12" d="M439.7,232.941l21.032-.613.685-.06a5.9,5.9,0,0,1,6.046,5.749h1.674l-.3-.11c.307,4.362,5.049,30.632,5.049,30.632l-5.155.174a4.719,4.719,0,0,1-4.837-4.6h0l-.3-11.8a2.386,2.386,0,0,0-2.446-2.325l-1.153.029.12,4.718h0a4.72,4.72,0,0,1-4.837-4.6h0l-.019-.724A5.137,5.137,0,0,0,450,244.4l-6.658.168-3.342.084Z" transform="translate(-12.364 -21.813)"/><path class="cls-21" d="M438.126,226.628h0l.022.836a3.833,3.833,0,0,0,3.929,3.736l-3.538.089,22.152-.559,2.359-.059a5.9,5.9,0,0,1,6.046,5.748h0l1.18-.03a5.9,5.9,0,0,1,6.046,5.748h0l.507,20.106a4.665,4.665,0,0,1-4.546,4.781l-1.233.031-2.359.06a4.72,4.72,0,0,1-4.837-4.6h0l-.238-9.409a2.386,2.386,0,0,0-2.445-2.326l-1.153.029.119,4.718h0a4.718,4.718,0,0,1-4.837-4.6h0l-.079-3.119a5.138,5.138,0,0,0-5.267-5.007l-6.657.168-3.539.089-1.167.029a8.222,8.222,0,0,1-8.427-8.012v-.024a8.223,8.223,0,0,1,7.963-8.426Z" transform="translate(-12.364 -21.813)"/><path class="cls-3" d="M446.214,255.315a1.2,1.2,0,1,1-1.234-1.174A1.2,1.2,0,0,1,446.214,255.315Z" transform="translate(-12.364 -21.813)"/><path class="cls-21" d="M446.214,255.315a1.2,1.2,0,1,1-1.234-1.174A1.2,1.2,0,0,1,446.214,255.315Z" transform="translate(-12.364 -21.813)"/><ellipse class="cls-9" cx="444.976" cy="269.079" rx="2.913" ry="1.954" transform="translate(-19.009 -10.505) rotate(-1.445)"/><path class="cls-5" d="M440.716,254.888c-2.109,3.625-2.078,3.426-3.779,4.978a11.289,11.289,0,0,1-4.531,2.344c-1.133,1.864,3.723,1.479,5.544,1.433,0,0,2.211,1.457,3.021,1.271S442.826,251.264,440.716,254.888Z" transform="translate(-12.364 -21.813)"/><path class="cls-9" d="M471.019,236.284l5.016-21.185-17.6-4.168-5.025,21.222a2.57,2.57,0,0,0,1.318,2.873,29.738,29.738,0,0,0,7.077,2.635,25.924,25.924,0,0,0,6.86.6A2.56,2.56,0,0,0,471.019,236.284Z" transform="translate(-12.364 -21.813)"/><path class="cls-18" d="M474.157,223.033a7.1,7.1,0,0,1-3.747-.953,7.229,7.229,0,0,1-10.4-2.965,7.049,7.049,0,0,1-3.324-.837l1.74-7.347,17.6,4.168Z" transform="translate(-12.364 -21.813)"/><circle class="cls-9" cx="462.37" cy="190.93" r="7.236"/><circle class="cls-9" cx="456.162" cy="185.742" r="7.236"/><circle class="cls-9" cx="454.893" cy="191.1" r="7.236"/><circle class="cls-9" cx="448.425" cy="187.009" r="7.236"/><path class="cls-22" d="M442.239,265.371l3.639-.092a6.288,6.288,0,0,1,4.489,1.728l.355.339a2.608,2.608,0,0,0,3.686-.093h0" transform="translate(-12.364 -21.813)"/><path class="cls-20" d="M464.125,368.793a29.972,29.972,0,0,0,13.065-15.918c4.73-12.64-1.406-37.526-1.5-40.693l-11.624-.325c.322,10.586,9.126,27.93,3.986,33.367-.869.676-5.771.7-8.363.82Z" transform="translate(-12.364 -21.813)"/><path class="cls-6" d="M468.866,304.059s2.886,36.947-3.98,46.9c-7.629,11.06-24.7,23.5-24.7,23.5" transform="translate(-12.364 -21.813)"/><rect class="cls-23" x="557.188" y="359.887" width="8.599" height="38.95" rx="3.134" ry="3.134"/><rect class="cls-23" x="508.896" y="406.125" width="55.658" height="9.795" rx="3.134" ry="3.134"/><rect class="cls-24" x="534.335" y="415.92" width="4.702" height="10.578"/><rect class="cls-25" x="532.205" y="426.498" width="8.963" height="29.233"/><rect class="cls-26" x="532.205" y="452.618" width="8.963" height="3.113"/><polygon class="cls-26" points="535.902 457.842 510.044 460.584 510.044 456.906 535.902 454.164 535.902 457.842"/><rect class="cls-26" x="510.044" y="456.906" width="3.699" height="7.596"/><circle class="cls-24" cx="511.752" cy="466.32" r="3.667"/><polygon class="cls-26" points="535.902 457.842 561.761 460.584 561.761 456.906 535.902 454.164 535.902 457.842"/><rect class="cls-26" x="570.426" y="478.719" width="3.699" height="7.596" transform="translate(1132.186 943.222) rotate(-180)"/><circle class="cls-24" cx="560.052" cy="466.32" r="3.667"/><polygon class="cls-26" points="536.686 457.57 549.419 460.584 549.419 456.906 536.686 453.892 536.686 457.57"/><rect class="cls-26" x="558.084" y="478.719" width="3.699" height="7.596" transform="translate(1107.504 943.222) rotate(-180)"/><circle class="cls-24" cx="547.711" cy="466.32" r="3.667"/><polygon class="cls-26" points="536.686 457.57 523.953 460.584 523.953 456.906 536.686 453.892 536.686 457.57"/><rect class="cls-26" x="523.953" y="456.906" width="3.699" height="7.596"/><circle class="cls-24" cx="525.661" cy="466.32" r="3.667"/><path class="cls-23" d="M547.276,410.332l.705-1.287a3.015,3.015,0,0,1,3.216-1.872h23.969a3.143,3.143,0,0,1,3.134,3.134v.577H551.2l-1.636,3.737-1.711-.721A2.753,2.753,0,0,1,547.276,410.332Z" transform="translate(-12.364 -21.813)"/><rect class="cls-26" x="562.115" y="399.966" width="5.118" height="26.954" transform="translate(965.753 -173.044) rotate(90)"/><polygon class="cls-26" points="529.208 415.92 535.085 415.92 543.276 391.63 538.843 389.071 529.208 415.92"/><rect class="cls-27" x="392.289" y="394.109" width="6.548" height="97.079" transform="translate(778.763 863.484) rotate(-180)"/><rect class="cls-28" x="392.289" y="392.735" width="6.548" height="25.59" transform="translate(778.763 789.247) rotate(-180)"/><rect class="cls-27" x="406.258" y="383.638" width="41.246" height="2.255" transform="translate(797.355 791.562) rotate(-173.801)"/><rect class="cls-27" x="379.009" y="260.333" width="7.116" height="105.694" transform="translate(802.819 530.704) rotate(169.648)"/><rect class="cls-29" x="383.161" y="259.957" width="1.434" height="89.171" transform="translate(-60.84 52.124) rotate(-10.352)"/><path class="cls-30" d="M369.571,261.832l-.956,10.753a159.536,159.536,0,0,0,15.253,83.5l4.695,9.72Z" transform="translate(-12.364 -21.813)"/><path class="cls-30" d="M399.885,388.185l-.157-.958-43.072-1.391a6.621,6.621,0,0,1-6.169-8.635l17.774-58.388a3.289,3.289,0,0,1,2.546-2.237l.406-2.876a6.108,6.108,0,0,0-4.727,4.155L347.8,376.341a9.444,9.444,0,0,0,8.8,12.317Z" transform="translate(-12.364 -21.813)"/><circle class="cls-30" cx="397.091" cy="364.198" r="2.101"/><rect class="cls-15" x="341.063" y="388.113" width="108.255" height="5.998" transform="translate(778.017 760.41) rotate(-180)"/><rect class="cls-15" x="341.063" y="388.113" width="108.255" height="5.998" transform="translate(778.017 760.41) rotate(-180)"/><rect class="cls-15" x="360.051" y="487.722" width="70.279" height="3.894" transform="translate(778.017 957.524) rotate(-180)"/><path class="cls-9" d="M225.614,265.462l.106.482a2.537,2.537,0,0,1-1.93,3.025l-.138.03-3.3.73h0a2.537,2.537,0,0,1-3.025-1.93l-.107-.482" transform="translate(-12.364 -21.813)"/><rect class="cls-31" x="187.312" y="99.412" width="1.566" height="46.595" transform="translate(227.581 -117.619) rotate(70.229)"/><path class="cls-32" d="M199.586,148.625l.39-2.731a5.867,5.867,0,0,0-2.252-5.591h0a5.88,5.88,0,0,1-2.169-6.034l.386-1.7a5.945,5.945,0,0,0-.19-3.339l-2.77-7.707,15.863-5.7,2.714,7.55a5.937,5.937,0,0,1,.211,3.24l-.423,2.012a5.875,5.875,0,0,0,2.189,5.936l.053.04a5.87,5.87,0,0,1,2.252,5.592l-.39,2.731Z" transform="translate(-12.364 -21.813)"/><path class="cls-9" d="M201.045,134.692l1.224-.841-.843-2.342-1.482.12-.77-2.142,8.088-.25.935,2.6-6.386,4.986Zm2.677-1.82,1.072-.736c.237-.166.546-.378.927-.631s.654-.43.824-.528c-.179.032-.476.072-.892.123s-1.244.13-2.483.238Z" transform="translate(-12.364 -21.813)"/><rect class="cls-31" x="679.819" y="81.648" width="1.566" height="46.595" transform="translate(19.246 -147.176) rotate(10.773)"/><path class="cls-32" d="M708.761,108.22l-2.153-1.723a5.868,5.868,0,0,0-5.961-.9h0a5.877,5.877,0,0,1-6.3-1.2l-1.267-1.2a5.955,5.955,0,0,0-2.971-1.534l-8.046-1.53,3.15-16.561,7.881,1.5a5.94,5.94,0,0,1,2.9,1.465l1.518,1.387a5.877,5.877,0,0,0,6.225,1.131l.061-.025a5.87,5.87,0,0,1,5.961.9l2.153,1.724Z" transform="translate(-12.364 -21.813)"/><path class="cls-9" d="M697.436,93.732a1.325,1.325,0,0,0-1.246.379,2.929,2.929,0,0,0-.72,1.564q-.412,2.172,1.24,2.487a3.4,3.4,0,0,0,1,.045,9.543,9.543,0,0,0,1.006-.154l-.327,1.72a5.321,5.321,0,0,1-2.212.01,3.434,3.434,0,0,1-2.425-1.485,4.155,4.155,0,0,1-.366-3.031,4.653,4.653,0,0,1,.832-1.972,3.211,3.211,0,0,1,1.526-1.121,3.914,3.914,0,0,1,2.036-.107,5.469,5.469,0,0,1,2.231.975l-.927,1.482a7.581,7.581,0,0,0-.773-.487A2.95,2.95,0,0,0,697.436,93.732Z" transform="translate(-12.364 -21.813)"/><rect class="cls-31" x="440.907" y="96.003" width="1.566" height="46.595" transform="translate(405.625 -359.416) rotate(71.915)"/><path class="cls-32" d="M452.413,145.544l.47-2.718a5.868,5.868,0,0,0-2.086-5.656h0a5.876,5.876,0,0,1-1.99-6.094l.435-1.687a5.948,5.948,0,0,0-.091-3.342l-2.543-7.786,16.025-5.233,2.49,7.626a5.926,5.926,0,0,1,.115,3.245l-.482,2a5.878,5.878,0,0,0,2.014,6l.051.041a5.87,5.87,0,0,1,2.087,5.656l-.47,2.718Z" transform="translate(-12.364 -21.813)"/><path class="cls-9" d="M460.122,124.823l.83,2.542a4.559,4.559,0,0,1,.279,2.351,1.576,1.576,0,0,1-1.139,1.168,1.825,1.825,0,0,1-1.148.027,1.464,1.464,0,0,1-.828-.645l-.05.016a1.792,1.792,0,0,1-.277,1.178,1.9,1.9,0,0,1-.988.658,1.954,1.954,0,0,1-1.805-.234,3.437,3.437,0,0,1-1.235-1.844l-.926-2.837Zm-3.594,3.354-1.529.5.226.692c.2.614.56.838,1.078.668a.7.7,0,0,0,.478-.429,1.2,1.2,0,0,0-.039-.778Zm1.44-.471.195.593a1.117,1.117,0,0,0,.388.6.637.637,0,0,0,.594.062c.408-.133.512-.51.31-1.127l-.181-.553Z" transform="translate(-12.364 -21.813)"/><path class="cls-33" d="M551.263,118.294s-1.759,6.743-1.759,10.848,1.759,21.405,1.759,21.405" transform="translate(-12.364 -21.813)"/><path class="cls-34" d="M574.72,119.466s-2.346,5.132-2.346,9.676,2.346,21.405,2.346,21.405" transform="translate(-12.364 -21.813)"/><path class="cls-33" d="M610.492,114.775s-2.932,7.477-2.932,12.022,2.932,23.75,2.932,23.75" transform="translate(-12.364 -21.813)"/><path class="cls-34" d="M633.363,114.775s2.165,16.925,15.659,17.886c11.619.827,23.533-4.632,23.533-4.632" transform="translate(-12.364 -21.813)"/><circle class="cls-35" cx="558.423" cy="85.853" r="15.712"/><rect class="cls-35" x="560.356" y="94.507" width="2.689" height="11.427" rx="1.344" ry="1.344"/><rect class="cls-36" x="557.499" y="128.252" width="9.747" height="6.568"/><path class="cls-9" d="M546.424,119.873l9.748.164h0A11.6,11.6,0,0,0,567.724,108.4h0a1.786,1.786,0,0,1,2.578-1.607l8.082,4a64.35,64.35,0,0,0,27.52,6.675h0l31.208-.116A26.264,26.264,0,0,0,663.279,90.99l-4.771-44.913-11.722-8.856-86.177.319a22.062,22.062,0,0,0-21.98,22.144l.149,40.209a30.223,30.223,0,0,0,7.646,19.98Z" transform="translate(-12.364 -21.813)"/><rect class="cls-36" x="593.209" y="128.252" width="9.747" height="6.568"/><rect class="cls-36" x="670.39" y="123.978" width="9.747" height="6.568" transform="translate(787.418 781.223) rotate(-111.113)"/><rect class="cls-31" x="612.261" y="49.26" width="27.56" height="24.367" rx="8.066" ry="8.066"/><rect class="cls-35" x="552.29" y="94.507" width="2.689" height="11.427" rx="1.344" ry="1.344"/><path class="cls-37" d="M649.154,41.045l.007-.708a6.884,6.884,0,0,1-6.233-3.3l-4.724.018s-.017.387-.016.53c.014,3.7,2.062,6.52,4.992,9.534l-10.127.038c-3.2.011-5.724,1.86-5.712,5.062s2.682,5.284,5.883,5.272l14.139-1.883-1.31,12.485L652.932,87.9A7.719,7.719,0,0,0,660.9,95.44a7.843,7.843,0,0,0,2.078-.377,31.551,31.551,0,0,0,.424-4.538L662.589,41Z" transform="translate(-12.364 -21.813)"/><rect class="cls-36" x="533.972" y="128.252" width="9.747" height="6.568"/><path class="cls-38" d="M685.851,54.311c3.2,0,5.864-1.954,5.864-5.156S689.185,44,685.983,44H670.859l1.31,8.931Z" transform="translate(-12.364 -21.813)"/><path class="cls-35" d="M682.963,52.654a4.5,4.5,0,0,0,4.6-4.327,4.405,4.405,0,0,0-4.5-4.327H671.2l1.027,7.127Z" transform="translate(-12.364 -21.813)"/><path class="cls-38" d="M633.367,54.311c-3.2,0-5.864-1.954-5.864-5.156S630.032,44,633.234,44h15.124l-.3,8.931Z" transform="translate(-12.364 -21.813)"/><path class="cls-35" d="M637.263,52.654a4.5,4.5,0,0,1-4.6-4.327,4.405,4.405,0,0,1,4.5-4.327h11.864L648,51.127Z" transform="translate(-12.364 -21.813)"/><path class="cls-39" d="M681.782,34.145a11.431,11.431,0,0,1-9.573,11.278l-1.389-8.357c7.937,0,8.6-9.884,8.6-9.884A11.375,11.375,0,0,1,681.782,34.145Z" transform="translate(-12.364 -21.813)"/><path class="cls-39" d="M638.4,34.145c0,5.68,4.78,10.392,10.21,11.278l.753-8.357c-7.938,0-8.6-9.884-8.6-9.884A11.375,11.375,0,0,0,638.4,34.145Z" transform="translate(-12.364 -21.813)"/><circle class="cls-9" cx="642.334" cy="18.664" r="6.097"/><circle class="cls-9" cx="653.223" cy="18.664" r="6.097"/><path class="cls-40" d="M517.6,41.2v3.813A20.386,20.386,0,0,0,537.986,65.4h14.9" transform="translate(-12.364 -21.813)"/><path class="cls-9" d="M652.921,84.843a7.733,7.733,0,0,0,7.968,7.557,8.075,8.075,0,0,0,7.974-7.958l5.407-20.551-2.713-23.4-3.092-1.639-16.017-.894-3.843,2.487L646.042,65Z" transform="translate(-12.364 -21.813)"/><path class="cls-21" d="M512.559,37.37a5.041,5.041,0,0,0,5.041,5.042h0c2.785,0,5.126-1.891,5.126-4.192s-1.177-4.033-4.538-4.075a2.037,2.037,0,0,1-2.1-2.142c.036-1.158,1.51-2.763,1.51-2.763a9.074,9.074,0,0,0-5.039,8.13Z" transform="translate(-12.364 -21.813)"/><rect class="cls-31" x="538.846" y="28.465" width="15.383" height="27.453" rx="5.68" ry="5.68"/><rect class="cls-31" x="565.481" y="17.019" width="38.624" height="22.891" rx="9.556" ry="9.556"/><rect class="cls-31" x="589.68" y="61.024" width="16.805" height="25.207" rx="8.066" ry="8.066"/><rect class="cls-31" x="558.423" y="53.84" width="23.359" height="25.039" rx="8.066" ry="8.066"/><circle class="cls-35" cx="648.751" cy="62.62" r="8.262"/><circle class="cls-21" cx="644.16" cy="37.917" r="1.512"/><circle class="cls-21" cx="651.823" cy="37.917" r="1.512"/><circle class="cls-21" cx="652.572" cy="65.141" r="1.512"/><circle class="cls-21" cx="645.514" cy="65.141" r="1.512"/><path class="cls-41" d="M302.06,112.925s-1.759,6.744-1.759,10.849,1.759,21.405,1.759,21.405" transform="translate(-12.364 -21.813)"/><path class="cls-42" d="M325.517,114.1s-2.345,5.131-2.345,9.676,2.345,21.405,2.345,21.405" transform="translate(-12.364 -21.813)"/><path class="cls-41" d="M361.289,109.407s-2.932,7.477-2.932,12.021,2.932,23.751,2.932,23.751" transform="translate(-12.364 -21.813)"/><path class="cls-42" d="M384.16,109.407s1.512,12.29,10.523,17.886c6.862,4.261,22.562.818,22.562.818" transform="translate(-12.364 -21.813)"/><circle class="cls-35" cx="309.221" cy="80.484" r="15.712"/><rect class="cls-35" x="311.153" y="89.139" width="2.689" height="11.427" rx="1.344" ry="1.344"/><rect class="cls-36" x="308.296" y="122.884" width="9.747" height="6.568"/><path class="cls-43" d="M297.221,114.505l9.748.163h0a11.6,11.6,0,0,0,11.552-11.638h0a1.786,1.786,0,0,1,2.578-1.608l8.082,4A64.383,64.383,0,0,0,356.7,112.1h0l31.208-.116a26.264,26.264,0,0,0,26.166-26.361l-4.771-44.914-11.722-8.856-86.177.32a22.062,22.062,0,0,0-21.98,22.143l.149,40.209a30.229,30.229,0,0,0,7.646,19.981Z" transform="translate(-12.364 -21.813)"/><rect class="cls-36" x="344.006" y="122.884" width="9.747" height="6.568"/><rect class="cls-36" x="414.994" y="124.841" width="9.747" height="6.568" transform="translate(342.086 540.391) rotate(-98.4)"/><rect class="cls-35" x="303.087" y="89.139" width="2.689" height="11.427" rx="1.344" ry="1.344"/><path class="cls-44" d="M399.951,35.677l.007-.709a6.883,6.883,0,0,1-6.232-3.3L389,31.684s-.016.388-.016.53c.014,3.7,2.062,6.521,4.992,9.535l-10.126.037c-3.2.012-5.725,1.861-5.713,5.063s2.682,5.283,5.884,5.271l14.138-1.882-1.31,12.485,6.88,19.807a7.719,7.719,0,0,0,7.968,7.542,7.91,7.91,0,0,0,2.078-.377,31.436,31.436,0,0,0,.424-4.539l-.813-49.529Z" transform="translate(-12.364 -21.813)"/><rect class="cls-36" x="284.77" y="122.884" width="9.747" height="6.568"/><path class="cls-43" d="M436.648,48.942c3.2,0,5.864-1.769,5.864-4.971S439.983,39,436.781,39H421.656l1.311,8.747Z" transform="translate(-12.364 -21.813)"/><path class="cls-35" d="M433.761,47.286c2.511,0,4.6-1.269,4.6-3.643S436.377,40,433.865,40H422l1.028,6.443Z" transform="translate(-12.364 -21.813)"/><path class="cls-43" d="M384.164,48.942c-3.2,0-5.864-1.769-5.864-4.971S380.83,39,384.031,39h15.125l-.3,8.747Z" transform="translate(-12.364 -21.813)"/><path class="cls-35" d="M388.06,47.286c-2.512,0-4.6-1.269-4.6-3.643S385.444,40,387.956,40H399.82l-1.028,6.443Z" transform="translate(-12.364 -21.813)"/><path class="cls-39" d="M432.58,28.777a11.429,11.429,0,0,1-9.574,11.277L421.617,31.7c7.938,0,8.6-9.885,8.6-9.885A11.378,11.378,0,0,1,432.58,28.777Z" transform="translate(-12.364 -21.813)"/><path class="cls-39" d="M389.2,28.777c0,5.68,4.78,10.392,10.209,11.277l.753-8.356c-7.937,0-8.6-9.885-8.6-9.885A11.377,11.377,0,0,0,389.2,28.777Z" transform="translate(-12.364 -21.813)"/><circle class="cls-43" cx="393.131" cy="13.295" r="6.097"/><circle class="cls-43" cx="404.02" cy="13.295" r="6.097"/><path class="cls-45" d="M268.4,78.492V74.679a20.386,20.386,0,0,1,20.385-20.386h14.9" transform="translate(-12.364 -21.813)"/><path class="cls-43" d="M403.718,79.474a7.732,7.732,0,0,0,7.969,7.557,8.075,8.075,0,0,0,7.973-7.957l5.407-20.552-2.712-23.4-3.093-1.639-16.016-.894L399.4,35.076l-2.563,24.559Z" transform="translate(-12.364 -21.813)"/><path class="cls-21" d="M263.356,82.325a5.042,5.042,0,0,1,5.042-5.042h0c2.784,0,5.125,1.891,5.125,4.192s-1.176,4.033-4.537,4.075a2.037,2.037,0,0,0-2.1,2.142c.036,1.158,1.51,2.763,1.51,2.763a9.075,9.075,0,0,1-5.039-8.13Z" transform="translate(-12.364 -21.813)"/><circle class="cls-35" cx="399.548" cy="57.252" r="8.262"/><circle class="cls-21" cx="394.957" cy="32.549" r="1.512"/><circle class="cls-21" cx="402.62" cy="32.549" r="1.512"/><circle class="cls-21" cx="403.369" cy="59.772" r="1.512"/><circle class="cls-21" cx="396.311" cy="59.772" r="1.512"/><path class="cls-46" d="M51.068,112.925s-1.759,6.744-1.759,10.849,1.759,21.405,1.759,21.405" transform="translate(-12.364 -21.813)"/><path class="cls-47" d="M74.525,114.1s-2.346,5.131-2.346,9.676,2.346,21.405,2.346,21.405" transform="translate(-12.364 -21.813)"/><path class="cls-46" d="M110.3,109.407s-2.932,7.477-2.932,12.021,2.932,23.751,2.932,23.751" transform="translate(-12.364 -21.813)"/><path class="cls-47" d="M133.168,109.407s-1.8,12.972,7.479,17.886c10.912,5.775,23.855,3.121,23.855,3.121" transform="translate(-12.364 -21.813)"/><circle class="cls-48" cx="58.228" cy="80.484" r="15.712"/><rect class="cls-48" x="60.161" y="89.139" width="2.689" height="11.427" rx="1.344" ry="1.344"/><rect class="cls-36" x="57.304" y="122.884" width="9.747" height="6.568"/><path class="cls-49" d="M46.229,114.505l9.748.163h0A11.6,11.6,0,0,0,67.529,103.03h0a1.786,1.786,0,0,1,2.578-1.608l8.082,4a64.379,64.379,0,0,0,27.52,6.675h0l31.208-.116a26.265,26.265,0,0,0,26.167-26.361l-4.771-44.914-11.722-8.856-86.177.32a22.062,22.062,0,0,0-21.98,22.143l.149,40.209a30.224,30.224,0,0,0,7.646,19.981Z" transform="translate(-12.364 -21.813)"/><rect class="cls-36" x="93.014" y="122.884" width="9.747" height="6.568"/><rect class="cls-36" x="161.139" y="126.802" width="9.747" height="6.568" transform="translate(39.273 285.476) rotate(-95.242)"/><rect class="cls-48" x="52.095" y="89.139" width="2.689" height="11.427" rx="1.344" ry="1.344"/><path class="cls-31" d="M148.959,35.677l.007-.709a6.885,6.885,0,0,1-6.233-3.3l-4.724.017s-.017.388-.016.53c.014,3.7,2.062,6.521,4.992,9.535l-10.127.037c-3.2.012-5.724,1.861-5.712,5.063s2.682,5.283,5.883,5.271l14.139-1.882-1.31,12.485,6.879,19.807a7.72,7.72,0,0,0,7.969,7.542,7.924,7.924,0,0,0,2.078-.377,31.579,31.579,0,0,0,.424-4.539l-.814-49.529Z" transform="translate(-12.364 -21.813)"/><rect class="cls-36" x="33.777" y="122.884" width="9.747" height="6.568"/><path class="cls-49" d="M185.656,48.942c3.2,0,5.864-1.769,5.864-4.971S188.99,39,185.788,39H170.664l1.31,8.747Z" transform="translate(-12.364 -21.813)"/><path class="cls-48" d="M182.768,47.286c2.512,0,4.6-1.269,4.6-3.643S185.384,40,182.873,40H171.009l1.027,6.443Z" transform="translate(-12.364 -21.813)"/><path class="cls-49" d="M133.172,48.942c-3.2,0-5.864-1.769-5.864-4.971S129.837,39,133.039,39h15.124l-.3,8.747Z" transform="translate(-12.364 -21.813)"/><path class="cls-48" d="M137.068,47.286c-2.512,0-4.6-1.269-4.6-3.643S134.452,40,136.963,40h11.864L147.8,46.443Z" transform="translate(-12.364 -21.813)"/><path class="cls-39" d="M181.587,28.777a11.429,11.429,0,0,1-9.573,11.277L170.625,31.7c7.937,0,8.6-9.885,8.6-9.885A11.377,11.377,0,0,1,181.587,28.777Z" transform="translate(-12.364 -21.813)"/><path class="cls-39" d="M138.209,28.777c0,5.68,4.78,10.392,10.21,11.277l.753-8.356c-7.938,0-8.6-9.885-8.6-9.885A11.378,11.378,0,0,0,138.209,28.777Z" transform="translate(-12.364 -21.813)"/><circle class="cls-49" cx="142.139" cy="13.295" r="6.097"/><circle class="cls-49" cx="153.028" cy="13.295" r="6.097"/><path class="cls-50" d="M17.405,78.492V74.679A20.386,20.386,0,0,1,37.791,54.293H52.7" transform="translate(-12.364 -21.813)"/><path class="cls-49" d="M152.726,79.474a7.732,7.732,0,0,0,7.968,7.557,8.075,8.075,0,0,0,7.974-7.957l5.407-20.552-2.713-23.4-3.092-1.639-16.017-.894-3.843,2.488-2.563,24.559Z" transform="translate(-12.364 -21.813)"/><path class="cls-21" d="M12.364,82.325a5.041,5.041,0,0,1,5.041-5.042h0c2.785,0,5.126,1.891,5.126,4.192s-1.177,4.033-4.538,4.075a2.037,2.037,0,0,0-2.1,2.142c.036,1.158,1.51,2.763,1.51,2.763a9.074,9.074,0,0,1-5.039-8.13Z" transform="translate(-12.364 -21.813)"/><circle class="cls-48" cx="148.556" cy="57.252" r="8.262"/><circle class="cls-21" cx="143.965" cy="32.549" r="1.512"/><circle class="cls-21" cx="151.628" cy="32.549" r="1.512"/><circle class="cls-21" cx="152.377" cy="59.772" r="1.512"/><circle class="cls-21" cx="145.319" cy="59.772" r="1.512"/></svg>