<svg xmlns="http://www.w3.org/2000/svg" xmlns:xlink="http://www.w3.org/1999/xlink" viewBox="0 0 1322.445 413.236"><defs><style>.cls-1,.cls-12,.cls-14,.cls-15,.cls-16,.cls-26,.cls-28,.cls-4,.cls-42,.cls-7{fill:none;}.cls-2{isolation:isolate;}.cls-3{fill:#f3f3f3;opacity:0.15;mix-blend-mode:screen;}.cls-12,.cls-14,.cls-15,.cls-4{stroke:#797979;}.cls-12,.cls-14,.cls-15,.cls-16,.cls-26,.cls-28,.cls-4,.cls-42,.cls-7{stroke-miterlimit:10;}.cls-4{stroke-width:2.263px;}.cls-17,.cls-5{fill:#bebebe;}.cls-6{fill:#5d5263;}.cls-7{stroke:#fff;}.cls-12,.cls-16,.cls-28,.cls-7{stroke-width:1.132px;}.cls-8{clip-path:url(#clip-path);}.cls-9{fill:#fff;}.cls-10{clip-path:url(#clip-path-2);}.cls-11{fill:#e3e3e3;}.cls-13{fill:#797979;}.cls-14{stroke-width:1.053px;}.cls-16{stroke:#e3e3e3;}.cls-17{mix-blend-mode:multiply;}.cls-18{fill:#c5eae7;}.cls-19{fill:#d8bcb2;}.cls-20{fill:#ac958d;}.cls-21{fill:#e2f2f0;}.cls-22{fill:#e5e3e4;}.cls-23{fill:#31353b;}.cls-24{fill:#616469;}.cls-25{fill:#8e8d89;}.cls-26,.cls-28{stroke:#8e8d89;}.cls-27{fill:#9496a8;}.cls-29{fill:#c3e5e8;}.cls-30{fill:#8d8d98;}.cls-31{fill:#bce4e5;}.cls-32{clip-path:url(#clip-path-3);}.cls-33{fill:#b5b4af;}.cls-34{fill:#636365;}.cls-35{fill:#e7645c;}.cls-36{fill:#302f2c;}.cls-37{fill:#7b7f81;}.cls-38{fill:#373737;}.cls-39{fill:#a394b6;}.cls-40{fill:#726c5b;}.cls-41{fill:#858583;}.cls-42{stroke:#7b7f81;stroke-width:0.667px;}.cls-43{fill:#34485f;}.cls-44{fill:#9f634f;}.cls-45{fill:#c5cad0;}.cls-46{fill:#345165;}.cls-47{fill:#667173;}.cls-48{fill:#9ea3a6;}.cls-49{fill:#4f5662;}.cls-50{fill:#445667;}.cls-51{fill:#666e7c;}.cls-52{fill:#a7a7a7;}.cls-53{fill:#44546d;}.cls-54{fill:#878e98;}.cls-55{fill:#caa13f;}.cls-56{fill:#354256;}.cls-57{fill:#988064;}</style><clipPath id="clip-path" transform="translate(-29.304 -16.689)"><rect class="cls-1" x="919.738" y="90.054" width="104.4" height="45.628"/></clipPath><clipPath id="clip-path-2" transform="translate(-29.304 -16.689)"><rect class="cls-1" x="1172.584" y="117.009" width="104.4" height="45.628"/></clipPath><clipPath id="clip-path-3" transform="translate(-29.304 -16.689)"><rect class="cls-1" x="430.705" y="215.607" width="104.4" height="20.549"/></clipPath></defs><title>6_illu</title><g class="cls-2"><g id="Layer_1" data-name="Layer 1"><path class="cls-3" d="M189.066,16.689,81.977,219.59H44.936c-8.634,0-15.632-7.708-15.632-17.217V33.906c0-9.509,7-17.217,15.632-17.217Z" transform="translate(-29.304 -16.689)"/><path class="cls-4" d="M242.682,217.917v50.689a27.727,27.727,0,0,1-7.981,19.465l-9.812,9.953a27.726,27.726,0,0,0,.146,39.076l27.007,26.993a27.731,27.731,0,0,0,19.6,8.115H383.579a27.726,27.726,0,0,0,27.727-27.726v-3.4a27.726,27.726,0,0,1,27.726-27.727H590.473a27.728,27.728,0,0,1,19.653,8.168l42.308,42.512a27.724,27.724,0,0,0,19.653,8.168H814.658a27.728,27.728,0,0,0,19.523-8.038h0c17.58-17.432,5.236-47.415-19.523-47.415H720.973a27.73,27.73,0,0,0-19.581,8.1l-56.728,56.585c-17.5,17.457-5.137,47.357,19.581,47.357H840.609a27.726,27.726,0,0,0,19.617-8.132l69.664-69.744a27.723,27.723,0,0,1,19.617-8.133h133.3a27.726,27.726,0,0,1,19.6,8.113l28.666,28.644a27.727,27.727,0,0,0,39.209-.012l62.539-62.57a27.726,27.726,0,0,1,19.61-8.126h56.507a27.73,27.73,0,0,0,19.851-8.369l13.953-14.309a27.727,27.727,0,0,0,7.876-19.357v-8.326a27.726,27.726,0,0,0-27.727-27.726h-10.185" transform="translate(-29.304 -16.689)"/><path class="cls-4" d="M250.3,210.18v58.955a24.331,24.331,0,0,0,7.126,17.2l38.937,38.937a24.332,24.332,0,0,1,7.127,17.205v33.492a24.331,24.331,0,0,0,24.331,24.332H434.2a24.332,24.332,0,0,0,24.332-24.332V345.9a24.329,24.329,0,0,0-7.159-17.237l-24.953-24.86c-15.372-15.315-4.526-41.569,17.173-41.569h76.616a24.332,24.332,0,0,1,24.332,24.332V307.7c0,21.664,26.183,32.526,41.518,17.223l32.5-32.429a24.332,24.332,0,0,1,34.414.041l50.694,50.825a24.328,24.328,0,0,0,17.227,7.149H863.8a24.332,24.332,0,0,0,17.2-7.119l62.1-62.05a24.33,24.33,0,0,1,34.408.013l49.095,49.127c15.32,15.331,4.462,41.531-17.211,41.531H748.816a24.331,24.331,0,0,1-24.332-24.331V303.545a24.331,24.331,0,0,0-24.331-24.331H618.67a24.331,24.331,0,0,1-24.331-24.332h0a24.331,24.331,0,0,1,24.331-24.331H630.9" transform="translate(-29.304 -16.689)"/><path class="cls-4" d="M256.355,209.575v30.234a22.635,22.635,0,0,0,6.63,16l58.038,58.038a22.635,22.635,0,0,0,16,6.63H484.666a22.636,22.636,0,0,1,15.97,6.594l84.5,84.137a22.632,22.632,0,0,0,15.97,6.595H953.161c20.165,0,30.264-24.38,16.005-38.639L917.43,327.433c-14.259-14.259-4.16-38.639,16-38.639h128.692a22.634,22.634,0,0,0,22.635-22.634V246.921a22.635,22.635,0,0,0-22.634-22.634h0" transform="translate(-29.304 -16.689)"/><path class="cls-4" d="M390.106,222.629h0a24.9,24.9,0,0,0-24.9,24.9v21.411a24.9,24.9,0,0,0,7.249,17.561L472.776,387.312a24.9,24.9,0,0,0,17.649,7.335H723.818a24.9,24.9,0,0,0,17.62-7.307l58.576-58.676a24.9,24.9,0,0,1,35.212-.028l66.758,66.654a24.9,24.9,0,0,0,17.591,7.279H1107.6a24.9,24.9,0,0,0,24.9-24.9v-53.19a24.9,24.9,0,0,0-24.9-24.9H259.96a24.9,24.9,0,0,1-24.9-24.9V210.18" transform="translate(-29.304 -16.689)"/><path class="cls-5" d="M272.173,219.59H44.948c-8.633,0-15.632-7.708-15.632-17.216V33.905c0-9.508,7-17.215,15.632-17.215H272.173c8.633,0,15.632,7.707,15.632,17.215V202.374C287.805,211.882,280.806,219.59,272.173,219.59Z" transform="translate(-29.304 -16.689)"/><path class="cls-6" d="M287.805,33.525c0-9.3-7-16.835-15.632-16.835H44.948c-8.633,0-15.632,7.537-15.632,16.835V187.439H287.805Z" transform="translate(-29.304 -16.689)"/><path class="cls-7" d="M714.9,115.828s23.577-35.416,89.121-33.153" transform="translate(-29.304 -16.689)"/><g class="cls-2"><g class="cls-8"><path class="cls-9" d="M930.52,129.177v-6.714h40.554v6.714H930.52m43.686,0v-6.714h40.545v6.714H974.206m0-14.662v-.009h40.545v6.714H989.632v.008H930.52v-6.713h43.686m-43.686-1.3v-6.714h40.554v6.714H930.52m43.686-.009V106.5h40.545v6.713H974.206m-43.686-8.674V97.822h40.554v6.714H930.52m-.171-7.971V95.083h33.462v1.482H930.349m66.708,1.661V94.632h17.127v3.594H997.057m27.081-8.172h-104.4v45.628h104.4V90.054" transform="translate(-29.304 -16.689)"/><polyline class="cls-5" points="934.507 78.394 901.045 78.394 901.045 79.876 934.507 79.876 934.507 78.394"/><polyline class="cls-5" points="941.77 81.133 901.216 81.133 901.216 87.847 941.77 87.847 941.77 81.133"/><polyline class="cls-5" points="984.88 77.943 967.753 77.943 967.753 81.536 984.88 81.536 984.88 77.943"/><polyline class="cls-5" points="941.77 89.816 901.216 89.816 901.216 96.529 941.77 96.529 941.77 89.816"/><polyline class="cls-5" points="941.77 105.774 901.216 105.774 901.216 112.488 941.77 112.488 941.77 105.774"/><polyline class="cls-5" points="985.447 89.807 944.902 89.807 944.902 96.521 985.447 96.521 985.447 89.807"/><polyline class="cls-5" points="944.902 97.826 901.216 97.826 901.216 104.539 960.328 104.539 960.328 104.531 944.902 104.531 944.902 97.826"/><polyline class="cls-5" points="985.447 97.817 944.902 97.817 944.902 97.826 944.902 104.531 960.328 104.531 985.447 104.531 985.447 97.817"/><polyline class="cls-5" points="985.447 105.774 944.902 105.774 944.902 112.488 985.447 112.488 985.447 105.774"/></g></g><g class="cls-2"><g class="cls-10"><path class="cls-9" d="M1183.186,157.609v-1.483h33.471v1.483h-33.471m66.717.45v-3.593h17.127v3.593H1249.9m-66.537-3.19v-6.713h40.554v6.713h-40.554m43.677-8.674v-6.714H1267.6V146.2h-40.554m-43.677-.008v-6.714h40.554v6.714h-40.554m0-8.01v-6.714h59.112v.008H1267.6v6.714h-40.554v-.008h-43.677m0-7.949v-6.713h40.554v6.713h-40.554m43.677,0v-6.713H1267.6v6.713h-40.554m49.941-13.219h-104.4v45.628h104.4V117.009" transform="translate(-29.304 -16.689)"/><polyline class="cls-5" points="1187.353 139.437 1153.882 139.437 1153.882 140.92 1187.353 140.92 1187.353 139.437"/><polyline class="cls-5" points="1194.616 131.466 1154.062 131.466 1154.062 138.18 1194.616 138.18 1194.616 131.466"/><polyline class="cls-5" points="1237.726 137.777 1220.599 137.777 1220.599 141.37 1237.726 141.37 1237.726 137.777"/><polyline class="cls-5" points="1194.616 122.784 1154.062 122.784 1154.062 129.497 1194.616 129.497 1194.616 122.784"/><polyline class="cls-5" points="1194.616 106.825 1154.062 106.825 1154.062 113.539 1194.616 113.539 1194.616 106.825"/><polyline class="cls-5" points="1238.293 122.792 1197.739 122.792 1197.739 129.506 1238.293 129.506 1238.293 122.792"/><polyline class="cls-5" points="1213.174 114.774 1154.062 114.774 1154.062 121.488 1197.739 121.488 1197.739 114.782 1213.174 114.782 1213.174 114.774"/><polyline class="cls-5" points="1238.293 114.782 1213.174 114.782 1197.739 114.782 1197.739 121.488 1197.739 121.496 1238.293 121.496 1238.293 114.782"/><polyline class="cls-5" points="1238.293 106.825 1197.739 106.825 1197.739 113.539 1238.293 113.539 1238.293 106.825"/></g></g><path class="cls-11" d="M350.994,145.582H551.682a0,0,0,0,1,0,0V215.7a17.774,17.774,0,0,1-17.774,17.774H368.768A17.774,17.774,0,0,1,350.994,215.7V145.582A0,0,0,0,1,350.994,145.582Z"/><path class="cls-12" d="M411.042,249.789V184.377a6.169,6.169,0,0,1,6.168-6.168H546.62a6.169,6.169,0,0,1,6.168,6.168v65.412" transform="translate(-29.304 -16.689)"/><path class="cls-13" d="M411.042,249.789V184.377a6.169,6.169,0,0,1,6.168-6.168H546.62a6.169,6.169,0,0,1,6.168,6.168v65.412Z" transform="translate(-29.304 -16.689)"/><path class="cls-14" d="M552.505,188.112a7.545,7.545,0,1,1,0,15.089" transform="translate(-29.304 -16.689)"/><circle class="cls-14" cx="370.421" cy="174.063" r="4.15"/><circle class="cls-14" cx="370.421" cy="161.52" r="2.924"/><circle class="cls-14" cx="370.421" cy="153.127" r="1.132"/><line class="cls-15" x1="388.314" y1="143.546" x2="388.314" y2="161.546"/><line class="cls-15" x1="518.314" y1="143.546" x2="518.314" y2="161.546"/><rect class="cls-13" x="350.994" y="140.678" width="200.688" height="4.904"/><rect class="cls-13" x="388.528" y="133.322" width="130.146" height="8.218"/><rect class="cls-11" x="381.738" y="212.273" width="141.746" height="20.827"/><path class="cls-16" d="M242.23,208.105" transform="translate(-29.304 -16.689)"/><path class="cls-5" d="M200.837,247.879c-.642-1.318-7.546-7.752-11.164-11.887s-3.618-16.538-3.618-16.538h-54.99s0,12.4-3.617,16.538-10.523,10.569-11.164,11.887c-.232.478,1.861,1.964,3.1,2.067s39.175,0,39.175,0,37.935.1,39.176,0S201.069,248.357,200.837,247.879Z" transform="translate(-29.304 -16.689)"/><path class="cls-5" d="M200.837,247.879a8.367,8.367,0,0,1-3.1,2.067c-.469.091-39.176,0-39.176,0s-38.707.091-39.175,0a8.367,8.367,0,0,1-3.1-2.067A2.788,2.788,0,0,0,119.1,250.5H198.02A2.788,2.788,0,0,0,200.837,247.879Z" transform="translate(-29.304 -16.689)"/><path class="cls-17" d="M129.834,230.235h57.453a54.153,54.153,0,0,1-1.232-11h-54.99A54.115,54.115,0,0,1,129.834,230.235Z" transform="translate(-29.304 -16.689)"/><rect class="cls-18" x="11.005" y="11.55" width="236.503" height="148.517"/><path class="cls-19" d="M176.591,147.518H136.266c-5.972,0-10.859-5.249-11.02-11.219l-1.894-70.217h66.2L187.61,136.3C187.449,142.269,182.563,147.518,176.591,147.518Z" transform="translate(-29.304 -16.689)"/><path class="cls-20" d="M124.14,96.545l1.106,38.949c.014,7.478,4.625,12.024,10.6,12.024h41.235c5.972,0,10.5-5.368,10.531-12.024l1.107-38.949Z" transform="translate(-29.304 -16.689)"/><rect class="cls-6" x="108.115" y="69.933" width="38.064" height="46.339"/><path class="cls-21" d="M143.991,91.333a5.093,5.093,0,0,1,.86.075,1.358,1.358,0,0,1,.513.166.332.332,0,0,1,.154.29.279.279,0,0,1-.056.184.89.89,0,0,1-.245.16.421.421,0,0,0-.251.266c-.022.1-.041.5-.059,1.185q-.011,1-.02,1.2a2.585,2.585,0,0,1-.048.389,1.554,1.554,0,0,1-.441.863,1.9,1.9,0,0,1-.7.405,2.767,2.767,0,0,1-.9.146,3.315,3.315,0,0,1-.839-.109,2.609,2.609,0,0,1-.73-.3,1.19,1.19,0,0,1-.558-1,.863.863,0,0,1,.238-.624.793.793,0,0,1,.6-.247.885.885,0,0,1,.595.208.658.658,0,0,1,.246.519,1.316,1.316,0,0,1-.046.265.428.428,0,0,0-.007.083.25.25,0,0,0,.086.2.342.342,0,0,0,.231.076.474.474,0,0,0,.407-.227,1.037,1.037,0,0,0,.154-.6l0-.342-.008-.925c-.022-.561-.04-.891-.051-.99a.5.5,0,0,0-.085-.243.332.332,0,0,0-.1-.1,1.552,1.552,0,0,0-.235-.072.251.251,0,0,1-.155-.105.3.3,0,0,1-.064-.185.389.389,0,0,1,.16-.326,1.325,1.325,0,0,1,.523-.2A4.079,4.079,0,0,1,143.991,91.333Z" transform="translate(-29.304 -16.689)"/><path class="cls-21" d="M148.048,92.8a2.083,2.083,0,0,1,1.211.358,1.925,1.925,0,0,1,.6.667,1.855,1.855,0,0,1,.234.9,1.7,1.7,0,0,1-.75,1.391,2.63,2.63,0,0,1-1.64.547,2.073,2.073,0,0,1-1.46-.513,1.676,1.676,0,0,1-.543-1.3,1.825,1.825,0,0,1,.664-1.457A2.5,2.5,0,0,1,148.048,92.8Zm-.3.871a.324.324,0,0,0-.266.123.5.5,0,0,0-.1.326,3.058,3.058,0,0,0,.085.616,4.649,4.649,0,0,0,.2.693.4.4,0,0,0,.381.308c.224,0,.336-.141.336-.426a3.519,3.519,0,0,0-.085-.72,2.951,2.951,0,0,0-.205-.656A.4.4,0,0,0,147.747,93.671Z" transform="translate(-29.304 -16.689)"/><path class="cls-21" d="M154.373,92.6a.2.2,0,0,1,.166.107.448.448,0,0,1,.071.251.816.816,0,0,1-.1.351.968.968,0,0,1-.232.313c-.058.05-.087.091-.087.12,0,.008,0,.038.008.091a1.116,1.116,0,0,1,.011.144,1.029,1.029,0,0,1-.3.753,1.831,1.831,0,0,1-.7.423,2.8,2.8,0,0,1-.941.151,1.978,1.978,0,0,1-.245-.015,1.336,1.336,0,0,0-.151-.012.177.177,0,0,0-.2.2.226.226,0,0,0,.131.2.714.714,0,0,0,.352.074,3.425,3.425,0,0,0,.445-.042,7.274,7.274,0,0,1,.913-.087,1.361,1.361,0,0,1,.69.147.838.838,0,0,1,.311.317.873.873,0,0,1,.115.437,1.194,1.194,0,0,1-.279.74,1.952,1.952,0,0,1-.977.626,3.936,3.936,0,0,1-1.169.158,3.077,3.077,0,0,1-1.357-.256,1.045,1.045,0,0,1-.385-.317.68.68,0,0,1-.143-.408.489.489,0,0,1,.081-.271.447.447,0,0,1,.205-.177c.076-.03.113-.063.113-.1s-.031-.067-.094-.12a.7.7,0,0,1-.3-.524.616.616,0,0,1,.146-.373.971.971,0,0,1,.36-.3c.06-.03.09-.061.09-.091s-.038-.088-.113-.158a1.107,1.107,0,0,1-.389-.837.923.923,0,0,1,.138-.483,1.2,1.2,0,0,1,.383-.392,2.4,2.4,0,0,1,1.346-.4,3.259,3.259,0,0,1,.656.075,2.857,2.857,0,0,0,.472.068,1.313,1.313,0,0,0,.818-.324A.275.275,0,0,1,154.373,92.6Zm-2.87,4.212c-.063,0-.094.037-.094.11a.407.407,0,0,0,.241.359,1.254,1.254,0,0,0,.626.138,1.385,1.385,0,0,0,.579-.1.3.3,0,0,0,.209-.275.2.2,0,0,0-.079-.16.3.3,0,0,0-.2-.067,1.491,1.491,0,0,0-.174.016,3.054,3.054,0,0,1-.471.034,3.678,3.678,0,0,1-.37-.019,1.445,1.445,0,0,1-.214-.031A.316.316,0,0,0,151.5,96.812Zm.822-3.431a.374.374,0,0,0-.3.142.6.6,0,0,0-.115.381,1.459,1.459,0,0,0,.125.654.372.372,0,0,0,.328.245.379.379,0,0,0,.317-.154.66.66,0,0,0,.116-.409,1.338,1.338,0,0,0-.122-.628A.4.4,0,0,0,152.325,93.381Z" transform="translate(-29.304 -16.689)"/><path class="cls-21" d="M156.926,91.6l-.05,1.58c0,.188.053.283.174.283.06,0,.119-.042.177-.125a1.13,1.13,0,0,1,.977-.531,1.27,1.27,0,0,1,.954.365.905.905,0,0,1,.224.385,2.52,2.52,0,0,1,.074.637l.034,1.362a.6.6,0,0,0,.047.259.749.749,0,0,0,.2.208.26.26,0,0,1,.109.207q0,.408-1.229.408-1.094,0-1.094-.381a.2.2,0,0,1,.019-.1c.013-.022.057-.083.132-.181a3.215,3.215,0,0,0,.064-1.769.448.448,0,0,0-.445-.313.377.377,0,0,0-.339.167.89.89,0,0,0-.08.452v.727a4.647,4.647,0,0,0,.046.547.894.894,0,0,0,.173.238.268.268,0,0,1,.072.185q0,.426-1.109.426-1.3,0-1.3-.442a.261.261,0,0,1,.041-.156,1.1,1.1,0,0,1,.2-.168c.1-.067.161-.25.2-.549a13.648,13.648,0,0,0,.055-1.479,9.018,9.018,0,0,0-.046-1.124.378.378,0,0,0-.054-.172.45.45,0,0,0-.149-.111c-.156-.081-.234-.173-.234-.279a.352.352,0,0,1,.177-.305,2.579,2.579,0,0,1,.679-.253,4.277,4.277,0,0,1,1.082-.189C156.86,91.408,156.931,91.471,156.926,91.6Z" transform="translate(-29.304 -16.689)"/><path class="cls-21" d="M162.137,93.018v2.044q0,.657.434.657a.417.417,0,0,0,.215-.063.351.351,0,0,0,.147-.152,2.419,2.419,0,0,0,.083-.808,5.515,5.515,0,0,0-.042-.844.269.269,0,0,0-.053-.138.52.52,0,0,0-.143-.1.331.331,0,0,1-.215-.286c0-.156.123-.265.37-.324a5.73,5.73,0,0,1,1.384-.174c.254,0,.381.135.381.4,0,.028,0,.084,0,.17,0,.12-.009.268-.011.442v1.663c0,.085.072.163.218.233a.287.287,0,0,1,.185.264q0,.339-.8.524a4.026,4.026,0,0,1-.913.11.516.516,0,0,1-.247-.041.2.2,0,0,1-.077-.163c-.013-.156-.061-.234-.143-.234a.168.168,0,0,0-.083.021c-.026.014-.1.065-.23.153a1.43,1.43,0,0,1-.819.26,1.172,1.172,0,0,1-1.022-.418,2.091,2.091,0,0,1-.252-1.181q0-.309,0-.528v-.173a1.438,1.438,0,0,0-.058-.478.461.461,0,0,0-.213-.239.721.721,0,0,1-.187-.121.181.181,0,0,1-.04-.124q0-.287.434-.381a6.893,6.893,0,0,1,1.479-.162C162.063,92.83,162.137,92.893,162.137,93.018Z" transform="translate(-29.304 -16.689)"/><path class="cls-21" d="M167.066,92.826q.2,0,.243.057a1.01,1.01,0,0,1,.078.362c.012.11.051.166.116.166s.1-.037.144-.109a.9.9,0,0,1,.788-.472.752.752,0,0,1,.562.223.839.839,0,0,1,.173.28.837.837,0,0,1-.015.694.919.919,0,0,1-.215.308.826.826,0,0,1-.592.229.692.692,0,0,1-.322-.067,1.662,1.662,0,0,1-.341-.275.222.222,0,0,0-.147-.079.136.136,0,0,0-.138.118,2.363,2.363,0,0,0-.032.5,4.708,4.708,0,0,0,.041.777.306.306,0,0,0,.074.156.554.554,0,0,0,.2.089q.339.1.339.355a.383.383,0,0,1-.109.269.556.556,0,0,1-.291.153,5.713,5.713,0,0,1-1.063.075,3.355,3.355,0,0,1-1.015-.117c-.206-.071-.309-.192-.309-.366a.429.429,0,0,1,.226-.35.578.578,0,0,0,.151-.13.367.367,0,0,0,.057-.161,8.788,8.788,0,0,0,.06-1.271.571.571,0,0,0-.038-.243.271.271,0,0,0-.151-.119c-.178-.07-.267-.172-.267-.305a.375.375,0,0,1,.184-.311,2.228,2.228,0,0,1,.619-.258A3.68,3.68,0,0,1,167.066,92.826Z" transform="translate(-29.304 -16.689)"/><path class="cls-21" d="M171.788,93.792v1.274a.583.583,0,0,0,.111.369.344.344,0,0,0,.285.144.856.856,0,0,0,.388-.136.224.224,0,0,1,.113-.034.209.209,0,0,1,.166.109.417.417,0,0,1,.075.238.6.6,0,0,1-.256.449,1.929,1.929,0,0,1-1.3.456,1.36,1.36,0,0,1-.969-.341,1.17,1.17,0,0,1-.366-.9V93.679a.173.173,0,0,0-.021-.108.179.179,0,0,0-.107-.021h-.389a.191.191,0,0,1-.139-.035.3.3,0,0,1-.03-.168v-.166a.189.189,0,0,1,.086-.166l1.727-1.086a.334.334,0,0,1,.159-.035h.3a.148.148,0,0,1,.126.044.305.305,0,0,1,.033.171v.51a.212.212,0,0,0,.035.147.241.241,0,0,0,.153.034h.7c.093,0,.153.016.181.051a.382.382,0,0,1,.041.216v.223a.438.438,0,0,1-.052.251.232.232,0,0,1-.193.069h-.682a.207.207,0,0,0-.144.038A.21.21,0,0,0,171.788,93.792Z" transform="translate(-29.304 -16.689)"/><polygon class="cls-6" points="94.132 51.737 160.162 51.737 160.247 45.315 94.048 45.315 94.132 51.737"/><path class="cls-22" d="M824.679,123.982v-2.868A11.278,11.278,0,0,0,813.4,109.836H721.776a4.61,4.61,0,0,1-4.609-4.609V97.1a8.761,8.761,0,0,0-8.761-8.762H641.252a12.833,12.833,0,0,0-12.832,12.782l-.091,23.433h55.453v-.063a4.465,4.465,0,0,1,4.464-4.464h78.5a4.464,4.464,0,0,1,4.464,4.464v.063h53.473Z" transform="translate(-29.304 -16.689)"/><rect class="cls-23" x="648.442" y="102.2" width="99.778" height="9.242"/><path class="cls-24" d="M824.679,125.821v-2.868A11.278,11.278,0,0,0,813.4,111.675H721.776a4.61,4.61,0,0,1-4.609-4.609V98.934a8.761,8.761,0,0,0-8.761-8.762H641.252a12.833,12.833,0,0,0-12.832,12.782l-.091,23.433h55.453v-.063a4.465,4.465,0,0,1,4.464-4.464h78.5a4.464,4.464,0,0,1,4.464,4.464v.063h53.473Z" transform="translate(-29.304 -16.689)"/><path class="cls-11" d="M599.308,113.517H795.941a0,0,0,0,1,0,0V227.366a6.111,6.111,0,0,1-6.111,6.111H605.419a6.111,6.111,0,0,1-6.111-6.111V113.517A0,0,0,0,1,599.308,113.517Z"/><rect class="cls-25" x="636.088" y="121.439" width="138.633" height="31.31"/><line class="cls-26" x1="598.814" y1="122.046" x2="635.814" y2="122.046"/><line class="cls-26" x1="773.814" y1="122.046" x2="795.814" y2="122.046"/><line class="cls-26" x1="636.314" y1="152.546" x2="636.314" y2="233.546"/><line class="cls-26" x1="774.314" y1="152.546" x2="774.314" y2="233.546"/><line class="cls-26" x1="635.814" y1="199.046" x2="773.814" y2="199.046"/><rect class="cls-27" x="653.912" y="206.128" width="14.523" height="21.88" rx="2.858" ry="2.858"/><circle class="cls-28" cx="622.225" cy="215.936" r="3.772"/><rect class="cls-25" x="599.308" y="109.368" width="196.633" height="4.15"/><path class="cls-28" d="M716.036,169.816v12.11a3.167,3.167,0,0,0,3.167,3.168h29.88a3.167,3.167,0,0,0,3.167-3.168v-12.11" transform="translate(-29.304 -16.689)"/><line class="cls-26" x1="685.814" y1="158.046" x2="721.814" y2="158.046"/><rect class="cls-25" x="606.381" y="107.859" width="3.867" height="1.509"/><rect class="cls-25" x="615.435" y="107.859" width="3.867" height="1.509"/><rect class="cls-25" x="624.488" y="107.859" width="3.867" height="1.509"/><rect class="cls-25" x="633.73" y="107.859" width="3.867" height="1.509"/><rect class="cls-25" x="643.067" y="107.859" width="3.867" height="1.509"/><rect class="cls-25" x="657.26" y="107.859" width="3.867" height="1.509"/><rect class="cls-25" x="708.352" y="107.859" width="3.867" height="1.509"/><rect class="cls-25" x="710.969" y="108.69" width="13.189" height="0.596"/><rect class="cls-25" x="723.771" y="107.859" width="3.867" height="1.509"/><rect class="cls-25" x="737.352" y="107.859" width="3.867" height="1.509"/><rect class="cls-25" x="744.92" y="107.859" width="4.857" height="1.509"/><rect class="cls-25" x="753.408" y="107.859" width="4.857" height="1.509"/><rect class="cls-25" x="761.966" y="107.859" width="4.857" height="1.509"/><rect class="cls-25" x="769.865" y="107.859" width="4.857" height="1.509"/><rect class="cls-29" x="779.272" y="107.859" width="10.94" height="1.509"/><rect class="cls-25" x="681.922" y="108.69" width="12.237" height="1.008"/><path class="cls-30" d="M847.858,98.033H1039.4a0,0,0,0,1,0,0v119.86a8.606,8.606,0,0,1-8.606,8.606H856.463a8.606,8.606,0,0,1-8.606-8.606V98.033A0,0,0,0,1,847.858,98.033Z"/><path class="cls-11" d="M843.9,105.012h199.462a0,0,0,0,1,0,0V224.7a8.782,8.782,0,0,1-8.782,8.782h-181.9A8.782,8.782,0,0,1,843.9,224.7V105.012A0,0,0,0,1,843.9,105.012Z"/><line class="cls-26" x1="862.314" y1="233.546" x2="862.314" y2="102.546"/><line class="cls-26" x1="1028.314" y1="104.546" x2="1028.314" y2="233.546"/><line class="cls-26" x1="861.814" y1="195.046" x2="1027.814" y2="195.046"/><line class="cls-26" x1="861.814" y1="173.046" x2="1027.814" y2="173.046"/><path class="cls-25" d="M891.025,164.44h165.228v4.527H998.537a3.4,3.4,0,0,1-3.395,3.395H954.4a3.4,3.4,0,0,1-3.395-3.395h-59.98Z" transform="translate(-29.304 -16.689)"/><line class="cls-26" x1="890.814" y1="212.046" x2="998.814" y2="212.046"/><rect class="cls-28" x="874.17" y="211.504" width="3.395" height="13.392"/><path class="cls-30" d="M1096.973,121.439h185.6a0,0,0,0,1,0,0V216.23a12.664,12.664,0,0,1-12.664,12.664H1109.638a12.664,12.664,0,0,1-12.664-12.664V121.439A0,0,0,0,1,1096.973,121.439Z"/><path class="cls-11" d="M1092.729,124.551h194.087a0,0,0,0,1,0,0v95.887a13.039,13.039,0,0,1-13.039,13.039H1105.768a13.039,13.039,0,0,1-13.039-13.039V124.551A0,0,0,0,1,1092.729,124.551Z"/><line class="cls-26" x1="1092.814" y1="189.046" x2="1286.814" y2="189.046"/><line class="cls-26" x1="1092.814" y1="201.046" x2="1286.814" y2="201.046"/><rect class="cls-28" x="1128.095" y="215.936" width="4.527" height="12.449"/><line class="cls-26" x1="1143.814" y1="218.046" x2="1240.814" y2="218.046"/><rect class="cls-30" x="1099.52" y="103.408" width="36.497" height="19.728"/><rect class="cls-31" x="1102.8" y="105.672" width="29.937" height="15.201"/><g class="cls-2"><g class="cls-32"><path class="cls-9" d="M441.487,233.228V230.2h40.554v3.024H441.487m43.677,0V230.2h40.554v3.024H485.164m0-6.6v0h40.554v3.024H500.6v0H441.487v-3.024h43.677m-43.677-.585v-3.024h40.554v3.024H441.487m43.677,0v-3.023h40.554v3.023H485.164m-43.677-3.906v-3.024h40.554v3.024H441.487m-.18-3.589v-.669h33.471v.669H441.307m66.717.747v-1.619h17.127v1.619H508.024m27.081-3.68h-104.4v20.549h104.4V215.607" transform="translate(-29.304 -16.689)"/><polyline class="cls-5" points="445.474 201.182 412.003 201.182 412.003 201.851 445.474 201.851 445.474 201.182"/><polyline class="cls-5" points="452.737 202.416 412.183 202.416 412.183 205.439 452.737 205.439 452.737 202.416"/><polyline class="cls-5" points="495.847 200.979 478.72 200.979 478.72 202.597 495.847 202.597 495.847 200.979"/><polyline class="cls-5" points="452.737 206.326 412.183 206.326 412.183 209.35 452.737 209.35 452.737 206.326"/><polyline class="cls-5" points="452.737 213.515 412.183 213.515 412.183 216.538 452.737 216.538 452.737 213.515"/><polyline class="cls-5" points="496.414 206.322 455.86 206.322 455.86 209.346 496.414 209.346 496.414 206.322"/><polyline class="cls-5" points="455.86 209.935 412.183 209.935 412.183 212.958 471.295 212.958 471.295 212.953 455.86 212.953 455.86 209.935"/><polyline class="cls-5" points="496.414 209.93 455.86 209.93 455.86 209.935 455.86 212.953 471.295 212.953 496.414 212.953 496.414 209.93"/><polyline class="cls-5" points="496.414 213.515 455.86 213.515 455.86 216.538 496.414 216.538 496.414 213.515"/></g></g><rect class="cls-33" x="794.436" y="379.789" width="5.334" height="2.667" transform="translate(1564.902 745.556) rotate(-180)"/><rect class="cls-33" x="792.297" y="380.199" width="0.5" height="9.501" transform="translate(1076.741 1191.69) rotate(-136.749)"/><rect class="cls-33" x="791.297" y="379.547" width="0.5" height="9.501" transform="translate(1075.459 1189.878) rotate(-136.749)"/><rect class="cls-34" x="747.131" y="395.769" width="2" height="1.333"/><rect class="cls-34" x="747.131" y="394.436" width="0.667" height="3.334"/><path class="cls-35" d="M845.141,398.838l.587.7,2.046,6.25v6h-2l-.042,2h-3.959l-2.667-1.334H782.435l-1,1.334h-1.666v-1.334h-1.334v-5.333l2.445-7.445,1.16-1.1a2.986,2.986,0,0,1,1.8-.789h59.224A2.976,2.976,0,0,1,845.141,398.838Z" transform="translate(-29.304 -16.689)"/><rect class="cls-36" x="839.773" y="399.791" width="2" height="3.334" transform="translate(1652.242 786.226) rotate(-180)"/><rect class="cls-36" x="783.769" y="399.791" width="2" height="3.334" transform="translate(1540.234 786.226) rotate(-180)"/><rect class="cls-37" x="787.769" y="397.791" width="46.004" height="2" transform="translate(1592.238 780.892) rotate(-180)"/><rect class="cls-34" x="774.435" y="412.458" width="2" height="1.333" transform="translate(1521.566 809.561) rotate(-180)"/><rect class="cls-34" x="775.768" y="411.125" width="0.667" height="3.334" transform="translate(1522.899 808.894) rotate(-180)"/><rect class="cls-34" x="695.794" y="395.769" width="2.667" height="1.333"/><rect class="cls-34" x="695.794" y="394.436" width="1.333" height="3.334"/><polygon class="cls-35" points="745.797 394.436 745.797 397.103 743.797 397.103 742.311 398.436 741.797 399.769 737.958 399.769 737.13 397.769 707.794 397.769 706.35 399.769 702.231 399.769 701.127 397.103 697.794 397.103 697.794 394.436 745.797 394.436"/><rect class="cls-34" x="727.764" y="398.457" width="46.67" height="13.334" transform="translate(1472.895 793.56) rotate(-180)"/><circle class="cls-38" cx="739.908" cy="397.992" r="2.445"/><circle class="cls-38" cx="704.319" cy="397.992" r="2.445"/><rect class="cls-34" x="723.764" y="412.458" width="2" height="1.333" transform="translate(1420.224 809.561) rotate(-180)"/><rect class="cls-34" x="725.098" y="411.125" width="0.667" height="3.334" transform="translate(1421.558 808.894) rotate(-180)"/><rect class="cls-34" x="645.123" y="395.769" width="2.667" height="1.333"/><rect class="cls-34" x="645.123" y="394.436" width="1.333" height="3.334"/><polygon class="cls-35" points="695.127 394.436 695.127 397.103 693.127 397.103 691.64 398.436 691.127 399.769 687.287 399.769 686.46 397.769 657.124 397.769 655.679 399.769 651.56 399.769 650.457 397.103 647.123 397.103 647.123 394.436 695.127 394.436"/><rect class="cls-39" x="677.094" y="398.457" width="46.67" height="13.334" transform="translate(1371.554 793.56) rotate(-180)"/><circle class="cls-38" cx="689.237" cy="397.992" r="2.445"/><circle class="cls-38" cx="653.648" cy="397.992" r="2.445"/><rect class="cls-34" x="673.094" y="412.458" width="2" height="1.333" transform="translate(1318.883 809.561) rotate(-180)"/><rect class="cls-34" x="674.427" y="411.125" width="0.667" height="3.334" transform="translate(1320.217 808.894) rotate(-180)"/><rect class="cls-34" x="594.452" y="395.769" width="2.667" height="1.333"/><rect class="cls-34" x="594.452" y="394.436" width="1.333" height="3.334"/><polygon class="cls-35" points="644.456 394.436 644.456 397.103 642.456 397.103 640.97 398.436 640.456 399.769 636.617 399.769 635.789 397.769 606.453 397.769 605.009 399.769 600.89 399.769 599.786 397.103 596.453 397.103 596.453 394.436 644.456 394.436"/><rect class="cls-40" x="626.423" y="398.457" width="46.67" height="13.334" transform="translate(1270.213 793.56) rotate(-180)"/><circle class="cls-38" cx="638.567" cy="397.992" r="2.445"/><circle class="cls-38" cx="602.978" cy="397.992" r="2.445"/><rect class="cls-34" x="624.423" y="411.125" width="0.667" height="3.334" transform="translate(1220.209 808.894) rotate(-180)"/><polygon class="cls-36" points="818.226 388.367 817.001 388.362 815.303 383.101 816.47 383.101 818.226 388.367"/><polygon class="cls-36" points="749.777 388.367 751.002 388.362 752.7 383.101 751.534 383.101 749.777 388.367"/><rect class="cls-34" x="831.773" y="395.124" width="2.667" height="2.667" transform="translate(1636.908 776.225) rotate(-180)"/><rect class="cls-34" x="830.439" y="393.79" width="6" height="2" transform="translate(1637.575 772.891) rotate(-180)"/><rect class="cls-34" x="830.439" y="393.124" width="10.001" height="1.333" transform="translate(1641.575 770.891) rotate(-180)"/><rect class="cls-41" x="839.106" y="394.457" width="1.333" height="1.333" transform="translate(1650.242 773.558) rotate(-180)"/><rect class="cls-34" x="794.468" y="378.434" width="2.667" height="2.667"/><rect class="cls-34" x="793.134" y="377.101" width="5.334" height="2"/><rect class="cls-34" x="788.467" y="376.434" width="10.001" height="1.333"/><rect class="cls-41" x="788.467" y="377.768" width="2" height="1.333"/><rect class="cls-34" x="796.436" y="395.124" width="2.667" height="2.667" transform="translate(1566.236 776.225) rotate(-180)"/><rect class="cls-34" x="795.103" y="393.79" width="5.334" height="2" transform="translate(1566.236 772.891) rotate(-180)"/><rect class="cls-34" x="795.103" y="393.124" width="10.001" height="1.333" transform="translate(1570.903 770.891) rotate(-180)"/><rect class="cls-41" x="803.104" y="394.457" width="2" height="1.333" transform="translate(1578.903 773.558) rotate(-180)"/><rect class="cls-41" x="812.438" y="395.124" width="1.333" height="2.667" transform="translate(1596.905 776.225) rotate(-180)"/><rect class="cls-41" x="818.438" y="395.124" width="2" height="2.667" transform="translate(1609.572 776.225) rotate(-180)"/><rect class="cls-41" x="826.439" y="395.124" width="1.333" height="2.667" transform="translate(1624.907 776.225) rotate(-180)"/><rect class="cls-41" x="807.771" y="395.124" width="1.333" height="2.667" transform="translate(1587.571 776.225) rotate(-180)"/><rect class="cls-41" x="805.771" y="395.124" width="1.333" height="2.667" transform="translate(1583.57 776.225) rotate(-180)"/><rect class="cls-41" x="803.104" y="395.124" width="1.333" height="2.667" transform="translate(1578.237 776.225) rotate(-180)"/><rect class="cls-34" x="789.103" y="396.457" width="3.334" height="1.333" transform="translate(1552.235 777.558) rotate(-180)"/><rect class="cls-34" x="787.769" y="393.79" width="6" height="2.667" transform="translate(1552.235 773.558) rotate(-180)"/><polygon class="cls-34" points="758.798 372.434 759.576 372.434 762.243 377.768 761.465 377.768 758.798 372.434"/><rect class="cls-34" x="787.102" y="387.123" width="2.667" height="2" transform="translate(1547.568 759.557) rotate(-180)"/><polyline class="cls-34" points="818.357 395.695 817.136 399.769 791.134 399.769 790.468 399.103 778.467 399.103 777.633 399.769 750.464 399.769 749.131 396.686 749.131 393.464 817.553 393.102 818.774 395.033"/><rect class="cls-37" x="751.131" y="393.102" width="64.672" height="2.667"/><path class="cls-36" d="M835.773,403.347" transform="translate(-29.304 -16.689)"/><line class="cls-42" x1="806.802" y1="386.435" x2="806.802" y2="394.436"/><line class="cls-42" x1="809.469" y1="386.435" x2="809.469" y2="394.436"/><line class="cls-42" x1="756.798" y1="386.435" x2="756.798" y2="394.436"/><line class="cls-42" x1="759.465" y1="386.435" x2="759.465" y2="394.436"/><rect class="cls-34" x="849.774" y="411.125" width="1.333" height="2.667" transform="translate(1671.577 808.228) rotate(-180)"/><rect class="cls-34" x="845.774" y="411.792" width="4" height="0.667" transform="translate(1666.243 807.561) rotate(-180)"/><circle class="cls-38" cx="805.913" cy="397.992" r="2.445"/><circle class="cls-38" cx="794.579" cy="397.992" r="2.445"/><circle class="cls-38" cx="774.577" cy="397.992" r="2.445"/><circle class="cls-38" cx="763.243" cy="397.992" r="2.445"/><rect class="cls-43" x="769.859" y="272.737" width="67.202" height="4.967"/><path class="cls-44" d="M799.3,295.829h-3.746a.556.556,0,0,1-.556-.518l-.2-3.19a.78.78,0,0,1,.385-.728l.351-.2-.365-.6h-.275a.644.644,0,0,1-.644-.644v-1.911a.3.3,0,0,1,.3-.3h.146v-1.065a10.442,10.442,0,0,1,.258-2.311l1.333-5.9a5.23,5.23,0,0,1,.268-.846l1-2.425a2.4,2.4,0,0,1,2.222-1.484h9.692v15.306l-5.786.662a4.82,4.82,0,0,0-4.242,4.345Z" transform="translate(-29.304 -16.689)"/><path class="cls-45" d="M797.279,279.251l-.649,4.762,6.242-.4v-5.066h-4.788A.813.813,0,0,0,797.279,279.251Z" transform="translate(-29.304 -16.689)"/><polygon class="cls-44" points="772.38 256.744 772.38 256.115 780.166 252.688 780.166 255.386 772.38 256.744"/><circle class="cls-46" cx="775.745" cy="278.052" r="4.098"/><circle class="cls-47" cx="775.745" cy="278.052" r="2.31"/><circle class="cls-48" cx="775.745" cy="278.052" r="1.743"/><circle class="cls-49" cx="775.745" cy="278.052" r="1.012"/><circle class="cls-49" cx="776.286" cy="276.768" r="0.244"/><circle class="cls-49" cx="775.499" cy="276.68" r="0.244"/><circle class="cls-49" cx="774.804" cy="277.026" r="0.244"/><circle class="cls-49" cx="774.403" cy="277.686" r="0.244"/><circle class="cls-49" cx="774.426" cy="278.488" r="0.244"/><circle class="cls-49" cx="774.863" cy="279.122" r="0.244"/><circle class="cls-49" cx="775.58" cy="279.428" r="0.244"/><circle class="cls-49" cx="776.366" cy="279.292" r="0.244"/><circle class="cls-49" cx="776.932" cy="278.772" r="0.244"/><circle class="cls-49" cx="777.134" cy="278.006" r="0.244"/><circle class="cls-49" cx="776.886" cy="277.255" r="0.244"/><circle class="cls-49" cx="776.286" cy="276.768" r="0.244"/><circle class="cls-46" cx="814.387" cy="278.052" r="4.098"/><circle class="cls-47" cx="814.288" cy="278.052" r="2.31"/><circle class="cls-48" cx="814.288" cy="278.052" r="1.743"/><circle class="cls-49" cx="814.288" cy="278.052" r="1.012"/><circle class="cls-49" cx="814.829" cy="276.768" r="0.244"/><circle class="cls-49" cx="814.042" cy="276.68" r="0.244"/><circle class="cls-49" cx="813.347" cy="277.026" r="0.244"/><circle class="cls-49" cx="812.946" cy="277.686" r="0.244"/><circle class="cls-49" cx="812.969" cy="278.488" r="0.244"/><circle class="cls-49" cx="813.406" cy="279.122" r="0.244"/><circle class="cls-49" cx="814.123" cy="279.428" r="0.244"/><circle class="cls-49" cx="814.909" cy="279.292" r="0.244"/><circle class="cls-49" cx="815.474" cy="278.772" r="0.244"/><circle class="cls-49" cx="815.677" cy="278.006" r="0.244"/><circle class="cls-49" cx="815.429" cy="277.255" r="0.244"/><circle class="cls-49" cx="814.829" cy="276.768" r="0.244"/><circle class="cls-46" cx="825.066" cy="278.052" r="4.098"/><circle class="cls-47" cx="825.066" cy="278.052" r="2.31"/><circle class="cls-48" cx="825.066" cy="278.052" r="1.743"/><circle class="cls-49" cx="825.066" cy="278.052" r="1.012"/><circle class="cls-49" cx="825.607" cy="276.768" r="0.244"/><circle class="cls-49" cx="824.82" cy="276.68" r="0.244"/><circle class="cls-49" cx="824.125" cy="277.026" r="0.244"/><circle class="cls-49" cx="823.724" cy="277.686" r="0.244"/><circle class="cls-49" cx="823.747" cy="278.488" r="0.244"/><circle class="cls-49" cx="824.184" cy="279.122" r="0.244"/><circle class="cls-49" cx="824.901" cy="279.428" r="0.244"/><circle class="cls-49" cx="825.687" cy="279.292" r="0.244"/><circle class="cls-49" cx="826.253" cy="278.772" r="0.244"/><circle class="cls-49" cx="826.455" cy="278.006" r="0.244"/><circle class="cls-49" cx="826.207" cy="277.255" r="0.244"/><circle class="cls-49" cx="825.607" cy="276.768" r="0.244"/><rect class="cls-44" x="781.432" y="252.175" width="59.382" height="20.96"/><path class="cls-50" d="M838.625,295.474a5.056,5.056,0,1,1,10.091,0h-.32a4.735,4.735,0,1,0-9.451,0Z" transform="translate(-29.304 -16.689)"/><path class="cls-50" d="M849.258,295.474a5.056,5.056,0,1,1,10.091,0h-.319a4.735,4.735,0,1,0-9.452,0Z" transform="translate(-29.304 -16.689)"/><path class="cls-50" d="M806.737,290.188l1.874,2.738a2.936,2.936,0,0,1,.56,1.589V296.6l.845.029v-2.661a2.792,2.792,0,0,0-.519-1.5l-1.468-2.288Z" transform="translate(-29.304 -16.689)"/><polygon class="cls-43" points="839.031 273.135 839.031 274.194 840.488 274.194 840.488 275.088 836.746 275.088 836.746 275.742 837.773 275.742 837.773 278.048 838.617 278.048 838.617 279.228 837.938 279.228 837.938 279.438 838.617 279.438 838.617 280.362 837.061 280.362 837.061 279.625 834.462 279.625 834.462 273.135 839.031 273.135"/><rect class="cls-51" x="796.978" y="275.221" width="7.252" height="3.564"/><rect class="cls-51" x="781.084" y="274.89" width="4.735" height="4.652"/><circle class="cls-52" cx="783.485" cy="276.726" r="0.629"/><circle class="cls-53" cx="788.717" cy="278.365" r="1.01"/><circle class="cls-53" cx="790.95" cy="278.365" r="1.01"/><rect class="cls-54" x="785.819" y="278.365" width="10.982" height="0.698"/><rect class="cls-53" x="787.309" y="275.221" width="4.768" height="2.135"/><rect class="cls-53" x="796.217" y="273.954" width="0.596" height="4.411"/><rect class="cls-53" x="807.276" y="273.954" width="0.596" height="4.411"/><rect class="cls-50" x="791.713" y="273.764" width="19.04" height="0.331"/><rect class="cls-55" x="805.223" y="275.585" width="1.523" height="3.129"/><rect class="cls-56" x="798.435" y="275.221" width="0.497" height="1.547"/><rect class="cls-56" x="802.078" y="275.221" width="0.497" height="1.547"/><rect class="cls-50" x="830.045" y="277.012" width="7.016" height="0.693"/><path class="cls-50" d="M809.469,290.172h-5.786a3.886,3.886,0,0,0-3.745,3.848l-.079,2.211h-4.622a.558.558,0,0,1-.556-.518l-.252-3.592a.78.78,0,0,1,.385-.728l.351-.2v-.6h5.116l.575-.618a4.35,4.35,0,0,1,2.18-.963h6.433Z" transform="translate(-29.304 -16.689)"/><rect class="cls-57" x="781.432" y="272.39" width="59.382" height="1.109"/><path class="cls-3" d="M188.419,17.156,81.764,219.235H44.873c-8.6,0-15.569-7.676-15.569-17.147V34.3c0-9.471,6.969-17.147,15.569-17.147Z" transform="translate(-29.304 -16.689)"/></g></g></svg>