<svg id="Layer_1" data-name="Layer 1" xmlns="http://www.w3.org/2000/svg" viewBox="0 0 1537.482 378.089"><defs><style>.cls-1{fill:#bebebe;}.cls-10,.cls-13,.cls-18,.cls-2,.cls-25,.cls-26,.cls-27,.cls-28,.cls-29,.cls-30,.cls-31,.cls-32,.cls-33,.cls-34,.cls-35,.cls-36,.cls-4,.cls-5,.cls-6,.cls-7,.cls-9{fill:none;stroke-miterlimit:10;}.cls-2,.cls-29,.cls-31,.cls-32,.cls-33{stroke:#919191;}.cls-2,.cls-26,.cls-7{stroke-width:2.774px;}.cls-3{fill:#797979;}.cls-28,.cls-4{stroke:#a7a7a7;}.cls-18,.cls-4,.cls-6{stroke-linecap:round;}.cls-4{stroke-width:6.444px;stroke-dasharray:8.936 8.936;}.cls-36,.cls-5,.cls-7{stroke:#797979;}.cls-29,.cls-5{stroke-width:2.387px;}.cls-26,.cls-27,.cls-30,.cls-34,.cls-35,.cls-6{stroke:#bebebe;}.cls-6{stroke-width:13.922px;}.cls-8{fill:#dbc8b5;}.cls-13,.cls-25,.cls-9{stroke:#fff;}.cls-9{stroke-width:6.335px;}.cls-10{stroke:#d4d4d4;stroke-width:6.076px;}.cls-11{fill:#e9e9e9;}.cls-12{fill:#fff;}.cls-13{stroke-width:7.009px;}.cls-14{fill:#d4d4d4;}.cls-15{fill:#ad9f8e;}.cls-16{fill:#4b4b4b;}.cls-17{fill:#536070;}.cls-18{stroke:#4b4b4b;stroke-width:0.704px;}.cls-19{fill:#a7a7a7;}.cls-20{fill:#d8bcb2;}.cls-21{fill:#ac958d;}.cls-22{fill:#b6bcc4;}.cls-23{fill:#919191;}.cls-24{fill:#5d5263;}.cls-25{stroke-width:0.597px;}.cls-27,.cls-31{stroke-width:3px;}.cls-28{stroke-width:3.975px;}.cls-30{stroke-width:2px;}.cls-32{stroke-width:3.388px;}.cls-33{stroke-width:3.104px;}.cls-34{stroke-width:7px;}.cls-35{stroke-width:6.188px;}.cls-36{stroke-width:19.098px;}</style></defs><title>4_illu</title><rect class="cls-1" x="704.157" y="321.952" width="11.444" height="33.766" transform="translate(1406.452 650.452) rotate(-180)"/><path class="cls-2" d="M486.138,399.065h23.146a8.25,8.25,0,0,0,8.25-8.25V256.12a8.249,8.249,0,0,1,8.249-8.249h29.9" transform="translate(-13.305 -27.218)"/><path class="cls-2" d="M486.138,392.823h17.536a7.1,7.1,0,0,0,7.1-7.1V245.952a7.1,7.1,0,0,1,7.1-7.1h42.838" transform="translate(-13.305 -27.218)"/><path class="cls-2" d="M486.139,385.887h10.6a7.1,7.1,0,0,0,7.1-7.1l-.578-141.932a7.1,7.1,0,0,1,7.1-7.1h56.71" transform="translate(-13.305 -27.218)"/><rect class="cls-3" x="1370.523" y="365.439" width="4.007" height="12.356"/><rect class="cls-3" x="1412.6" y="365.439" width="4.007" height="12.356"/><rect class="cls-1" x="1362.397" y="310.908" width="64.618" height="56.929"/><polygon class="cls-1" points="1416.997 311.417 1372.416 311.417 1362.397 289.996 1427.015 289.996 1416.997 311.417"/><rect class="cls-1" x="1418.929" y="332.333" width="32.228" height="23.872"/><circle class="cls-4" cx="1226.754" cy="279.682" r="82.487" transform="translate(148.238 922.145) rotate(-45)"/><rect class="cls-1" x="1288.832" y="77.175" width="25.326" height="5.52"/><rect class="cls-3" x="1288.832" y="77.175" width="25.326" height="3.104"/><polygon class="cls-1" points="1310.84 86.25 1303.191 90.036 1299.641 90.036 1292.149 86.25 1292.149 82.695 1310.84 82.695 1310.84 86.25"/><rect class="cls-3" x="1292.149" y="82.695" width="18.691" height="1.778"/><path class="cls-1" d="M1315.223,125.231h-.846a.76.76,0,0,1-.76-.76v-9.526h2.366v9.526A.76.76,0,0,1,1315.223,125.231Z" transform="translate(-13.305 -27.218)"/><rect class="cls-3" x="1300.312" y="90.036" width="2.366" height="1.344"/><polygon class="cls-1" points="1295.763 103.053 1293.789 101.624 1294.088 99.635 1299.179 95.301 1301.233 95.279 1301.19 97.418 1299.222 97.418 1294.922 100.554 1294.516 101.367 1295.763 102.727 1295.763 103.053"/><polygon class="cls-1" points="1307.475 103.063 1309.468 101.624 1309.169 99.635 1304.078 95.301 1302.024 95.279 1302.067 97.418 1304.035 97.418 1308.335 100.554 1308.741 101.367 1307.475 102.736 1307.475 103.063"/><path class="cls-5" d="M847.618,308.489s1.542,9.264-10.717,18.442" transform="translate(-13.305 -27.218)"/><path class="cls-5" d="M898.854,334.585c4.924,1.343,7.655,7.891,6.267,16.412" transform="translate(-13.305 -27.218)"/><circle class="cls-1" cx="902.802" cy="129.107" r="15.212"/><polyline class="cls-6" points="859.53 161.546 819.02 203.044 808.509 178"/><path class="cls-2" d="M1006.113,228.055h-27.98a8.425,8.425,0,0,0-8.425,8.425V362.863a8.425,8.425,0,0,1-8.425,8.426H768.471" transform="translate(-13.305 -27.218)"/><path class="cls-2" d="M1000.145,222.087h-27.98a8.425,8.425,0,0,0-8.425,8.425V356.9a8.425,8.425,0,0,1-8.425,8.426H768.422" transform="translate(-13.305 -27.218)"/><path class="cls-5" d="M768.471,371.289H754.8a8.425,8.425,0,0,1-8.425-8.426V322.947" transform="translate(-13.305 -27.218)"/><path class="cls-5" d="M768.422,365.321h-7.659a8.425,8.425,0,0,1-8.425-8.426V316.979" transform="translate(-13.305 -27.218)"/><rect class="cls-3" x="391.121" y="396.984" width="2.774" height="8.323" transform="translate(771.711 775.073) rotate(-180)"/><rect class="cls-3" x="279.981" y="396.984" width="2.774" height="8.323" transform="translate(549.43 775.073) rotate(-180)"/><rect class="cls-3" x="373.61" y="396.984" width="2.774" height="8.323" transform="translate(736.689 775.073) rotate(-180)"/><rect class="cls-3" x="170.69" y="396.984" width="2.774" height="8.323" transform="translate(330.849 775.073) rotate(-180)"/><rect class="cls-3" x="264.319" y="396.984" width="2.774" height="8.323" transform="translate(518.108 775.073) rotate(-180)"/><rect class="cls-1" x="82.665" y="141.047" width="3.5" height="236.542"/><rect class="cls-1" x="109.665" y="141.047" width="3.5" height="236.542"/><rect class="cls-3" x="82.665" y="141.047" width="3.5" height="45.842"/><rect class="cls-3" x="109.665" y="141.047" width="3.5" height="45.842"/><rect class="cls-1" x="83.665" y="350.547" width="28" height="2.5"/><rect class="cls-1" x="83.665" y="330.547" width="28" height="2.5"/><rect class="cls-1" x="83.665" y="310.547" width="28" height="2.5"/><rect class="cls-1" x="83.665" y="290.547" width="28" height="2.5"/><rect class="cls-1" x="83.665" y="270.547" width="28" height="2.5"/><rect class="cls-1" x="83.665" y="250.547" width="28" height="2.5"/><rect class="cls-1" x="83.665" y="230.547" width="28" height="2.5"/><rect class="cls-1" x="83.665" y="210.547" width="28" height="2.5"/><rect class="cls-1" x="83.665" y="190.547" width="28" height="2.5"/><rect class="cls-3" x="83.665" y="170.547" width="28" height="2.5"/><rect class="cls-3" x="83.665" y="150.547" width="28" height="2.5"/><path class="cls-2" d="M439.279,373.4" transform="translate(-13.305 -27.218)"/><rect class="cls-1" x="553.656" y="244.556" width="5.548" height="6.629" transform="translate(1099.556 468.523) rotate(-180)"/><rect class="cls-1" x="553.656" y="235.54" width="5.548" height="6.629" transform="translate(1099.556 450.491) rotate(-180)"/><rect class="cls-1" x="553.656" y="226.446" width="5.548" height="6.629" transform="translate(1099.556 432.303) rotate(-180)"/><path class="cls-2" d="M392.508,392.823" transform="translate(-13.305 -27.218)"/><path class="cls-7" d="M328.255,367.855v17.871a7.1,7.1,0,0,0,7.1,7.1H375" transform="translate(-13.305 -27.218)"/><path class="cls-2" d="M392.507,385.887" transform="translate(-13.305 -27.218)"/><path class="cls-7" d="M439.279,373.4v17.412c0,4.556,3.174,8.25,7.73,8.25h39.129" transform="translate(-13.305 -27.218)"/><line class="cls-7" x1="379.203" y1="365.605" x2="472.833" y2="365.605"/><line class="cls-7" x1="379.202" y1="358.669" x2="472.834" y2="358.669"/><line class="cls-7" x1="266.675" y1="358.669" x2="361.693" y2="358.669"/><line class="cls-2" x1="361.693" y1="365.605" x2="379.203" y2="365.605"/><line class="cls-2" x1="361.693" y1="358.669" x2="379.202" y2="358.669"/><path class="cls-7" d="M218.964,360.92v17.87a7.1,7.1,0,0,0,7.1,7.1h38.258" transform="translate(-13.305 -27.218)"/><line class="cls-2" x1="251.014" y1="358.669" x2="266.675" y2="358.669"/><rect class="cls-1" x="578.851" y="233.6" width="42.24" height="5.423" transform="translate(1186.636 445.405) rotate(-180)"/><rect class="cls-3" x="600.124" y="266.943" width="18.726" height="9.363" transform="translate(1205.669 516.032) rotate(-180)"/><rect class="cls-1" x="389.387" y="310.29" width="6.242" height="87.734" transform="translate(771.711 681.097) rotate(-180)"/><rect class="cls-1" x="278.247" y="310.29" width="6.242" height="87.734" transform="translate(549.43 681.097) rotate(-180)"/><rect class="cls-1" x="371.876" y="310.29" width="6.242" height="87.734" transform="translate(736.689 681.097) rotate(-180)"/><rect class="cls-1" x="168.956" y="310.29" width="6.242" height="87.734" transform="translate(330.849 681.097) rotate(-180)"/><rect class="cls-1" x="262.585" y="310.29" width="6.242" height="87.734" transform="translate(518.108 681.097) rotate(-180)"/><polygon class="cls-3" points="382.325 300.14 376.083 295.14 376.083 283.072 382.325 283.072 382.325 300.14"/><polygon class="cls-3" points="271.184 300.14 264.942 295.14 264.942 283.072 271.184 283.072 271.184 300.14"/><polygon class="cls-3" points="364.814 295.14 358.572 300.14 358.572 283.072 364.814 283.072 364.814 295.14"/><polygon class="cls-3" points="161.894 300.14 155.652 295.14 155.652 283.072 161.894 273.072 161.894 300.14"/><polygon class="cls-3" points="255.523 295.14 249.281 300.14 249.281 283.072 255.523 283.072 255.523 295.14"/><ellipse class="cls-8" cx="1203.867" cy="268.308" rx="4.004" ry="2.771" transform="translate(195.884 970.406) rotate(-48.814)"/><ellipse class="cls-8" cx="1203.321" cy="266.5" rx="2.935" ry="2.031" transform="translate(-1.694 553.656) rotate(-27.266)"/><path class="cls-9" d="M1232.329,260.568s-2.108-5.615-13.367-5.6c-9.573.011-13.367,11.257-13.367,11.257" transform="translate(-13.305 -27.218)"/><rect class="cls-8" x="1236.367" y="245.671" width="5.279" height="12.274" rx="2.64" ry="2.64" transform="translate(2340.267 821.489) rotate(-163.317)"/><ellipse class="cls-8" cx="1275.63" cy="247.935" rx="4.004" ry="2.771" transform="translate(467.038 1248.443) rotate(-63.265)"/><ellipse class="cls-8" cx="1273.749" cy="248.109" rx="2.935" ry="2.031" transform="translate(898.201 1466.995) rotate(-84.813)"/><line class="cls-10" x1="1253.241" y1="296.722" x2="1257.549" y2="301.531"/><path class="cls-11" d="M1234.3,254.977l8.443,6.125.316-1.054a4.51,4.51,0,0,0-3.025-5.613l-5.112-1.532Z" transform="translate(-13.305 -27.218)"/><path class="cls-12" d="M1270.373,323.154h5.064a3.009,3.009,0,0,0,.744-.093l1.133-.287a4.45,4.45,0,0,0,1.83-.96l1.164-1.017c.845-.739,1.711-1.13,2.449-.285l.173.2-4.333,4.627-3.572,3.122-.9.2a2.7,2.7,0,0,0-2.012,1.927l-.148.547-2.434,2.126-1.1-1.256-3.107-3.556.959-.853a4.119,4.119,0,0,0,3.864-3.31Z" transform="translate(-13.305 -27.218)"/><line class="cls-10" x1="1194.789" y1="307.534" x2="1188.77" y2="309.869"/><path class="cls-12" d="M1207.48,338.61l-1.785,4.739a3.053,3.053,0,0,0-.175.729l-.131,1.162a4.435,4.435,0,0,0,.253,2.051l.541,1.447c.393,1.051.453,2-.6,2.393l-.245.092-2.8-5.687-1.661-4.443.129-.914a2.7,2.7,0,0,0-1.094-2.564l-.459-.331-1.131-3.027,1.562-.584,4.424-1.653.46,1.2A4.119,4.119,0,0,0,1206.5,338Z" transform="translate(-13.305 -27.218)"/><path class="cls-13" d="M1228.461,294.452s-2.155,18.824-3.039,27.394c-1.145,11.112-19.278,13.55-19.278,13.55" transform="translate(-13.305 -27.218)"/><path class="cls-13" d="M1232.243,295.66a94.779,94.779,0,0,1,14.185,3.777c4.973,1.809,9.774,4.268,11.589,7.379,4.869,8.342,9.531,18.574,9.531,18.574" transform="translate(-13.305 -27.218)"/><path class="cls-14" d="M1239.079,292.361c-.05,3.522-7.311,6.318-10.833,6.268a6.378,6.378,0,0,1,.181-12.755C1231.949,285.925,1239.129,288.839,1239.079,292.361Z" transform="translate(-13.305 -27.218)"/><path class="cls-12" d="M1235.8,255.041h0a3.043,3.043,0,0,0-3.789,2.042s-5.492,1.027-8.152,9.428c-2.937,9.278-2.254,25.978-2.254,25.978l19.132,3.627,3.829-19.621C1248.246,264.205,1242.562,257.069,1235.8,255.041Z" transform="translate(-13.305 -27.218)"/><path class="cls-8" d="M1238.637,235.2l-.34,13.458a4.224,4.224,0,0,0,4.116,4.328h0l5.277.133a4.223,4.223,0,0,0,4.329-4.115l.339-13.457Z" transform="translate(-13.305 -27.218)"/><path class="cls-15" d="M1252.468,231.2l-9.411-.275L1242,230.9a2.638,2.638,0,0,0-2.7,2.572h0l-.615-.049c-.137,1.951-.347,13.755-.347,13.755l1.143.028a2.11,2.11,0,0,0,2.164-2.057h0l.134-5.282a1.068,1.068,0,0,1,1.094-1.041l.516.013-.053,2.111h0a2.112,2.112,0,0,0,2.164-2.058h0l.008-.323a2.3,2.3,0,0,1,2.357-2.241l2.978.075,1.5.038Z" transform="translate(-13.305 -27.218)"/><path class="cls-16" d="M1253.172,228.376h0l-.01.374a1.716,1.716,0,0,1-1.758,1.672l1.583.04-9.912-.25-1.055-.027a2.639,2.639,0,0,0-2.7,2.572h0l-.528-.013a2.639,2.639,0,0,0-2.7,2.572h0l-.227,9a2.087,2.087,0,0,0,2.034,2.139l.552.014,1.055.027a2.112,2.112,0,0,0,2.164-2.058h0l.107-4.21a1.067,1.067,0,0,1,1.094-1.04l.516.013-.053,2.11h0a2.111,2.111,0,0,0,2.164-2.057h0l.035-1.4a2.3,2.3,0,0,1,2.357-2.24l2.978.075,1.584.04.522.013a3.679,3.679,0,0,0,3.77-3.585v-.011a3.679,3.679,0,0,0-3.563-3.77Z" transform="translate(-13.305 -27.218)"/><path class="cls-17" d="M1249.553,241.212a.539.539,0,1,0,.552-.526A.539.539,0,0,0,1249.553,241.212Z" transform="translate(-13.305 -27.218)"/><path class="cls-16" d="M1249.553,241.212a.539.539,0,1,0,.552-.526A.539.539,0,0,0,1249.553,241.212Z" transform="translate(-13.305 -27.218)"/><ellipse class="cls-12" cx="1250.107" cy="247.37" rx="0.874" ry="1.303" transform="translate(957.982 1463.623) rotate(-88.555)"/><path class="cls-8" d="M1252.013,241.021a6.043,6.043,0,0,0,1.691,2.227,5.062,5.062,0,0,0,2.027,1.049c.507.834-1.666.662-2.48.641,0,0-.99.652-1.352.568S1251.069,239.4,1252.013,241.021Z" transform="translate(-13.305 -27.218)"/><path class="cls-12" d="M1238.454,232.7l-2.244-9.478,7.877-1.865,2.248,9.5a1.15,1.15,0,0,1-.59,1.286,13.342,13.342,0,0,1-3.166,1.179,11.58,11.58,0,0,1-3.07.266A1.144,1.144,0,0,1,1238.454,232.7Z" transform="translate(-13.305 -27.218)"/><path class="cls-11" d="M1237.05,226.767a3.187,3.187,0,0,0,.813-.083,3.226,3.226,0,0,1,3.345.076,3.23,3.23,0,0,0,2.17-1.746,3.165,3.165,0,0,0,.724-.085,3.252,3.252,0,0,0,.763-.289l-.778-3.287-7.877,1.865Z" transform="translate(-13.305 -27.218)"/><circle class="cls-12" cx="1223.487" cy="194.945" r="3.238"/><circle class="cls-12" cx="1226.265" cy="192.624" r="3.238"/><circle class="cls-12" cx="1226.832" cy="195.021" r="3.238"/><circle class="cls-12" cx="1229.726" cy="193.191" r="3.238"/><path class="cls-18" d="M1251.332,245.711l-1.628-.041a2.81,2.81,0,0,0-2.009.773l-.159.152a1.167,1.167,0,0,1-1.649-.042h0" transform="translate(-13.305 -27.218)"/><path class="cls-9" d="M1239.418,263.022s17.658,8.994,22.568,6.723c10.724-4.959,12.141-20.226,12.141-20.226" transform="translate(-13.305 -27.218)"/><rect class="cls-19" x="1143.171" y="276.997" width="167.168" height="5.371" transform="translate(2355.635 780.251) rotate(-168.042)"/><ellipse class="cls-8" cx="34.362" cy="32.296" rx="4.004" ry="2.771" transform="translate(-26.087 3.955) rotate(-41.86)"/><ellipse class="cls-8" cx="34.684" cy="34.158" rx="2.935" ry="2.031" transform="translate(-23.006 -13.054) rotate(-20.312)"/><path class="cls-9" d="M43.184,72.6s-7.806,2.016-13.865-7.474C21.063,52.2,32.393,34.155,32.393,34.155" transform="translate(-13.305 -27.218)"/><path class="cls-8" d="M48.172,69.179h0a2.648,2.648,0,0,0,2.663-2.616l1.255-7a2.647,2.647,0,0,0-2.617-2.662h0a2.646,2.646,0,0,0-2.662,2.616l-1.255,6.994A2.647,2.647,0,0,0,48.172,69.179Z" transform="translate(-13.305 -27.218)"/><ellipse class="cls-8" cx="83.974" cy="41.226" rx="4.004" ry="2.771" transform="translate(10.686 85.795) rotate(-76.267)"/><ellipse class="cls-8" cx="82.18" cy="41.819" rx="2.031" ry="2.935" transform="translate(-18.229 -15.655) rotate(-7.816)"/><line class="cls-10" x1="68.459" y1="106.937" x2="72.766" y2="111.746"/><path class="cls-11" d="M44.609,66.845,53.6,72.13l.213-1.079a4.51,4.51,0,0,0-3.55-5.3l-5.236-1.033Z" transform="translate(-13.305 -27.218)"/><path class="cls-12" d="M85.591,133.369h5.064a3.015,3.015,0,0,0,.744-.093l1.133-.287a4.44,4.44,0,0,0,1.829-.96l1.164-1.017c.845-.739,1.711-1.13,2.45-.285l.172.2-4.332,4.628-3.572,3.122-.9.2a2.7,2.7,0,0,0-2.013,1.927l-.148.547-2.433,2.126-1.1-1.256-3.107-3.556.959-.853a4.119,4.119,0,0,0,3.864-3.31Z" transform="translate(-13.305 -27.218)"/><path class="cls-13" d="M47.461,105.875s21.43,3.714,25.774,11.156c4.869,8.342,9.531,18.574,9.531,18.574" transform="translate(-13.305 -27.218)"/><line class="cls-10" x1="27.826" y1="128.394" x2="27.928" y2="134.849"/><path class="cls-12" d="M44.537,157.527l3.825,3.318a3.032,3.032,0,0,0,.623.418l1.044.526a4.445,4.445,0,0,0,2.011.474l1.546,0c1.122,0,2.032.269,2.036,1.391v.262l-6.3.655-4.744.016-.813-.438a2.7,2.7,0,0,0-2.783.136l-.47.316-3.232.01-.006-1.668-.015-4.722,1.283-.016a4.118,4.118,0,0,0,5.088.033Z" transform="translate(-13.305 -27.218)"/><path class="cls-13" d="M43.678,104.667s3.813,18.824,2.93,27.394c-1.145,11.112-5.549,25.6-5.549,25.6" transform="translate(-13.305 -27.218)"/><path class="cls-14" d="M54.3,102.576c-.05,3.522-7.311,6.318-10.833,6.268a6.378,6.378,0,0,1,.182-12.755C47.167,96.14,54.346,99.054,54.3,102.576Z" transform="translate(-13.305 -27.218)"/><path class="cls-12" d="M46.1,66.765h0a3.044,3.044,0,0,0-3.576,2.4s-3.909,1.67-5.749,10.288c-2.032,9.517.039,23.254.039,23.254l19.133,3.627L56.2,86.71C59.882,74.42,53.033,68.133,46.1,66.765Z" transform="translate(-13.305 -27.218)"/><path class="cls-8" d="M48.714,45.649,47.036,59.006A4.223,4.223,0,0,0,50.7,63.723h0l5.237.658a4.223,4.223,0,0,0,4.717-3.664L62.332,47.36Z" transform="translate(-13.305 -27.218)"/><path class="cls-15" d="M62.875,43.043l-9.337-1.21L52.491,41.7a2.639,2.639,0,0,0-2.948,2.29h0l-.607-.11c-.331,1.928-1.715,13.652-1.715,13.652l1.135.142a2.11,2.11,0,0,0,2.358-1.831h0l.659-5.243a1.067,1.067,0,0,1,1.192-.926l.512.064-.263,2.1h0A2.111,2.111,0,0,0,55.172,50h0l.041-.321a2.3,2.3,0,0,1,2.568-1.995l2.956.372,1.484.186Z" transform="translate(-13.305 -27.218)"/><path class="cls-16" d="M63.856,40.3h0l-.046.371a1.715,1.715,0,0,1-1.916,1.489l1.571.2-9.838-1.236-1.047-.131a2.639,2.639,0,0,0-2.948,2.29h0l-.524-.066a2.639,2.639,0,0,0-2.948,2.29h0l-1.122,8.928a2.089,2.089,0,0,0,1.811,2.332l.548.069,1.048.131A2.111,2.111,0,0,0,50.8,55.134h0l.525-4.178a1.069,1.069,0,0,1,1.193-.927l.512.065-.264,2.095h0a2.113,2.113,0,0,0,2.359-1.832h0l.174-1.385a2.3,2.3,0,0,1,2.568-2l2.956.371,1.572.2.518.065a3.679,3.679,0,0,0,4.109-3.192v-.011a3.68,3.68,0,0,0-3.17-4.106Z" transform="translate(-13.305 -27.218)"/><path class="cls-17" d="M58.977,52.714a.539.539,0,1,0,.6-.468A.539.539,0,0,0,58.977,52.714Z" transform="translate(-13.305 -27.218)"/><path class="cls-16" d="M58.977,52.714a.539.539,0,1,0,.6-.468A.539.539,0,0,0,58.977,52.714Z" transform="translate(-13.305 -27.218)"/><ellipse class="cls-12" cx="58.915" cy="58.897" rx="0.874" ry="1.303" transform="translate(-20.171 82.793) rotate(-82.839)"/><path class="cls-8" d="M61.444,52.769a6.054,6.054,0,0,0,1.461,2.385A5.048,5.048,0,0,0,64.818,56.4c.421.88-1.724.493-2.532.391,0,0-1.05.55-1.4.431S60.666,51.061,61.444,52.769Z" transform="translate(-13.305 -27.218)"/><path class="cls-12" d="M48.782,43.136,47.493,33.48l8.023-1.071,1.292,9.672a1.151,1.151,0,0,1-.716,1.221,13.3,13.3,0,0,1-3.268.858,11.547,11.547,0,0,1-3.08-.041A1.143,1.143,0,0,1,48.782,43.136Z" transform="translate(-13.305 -27.218)"/><path class="cls-11" d="M47.975,37.1a3.181,3.181,0,0,0,1.711-.257,3.234,3.234,0,0,0,4.76-.857,3.144,3.144,0,0,0,1.517-.224l-.447-3.349L47.493,33.48Z" transform="translate(-13.305 -27.218)"/><circle class="cls-12" cx="34.872" cy="5.271" r="3.238"/><circle class="cls-12" cx="37.867" cy="3.238" r="3.238"/><circle class="cls-12" cx="38.193" cy="5.68" r="3.238"/><circle class="cls-12" cx="41.255" cy="4.147" r="3.238"/><path class="cls-18" d="M60.3,57.368l-1.616-.2a2.811,2.811,0,0,0-2.076.57l-.173.134a1.167,1.167,0,0,1-1.637-.2h0" transform="translate(-13.305 -27.218)"/><path class="cls-9" d="M50.476,74.36S73.2,70.093,76.765,66.021C85.12,56.472,83.143,43,83.143,43" transform="translate(-13.305 -27.218)"/><path class="cls-14" d="M1142.424,153.009h-7.05a2,2,0,0,1-1.927-1.962l-.331-12.276h11.574l-.339,12.276A2,2,0,0,1,1142.424,153.009Z" transform="translate(-13.305 -27.218)"/><path class="cls-12" d="M299.738,143.189H308.1c26.215,0,37.992,21.206,37.992,37.992v69.558H327.472V181.181c0-16.786-6.009-30.394-22.795-30.394h0Z" transform="translate(-13.305 -27.218)"/><path class="cls-20" d="M1318.38,153.009h-7.05a2,2,0,0,1-1.927-1.962l-.331-12.276h11.574l-.339,12.276A2,2,0,0,1,1318.38,153.009Z" transform="translate(-13.305 -27.218)"/><path class="cls-21" d="M1309.21,144.1l.193,6.809a1.893,1.893,0,0,0,1.853,2.1h7.209a1.969,1.969,0,0,0,1.842-2.1l.193-6.809Z" transform="translate(-13.305 -27.218)"/><path class="cls-20" d="M1303.68,153.009h-7.05a2,2,0,0,1-1.927-1.962l-.331-12.276h11.574l-.339,12.276A2,2,0,0,1,1303.68,153.009Z" transform="translate(-13.305 -27.218)"/><path class="cls-21" d="M1294.51,144.1l.193,6.809a1.893,1.893,0,0,0,1.853,2.1h7.209a1.97,1.97,0,0,0,1.842-2.1l.193-6.809Z" transform="translate(-13.305 -27.218)"/><path class="cls-20" d="M1288.832,153.009h-7.05a2,2,0,0,1-1.926-1.962l-.332-12.276H1291.1l-.339,12.276A2,2,0,0,1,1288.832,153.009Z" transform="translate(-13.305 -27.218)"/><path class="cls-21" d="M1279.662,144.1l.194,6.809a1.892,1.892,0,0,0,1.852,2.1h7.21a1.969,1.969,0,0,0,1.841-2.1l.194-6.809Z" transform="translate(-13.305 -27.218)"/><path class="cls-20" d="M1259.75,153.009h-7.05a2,2,0,0,1-1.926-1.962l-.332-12.276h11.574l-.339,12.276A2,2,0,0,1,1259.75,153.009Z" transform="translate(-13.305 -27.218)"/><path class="cls-21" d="M1250.58,144.1l.194,6.809a1.892,1.892,0,0,0,1.852,2.1h7.21a1.969,1.969,0,0,0,1.841-2.1l.194-6.809Z" transform="translate(-13.305 -27.218)"/><path class="cls-20" d="M1274.372,153.009h-7.05a2,2,0,0,1-1.927-1.962l-.331-12.276h11.574l-.339,12.276A2,2,0,0,1,1274.372,153.009Z" transform="translate(-13.305 -27.218)"/><path class="cls-21" d="M1265.2,144.1l.193,6.809a1.893,1.893,0,0,0,1.853,2.1h7.21a1.969,1.969,0,0,0,1.841-2.1l.193-6.809Z" transform="translate(-13.305 -27.218)"/><path class="cls-14" d="M1172.759,153.009h-7.05a2,2,0,0,1-1.927-1.962l-.331-12.276h11.574l-.339,12.276A2,2,0,0,1,1172.759,153.009Z" transform="translate(-13.305 -27.218)"/><path class="cls-20" d="M1163.667,146.777l.115,4.129a1.893,1.893,0,0,0,1.853,2.1h7.209a1.97,1.97,0,0,0,1.842-2.1l.118-4.129Z" transform="translate(-13.305 -27.218)"/><path class="cls-14" d="M1187.366,153.009h-7.051a2,2,0,0,1-1.926-1.962l-.332-12.276h11.574l-.339,12.276A2,2,0,0,1,1187.366,153.009Z" transform="translate(-13.305 -27.218)"/><path class="cls-20" d="M1178.273,146.777l.116,4.129a1.892,1.892,0,0,0,1.852,2.1h7.21a1.969,1.969,0,0,0,1.841-2.1l.118-4.129Z" transform="translate(-13.305 -27.218)"/><path class="cls-14" d="M1201.018,153.009h-7.051a2,2,0,0,1-1.926-1.962l-.332-12.276h11.574l-.339,12.276A2,2,0,0,1,1201.018,153.009Z" transform="translate(-13.305 -27.218)"/><path class="cls-20" d="M1191.925,146.777l.116,4.129a1.892,1.892,0,0,0,1.852,2.1h7.21a1.969,1.969,0,0,0,1.841-2.1l.118-4.129Z" transform="translate(-13.305 -27.218)"/><path class="cls-14" d="M1216.236,153.009h-7.05a2,2,0,0,1-1.927-1.962l-.331-12.276H1218.5l-.339,12.276A2,2,0,0,1,1216.236,153.009Z" transform="translate(-13.305 -27.218)"/><path class="cls-20" d="M1207.144,146.777l.115,4.129a1.893,1.893,0,0,0,1.853,2.1h7.209a1.969,1.969,0,0,0,1.842-2.1l.118-4.129Z" transform="translate(-13.305 -27.218)"/><path class="cls-14" d="M1229.713,153.009h-7.05a2,2,0,0,1-1.927-1.962l-.331-12.276h11.574l-.339,12.276A2,2,0,0,1,1229.713,153.009Z" transform="translate(-13.305 -27.218)"/><path class="cls-20" d="M1220.621,146.777l.115,4.129a1.893,1.893,0,0,0,1.853,2.1h7.209a1.969,1.969,0,0,0,1.842-2.1l.118-4.129Z" transform="translate(-13.305 -27.218)"/><path class="cls-14" d="M1157.628,153.009h-7.05a2,2,0,0,1-1.927-1.962l-.331-12.276h11.574l-.339,12.276A2,2,0,0,1,1157.628,153.009Z" transform="translate(-13.305 -27.218)"/><path class="cls-20" d="M1245.57,153.009h-7.051a2,2,0,0,1-1.926-1.962l-.332-12.276h11.574l-.339,12.276A2,2,0,0,1,1245.57,153.009Z" transform="translate(-13.305 -27.218)"/><path class="cls-21" d="M1236.4,144.1l.194,6.809a1.892,1.892,0,0,0,1.852,2.1h7.21a1.969,1.969,0,0,0,1.841-2.1l.194-6.809Z" transform="translate(-13.305 -27.218)"/><path class="cls-21" d="M1236.4,144.1c1.376,0,4.728-6.108,4.7-15.974-.036-11.845,2.116,0,2.116,0s-.593,15.885,4.478,15.977l-.247,1.5-10.7.29Z" transform="translate(-13.305 -27.218)"/><rect class="cls-1" x="1220.85" y="90.256" width="15.748" height="3.977"/><polygon class="cls-22" points="1236.597 90.256 1220.85 90.256 1216.015 87.627 1241.432 87.627 1236.597 90.256"/><polygon class="cls-3" points="1236.597 90.256 1220.85 90.256 1216.015 87.627 1241.432 87.627 1236.597 90.256"/><rect class="cls-1" x="1216.015" y="77.217" width="25.417" height="10.409"/><rect class="cls-1" x="1214.694" y="82.908" width="28.06" height="2.688"/><rect class="cls-3" x="1216.015" y="85.596" width="25.417" height="0.849"/><rect class="cls-3" x="1216.015" y="76.82" width="25.417" height="1.09"/><rect class="cls-3" x="1210.981" y="73.184" width="35.484" height="4.033"/><path class="cls-3" d="M1244.143,128.6h-4.229c-.042-2.587-1.787-6.1-4.282-6.783l-1.477-.4H1249.9l-1.639.489c-2.411.719-4.078,4.182-4.12,6.7Z" transform="translate(-13.305 -27.218)"/><rect class="cls-1" x="1210.981" y="77.217" width="3.68" height="1.789"/><rect class="cls-3" x="1210.981" y="76.753" width="3.68" height="1.306"/><rect class="cls-1" x="1210.981" y="83.358" width="3.718" height="1.789"/><rect class="cls-1" x="1212.225" y="79.006" width="1.192" height="4.352"/><rect class="cls-3" x="1212.225" y="79.006" width="1.192" height="0.976"/><polygon class="cls-1" points="1204.339 86.781 1204.028 85.901 1210.007 83.785 1212.887 83.785 1212.887 84.718 1210.168 84.718 1204.339 86.781"/><path class="cls-1" d="M1238.449,124.187a9.177,9.177,0,0,1,1.455,4.51h4.2c.023,0,.559-3.222,1.449-4.51Z" transform="translate(-13.305 -27.218)"/><path class="cls-20" d="M1163.667,146.777c4.256-.037,4.649-8.783,4.619-18.649-.037-11.845,2.115,0,2.115,0s-1.418,20.139,4.4,18.649l-.447,1.175-10.257.6Z" transform="translate(-13.305 -27.218)"/><rect class="cls-1" x="1148.184" y="90.256" width="15.748" height="3.977"/><polygon class="cls-22" points="1163.931 90.256 1148.184 90.256 1143.349 87.627 1168.766 87.627 1163.931 90.256"/><polygon class="cls-3" points="1163.931 90.256 1148.184 90.256 1143.349 87.627 1168.766 87.627 1163.931 90.256"/><rect class="cls-1" x="1143.349" y="77.217" width="25.417" height="10.409"/><rect class="cls-1" x="1142.028" y="82.908" width="28.06" height="2.688"/><rect class="cls-3" x="1143.349" y="85.596" width="25.417" height="0.849"/><rect class="cls-3" x="1143.349" y="76.943" width="25.417" height="1.169"/><rect class="cls-3" x="1138.315" y="73.184" width="35.484" height="4.033"/><path class="cls-3" d="M1171.478,128.6h-4.23c-.042-2.587-1.786-6.1-4.282-6.783l-1.477-.4h15.748l-1.639.489c-2.411.719-4.078,4.182-4.12,6.7Z" transform="translate(-13.305 -27.218)"/><rect class="cls-1" x="1138.315" y="77.217" width="3.68" height="1.789"/><rect class="cls-3" x="1138.315" y="76.699" width="3.68" height="1.314"/><rect class="cls-1" x="1138.315" y="83.358" width="3.718" height="1.789"/><rect class="cls-1" x="1139.56" y="79.006" width="1.192" height="4.352"/><rect class="cls-23" x="1139.56" y="79.006" width="1.192" height="0.976"/><polygon class="cls-1" points="1131.673 86.781 1131.362 85.901 1137.342 83.785 1140.221 83.785 1140.221 84.718 1137.502 84.718 1131.673 86.781"/><path class="cls-1" d="M1165.784,124.187a9.186,9.186,0,0,1,1.454,4.51h4.2c.023,0,.559-3.222,1.45-4.51Z" transform="translate(-13.305 -27.218)"/><path class="cls-20" d="M1333.112,153.015h-7.136a2.027,2.027,0,0,1-1.95-1.986l-.336-12.425h11.715l-.343,12.425A2.028,2.028,0,0,1,1333.112,153.015Z" transform="translate(-13.305 -27.218)"/><path class="cls-21" d="M1323.83,143.994l.2,6.893a1.915,1.915,0,0,0,1.875,2.128h7.3a1.993,1.993,0,0,0,1.864-2.128l.2-6.893Z" transform="translate(-13.305 -27.218)"/><polygon class="cls-24" points="1310.4 111.8 1322.085 111.8 1322.1 110.664 1310.385 110.664 1310.4 111.8"/><polygon class="cls-24" points="1295.778 103.861 1307.463 103.861 1307.478 102.725 1295.764 102.725 1295.778 103.861"/><path class="cls-20" d="M1348.131,153.015H1341a2.029,2.029,0,0,1-1.95-1.986l-.335-12.425h11.715l-.344,12.425A2.027,2.027,0,0,1,1348.131,153.015Z" transform="translate(-13.305 -27.218)"/><path class="cls-21" d="M1338.85,143.994l.2,6.893a1.916,1.916,0,0,0,1.876,2.128h7.3a1.992,1.992,0,0,0,1.863-2.128l.2-6.893Z" transform="translate(-13.305 -27.218)"/><polygon class="cls-24" points="1325.42 111.8 1337.105 111.8 1337.12 110.664 1325.405 110.664 1325.42 111.8"/><path class="cls-20" d="M1363.2,153.015h-7.136a2.027,2.027,0,0,1-1.95-1.986l-.335-12.425h11.714l-.343,12.425A2.028,2.028,0,0,1,1363.2,153.015Z" transform="translate(-13.305 -27.218)"/><path class="cls-21" d="M1353.919,143.994l.2,6.893a1.915,1.915,0,0,0,1.875,2.128h7.3a1.993,1.993,0,0,0,1.864-2.128l.2-6.893Z" transform="translate(-13.305 -27.218)"/><polygon class="cls-24" points="1340.489 111.8 1352.174 111.8 1352.189 110.664 1340.474 110.664 1340.489 111.8"/><path class="cls-20" d="M1476.992,379.8h-7.136a2.028,2.028,0,0,1-1.95-1.986l-.335-12.425h11.715l-.344,12.425A2.027,2.027,0,0,1,1476.992,379.8Z" transform="translate(-13.305 -27.218)"/><path class="cls-21" d="M1467.71,370.782l.2,6.892a1.916,1.916,0,0,0,1.876,2.128h7.3a1.992,1.992,0,0,0,1.863-2.128l.2-6.892Z" transform="translate(-13.305 -27.218)"/><polygon class="cls-24" points="1454.281 338.587 1465.965 338.587 1465.98 337.451 1454.266 337.451 1454.281 338.587"/><path class="cls-20" d="M1492.509,379.8h-7.136a2.028,2.028,0,0,1-1.95-1.986l-.335-12.425H1494.8l-.344,12.425A2.027,2.027,0,0,1,1492.509,379.8Z" transform="translate(-13.305 -27.218)"/><path class="cls-21" d="M1483.227,370.782l.2,6.892a1.916,1.916,0,0,0,1.876,2.128h7.3a1.992,1.992,0,0,0,1.863-2.128l.2-6.892Z" transform="translate(-13.305 -27.218)"/><polygon class="cls-24" points="1469.798 338.587 1481.482 338.587 1481.497 337.451 1469.783 337.451 1469.798 338.587"/><path class="cls-20" d="M1507.728,379.8h-7.136a2.027,2.027,0,0,1-1.95-1.986l-.335-12.425h11.714l-.343,12.425A2.028,2.028,0,0,1,1507.728,379.8Z" transform="translate(-13.305 -27.218)"/><path class="cls-21" d="M1498.446,370.782l.2,6.892a1.915,1.915,0,0,0,1.875,2.128h7.3a1.993,1.993,0,0,0,1.864-2.128l.2-6.892Z" transform="translate(-13.305 -27.218)"/><polygon class="cls-24" points="1485.016 338.587 1496.701 338.587 1496.716 337.451 1485.001 337.451 1485.016 338.587"/><path class="cls-20" d="M1523.842,379.8h-7.136a2.027,2.027,0,0,1-1.95-1.986l-.336-12.425h11.715l-.343,12.425A2.028,2.028,0,0,1,1523.842,379.8Z" transform="translate(-13.305 -27.218)"/><path class="cls-21" d="M1514.56,370.782l.2,6.892a1.915,1.915,0,0,0,1.875,2.128h7.3a1.993,1.993,0,0,0,1.864-2.128l.2-6.892Z" transform="translate(-13.305 -27.218)"/><polygon class="cls-24" points="1501.13 338.587 1512.815 338.587 1512.83 337.451 1501.115 337.451 1501.13 338.587"/><path class="cls-20" d="M1539.359,379.8h-7.136a2.027,2.027,0,0,1-1.95-1.986l-.336-12.425h11.715l-.343,12.425A2.028,2.028,0,0,1,1539.359,379.8Z" transform="translate(-13.305 -27.218)"/><path class="cls-21" d="M1530.077,370.782l.2,6.892a1.915,1.915,0,0,0,1.875,2.128h7.3a1.993,1.993,0,0,0,1.864-2.128l.2-6.892Z" transform="translate(-13.305 -27.218)"/><polygon class="cls-24" points="1516.647 338.587 1528.332 338.587 1528.347 337.451 1516.632 337.451 1516.647 338.587"/><path class="cls-20" d="M1378.373,153.736l-7.066-1a2.027,2.027,0,0,1-1.654-2.238l1.4-12.351,11.6,1.635-2.074,12.257A2.027,2.027,0,0,1,1378.373,153.736Z" transform="translate(-13.305 -27.218)"/><path class="cls-21" d="M1370.441,143.509l-.768,6.852a1.914,1.914,0,0,0,1.56,2.369l7.225,1.019a1.994,1.994,0,0,0,2.143-1.847l1.156-6.8Z" transform="translate(-13.305 -27.218)"/><polygon class="cls-24" points="1357.707 111.346 1369.277 112.977 1369.451 111.854 1357.851 110.219 1357.707 111.346"/><path class="cls-12" d="M1418.5,276.782a16.909,16.909,0,1,0-33.3,5.873s4.164-11.112,9.759-1.721c2.566-8.861,10.438-7.181,12.773-2.132C1410.271,267.894,1418.5,276.782,1418.5,276.782Z" transform="translate(-13.305 -27.218)"/><polyline class="cls-25" points="1371.977 255.119 1390.355 262.901 1404.964 249.303"/><polyline class="cls-25" points="1394.381 250.506 1390.355 262.901 1381.623 253.115"/><path class="cls-20" d="M1410.039,304.115l-7.027,1.239a2.028,2.028,0,0,1-2.266-1.616l-2.487-12.179,11.536-2.034,1.82,12.3A2.028,2.028,0,0,1,1410.039,304.115Z" transform="translate(-13.305 -27.218)"/><path class="cls-21" d="M1399.332,296.844l1.39,6.753a1.915,1.915,0,0,0,2.216,1.77l7.186-1.267a1.992,1.992,0,0,0,1.466-2.419l-1-6.822Z" transform="translate(-13.305 -27.218)"/><polygon class="cls-24" points="1385.04 264.747 1396.547 262.718 1396.365 261.596 1384.828 263.63 1385.04 264.747"/><path class="cls-12" d="M1425.6,223.058a16.909,16.909,0,0,0-32.785-8.3s8.353-8.428,9.606,2.432c5.973-7.031,12.464-2.271,12.525,3.291C1421.737,211.576,1425.6,223.058,1425.6,223.058Z" transform="translate(-13.305 -27.218)"/><polyline class="cls-25" points="1379.718 187.288 1393.292 201.919 1412.191 195.505"/><polyline class="cls-25" points="1402.045 192.264 1393.292 201.919 1389.338 189.414"/><path class="cls-20" d="M1406.677,244.518l-6.918-1.75a2.027,2.027,0,0,1-1.4-2.4l2.723-12.129,11.357,2.874-3.381,11.962A2.027,2.027,0,0,1,1406.677,244.518Z" transform="translate(-13.305 -27.218)"/><path class="cls-21" d="M1399.892,233.5l-1.5,6.729a1.915,1.915,0,0,0,1.3,2.523l7.074,1.791a1.993,1.993,0,0,0,2.329-1.606l1.88-6.634Z" transform="translate(-13.305 -27.218)"/><polygon class="cls-24" points="1387.687 201.424 1399.014 204.291 1399.308 203.193 1387.951 200.319 1387.687 201.424"/><path class="cls-20" d="M1396.081,175.811l-5.253-4.83a2.027,2.027,0,0,1-.092-2.781l8.163-9.374,8.624,7.928-8.662,8.915A2.029,2.029,0,0,1,1396.081,175.811Z" transform="translate(-13.305 -27.218)"/><path class="cls-21" d="M1395.353,162.889l-4.52,5.206a1.916,1.916,0,0,0-.06,2.836l5.372,4.938a1.991,1.991,0,0,0,2.812-.305l4.809-4.941Z" transform="translate(-13.305 -27.218)"/><polygon class="cls-24" points="1385.324 131.923 1393.926 139.831 1394.706 139.005 1386.082 131.076 1385.324 131.923"/><path class="cls-1" d="M271.147,171.654h0A37.919,37.919,0,0,1,256.981,142.2v-.16a6.881,6.881,0,0,1,3.911-6.226l37.125-17.768,17.554,36.679L278.429,172.5A6.882,6.882,0,0,1,271.147,171.654Z" transform="translate(-13.305 -27.218)"/><path class="cls-1" d="M271.147,171.654h0A37.919,37.919,0,0,1,256.981,142.2v-.16a6.881,6.881,0,0,1,3.911-6.226l37.125-17.768,17.554,36.679L278.429,172.5A6.882,6.882,0,0,1,271.147,171.654Z" transform="translate(-13.305 -27.218)"/><rect class="cls-23" x="283.005" y="134.768" width="45.268" height="4.203" transform="translate(282.829 -225.099) rotate(64.25)"/><circle class="cls-23" cx="272.002" cy="117.68" r="4.632"/><rect class="cls-23" x="270.52" y="23.242" width="3.511" height="91.138"/><rect class="cls-1" x="433.774" y="355.024" width="11.097" height="2.081" transform="translate(865.34 684.911) rotate(-180)"/><rect class="cls-1" x="432.734" y="359.706" width="13.177" height="4.508" transform="translate(865.34 696.702) rotate(-180)"/><rect class="cls-1" x="322.634" y="355.024" width="11.097" height="2.081" transform="translate(643.06 684.911) rotate(-180)"/><rect class="cls-1" x="321.594" y="359.706" width="13.177" height="4.508" transform="translate(643.06 696.702) rotate(-180)"/><polygon class="cls-1" points="264.942 284.228 314.834 325.841 364.813 284.228 364.813 205.626 264.942 205.626 264.942 284.228"/><path class="cls-26" d="M624.72,367.162H599.009a9.867,9.867,0,0,1-9.866-9.867V217.567a9.87,9.87,0,0,1,2.41-6.462l11.114-12.823" transform="translate(-13.305 -27.218)"/><line class="cls-2" x1="678.483" y1="321.218" x2="678.483" y2="339.943"/><line class="cls-7" x1="678.483" y1="339.943" x2="611.415" y2="339.943"/><rect class="cls-3" x="683.35" y="306.476" width="35.718" height="19.073" transform="translate(1389.113 604.806) rotate(-180)"/><rect class="cls-3" x="704.157" y="323.121" width="11.444" height="4.144" transform="translate(1406.452 623.168) rotate(-180)"/><rect class="cls-3" x="642.044" y="317.226" width="66.928" height="14.914" transform="translate(1337.71 622.147) rotate(-180)"/><rect class="cls-1" x="642.044" y="332.14" width="66.928" height="27.393" transform="translate(1337.71 664.454) rotate(-180)"/><rect class="cls-3" x="647.939" y="359.468" width="54.097" height="11.161" transform="translate(1336.669 702.879) rotate(-180)"/><rect class="cls-1" x="647.939" y="366.117" width="54.097" height="4.512" transform="translate(1336.669 709.528) rotate(-180)"/><rect class="cls-1" x="630.253" y="370.282" width="102.992" height="10.056" transform="translate(1350.194 723.403) rotate(-180)"/><rect class="cls-1" x="558.858" y="212.731" width="26.008" height="47.161" transform="translate(1130.419 445.405) rotate(-180)"/><rect class="cls-1" x="759.385" y="165.084" width="13.548" height="13.8" transform="translate(1519.014 316.749) rotate(-180)"/><rect class="cls-3" x="604.17" y="163.373" width="4.624" height="31.557" transform="translate(1199.658 331.085) rotate(-180)"/><rect class="cls-1" x="213.343" y="355.024" width="11.097" height="2.081" transform="translate(424.478 684.911) rotate(-180)"/><rect class="cls-1" x="212.303" y="359.706" width="13.177" height="4.508" transform="translate(424.478 696.702) rotate(-180)"/><polygon class="cls-1" points="155.651 284.228 205.543 325.841 255.522 284.228 255.522 205.626 155.651 205.626 155.651 284.228"/><rect class="cls-23" x="248.302" y="120.506" width="4.943" height="47.236" transform="translate(114.358 -144.825) rotate(34.922)"/><rect class="cls-23" x="231.852" y="124.148" width="4.943" height="47.236" transform="translate(186.058 -154.261) rotate(50.514)"/><rect class="cls-23" x="208.025" y="129.503" width="4.943" height="47.236" transform="translate(255.849 -127.699) rotate(66.99)"/><rect class="cls-23" x="177.095" y="132.931" width="4.943" height="47.236" transform="translate(279.052 -80.503) rotate(77.177)"/><rect class="cls-23" x="143.634" y="134.431" width="4.943" height="47.236" transform="translate(262.943 -40.602) rotate(79.955)"/><rect class="cls-23" x="115.882" y="134.431" width="4.943" height="47.236" transform="translate(240.031 -13.276) rotate(79.955)"/><rect class="cls-23" x="91.114" y="134.431" width="4.943" height="47.236" transform="translate(219.584 11.112) rotate(79.955)"/><rect class="cls-1" y="137.686" width="240.818" height="6.762"/><rect class="cls-23" x="1362.397" y="284.987" width="64.618" height="5.392"/><path class="cls-27" d="M1361.1,361.679V371a6.79,6.79,0,0,0,6.79,6.789h8.263" transform="translate(-13.305 -27.218)"/><rect class="cls-3" x="984.453" y="355.223" width="4.774" height="18.197"/><rect class="cls-3" x="986.029" y="364.419" width="1.623" height="13.572"/><rect class="cls-3" x="980.732" y="376.619" width="12.216" height="1.372"/><rect class="cls-3" x="1048.768" y="355.223" width="4.774" height="18.197"/><rect class="cls-3" x="1050.344" y="364.419" width="1.623" height="13.572"/><rect class="cls-3" x="1045.048" y="376.619" width="12.216" height="1.372"/><rect class="cls-3" x="1068.802" y="355.223" width="4.774" height="18.197"/><rect class="cls-3" x="1070.378" y="364.419" width="1.623" height="13.572"/><rect class="cls-3" x="1065.081" y="376.619" width="12.216" height="1.372"/><rect class="cls-3" x="1095.26" y="355.223" width="4.774" height="18.197"/><rect class="cls-3" x="1096.836" y="364.419" width="1.623" height="13.572"/><rect class="cls-3" x="1091.54" y="376.619" width="12.216" height="1.372"/><rect class="cls-3" x="1136.182" y="364.019" width="4.774" height="11.632"/><rect class="cls-3" x="1137.758" y="364.263" width="1.623" height="13.572"/><rect class="cls-3" x="1287.441" y="364.019" width="4.774" height="11.632"/><rect class="cls-3" x="1289.017" y="364.263" width="1.623" height="13.572"/><rect class="cls-1" x="973.909" y="187.906" width="18.7" height="18.7"/><rect class="cls-1" x="1030.159" y="58.995" width="20.341" height="6.764"/><rect class="cls-1" x="1014.293" y="57.603" width="16.313" height="9.35"/><rect class="cls-1" x="1006.734" y="55.55" width="20.291" height="30.103"/><rect class="cls-1" x="1009.917" y="74.114" width="29.443" height="11.538"/><rect class="cls-1" x="725.427" y="276.608" width="21.883" height="24.372"/><rect class="cls-3" x="725.427" y="276.608" width="21.883" height="21.367"/><circle class="cls-28" cx="1213.449" cy="252.464" r="84.804"/><path class="cls-29" d="M1135.223,156.1,1253.635,196.9a87.029,87.029,0,1,1-113.683,88.964l-17.063-122.6" transform="translate(-13.305 -27.218)"/><polygon class="cls-30" points="1213.449 357.547 1156.073 357.547 1184.761 304.95 1213.449 253.807 1242.138 305.677 1270.826 357.547 1213.449 357.547"/><line class="cls-31" x1="1050.165" y1="62.047" x2="1134.165" y2="62.047"/><rect class="cls-1" x="1120.971" y="25.773" width="212.188" height="48.143"/><rect class="cls-1" x="1117.89" y="54.918" width="4.676" height="14.72"/><rect class="cls-32" x="1109.175" y="127.566" width="258.166" height="16.941" rx="8.47" ry="8.47"/><rect class="cls-1" x="1125.295" y="358.635" width="178.673" height="13.688"/><circle class="cls-33" cx="1117.212" cy="136.037" r="7.154"/><circle class="cls-23" cx="1117.212" cy="136.037" r="3.765"/><circle class="cls-33" cx="1360.188" cy="136.037" r="7.154"/><circle class="cls-23" cx="1360.188" cy="136.037" r="3.765"/><circle class="cls-33" cx="1233.061" cy="136.037" r="7.154"/><circle class="cls-23" cx="1233.061" cy="136.037" r="3.765"/><rect class="cls-1" x="1067.894" y="105.667" width="55.957" height="20.38"/><rect class="cls-3" x="1050.102" y="327.161" width="19.894" height="4.377"/><rect class="cls-3" x="1053.285" y="306.306" width="18.7" height="4.511"/><rect class="cls-3" x="1053.285" y="172.496" width="18.7" height="4.511"/><rect class="cls-3" x="1055.026" y="153.038" width="18.7" height="4.511"/><rect class="cls-3" x="1283.256" y="73.12" width="36.477" height="5.52"/><rect class="cls-1" x="1283.256" y="76.261" width="36.477" height="2.379"/><rect class="cls-23" x="1426.773" y="352.227" width="110.71" height="3.979"/><path class="cls-3" d="M709.98,219.33c.945-2.767.089-3.679.089-3.679s-1,2.14-4.083.083c-3.956-2.638-5.608-.678-7.884-2.147-2.884-1.861.6-4.167,1.47-8a3.352,3.352,0,0,0-3.679-3.962,2.344,2.344,0,0,0-2.425,2.072c-.186.581-.537,1.57-2.106,1.033s-1.655.452-1.182.881a4.862,4.862,0,0,0,3.224,1.2c1.146-.016,2.2.595,1.61,2.556-.859,2.84-4.547,3.445-5.162,8.469C689.2,223.16,706.48,229.583,709.98,219.33Z" transform="translate(-13.305 -27.218)"/><path class="cls-12" d="M637.205,220.588c6.221-3.393,8.229,4.483,15.315,4.483s7.086-4.775,14.172-4.775,7.087,4.775,14.174,4.775,7.085-4.775,14.17-4.775,7.087,4.775,14.174,4.775,7.086-4.775,14.171-4.775,7.09,4.775,14.18,4.775,9.095-7.874,15.322-4.484c3.39,1.846-3.529,5.956-3.529,9.816s4.775,3.86,4.775,7.72-4.775,3.861-4.775,7.721,4.775,3.861,4.775,7.722-4.775,3.862-4.775,7.724,4.775,3.862,4.775,7.723-4.775,3.864-4.775,7.727,6.922,7.974,3.53,9.824c-6.221,3.392-8.229-4.483-15.315-4.483s-7.086,4.774-14.172,4.774-7.087-4.774-14.174-4.774-7.085,4.774-14.17,4.774-7.087-4.774-14.175-4.774-7.085,4.774-14.17,4.774-7.09-4.774-14.18-4.774-9.1,7.874-15.322,4.484c-3.39-1.846,3.529-5.957,3.529-9.817s-4.775-3.86-4.775-7.72,4.775-3.86,4.775-7.72-4.775-3.861-4.775-7.722,4.775-3.862,4.775-7.725-4.775-3.861-4.775-7.722,5.753-4.678,4.681-8.39C639.152,224.594,633.813,222.437,637.205,220.588Z" transform="translate(-13.305 -27.218)"/><polygon class="cls-1" points="718.075 98.186 641.624 98.186 629.688 111.395 730.011 111.395 718.075 98.186"/><polyline class="cls-34" points="710.894 271.027 753.665 313.434 753.665 354.547"/><polyline class="cls-34" points="652.437 271.027 609.665 313.434 609.665 354.547"/><polygon class="cls-3" points="729.727 295.057 708.43 273.512 713.358 268.542 740.276 295.108 729.727 295.057"/><polygon class="cls-3" points="622.974 295.211 649.973 268.542 654.901 273.512 633.289 295.053 622.974 295.211"/><rect class="cls-1" x="549.447" y="352.227" width="259.015" height="11.351"/><rect class="cls-3" x="566.54" y="363.578" width="2.785" height="14.511"/><rect class="cls-3" x="559.578" y="375.75" width="16.711" height="2.339"/><rect class="cls-3" x="792.049" y="363.578" width="2.785" height="14.511"/><rect class="cls-3" x="785.087" y="375.75" width="16.711" height="2.339"/><rect class="cls-3" x="904.748" y="166.692" width="11.344" height="26.366" transform="translate(47.93 -221.65) rotate(12.611)"/><rect class="cls-1" x="756.042" y="346.296" width="52.467" height="5.913"/><line class="cls-35" x1="782.276" y1="332.876" x2="813.106" y2="182.189"/><rect class="cls-23" x="820.405" y="190.865" width="12.376" height="35.58" transform="translate(58.684 -215.257) rotate(13.564)"/><path class="cls-1" d="M817.818,373.437a22.238,22.238,0,1,0-44.475,0" transform="translate(-13.305 -27.218)"/><polyline class="cls-6" points="887.918 263.453 882.135 315.394 909.349 367.321"/><polygon class="cls-1" points="875.698 375.682 916.306 375.679 916.305 363.03 895.846 363.031 875.698 370.768 875.698 375.682"/><polyline class="cls-6" points="858.914 262.703 822.599 285.564 819.321 347.412"/><polygon class="cls-1" points="794.603 324.543 817.516 358.068 827.959 350.931 816.415 334.04 798.66 321.77 794.603 324.543"/><path class="cls-36" d="M892.443,289.292s-8.117-12.3,2.956-30.476" transform="translate(-13.305 -27.218)"/><path class="cls-5" d="M876.926,289.292s-8.117-12.3,2.956-30.476" transform="translate(-13.305 -27.218)"/><path class="cls-5" d="M880.507,289.292s-8.117-12.3,2.956-30.476" transform="translate(-13.305 -27.218)"/><path class="cls-5" d="M904.379,289.292s-8.116-12.3,2.956-30.476" transform="translate(-13.305 -27.218)"/><path class="cls-5" d="M907.96,289.292s-8.117-12.3,2.956-30.476" transform="translate(-13.305 -27.218)"/><path class="cls-1" d="M618.471,137.765v169h150v-169Zm124,105.3a15.7,15.7,0,0,1-15.7,15.7H660.166a15.7,15.7,0,0,1-15.7-15.7V195.46a15.7,15.7,0,0,1,15.7-15.7h66.609a15.7,15.7,0,0,1,15.7,15.7Z" transform="translate(-13.305 -27.218)"/><path class="cls-5" d="M861.533,201.366c1.271,7.289,9.212,9,12.524,8.147" transform="translate(-13.305 -27.218)"/><path class="cls-5" d="M920.235,172.9c-1.492,6.305-1.906,5.41-2.594,12.273" transform="translate(-13.305 -27.218)"/><path class="cls-5" d="M904.718,171.707c-1.492,6.305-1.906,5.409-2.594,12.273" transform="translate(-13.305 -27.218)"/><circle class="cls-3" cx="593.408" cy="168.636" r="5.512"/><path class="cls-1" d="M994.028,127.5c0-10.218,16.3-18.753,37.721-18.753s37.722,8.031,37.722,18.249v269.77H994.177Z" transform="translate(-13.305 -27.218)"/><rect class="cls-1" x="1064.376" y="93.823" width="39.887" height="274.795"/><rect class="cls-1" x="436.895" y="350.863" width="4.855" height="23.061" transform="translate(865.34 697.569) rotate(-180)"/><rect class="cls-1" x="325.755" y="350.863" width="4.855" height="23.061" transform="translate(643.06 697.569) rotate(-180)"/><rect class="cls-1" x="216.464" y="350.863" width="4.855" height="23.061" transform="translate(424.478 697.569) rotate(-180)"/><rect class="cls-1" x="599.546" y="153.201" width="13.871" height="31.557" transform="translate(1199.658 310.74) rotate(-180)"/><rect class="cls-1" x="584.172" y="261.395" width="25.62" height="5.548" transform="translate(1180.66 501.12) rotate(-180)"/><rect class="cls-1" x="600.124" y="252.354" width="18.726" height="9.363" transform="translate(1205.669 486.852) rotate(-180)"/><circle class="cls-1" cx="575.202" cy="236.737" r="6.751"/><path class="cls-3" d="M833.8,400.765" transform="translate(-13.305 -27.218)"/><rect class="cls-1" x="895.747" y="156.388" width="35.999" height="19.601" transform="translate(45.022 -222.706) rotate(12.611)"/><circle class="cls-12" cx="893.217" cy="134.554" r="4.792"/><path class="cls-1" d="M938.845,188.906l-62.828-13.728a11.407,11.407,0,0,0-13.623,8.642l-4.324,19.328,10.24,2.291-1.156,59.949,46.467,10.4,21.5-55.726,8.043,1.8,4.324-19.329A11.406,11.406,0,0,0,938.845,188.906Z" transform="translate(-13.305 -27.218)"/><polygon class="cls-1" points="879.013 278.669 862.995 276.057 847.628 248.472 848.455 243.404 903.176 252.33 902.349 257.398 879.013 278.669"/><path class="cls-3" d="M908.141,291.441a6.951,6.951,0,0,0-2.322-5.993l-7.288-1.188a6.955,6.955,0,0,0-4.227,5.64l-2.6,23.094L907.3,298.781Z" transform="translate(-13.305 -27.218)"/><path class="cls-3" d="M868.51,284.03l-6.977,4.546,6.785,12.18,7.61-4.944a6.961,6.961,0,0,0-7.418-11.782Z" transform="translate(-13.305 -27.218)"/><path class="cls-3" d="M877.87,246.88l-9.971-3.865-.039-14.188,8.313,3.222,49.267-28.924c3.228-2.089,5.538-6.164,7.625-2.935A6.96,6.96,0,0,1,931,209.815Z" transform="translate(-13.305 -27.218)"/><polyline class="cls-6" points="915.915 175.752 863.665 206.606 815.424 187.906"/><polygon class="cls-1" points="879.013 278.669 862.995 276.057 847.628 248.472 848.455 243.404 903.176 252.33 902.349 257.398 879.013 278.669"/><circle class="cls-1" cx="1347.591" cy="331.176" r="6.764"/><circle class="cls-12" cx="1347.591" cy="331.176" r="5.104"/><rect class="cls-3" x="484.75" y="396.984" width="2.774" height="8.323" transform="translate(958.97 775.073) rotate(-180)"/><rect class="cls-1" x="483.016" y="310.29" width="6.242" height="87.734" transform="translate(958.97 681.097) rotate(-180)"/><polygon class="cls-3" points="475.954 295.14 469.712 300.14 469.712 283.072 475.954 283.072 475.954 295.14"/><polygon class="cls-1" points="376.082 284.228 425.974 325.841 475.953 284.228 475.953 205.626 376.082 205.626 376.082 284.228"/><circle class="cls-23" cx="1213.449" cy="252.464" r="4.728"/><polygon class="cls-3" points="399.794 304.006 452.2 304.006 475.953 284.228 376.082 284.228 399.794 304.006"/><polygon class="cls-3" points="288.726 304.006 341.132 304.006 364.885 284.228 265.014 284.228 288.726 304.006"/><polygon class="cls-3" points="179.363 304.006 231.769 304.006 255.522 284.228 155.651 284.228 179.363 304.006"/></svg>