<svg xmlns="http://www.w3.org/2000/svg" viewBox="0 0 1119.612 434.485"><defs><style>.cls-1{isolation:isolate;}.cls-2{fill:#e5f7f9;}.cls-3{fill:#cfd8da;}.cls-4,.cls-44{fill:#fff;}.cls-14,.cls-19,.cls-21,.cls-24,.cls-26,.cls-34,.cls-39,.cls-42,.cls-45,.cls-46,.cls-5{fill:none;}.cls-5{stroke:#dbc8b5;stroke-width:10.05px;}.cls-14,.cls-19,.cls-21,.cls-24,.cls-26,.cls-34,.cls-39,.cls-42,.cls-44,.cls-45,.cls-46,.cls-5{stroke-miterlimit:10;}.cls-6{fill:#a8b4c4;}.cls-7{fill:#858f9b;}.cls-8{fill:#bea568;}.cls-9{fill:#d6e2e0;}.cls-10{fill:#6e614c;}.cls-11{fill:#ce9659;}.cls-12{fill:#ae7c50;}.cls-13{fill:#686868;}.cls-14,.cls-45{stroke:#ff4c40;}.cls-14{stroke-width:1.18px;}.cls-15{fill:#595758;}.cls-16,.cls-28{fill:#f3f3f3;}.cls-16{opacity:0.4;mix-blend-mode:screen;}.cls-17{fill:#424446;}.cls-18{fill:#dbc8b5;}.cls-19,.cls-21,.cls-39{stroke:#595758;}.cls-19{stroke-linecap:round;stroke-width:12.319px;}.cls-20{fill:#606060;}.cls-21,.cls-26{stroke-width:11.671px;}.cls-22{fill:#eb9541;}.cls-23{fill:#ad9f8e;}.cls-24{stroke:#424446;stroke-width:9.077px;}.cls-25{fill:#536070;}.cls-26{stroke:#414b58;}.cls-27{fill:#414b58;}.cls-29{fill:#bababa;}.cls-30{fill:#4d4d4d;}.cls-31{fill:#bfb8b7;}.cls-32{fill:#5d5263;}.cls-33{fill:#e5e9f0;}.cls-34{stroke:#e5e9f0;stroke-width:10.768px;}.cls-35{fill:#f6f8f8;}.cls-36{fill:#3f3f3f;}.cls-37{fill:#e5e8e9;}.cls-38{fill:#616161;}.cls-39{stroke-width:11.997px;}.cls-40{fill:#715e46;}.cls-41{fill:#584936;}.cls-42{stroke:#a8b4c4;stroke-width:12.921px;}.cls-43{fill:#cea568;}.cls-44{stroke:#000;stroke-width:0.585px;}.cls-45{stroke-width:4.485px;}.cls-46{stroke:#fff;stroke-width:3.844px;}.cls-47{fill:#ded7c2;}.cls-48{fill:#9d9d9d;}</style></defs><title>7_illu</title><g class="cls-1"><g id="Layer_1" data-name="Layer 1"><rect class="cls-2" y="118.421" width="245.382" height="192.747"/><path class="cls-3" d="M242.507,270.769l-34.9,5.885a53.439,53.439,0,0,1-2.343-11.763l-.013-.137,15.73-2.571-5.483-33.548-4.823.788c-.038-.291-.072-.582-.12-.875a26.38,26.38,0,0,0-52.07,8.511c.048.293.107.58.164.868l-4.765.779,5.484,33.548L175,269.7c.178,1.479.3,2.672.4,3.713a49.592,49.592,0,0,0,1.4,8.435l-44.265,7.463A19.783,19.783,0,0,0,116.2,312.025l2.111,12.911-1.442,3.5H256.729l-.071-5.125,5.014-.82V278.648A19.767,19.767,0,0,0,242.507,270.769ZM180.89,281.157a46.629,46.629,0,0,1-1.371-8.151c-.109-1.106-.236-2.379-.431-3.976l.933-.153L182,280.97ZM201.4,277.7l-1.961-12,1.716-.281a55.5,55.5,0,0,0,2.344,11.923Z" transform="translate(-16.29 -17.264)"/><circle class="cls-4" cx="162.273" cy="234.055" r="8.31"/><path class="cls-5" d="M125.706,380.428c24.009-2.881,9.768,60.933,9.768,60.933" transform="translate(-16.29 -17.264)"/><path class="cls-5" d="M131.014,380.428c24.009-2.881,26.7,58.815,26.7,58.815" transform="translate(-16.29 -17.264)"/><path class="cls-6" d="M131.43,388.77l5.05-16.025-24.988.027H83.505a15.722,15.722,0,0,0,15.8,16.214Z" transform="translate(-16.29 -17.264)"/><path class="cls-7" d="M84.554,378.926l29.091-6.154H83.505A15.66,15.66,0,0,0,84.554,378.926Z" transform="translate(-16.29 -17.264)"/><rect class="cls-8" x="482.998" y="152.067" width="79.013" height="10.745" transform="translate(1028.72 297.615) rotate(-180)"/><rect class="cls-9" x="544.453" y="154.02" width="15.05" height="6.838" transform="translate(1087.666 297.615) rotate(-180)"/><rect class="cls-8" x="482.998" y="163.789" width="79.013" height="10.745" transform="translate(1028.72 321.059) rotate(-180)"/><rect class="cls-9" x="544.453" y="165.742" width="15.05" height="6.838" transform="translate(1087.666 321.059) rotate(-180)"/><rect class="cls-8" x="482.998" y="175.511" width="79.013" height="10.745" transform="translate(1028.72 344.503) rotate(-180)"/><rect class="cls-9" x="544.453" y="177.464" width="15.05" height="6.838" transform="translate(1087.666 344.503) rotate(-180)"/><rect class="cls-8" x="482.998" y="187.233" width="79.013" height="10.745" transform="translate(1028.72 367.946) rotate(-180)"/><rect class="cls-9" x="544.453" y="189.186" width="15.05" height="6.838" transform="translate(1087.666 367.946) rotate(-180)"/><rect class="cls-8" x="482.998" y="198.955" width="79.013" height="10.745" transform="translate(1028.72 391.39) rotate(-180)"/><rect class="cls-9" x="544.453" y="200.908" width="15.05" height="6.838" transform="translate(1087.666 391.39) rotate(-180)"/><rect class="cls-8" x="563.188" y="152.067" width="79.013" height="10.745" transform="translate(1189.099 297.615) rotate(-180)"/><rect class="cls-9" x="624.643" y="154.02" width="15.05" height="6.838" transform="translate(1248.045 297.615) rotate(-180)"/><rect class="cls-8" x="563.188" y="163.789" width="79.013" height="10.745" transform="translate(1189.099 321.059) rotate(-180)"/><rect class="cls-9" x="624.643" y="165.742" width="15.05" height="6.838" transform="translate(1248.045 321.059) rotate(-180)"/><rect class="cls-8" x="563.188" y="175.511" width="79.013" height="10.745" transform="translate(1189.099 344.503) rotate(-180)"/><rect class="cls-9" x="624.643" y="177.464" width="15.05" height="6.838" transform="translate(1248.045 344.503) rotate(-180)"/><rect class="cls-8" x="563.188" y="187.233" width="79.013" height="10.745" transform="translate(1189.099 367.946) rotate(-180)"/><rect class="cls-9" x="624.643" y="189.186" width="15.05" height="6.838" transform="translate(1248.045 367.946) rotate(-180)"/><rect class="cls-8" x="563.188" y="198.955" width="79.013" height="10.745" transform="translate(1189.099 391.39) rotate(-180)"/><rect class="cls-10" x="466.708" y="145.548" width="79.013" height="0.977"/><rect class="cls-10" x="466.708" y="157.27" width="79.013" height="0.977"/><rect class="cls-10" x="466.708" y="168.992" width="79.013" height="0.977"/><rect class="cls-10" x="466.708" y="180.714" width="79.013" height="0.977"/><rect class="cls-10" x="466.708" y="192.436" width="79.013" height="0.977"/><rect class="cls-10" x="546.898" y="145.548" width="79.013" height="0.977"/><rect class="cls-10" x="546.898" y="157.27" width="79.013" height="0.977"/><rect class="cls-10" x="546.898" y="168.992" width="79.013" height="0.977"/><rect class="cls-10" x="546.898" y="180.714" width="79.013" height="0.977"/><rect class="cls-10" x="546.898" y="192.436" width="79.013" height="0.977"/><rect class="cls-9" x="624.643" y="200.908" width="15.05" height="6.838" transform="translate(1248.045 391.39) rotate(-180)"/><rect class="cls-10" x="562.012" y="152.067" width="1.254" height="58.61" transform="translate(1108.987 345.479) rotate(-180)"/><rect class="cls-11" x="482.998" y="108.46" width="79.091" height="42.693" transform="translate(1028.798 242.348) rotate(-180)"/><rect class="cls-8" x="482.998" y="111.249" width="79.091" height="39.904" transform="translate(1028.798 245.137) rotate(-180)"/><rect class="cls-9" x="550.122" y="114.318" width="8.846" height="7.981" transform="translate(1092.799 219.353) rotate(-180)"/><rect class="cls-8" x="482.998" y="70.117" width="79.091" height="39.904" transform="translate(1028.798 162.874) rotate(-180)"/><rect class="cls-10" x="482.998" y="110.021" width="79.091" height="1.228" transform="translate(1028.798 204.006) rotate(-180)"/><rect class="cls-9" x="550.122" y="73.187" width="8.846" height="7.981" transform="translate(1092.799 137.09) rotate(-180)"/><rect class="cls-8" x="482.998" y="28.986" width="79.091" height="39.904" transform="translate(1028.798 80.611) rotate(-180)"/><rect class="cls-10" x="482.998" y="68.89" width="79.091" height="1.228" transform="translate(1028.798 121.743) rotate(-180)"/><rect class="cls-9" x="550.122" y="32.055" width="8.846" height="7.981" transform="translate(1092.799 54.828) rotate(-180)"/><rect class="cls-11" x="563.188" y="108.46" width="79.091" height="42.693" transform="translate(1189.177 242.348) rotate(-180)"/><rect class="cls-8" x="563.188" y="111.249" width="79.091" height="39.904" transform="translate(1189.177 245.137) rotate(-180)"/><rect class="cls-9" x="630.311" y="114.318" width="8.846" height="7.981" transform="translate(1253.178 219.353) rotate(-180)"/><rect class="cls-8" x="563.188" y="70.117" width="79.091" height="39.904" transform="translate(1189.177 162.874) rotate(-180)"/><rect class="cls-10" x="563.188" y="110.021" width="79.091" height="1.228" transform="translate(1189.177 204.006) rotate(-180)"/><rect class="cls-9" x="630.311" y="73.187" width="8.846" height="7.981" transform="translate(1253.178 137.09) rotate(-180)"/><rect class="cls-8" x="563.188" y="28.986" width="79.091" height="39.904" transform="translate(1189.177 80.611) rotate(-180)"/><rect class="cls-10" x="563.188" y="68.89" width="79.091" height="1.228" transform="translate(1189.177 121.743) rotate(-180)"/><rect class="cls-9" x="630.311" y="32.055" width="8.846" height="7.981" transform="translate(1253.178 54.828) rotate(-180)"/><rect class="cls-10" x="562.114" y="71.971" width="1.049" height="159.281" transform="translate(697.96 -428.291) rotate(90)"/><rect class="cls-10" x="562.012" y="28.986" width="1.254" height="123.085" transform="translate(1108.987 163.793) rotate(-180)"/><rect class="cls-12" x="462.43" y="193.413" width="166.97" height="3.907"/><rect class="cls-12" x="462.43" y="208.065" width="166.97" height="3.907"/><rect class="cls-12" x="533.831" y="195.366" width="16.477" height="12.699"/><rect class="cls-12" x="612.923" y="196.343" width="16.477" height="12.699"/><rect class="cls-12" x="462.43" y="196.343" width="16.477" height="12.699"/><rect class="cls-12" x="462.823" y="414.177" width="166.97" height="3.907"/><rect class="cls-12" x="462.823" y="428.829" width="166.97" height="3.907"/><rect class="cls-12" x="534.225" y="416.13" width="16.477" height="12.699"/><rect class="cls-12" x="613.316" y="417.107" width="16.477" height="12.699"/><rect class="cls-12" x="462.823" y="417.107" width="16.477" height="12.699"/><rect class="cls-11" x="482.998" y="368.629" width="158.182" height="62.811" transform="translate(1107.889 782.806) rotate(-180)"/><rect class="cls-8" x="482.998" y="372.732" width="158.182" height="58.708" transform="translate(1107.889 786.909) rotate(-180)"/><rect class="cls-9" x="617.245" y="377.248" width="17.691" height="11.742" transform="translate(1235.891 748.975) rotate(-180)"/><rect class="cls-8" x="482.998" y="312.218" width="158.182" height="58.708" transform="translate(1107.889 665.88) rotate(-180)"/><rect class="cls-10" x="482.998" y="370.926" width="158.182" height="1.806" transform="translate(1107.889 726.395) rotate(-180)"/><rect class="cls-9" x="617.245" y="316.734" width="17.691" height="11.742" transform="translate(1235.891 627.946) rotate(-180)"/><rect class="cls-8" x="482.998" y="251.704" width="158.182" height="58.708" transform="translate(1107.889 544.851) rotate(-180)"/><rect class="cls-10" x="482.998" y="310.412" width="158.182" height="1.806" transform="translate(1107.889 605.366) rotate(-180)"/><rect class="cls-9" x="617.245" y="256.22" width="17.691" height="11.742" transform="translate(1235.891 506.917) rotate(-180)"/><rect class="cls-13" x="448.034" width="10.985" height="432.736"/><rect class="cls-13" x="633.678" width="10.985" height="432.736"/><rect class="cls-13" x="557.754" y="146.302" width="9.768" height="174.66" transform="translate(779.981 -346.27) rotate(90)"/><rect class="cls-13" x="557.754" y="348.018" width="9.768" height="174.66" transform="translate(981.696 -144.555) rotate(90)"/><polygon class="cls-13" points="633.678 222.229 633.678 235.905 459.019 408.804 459.019 395.128 633.678 222.229"/><rect class="cls-13" x="557.754" y="-55.902" width="9.768" height="174.66" transform="translate(577.777 -548.475) rotate(90)"/><polygon class="cls-13" points="633.678 20.025 633.678 33.701 459.019 206.6 459.019 192.924 633.678 20.025"/><line class="cls-14" x1="933.159" y1="211.544" x2="621.469" y2="103.441"/><rect class="cls-15" x="451.486" y="241.05" width="4.539" height="26.304"/><rect class="cls-15" x="435.034" y="234.363" width="37.444" height="27.232"/><rect class="cls-15" x="435.034" y="265.554" width="37.444" height="16.996"/><rect class="cls-9" x="437.708" y="236.308" width="32.095" height="23.342"/><polygon class="cls-16" points="447.596 259.65 437.708 259.65 437.708 236.308 456.673 236.308 447.596 259.65"/><rect class="cls-17" x="936.003" y="259.462" width="5.835" height="18.803" transform="translate(243.933 -450.703) rotate(30)"/><rect class="cls-18" x="1000.031" y="192.518" width="9.726" height="22.612" rx="4.863" ry="4.863"/><path class="cls-15" d="M1027.471,229.542l-13.847,1.433a2.479,2.479,0,0,1-2.733-2.466v-2.872a2.479,2.479,0,0,1,2.14-2.455l13.846-1.91a2.478,2.478,0,0,1,2.817,2.455v3.35A2.478,2.478,0,0,1,1027.471,229.542Z" transform="translate(-16.29 -17.264)"/><ellipse class="cls-18" cx="952.65" cy="240.663" rx="5.104" ry="7.005" transform="translate(123.757 775.791) rotate(-48.385)"/><path class="cls-17" d="M952.231,233.107c3.09,1.135,6.157.525,6.85-1.363s-1.248-4.339-4.338-5.474l-7.526-2.472-1.2,7.026,6.215,2.283" transform="translate(-16.29 -17.264)"/><path class="cls-17" d="M949.354,247.6c-1.416.368-2.75-.052-2.98-.937s.732-1.9,2.148-2.268l.514-.133a2.191,2.191,0,0,0,1.619-1.809l1.489-10.355,3.933.566-1.438,11.811a3.008,3.008,0,0,1-2.434,2.593Z" transform="translate(-16.29 -17.264)"/><ellipse class="cls-18" cx="949.748" cy="238.724" rx="4.95" ry="3.616" transform="translate(508.981 1103.974) rotate(-78.422)"/><ellipse class="cls-18" cx="955.398" cy="238.435" rx="3.306" ry="4.526" transform="translate(126.345 777.097) rotate(-48.385)"/><path class="cls-19" d="M1054.657,260.759l-3.118,19.957q-.125.79-.174,1.59l-1.382,22.12a8.749,8.749,0,0,1-8.732,8.2H973.933" transform="translate(-16.29 -17.264)"/><rect class="cls-20" x="940.785" y="138.401" width="4.539" height="32.151"/><path class="cls-21" d="M1021.868,241.858l-24.593,9.5c-4.539,1.945-8.429,2.594-13.616.649l-25.935-9.726" transform="translate(-16.29 -17.264)"/><path class="cls-22" d="M1026.732,225.422h0a6.05,6.05,0,0,1,6.2,5.883V294.15H989.908V261.827C989.908,237.029,1012.337,225.422,1026.732,225.422Z" transform="translate(-16.29 -17.264)"/><path class="cls-13" d="M974.258,364.176h97.581V156.693a11.67,11.67,0,0,0-11.671-11.67H937.624L864.681,363.851h40.524l-.324-25.287,34.364-61.6-7.132-5.187-11.671,14.913L904.881,276.32l39.551-120.6h106.335a11.67,11.67,0,0,1,11.67,11.671V318.465H973.609Z" transform="translate(-16.29 -17.264)"/><rect class="cls-13" x="943.052" y="236.747" width="3.274" height="47.133" transform="translate(1626.182 -444.918) rotate(120)"/><rect class="cls-13" x="803.328" y="147.21" width="19.451" height="274.265"/><rect class="cls-13" x="803.328" y="147.21" width="44.09" height="6.484"/><rect class="cls-13" x="789.712" y="302.173" width="13.616" height="102.444"/><rect class="cls-13" x="825.373" y="150.452" width="7.132" height="217.208"/><rect class="cls-13" x="820.186" y="197.784" width="27.232" height="3.242"/><rect class="cls-13" x="843.528" y="152.397" width="3.89" height="48.629"/><rect class="cls-13" x="837.044" y="201.026" width="3.89" height="129.028"/><rect class="cls-13" x="820.186" y="327.46" width="40.2" height="3.242"/><polygon class="cls-13" points="792.306 403.969 792.306 406.563 661.981 409.156 800.735 413.047 800.735 403.969 792.306 403.969"/><path class="cls-18" d="M1026.047,188.506v24.8a7.781,7.781,0,0,1-7.781,7.781h-9.725a7.781,7.781,0,0,1-7.781-7.781v-24.8Z" transform="translate(-16.29 -17.264)"/><path class="cls-23" d="M1026.128,210.509h-2.188a3.653,3.653,0,0,1-3.647-3.848v-9.7a2.226,2.226,0,0,0-2.211-2.009h-1.031v4.581a4.028,4.028,0,0,1-3.891-3.89v-1.276a3.935,3.935,0,0,0-4.154-3.954h-8.165v-3.242h25.287Z" transform="translate(-16.29 -17.264)"/><path class="cls-23" d="M1026.128,210.509h-2.188a3.653,3.653,0,0,1-3.647-3.848v-9.7a2.226,2.226,0,0,0-2.211-2.009h-1.031v4.581a4.028,4.028,0,0,1-3.891-3.89v-1.276a3.935,3.935,0,0,0-4.154-3.954h-8.165v-3.242h25.287Z" transform="translate(-16.29 -17.264)"/><line class="cls-24" x1="947.593" y1="324.218" x2="947.593" y2="340.428"/><path class="cls-25" d="M1000.811,179.105h19.238a4.863,4.863,0,0,1,4.863,4.863h.973a4.863,4.863,0,0,1,4.863,4.863h0v16.578a3.846,3.846,0,0,1-3.846,3.846h-2.962a3.891,3.891,0,0,1-3.891-3.891h0v-7.758a1.966,1.966,0,0,0-1.967-1.967h-.95v3.89h0a3.891,3.891,0,0,1-3.891-3.89h0v-2.572a4.235,4.235,0,0,0-4.235-4.236h-9.37C994.033,188.831,994.033,179.105,1000.811,179.105Z" transform="translate(-16.29 -17.264)"/><path class="cls-25" d="M1005.664,199.063a.993.993,0,1,1-.993-.993A.994.994,0,0,1,1005.664,199.063Z" transform="translate(-16.29 -17.264)"/><path class="cls-17" d="M1005.664,199.063a.993.993,0,1,1-.993-.993A.994.994,0,0,1,1005.664,199.063Z" transform="translate(-16.29 -17.264)"/><ellipse class="cls-4" cx="988.715" cy="195.709" rx="2.401" ry="1.611"/><path class="cls-18" d="M1001.142,198.6l-3.616,5.342a1.948,1.948,0,0,0,1.686,2.925h1.931S1001.162,199.174,1001.142,198.6Z" transform="translate(-16.29 -17.264)"/><path class="cls-15" d="M957.353,349.954l-8.795,4.643a11.1,11.1,0,0,1-4.35.886s-3.5,0-5.287,1.56-1.952,4.006-1.952,6.073v.483h20.36l2.34-.072c1.62-.879.9-.79,3.89-.648l1.261.72h5.954v-3.722c0,2.291,0,4.236,0-6.755,0-4.508-3.322-2.562-3.322-2.562-2.594,1.945-5.188,1.3-8.429-.649Z" transform="translate(-16.29 -17.264)"/><path class="cls-21" d="M1021.914,298.689c-.649,10.374-62.893-18.155-58.679,50.574" transform="translate(-16.29 -17.264)"/><path class="cls-26" d="M1018.347,291.557" transform="translate(-16.29 -17.264)"/><path class="cls-15" d="M999.206,294.186c0,6.847,13.3,12.483,19.791,12.483s11.751-5.551,11.751-12.4-5.261-12.4-11.751-12.4S999.206,287.339,999.206,294.186Z" transform="translate(-16.29 -17.264)"/><path class="cls-15" d="M1025.14,228.491h0a5.608,5.608,0,0,1,5.608,5.608V294h-38.9V263.192C991.853,239.555,1012.127,228.491,1025.14,228.491Z" transform="translate(-16.29 -17.264)"/><path class="cls-17" d="M992.084,287l14.722-4.71a19.034,19.034,0,0,0,12.257-12.173l6.823-25.281-9.778-3.2-8.137,24.851a7.333,7.333,0,0,1-4.721,4.689l-11.174,3.575Z" transform="translate(-16.29 -17.264)"/><rect class="cls-17" x="924.333" y="168.607" width="37.444" height="27.232"/><rect class="cls-9" x="927.007" y="170.552" width="32.095" height="23.342"/><polygon class="cls-16" points="936.895 193.894 927.007 193.894 927.007 170.552 945.972 170.552 936.895 193.894"/><path class="cls-22" d="M1030.991,256.544l1.3,37.606H990.9l.541-33.716s1.08,24.423,20.964,22.91S1030.991,256.544,1030.991,256.544Z" transform="translate(-16.29 -17.264)"/><ellipse class="cls-18" cx="968.339" cy="273.656" rx="5.104" ry="7.376" transform="matrix(0.29, -0.957, 0.957, 0.29, 409.537, 1103.888)"/><ellipse class="cls-18" cx="971.062" cy="271.026" rx="3.306" ry="4.526" transform="translate(413.989 1104.626) rotate(-73.156)"/><path class="cls-21" d="M1021.653,239.555l-8.136,24.851a13.151,13.151,0,0,1-8.489,8.432l-30.722.684" transform="translate(-16.29 -17.264)"/><path class="cls-27" d="M1030.748,189.19,996.077,182a5.652,5.652,0,0,0-.358,3.541l35.029,7.264Z" transform="translate(-16.29 -17.264)"/><path class="cls-22" d="M1030.332,190.273a.988.988,0,0,1-.2-.021l-39.19-8.126a.987.987,0,0,1,.4-1.933l39.189,8.126a.987.987,0,0,1-.2,1.954Z" transform="translate(-16.29 -17.264)"/><path class="cls-22" d="M995.1,180.708a8.823,8.823,0,0,0,5.049-4.852c3.363-7.777,11.547-12.371,19.718-10.539,9.307,2.086,15.072,11.719,12.876,21.516l-1.077,3.766-40.23-9.915Z" transform="translate(-16.29 -17.264)"/><rect class="cls-28" x="171.968" y="344.722" width="5.793" height="85.886"/><rect class="cls-29" x="171.968" y="343.507" width="5.793" height="22.64"/><rect class="cls-28" x="145.203" y="352.723" width="36.49" height="1.995" transform="translate(-53.528 2.453) rotate(-6.199)"/><rect class="cls-28" x="199.504" y="243.635" width="6.296" height="93.507" transform="translate(39.19 -48.952) rotate(10.352)"/><rect class="cls-30" x="200.859" y="243.302" width="1.268" height="78.889" transform="translate(332.608 579.834) rotate(-169.648)"/><path class="cls-31" d="M214.15,244.961l.845,9.513A141.131,141.131,0,0,1,201.5,328.347l-4.154,8.6Z" transform="translate(-16.29 -17.264)"/><path class="cls-31" d="M187.331,356.745l.139-.847,38.106-1.231a5.858,5.858,0,0,0,5.458-7.639l-15.725-51.656a2.909,2.909,0,0,0-2.253-1.979l-.359-2.544a5.4,5.4,0,0,1,4.182,3.676l16.533,51.742a8.355,8.355,0,0,1-7.784,10.9Z" transform="translate(-16.29 -17.264)"/><circle class="cls-31" cx="162.575" cy="337.558" r="1.859"/><rect class="cls-32" x="127.308" y="339.418" width="95.773" height="5.306"/><rect class="cls-32" x="127.308" y="339.418" width="95.773" height="5.306"/><rect class="cls-32" x="144.106" y="427.542" width="62.176" height="3.445"/><circle class="cls-20" cx="80.907" cy="254.551" r="16.384"/><circle class="cls-20" cx="70.782" cy="265.214" r="10.431"/><path class="cls-20" d="M73.694,298.789c0,2.246.524,4.4-4.456,5.068,0,0,1.749,7,15.613,3.724,3.945-.932,1.063-1.774,4.453-4.038C94.743,299.91,92,305.33,92,298.789s.082-11.842-6.459-11.842A11.842,11.842,0,0,0,73.694,298.789Z" transform="translate(-16.29 -17.264)"/><path class="cls-18" d="M113.475,266.966v24.227a8.614,8.614,0,0,1-8.614,8.614H94.093a8.614,8.614,0,0,1-8.614-8.614v-23.15l14-1.077Z" transform="translate(-16.29 -17.264)"/><rect class="cls-18" x="85.479" y="286.628" width="10.768" height="25.035" rx="5.384" ry="5.384" transform="translate(165.436 581.028) rotate(-180)"/><path class="cls-33" d="M83.522,308.964l20.083,7.025v-2.244a9.2,9.2,0,0,0-9.2-9.2H83.522Z" transform="translate(-16.29 -17.264)"/><path class="cls-25" d="M108.046,277.992a1.1,1.1,0,1,0,1.1-1.1A1.1,1.1,0,0,0,108.046,277.992Z" transform="translate(-16.29 -17.264)"/><path class="cls-32" d="M108.046,277.992a1.1,1.1,0,1,0,1.1-1.1A1.1,1.1,0,0,0,108.046,277.992Z" transform="translate(-16.29 -17.264)"/><path class="cls-18" d="M113.328,277.476s.553,4.536,3.037,6.46c.843.654,1.125,2.692-1.282,2.692h-1.756S113.3,278.115,113.328,277.476Z" transform="translate(-16.29 -17.264)"/><path class="cls-32" d="M142.092,434.947l6.616,5.778a5.237,5.237,0,0,0,1.077.727l1.808.919a7.7,7.7,0,0,0,3.485.834h2.681a3.524,3.524,0,0,1,3.524,3.524v.454H142.115l-1.407-.764a4.683,4.683,0,0,0-4.829.22l-.816.544h-5.606V444.29l0-8.191,2.225-.019a7.145,7.145,0,0,0,8.824.087Z" transform="translate(-16.29 -17.264)"/><path class="cls-32" d="M161.854,428.663l7.414,2.516a16.368,16.368,0,0,0,2.283.216l2.026.086a7.688,7.688,0,0,0,3.517-.685l2.44-1.111a3.523,3.523,0,0,1,4.667,1.746l.188.414-9.956,4.534-7.487,3.41-1.6-.112a4.682,4.682,0,0,0-4.3,2.2l-.517.834-5.1,2.323-1.2-2.633-3.394-7.455,2.017-.939a7.145,7.145,0,0,0,8.067-3.578Z" transform="translate(-16.29 -17.264)"/><path class="cls-6" d="M113.645,323.885c-6.228-5.238-17.355-16.106-26.085-16.106h0a6.209,6.209,0,0,0-6.209,6.209v58.784h32.294l-.17-30.223.694-.72a12.558,12.558,0,0,0-.524-17.944Z" transform="translate(-16.29 -17.264)"/><path class="cls-23" d="M85.479,268.042v23.151c0,.03,0,.06,0,.09a7.534,7.534,0,0,0,5.559-7.266V281.76a5.384,5.384,0,0,1,5.384-5.383v6.46a5.383,5.383,0,0,0,5.384-5.384v-.64h3.965c.888-1.561,1.775-4,1.781-8.616a10.623,10.623,0,0,1-.437,8.616h6.356v-9.847h-14Z" transform="translate(-16.29 -17.264)"/><path class="cls-4" d="M104.174,290.274v.445a2.341,2.341,0,0,0,2.388,2.291h3.315a2.341,2.341,0,0,0,2.388-2.291v-.445" transform="translate(-16.29 -17.264)"/><ellipse class="cls-18" cx="124.193" cy="339.139" rx="8.166" ry="5.651"/><ellipse class="cls-18" cx="122.152" cy="335.479" rx="5.011" ry="3.661"/><path class="cls-7" d="M113.544,354.834l-7.99-1.63-.252-.047c-4.209-.686-9.5-5.278-9.5-10.081L94.8,319.387l-10.156,2.062-.759,20.627c0,11.16,8.778,21.027,19.2,22.811l10.536,2.149Z" transform="translate(-16.29 -17.264)"/><line class="cls-34" x1="111.101" y1="338.732" x2="117.141" y2="338.732"/><rect class="cls-35" x="52.516" y="328.637" width="8.007" height="36.266" rx="2.918" ry="2.918"/><rect class="cls-35" x="69.954" y="388.953" width="51.822" height="9.12" rx="2.918" ry="2.918" transform="translate(175.441 769.761) rotate(-180)"/><rect class="cls-36" x="93.713" y="398.073" width="4.378" height="9.849" transform="translate(175.513 788.731) rotate(-180)"/><rect class="cls-37" x="91.729" y="407.922" width="8.345" height="27.218" transform="translate(175.513 825.798) rotate(-180)"/><rect class="cls-38" x="91.729" y="432.242" width="8.345" height="2.899" transform="translate(175.513 850.118) rotate(-180)"/><polygon class="cls-38" points="80.341 419.841 104.418 422.395 104.418 418.971 80.341 416.417 80.341 419.841"/><rect class="cls-38" x="117.264" y="436.235" width="3.444" height="7.072" transform="translate(221.681 862.277) rotate(-180)"/><circle class="cls-36" cx="102.827" cy="427.736" r="3.415"/><polygon class="cls-38" points="80.341 419.841 56.265 422.395 56.265 418.971 80.341 416.417 80.341 419.841"/><rect class="cls-38" x="56.265" y="418.971" width="3.444" height="7.072"/><circle class="cls-36" cx="57.856" cy="427.736" r="3.415"/><polygon class="cls-38" points="79.612 419.588 67.756 422.395 67.756 418.971 79.612 416.164 79.612 419.588"/><rect class="cls-38" x="67.756" y="418.971" width="3.444" height="7.072"/><circle class="cls-36" cx="69.347" cy="427.736" r="3.415"/><polygon class="cls-38" points="79.612 419.588 91.468 422.395 91.468 418.971 79.612 416.164 79.612 419.588"/><rect class="cls-38" x="104.314" y="436.235" width="3.444" height="7.072" transform="translate(195.781 862.277) rotate(-180)"/><circle class="cls-36" cx="89.877" cy="427.736" r="3.415"/><path class="cls-35" d="M97.553,372.56l-.656-1.2a2.806,2.806,0,0,0-2.994-1.743H71.585a2.926,2.926,0,0,0-2.918,2.918v.537H93.9l1.523,3.479,1.593-.671A2.564,2.564,0,0,0,97.553,372.56Z" transform="translate(-16.29 -17.264)"/><rect class="cls-38" x="78.972" y="362.908" width="4.765" height="25.097" transform="translate(440.521 276.839) rotate(90)"/><polygon class="cls-38" points="86.574 380.809 81.102 380.809 73.476 358.193 77.603 355.81 86.574 380.809"/><path class="cls-18" d="M456.37,300.838c2.182,1.96,4.517.822,7.767-1.9s4.359-6.749,2.476-9-6.043-1.867-9.293.854S454.188,298.878,456.37,300.838Z" transform="translate(-16.29 -17.264)"/><ellipse class="cls-18" cx="457.049" cy="293.461" rx="4.709" ry="3.44" transform="translate(-98.076 344.538) rotate(-39.932)"/><path class="cls-39" d="M396.276,300.193l28.462,7.178c7.435,1.14,32.539-10.782,32.539-10.782" transform="translate(-16.29 -17.264)"/><rect class="cls-17" x="385.973" y="434.966" width="11.127" height="7.758" transform="translate(766.783 860.426) rotate(-180)"/><rect class="cls-18" x="386.985" y="275.001" width="10.119" height="23.527" rx="5.06" ry="5.06" transform="translate(767.799 556.265) rotate(-180)"/><path class="cls-15" d="M386.253,293.7l13.847,1.432a2.478,2.478,0,0,0,2.733-2.465v-2.873a2.479,2.479,0,0,0-2.14-2.455l-13.846-1.91a2.479,2.479,0,0,0-2.817,2.456v3.35A2.478,2.478,0,0,0,386.253,293.7Z" transform="translate(-16.29 -17.264)"/><path class="cls-18" d="M386.985,249.113v33.9H405.2a8.119,8.119,0,0,0,8.1-8.1v-25.8Z" transform="translate(-16.29 -17.264)"/><path class="cls-23" d="M386.985,272.007h2.024a4.049,4.049,0,0,0,4.048-4.048V257.487a2.047,2.047,0,0,1,2.046-2.047h.989v4.048a4.048,4.048,0,0,0,4.048-4.048v-.276a4.406,4.406,0,0,1,4.407-4.407H413.3v-2.444h-26.31Z" transform="translate(-16.29 -17.264)"/><path class="cls-25" d="M408.024,260.6a1.033,1.033,0,1,0,1.033-1.033A1.034,1.034,0,0,0,408.024,260.6Z" transform="translate(-16.29 -17.264)"/><path class="cls-18" d="M413.269,260.118l3.221,5.557a2.027,2.027,0,0,1-1.753,3.044h-1.593S412.957,260.429,413.269,260.118Z" transform="translate(-16.29 -17.264)"/><path class="cls-22" d="M386.78,289.417h0a6.24,6.24,0,0,0-6.447,6.011V363.8h33.534V314.669C413.867,300.723,401.74,289.417,386.78,289.417Z" transform="translate(-16.29 -17.264)"/><polygon class="cls-15" points="367.533 344.97 367.533 419.851 382.838 419.851 391.776 344.97 367.533 344.97"/><path class="cls-4" d="M406.793,273.947v.3a1.517,1.517,0,0,0,1.518,1.518h2.108a1.518,1.518,0,0,0,1.518-1.518v-.3" transform="translate(-16.29 -17.264)"/><path class="cls-15" d="M397.908,438.1l8.8,4.643a11.092,11.092,0,0,0,4.349.886s3.5,0,5.288,1.561,1.951,4,1.951,6.072v.483H397.933l-2.341-.072c-1.62-.879-.9-.79-3.89-.648l-1.26.72h-5.955v-3.722c0,2.291,0,4.236,0-6.755,0-4.507,3.323-2.562,3.323-2.562,2.593,1.945,5.187,1.3,8.429-.649Z" transform="translate(-16.29 -17.264)"/><path class="cls-15" d="M387.76,291.221h0a5.834,5.834,0,0,0-5.834,5.835V363.43h30.348V315.735A24.514,24.514,0,0,0,387.76,291.221Z" transform="translate(-16.29 -17.264)"/><path class="cls-22" d="M381.076,363.8H413.3l-.8-39.989s-1.827,17.6-15.424,17.6-15.145-17.162-15.145-17.162l-.85,39.556" transform="translate(-16.29 -17.264)"/><path class="cls-17" d="M423.1,365.15c-2.108-2.527-2.565-5.621-1.02-6.909s4.506-.284,6.614,2.244l4.86,6.256-6.212,3.494L423.1,365.15" transform="translate(-16.29 -17.264)"/><path class="cls-17" d="M410.416,372.737c.13,1.457.974,2.573,1.884,2.491s1.544-1.328,1.414-2.785l-.048-.53a2.191,2.191,0,0,1,1.159-2.133l9.25-4.886-1.855-3.513-10.639,5.328a3.007,3.007,0,0,0-1.623,3.165Z" transform="translate(-16.29 -17.264)"/><path class="cls-18" d="M409.474,360.806c-2.017,2.13-.942,4.494,1.692,7.815s6.632,4.535,8.93,2.713,2.025-5.992-.608-9.313S411.491,358.677,409.474,360.806Z" transform="translate(-16.29 -17.264)"/><ellipse class="cls-18" cx="416.83" cy="361.68" rx="3.44" ry="4.709" transform="translate(-150.792 320.059) rotate(-38.418)"/><path class="cls-39" d="M391.388,302.733v21.322c0,7.225,22.31,37.771,22.31,37.771" transform="translate(-16.29 -17.264)"/><path class="cls-40" d="M411.05,239.838H393.057A5.059,5.059,0,0,0,388,244.9h-1.012a5.059,5.059,0,0,0-5.059,5.06h0v17.248a4,4,0,0,0,4,4h3.082a4.049,4.049,0,0,0,4.048-4.048h0v-8.072a2.046,2.046,0,0,1,2.046-2.047h.989v4.048h0a4.048,4.048,0,0,0,4.048-4.048h0v-2.676a4.407,4.407,0,0,1,4.407-4.407H413.5c3.57-.529,3.57-2.928,3.57-5.327C417.066,240.631,412.866,239.838,411.05,239.838Z" transform="translate(-16.29 -17.264)"/><path class="cls-41" d="M417.066,244.63a4.623,4.623,0,0,0-.264-1.567L382,250.279c-.025,0-.048.016-.073.023v3.4a1.739,1.739,0,0,0,.431.075,1.784,1.784,0,0,0,.361-.037l34.262-7.1A15.921,15.921,0,0,0,417.066,244.63Z" transform="translate(-16.29 -17.264)"/><path class="cls-22" d="M382.358,251.82a.987.987,0,0,1-.2-1.954l39.189-8.126a.987.987,0,1,1,.4,1.933L382.559,251.8A.988.988,0,0,1,382.358,251.82Z" transform="translate(-16.29 -17.264)"/><path class="cls-22" d="M417.586,242.255a8.823,8.823,0,0,1-5.049-4.852c-3.363-7.777-11.547-12.371-19.718-10.54-9.307,2.086-15.072,11.719-12.876,21.517l1.077,3.765,40.23-9.915Z" transform="translate(-16.29 -17.264)"/><path class="cls-20" d="M109.179,260.658A16.373,16.373,0,0,0,83.505,280.8v9.576a7.537,7.537,0,0,0,7.537-7.538V281.76a5.384,5.384,0,0,1,5.384-5.383v6.46a5.383,5.383,0,0,0,5.384-5.384v-1.82h3.965c.888-1.561,1.775-4,1.781-8.616a10.622,10.622,0,0,1-.437,8.616h7.731c.882-2.362,1.4-3.429,1.366-5.385A10.518,10.518,0,0,0,109.179,260.658Z" transform="translate(-16.29 -17.264)"/><path class="cls-42" d="M90.343,319.386v22.69A13.92,13.92,0,0,0,104.263,356h23.128" transform="translate(-16.29 -17.264)"/><path class="cls-10" d="M581.317,75.932H672.4V69.844H585.051A61.294,61.294,0,0,0,581.317,75.932Z" transform="translate(-16.29 -17.264)"/><path class="cls-43" d="M574.146,104.635A60.982,60.982,0,0,0,672.4,152.916V75.932H581.317A60.716,60.716,0,0,0,574.146,104.635Z" transform="translate(-16.29 -17.264)"/><path class="cls-43" d="M585.052,69.844H672.4V56.354a60.961,60.961,0,0,0-87.346,13.49Z" transform="translate(-16.29 -17.264)"/><rect class="cls-9" x="613.064" y="91.15" width="43.855" height="39.567" transform="translate(1253.694 204.603) rotate(-180)"/><line class="cls-44" x1="602.469" y1="93.669" x2="602.469" y2="109.897"/><line class="cls-44" x1="604.81" y1="93.669" x2="604.81" y2="109.897"/><line class="cls-44" x1="607.15" y1="93.669" x2="607.15" y2="109.897"/><line class="cls-44" x1="611.831" y1="93.669" x2="611.831" y2="109.897"/><line class="cls-44" x1="611.831" y1="93.669" x2="611.831" y2="109.897"/><line class="cls-44" x1="614.171" y1="93.669" x2="614.171" y2="109.897"/><line class="cls-44" x1="618.852" y1="93.669" x2="618.852" y2="109.897"/><line class="cls-44" x1="621.193" y1="93.669" x2="621.193" y2="109.897"/><line class="cls-44" x1="617.035" y1="93.669" x2="617.035" y2="109.897"/><line class="cls-44" x1="603.493" y1="93.669" x2="603.493" y2="109.897"/><line class="cls-44" x1="605.834" y1="93.669" x2="605.834" y2="109.897"/><line class="cls-44" x1="605.195" y1="93.669" x2="605.195" y2="109.897"/><line class="cls-44" x1="608.174" y1="93.669" x2="608.174" y2="109.897"/><line class="cls-44" x1="612.855" y1="93.669" x2="612.855" y2="109.897"/><line class="cls-44" x1="613.483" y1="93.669" x2="613.483" y2="109.897"/><line class="cls-44" x1="615.195" y1="93.669" x2="615.195" y2="109.897"/><line class="cls-44" x1="632.041" y1="93.669" x2="632.041" y2="109.897"/><line class="cls-44" x1="634.381" y1="93.669" x2="634.381" y2="109.897"/><line class="cls-44" x1="633.065" y1="93.669" x2="633.065" y2="109.897"/><line class="cls-44" x1="633.693" y1="93.669" x2="633.693" y2="109.897"/><line class="cls-44" x1="635.405" y1="93.669" x2="635.405" y2="109.897"/><line class="cls-44" x1="625.157" y1="93.669" x2="625.157" y2="109.897"/><line class="cls-44" x1="627.498" y1="93.669" x2="627.498" y2="109.897"/><line class="cls-44" x1="626.181" y1="93.669" x2="626.181" y2="109.897"/><line class="cls-44" x1="629.15" y1="93.669" x2="629.15" y2="109.897"/><line class="cls-44" x1="628.522" y1="93.669" x2="628.522" y2="109.897"/><line class="cls-44" x1="619.876" y1="93.669" x2="619.876" y2="109.897"/><line class="cls-44" x1="622.217" y1="93.669" x2="622.217" y2="109.897"/><line class="cls-44" x1="623.808" y1="93.669" x2="623.808" y2="109.897"/><line class="cls-45" x1="670.817" y1="120.182" x2="619.876" y2="102.514"/><circle class="cls-46" cx="618.852" cy="87.371" r="61.945"/><path class="cls-17" d="M1030.748,294.271c0-.09-.011-.178-.013-.268H999.217c0,.061-.011.121-.011.183a5.487,5.487,0,0,0,.134,1.176c-1.654.062-3.342.165-5.048.341l35.755,2.781A12.942,12.942,0,0,0,1030.748,294.271Z" transform="translate(-16.29 -17.264)"/><polygon class="cls-17" points="367.533 351.043 391.051 351.043 391.59 346.533 367.533 346.533 367.533 351.043"/><path class="cls-47" d="M1072.163,306.145h40.848s9.726-.648,11.023,9.726,11.671,106.983,11.671,106.983,2.593,10.374-11.023,10.374h-260V363.851H1046.39a25.773,25.773,0,0,0,25.773-25.773Z" transform="translate(-16.29 -17.264)"/><circle class="cls-13" cx="856.496" cy="401.376" r="32.419"/><circle class="cls-13" cx="1054.901" cy="401.376" r="32.419"/><circle class="cls-48" cx="856.496" cy="401.376" r="18.155"/><circle class="cls-48" cx="1054.901" cy="401.376" r="18.155"/></g></g></svg>