<svg xmlns="http://www.w3.org/2000/svg" viewBox="0 0 880.054 516.496"><defs><style>.cls-1{isolation:isolate;}.cls-2{fill:#737373;}.cls-10,.cls-13,.cls-14,.cls-18,.cls-19,.cls-27,.cls-29,.cls-3,.cls-30,.cls-32,.cls-33,.cls-48,.cls-55,.cls-9{fill:none;}.cls-3{stroke:#797979;stroke-width:2.644px;}.cls-10,.cls-13,.cls-14,.cls-18,.cls-19,.cls-27,.cls-29,.cls-3,.cls-30,.cls-32,.cls-33,.cls-55,.cls-9{stroke-miterlimit:10;}.cls-4{fill:#5d5263;}.cls-5{fill:#c5eae7;}.cls-6{fill:#dbc8b5;}.cls-7{fill:#fff;}.cls-8{fill:#4b5e69;}.cls-9{stroke:#7b838f;stroke-width:7px;}.cls-10{stroke:#e5e9f0;stroke-width:7.431px;}.cls-11{fill:#536070;}.cls-12{fill:#ad9f8e;}.cls-13,.cls-14{stroke:#536070;}.cls-13,.cls-18,.cls-19{stroke-width:8.917px;}.cls-14{stroke-width:9px;}.cls-15{fill:#e5e9f0;}.cls-16{fill:#7b838f;}.cls-17{fill:#bebebe;}.cls-18{stroke:#bebebe;}.cls-19{stroke:#a8b4c4;}.cls-20{fill:#a8b4c4;}.cls-21{fill:#e9e9e9;}.cls-22{fill:#4b4b4b;}.cls-23{fill:#969696;}.cls-24{fill:#606060;}.cls-25{fill:#bababa;}.cls-26{fill:#797979;}.cls-27,.cls-30{stroke:#d4d4d4;}.cls-27{stroke-width:10px;}.cls-28,.cls-46{fill:#f3f3f3;}.cls-29,.cls-33{stroke:#f3f3f3;}.cls-29{stroke-width:11.874px;}.cls-30{stroke-width:11px;}.cls-31{fill:#d4d4d4;}.cls-32{stroke:#4b4b4b;stroke-linecap:round;stroke-width:1.192px;}.cls-33{stroke-width:10.732px;}.cls-34{fill:#f6f8f8;}.cls-35{fill:#3f3f3f;}.cls-36{fill:#e5e8e9;}.cls-37{fill:#616161;}.cls-38{fill:#4d4d4d;}.cls-39{fill:#bfb8b7;}.cls-40{fill:#d8bcb2;}.cls-41{fill:#ac958d;}.cls-42,.cls-45{fill:#a7a7a7;}.cls-43{fill:#b6bcc4;}.cls-44{fill:#919191;}.cls-45{mix-blend-mode:multiply;}.cls-46{opacity:0.15;mix-blend-mode:screen;}.cls-47{fill:#e2f2f0;}.cls-48{stroke:#009e57;stroke-linejoin:round;stroke-width:1.558px;}.cls-49{fill:#741f42;}.cls-50{fill:#922a56;}.cls-51{fill:#e3c72d;}.cls-52{fill:#be924b;}.cls-53{fill:#8ed4f0;}.cls-54{fill:#f0f1f7;}.cls-55{stroke:#5d5263;stroke-width:4px;}</style></defs><title>3_illu_en_m</title><g class="cls-1"><g id="en"><path class="cls-2" d="M596.57,21.108l-2.8.729-2.1-8.064-2.528.658-.6-2.287L596.4,10.1l.6,2.287-2.52.656Z" transform="translate(-1.574 -6.636)"/><path class="cls-2" d="M608.3,18.767l-.853-1.888-3.426.577-.2,2.066-3.131.528L602.35,8.881l3.8-.641,5.268,10Zm-1.837-4.126-.746-1.655q-.257-.551-.638-1.428t-.521-1.262q0,.378-.051,1.255t-.289,3.468Z" transform="translate(-1.574 -6.636)"/><path class="cls-2" d="M620.542,14.232a3.143,3.143,0,0,1-.36,1.8,3.3,3.3,0,0,1-1.352,1.314,5.4,5.4,0,0,1-2.19.609,9.116,9.116,0,0,1-1.8,0,6.7,6.7,0,0,1-1.545-.4l-.21-2.567a8.632,8.632,0,0,0,1.767.521,6.453,6.453,0,0,0,1.653.1,1.589,1.589,0,0,0,.922-.3.685.685,0,0,0,.252-.6.624.624,0,0,0-.151-.373,1.405,1.405,0,0,0-.414-.3q-.281-.147-1.474-.57A6.827,6.827,0,0,1,614,12.682a2.844,2.844,0,0,1-.857-.958,3.413,3.413,0,0,1-.362-1.342A2.74,2.74,0,0,1,613.669,8a4.745,4.745,0,0,1,2.878-1.066,8.306,8.306,0,0,1,3.438.491l-.7,2.3a6.408,6.408,0,0,0-2.637-.474,1.341,1.341,0,0,0-.8.264.6.6,0,0,0-.215.509.7.7,0,0,0,.371.534,12.146,12.146,0,0,0,1.834.761,4.891,4.891,0,0,1,2.023,1.174A2.9,2.9,0,0,1,620.542,14.232Z" transform="translate(-1.574 -6.636)"/><path class="cls-2" d="M628.486,17.343l-2.889.012-.037-8.332-2.612.012-.01-2.362,8.106-.037L631.054,9l-2.605.011Z" transform="translate(-1.574 -6.636)"/><path class="cls-2" d="M633.941,17.494l.639-10.677,2.9.174-.637,10.676Z" transform="translate(-1.574 -6.636)"/><path class="cls-2" d="M650.515,19.28l-3.753-.521-2.832-8-.066-.009q-.107,1.779-.235,2.707l-.664,4.775-2.536-.352L641.9,7.285l3.738.519,2.833,7.9.042.006c.082-1.076.166-1.939.257-2.586l.665-4.79,2.551.354Z" transform="translate(-1.574 -6.636)"/><path class="cls-2" d="M659.671,14.927l4.483,1.1-1.376,5.6a12.694,12.694,0,0,1-4.167-.362,5,5,0,0,1-3.37-2.3,5.746,5.746,0,0,1-.335-4.293,5.369,5.369,0,0,1,2.4-3.562,5.679,5.679,0,0,1,4.365-.412,9.185,9.185,0,0,1,1.8.64,8.049,8.049,0,0,1,1.4.841l-1.43,1.984A5.637,5.637,0,0,0,661.116,13a2.416,2.416,0,0,0-2.1.332,3.561,3.561,0,0,0-1.232,2.119,3.608,3.608,0,0,0,.062,2.369,2.169,2.169,0,0,0,1.564,1.194,5.224,5.224,0,0,0,1.181.162l.4-1.626-1.855-.457Z" transform="translate(-1.574 -6.636)"/><path class="cls-2" d="M717.588,305.808l-5.029-9.44L715.123,295l5.027,9.439Z" transform="translate(-1.574 -6.636)"/><path class="cls-2" d="M727.582,300.934l-4.98-6.271-.06.025q.9,1.758,1.316,2.764l1.785,4.289-2.363.983-4.11-9.874,3.552-1.478,4.978,6.153.055-.022-.9-7.851,3.559-1.481,4.11,9.874-2.452,1.019-1.8-4.329c-.093-.225-.194-.476-.3-.754s-.358-.963-.749-2.056l-.062.025.962,7.927Z" transform="translate(-1.574 -6.636)"/><path class="cls-2" d="M743.3,287.81a3.584,3.584,0,0,1-.234,2.955,4.264,4.264,0,0,1-2.606,1.784l-.779.228,1,3.4-2.773.815-3.016-10.261,3.552-1.044a4.523,4.523,0,0,1,3.169-.009A3.16,3.16,0,0,1,743.3,287.81Zm-4.284,2.707.506-.148a1.436,1.436,0,0,0,.89-.643,1.327,1.327,0,0,0,.084-1.077q-.3-1.038-1.456-.7l-.716.21Z" transform="translate(-1.574 -6.636)"/><path class="cls-2" d="M750.313,289.727l.765,3.816-2.833.568-2.1-10.487,3.437-.689q4.275-.855,4.895,2.242a3.158,3.158,0,0,1-1.213,3.176l3.97,3.957-3.214.644-2.987-3.37Zm-.426-2.131.531-.106q1.484-.3,1.221-1.609-.216-1.084-1.673-.792l-.559.112Z" transform="translate(-1.574 -6.636)"/><path class="cls-2" d="M768.854,285.643a5.77,5.77,0,0,1-.9,4.218,6.015,6.015,0,0,1-7.7.781,6.932,6.932,0,0,1-.842-8.145,6.054,6.054,0,0,1,7.709-.8A5.77,5.77,0,0,1,768.854,285.643Zm-7.321.751q.317,3.086,2.463,2.865a1.853,1.853,0,0,0,1.543-.916,5.472,5.472,0,0,0-.488-4.689,1.837,1.837,0,0,0-1.675-.6Q761.213,283.281,761.533,286.394Z" transform="translate(-1.574 -6.636)"/><path class="cls-2" d="M778.535,280.125l3.233-.022-3.432,10.719-3.4.022-3.56-10.671,3.248-.022,1.491,5.411a16.427,16.427,0,0,1,.515,2.513c.032-.341.1-.769.2-1.281s.187-.916.263-1.209Z" transform="translate(-1.574 -6.636)"/><path class="cls-2" d="M790.6,291.442l-6.332-.473.8-10.665,6.332.473-.173,2.313-3.45-.258-.126,1.677,3.2.24-.172,2.312-3.2-.239-.15,2.014,3.45.257Z" transform="translate(-1.574 -6.636)"/><path class="cls-2" d="M798.319,292.5l-.833-7.964-.064-.012q-.186,1.967-.374,3.039l-.8,4.576-2.523-.439,1.836-10.536,3.791.66.895,7.864.057.01,3.458-7.105,3.8.662-1.836,10.536-2.615-.456.805-4.619q.063-.361.149-.8t.474-2.139l-.066-.011-3.445,7.2Z" transform="translate(-1.574 -6.636)"/><path class="cls-2" d="M815.263,296.429l-6.116-1.71,2.881-10.3,6.115,1.71-.625,2.233-3.332-.932-.453,1.62,3.085.864-.624,2.233-3.086-.863-.544,1.944,3.332.932Z" transform="translate(-1.574 -6.636)"/><path class="cls-2" d="M827.754,301l-3.535-1.365-.931-8.436-.062-.023q-.51,1.707-.847,2.582l-1.737,4.5-2.388-.922,3.851-9.978,3.522,1.36.954,8.335.041.015q.486-1.543.84-2.459l1.741-4.512,2.4.928Z" transform="translate(-1.574 -6.636)"/><path class="cls-2" d="M835.166,304.665l-2.576-1.31,3.776-7.427-2.327-1.183,1.07-2.107,7.226,3.673-1.072,2.107-2.321-1.18Z" transform="translate(-1.574 -6.636)"/><path class="cls-2" d="M402.142,312.916l-2.358,1.67-4.814-6.8-2.132,1.51-1.366-1.929,6.616-4.684,1.365,1.929-2.125,1.5Z" transform="translate(-1.574 -6.636)"/><path class="cls-2" d="M412.15,306.732l-5.485,3.2-5.386-9.24,5.486-3.2,1.168,2-2.99,1.742.848,1.453,2.768-1.613,1.167,2-2.767,1.613,1.016,1.744,2.99-1.742Z" transform="translate(-1.574 -6.636)"/><path class="cls-2" d="M419.864,299.342a3.161,3.161,0,0,1,.3,1.812,3.312,3.312,0,0,1-.8,1.708,5.392,5.392,0,0,1-1.833,1.344,9.207,9.207,0,0,1-1.683.633,6.685,6.685,0,0,1-1.586.173l-1.1-2.326a8.621,8.621,0,0,0,1.837-.139,6.442,6.442,0,0,0,1.583-.488,1.586,1.586,0,0,0,.757-.606.688.688,0,0,0,.024-.648.637.637,0,0,0-.273-.3,1.421,1.421,0,0,0-.493-.134q-.314-.037-1.581-.011a6.824,6.824,0,0,1-1.813-.16,2.849,2.849,0,0,1-1.14-.593,3.418,3.418,0,0,1-.814-1.128,2.741,2.741,0,0,1-.016-2.543,4.741,4.741,0,0,1,2.316-2.014,8.3,8.3,0,0,1,3.388-.758l.158,2.4a6.436,6.436,0,0,0-2.635.489,1.352,1.352,0,0,0-.655.53.6.6,0,0,0-.022.552.711.711,0,0,0,.536.37,12.313,12.313,0,0,0,1.986.062,4.89,4.89,0,0,1,2.306.383A2.888,2.888,0,0,1,419.864,299.342Z" transform="translate(-1.574 -6.636)"/><path class="cls-2" d="M428.387,299.5l-2.707,1.013-2.924-7.8-2.446.917-.83-2.213,7.59-2.845.83,2.212-2.438.914Z" transform="translate(-1.574 -6.636)"/><path class="cls-2" d="M444.449,287.391a3.586,3.586,0,0,1-.394,2.938,4.264,4.264,0,0,1-2.7,1.639l-.79.186.814,3.454-2.813.662-2.453-10.409,3.6-.85a4.528,4.528,0,0,1,3.165.165A3.156,3.156,0,0,1,444.449,287.391Zm-4.424,2.471.513-.121a1.443,1.443,0,0,0,.924-.594,1.329,1.329,0,0,0,.142-1.07q-.249-1.053-1.416-.778l-.726.17Z" transform="translate(-1.574 -6.636)"/><path class="cls-2" d="M451.355,289.678l.561,3.852-2.86.416-1.541-10.583,3.468-.5q4.314-.628,4.77,2.5a3.161,3.161,0,0,1-1.381,3.107l3.755,4.162-3.242.471-2.806-3.524Zm-.313-2.149.536-.078q1.5-.219,1.306-1.543-.161-1.094-1.629-.879l-.565.082Z" transform="translate(-1.574 -6.636)"/><path class="cls-2" d="M470.067,286.575a5.767,5.767,0,0,1-1.118,4.165,6.015,6.015,0,0,1-7.727.379,6.935,6.935,0,0,1-.416-8.179,6.056,6.056,0,0,1,7.741-.4A5.768,5.768,0,0,1,470.067,286.575Zm-7.35.367q.154,3.1,2.31,2.99a1.852,1.852,0,0,0,1.588-.834,5.472,5.472,0,0,0-.243-4.708,1.836,1.836,0,0,0-1.642-.683Q462.561,283.815,462.717,286.942Z" transform="translate(-1.574 -6.636)"/><path class="cls-2" d="M482.868,286.833a5.526,5.526,0,0,1-1.669,4.051,5.669,5.669,0,0,1-4.209,1.25l-3.456-.166.51-10.682,3.7.176a5.583,5.583,0,0,1,3.908,1.5A4.964,4.964,0,0,1,482.868,286.833Zm-3-.04a3.387,3.387,0,0,0-.478-2.2,2.143,2.143,0,0,0-1.73-.793l-.84-.04-.286,5.984.644.03a2.323,2.323,0,0,0,1.964-.671A3.691,3.691,0,0,0,479.867,286.793Z" transform="translate(-1.574 -6.636)"/><path class="cls-2" d="M496.3,283.43l-.922,6.372a4.315,4.315,0,0,1-1.643,3.048,5.638,5.638,0,0,1-6.722-.939,4.236,4.236,0,0,1-.7-3.354l.931-6.436,2.874.416-.9,6.212a2.565,2.565,0,0,0,.184,1.689,1.828,1.828,0,0,0,2.508.366,2.712,2.712,0,0,0,.633-1.589l.9-6.2Z" transform="translate(-1.574 -6.636)"/><path class="cls-2" d="M504.8,287.587a1.842,1.842,0,0,0-1.763.444,4.068,4.068,0,0,0-1.107,2.129q-.725,3,1.559,3.552a4.836,4.836,0,0,0,1.383.13,13.758,13.758,0,0,0,1.413-.149l-.572,2.375a7.394,7.394,0,0,1-3.084-.133,4.791,4.791,0,0,1-3.279-2.235,5.79,5.79,0,0,1-.305-4.25,6.487,6.487,0,0,1,1.292-2.691,4.476,4.476,0,0,1,2.2-1.459,5.439,5.439,0,0,1,2.844-.011,7.607,7.607,0,0,1,3.045,1.509l-1.394,2a10.065,10.065,0,0,0-1.043-.733A4.1,4.1,0,0,0,504.8,287.587Z" transform="translate(-1.574 -6.636)"/><path class="cls-2" d="M513.3,298.948l-2.742-.915,2.639-7.9-2.478-.828.748-2.241,7.689,2.567-.748,2.241-2.47-.824Z" transform="translate(-1.574 -6.636)"/><path class="cls-2" d="M518.411,300.851l4.086-9.883,2.683,1.109-4.085,9.884Z" transform="translate(-1.574 -6.636)"/><path class="cls-2" d="M535.771,303.174a5.771,5.771,0,0,1-3.06,3.038,6.019,6.019,0,0,1-6.869-3.558,6.929,6.929,0,0,1,3.754-7.279,6.056,6.056,0,0,1,6.89,3.549A5.771,5.771,0,0,1,535.771,303.174Zm-6.538-3.379q-1.423,2.757.493,3.747a1.855,1.855,0,0,0,1.792.077,5.466,5.466,0,0,0,2.159-4.192,1.833,1.833,0,0,0-1.076-1.416Q530.671,297.014,529.233,299.8Z" transform="translate(-1.574 -6.636)"/><path class="cls-2" d="M544.419,315.268l-3.133-2.132,1.008-8.426-.054-.037q-.887,1.548-1.412,2.322l-2.712,3.986L536,309.541l6.015-8.843,3.122,2.123-.963,8.334.036.025q.825-1.394,1.376-2.2l2.719-4,2.129,1.449Z" transform="translate(-1.574 -6.636)"/><circle class="cls-3" cx="621.499" cy="314.093" r="21.669"/><polygon class="cls-4" points="617.132 293.165 617.132 287.829 623.093 290.497 628.384 293.165 622.758 295.834 617.132 298.502 617.132 293.165"/><polygon class="cls-4" points="627.132 335.571 627.132 340.908 621.665 338.24 616.621 335.571 621.876 332.903 627.132 330.235 627.132 335.571"/><polygon class="cls-4" points="642.417 309.795 647.754 309.795 645.085 315.142 642.417 320.126 639.749 314.961 637.08 309.795 642.417 309.795"/><polygon class="cls-4" points="600.584 318.795 595.247 318.795 597.916 313.214 600.584 308.113 603.252 313.454 605.921 318.795 600.584 318.795"/><circle class="cls-5" cx="624.691" cy="137.74" r="104.077"/><path class="cls-6" d="M530.726,100.462v16.719a5.945,5.945,0,0,0,5.944,5.945H544.1a5.945,5.945,0,0,0,5.945-5.945V100.462Z" transform="translate(-1.574 -6.636)"/><rect class="cls-6" x="536.755" y="116.105" width="7.431" height="17.277" rx="3.715" ry="3.715" transform="translate(1079.367 242.851) rotate(-180)"/><path class="cls-7" d="M544.665,117.253v.453a2.329,2.329,0,0,1-2.329,2.329H539.1a2.33,2.33,0,0,1-2.33-2.329v-.453" transform="translate(-1.574 -6.636)"/><circle class="cls-8" cx="538.958" cy="86.557" r="4.21"/><line class="cls-9" x1="627.06" y1="207.116" x2="627.06" y2="220.116"/><line class="cls-9" x1="614.06" y1="207.116" x2="614.06" y2="220.116"/><ellipse class="cls-6" cx="593.358" cy="179.129" rx="3.9" ry="5.636" transform="translate(-17.065 56.458) rotate(-6.008)"/><ellipse class="cls-6" cx="595.723" cy="177.464" rx="2.526" ry="3.458" transform="translate(-16.878 56.696) rotate(-6.008)"/><line class="cls-10" x1="593.242" y1="160.684" x2="592.285" y2="167.951"/><rect class="cls-11" x="626.359" y="95.237" width="8.158" height="18.329" rx="2.972" ry="2.972" transform="translate(1259.302 202.167) rotate(-180)"/><path class="cls-6" d="M613.045,98.148V117.1a5.945,5.945,0,0,0,5.945,5.945h7.431a5.945,5.945,0,0,0,5.944-5.945V98.148Z" transform="translate(-1.574 -6.636)"/><rect class="cls-6" x="618.742" y="117.158" width="7.431" height="17.277" rx="3.715" ry="3.715" transform="translate(1243.341 244.956) rotate(-180)"/><path class="cls-12" d="M613.045,103.637a3.2,3.2,0,0,1,3.391-3.021H630.3a4.03,4.03,0,0,0,2.067-.722V98.139h-19.32Z" transform="translate(-1.574 -6.636)"/><path class="cls-11" d="M613.045,102a3.236,3.236,0,0,1,3.236-3.236h13.863a5.179,5.179,0,0,0,5.178-5.179v-.015a5.178,5.178,0,0,0-5.147-5.178h0v.526a2.415,2.415,0,0,1-2.415,2.415h-9.591a3.715,3.715,0,0,0-3.715,3.715h.093a3.716,3.716,0,0,0-3.716,3.716h0v11.676c0,1.622.573,2.938,2.195,2.938" transform="translate(-1.574 -6.636)"/><ellipse class="cls-7" cx="618.631" cy="110.576" rx="1.835" ry="1.231"/><path class="cls-6" d="M622.81,106.229l2.366,4.081a1.489,1.489,0,0,1-1.288,2.235h-1.17S622.581,106.457,622.81,106.229Z" transform="translate(-1.574 -6.636)"/><ellipse class="cls-11" cx="620.573" cy="172.134" rx="17.402" ry="9.04"/><path class="cls-12" d="M632.365,105.372h-1.022a1.583,1.583,0,0,0-1.192-.949l-2.281-.455a4.469,4.469,0,0,0-1.74.034l-1.961.467a1.489,1.489,0,0,0-1.1.9h-.852a1.583,1.583,0,0,0-1.193-.949l-2.28-.455A4.469,4.469,0,0,0,617,104l-1.961.467a1.489,1.489,0,0,0-1.1.9h-.892v.99h.749a3.647,3.647,0,0,0,.131.489l.454.978a2.35,2.35,0,0,0,2.2,1.385,9.375,9.375,0,0,0,3.018-.026l.151-.031a2.373,2.373,0,0,0,2.223-1.636l.309-.857c.042-.13.064-.3.074-.3h.572a3.647,3.647,0,0,0,.131.489l.455.978a2.347,2.347,0,0,0,2.2,1.385,9.375,9.375,0,0,0,3.018-.026l.151-.031a2.373,2.373,0,0,0,2.223-1.636l.309-.857c.042-.13.064-.3.074-.3h.885Z" transform="translate(-1.574 -6.636)"/><rect class="cls-11" x="613.001" y="104.959" width="19.416" height="0.78" transform="translate(1243.843 204.061) rotate(-180)"/><path class="cls-11" d="M622.9,106.316l.455,1.023a2.371,2.371,0,0,0,2.2,1.408h0a9.381,9.381,0,0,0,3.019-.015l.15-.025a2.371,2.371,0,0,0,2.223-1.634l.309-.945A1.651,1.651,0,0,0,630,103.994l-2.281-.462a4.45,4.45,0,0,0-1.74.029l-1.961.482A1.651,1.651,0,0,0,622.9,106.316Z" transform="translate(-1.574 -6.636)"/><path class="cls-7" d="M623.769,106.284l.359.808a1.874,1.874,0,0,0,1.736,1.113h0a7.455,7.455,0,0,0,2.385-.012l.119-.02a1.876,1.876,0,0,0,1.757-1.291l.244-.747a1.3,1.3,0,0,0-.992-1.686l-1.8-.366a3.54,3.54,0,0,0-1.376.023l-1.549.381A1.3,1.3,0,0,0,623.769,106.284Z" transform="translate(-1.574 -6.636)"/><path class="cls-11" d="M613.77,106.316l.455,1.023a2.371,2.371,0,0,0,2.2,1.408h0a9.374,9.374,0,0,0,3.018-.015l.151-.025a2.371,2.371,0,0,0,2.223-1.634l.309-.945a1.651,1.651,0,0,0-1.255-2.134l-2.281-.462a4.45,4.45,0,0,0-1.74.029l-1.961.482A1.65,1.65,0,0,0,613.77,106.316Z" transform="translate(-1.574 -6.636)"/><path class="cls-7" d="M614.64,106.284l.359.808a1.874,1.874,0,0,0,1.736,1.113h0a7.455,7.455,0,0,0,2.385-.012l.119-.02A1.874,1.874,0,0,0,621,106.882l.245-.747a1.3,1.3,0,0,0-.992-1.686l-1.8-.366a3.535,3.535,0,0,0-1.375.023l-1.549.381A1.3,1.3,0,0,0,614.64,106.284Z" transform="translate(-1.574 -6.636)"/><path class="cls-13" d="M607.441,136.136s-8.7,15.633-9.165,17.587c-.99,4.128-4.05,17.621-4.05,17.621" transform="translate(-1.574 -6.636)"/><ellipse class="cls-6" cx="660.741" cy="128.318" rx="5.636" ry="3.9" transform="translate(465.086 766.179) rotate(-84.231)"/><ellipse class="cls-6" cx="658.086" cy="129.466" rx="3.458" ry="2.526" transform="translate(461.556 764.57) rotate(-84.231)"/><line class="cls-10" x1="655.903" y1="132.535" x2="657.618" y2="126.018"/><path class="cls-13" d="M637.648,135.859s8.681,22.57,10.415,22.57,10.123-21.915,10.123-21.915" transform="translate(-1.574 -6.636)"/><line class="cls-14" x1="627.06" y1="172.116" x2="627.06" y2="213.116"/><line class="cls-14" x1="614.06" y1="172.116" x2="614.06" y2="213.116"/><path class="cls-11" d="M619.485,220.88v8.174H605.367v-1.486h0a2.079,2.079,0,0,1,1.405-1.968l2.589-.633,1.857-4.087Z" transform="translate(-1.574 -6.636)"/><path class="cls-11" d="M624.625,220.88v8.174h14.118v-1.486h0a2.08,2.08,0,0,0-1.406-1.968l-2.588-.633-1.858-4.087Z" transform="translate(-1.574 -6.636)"/><polygon class="cls-15" points="616.734 125.116 625.078 125.116 621.053 122.238 616.734 125.116"/><polygon class="cls-15" points="616.734 125.116 620.883 150.38 625.078 125.116 616.734 125.116"/><polygon class="cls-16" points="620.883 166.191 623.285 162.891 621.998 125.646 623.879 124.199 621.053 122.444 617.915 124.133 619.815 125.693 618.5 162.888 620.883 166.191"/><polygon class="cls-15" points="617.044 120.553 614.196 122.739 616.734 125.321 621.053 122.444 617.044 120.553"/><polygon class="cls-15" points="624.768 120.553 627.571 122.878 625.078 125.321 621.053 122.444 624.768 120.553"/><path class="cls-11" d="M604.974,132.666l10.8-3.29,2.538,2.582,4.149,25.265,4.2-25.265,2.493-2.443,10.531,3.159a3.992,3.992,0,0,1,2.845,3.823v42.625H602.147V136.484A3.991,3.991,0,0,1,604.974,132.666Z" transform="translate(-1.574 -6.636)"/><rect class="cls-6" x="687.734" y="98.771" width="22.787" height="13.717" rx="5.524" ry="5.524"/><rect class="cls-6" x="689.489" y="84.939" width="19.315" height="27.897" rx="5.945" ry="5.945"/><path class="cls-6" d="M702.71,130.719h0A3.726,3.726,0,0,0,706.426,127v-9.846a3.726,3.726,0,0,0-3.715-3.715h0c-2.043,0-8.173,1.672-8.173,3.715V127C694.537,129.047,700.667,130.719,702.71,130.719Z" transform="translate(-1.574 -6.636)"/><path class="cls-6" d="M700.834,102.513l2.366,4.081a1.489,1.489,0,0,1-1.288,2.235h-1.17S700.605,102.742,700.834,102.513Z" transform="translate(-1.574 -6.636)"/><path class="cls-17" d="M720.544,172.826c0,4.993-12.249,9.04-21.86,9.04s-17.4-4.047-17.4-9.04,7.791-9.039,17.4-9.039S720.544,167.834,720.544,172.826Z" transform="translate(-1.574 -6.636)"/><ellipse class="cls-6" cx="736.448" cy="123.635" rx="5.636" ry="3.9" transform="translate(471.252 815.673) rotate(-78.858)"/><ellipse class="cls-6" cx="733.697" cy="124.529" rx="3.458" ry="2.526" transform="translate(468.156 813.695) rotate(-78.858)"/><line class="cls-10" x1="730.608" y1="127.498" x2="732.926" y2="121.171"/><path class="cls-18" d="M717.9,128.428s8.433,25.3,11.158,25.047,4.812-23.716,4.812-23.716" transform="translate(-1.574 -6.636)"/><polygon class="cls-15" points="692.529 118.116 705.331 118.116 701.306 115.238 692.529 118.116"/><polygon class="cls-15" points="692.529 118.116 698.907 143.38 705.331 118.116 692.529 118.116"/><polygon class="cls-4" points="698.907 160.246 702.795 156.947 700.022 118.216 704.132 116.768 699.077 115.013 693.709 116.702 697.839 118.262 695.037 156.944 698.907 160.246"/><polygon class="cls-15" points="692.839 113.122 689.99 115.308 692.529 117.891 699.077 115.013 692.839 113.122"/><polygon class="cls-15" points="705.021 113.122 707.824 115.448 705.331 117.891 699.077 115.013 705.021 113.122"/><path class="cls-17" d="M680.769,125.235l10.795-3.29,2.539,2.582,6.378,25.265,6.424-25.265,2.493-2.443,10.531,3.159a3.992,3.992,0,0,1,2.845,3.823v44.112H677.941V129.053A3.992,3.992,0,0,1,680.769,125.235Z" transform="translate(-1.574 -6.636)"/><path class="cls-7" d="M702.276,114.337v-.291a1.5,1.5,0,0,0-1.5-1.5H698.7a1.5,1.5,0,0,0-1.5,1.5v.291" transform="translate(-1.574 -6.636)"/><path class="cls-4" d="M705.838,102.869a.759.759,0,1,1-.759-.758A.759.759,0,0,1,705.838,102.869Z" transform="translate(-1.574 -6.636)"/><path class="cls-4" d="M695.744,102.869a.759.759,0,1,0,.759-.758A.759.759,0,0,0,695.744,102.869Z" transform="translate(-1.574 -6.636)"/><ellipse class="cls-6" cx="503.104" cy="123.747" rx="3.9" ry="5.636" transform="translate(-15.367 152.389) rotate(-17.723)"/><ellipse class="cls-6" cx="505.939" cy="124.32" rx="2.526" ry="3.458" transform="translate(-15.407 153.279) rotate(-17.723)"/><line class="cls-10" x1="506.971" y1="127.052" x2="503.944" y2="121.033"/><path class="cls-19" d="M527.962,134.806S518.054,151.278,515.794,151s-8.493-19.762-8.493-19.762" transform="translate(-1.574 -6.636)"/><ellipse class="cls-6" cx="577.714" cy="127.425" rx="5.636" ry="3.9" transform="translate(330.539 659) rotate(-77.91)"/><ellipse class="cls-6" cx="574.948" cy="128.274" rx="3.458" ry="2.526" transform="translate(327.524 656.967) rotate(-77.91)"/><line class="cls-10" x1="570.694" y1="131.481" x2="574.123" y2="124.929"/><path class="cls-19" d="M551.7,135.116s9.784,20.125,12.644,20.34,9.93-20.166,9.93-20.166" transform="translate(-1.574 -6.636)"/><polygon class="cls-15" points="533.014 125.116 544.33 125.116 538.818 122.238 533.014 125.116"/><polygon class="cls-15" points="531.528 125.116 538.633 150.38 545.816 125.116 531.528 125.116"/><path class="cls-20" d="M525.712,131.923l7.823-3.291,1.053,2.583,5.14,15.056,6.176-15.056,1.007-2.443,6.815,3.159a3.992,3.992,0,0,1,2.845,3.823l-4.459,21.469,5.2,17.834H530.445l-2.359-17.835-5.2-21.481A3.991,3.991,0,0,1,525.712,131.923Z" transform="translate(-1.574 -6.636)"/><polygon class="cls-15" points="534.81 119.81 531.961 121.996 533.014 124.578 538.818 121.701 534.81 119.81"/><polygon class="cls-15" points="542.534 119.81 545.337 122.135 544.33 124.578 538.818 121.701 542.534 119.81"/><circle class="cls-21" cx="729.51" cy="87.444" r="11.765"/><rect class="cls-21" x="733.374" y="103.582" width="2.229" height="20.806" transform="translate(-9.772 137.058) rotate(-11.112)"/><path class="cls-22" d="M730.513,99.162l-2.57.5-.974-4.96q-.178-.9-.287-1.662a5.577,5.577,0,0,1-.471.719l-.891,1.087-1.631-1.357,2.7-3.253,2.282-.448Z" transform="translate(-1.574 -6.636)"/><path class="cls-22" d="M737.494,92.939a6.44,6.44,0,0,1-.117,3.807,2.993,2.993,0,0,1-2.324,1.658,2.954,2.954,0,0,1-2.769-.711,6.344,6.344,0,0,1-1.558-3.425,6.5,6.5,0,0,1,.113-3.829,3.369,3.369,0,0,1,5.089-.95A6.407,6.407,0,0,1,737.494,92.939Zm-4.249.835a8.151,8.151,0,0,0,.628,2.145c.21.372.472.528.783.466s.5-.311.549-.747a12.312,12.312,0,0,0-.858-4.348c-.213-.389-.477-.555-.789-.494s-.494.306-.547.734A8.271,8.271,0,0,0,733.245,93.774Z" transform="translate(-1.574 -6.636)"/><circle class="cls-21" cx="587.389" cy="90.304" r="11.765"/><rect class="cls-21" x="580.529" y="105.357" width="2.229" height="20.806" transform="translate(72.282 -197.244) rotate(19.848)"/><path class="cls-22" d="M592.312,97.552a5.7,5.7,0,0,1-2.512,3.4,5.176,5.176,0,0,1-4.063-.133,10.017,10.017,0,0,1-1.23-.514l.694-1.924a5.9,5.9,0,0,0,1.021.481,3.465,3.465,0,0,0,2.2.187,2.287,2.287,0,0,0,1.38-1.42l-.074-.028a2.367,2.367,0,0,1-.7.469,1.769,1.769,0,0,1-.68.095,3.029,3.029,0,0,1-.879-.2,2.394,2.394,0,0,1-1.543-1.438,3.436,3.436,0,0,1,.118-2.388,3.126,3.126,0,0,1,4.334-2.039,3.315,3.315,0,0,1,2.154,2.014A5.046,5.046,0,0,1,592.312,97.552Zm-2.568-3.482a.861.861,0,0,0-.752.055,1.5,1.5,0,0,0-.584.838,1.433,1.433,0,0,0-.074.879.81.81,0,0,0,.551.536,1.024,1.024,0,0,0,.8-.039.993.993,0,0,0,.545-.588,1.7,1.7,0,0,0,.067-1.038A.867.867,0,0,0,589.744,94.07Z" transform="translate(-1.574 -6.636)"/><path class="cls-23" d="M682.326,165.7c-1.288,0,.049.437-1.043,0-3.79-1.515-3.485-1.68-3.342-4.8.12-2.6-2.138-11.306-1.565-15.616.96-7.223,2.2-14.194,2.254-14.487l7.675,1.37a237.993,237.993,0,0,0-2.9,25.606c2.046-.652,6.551-3.789,12.658-8.517,6.125-4.743,22.731-14.312,22.783-14.364a8.654,8.654,0,0,1-2.168,8.483c-2.553,2.821-8.691,7.948-15.347,13.079C693.249,162.686,687.086,165.7,682.326,165.7Z" transform="translate(-1.574 -6.636)"/><circle class="cls-21" cx="662.412" cy="89.296" r="11.765"/><rect class="cls-21" x="660.368" y="105.567" width="2.229" height="20.806" transform="translate(13.269 -71.954) rotate(5.717)"/><path class="cls-22" d="M664.388,90.889a3.955,3.955,0,0,1,2.276.839,2,2,0,0,1,.663,1.8,2.29,2.29,0,0,1-.525,1.283,3.2,3.2,0,0,1-1.344.866,4.734,4.734,0,0,1,1.366,1.341,2.162,2.162,0,0,1,.3,1.327,2.334,2.334,0,0,1-1.113,1.872,5.149,5.149,0,0,1-5.129-.5,2.319,2.319,0,0,1-.694-2.042,2.452,2.452,0,0,1,.537-1.367,3.482,3.482,0,0,1,1.438-.923,3.552,3.552,0,0,1-.992-1.2,2.435,2.435,0,0,1-.221-1.311,1.979,1.979,0,0,1,1.021-1.615A4.031,4.031,0,0,1,664.388,90.889Zm-1.834,6.918a.813.813,0,0,0,.22.676,1.189,1.189,0,0,0,.769.323q1.143.115,1.227-.724a1,1,0,0,0-.187-.652,3.488,3.488,0,0,0-.824-.782,2.7,2.7,0,0,0-.891.531A1.03,1.03,0,0,0,662.554,97.807Zm1.635-5.067a.834.834,0,0,0-.577.137.615.615,0,0,0-.277.473q-.057.56.66,1.065a2.208,2.208,0,0,0,.68-.425.8.8,0,0,0,.219-.483.626.626,0,0,0-.177-.524A.838.838,0,0,0,664.189,92.74Z" transform="translate(-1.574 -6.636)"/><ellipse class="cls-6" cx="716.361" cy="132.643" rx="5.636" ry="3.9" transform="translate(58.894 443.137) rotate(-36.294)"/><ellipse class="cls-6" cx="716.721" cy="135.513" rx="3.458" ry="2.526" transform="translate(57.265 443.907) rotate(-36.294)"/><line class="cls-10" x1="707.096" y1="134.33" x2="711.838" y2="129.544"/><path class="cls-18" d="M683.019,128.119s-5.061,28.335-2.6,29.319c8.256,3.3,30.181-18.431,30.181-18.431" transform="translate(-1.574 -6.636)"/><path class="cls-12" d="M549.134,102.2,539.9,96.5l-9.45,5.7.081,8.077a11.88,11.88,0,0,1,1.608-6.413v4.892h12.231l.015-6.312,1.471,6.312h2.283v-3.325c1,1.431,1,3.128,1,4.76Z" transform="translate(-1.574 -6.636)"/><path class="cls-8" d="M530.625,116.105h0a1.289,1.289,0,0,1-1.289-1.288v-10.7a10.955,10.955,0,0,1,10.955-10.955h0a10.955,10.955,0,0,1,10.954,10.955v10.06a1.289,1.289,0,0,1-1.288,1.289h0v-.967c0-3.4.731-13.6-5.028-13.6h-8.643c-4.8,0-5.661,3.895-5.661,8.7Z" transform="translate(-1.574 -6.636)"/><polygon class="cls-8" points="547.269 100.985 544.176 100.985 542.705 94.674 542.689 100.985 530.165 100.985 530.165 92.997 547.269 92.997 547.269 100.985"/><path class="cls-24" d="M545.827,108.814a.759.759,0,1,1-.759-.759A.758.758,0,0,1,545.827,108.814Z" transform="translate(-1.574 -6.636)"/><path class="cls-24" d="M535.733,108.814a.759.759,0,1,0,.759-.759A.758.758,0,0,0,535.733,108.814Z" transform="translate(-1.574 -6.636)"/><path class="cls-25" d="M728.24,165.2H524.291A104.384,104.384,0,0,0,573.3,233.9H679.228A104.385,104.385,0,0,0,728.24,165.2Z" transform="translate(-1.574 -6.636)"/><path class="cls-26" d="M728.747,162.557H523.784q.4,2.255.9,4.474H727.85Q728.347,164.811,728.747,162.557Z" transform="translate(-1.574 -6.636)"/><circle class="cls-5" cx="775.977" cy="411.841" r="104.077"/><rect class="cls-6" x="723.618" y="366.835" width="8.943" height="20.793" rx="4.472" ry="4.472" transform="translate(1454.605 747.826) rotate(180)"/><path class="cls-6" d="M723.618,347.272v22.805a7.154,7.154,0,0,0,7.154,7.154h8.944a7.154,7.154,0,0,0,7.154-7.154V347.272Z" transform="translate(-1.574 -6.636)"/><path class="cls-12" d="M723.194,367.935h2.362c1.975,0,2.638-1.994,2.638-3.969v-8.923c0-1,1.749-1.108,2.748-1.108h1.252v3.472c2,0,2-1.6,2-3.577v-1.173c0-2.151,2.943-4.722,5.094-4.722h6.906v-2h-23Z" transform="translate(-1.574 -6.636)"/><path class="cls-12" d="M723.194,367.935h2.362c1.975,0,2.638-1.994,2.638-3.969v-8.923c0-1,1.749-1.108,2.748-1.108h1.252v3.472c2,0,2-1.6,2-3.577v-1.173c0-2.151,2.943-4.722,5.094-4.722h6.906v-2h-23Z" transform="translate(-1.574 -6.636)"/><ellipse class="cls-6" cx="785.316" cy="414.445" rx="6.782" ry="4.693"/><line class="cls-27" x1="772.619" y1="474.299" x2="772.619" y2="490.299"/><path class="cls-21" d="M721.993,384.662l16.679,5.835v-1.864A7.637,7.637,0,0,0,731.034,381h-9.041Z" transform="translate(-1.574 -6.636)"/><path class="cls-22" d="M747.941,335.087h0v.633a2.906,2.906,0,0,1-2.906,2.907h-15.9a4.472,4.472,0,0,0-4.472,4.471h-.894a4.472,4.472,0,0,0-4.472,4.472h0v15.244a3.537,3.537,0,0,0,3.537,3.536h2.724a3.577,3.577,0,0,0,3.577-3.577h0v-7.134a1.809,1.809,0,0,1,1.809-1.809h.874v3.577h0a3.577,3.577,0,0,0,3.577-3.577h0v-2.365a3.9,3.9,0,0,1,3.895-3.895H747.9a6.232,6.232,0,0,0,6.232-6.232v-.019a6.232,6.232,0,0,0-6.195-6.232Z" transform="translate(-1.574 -6.636)"/><path class="cls-11" d="M742.361,356.979a.913.913,0,1,0,.913-.913A.913.913,0,0,0,742.361,356.979Z" transform="translate(-1.574 -6.636)"/><path class="cls-22" d="M742.361,356.979a.913.913,0,1,0,.913-.913A.913.913,0,0,0,742.361,356.979Z" transform="translate(-1.574 -6.636)"/><ellipse class="cls-7" cx="741.989" cy="360.748" rx="2.208" ry="1.481"/><path class="cls-6" d="M746.519,356.55c1.668,2.706,1.64,2.557,2.959,3.7a8.547,8.547,0,0,0,3.478,1.689c.895,1.391-2.793,1.193-4.173,1.193,0,0-1.648,1.146-2.265,1.02S744.852,353.844,746.519,356.55Z" transform="translate(-1.574 -6.636)"/><path class="cls-28" d="M779.63,489.05l6.461,5.643a5.139,5.139,0,0,0,1.053.711l1.766.9a7.52,7.52,0,0,0,3.4.815h2.618c1.9,0,3.442.467,3.442,2.368v.443L787.688,501h-8.036l-1.375-.746a4.571,4.571,0,0,0-4.716.215l-.8.531h-5.475V490.175l2.173-.019a6.977,6.977,0,0,0,8.619.085Z" transform="translate(-1.574 -6.636)"/><path class="cls-29" d="M731.875,449.651s39.833.868,41.659,2.1,0,37,0,37" transform="translate(-1.574 -6.636)"/><line class="cls-30" x1="729.119" y1="435.299" x2="729.119" y2="450.299"/><path class="cls-31" d="M748.3,444.062c-.085,5.967-12.385,10.7-18.352,10.619a10.8,10.8,0,1,1,.307-21.607C736.221,433.159,748.384,438.1,748.3,444.062Z" transform="translate(-1.574 -6.636)"/><path class="cls-28" d="M724.452,384.039h0A5.157,5.157,0,0,0,719.3,389.2v55.083H755.06V415.948C755.06,394.213,736.417,384.039,724.452,384.039Z" transform="translate(-1.574 -6.636)"/><path class="cls-7" d="M723.2,343.032,719,327.076l13.26-3.5,4.213,15.985a1.948,1.948,0,0,1-.944,2.2,22.592,22.592,0,0,1-5.312,2.132,19.628,19.628,0,0,1-5.187.583A1.94,1.94,0,0,1,723.2,343.032Z" transform="translate(-1.574 -6.636)"/><path class="cls-21" d="M720.571,333.051a8.714,8.714,0,0,1,7.04-.19,5.45,5.45,0,0,1,4.823-3.223,5.438,5.438,0,0,0,1.28-.524l-1.458-5.533-13.26,3.5Z" transform="translate(-1.574 -6.636)"/><circle class="cls-7" cx="718.363" cy="318.629" r="5.485"/><circle class="cls-7" cx="722.968" cy="314.579" r="5.485"/><circle class="cls-7" cx="724.032" cy="318.615" r="5.485"/><circle class="cls-7" cx="728.854" cy="315.391" r="5.485"/><path class="cls-32" d="M745.566,364.523h-2.759a4.766,4.766,0,0,0-3.369,1.395l-.263.263a1.975,1.975,0,0,1-2.794,0h0" transform="translate(-1.574 -6.636)"/><path class="cls-31" d="M755.016,437.126c-5.016-.295-10.2-1.532-12.716-4.191-7.028-7.433-10.656-28-11.274-30.325l8.369-2.765c2.07,7.756,6.807,21.6,10.7,25.717.659.512,3,.152,4.961.245Z" transform="translate(-1.574 -6.636)"/><path class="cls-33" d="M734.21,395.228s5.693,21.361,11.989,28.021,36.965-1.789,36.965-1.789" transform="translate(-1.574 -6.636)"/><rect class="cls-34" x="707.572" y="409.589" width="6.543" height="29.635" rx="2.385" ry="2.385"/><rect class="cls-34" x="710.085" y="451.405" width="42.346" height="7.452" rx="2.385" ry="2.385" transform="translate(1460.942 903.625) rotate(-180)"/><rect class="cls-35" x="729.499" y="458.857" width="3.577" height="8.048" transform="translate(1461.001 919.126) rotate(-180)"/><rect class="cls-36" x="727.878" y="466.905" width="6.819" height="22.241" transform="translate(1461.001 949.415) rotate(-180)"/><rect class="cls-37" x="727.878" y="486.778" width="6.819" height="2.369" transform="translate(1461.001 969.288) rotate(-180)"/><polygon class="cls-37" points="730.31 484.116 749.984 486.203 749.984 483.404 730.31 481.318 730.31 484.116"/><rect class="cls-37" x="748.744" y="490.041" width="2.814" height="5.779" transform="translate(1498.727 979.224) rotate(-180)"/><circle class="cls-35" cx="748.684" cy="490.567" r="2.79"/><polygon class="cls-37" points="730.31 484.116 710.636 486.203 710.636 483.404 730.31 481.318 730.31 484.116"/><rect class="cls-37" x="710.636" y="483.404" width="2.814" height="5.779"/><circle class="cls-35" cx="711.936" cy="490.567" r="2.79"/><polygon class="cls-37" points="729.714 483.909 720.026 486.203 720.026 483.404 729.714 481.111 729.714 483.909"/><rect class="cls-37" x="720.026" y="483.404" width="2.814" height="5.779"/><circle class="cls-35" cx="721.325" cy="490.567" r="2.79"/><polygon class="cls-37" points="729.714 483.909 739.402 486.203 739.402 483.404 729.714 481.111 729.714 483.909"/><rect class="cls-37" x="738.161" y="490.041" width="2.814" height="5.779" transform="translate(1477.563 979.224) rotate(-180)"/><circle class="cls-35" cx="738.102" cy="490.567" r="2.79"/><path class="cls-34" d="M732.637,438.009l-.536-.979a2.293,2.293,0,0,0-2.447-1.424H711.418a2.391,2.391,0,0,0-2.385,2.384v.439h20.621l1.245,2.843,1.3-.548A2.1,2.1,0,0,0,732.637,438.009Z" transform="translate(-1.574 -6.636)"/><rect class="cls-37" x="717.453" y="430.122" width="3.894" height="20.508" transform="translate(1158.202 -285.66) rotate(90)"/><polygon class="cls-37" points="735.403 452.22 730.932 452.22 724.7 433.74 728.072 431.793 735.403 452.22"/><rect class="cls-28" x="820.103" y="425.715" width="4.982" height="67.784"/><rect class="cls-25" x="820.103" y="424.67" width="4.982" height="19.47"/><rect class="cls-28" x="784.65" y="424.385" width="31.382" height="1.715" transform="translate(-42.812 82.269) rotate(-6.199)"/><rect class="cls-28" x="831.349" y="330.57" width="5.414" height="80.416" transform="translate(78.629 -150.476) rotate(10.352)"/><rect class="cls-38" x="832.514" y="330.284" width="1.091" height="67.844" transform="translate(1585.539 865.542) rotate(-169.648)"/><path class="cls-39" d="M843.945,331.711l.726,8.18a121.371,121.371,0,0,1-11.605,63.531l-3.572,7.4Z" transform="translate(-1.574 -6.636)"/><path class="cls-39" d="M820.88,427.844l.12-.728,32.771-1.059a5.037,5.037,0,0,0,4.693-6.57l-13.523-44.423a2.505,2.505,0,0,0-1.937-1.7l-.309-2.187a4.642,4.642,0,0,1,3.6,3.161l14.219,44.5a7.185,7.185,0,0,1-6.694,9.371Z" transform="translate(-1.574 -6.636)"/><circle class="cls-39" cx="812.025" cy="419.554" r="1.599"/><path class="cls-4" d="M881.205,427.79H783.27v4.563H880.7Q881,430.087,881.205,427.79Z" transform="translate(-1.574 -6.636)"/><circle class="cls-5" cx="470.409" cy="412.419" r="104.077"/><path class="cls-40" d="M480.371,477.46H457.389a6.531,6.531,0,0,1-6.281-6.394l-1.079-40.019h37.728l-1.106,40.019A6.53,6.53,0,0,1,480.371,477.46Z" transform="translate(-1.574 -6.636)"/><path class="cls-41" d="M450.478,448.409l.63,22.2c.008,4.262,2.636,6.853,6.04,6.853h23.5c3.4,0,5.986-3.059,6-6.853l.631-22.2Z" transform="translate(-1.574 -6.636)"/><path class="cls-40" d="M480.371,477.46H457.389a6.531,6.531,0,0,1-6.281-6.394l-1.079-40.019h37.728l-1.106,40.019A6.53,6.53,0,0,1,480.371,477.46Z" transform="translate(-1.574 -6.636)"/><path class="cls-41" d="M450.478,448.409l.63,22.2c.008,4.262,2.636,6.853,6.04,6.853h23.5c3.4,0,5.986-3.059,6-6.853l.631-22.2Z" transform="translate(-1.574 -6.636)"/><path class="cls-40" d="M529.824,477.46H506.842a6.531,6.531,0,0,1-6.281-6.394l-1.079-40.019H537.21L536.1,471.066A6.53,6.53,0,0,1,529.824,477.46Z" transform="translate(-1.574 -6.636)"/><path class="cls-41" d="M499.931,448.409l.63,22.2c.008,4.262,2.636,6.853,6.04,6.853h23.5c3.4,0,5.986-3.059,6-6.853l.631-22.2Z" transform="translate(-1.574 -6.636)"/><path class="cls-41" d="M450.478,448.427c4.486-.01,15.41-.456,15.311-32.618-.118-38.612,6.9,0,6.9,0s-1.932,32.326,14.6,32.626" transform="translate(-1.574 -6.636)"/><rect class="cls-42" x="441.4" y="374.445" width="51.333" height="12.963"/><polygon class="cls-43" points="492.733 374.445 441.4 374.445 425.639 365.873 508.493 365.873 492.733 374.445"/><polygon class="cls-4" points="492.733 374.445 441.4 374.445 425.639 365.873 508.493 365.873 492.733 374.445"/><rect class="cls-42" x="425.639" y="331.942" width="82.854" height="33.932"/><rect class="cls-42" x="421.333" y="350.491" width="91.467" height="8.762"/><rect class="cls-4" x="425.639" y="359.253" width="82.854" height="2.768"/><rect class="cls-4" x="425.639" y="332.088" width="82.854" height="2.842"/><rect class="cls-42" x="409.231" y="318.796" width="115.67" height="13.146"/><path class="cls-4" d="M475.534,417.35H461.746c-.135-8.432-5.823-19.883-13.958-22.109l-4.814-1.318h51.333l-5.343,1.594c-7.859,2.345-13.293,13.633-13.43,21.833Z" transform="translate(-1.574 -6.636)"/><path class="cls-40" d="M429.569,477.46H406.587a6.529,6.529,0,0,1-6.28-6.394l-1.08-40.019h37.728l-1.106,40.019A6.529,6.529,0,0,1,429.569,477.46Z" transform="translate(-1.574 -6.636)"/><rect class="cls-42" x="409.231" y="331.942" width="11.996" height="5.83"/><rect class="cls-4" x="409.231" y="331.942" width="11.996" height="2.742"/><rect class="cls-42" x="409.231" y="351.957" width="12.119" height="5.83"/><rect class="cls-42" x="413.287" y="337.772" width="3.884" height="14.186"/><rect class="cls-4" x="413.287" y="337.772" width="3.884" height="3.181"/><polygon class="cls-42" points="387.58 363.117 386.565 360.249 406.057 353.351 415.444 353.351 415.444 356.393 406.58 356.393 387.58 363.117"/><path class="cls-42" d="M456.973,402.963a29.922,29.922,0,0,1,4.741,14.7h13.694c.077,0,1.822-10.5,4.725-14.7Z" transform="translate(-1.574 -6.636)"/><path class="cls-40" d="M555,477.46h3.179a103.458,103.458,0,0,0,17.2-46.413H547.644l1.079,40.019A6.531,6.531,0,0,0,555,477.46Z" transform="translate(-1.574 -6.636)"/><path class="cls-44" d="M385.553,477.122a104.67,104.67,0,0,0,7.634,10H550.779a104.845,104.845,0,0,0,7.635-10Z" transform="translate(-1.574 -6.636)"/><path class="cls-40" d="M384.567,475.621a6.749,6.749,0,0,0,1.985-4.555l1.106-40.019h-19.07A103.425,103.425,0,0,0,384.567,475.621Z" transform="translate(-1.574 -6.636)"/><path class="cls-41" d="M554.763,477.46h3.419a103.677,103.677,0,0,0,13.7-29.051H548.092l.631,22.2C548.731,474.869,551.359,477.46,554.763,477.46Z" transform="translate(-1.574 -6.636)"/><path class="cls-25" d="M255.162,208.746H54.381c-7.629,0-13.813-6.811-13.813-15.212V44.671c0-8.4,6.184-15.213,13.813-15.213H255.162c7.629,0,13.813,6.811,13.813,15.213V193.534C268.975,201.935,262.791,208.746,255.162,208.746Z" transform="translate(-1.574 -6.636)"/><path class="cls-4" d="M268.975,44.335c0-8.216-6.184-14.877-13.813-14.877H54.381c-7.629,0-13.813,6.661-13.813,14.877v136H268.975Z" transform="translate(-1.574 -6.636)"/><rect class="cls-5" x="50.214" y="33.028" width="208.98" height="131.234"/><path class="cls-25" d="M254.011,495.626H53.2c-7.63,0-13.815-6.812-13.815-15.215V331.523c0-8.4,6.185-15.215,13.815-15.215H254.011c7.63,0,13.816,6.812,13.816,15.215V480.411C267.827,488.814,261.641,495.626,254.011,495.626Z" transform="translate(-1.574 -6.636)"/><path class="cls-4" d="M267.827,331.187c0-8.218-6.186-14.879-13.816-14.879H53.2c-7.63,0-13.815,6.661-13.815,14.879V467.212H267.827Z" transform="translate(-1.574 -6.636)"/><rect class="cls-5" x="47.522" y="319.862" width="209.016" height="131.256"/><path class="cls-42" d="M190.96,520.743c-.566-1.165-6.667-6.85-9.864-10.5s-3.2-14.614-3.2-14.614h-48.59s0,10.96-3.2,14.614-9.3,9.338-9.864,10.5c-.206.423,1.644,1.735,2.74,1.827s34.616,0,34.616,0,33.52.091,34.616,0S191.166,521.166,190.96,520.743Z" transform="translate(-1.574 -6.636)"/><path class="cls-17" d="M190.96,520.743a7.4,7.4,0,0,1-2.74,1.827c-.414.08-34.616,0-34.616,0s-34.2.08-34.616,0a7.4,7.4,0,0,1-2.74-1.827,2.462,2.462,0,0,0,2.488,2.318h69.735A2.462,2.462,0,0,0,190.96,520.743Z" transform="translate(-1.574 -6.636)"/><path class="cls-45" d="M128.22,505.431h50.768a50.111,50.111,0,0,1-1.089-10h-48.59A50.111,50.111,0,0,1,128.22,505.431Z" transform="translate(-1.574 -6.636)"/><path class="cls-42" d="M191.96,233.743c-.566-1.165-6.667-6.85-9.864-10.5s-3.2-14.614-3.2-14.614h-48.59s0,10.96-3.2,14.614-9.3,9.338-9.864,10.5c-.206.423,1.644,1.735,2.74,1.827s34.616,0,34.616,0,33.52.091,34.616,0S192.166,234.166,191.96,233.743Z" transform="translate(-1.574 -6.636)"/><path class="cls-17" d="M191.96,233.743a7.4,7.4,0,0,1-2.74,1.827c-.414.08-34.616,0-34.616,0s-34.2.08-34.616,0a7.4,7.4,0,0,1-2.74-1.827,2.462,2.462,0,0,0,2.488,2.318h69.735A2.462,2.462,0,0,0,191.96,233.743Z" transform="translate(-1.574 -6.636)"/><path class="cls-45" d="M129.22,218.431h50.768a50.111,50.111,0,0,1-1.089-10h-48.59A50.111,50.111,0,0,1,129.22,218.431Z" transform="translate(-1.574 -6.636)"/><path class="cls-46" d="M180.574,316.307,85.932,495.626H53.2c-7.631,0-13.816-6.812-13.816-15.216V331.523c0-8.4,6.185-15.216,13.816-15.216Z" transform="translate(-1.574 -6.636)"/><path class="cls-46" d="M182.062,29.458,87.436,208.746H54.705c-7.629,0-13.813-6.81-13.813-15.213V44.671c0-8.4,6.184-15.213,13.813-15.213Z" transform="translate(-1.574 -6.636)"/><rect class="cls-7" x="85.764" y="86.562" width="16.623" height="16.623" transform="translate(-38.049 59.816) rotate(-32.96)"/><rect class="cls-7" x="63.97" y="82.889" width="16.623" height="16.623"/><rect class="cls-7" x="73.63" y="71.346" width="16.623" height="16.623" transform="translate(-14.541 9.364) rotate(-10.34)"/><rect class="cls-7" x="100.114" y="387.087" width="22.424" height="22.424" transform="translate(-200.353 118.038) rotate(-32.96)"/><rect class="cls-7" x="71.264" y="384.447" width="22.424" height="22.424"/><rect class="cls-7" x="83.745" y="366.56" width="22.424" height="22.424" transform="translate(-67.837 16.542) rotate(-10.34)"/><rect class="cls-4" x="108.956" y="78.038" width="12.76" height="4.41"/><polygon class="cls-4" points="118.132 79.989 118.132 75.351 122.755 77.67 127.076 79.989 122.604 82.308 118.132 84.627 118.132 79.989"/><rect class="cls-4" x="184.591" y="83.12" width="12.76" height="4.41" transform="translate(380.368 164.014) rotate(-180)"/><polygon class="cls-4" points="185.132 78.435 185.132 73.796 181.243 76.115 177.29 78.435 181.211 80.754 185.132 83.073 185.132 78.435"/><rect class="cls-4" x="149.988" y="120.162" width="12.437" height="4.664" transform="translate(32.139 272.063) rotate(-90)"/><polygon class="cls-4" points="154.345 112.748 158.984 112.748 156.664 108.315 154.345 104.09 152.026 108.419 149.707 112.748 154.345 112.748"/><path class="cls-40" d="M164.417,103.411H147.923a4.687,4.687,0,0,1-4.508-4.589L142.64,70.1h27.078l-.793,28.722A4.687,4.687,0,0,1,164.417,103.411Z" transform="translate(-1.574 -6.636)"/><path class="cls-41" d="M142.962,82.561l.453,15.932c.006,3.059,1.892,4.918,4.335,4.918h16.867c2.443,0,4.3-2.2,4.308-4.918l.452-15.932Z" transform="translate(-1.574 -6.636)"/><rect class="cls-4" x="146.82" y="71.866" width="15.57" height="18.955"/><path class="cls-47" d="M151.082,80.428a2.027,2.027,0,0,1,.352.031.545.545,0,0,1,.21.068.135.135,0,0,1,.063.118.112.112,0,0,1-.023.075.338.338,0,0,1-.1.066.174.174,0,0,0-.1.109c-.009.041-.017.2-.024.485s-.006.436-.008.491a1.156,1.156,0,0,1-.02.158.647.647,0,0,1-.18.354.781.781,0,0,1-.286.165,1.115,1.115,0,0,1-.366.06,1.354,1.354,0,0,1-.344-.045,1.071,1.071,0,0,1-.3-.124.488.488,0,0,1-.228-.41.353.353,0,0,1,.1-.255.324.324,0,0,1,.243-.1.363.363,0,0,1,.244.085.267.267,0,0,1,.1.212.549.549,0,0,1-.018.109.118.118,0,0,0,0,.034.1.1,0,0,0,.036.08.136.136,0,0,0,.094.03.2.2,0,0,0,.167-.091.432.432,0,0,0,.063-.245l0-.14,0-.378c-.009-.23-.016-.364-.021-.4a.2.2,0,0,0-.034-.1.135.135,0,0,0-.041-.04.452.452,0,0,0-.1-.029.11.11,0,0,1-.064-.044.129.129,0,0,1-.026-.076.16.16,0,0,1,.066-.133.533.533,0,0,1,.213-.081A1.664,1.664,0,0,1,151.082,80.428Z" transform="translate(-1.574 -6.636)"/><path class="cls-47" d="M152.742,81.028a.85.85,0,0,1,.5.147.777.777,0,0,1,.245.273.753.753,0,0,1,.1.367.7.7,0,0,1-.307.569,1.076,1.076,0,0,1-.671.224.846.846,0,0,1-.6-.21.686.686,0,0,1-.222-.531.746.746,0,0,1,.271-.595A1.023,1.023,0,0,1,152.742,81.028Zm-.124.356a.133.133,0,0,0-.108.05.2.2,0,0,0-.041.134,1.254,1.254,0,0,0,.034.252,2.006,2.006,0,0,0,.083.283.165.165,0,0,0,.156.127c.091,0,.137-.058.137-.175a1.467,1.467,0,0,0-.034-.3,1.238,1.238,0,0,0-.085-.267A.164.164,0,0,0,152.618,81.384Z" transform="translate(-1.574 -6.636)"/><path class="cls-47" d="M155.328,80.946a.082.082,0,0,1,.068.044.181.181,0,0,1,.03.1.346.346,0,0,1-.039.143.41.41,0,0,1-.1.129c-.023.02-.035.036-.035.049l0,.037a.414.414,0,0,1,0,.058.422.422,0,0,1-.123.309.746.746,0,0,1-.286.173,1.15,1.15,0,0,1-.384.061.833.833,0,0,1-.1-.005c-.027,0-.047,0-.062,0a.073.073,0,0,0-.082.082.092.092,0,0,0,.054.082.291.291,0,0,0,.144.03,1.481,1.481,0,0,0,.182-.017,2.954,2.954,0,0,1,.373-.036.553.553,0,0,1,.283.061.331.331,0,0,1,.127.13.356.356,0,0,1,.047.178.485.485,0,0,1-.114.3.8.8,0,0,1-.4.257,1.6,1.6,0,0,1-.478.065,1.274,1.274,0,0,1-.555-.105.424.424,0,0,1-.158-.13.28.28,0,0,1-.058-.167.2.2,0,0,1,.033-.11.184.184,0,0,1,.084-.073c.031-.012.046-.026.046-.04s-.012-.028-.038-.049a.292.292,0,0,1-.124-.215.254.254,0,0,1,.06-.153.413.413,0,0,1,.147-.122c.025-.012.037-.024.037-.037s-.015-.036-.046-.064a.453.453,0,0,1-.159-.343.38.38,0,0,1,.056-.2.5.5,0,0,1,.157-.16.977.977,0,0,1,.55-.162,1.3,1.3,0,0,1,.269.03,1.267,1.267,0,0,0,.193.028.538.538,0,0,0,.334-.133A.12.12,0,0,1,155.328,80.946Zm-1.173,1.724c-.026,0-.039.014-.039.045a.165.165,0,0,0,.1.146.508.508,0,0,0,.256.057.582.582,0,0,0,.237-.04.125.125,0,0,0,.085-.113.08.08,0,0,0-.032-.065.117.117,0,0,0-.081-.027c-.016,0-.04,0-.07,0a1.137,1.137,0,0,1-.193.015,1.465,1.465,0,0,1-.151-.008l-.088-.012Zm.336-1.405a.15.15,0,0,0-.124.059.24.24,0,0,0-.047.156.605.605,0,0,0,.05.267.153.153,0,0,0,.135.1.156.156,0,0,0,.13-.062.276.276,0,0,0,.047-.167.548.548,0,0,0-.05-.257A.165.165,0,0,0,154.491,81.265Z" transform="translate(-1.574 -6.636)"/><path class="cls-47" d="M156.373,80.536l-.021.646c0,.077.022.117.072.117.024,0,.048-.018.072-.052a.462.462,0,0,1,.4-.217.522.522,0,0,1,.391.149.375.375,0,0,1,.092.158,1.069,1.069,0,0,1,.03.26l.014.557a.244.244,0,0,0,.019.106.294.294,0,0,0,.082.085.106.106,0,0,1,.045.085c0,.112-.167.167-.5.167q-.447,0-.447-.156a.075.075,0,0,1,.008-.04.914.914,0,0,1,.054-.074.848.848,0,0,0,.064-.424.877.877,0,0,0-.038-.3.184.184,0,0,0-.182-.128.154.154,0,0,0-.139.069.366.366,0,0,0-.033.184v.3a2.171,2.171,0,0,0,.019.224.367.367,0,0,0,.071.1.109.109,0,0,1,.03.076c0,.116-.152.174-.454.174q-.531,0-.531-.18a.109.109,0,0,1,.017-.065.446.446,0,0,1,.084-.068c.039-.027.066-.1.08-.225a5.578,5.578,0,0,0,.023-.605,3.628,3.628,0,0,0-.019-.46.147.147,0,0,0-.022-.069.158.158,0,0,0-.061-.046c-.064-.034-.1-.072-.1-.115a.145.145,0,0,1,.073-.125,1.109,1.109,0,0,1,.278-.1,1.768,1.768,0,0,1,.442-.077C156.346,80.459,156.375,80.485,156.373,80.536Z" transform="translate(-1.574 -6.636)"/><path class="cls-47" d="M158.5,81.118v.836c0,.179.059.268.178.268a.171.171,0,0,0,.088-.025.144.144,0,0,0,.06-.063,1,1,0,0,0,.034-.33,2.311,2.311,0,0,0-.017-.345.117.117,0,0,0-.022-.057.221.221,0,0,0-.059-.041.133.133,0,0,1-.087-.117c0-.064.05-.108.151-.133a2.364,2.364,0,0,1,.566-.07c.1,0,.156.054.156.165l0,.069c0,.049,0,.109,0,.181v.679c0,.036.03.068.089.1a.12.12,0,0,1,.076.109c0,.092-.11.164-.329.213a1.589,1.589,0,0,1-.373.045.212.212,0,0,1-.1-.016.08.08,0,0,1-.032-.067c0-.063-.025-.095-.058-.095a.074.074,0,0,0-.034.008c-.011.005-.042.027-.095.063a.585.585,0,0,1-.334.106.477.477,0,0,1-.418-.171.85.85,0,0,1-.1-.483c0-.084,0-.156,0-.216v-.071a.586.586,0,0,0-.024-.2.188.188,0,0,0-.087-.1.27.27,0,0,1-.077-.05.078.078,0,0,1-.016-.051c0-.078.059-.129.177-.155a2.775,2.775,0,0,1,.605-.066C158.474,81.041,158.5,81.066,158.5,81.118Z" transform="translate(-1.574 -6.636)"/><path class="cls-47" d="M160.52,81.039c.055,0,.088.008.1.023a.43.43,0,0,1,.032.149c.005.045.021.067.048.067s.04-.015.058-.045a.37.37,0,0,1,.322-.192.306.306,0,0,1,.23.091.336.336,0,0,1,.071.115.339.339,0,0,1-.006.283.379.379,0,0,1-.088.126.34.34,0,0,1-.242.094.28.28,0,0,1-.132-.028.648.648,0,0,1-.14-.112.09.09,0,0,0-.06-.032.055.055,0,0,0-.056.048.965.965,0,0,0-.013.2,1.955,1.955,0,0,0,.017.317.123.123,0,0,0,.03.064.235.235,0,0,0,.082.037c.093.027.139.076.139.144a.161.161,0,0,1-.044.111.231.231,0,0,1-.119.062,2.256,2.256,0,0,1-.435.031,1.4,1.4,0,0,1-.415-.047c-.084-.03-.127-.08-.127-.151a.175.175,0,0,1,.093-.142.275.275,0,0,0,.062-.054.155.155,0,0,0,.023-.066,3.651,3.651,0,0,0,.024-.519.24.24,0,0,0-.015-.1.115.115,0,0,0-.062-.049c-.072-.029-.109-.07-.109-.125a.151.151,0,0,1,.076-.126.856.856,0,0,1,.253-.107A1.5,1.5,0,0,1,160.52,81.039Z" transform="translate(-1.574 -6.636)"/><path class="cls-47" d="M162.452,81.434v.521a.24.24,0,0,0,.045.151.143.143,0,0,0,.117.059.356.356,0,0,0,.159-.056.091.091,0,0,1,.046-.014.088.088,0,0,1,.068.045.17.17,0,0,1,.031.1.249.249,0,0,1-.105.184.793.793,0,0,1-.531.186.557.557,0,0,1-.4-.14.478.478,0,0,1-.15-.368v-.713a.07.07,0,0,0-.009-.044.078.078,0,0,0-.044-.007h-.158q-.045,0-.057-.015a.115.115,0,0,1-.013-.069v-.068a.078.078,0,0,1,.036-.068l.706-.444a.142.142,0,0,1,.065-.014h.125a.063.063,0,0,1,.052.018.124.124,0,0,1,.013.07v.208a.083.083,0,0,0,.015.06.1.1,0,0,0,.062.014h.285c.038,0,.063.007.074.022a.143.143,0,0,1,.017.087v.092a.186.186,0,0,1-.021.1.1.1,0,0,1-.079.028h-.279a.06.06,0,0,0-.074.074Z" transform="translate(-1.574 -6.636)"/><polygon class="cls-4" points="141.101 64.422 168.11 64.422 168.144 61.796 141.066 61.796 141.101 64.422"/><polyline class="cls-48" points="212.647 82.353 220.028 58.409 226.081 82.183"/><path class="cls-49" d="M221.558,92.867a7.379,7.379,0,0,1-14.678-1.53c.264-2.533,2.277-6.281,4.923-6.005,2.727.284,2.872,2.4,2.872,2.4a3.393,3.393,0,0,1,3.257-1.691C220.756,86.27,221.844,90.12,221.558,92.867Z" transform="translate(-1.574 -6.636)"/><path class="cls-50" d="M234.945,90.986a7.378,7.378,0,1,1-14.586,2.237c-.386-2.517.611-6.653,3.242-7.056,2.71-.416,3.385,1.594,3.385,1.594a3.394,3.394,0,0,1,2.723-2.461C232.5,84.808,234.527,88.256,234.945,90.986Z" transform="translate(-1.574 -6.636)"/><ellipse class="cls-28" cx="231.873" cy="93.927" rx="2.271" ry="1.21" transform="translate(43.253 253.427) rotate(-63.664)"/><circle class="cls-28" cx="215.587" cy="88.548" r="1.221"/><path class="cls-51" d="M186.164,397.6a23.8,23.8,0,0,0,9.326,18.833H211a23.8,23.8,0,0,0,9.325-18.833c0-5.278-1.873-10.167-4.9-15.167H191.066C188.037,387.431,186.164,392.32,186.164,397.6Z" transform="translate(-1.574 -6.636)"/><path class="cls-52" d="M210.706,382.431v32.591c6-3.717,9.245-10.978,9.245-17.9,0-5.357-1.4-9.692-4.475-14.692Z" transform="translate(-1.574 -6.636)"/><rect class="cls-28" x="187.725" y="371.942" width="27.823" height="4.974" rx="2.487" ry="2.487"/><rect class="cls-28" x="206.676" y="386.345" width="4.451" height="10.629" rx="2.225" ry="2.225"/><ellipse class="cls-52" cx="216.589" cy="363.082" rx="7.458" ry="9.234" transform="translate(-194.874 252.859) rotate(-45)"/><rect class="cls-51" x="204.281" y="354.972" width="11.557" height="3.16" rx="1.58" ry="1.58" transform="translate(-192.169 246.33) rotate(-45)"/><rect class="cls-51" x="216.847" y="367.539" width="11.557" height="3.16" rx="1.58" ry="1.58" transform="translate(-197.375 258.896) rotate(-45)"/><rect class="cls-51" x="205.256" y="358.114" width="15.891" height="3.16" rx="1.58" ry="1.58" transform="translate(-193.471 249.471) rotate(-45)"/><rect class="cls-51" x="211.539" y="364.397" width="15.891" height="3.16" rx="1.58" ry="1.58" transform="translate(-196.073 255.755) rotate(-45)"/><rect class="cls-51" x="206.952" y="361.255" width="18.781" height="3.16" rx="1.58" ry="1.58" transform="translate(-194.772 252.613) rotate(-45)"/><rect class="cls-51" x="233.065" y="365.594" width="2.119" height="30.385" transform="translate(-202.258 270.444) rotate(-45)"/><circle class="cls-51" cx="244.395" cy="385.796" r="2.646"/><rect class="cls-4" x="140.768" y="383.811" width="18.375" height="6.351"/><polygon class="cls-4" points="156.132 386.621 156.132 379.941 161.716 383.281 167.4 386.621 161.766 389.96 156.132 393.3 156.132 386.621"/><rect class="cls-4" x="287.768" y="385.176" width="22.53" height="7.787"/><polygon class="cls-4" points="306.132 388.621 306.132 380.431 313.215 384.526 320.303 388.621 313.218 392.716 306.132 396.81 306.132 388.621"/><rect class="cls-4" x="142.896" y="266.361" width="22.53" height="7.787" transform="translate(422.842 109.457) rotate(90)"/><polygon class="cls-4" points="153.036 270.717 161.225 270.717 157.131 277.8 153.036 284.888 148.941 277.803 144.846 270.717 153.036 270.717"/><polygon class="cls-53" points="163.46 159.247 145.231 159.247 142.284 127.422 166.406 127.422 163.46 159.247"/><path class="cls-54" d="M144.5,140.808s3.035-2.353,6.227-1.923,6.875,4.188,10.623,4.058c4.771-.165,6.062-2.973,6.062-2.973l-2.177,24.041H146.6Z" transform="translate(-1.574 -6.636)"/><path class="cls-4" d="M15.33,54.176H9.456V42.839q0-2.065.088-3.78A12.546,12.546,0,0,1,8.2,40.436L5.764,42.443l-3-3.691,7.353-5.992H15.33Z" transform="translate(-1.574 -6.636)"/><path class="cls-4" d="M19.169,51.745a2.68,2.68,0,0,1,.8-2.08,3.316,3.316,0,0,1,2.322-.733,3.117,3.117,0,0,1,2.226.733,2.719,2.719,0,0,1,.777,2.08,2.664,2.664,0,0,1-.8,2.058,3.118,3.118,0,0,1-2.2.74A3.34,3.34,0,0,1,20,53.81,2.6,2.6,0,0,1,19.169,51.745Z" transform="translate(-1.574 -6.636)"/><path class="cls-4" d="M17.35,348.176H1.808v-3.808l5.23-5.288q2.241-2.344,2.93-3.2a7.08,7.08,0,0,0,.96-1.473,3.174,3.174,0,0,0,.27-1.289,1.676,1.676,0,0,0-.542-1.318,2.206,2.206,0,0,0-1.523-.484,4.151,4.151,0,0,0-2.043.579A14.635,14.635,0,0,0,4.753,333.6l-3.179-3.72a17.082,17.082,0,0,1,2.783-2.117,9.924,9.924,0,0,1,2.454-.974,12.1,12.1,0,0,1,2.981-.337,8.992,8.992,0,0,1,3.714.732,5.825,5.825,0,0,1,2.534,2.087,5.375,5.375,0,0,1,.9,3.04,7.8,7.8,0,0,1-1.289,4.431,14.458,14.458,0,0,1-1.75,2.176q-1.091,1.142-4.651,4.336v.146h8.1Z" transform="translate(-1.574 -6.636)"/><path class="cls-4" d="M19.153,345.745a2.68,2.68,0,0,1,.8-2.08,3.317,3.317,0,0,1,2.322-.733,3.121,3.121,0,0,1,2.227.733,2.722,2.722,0,0,1,.776,2.08,2.664,2.664,0,0,1-.8,2.058,3.117,3.117,0,0,1-2.2.74,3.342,3.342,0,0,1-2.285-.733A2.6,2.6,0,0,1,19.153,345.745Z" transform="translate(-1.574 -6.636)"/><path class="cls-4" d="M359.252,312.453a5.1,5.1,0,0,1-1.216,3.421,6.929,6.929,0,0,1-3.516,2.072v.088q5.363.673,5.362,5.068a5.49,5.49,0,0,1-2.366,4.7,11.021,11.021,0,0,1-6.57,1.714,19.217,19.217,0,0,1-3.2-.249,16.68,16.68,0,0,1-3.187-.908v-4.805a12.683,12.683,0,0,0,2.865,1.062,11.721,11.721,0,0,0,2.687.345,5.5,5.5,0,0,0,2.777-.535,1.825,1.825,0,0,0,.871-1.677,1.9,1.9,0,0,0-.454-1.356,2.952,2.952,0,0,0-1.465-.717,11.65,11.65,0,0,0-2.637-.242h-1.318v-4.35h1.347q4.41,0,4.409-2.256a1.382,1.382,0,0,0-.651-1.26,3.265,3.265,0,0,0-1.751-.41,8.013,8.013,0,0,0-4.248,1.377l-2.4-3.867a11.653,11.653,0,0,1,3.479-1.67,15.176,15.176,0,0,1,4.079-.5,9,9,0,0,1,5.215,1.318A4.192,4.192,0,0,1,359.252,312.453Z" transform="translate(-1.574 -6.636)"/><path class="cls-4" d="M362.372,326.794a2.677,2.677,0,0,1,.8-2.08,3.313,3.313,0,0,1,2.321-.733,3.121,3.121,0,0,1,2.227.733,2.722,2.722,0,0,1,.776,2.08,2.667,2.667,0,0,1-.8,2.058,3.124,3.124,0,0,1-2.2.74,3.345,3.345,0,0,1-2.285-.733A2.6,2.6,0,0,1,362.372,326.794Z" transform="translate(-1.574 -6.636)"/><circle class="cls-55" cx="95.558" cy="384.297" r="15.968"/><line class="cls-55" x1="84.088" y1="372.826" x2="107.029" y2="395.767"/></g></g></svg>