<svg id="Layer_1" data-name="Layer 1" xmlns="http://www.w3.org/2000/svg" xmlns:xlink="http://www.w3.org/1999/xlink" viewBox="0 0 1105.233 472.454"><defs><style>.cls-1,.cls-27,.cls-30,.cls-31,.cls-47,.cls-48,.cls-52{fill:none;}.cls-2{fill:#e5f7f9;}.cls-3{fill:#b6dfdc;}.cls-4{fill:#707a96;}.cls-5{fill:#34485f;}.cls-20,.cls-6{fill:#dac8b5;}.cls-7{fill:#988064;}.cls-8{fill:#667382;}.cls-9{fill:#345165;}.cls-10{fill:#667173;}.cls-11{fill:#9ea3a6;}.cls-12{fill:#4f5662;}.cls-13{fill:#445667;}.cls-14{fill:#666e7c;}.cls-15{fill:#a7a7a7;}.cls-16{fill:#44546d;}.cls-17{fill:#878e98;}.cls-18{fill:#caa13f;}.cls-19{fill:#354256;}.cls-20{stroke:#988064;stroke-width:2px;}.cls-20,.cls-27,.cls-28,.cls-30,.cls-31,.cls-47,.cls-48,.cls-52{stroke-miterlimit:10;}.cls-21{fill:#d8bcb2;}.cls-22{fill:#ac958d;}.cls-23{fill:#5d5263;}.cls-24{fill:#e2f2f0;}.cls-25{fill:#cfc2c9;}.cls-26,.cls-38{fill:#fff;}.cls-26{opacity:0.11;}.cls-27{stroke:#48404d;}.cls-27,.cls-30{stroke-width:14px;}.cls-28{fill:#8f8490;}.cls-28,.cls-48{stroke:#5d5263;}.cls-28,.cls-31,.cls-48{stroke-width:18px;}.cls-29{fill:#48404d;}.cls-30{stroke:#4b4b4b;}.cls-31{stroke:#606060;}.cls-32{fill:#4b4b4b;}.cls-33{fill:#f6f8f8;}.cls-34{fill:#616161;}.cls-35{fill:#b6bcc4;}.cls-36{isolation:isolate;}.cls-37{clip-path:url(#clip-path);}.cls-39{fill:#797979;}.cls-40{fill:#787878;}.cls-41{fill:#3f3f3f;}.cls-42{fill:#dbc8b5;}.cls-43{fill:#536070;}.cls-44{fill:#ad9f8e;}.cls-45{fill:#aca3ac;}.cls-46{fill:#c1c1c1;}.cls-47{stroke:#e5e9f0;stroke-width:15px;}.cls-49{fill:#e5e9f0;}.cls-50{fill:#606060;}.cls-51{fill:#1fbd85;}.cls-52{stroke:#1fbd85;stroke-width:1.449px;}.cls-53{fill:#5c5868;}.cls-54{fill:#8a94a1;}.cls-55{fill:#6d7580;}.cls-56{fill:#e4e4e4;}.cls-57{fill:#e5e8e9;}</style><clipPath id="clip-path" transform="translate(-12.43 -9.612)"><polygon class="cls-1" points="309.389 340.235 319.16 297.012 375.678 297.012 365.907 340.235 309.389 340.235"/></clipPath></defs><title>8_illu</title><polyline class="cls-2" points="22.041 0.035 1105.041 0.035 1105.041 445.035 22.041 445.035"/><polygon class="cls-3" points="1054.041 131.035 1054.041 128.035 1042.041 128.035 1042.041 131.035 1034.041 131.035 1034.041 119.035 1018.041 119.035 1018.041 189.035 942.041 189.035 942.041 158.035 929.041 158.035 929.041 169.035 929.041 303.642 713.678 303.642 713.678 251.223 619.953 251.223 619.953 303.642 165.041 303.642 165.041 103.035 79.041 103.035 79.041 53.035 67.041 53.035 67.041 44.035 59.041 44.035 59.041 78.035 22.041 78.035 22.041 445.035 165.041 445.035 165.041 402.909 929.041 402.909 929.041 445.035 1105.041 445.035 1105.041 131.035 1054.041 131.035"/><rect class="cls-4" x="22.041" y="386.294" width="1083" height="58.741"/><rect class="cls-5" x="646.254" y="353.073" width="386.823" height="28.59" transform="translate(1666.901 725.123) rotate(-180)"/><path class="cls-6" d="M1032.321,389.925h21.561a3.207,3.207,0,0,0,3.2-2.983l1.145-18.362a4.479,4.479,0,0,0-2.219-4.187l-2.017-1.171,2.1-3.431h1.585a3.7,3.7,0,0,0,3.705-3.7v-11a1.735,1.735,0,0,0-1.736-1.735h-.837v-6.133a60.364,60.364,0,0,0-1.484-13.3l-7.673-33.961a29.987,29.987,0,0,0-1.544-4.867l-5.776-13.959a13.838,13.838,0,0,0-12.786-8.547H973.752V350.69l33.308,3.812c10.506,0,24.417,12.151,24.417,25.01Z" transform="translate(-12.43 -9.612)"/><path class="cls-7" d="M1049.216,288.26q.242.842.435,1.7l7.673,33.961q.525,2.325.865,4.682h0a2.724,2.724,0,0,1-2.359-1.363l-2.026-3.518-9.577-35.07-3.336-2.478H984.855v-.729a2.842,2.842,0,0,1,2.892-2.842h59.33Z" transform="translate(-12.43 -9.612)"/><path class="cls-6" d="M1026.644,360.077h27.16V323.768l-7.7-33.18a5.7,5.7,0,0,0-5.557-4.416h-33.777v64.47l2.38-.027c6.959,0,13.678,4.03,16.722,8.5Z" transform="translate(-12.43 -9.612)"/><path class="cls-6" d="M1006.774,319.765H991.491a6.636,6.636,0,0,1-6.636-6.636V286.172h21.919Z" transform="translate(-12.43 -9.612)"/><rect class="cls-7" x="961.041" y="332.035" width="86" height="2"/><rect class="cls-7" x="961.041" y="325.035" width="86" height="5"/><polygon class="cls-7" points="961.321 252.974 961.321 242.062 1006.121 250.448 1006.121 252.974 961.321 252.974"/><path class="cls-8" d="M1043.92,294.5l3.737,27.408-35.928-2.288V290.461h27.561A4.673,4.673,0,0,1,1043.92,294.5Z" transform="translate(-12.43 -9.612)"/><polygon class="cls-6" points="1006.136 251.401 1006.136 247.78 961.321 228.053 961.321 243.586 1006.136 251.401"/><circle class="cls-9" cx="986.768" cy="374.052" r="23.587"/><circle class="cls-10" cx="986.768" cy="374.052" r="13.294"/><circle class="cls-11" cx="986.768" cy="374.052" r="10.031"/><circle class="cls-12" cx="986.768" cy="374.052" r="5.823"/><circle class="cls-12" cx="983.654" cy="366.662" r="1.402"/><circle class="cls-12" cx="988.181" cy="366.157" r="1.402"/><circle class="cls-12" cx="992.183" cy="368.144" r="1.402"/><circle class="cls-12" cx="994.491" cy="371.943" r="1.402"/><circle class="cls-12" cx="994.358" cy="376.561" r="1.402"/><circle class="cls-12" cx="991.844" cy="380.213" r="1.402"/><circle class="cls-12" cx="987.716" cy="381.975" r="1.402"/><circle class="cls-12" cx="983.192" cy="381.188" r="1.402"/><circle class="cls-12" cx="979.938" cy="378.196" r="1.402"/><circle class="cls-12" cx="978.773" cy="373.789" r="1.402"/><circle class="cls-12" cx="980.199" cy="369.466" r="1.402"/><circle class="cls-12" cx="983.654" cy="366.662" r="1.402"/><circle class="cls-9" cx="764.338" cy="374.052" r="23.587"/><circle class="cls-10" cx="764.91" cy="374.052" r="13.294"/><circle class="cls-11" cx="764.91" cy="374.052" r="10.031"/><circle class="cls-12" cx="764.91" cy="374.052" r="5.823"/><circle class="cls-12" cx="761.796" cy="366.662" r="1.402"/><circle class="cls-12" cx="766.323" cy="366.157" r="1.402"/><circle class="cls-12" cx="770.324" cy="368.144" r="1.402"/><circle class="cls-12" cx="772.633" cy="371.943" r="1.402"/><circle class="cls-12" cx="772.5" cy="376.561" r="1.402"/><circle class="cls-12" cx="769.986" cy="380.213" r="1.402"/><circle class="cls-12" cx="765.858" cy="381.975" r="1.402"/><circle class="cls-12" cx="761.333" cy="381.188" r="1.402"/><circle class="cls-12" cx="758.079" cy="378.196" r="1.402"/><circle class="cls-12" cx="756.914" cy="373.789" r="1.402"/><circle class="cls-12" cx="758.341" cy="369.466" r="1.402"/><circle class="cls-12" cx="761.796" cy="366.662" r="1.402"/><circle class="cls-9" cx="702.869" cy="374.052" r="23.587"/><circle class="cls-10" cx="702.869" cy="374.052" r="13.294"/><circle class="cls-11" cx="702.869" cy="374.052" r="10.031"/><circle class="cls-12" cx="702.869" cy="374.052" r="5.823"/><circle class="cls-12" cx="699.756" cy="366.662" r="1.402"/><circle class="cls-12" cx="704.283" cy="366.157" r="1.402"/><circle class="cls-12" cx="708.284" cy="368.144" r="1.402"/><circle class="cls-12" cx="710.592" cy="371.943" r="1.402"/><circle class="cls-12" cx="710.46" cy="376.561" r="1.402"/><circle class="cls-12" cx="707.946" cy="380.213" r="1.402"/><circle class="cls-12" cx="703.818" cy="381.975" r="1.402"/><circle class="cls-12" cx="699.293" cy="381.188" r="1.402"/><circle class="cls-12" cx="696.039" cy="378.196" r="1.402"/><circle class="cls-12" cx="694.874" cy="373.789" r="1.402"/><circle class="cls-12" cx="696.301" cy="369.466" r="1.402"/><circle class="cls-12" cx="699.756" cy="366.662" r="1.402"/><rect class="cls-6" x="612.224" y="225.098" width="341.808" height="120.65"/><path class="cls-13" d="M805.929,387.885c0-17.091-13-30.946-29.043-30.946s-29.042,13.855-29.042,30.946h1.839c0-16.008,12.18-28.986,27.2-28.986s27.2,12.978,27.2,28.986Z" transform="translate(-12.43 -9.612)"/><path class="cls-13" d="M744.723,387.885c0-17.091-13-30.946-29.043-30.946s-29.042,13.855-29.042,30.946h1.839c0-16.008,12.179-28.986,27.2-28.986s27.2,12.978,27.2,28.986Z" transform="translate(-12.43 -9.612)"/><path class="cls-13" d="M989.483,357.456,978.7,373.214c-1.971,3.229-3.228,5.818-3.228,9.146v12.025l-4.861.166V379.238c0-3.125,1.115-5.45,2.986-8.614l8.45-13.168Z" transform="translate(-12.43 -9.612)"/><polygon class="cls-5" points="622.484 345.748 622.484 351.847 614.097 351.847 614.097 356.993 635.635 356.993 635.635 360.758 629.727 360.758 629.727 374.032 624.866 374.032 624.866 380.818 628.774 380.818 628.774 382.03 624.866 382.03 624.866 387.346 633.824 387.346 633.824 383.106 648.787 383.106 648.787 345.748 622.484 345.748"/><rect class="cls-14" x="835.234" y="367.368" width="41.741" height="20.517" transform="translate(1699.779 745.64) rotate(-180)"/><rect class="cls-14" x="941.207" y="365.462" width="27.256" height="26.779" transform="translate(1897.241 748.091) rotate(-180)"/><circle class="cls-15" cx="942.215" cy="366.422" r="3.621"/><circle class="cls-16" cx="912.1" cy="375.856" r="5.813"/><circle class="cls-16" cx="899.247" cy="375.856" r="5.813"/><rect class="cls-17" x="877.991" y="385.468" width="63.217" height="4.019" transform="translate(1806.769 765.343) rotate(-180)"/><rect class="cls-16" x="905.184" y="367.368" width="27.446" height="12.287" transform="translate(1825.385 737.411) rotate(-180)"/><rect class="cls-16" x="877.928" y="360.077" width="3.431" height="25.391" transform="translate(1746.858 735.933) rotate(-180)"/><rect class="cls-16" x="814.268" y="360.077" width="3.431" height="25.391" transform="translate(1619.537 735.933) rotate(-180)"/><rect class="cls-13" x="797.686" y="358.981" width="109.595" height="1.906" transform="translate(1692.537 710.257) rotate(-180)"/><rect class="cls-18" x="820.748" y="369.464" width="8.768" height="18.013" transform="translate(1637.834 747.33) rotate(-180)"/><rect class="cls-19" x="865.73" y="367.368" width="2.859" height="8.906" transform="translate(1721.889 734.029) rotate(-180)"/><rect class="cls-19" x="844.764" y="367.368" width="2.859" height="8.906" transform="translate(1679.957 734.029) rotate(-180)"/><rect class="cls-13" x="646.254" y="377.675" width="40.384" height="3.987" transform="translate(1320.462 749.726) rotate(-180)"/><rect class="cls-20" x="980.9" y="325.769" width="20.871" height="21.871" rx="3.55" ry="3.55" transform="translate(1970.241 663.798) rotate(-180)"/><path class="cls-13" d="M973.752,357.361h33.308c10.506,0,21.558,9.292,21.558,22.151l.456,12.729h26.6a3.207,3.207,0,0,0,3.2-2.982l1.453-20.679a4.479,4.479,0,0,0-2.219-4.187l-2.017-1.171v-3.431h-29.447l-3.312-3.558a25.079,25.079,0,0,0-12.547-5.543H973.752Z" transform="translate(-12.43 -9.612)"/><rect class="cls-7" x="612.224" y="341.46" width="341.808" height="6.385"/><path class="cls-21" d="M818.1,334.81H782.57c-5.262,0-9.567-4.625-9.709-9.885l-1.669-61.864h58.324l-1.71,61.864C827.664,330.185,823.36,334.81,818.1,334.81Z" transform="translate(-12.43 -9.612)"/><path class="cls-22" d="M771.886,289.9l.975,34.315c.012,6.589,4.075,10.594,9.337,10.594h36.329c5.262,0,9.255-4.729,9.279-10.594l.975-34.315Z" transform="translate(-12.43 -9.612)"/><rect class="cls-23" x="771.156" y="271.547" width="33.536" height="40.827"/><path class="cls-24" d="M789.377,285.309a4.4,4.4,0,0,1,.758.067,1.2,1.2,0,0,1,.451.145.3.3,0,0,1,.137.256.239.239,0,0,1-.05.161.762.762,0,0,1-.216.142.375.375,0,0,0-.222.234c-.018.09-.036.438-.051,1.045-.006.587-.012.938-.018,1.057a2.354,2.354,0,0,1-.042.341,1.37,1.37,0,0,1-.389.761,1.663,1.663,0,0,1-.614.356,2.391,2.391,0,0,1-.791.13,2.936,2.936,0,0,1-.739-.1,2.341,2.341,0,0,1-.643-.266,1.047,1.047,0,0,1-.492-.884.758.758,0,0,1,.21-.549.694.694,0,0,1,.524-.218.794.794,0,0,1,.526.182.587.587,0,0,1,.216.459,1.14,1.14,0,0,1-.041.233.539.539,0,0,0-.006.073.218.218,0,0,0,.077.173.3.3,0,0,0,.2.066.416.416,0,0,0,.359-.2.915.915,0,0,0,.136-.525l0-.3-.007-.813q-.03-.743-.045-.873a.436.436,0,0,0-.075-.214.288.288,0,0,0-.088-.086,1.326,1.326,0,0,0-.207-.064.225.225,0,0,1-.136-.093.259.259,0,0,1-.057-.163.344.344,0,0,1,.142-.287,1.174,1.174,0,0,1,.459-.175A3.777,3.777,0,0,1,789.377,285.309Z" transform="translate(-12.43 -9.612)"/><path class="cls-24" d="M792.951,286.6a1.836,1.836,0,0,1,1.066.316,1.681,1.681,0,0,1,.529.587,1.641,1.641,0,0,1,.206.791,1.5,1.5,0,0,1-.661,1.227,2.327,2.327,0,0,1-1.446.482,1.82,1.82,0,0,1-1.285-.453,1.475,1.475,0,0,1-.478-1.142,1.605,1.605,0,0,1,.584-1.282A2.2,2.2,0,0,1,792.951,286.6Zm-.266.768a.29.29,0,0,0-.234.107.44.44,0,0,0-.088.288,2.781,2.781,0,0,0,.075.543,4.063,4.063,0,0,0,.178.61.353.353,0,0,0,.335.272q.3,0,.3-.375a3.054,3.054,0,0,0-.075-.635,2.623,2.623,0,0,0-.181-.578A.351.351,0,0,0,792.685,287.369Z" transform="translate(-12.43 -9.612)"/><path class="cls-24" d="M798.523,286.425a.181.181,0,0,1,.147.095.389.389,0,0,1,.062.221.7.7,0,0,1-.085.308.839.839,0,0,1-.2.277c-.051.044-.076.079-.076.106,0,.006,0,.033.007.079a.859.859,0,0,1,.01.126.909.909,0,0,1-.266.665,1.606,1.606,0,0,1-.616.372,2.473,2.473,0,0,1-.829.133,1.694,1.694,0,0,1-.216-.013c-.058-.006-.1-.01-.133-.01a.156.156,0,0,0-.177.177.2.2,0,0,0,.116.177.63.63,0,0,0,.31.065,3.324,3.324,0,0,0,.392-.036,6.321,6.321,0,0,1,.8-.078,1.182,1.182,0,0,1,.608.13.73.73,0,0,1,.274.28.764.764,0,0,1,.1.384,1.049,1.049,0,0,1-.246.652,1.732,1.732,0,0,1-.861.552,3.483,3.483,0,0,1-1.03.139,2.722,2.722,0,0,1-1.2-.225.922.922,0,0,1-.339-.28.6.6,0,0,1-.126-.359.426.426,0,0,1,.071-.239.412.412,0,0,1,.181-.157c.066-.026.1-.054.1-.086s-.028-.059-.083-.106a.618.618,0,0,1-.266-.462.553.553,0,0,1,.128-.329.893.893,0,0,1,.317-.262c.054-.027.08-.053.08-.08s-.033-.077-.1-.139a.973.973,0,0,1-.343-.738.83.83,0,0,1,.121-.426,1.078,1.078,0,0,1,.338-.345,2.12,2.12,0,0,1,1.185-.349,2.885,2.885,0,0,1,.579.067,2.583,2.583,0,0,0,.416.06,1.157,1.157,0,0,0,.72-.286A.239.239,0,0,1,798.523,286.425ZM796,290.136c-.056,0-.083.033-.083.1a.359.359,0,0,0,.212.317,1.117,1.117,0,0,0,.552.121,1.232,1.232,0,0,0,.509-.086.269.269,0,0,0,.185-.243.179.179,0,0,0-.069-.141.268.268,0,0,0-.173-.058,1.238,1.238,0,0,0-.154.013,2.607,2.607,0,0,1-.415.03c-.113,0-.221-.006-.325-.016a1.49,1.49,0,0,1-.189-.027A.25.25,0,0,0,796,290.136Zm.724-3.023a.324.324,0,0,0-.267.126.518.518,0,0,0-.1.336,1.275,1.275,0,0,0,.11.574.327.327,0,0,0,.289.217.332.332,0,0,0,.279-.135.576.576,0,0,0,.1-.36,1.168,1.168,0,0,0-.108-.554A.35.35,0,0,0,796.719,287.113Z" transform="translate(-12.43 -9.612)"/><path class="cls-24" d="M800.772,285.542l-.043,1.391q-.007.249.153.249a.2.2,0,0,0,.156-.109,1,1,0,0,1,.86-.469,1.119,1.119,0,0,1,.841.322.8.8,0,0,1,.2.339,2.242,2.242,0,0,1,.066.562l.029,1.2a.555.555,0,0,0,.042.228.662.662,0,0,0,.178.183.231.231,0,0,1,.1.184q0,.358-1.084.358c-.642,0-.963-.111-.963-.336a.183.183,0,0,1,.016-.086c.011-.019.05-.073.116-.159a1.815,1.815,0,0,0,.14-.914,1.838,1.838,0,0,0-.083-.645.394.394,0,0,0-.392-.275.333.333,0,0,0-.3.146.786.786,0,0,0-.07.4v.641a4.344,4.344,0,0,0,.04.482.79.79,0,0,0,.153.209.237.237,0,0,1,.063.163q0,.375-.977.375-1.143,0-1.143-.389a.226.226,0,0,1,.036-.137.933.933,0,0,1,.18-.149c.084-.059.143-.22.175-.483a12.207,12.207,0,0,0,.048-1.3,8.041,8.041,0,0,0-.04-.99.343.343,0,0,0-.048-.151.391.391,0,0,0-.131-.1c-.138-.071-.206-.153-.206-.246a.311.311,0,0,1,.156-.269,2.278,2.278,0,0,1,.6-.222,3.716,3.716,0,0,1,.953-.166C800.715,285.376,800.776,285.43,800.772,285.542Z" transform="translate(-12.43 -9.612)"/><path class="cls-24" d="M805.364,286.794v1.8c0,.386.127.578.382.578a.363.363,0,0,0,.189-.054.3.3,0,0,0,.13-.135,2.133,2.133,0,0,0,.073-.711,4.821,4.821,0,0,0-.037-.744.236.236,0,0,0-.046-.121.447.447,0,0,0-.126-.088.292.292,0,0,1-.19-.253q0-.205.326-.285a5.008,5.008,0,0,1,1.219-.153c.224,0,.336.119.336.355,0,.024,0,.074,0,.149,0,.107-.008.237-.01.389v1.466c0,.075.065.143.194.206a.251.251,0,0,1,.162.232q0,.3-.707.462a3.52,3.52,0,0,1-.8.1.457.457,0,0,1-.218-.036.178.178,0,0,1-.067-.143c-.012-.137-.054-.206-.127-.206a.142.142,0,0,0-.073.019c-.022.012-.089.056-.2.134a1.253,1.253,0,0,1-.721.229,1.03,1.03,0,0,1-.9-.369,1.835,1.835,0,0,1-.222-1.039c0-.182,0-.337,0-.466v-.152a1.246,1.246,0,0,0-.052-.421.4.4,0,0,0-.187-.211.6.6,0,0,1-.165-.107.159.159,0,0,1-.035-.109q0-.252.382-.335a6.02,6.02,0,0,1,1.3-.143C805.3,286.628,805.364,286.683,805.364,286.794Z" transform="translate(-12.43 -9.612)"/><path class="cls-24" d="M809.706,286.625c.117,0,.188.016.215.049a.9.9,0,0,1,.067.319c.012.1.046.146.1.146s.086-.032.126-.1a.8.8,0,0,1,.694-.415.664.664,0,0,1,.5.2.726.726,0,0,1,.153.247.81.81,0,0,1,.06.291.777.777,0,0,1-.073.32.818.818,0,0,1-.19.272.729.729,0,0,1-.521.2.606.606,0,0,1-.284-.06,1.441,1.441,0,0,1-.3-.242.194.194,0,0,0-.13-.07.12.12,0,0,0-.121.1,2.127,2.127,0,0,0-.028.441,4.067,4.067,0,0,0,.037.684.269.269,0,0,0,.064.138.487.487,0,0,0,.178.078q.3.09.3.313a.338.338,0,0,1-.1.237.484.484,0,0,1-.256.135,4.97,4.97,0,0,1-.937.066,2.986,2.986,0,0,1-.894-.1.337.337,0,0,1-.272-.323.381.381,0,0,1,.2-.309.5.5,0,0,0,.133-.115.32.32,0,0,0,.049-.141,7.416,7.416,0,0,0,.054-1.119.524.524,0,0,0-.033-.215.245.245,0,0,0-.133-.105c-.157-.061-.236-.151-.236-.269a.334.334,0,0,1,.163-.274,1.974,1.974,0,0,1,.545-.227A3.182,3.182,0,0,1,809.706,286.625Z" transform="translate(-12.43 -9.612)"/><path class="cls-24" d="M813.865,287.475V288.6a.51.51,0,0,0,.1.325.3.3,0,0,0,.25.126.755.755,0,0,0,.343-.119.2.2,0,0,1,.1-.03.185.185,0,0,1,.147.1.36.36,0,0,1,.066.209.524.524,0,0,1-.227.395,1.7,1.7,0,0,1-1.142.4,1.2,1.2,0,0,1-.854-.3,1.035,1.035,0,0,1-.322-.792v-1.535a.163.163,0,0,0-.018-.095.148.148,0,0,0-.1-.019h-.343a.166.166,0,0,1-.122-.031.249.249,0,0,1-.027-.148v-.146a.17.17,0,0,1,.077-.146l1.521-.957a.293.293,0,0,1,.14-.031h.268a.134.134,0,0,1,.112.039.277.277,0,0,1,.028.151v.449a.184.184,0,0,0,.032.129.206.206,0,0,0,.134.03h.615a.208.208,0,0,1,.16.045.338.338,0,0,1,.036.191v.2a.384.384,0,0,1-.046.221.2.2,0,0,1-.17.061h-.6a.183.183,0,0,0-.126.034A.185.185,0,0,0,813.865,287.475Z" transform="translate(-12.43 -9.612)"/><polygon class="cls-23" points="758.837 255.515 817.012 255.515 817.086 249.857 758.763 249.857 758.837 255.515"/><rect class="cls-25" x="575.044" y="0.035" width="13" height="444.833"/><rect class="cls-25" x="858.046" y="0.035" width="13" height="444.833"/><rect class="cls-25" x="292.043" y="0.035" width="13" height="444.833"/><rect class="cls-26" x="21.726" width="1083.507" height="445.071"/><circle class="cls-23" cx="499.539" cy="317.723" r="18.123"/><line class="cls-27" x1="486.041" y1="438.035" x2="486.041" y2="463.035"/><path class="cls-28" d="M504.591,332.647c-4.453,19.667-19.5,51.616-18.787,58.5.785,7.629,12.667,36.167,11.667,67.584" transform="translate(-12.43 -9.612)"/><path class="cls-27" d="M518.471,447.647c-1.375,5-3,25-3,25" transform="translate(-12.43 -9.612)"/><path class="cls-28" d="M520.929,329.034s-8.3,38.28-1.179,73.28c4.652,22.865-3.279,58.333-3.279,58.333" transform="translate(-12.43 -9.612)"/><path class="cls-29" d="M493.846,327.335a18.048,18.048,0,0,0,1.195,6.429c-.271,1.02-.571,2.071-.884,3.133H528.49c.56-3.025,1.013-4.994,1.146-5.571a17.714,17.714,0,0,0,0-7.991H494.3A18.178,18.178,0,0,0,493.846,327.335Z" transform="translate(-12.43 -9.612)"/><line class="cls-30" x1="275.801" y1="437.035" x2="273.301" y2="453.035"/><path class="cls-31" d="M255.725,382.079s38.96,1.37,41.96,4.37-9.954,65.2-9.954,65.2" transform="translate(-12.43 -9.612)"/><path class="cls-32" d="M296.3,457.358l10.142,10.207a8.637,8.637,0,0,0,1.677,1.314l2.848,1.71a12.606,12.606,0,0,0,5.6,1.766l4.381.311a5.772,5.772,0,0,1,5.35,6.166l-.052.742-17.878-1.266-13.445-.952-2.212-1.411a7.668,7.668,0,0,0-7.915-.2l-1.4.8-9.16-.649.334-4.728.95-13.385,3.639.226a11.7,11.7,0,0,0,14.41,1.163Z" transform="translate(-12.43 -9.612)"/><path class="cls-33" d="M239.15,365.9l-1-1.822c-.912-1.913-2.114-2.653-4.557-2.653H209.631a4.453,4.453,0,0,0-4.441,4.441v.817H233.6l2.317,5.3,2.425-1.022C239.17,370.542,240.446,368.341,239.15,365.9Z" transform="translate(-12.43 -9.612)"/><rect class="cls-34" x="215.872" y="356.217" width="7.252" height="28.193" transform="translate(577.382 141.204) rotate(90)"/><polygon class="cls-34" points="234.803 395.119 226.476 395.119 214.87 360.702 221.151 357.075 234.803 395.119"/><path class="cls-23" d="M487.465,460.712l-10.837,9.465a8.611,8.611,0,0,1-1.766,1.192l-2.962,1.5a12.611,12.611,0,0,1-5.708,1.366H461.8a5.773,5.773,0,0,0-5.773,5.773v.745h31.4l2.306-1.252a7.667,7.667,0,0,1,7.909.36l1.338.892h9.183v-4.74l0-13.419-3.645-.032a11.7,11.7,0,0,1-14.456.143Z" transform="translate(-12.43 -9.612)"/><path class="cls-35" d="M320.083,294.994H374.7a2.665,2.665,0,0,1,2.665,2.665l-10,43.335H307.417l10-43.335A2.666,2.666,0,0,1,320.083,294.994Z" transform="translate(-12.43 -9.612)"/><polygon class="cls-4" points="306.952 287.35 362.968 287.35 352.968 330.249 296.952 330.249 306.952 287.35"/><path class="cls-35" d="M264.738,331.383h90.194a0,0,0,0,1,0,0v0a2.637,2.637,0,0,1-2.637,2.637h-84.92a2.637,2.637,0,0,1-2.637-2.637v0A0,0,0,0,1,264.738,331.383Z"/><g class="cls-36"><g class="cls-37"><path class="cls-38" d="M353.337,310.491l-.581-.942,1.6-.546,1.6-.547-.772,1.917-.773,1.884-.672-1.1-12.19,11.688-1.519-2.578-9.392,8.883-.507-.579,10.211-9.65,1.515,2.561,11.473-10.991m-27.673,24.466,6.967-30.816h.873l-6.762,29.911h26.244l-.2.9H325.664m50.014-37.945H319.16l-9.771,43.223h56.518l9.771-43.223" transform="translate(-12.43 -9.612)"/><polyline class="cls-39" points="321.075 294.529 320.201 294.529 313.234 325.346 340.352 325.346 340.557 324.44 314.313 324.44 321.075 294.529"/><polyline class="cls-32" points="340.907 300.879 329.434 311.871 327.919 309.309 317.709 318.959 318.215 319.538 327.607 310.655 329.126 313.233 341.317 301.546 341.161 301.291 340.907 300.879"/><polyline class="cls-32" points="343.533 298.844 341.93 299.391 340.326 299.937 340.907 300.879 341.161 301.291 341.317 301.546 341.989 302.645 342.761 300.761 343.533 298.844"/></g></g><rect class="cls-33" x="113.661" y="333.096" width="325.751" height="5.356"/><polygon class="cls-40" points="433.86 343.809 119.212 343.809 113.661 338.453 439.411 338.453 433.86 343.809"/><rect class="cls-41" x="151.967" y="343.625" width="13.324" height="26.343"/><rect class="cls-34" x="151.967" y="369.968" width="13.324" height="102.486"/><rect class="cls-41" x="385.561" y="343.625" width="13.324" height="26.413"/><rect class="cls-34" x="385.561" y="369.968" width="13.324" height="102.486"/><rect class="cls-41" x="281" y="262.353" width="13.324" height="221.129" transform="translate(-97.686 650.967) rotate(-90)"/><path class="cls-23" d="M505.465,460.712l-10.837,9.465a8.611,8.611,0,0,1-1.766,1.192l-2.962,1.5a12.611,12.611,0,0,1-5.708,1.366H479.8a5.773,5.773,0,0,0-5.773,5.773v.745h31.4l2.306-1.252a7.667,7.667,0,0,1,7.909.36l1.338.892h9.183v-4.74l0-13.419-3.645-.032a11.7,11.7,0,0,1-14.456.143Z" transform="translate(-12.43 -9.612)"/><path class="cls-42" d="M429.533,234.067c-4.272-.81-8.092.451-9.264,6.624s1.29,8.809,5.561,9.62,11.758,2.509,12.929-3.664S433.8,234.878,429.533,234.067Z" transform="translate(-12.43 -9.612)"/><rect class="cls-42" x="502.623" y="195.146" width="15" height="34.875" rx="7.5" ry="7.5" transform="translate(-37.004 63.274) rotate(-7.981)"/><path class="cls-42" d="M511.993,164.441l4.619,37.97a12,12,0,0,1-10.463,13.361h0l-14.89,1.811A12,12,0,0,1,477.9,207.12l-4.618-37.97Z" transform="translate(-12.43 -9.612)"/><path class="cls-43" d="M482.882,184.422a1.531,1.531,0,1,1-1.7-1.335A1.531,1.531,0,0,1,482.882,184.422Z" transform="translate(-12.43 -9.612)"/><path class="cls-23" d="M482.882,184.422a1.531,1.531,0,1,1-1.7-1.335A1.531,1.531,0,0,1,482.882,184.422Z" transform="translate(-12.43 -9.612)"/><path class="cls-42" d="M475.742,184.527l-4.54,8.852a3,3,0,0,0,3.125,4.165l2.956-.36S475.881,185.408,475.742,184.527Z" transform="translate(-12.43 -9.612)"/><path class="cls-38" d="M489.859,204.01l.071.584a3.022,3.022,0,0,1-2.636,3.366l-.167.02-4,.487h0a3.023,3.023,0,0,1-3.367-2.636l-.071-.584" transform="translate(-12.43 -9.612)"/><path class="cls-44" d="M516.091,198.127l-.372.045-2.978.362a5.635,5.635,0,0,1-6.3-5.212l-1.807-14.856a3.432,3.432,0,0,0-3.758-2.665l-1.58.192.854,7.014a6.211,6.211,0,0,1-6.681-5.232l-.238-1.953a6.068,6.068,0,0,0-7.1-5.279l-8.4,1.022-4.1.5-.6-4.963,38.715-4.71Z" transform="translate(-12.43 -9.612)"/><path class="cls-45" d="M469.027,149.079h0l.128,1.055a4.876,4.876,0,0,0,5.428,4.25l-4.467.544,27.966-3.4,2.978-.362a7.5,7.5,0,0,1,8.351,6.539h0l1.489-.181a7.5,7.5,0,0,1,8.351,6.539h0l3.087,25.382a5.931,5.931,0,0,1-5.171,6.6l-1.558.19-2.978.362a6,6,0,0,1-6.68-5.232h0l-1.445-11.878a3.035,3.035,0,0,0-3.378-2.646l-1.456.177.725,5.956h0a6,6,0,0,1-6.681-5.231h0l-.479-3.938a6.532,6.532,0,0,0-7.274-5.7l-8.405,1.022-4.467.543-1.473.18a10.455,10.455,0,0,1-11.64-9.115l0-.031a10.408,10.408,0,0,1,.822-5.507s.769,3.913,6.359,3.988c-2.633-5.268-.414-8.323,1.871-10.112Z" transform="translate(-12.43 -9.612)"/><path class="cls-46" d="M522.75,229.6,498.6,239.212l-3.467-4.433a12.812,12.812,0,0,1,11.6-13.917l15.1-1.37Z" transform="translate(-12.43 -9.612)"/><path class="cls-23" d="M516.692,225.085h0a8.651,8.651,0,0,1,9.4,7.832s5.633,17.915,4.883,45.983c-.483,18.062-.375,50.52-.375,50.52H485.608l-1.82-64.861A36.337,36.337,0,0,1,516.692,225.085Z" transform="translate(-12.43 -9.612)"/><line class="cls-47" x1="433.456" y1="249.257" x2="423.203" y2="237.63"/><path class="cls-48" d="M508.846,239.212s-23.826,39.1-36.065,39.1c-16.75.007-30.511-23.712-30.511-23.712" transform="translate(-12.43 -9.612)"/><path class="cls-42" d="M238.354,212.051l1.58,50.225,11.994-.377,14.993-.472a12.035,12.035,0,0,0,11.616-12.372l-1.2-38.231Z" transform="translate(-12.43 -9.612)"/><path class="cls-44" d="M239.439,246.552l.375-.012,3-.094a5.636,5.636,0,0,0,5.435-6.109l-.471-14.959a3.434,3.434,0,0,1,3.31-3.2l1.59-.05.223,7.062A6.211,6.211,0,0,0,258.708,223l-.062-1.966a6.071,6.071,0,0,1,6.213-6.3l8.463-.266,4.123-.13-.157-5-38.981,1.227Z" transform="translate(-12.43 -9.612)"/><line class="cls-30" x1="297.801" y1="443.035" x2="296.301" y2="462.035"/><rect class="cls-42" x="239.918" y="249.837" width="15" height="34.875" rx="7.5" ry="7.5" transform="translate(482.407 524.938) rotate(-180)"/><path class="cls-49" d="M236.943,274.926l27.975,9.786v-3.126a12.811,12.811,0,0,0-12.811-12.811H236.943Z" transform="translate(-12.43 -9.612)"/><path class="cls-42" d="M335.99,276.34c.664,4.005,4.369,6.5,10.85,5.429s7.286-4.876,6.622-8.88-2.546-6.7-9.027-5.622S335.326,272.336,335.99,276.34Z" transform="translate(-12.43 -9.612)"/><path class="cls-42" d="M337.338,276.391c2.769,1,6.126-1.259,7.5-5.05s-.5-13.274-3.96-11.141c-.9.559-1.816,9.259-7.059,9.913C329.815,270.612,334.568,275.39,337.338,276.391Z" transform="translate(-12.43 -9.612)"/><line class="cls-47" x1="316.246" y1="270.151" x2="326.061" y2="265.984"/><path class="cls-50" d="M272.591,197.217c10.4-.328,10.748,14.669.269,15l-8.447.265a6.533,6.533,0,0,0-6.324,6.736l.125,3.965h0a6,6,0,0,1-5.809,6.186h0l-.189-6-1.465.047a3.033,3.033,0,0,0-2.937,3.127l.377,11.961h0a6,6,0,0,1-5.809,6.185l-3,.095-1.568.049a5.931,5.931,0,0,1-6.115-5.741l-.8-25.557h0a7.5,7.5,0,0,1,7.26-7.732l1.5-.047h0a7.5,7.5,0,0,1,7.261-7.732l3-.095" transform="translate(-12.43 -9.612)"/><path class="cls-50" d="M270.061,228.093a1.531,1.531,0,1,0,1.483-1.579A1.532,1.532,0,0,0,270.061,228.093Z" transform="translate(-12.43 -9.612)"/><path class="cls-38" d="M269.3,245.907l.014.437a2.249,2.249,0,0,0,2.319,2.178l.125,0,3-.094h0a2.25,2.25,0,0,0,2.178-2.32l-.014-.437" transform="translate(-12.43 -9.612)"/><path class="cls-31" d="M250.731,381.647s60,5,63,8-4,69-4,69" transform="translate(-12.43 -9.612)"/><circle class="cls-50" cx="238.616" cy="363.223" r="18.123"/><path class="cls-42" d="M277.159,225.65l5.832,8.059a3,3,0,0,1-2.456,4.591l-2.977.093S277.155,226.541,277.159,225.65Z" transform="translate(-12.43 -9.612)"/><path class="cls-32" d="M320.574,459.712l10.837,9.465a8.611,8.611,0,0,0,1.766,1.192l2.962,1.5a12.605,12.605,0,0,0,5.708,1.366h4.392a5.773,5.773,0,0,1,5.773,5.773v.745h-31.4l-2.306-1.252a7.669,7.669,0,0,0-7.91.36l-1.337.892h-9.184v-4.74l0-13.419,3.645-.032a11.7,11.7,0,0,0,14.456.143Z" transform="translate(-12.43 -9.612)"/><path class="cls-50" d="M267.386,247.905h0a3,3,0,0,0,3.093,2.905l7.957-.251h0c.34,6.086-4.675,10.647-8.93,10.781-1.99.062-6.145.2-6.145.2s-.288-7.619-.378-10.507l-.1-3.266h0a7.218,7.218,0,0,1,6.988-7.442l.281-.009,7.824-.246a2.25,2.25,0,0,1,2.32,2.178h0a2.249,2.249,0,0,1-2.178,2.319l-7.543.238-.234.007a3.048,3.048,0,0,0-2.952,3.094Z" transform="translate(-12.43 -9.612)"/><path class="cls-50" d="M241.068,273.881h0a8.65,8.65,0,0,0-8.65,8.649v92.39h44.988v-64.7A36.338,36.338,0,0,0,241.068,273.881Z" transform="translate(-12.43 -9.612)"/><path class="cls-31" d="M246.445,290.945s26.922,1.568,42.284,0c22-2.245,43.281-11.872,43.281-11.872" transform="translate(-12.43 -9.612)"/><ellipse class="cls-42" cx="328.909" cy="338.093" rx="11.376" ry="7.029" transform="translate(-46.115 26.797) rotate(-6.028)"/><ellipse class="cls-42" cx="325.633" cy="334.158" rx="6.981" ry="5.1" transform="translate(-45.72 26.431) rotate(-6.028)"/><line class="cls-47" x1="298.37" y1="330.67" x2="306.737" y2="329.786"/><path class="cls-31" d="M248.236,286.314S264.409,314.588,275.4,324.4c8.863,7.914,37.9,14.883,37.9,14.883" transform="translate(-12.43 -9.612)"/><path class="cls-51" d="M393.8,229.876h23.265a0,0,0,0,1,0,0v21.5a4.36,4.36,0,0,1-4.36,4.36H398.158a4.36,4.36,0,0,1-4.36-4.36v-21.5a0,0,0,0,1,0,0Z" transform="translate(-16.851 -2.072) rotate(-1.06)"/><circle class="cls-52" cx="404.383" cy="232.502" r="8.422"/><path class="cls-42" d="M427.533,233.067c-4.272-.81-8.092.451-9.264,6.624s1.29,8.809,5.561,9.62,8.219.665,9.391-5.508S431.8,233.878,427.533,233.067Z" transform="translate(-12.43 -9.612)"/><path class="cls-42" d="M519.778,324.189c1.8,3.958-.916,11.055-6.636,13.656s-8.863.834-10.663-3.124-3.141-7.7,2.578-10.3S517.978,320.231,519.778,324.189Z" transform="translate(-12.43 -9.612)"/><line class="cls-47" x1="513.61" y1="312.189" x2="503.77" y2="318.15"/><path class="cls-48" d="M514.471,234.314s34.763,24.869,36.429,42.921c1.29,13.973-28.841,46.977-28.841,46.977" transform="translate(-12.43 -9.612)"/><path class="cls-29" d="M499.137,329.48l.488.363c5.377,4,11.758,5.431,18.433,6.026l2.27.2-21.332,14Z" transform="translate(-12.43 -9.612)"/><rect class="cls-53" y="182.167" width="104.246" height="66.061"/><rect class="cls-54" x="48.257" y="248.227" width="7.731" height="220.339"/><rect class="cls-55" x="48.257" y="248.227" width="7.731" height="26.866"/><rect class="cls-54" x="18.095" y="466.697" width="68.057" height="4.207"/><path class="cls-56" d="M402.521,224.9s5.408-4.466,4.387-10.169c-.9-5.03-6.671-7.277-6.78-11.963-.09-3.855,3.738-6.684,4.287-7.079,3.6-2.583,8.275-1.794,8.275-1.794s-9.322,2-9.172,8.075c.118,4.8,9.447,5.461,8.773,12.237-.345,3.471-4.179,6.68-5.184,7.7A19.548,19.548,0,0,1,402.521,224.9Z" transform="translate(-12.43 -9.612)"/><path class="cls-32" d="M235.783,382.581c12.683-1.63,37.484-5.139,49.016-6.781l-9.4-.88H233.052A18,18,0,0,0,235.783,382.581Z" transform="translate(-12.43 -9.612)"/><rect class="cls-57" x="198.078" y="315.176" width="52.185" height="55.192" rx="4.441" ry="4.441"/><rect class="cls-33" x="198.078" y="315.176" width="46.633" height="55.192" rx="4.441" ry="4.441"/><rect class="cls-57" x="198.312" y="381.24" width="93.865" height="13.879" rx="4.441" ry="4.441"/><rect class="cls-33" x="198.312" y="381.24" width="49.708" height="13.879" rx="4.441" ry="4.441"/><rect class="cls-41" x="235.807" y="395.119" width="6.662" height="14.989"/><rect class="cls-57" x="232.788" y="410.109" width="12.7" height="41.422"/><rect class="cls-34" x="232.788" y="447.119" width="12.7" height="4.411"/><polygon class="cls-34" points="238.028 454.521 201.387 458.408 201.387 453.196 238.028 449.31 238.028 454.521"/><rect class="cls-34" x="201.387" y="453.196" width="5.241" height="10.763"/><circle class="cls-41" cx="203.808" cy="466.535" r="5.196"/><polygon class="cls-34" points="238.028 454.521 274.668 458.408 274.668 453.196 238.028 449.31 238.028 454.521"/><rect class="cls-34" x="281.856" y="462.808" width="5.241" height="10.763" transform="translate(556.524 926.767) rotate(-180)"/><circle class="cls-41" cx="272.247" cy="466.535" r="5.196"/><polygon class="cls-34" points="239.138 454.136 257.181 458.408 257.181 453.196 239.138 448.925 239.138 454.136"/><rect class="cls-34" x="264.369" y="462.808" width="5.241" height="10.763" transform="translate(521.549 926.767) rotate(-180)"/><circle class="cls-41" cx="254.76" cy="466.535" r="5.196"/><polygon class="cls-34" points="239.138 454.136 221.095 458.408 221.095 453.196 239.138 448.925 239.138 454.136"/><rect class="cls-34" x="221.095" y="453.196" width="5.241" height="10.763"/><circle class="cls-41" cx="223.516" cy="466.535" r="5.196"/><path class="cls-33" d="M278.937,365.9l-1-1.822c-.911-1.913-2.114-2.653-4.557-2.653H249.418a4.454,4.454,0,0,0-4.442,4.441v.817h28.4l2.318,5.3,2.425-1.022C278.957,370.542,280.232,368.341,278.937,365.9Z" transform="translate(-12.43 -9.612)"/><rect class="cls-34" x="236.854" y="337.412" width="7.252" height="65.802" transform="translate(598.364 120.221) rotate(90)"/><polygon class="cls-34" points="274.59 395.119 266.263 395.119 254.657 360.702 260.937 357.075 274.59 395.119"/><polygon class="cls-23" points="486.657 327.285 486.566 340.46 506.64 327.285 486.657 327.285"/></svg>