<svg id="Layer_1" data-name="Layer 1" xmlns="http://www.w3.org/2000/svg" viewBox="0 0 679.719 352.316"><defs><style>.cls-1{fill:#797979;}.cls-2{fill:#bebebe;}.cls-12,.cls-13,.cls-14,.cls-16,.cls-17,.cls-18,.cls-19,.cls-20,.cls-21,.cls-22,.cls-3,.cls-4,.cls-5{fill:none;stroke-miterlimit:10;}.cls-14,.cls-22,.cls-3{stroke:#797979;}.cls-3{stroke-width:2.387px;}.cls-13,.cls-16,.cls-20,.cls-21,.cls-4{stroke:#bebebe;}.cls-4{stroke-linecap:round;stroke-width:13.922px;}.cls-17,.cls-18,.cls-19,.cls-5{stroke:#919191;}.cls-13,.cls-14,.cls-5{stroke-width:2.774px;}.cls-6{fill:#d4d4d4;}.cls-7{fill:#d8bcb2;}.cls-8{fill:#ac958d;}.cls-9{fill:#b6bcc4;}.cls-10{fill:#5d5263;}.cls-11{fill:#fff;}.cls-12{stroke:#fff;stroke-width:0.597px;}.cls-15{fill:#919191;}.cls-16,.cls-17{stroke-width:3px;}.cls-18{stroke-width:3.388px;}.cls-19{stroke-width:3.104px;}.cls-20{stroke-width:7px;}.cls-21{stroke-width:6.188px;}.cls-22{stroke-width:19.098px;}</style></defs><title>4_illu_m</title><rect class="cls-1" x="545.809" y="47.347" width="36.477" height="5.52"/><rect class="cls-2" x="124.323" y="268.952" width="11.444" height="33.766" transform="translate(258.172 571.679) rotate(-180)"/><rect class="cls-1" x="599.076" y="339.666" width="4.007" height="12.356"/><rect class="cls-1" x="641.153" y="339.666" width="4.007" height="12.356"/><rect class="cls-2" x="590.95" y="285.135" width="64.618" height="56.929"/><polygon class="cls-2" points="645.55 285.644 600.969 285.644 590.95 264.223 655.568 264.223 645.55 285.644"/><rect class="cls-2" x="647.483" y="306.56" width="32.228" height="23.872"/><rect class="cls-2" x="551.385" y="51.402" width="25.326" height="5.52"/><rect class="cls-1" x="551.385" y="51.402" width="25.326" height="3.104"/><polygon class="cls-2" points="573.394 60.477 565.745 64.263 562.194 64.263 554.702 60.477 554.702 56.922 573.394 56.922 573.394 60.477"/><rect class="cls-1" x="554.702" y="56.922" width="18.691" height="1.778"/><path class="cls-2" d="M566.39,72.231h-.847a.761.761,0,0,1-.76-.76V61.945h2.366v9.526A.76.76,0,0,1,566.39,72.231Z" transform="translate(-1.919 0.009)"/><rect class="cls-1" x="562.865" y="64.263" width="2.366" height="1.344"/><polygon class="cls-2" points="558.316 77.28 556.342 75.851 556.641 73.862 561.732 69.528 563.786 69.506 563.743 71.646 561.775 71.646 557.476 74.782 557.069 75.594 558.316 76.954 558.316 77.28"/><polygon class="cls-2" points="570.029 77.29 572.022 75.851 571.722 73.862 566.631 69.528 564.577 69.506 564.62 71.646 566.588 71.646 570.888 74.782 571.294 75.594 570.029 76.963 570.029 77.29"/><path class="cls-3" d="M267.784,255.489s1.543,9.264-10.717,18.442" transform="translate(-1.919 0.009)"/><path class="cls-3" d="M319.021,281.585c4.924,1.343,7.655,7.891,6.267,16.412" transform="translate(-1.919 0.009)"/><circle class="cls-2" cx="334.355" cy="103.334" r="15.212"/><polyline class="cls-4" points="291.083 135.773 250.573 177.272 240.062 152.227"/><path class="cls-5" d="M419.28,175.055H391.3a8.425,8.425,0,0,0-8.425,8.425V309.863a8.425,8.425,0,0,1-8.425,8.426H188.638" transform="translate(-1.919 0.009)"/><path class="cls-5" d="M413.312,169.087h-27.98a8.425,8.425,0,0,0-8.425,8.425V303.9a8.425,8.425,0,0,1-8.426,8.426H188.588" transform="translate(-1.919 0.009)"/><path class="cls-3" d="M188.638,318.289H174.962a8.425,8.425,0,0,1-8.425-8.426V269.947" transform="translate(-1.919 0.009)"/><path class="cls-3" d="M188.588,312.321H180.93a8.425,8.425,0,0,1-8.425-8.426V263.979" transform="translate(-1.919 0.009)"/><rect class="cls-1" x="20.291" y="213.943" width="18.726" height="9.363" transform="translate(57.389 437.259) rotate(-180)"/><path class="cls-6" d="M511.591,100.009h-7.05a2,2,0,0,1-1.927-1.962l-.331-12.276h11.574l-.339,12.276A2,2,0,0,1,511.591,100.009Z" transform="translate(-1.919 0.009)"/><path class="cls-7" d="M569.547,100.009H562.5a2,2,0,0,1-1.927-1.962l-.331-12.276h11.574l-.34,12.276A2,2,0,0,1,569.547,100.009Z" transform="translate(-1.919 0.009)"/><path class="cls-8" d="M560.376,91.1l.194,6.809a1.893,1.893,0,0,0,1.853,2.1h7.209a1.968,1.968,0,0,0,1.841-2.1l.194-6.809Z" transform="translate(-1.919 0.009)"/><path class="cls-7" d="M540.917,100.009h-7.05a2,2,0,0,1-1.927-1.962l-.331-12.276h11.574l-.339,12.276A2,2,0,0,1,540.917,100.009Z" transform="translate(-1.919 0.009)"/><path class="cls-8" d="M531.747,91.1l.193,6.809a1.893,1.893,0,0,0,1.853,2.1H541a1.969,1.969,0,0,0,1.842-2.1l.193-6.809Z" transform="translate(-1.919 0.009)"/><path class="cls-7" d="M555.539,100.009h-7.05a2,2,0,0,1-1.927-1.962l-.331-12.276H557.8l-.339,12.276A2,2,0,0,1,555.539,100.009Z" transform="translate(-1.919 0.009)"/><path class="cls-8" d="M546.369,91.1l.193,6.809a1.893,1.893,0,0,0,1.853,2.1h7.209a1.97,1.97,0,0,0,1.842-2.1l.193-6.809Z" transform="translate(-1.919 0.009)"/><path class="cls-7" d="M526.736,100.009h-7.05a2,2,0,0,1-1.927-1.962l-.331-12.276H529l-.339,12.276A2,2,0,0,1,526.736,100.009Z" transform="translate(-1.919 0.009)"/><path class="cls-8" d="M517.566,91.1l.193,6.809a1.893,1.893,0,0,0,1.853,2.1h7.21a1.969,1.969,0,0,0,1.841-2.1l.193-6.809Z" transform="translate(-1.919 0.009)"/><path class="cls-8" d="M517.566,91.1c1.376,0,4.727-6.108,4.7-15.974-.036-11.845,2.115,0,2.115,0s-.592,15.885,4.478,15.977L528.61,92.6l-10.7.29Z" transform="translate(-1.919 0.009)"/><rect class="cls-2" x="513.403" y="64.483" width="15.748" height="3.977"/><polygon class="cls-9" points="529.15 64.483 513.403 64.483 508.568 61.854 533.985 61.854 529.15 64.483"/><polygon class="cls-1" points="529.15 64.483 513.403 64.483 508.568 61.854 533.985 61.854 529.15 64.483"/><rect class="cls-2" x="508.568" y="51.444" width="25.417" height="10.409"/><rect class="cls-2" x="507.247" y="57.135" width="28.06" height="2.688"/><rect class="cls-1" x="508.568" y="59.823" width="25.417" height="0.849"/><rect class="cls-1" x="508.568" y="51.047" width="25.417" height="1.09"/><rect class="cls-1" x="503.534" y="47.411" width="35.484" height="4.033"/><path class="cls-1" d="M525.31,75.6h-4.23c-.041-2.587-1.786-6.1-4.282-6.783l-1.477-.4h15.748l-1.639.489c-2.411.719-4.078,4.182-4.12,6.7Z" transform="translate(-1.919 0.009)"/><rect class="cls-2" x="503.534" y="51.444" width="3.68" height="1.789"/><rect class="cls-1" x="503.534" y="50.98" width="3.68" height="1.306"/><rect class="cls-2" x="503.534" y="57.585" width="3.718" height="1.789"/><rect class="cls-2" x="504.779" y="53.233" width="1.192" height="4.352"/><rect class="cls-1" x="504.779" y="53.233" width="1.192" height="0.976"/><polygon class="cls-2" points="496.892 61.008 496.581 60.128 502.56 58.012 505.44 58.012 505.44 58.945 502.721 58.945 496.892 61.008"/><path class="cls-7" d="M584.278,100.015h-7.136a2.029,2.029,0,0,1-1.95-1.986L574.857,85.6h11.715l-.344,12.425A2.027,2.027,0,0,1,584.278,100.015Z" transform="translate(-1.919 0.009)"/><path class="cls-8" d="M575,90.994l.2,6.893a1.916,1.916,0,0,0,1.876,2.128h7.3a1.992,1.992,0,0,0,1.863-2.128l.2-6.893Z" transform="translate(-1.919 0.009)"/><polygon class="cls-10" points="572.953 86.027 584.638 86.027 584.653 84.891 572.938 84.891 572.953 86.027"/><polygon class="cls-10" points="558.332 78.089 570.016 78.089 570.031 76.952 558.317 76.952 558.332 78.089"/><path class="cls-7" d="M598.539,100.736l-7.066-1A2.026,2.026,0,0,1,589.82,97.5l1.4-12.351,11.6,1.635-2.074,12.257A2.028,2.028,0,0,1,598.539,100.736Z" transform="translate(-1.919 0.009)"/><path class="cls-8" d="M590.608,90.509l-.769,6.852a1.916,1.916,0,0,0,1.56,2.369l7.226,1.019a1.992,1.992,0,0,0,2.142-1.847l1.156-6.8Z" transform="translate(-1.919 0.009)"/><polygon class="cls-10" points="589.26 85.573 600.83 87.204 601.004 86.081 589.404 84.446 589.26 85.573"/><path class="cls-11" d="M637.671,223.782a16.909,16.909,0,1,0-33.305,5.873s4.164-11.112,9.759-1.721c2.566-8.861,10.437-7.181,12.773-2.132C629.438,214.894,637.671,223.782,637.671,223.782Z" transform="translate(-1.919 0.009)"/><polyline class="cls-12" points="602.53 229.346 620.908 237.128 635.517 223.53"/><polyline class="cls-12" points="624.934 224.733 620.908 237.128 612.176 227.343"/><path class="cls-7" d="M629.206,251.115l-7.028,1.239a2.027,2.027,0,0,1-2.265-1.616l-2.488-12.179,11.537-2.034,1.819,12.3A2.026,2.026,0,0,1,629.206,251.115Z" transform="translate(-1.919 0.009)"/><path class="cls-8" d="M618.5,243.844l1.389,6.753a1.915,1.915,0,0,0,2.217,1.77l7.186-1.267a1.992,1.992,0,0,0,1.466-2.419l-1-6.822Z" transform="translate(-1.919 0.009)"/><polygon class="cls-10" points="615.593 238.974 627.1 236.945 626.918 235.823 615.381 237.857 615.593 238.974"/><path class="cls-11" d="M644.77,170.058a16.91,16.91,0,0,0-32.786-8.3s8.354-8.428,9.607,2.432c5.973-7.031,12.464-2.271,12.525,3.291C640.9,158.576,644.77,170.058,644.77,170.058Z" transform="translate(-1.919 0.009)"/><polyline class="cls-12" points="610.272 161.515 623.845 176.146 642.744 169.732"/><polyline class="cls-12" points="632.598 166.491 623.845 176.146 619.891 163.641"/><path class="cls-7" d="M625.844,191.518l-6.918-1.75a2.026,2.026,0,0,1-1.4-2.4l2.723-12.129L631.6,178.11l-3.382,11.962A2.026,2.026,0,0,1,625.844,191.518Z" transform="translate(-1.919 0.009)"/><path class="cls-8" d="M619.059,180.5l-1.5,6.729a1.914,1.914,0,0,0,1.3,2.523l7.074,1.791a1.992,1.992,0,0,0,2.328-1.606l1.881-6.634Z" transform="translate(-1.919 0.009)"/><polygon class="cls-10" points="618.24 175.651 629.568 178.518 629.861 177.42 618.504 174.546 618.24 175.651"/><path class="cls-7" d="M615.248,122.811,610,117.981a2.027,2.027,0,0,1-.092-2.781l8.163-9.374,8.624,7.928-8.663,8.915A2.028,2.028,0,0,1,615.248,122.811Z" transform="translate(-1.919 0.009)"/><path class="cls-8" d="M614.52,109.889,610,115.1a1.916,1.916,0,0,0-.059,2.836l5.372,4.938a1.991,1.991,0,0,0,2.812-.305l4.809-4.941Z" transform="translate(-1.919 0.009)"/><polygon class="cls-10" points="615.877 106.15 624.479 114.058 625.259 113.232 616.635 105.303 615.877 106.15"/><path class="cls-13" d="M44.887,314.162H19.176A9.867,9.867,0,0,1,9.31,304.3V164.567a9.865,9.865,0,0,1,2.41-6.462l11.114-12.823" transform="translate(-1.919 0.009)"/><line class="cls-5" x1="110.036" y1="295.445" x2="110.036" y2="314.17"/><line class="cls-14" x1="110.036" y1="314.17" x2="42.968" y2="314.17"/><rect class="cls-1" x="103.517" y="253.476" width="35.718" height="19.073" transform="translate(240.833 526.033) rotate(-180)"/><rect class="cls-1" x="124.323" y="270.121" width="11.444" height="4.144" transform="translate(258.172 544.395) rotate(-180)"/><rect class="cls-1" x="62.21" y="264.226" width="66.928" height="14.914" transform="translate(189.429 543.375) rotate(-180)"/><rect class="cls-2" x="62.21" y="279.14" width="66.928" height="27.393" transform="translate(189.429 585.681) rotate(-180)"/><rect class="cls-1" x="68.105" y="306.468" width="54.097" height="11.161" transform="translate(188.389 624.106) rotate(-180)"/><rect class="cls-2" x="68.105" y="313.117" width="54.097" height="4.512" transform="translate(188.389 630.755) rotate(-180)"/><rect class="cls-2" x="50.42" y="317.282" width="102.992" height="10.056" transform="translate(201.913 644.63) rotate(-180)"/><rect class="cls-2" x="179.552" y="112.084" width="13.548" height="13.8" transform="translate(370.733 237.977) rotate(-180)"/><rect class="cls-1" x="24.336" y="110.373" width="4.624" height="31.557" transform="translate(51.378 252.312) rotate(-180)"/><rect class="cls-15" x="590.95" y="259.214" width="64.618" height="5.392"/><path class="cls-16" d="M578.262,308.679V318a6.79,6.79,0,0,0,6.79,6.789h8.262" transform="translate(-1.919 0.009)"/><rect class="cls-1" x="409.006" y="329.45" width="4.774" height="18.197"/><rect class="cls-1" x="410.582" y="338.646" width="1.623" height="13.572"/><rect class="cls-1" x="405.285" y="350.846" width="12.216" height="1.372"/><rect class="cls-1" x="473.322" y="329.45" width="4.774" height="18.197"/><rect class="cls-1" x="474.898" y="338.646" width="1.623" height="13.572"/><rect class="cls-1" x="469.601" y="350.846" width="12.216" height="1.372"/><rect class="cls-2" x="398.463" y="162.133" width="18.7" height="18.7"/><rect class="cls-2" x="454.712" y="33.222" width="20.341" height="6.764"/><rect class="cls-2" x="438.847" y="31.83" width="16.313" height="9.35"/><rect class="cls-2" x="431.287" y="29.777" width="20.291" height="30.103"/><rect class="cls-2" x="434.47" y="48.341" width="29.443" height="11.538"/><rect class="cls-2" x="156.98" y="250.835" width="21.883" height="24.372"/><rect class="cls-1" x="156.98" y="250.835" width="21.883" height="21.367"/><line class="cls-17" x1="474.719" y1="36.274" x2="514.719" y2="36.274"/><rect class="cls-2" x="501.524" width="83.194" height="48.143"/><rect class="cls-2" x="498.443" y="29.145" width="4.676" height="14.72"/><rect class="cls-18" x="489.728" y="101.793" width="108.166" height="16.941" rx="8.47" ry="8.47"/><circle class="cls-19" cx="497.765" cy="110.264" r="7.154"/><circle class="cls-15" cx="497.765" cy="110.264" r="3.765"/><circle class="cls-19" cx="590.741" cy="110.264" r="7.154"/><circle class="cls-15" cx="590.741" cy="110.264" r="3.765"/><rect class="cls-2" x="448.447" y="79.894" width="55.957" height="20.38"/><rect class="cls-2" x="545.809" y="50.489" width="36.477" height="2.379"/><rect class="cls-15" x="655.326" y="326.454" width="24.393" height="3.979"/><path class="cls-1" d="M130.147,166.33c.945-2.767.089-3.679.089-3.679s-1,2.14-4.083.083c-3.956-2.638-5.609-.678-7.884-2.147-2.884-1.861.6-4.167,1.47-8a3.352,3.352,0,0,0-3.679-3.962,2.344,2.344,0,0,0-2.426,2.072c-.185.581-.537,1.57-2.106,1.033s-1.654.452-1.182.881a4.865,4.865,0,0,0,3.225,1.2c1.146-.016,2.2.595,1.609,2.556-.858,2.84-4.546,3.445-5.162,8.469C109.366,170.16,126.647,176.583,130.147,166.33Z" transform="translate(-1.919 0.009)"/><path class="cls-11" d="M57.372,167.588c6.221-3.393,8.228,4.483,15.314,4.483s7.086-4.775,14.172-4.775,7.087,4.775,14.174,4.775,7.085-4.775,14.17-4.775,7.088,4.775,14.175,4.775,7.085-4.775,14.171-4.775,7.09,4.775,14.18,4.775,9.094-7.874,15.321-4.484c3.391,1.846-3.528,5.956-3.528,9.816s4.774,3.86,4.774,7.72-4.774,3.861-4.774,7.721,4.774,3.861,4.774,7.722-4.774,3.862-4.774,7.724,4.774,3.862,4.774,7.723-4.774,3.864-4.774,7.727,6.922,7.974,3.53,9.824c-6.221,3.392-8.229-4.483-15.315-4.483s-7.086,4.774-14.172,4.774-7.087-4.774-14.174-4.774-7.085,4.774-14.17,4.774-7.087-4.774-14.175-4.774-7.085,4.774-14.17,4.774-7.09-4.774-14.18-4.774-9.095,7.874-15.322,4.484c-3.39-1.846,3.529-5.957,3.529-9.817s-4.775-3.86-4.775-7.72,4.775-3.86,4.775-7.72-4.775-3.861-4.775-7.722,4.775-3.862,4.775-7.725-4.775-3.861-4.775-7.722,5.753-4.678,4.681-8.39C59.319,171.594,53.979,169.437,57.372,167.588Z" transform="translate(-1.919 0.009)"/><polygon class="cls-2" points="149.628 72.413 73.177 72.413 61.241 85.622 161.564 85.622 149.628 72.413"/><polyline class="cls-20" points="142.447 245.254 185.219 287.662 185.219 328.774"/><polyline class="cls-20" points="83.99 245.254 41.219 287.662 41.219 328.774"/><polygon class="cls-1" points="161.28 269.284 139.983 247.74 144.911 242.769 171.83 269.335 161.28 269.284"/><polygon class="cls-1" points="54.528 269.438 81.526 242.769 86.454 247.74 64.842 269.281 54.528 269.438"/><rect class="cls-2" y="326.454" width="240.015" height="11.351"/><rect class="cls-1" x="17.094" y="337.805" width="2.785" height="14.511"/><rect class="cls-1" x="10.131" y="349.977" width="16.711" height="2.339"/><rect class="cls-1" x="223.603" y="337.805" width="2.785" height="14.511"/><rect class="cls-1" x="216.64" y="349.977" width="16.711" height="2.339"/><rect class="cls-1" x="324.915" y="113.692" width="11.344" height="26.366" transform="translate(33.757 -69.107) rotate(12.611)"/><rect class="cls-2" x="187.595" y="320.523" width="52.467" height="5.913"/><line class="cls-21" x1="213.829" y1="307.104" x2="244.659" y2="156.416"/><rect class="cls-15" x="240.571" y="137.865" width="12.376" height="35.58" transform="translate(41.469 -53.521) rotate(13.564)"/><path class="cls-2" d="M237.985,320.437a22.238,22.238,0,1,0-44.475,0" transform="translate(-1.919 0.009)"/><polyline class="cls-4" points="319.471 237.68 313.689 289.621 340.902 341.548"/><polygon class="cls-2" points="307.252 349.909 347.859 349.907 347.858 337.257 327.4 337.259 307.251 344.995 307.252 349.909"/><polyline class="cls-4" points="290.467 236.93 254.153 259.791 250.874 321.639"/><polygon class="cls-2" points="226.156 298.77 249.069 332.295 259.512 325.158 247.968 308.267 230.213 295.997 226.156 298.77"/><path class="cls-22" d="M312.609,236.292s-8.116-12.3,2.957-30.476" transform="translate(-1.919 0.009)"/><path class="cls-3" d="M297.092,236.292s-8.116-12.3,2.957-30.476" transform="translate(-1.919 0.009)"/><path class="cls-3" d="M300.673,236.292s-8.116-12.3,2.957-30.476" transform="translate(-1.919 0.009)"/><path class="cls-3" d="M324.546,236.292s-8.117-12.3,2.956-30.476" transform="translate(-1.919 0.009)"/><path class="cls-3" d="M328.126,236.292s-8.116-12.3,2.957-30.476" transform="translate(-1.919 0.009)"/><path class="cls-2" d="M38.637,84.765v169h150v-169Zm124,105.3a15.7,15.7,0,0,1-15.695,15.7H80.333a15.7,15.7,0,0,1-15.7-15.7V142.46a15.7,15.7,0,0,1,15.7-15.7h66.609a15.7,15.7,0,0,1,15.695,15.7Z" transform="translate(-1.919 0.009)"/><path class="cls-3" d="M281.7,148.366c1.271,7.289,9.212,9,12.524,8.147" transform="translate(-1.919 0.009)"/><path class="cls-3" d="M340.4,119.9c-1.492,6.3-1.906,5.41-2.594,12.273" transform="translate(-1.919 0.009)"/><path class="cls-3" d="M324.884,118.707c-1.492,6.305-1.906,5.409-2.594,12.273" transform="translate(-1.919 0.009)"/><circle class="cls-1" cx="24.961" cy="142.863" r="5.512"/><path class="cls-2" d="M407.2,74.5c0-10.218,16.3-18.753,37.721-18.753S482.637,63.777,482.637,74v269.77H407.344Z" transform="translate(-1.919 0.009)"/><rect class="cls-2" x="19.713" y="100.201" width="13.871" height="31.557" transform="translate(51.378 231.968) rotate(-180)"/><rect class="cls-2" x="4.339" y="208.395" width="25.62" height="5.548" transform="translate(32.38 422.347) rotate(-180)"/><rect class="cls-2" x="20.291" y="199.354" width="18.726" height="9.363" transform="translate(57.389 408.079) rotate(-180)"/><circle class="cls-2" cx="6.755" cy="210.965" r="6.751"/><path class="cls-1" d="M253.971,347.765" transform="translate(-1.919 0.009)"/><rect class="cls-2" x="315.914" y="103.388" width="35.999" height="19.601" transform="translate(30.849 -70.163) rotate(12.611)"/><circle class="cls-11" cx="324.77" cy="108.781" r="4.792"/><path class="cls-2" d="M359.012,135.906l-62.829-13.728a11.406,11.406,0,0,0-13.622,8.642l-4.325,19.328,10.241,2.291-1.157,59.949,46.467,10.4,21.5-55.726,8.042,1.8,4.325-19.329A11.407,11.407,0,0,0,359.012,135.906Z" transform="translate(-1.919 0.009)"/><polygon class="cls-2" points="310.566 252.897 294.548 250.284 279.182 222.699 280.008 217.631 334.729 226.557 333.902 231.625 310.566 252.897"/><path class="cls-1" d="M328.308,238.441a6.949,6.949,0,0,0-2.323-5.993L318.7,231.26a6.956,6.956,0,0,0-4.228,5.64l-2.6,23.094,15.592-14.213Z" transform="translate(-1.919 0.009)"/><path class="cls-1" d="M288.676,231.03l-6.976,4.546,6.785,12.18,7.609-4.944a6.961,6.961,0,1,0-7.418-11.782Z" transform="translate(-1.919 0.009)"/><path class="cls-1" d="M298.037,193.88l-9.971-3.865-.039-14.188,8.312,3.222,49.268-28.924c3.228-2.089,5.538-6.164,7.625-2.935a6.96,6.96,0,0,1-2.064,9.625Z" transform="translate(-1.919 0.009)"/><polyline class="cls-4" points="347.469 149.979 295.218 180.833 246.978 162.133"/><polygon class="cls-2" points="310.566 252.897 294.548 250.284 279.182 222.699 280.008 217.631 334.729 226.557 333.902 231.625 310.566 252.897"/><circle class="cls-2" cx="576.144" cy="305.403" r="6.764"/><circle class="cls-11" cx="576.144" cy="305.403" r="5.104"/></svg>