<?xml version="1.0" encoding="utf-8"?>
<!-- Generator: Adobe Illustrator 22.0.1, SVG Export Plug-In . SVG Version: 6.00 Build 0)  -->
<svg version="1.1" id="Layer_1" xmlns="http://www.w3.org/2000/svg" xmlns:xlink="http://www.w3.org/1999/xlink" x="0px" y="0px"
	 viewBox="0 0 823.824 471.059" style="enable-background:new 0 0 823.824 471.059;" xml:space="preserve">
<style type="text/css">
	.st0{fill:#E5F7F9;}
	.st1{fill:#B6DFDC;}
	.st2{fill:#C3C0C4;}
	.st3{fill:#DBC8B5;}
	.st4{fill:#AD9F8E;}
	.st5{fill:none;stroke:#E5E9F0;stroke-width:15;stroke-miterlimit:10;}
	.st6{fill:none;stroke:#414B58;stroke-width:14;stroke-miterlimit:10;}
	.st7{fill:#BFC4C9;}
	.st8{fill:#536070;}
	.st9{fill:#FFFFFF;}
	.st10{fill:none;stroke:#536070;stroke-width:18;stroke-miterlimit:10;}
	.st11{fill:#5D5263;}
	.st12{fill:none;stroke:#48404D;stroke-width:14;stroke-miterlimit:10;}
	.st13{fill:#C1C1C1;}
	.st14{fill:#8F8490;stroke:#5D5263;stroke-width:18;stroke-miterlimit:10;}
	.st15{fill:#8A94A1;}
	.st16{fill:#6D7580;}
	.st17{fill:#A2A0A8;}
	.st18{fill:#5C5868;}
	.st19{fill:#414B58;}
	.st20{fill:#48404D;}
	.st21{fill:none;stroke:#5D5263;stroke-width:18;stroke-miterlimit:10;}
	.st22{fill:#ACA3AC;}
</style>
<rect x="0.235" y="7.765" class="st0" width="823" height="444.897"/>
<g>
	<polygon class="st1" points="566.235,359.765 467.235,359.765 467.235,356.765 458.235,356.765 458.235,359.765 452.235,359.765 
		452.235,350.765 440.235,350.765 440.235,403.765 382.235,403.765 382.235,379.765 373.235,379.765 373.235,388.765 
		256.235,388.765 256.235,384.765 243.235,384.765 243.235,409.765 246.235,418.765 246.235,452.662 577.235,452.662 
		577.235,354.765 566.235,354.765 	"/>
	<polygon class="st1" points="0.235,452.662 237.235,452.662 237.235,431.765 221.235,415.765 221.235,305.765 92.235,305.765 
		92.235,262.765 72.235,262.765 72.235,297.765 27.235,297.765 27.235,282.765 16.235,282.765 16.235,288.765 0.235,288.765 	"/>
	<polygon class="st1" points="786.235,338.765 786.235,300.765 777.235,300.765 777.235,300.765 771.235,300.765 771.235,318.765 
		684.235,318.765 684.235,272.765 587.931,273.098 587.911,452.662 823.235,452.662 823.235,338.765 	"/>
</g>
<rect x="256.235" y="7.765" class="st2" width="13" height="452"/>
<rect x="535.235" y="7.765" class="st2" width="13" height="452"/>
<path class="st3" d="M328.86,218.518L328.86,218.518c4.125,0,7.5-3.375,7.5-7.5v-19.875c0-4.125-3.375-7.5-7.5-7.5l0,0
	c-4.125,0-7.5,3.375-7.5,7.5v19.875C321.36,215.143,324.735,218.518,328.86,218.518z"/>
<path class="st3" d="M321.36,150.83v38.25c0,6.627,5.373,12,12,12l0,0h15c6.627,0,12-5.373,12-12v-38.25H321.36z"/>
<path class="st4" d="M321.235,184.765h0.375h3c3.314,0,5.625-2.621,5.625-5.935v-14.966c0-1.676,1.733-3.099,3.409-3.099h1.591
	v7.065c3,0,6-2.686,6-6v-1.967c0-3.608,2.8-6.098,6.408-6.098h8.467h4.125v-5h-39V184.765z"/>
<path class="st4" d="M321.235,184.765h0.375h3c3.314,0,5.625-2.621,5.625-5.935v-14.966c0-1.676,1.733-3.099,3.409-3.099h1.591
	v7.065c3,0,6-2.686,6-6v-1.967c0-3.608,2.8-6.098,6.408-6.098h8.467h4.125v-5h-39V184.765z"/>
<ellipse class="st3" cx="408.484" cy="297.63" rx="11.376" ry="7.872"/>
<ellipse class="st3" cx="405.64" cy="292.53" rx="6.981" ry="5.1"/>
<line class="st5" x1="387.985" y1="292.449" x2="398.659" y2="295.561"/>
<line class="st6" x1="332.235" y1="431.765" x2="332.235" y2="456.765"/>
<path class="st7" d="M318.635,213.544l27.975,9.786v-3.126c0-7.075-5.736-12.811-12.811-12.811h-15.164V213.544z"/>
<path class="st8" d="M362.157,130.393L362.157,130.393v1.063c0,2.692-2.183,4.875-4.875,4.875h4.5H333.61h-3
	c-4.142,0-7.5,3.358-7.5,7.5v0h-1.5c-4.142,0-7.5,3.358-7.5,7.5v0v25.569c0,3.276,2.655,5.931,5.931,5.931h1.569h3
	c3.314,0,6-2.686,6-6l0,0v-11.966c0-1.676,1.358-3.034,3.034-3.034h1.466v6l0,0c3.314,0,6-2.686,6-6l0,0v-3.967
	c0-3.608,2.925-6.533,6.533-6.533h8.467h4.5h1.484c5.773,0,10.453-4.68,10.453-10.453v-0.031
	C372.548,135.097,367.906,130.427,362.157,130.393L362.157,130.393z"/>
<path class="st8" d="M352.798,167.111c0,0.846,0.686,1.531,1.531,1.531c0.846,0,1.531-0.686,1.531-1.531
	c0-0.846-0.686-1.531-1.531-1.531C353.483,165.58,352.798,166.266,352.798,167.111z"/>
<path class="st8" d="M352.798,167.111c0,0.846,0.686,1.531,1.531,1.531c0.846,0,1.531-0.686,1.531-1.531
	c0-0.846-0.686-1.531-1.531-1.531C353.483,165.58,352.798,166.266,352.798,167.111z"/>
<rect x="357.61" y="161.08" transform="matrix(-1 -4.451207e-11 4.451207e-11 -1 717.3456 332.6602)" class="st9" width="2.125" height="10.5"/>
<rect x="336.227" y="163.518" transform="matrix(-1 -5.736357e-11 5.736357e-11 -1 694.7768 328.4102)" class="st8" width="22.324" height="1.375"/>
<rect x="352.919" y="165.759" transform="matrix(6.123234e-17 -1 1 6.123234e-17 191.8516 524.477)" class="st8" width="10.49" height="1.108"/>
<ellipse class="st9" cx="353.813" cy="188.564" rx="3.703" ry="2.484"/>
<path class="st3" d="M359.772,166.393l5.576,8.238c1.161,2.003-0.284,4.512-2.599,4.512h-2.978
	C359.77,179.143,359.74,167.283,359.772,166.393z"/>
<path class="st8" d="M342.308,444.83l10.837,9.465c0.537,0.469,1.13,0.87,1.766,1.192l2.962,1.504
	c1.769,0.898,3.725,1.367,5.708,1.367h4.392c3.188,0,5.773,2.585,5.773,5.773v0.744h-17.922h-13.479l-2.306-1.251
	c-2.499-1.356-5.544-1.218-7.91,0.359l-1.338,0.892h-9.183v-4.74l0.002-13.419l3.645-0.031c4.21,3.374,10.181,3.433,14.456,0.143
	L342.308,444.83z"/>
<path class="st8" d="M342.308,444.83l10.837,9.465c0.537,0.469,1.13,0.87,1.766,1.192l2.962,1.504
	c1.769,0.898,3.725,1.367,5.708,1.367h4.392c3.188,0,5.773,2.585,5.773,5.773v0.744h-17.922h-13.479l-2.306-1.251
	c-2.499-1.356-5.544-1.218-7.91,0.359l-1.338,0.892h-9.183v-4.74l0.002-13.419l3.645-0.031c4.21,3.374,10.181,3.433,14.456,0.143
	L342.308,444.83z"/>
<line class="st10" x1="333.235" y1="312.765" x2="333.235" y2="443.765"/>
<path class="st3" d="M428.362,294.63c0,4.348-5.093,10.872-11.376,10.872s-11.376-3.524-11.376-7.872
	c0-4.348,5.093-7.872,11.376-7.872S428.362,290.282,428.362,294.63z"/>
<ellipse class="st3" cx="419.83" cy="292.53" rx="6.981" ry="5.1"/>
<line class="st5" x1="434.468" y1="290.836" x2="425.311" y2="294.061"/>
<circle class="st11" cx="490.235" cy="311.453" r="18.123"/>
<line class="st12" x1="490.735" y1="431.765" x2="490.735" y2="456.765"/>
<path class="st3" d="M495.11,218.518L495.11,218.518c-4.125,0-7.5-3.375-7.5-7.5v-19.875c0-4.125,3.375-7.5,7.5-7.5h0
	c4.125,0,7.5,3.375,7.5,7.5v19.875C502.61,215.143,499.235,218.518,495.11,218.518z"/>
<path class="st13" d="M505.336,217.544l-27.975,5.786v-3.126c0-7.075,5.736-12.811,12.811-12.811h15.164V217.544z"/>
<path class="st3" d="M502.61,150.83v38.25c0,6.627-5.373,12-12,12h0h-15c-6.627,0-12-5.373-12-12v-38.25H502.61z"/>
<path class="st8" d="M471.173,167.111c0,0.846-0.686,1.531-1.531,1.531c-0.846,0-1.531-0.686-1.531-1.531
	c0-0.846,0.686-1.531,1.531-1.531C470.487,165.58,471.173,166.266,471.173,167.111z"/>
<path class="st11" d="M471.173,167.111c0,0.846-0.686,1.531-1.531,1.531c-0.846,0-1.531-0.686-1.531-1.531
	c0-0.846,0.686-1.531,1.531-1.531C470.487,165.58,471.173,166.266,471.173,167.111z"/>
<path class="st3" d="M464.199,166.393l-5.576,8.238c-1.161,2.003,0.284,4.512,2.599,4.512h2.978
	C464.201,179.143,464.231,167.283,464.199,166.393z"/>
<line class="st14" x1="490.235" y1="312.765" x2="490.235" y2="443.765"/>
<path class="st11" d="M479.23,444.83l-10.837,9.465c-0.537,0.469-1.13,0.87-1.766,1.192l-2.962,1.504
	c-1.769,0.898-3.725,1.367-5.708,1.367h-4.392c-3.188,0-5.773,2.585-5.773,5.773v0.744h17.922h13.479l2.306-1.251
	c2.499-1.356,5.544-1.218,7.91,0.359l1.338,0.892h9.183v-4.74l-0.002-13.419l-3.645-0.031c-4.21,3.374-10.181,3.433-14.456,0.143
	L479.23,444.83z"/>
<path class="st11" d="M499.711,212.499L499.711,212.499c4.777,0,8.649,3.872,8.649,8.649v92.389h-44.987v-64.701
	C463.373,228.768,479.642,212.499,499.711,212.499z"/>
<path class="st9" d="M475.86,187.438v0.588c0,1.67-1.354,3.023-3.023,3.023h-0.168h-4.031l0,0c-1.67,0-3.023-1.354-3.023-3.023
	v-0.588"/>
<rect x="150.054" y="460.382" class="st15" width="100.923" height="4.063"/>
<rect x="194.342" y="394.822" class="st15" width="12.348" height="66.123"/>
<rect x="194.342" y="394.822" class="st16" width="12.348" height="12.51"/>
<rect x="197.541" y="378.655" class="st16" width="5.948" height="16.259"/>
<rect x="573.198" y="460.382" transform="matrix(-1 -4.489665e-11 4.489665e-11 -1 1247.3181 924.8276)" class="st15" width="100.923" height="4.063"/>
<rect x="617.485" y="394.822" transform="matrix(-1 -4.478385e-11 4.478385e-11 -1 1247.3181 855.767)" class="st15" width="12.348" height="66.123"/>
<rect x="617.485" y="394.822" transform="matrix(-1 -4.478385e-11 4.478385e-11 -1 1247.3181 802.1547)" class="st16" width="12.348" height="12.51"/>
<rect x="620.685" y="378.655" transform="matrix(-1 -4.495749e-11 4.495749e-11 -1 1247.3181 773.5695)" class="st16" width="5.948" height="16.259"/>
<g>
	
		<rect x="138.711" y="339.053" transform="matrix(0.9992 -0.0401 0.0401 0.9992 -14.464 8.2859)" class="st17" width="121.608" height="51.985"/>
	
		<rect x="137.179" y="301.236" transform="matrix(0.9992 -0.0401 0.0401 0.9992 -12.9939 6.0143)" class="st17" width="12.783" height="51.985"/>
	
		<rect x="563.855" y="339.053" transform="matrix(-0.9992 -0.0401 0.0401 -0.9992 1234.1925 754.8232)" class="st17" width="121.608" height="51.985"/>
	
		<rect x="674.213" y="301.236" transform="matrix(-0.9992 -0.0401 0.0401 -0.9992 1347.5531 681.4592)" class="st17" width="12.783" height="51.985"/>
</g>
<g>
	<rect x="708.478" y="175.358" class="st18" width="104.246" height="66.061"/>
	<rect x="756.735" y="241.418" class="st15" width="7.731" height="218.373"/>
	<rect x="756.735" y="241.418" class="st16" width="7.731" height="11.866"/>
	<rect x="726.572" y="459.888" class="st15" width="68.057" height="4.207"/>
</g>
<path class="st8" d="M362.757,312.828c0,10.009-20.515,18.248-30.524,18.248c-10.009,0-18.123-8.114-18.123-18.123
	s8.114-18.123,18.123-18.123C342.242,294.83,362.757,302.819,362.757,312.828z"/>
<path class="st8" d="M322.76,212.499L322.76,212.499c-4.777,0-8.649,3.872-8.649,8.649v92.389h59.987v-47.519
	C374.097,229.563,342.828,212.499,322.76,212.499z"/>
<path class="st19" d="M374.092,300.731l-23.056-7.265c-8.922-2.854-15.988-9.873-18.903-18.775L321.608,237.7l15.082-4.938
	l12.549,38.328c1.123,3.429,3.845,6.133,7.282,7.232l17.582,5.513L374.092,300.731z"/>
<path class="st20" d="M463.373,279.166l5.42-1.728c1.831-0.584,3.306-2.015,3.943-3.829l14.607-41.532l14.267,5.369l-11.894,40.135
	c-2.5,7.108-8.278,12.718-15.457,15.006l-10.887,3.47L463.373,279.166z"/>
<path class="st10" d="M328.136,229.563l12.549,38.328c2.025,6.184,6.895,11.021,13.092,13.004l36.467,11.667"/>
<path class="st21" d="M495.834,228.063l-14.608,41.533c-1.578,4.487-5.169,7.973-9.701,9.417l-37.801,12.049"/>
<path class="st4" d="M502.61,184.765h-0.375h-3c-3.314,0-5.625-2.621-5.625-5.935v-14.966c0-1.676-1.733-3.099-3.409-3.099h-1.591
	v7.065c-3,0-6-2.686-6-6v-1.967c0-3.608-2.8-6.098-6.408-6.098h-8.467h-4.125v-5h39V184.765z"/>
<path class="st22" d="M461.813,130.393L461.813,130.393v1.063c0,2.692,2.183,4.875,4.875,4.875h-4.5h28.172h3
	c4.142,0,7.5,3.358,7.5,7.5v0h1.5c4.142,0,7.5,3.358,7.5,7.5v0v25.569c0,3.276-2.655,5.931-5.931,5.931h-1.569h-3
	c-3.314,0-6-2.686-6-6l0,0v-11.966c0-1.676-1.358-3.034-3.034-3.034h-1.466v6l0,0c-3.314,0-6-2.686-6-6l0,0v-3.967
	c0-3.608-2.925-6.533-6.533-6.533h-8.467h-4.5h-1.484c-5.773,0-10.453-4.68-10.453-10.453v-0.031c0-1.962,0.541-3.799,1.482-5.368
	c0,0,0.29,3.977,5.831,4.727C456.757,134.657,459.329,131.893,461.813,130.393L461.813,130.393z"/>
<path class="st19" d="M314.958,318.431h45.682c1.168-1.554,1.909-3.195,2.073-4.894H314.14
	C314.194,315.237,314.467,316.881,314.958,318.431z"/>
<path class="st20" d="M473.509,318.431h33.452c0.641-1.535,1.071-3.179,1.268-4.894h-35.987
	C472.438,315.252,472.868,316.896,473.509,318.431z"/>
</svg>
