<svg id="Layer_1" data-name="Layer 1" xmlns="http://www.w3.org/2000/svg" viewBox="0 0 202.75 319.14"><defs><style>.cls-1{fill:#dbc8b5;}.cls-2{fill:#5d5263;}.cls-3{fill:#ad9f8e;}.cls-4{fill:#aca3ac;}.cls-5{fill:#fff;}.cls-6,.cls-7,.cls-8{fill:none;}.cls-6{stroke:#48404d;stroke-width:13.8px;}.cls-6,.cls-7,.cls-8,.cls-9{stroke-miterlimit:10;}.cls-7{stroke:#e5e9f0;stroke-width:14.44px;}.cls-8,.cls-9{stroke:#5d5263;stroke-width:17.33px;}.cls-9{fill:#8f8490;}.cls-10{fill:#e5e9f0;}.cls-11{fill:#7b838f;}.cls-12{fill:#48404d;}</style></defs><title>0_guy</title><path class="cls-1" d="M154.82,24.73V61.57a11.55,11.55,0,0,1-11.56,11.55H128.82a11.56,11.56,0,0,1-11.56-11.55V24.73Z" transform="translate(-4.52 -5.78)"/><rect class="cls-1" x="126.7" y="55.91" width="14.44" height="33.58" rx="7.22" ry="7.22"/><path class="cls-2" d="M122.07,41.13a1.48,1.48,0,1,0,1.48-1.47A1.48,1.48,0,0,0,122.07,41.13Z" transform="translate(-4.52 -5.78)"/><path class="cls-2" d="M141.69,41.13a1.48,1.48,0,1,1-1.47-1.47A1.47,1.47,0,0,1,141.69,41.13Z" transform="translate(-4.52 -5.78)"/><path class="cls-3" d="M120.37,7.7h0v1a4.69,4.69,0,0,0,4.7,4.7h18.46a7.22,7.22,0,0,1,7.22,7.22h0A7.22,7.22,0,0,1,158,27.86h0V48.63c0,3.16-1,5.72-4.11,5.72V58.2L153.64,37a2.92,2.92,0,0,0-2.92-2.92h0V39.9A5.78,5.78,0,0,1,145,34.12h0v0a6.29,6.29,0,0,0-6.29-6.29H120.43a10.07,10.07,0,0,1-3.17-.51l.15-10.2c-2-4.93.66-8.32,3-9.45Z" transform="translate(-4.52 -5.78)"/><path class="cls-4" d="M120.37,5.78h0v1a4.69,4.69,0,0,0,4.7,4.69h18.46a7.23,7.23,0,0,1,7.22,7.23h0A7.22,7.22,0,0,1,158,25.94h0V50.56c0,3.15-1,5.71-4.11,5.71h0L153.64,39a2.92,2.92,0,0,0-2.92-2.92h0v5.78h0A5.78,5.78,0,0,1,145,36.05h0V32.23a6.28,6.28,0,0,0-6.29-6.29H120.43a10.07,10.07,0,0,1-10.07-10.07v0a9.49,9.49,0,0,1,1.43-5.17s.25,3.75,5.62,4.55c-2-4.93.66-8.32,3-9.44Z" transform="translate(-4.52 -5.78)"/><path class="cls-5" d="M140.86,59v.88a4.53,4.53,0,0,1-4.53,4.53H130a4.53,4.53,0,0,1-4.53-4.53V59" transform="translate(-4.52 -5.78)"/><line class="cls-6" x1="146.06" y1="289.62" x2="146.06" y2="318.37"/><line class="cls-6" x1="120.76" y1="289.62" x2="120.76" y2="318.37"/><path class="cls-1" d="M30.05,119.07c.38-4.16-5.95-9.56-10-5.08-5.11,5.65-15.12,1.4-15.49,5.57s7.89,5.53,13.91,6.07S29.67,123.24,30.05,119.07Z" transform="translate(-4.52 -5.78)"/><line class="cls-7" x1="33.06" y1="114.25" x2="21.03" y2="113.81"/><path class="cls-8" d="M110.38,97.08s-19.74,20.36-35,21.69c-27.91,2.41-42.21,1.39-42.21,1.39" transform="translate(-4.52 -5.78)"/><path class="cls-9" d="M150.77,178.51s2.89,52,2.89,62.11c0,26.74-2.89,62.11-2.89,62.11" transform="translate(-4.52 -5.78)"/><path class="cls-9" d="M124.77,178.51s-3.85,46.7-3.85,59.7c0,31.45,3.85,64.52,3.85,64.52" transform="translate(-4.52 -5.78)"/><path class="cls-2" d="M142.29,308.57v15.89h27.44v-2.89h0a4,4,0,0,0-2.73-3.82l-5-1.23-3.61-7.95Z" transform="translate(-4.52 -5.78)"/><polygon class="cls-10" points="125.49 81.44 141.71 81.44 133.88 75.85 125.49 81.44"/><polygon class="cls-10" points="125.49 81.44 133.55 130.56 141.71 81.44 125.49 81.44"/><polygon class="cls-11" points="133.55 161.24 138.22 154.83 135.72 82.43 139.37 79.61 133.88 76.2 127.78 79.48 131.47 82.52 128.92 154.82 133.55 161.24"/><polygon class="cls-10" points="126.09 72.53 120.55 76.77 125.49 81.79 133.88 76.2 126.09 72.53"/><polygon class="cls-10" points="141.1 72.53 146.55 77.05 141.71 81.79 133.88 76.2 141.1 72.53"/><line class="cls-1" x1="129.22" y1="66.39" x2="143.66" y2="66.39"/><ellipse class="cls-2" cx="132.95" cy="171.35" rx="29.98" ry="17.57"/><path class="cls-12" d="M107.49,177.12c0,3.57,1.82,6.89,4.94,9.66h50.08c3.12-2.77,4.93-6.09,4.93-9.66a11,11,0,0,0-1-4.56h-57.9A11,11,0,0,0,107.49,177.12Z" transform="translate(-4.52 -5.78)"/><path class="cls-2" d="M107,89l18.09-6.4,4.94,5,8.06,49.11,8.16-49.11,4.84-4.75L167.21,89a7.77,7.77,0,0,1,5.53,7.43V180H101.48V96.37A7.74,7.74,0,0,1,107,89Z" transform="translate(-4.52 -5.78)"/><path class="cls-2" d="M116.55,305.61l-10.43,9.12a8.42,8.42,0,0,1-1.7,1.14l-2.86,1.45a12,12,0,0,1-5.49,1.32H91.84a5.56,5.56,0,0,0-5.56,5.56v.71h30.24l2.22-1.2a7.36,7.36,0,0,1,7.61.35l1.29.85h8.85V307.43l-3.51,0a11.26,11.26,0,0,1-13.92.13Z" transform="translate(-4.52 -5.78)"/><ellipse class="cls-1" cx="169.06" cy="173.56" rx="10.95" ry="7.58" transform="translate(-72.31 116.73) rotate(-33.59)"/><ellipse class="cls-1" cx="168.62" cy="167.95" rx="6.72" ry="4.91" transform="translate(-69.28 115.55) rotate(-33.59)"/><line class="cls-7" x1="183.67" y1="156.53" x2="171.74" y2="162.93"/><path class="cls-8" d="M164.23,97.08s34.08,32.93,34.38,46.18c.32,14.34-16.3,22.23-16.3,22.23" transform="translate(-4.52 -5.78)"/></svg>